<svg width="5760" height="950" viewBox="0 0 5760 950" fill="none" xmlns="http://www.w3.org/2000/svg">
<g clip-path="url(#clip0_3929_9970)">
<rect width="5760" height="950" fill="white"/>
<g clip-path="url(#clip1_3929_9970)">
<rect width="1920" height="950" fill="#E2E8F0"/>
<g filter="url(#filter0_iiii_3929_9970)">
<path d="M-903.991 834V688.545H-802.571V717.097H-868.835V746.926H-807.756V775.548H-868.835V805.449H-802.571V834H-903.991ZM-737.528 688.545L-705 795.08H-703.793L-671.264 688.545H-631.918L-680.994 834H-727.798L-776.875 688.545H-737.528ZM-606.257 834V688.545H-504.837V717.097H-571.101V746.926H-510.021V775.548H-571.101V805.449H-504.837V834H-606.257ZM-472.82 834V688.545H-412.734C-401.844 688.545 -392.446 690.51 -384.538 694.44C-376.584 698.323 -370.452 703.91 -366.143 711.202C-361.835 718.446 -359.68 727.04 -359.68 736.983C-359.68 747.068 -361.882 755.638 -366.286 762.693C-370.689 769.701 -376.939 775.051 -385.036 778.744C-393.132 782.39 -402.72 784.213 -413.8 784.213H-451.797V756.514H-420.334C-415.031 756.514 -410.604 755.828 -407.053 754.455C-403.454 753.034 -400.732 750.903 -398.885 748.062C-397.038 745.174 -396.115 741.481 -396.115 736.983C-396.115 732.485 -397.038 728.768 -398.885 725.832C-400.732 722.849 -403.454 720.624 -407.053 719.156C-410.651 717.641 -415.078 716.884 -420.334 716.884H-437.663V834H-472.82ZM-390.93 767.523L-354.709 834H-393.061L-428.572 767.523H-390.93ZM-344.087 688.545H-304.812L-274.059 749.412H-272.781L-242.028 688.545H-202.752L-255.948 785.42V834H-290.891V785.42L-344.087 688.545ZM6.98509 741.244H-28.5263C-28.9998 737.598 -29.9704 734.308 -31.4382 731.372C-32.906 728.437 -34.8473 725.927 -37.2621 723.844C-39.6768 721.76 -42.5414 720.174 -45.8558 719.085C-49.1229 717.949 -52.745 717.381 -56.7223 717.381C-63.7772 717.381 -69.8615 719.109 -74.9751 722.565C-80.0414 726.022 -83.9477 731.017 -86.6939 737.551C-89.3928 744.085 -90.7422 751.992 -90.7422 761.273C-90.7422 770.932 -89.3691 779.028 -86.6229 785.562C-83.8293 792.049 -79.9231 796.95 -74.9041 800.264C-69.8378 803.531 -63.8482 805.165 -56.9354 805.165C-53.0528 805.165 -49.5253 804.668 -46.353 803.673C-43.1333 802.679 -40.3161 801.235 -37.9013 799.341C-35.4392 797.4 -33.4268 795.056 -31.8643 792.31C-30.2545 789.516 -29.1418 786.367 -28.5263 782.864L6.98509 783.077C6.36956 789.516 4.4993 795.861 1.3743 802.111C-1.70336 808.361 -5.94105 814.066 -11.3388 819.227C-16.7365 824.341 -23.3179 828.413 -31.0831 831.443C-38.8009 834.473 -47.6551 835.989 -57.6456 835.989C-70.8085 835.989 -82.5982 833.1 -93.0149 827.324C-103.384 821.5 -111.576 813.025 -117.589 801.898C-123.602 790.771 -126.609 777.229 -126.609 761.273C-126.609 745.269 -123.555 731.704 -117.447 720.577C-111.339 709.45 -103.076 700.998 -92.6598 695.222C-82.2431 689.445 -70.5717 686.557 -57.6456 686.557C-48.8388 686.557 -40.6948 687.788 -33.2138 690.25C-25.7327 692.665 -19.1513 696.216 -13.4695 700.903C-7.78764 705.544 -3.17116 711.249 0.379975 718.02C3.93111 724.791 6.13281 732.532 6.98509 741.244ZM174.389 761.273C174.389 777.277 171.312 790.842 165.156 801.969C159.001 813.096 150.668 821.547 140.156 827.324C129.692 833.1 117.95 835.989 104.929 835.989C91.8608 835.989 80.0947 833.077 69.6307 827.253C59.1667 821.429 50.857 812.977 44.7017 801.898C38.5938 790.771 35.5398 777.229 35.5398 761.273C35.5398 745.269 38.5938 731.704 44.7017 720.577C50.857 709.45 59.1667 700.998 69.6307 695.222C80.0947 689.445 91.8608 686.557 104.929 686.557C117.95 686.557 129.692 689.445 140.156 695.222C150.668 700.998 159.001 709.45 165.156 720.577C171.312 731.704 174.389 745.269 174.389 761.273ZM138.452 761.273C138.452 751.803 137.102 743.801 134.403 737.267C131.752 730.733 127.917 725.785 122.898 722.423C117.926 719.062 111.937 717.381 104.929 717.381C97.9688 717.381 91.9792 719.062 86.9602 722.423C81.9413 725.785 78.0824 730.733 75.3835 737.267C72.732 743.801 71.4062 751.803 71.4062 761.273C71.4062 770.742 72.732 778.744 75.3835 785.278C78.0824 791.812 81.9413 796.76 86.9602 800.122C91.9792 803.484 97.9688 805.165 104.929 805.165C111.937 805.165 117.926 803.484 122.898 800.122C127.917 796.76 131.752 791.812 134.403 785.278C137.102 778.744 138.452 770.742 138.452 761.273ZM204.915 688.545H248.452L285.384 778.602H287.088L324.02 688.545H367.557V834H333.324V744.653H332.116L297.173 833.077H275.298L240.355 744.156H239.148V834H204.915V688.545ZM399.485 834V688.545H459.57C470.46 688.545 479.859 690.676 487.766 694.938C495.721 699.152 501.853 705.046 506.161 712.622C510.47 720.151 512.624 728.91 512.624 738.901C512.624 748.938 510.423 757.722 506.019 765.25C501.663 772.731 495.437 778.531 487.34 782.651C479.244 786.77 469.632 788.83 458.505 788.83H421.431V761.131H451.971C457.274 761.131 461.701 760.207 465.252 758.361C468.851 756.514 471.573 753.934 473.42 750.619C475.266 747.258 476.19 743.351 476.19 738.901C476.19 734.402 475.266 730.52 473.42 727.253C471.573 723.938 468.851 721.382 465.252 719.582C461.654 717.783 457.227 716.884 451.971 716.884H434.641V834H399.485ZM553.839 834H516.055L565.131 688.545H611.935L661.012 834H623.228L589.066 725.193H587.93L553.839 834ZM548.796 776.756H627.773V803.46H548.796V776.756ZM810.465 688.545V834H780.636L722.752 750.051H721.829V834H686.673V688.545H716.928L774.173 772.352H775.38V688.545H810.465ZM835.327 688.545H874.602L905.355 749.412H906.634L937.386 688.545H976.662L923.466 785.42V834H888.523V785.42L835.327 688.545ZM1178.16 688.545V834H1148.33L1090.45 750.051H1089.52V834H1054.37V688.545H1084.62L1141.87 772.352H1143.08V688.545H1178.16ZM1210.27 834V688.545H1311.69V717.097H1245.42V746.926H1306.5V775.548H1245.42V805.449H1311.69V834H1210.27ZM1343.7 834V688.545H1445.12V717.097H1378.86V746.926H1439.94V775.548H1378.86V805.449H1445.12V834H1343.7ZM1530.91 834H1477.14V688.545H1530.83C1545.65 688.545 1558.42 691.457 1569.12 697.281C1579.86 703.058 1588.15 711.391 1593.97 722.281C1599.8 733.124 1602.71 746.098 1602.71 761.202C1602.71 776.353 1599.8 789.374 1593.97 800.264C1588.2 811.154 1579.93 819.511 1569.19 825.335C1558.44 831.112 1545.68 834 1530.91 834ZM1512.3 804.028H1529.56C1537.7 804.028 1544.59 802.655 1550.22 799.909C1555.91 797.116 1560.19 792.594 1563.08 786.344C1566.01 780.046 1567.48 771.666 1567.48 761.202C1567.48 750.738 1566.01 742.404 1563.08 736.202C1560.14 729.952 1555.81 725.454 1550.08 722.707C1544.4 719.914 1537.39 718.517 1529.06 718.517H1512.3V804.028ZM1711.86 732.153C1711.38 726.945 1709.28 722.897 1705.54 720.009C1701.84 717.073 1696.56 715.605 1689.7 715.605C1685.15 715.605 1681.36 716.197 1678.33 717.381C1675.3 718.564 1673.03 720.198 1671.52 722.281C1670 724.317 1669.22 726.661 1669.17 729.312C1669.08 731.491 1669.5 733.408 1670.45 735.065C1671.45 736.723 1672.87 738.19 1674.71 739.469C1676.61 740.7 1678.88 741.789 1681.53 742.736C1684.18 743.683 1687.17 744.511 1690.48 745.222L1702.98 748.062C1710.18 749.625 1716.52 751.708 1722.01 754.312C1727.55 756.917 1732.19 760.018 1735.93 763.616C1739.72 767.215 1742.59 771.358 1744.53 776.045C1746.47 780.733 1747.46 785.989 1747.51 791.812C1747.46 800.998 1745.14 808.882 1740.55 815.463C1735.96 822.045 1729.35 827.087 1720.74 830.591C1712.17 834.095 1701.82 835.847 1689.7 835.847C1677.53 835.847 1666.92 834.024 1657.88 830.378C1648.84 826.732 1641.81 821.192 1636.79 813.759C1631.77 806.325 1629.19 796.926 1629.04 785.562H1662.71C1662.99 790.25 1664.25 794.156 1666.47 797.281C1668.7 800.406 1671.75 802.774 1675.64 804.384C1679.57 805.993 1684.11 806.798 1689.27 806.798C1694.01 806.798 1698.03 806.159 1701.35 804.881C1704.71 803.602 1707.29 801.827 1709.09 799.554C1710.89 797.281 1711.81 794.677 1711.86 791.741C1711.81 788.995 1710.96 786.652 1709.3 784.71C1707.64 782.722 1705.09 781.017 1701.63 779.597C1698.22 778.129 1693.86 776.779 1688.56 775.548L1673.36 771.997C1660.77 769.109 1650.85 764.445 1643.6 758.006C1636.36 751.519 1632.76 742.759 1632.81 731.727C1632.76 722.731 1635.18 714.848 1640.05 708.077C1644.93 701.306 1651.68 696.027 1660.29 692.239C1668.91 688.451 1678.74 686.557 1689.77 686.557C1701.04 686.557 1710.82 688.474 1719.1 692.31C1727.43 696.098 1733.9 701.424 1738.49 708.29C1743.08 715.155 1745.43 723.11 1745.52 732.153H1711.86Z" fill="#E2E8F0"/>
</g>
<g filter="url(#filter1_iiii_3929_9970)">
<path d="M211.009 282V136.545H312.429V165.097H246.165V194.926H307.244V223.548H246.165V253.449H312.429V282H211.009ZM377.472 136.545L410 243.08H411.207L443.736 136.545H483.082L434.006 282H387.202L338.125 136.545H377.472ZM508.743 282V136.545H610.163V165.097H543.899V194.926H604.979V223.548H543.899V253.449H610.163V282H508.743ZM642.18 282V136.545H702.266C713.156 136.545 722.554 138.51 730.462 142.44C738.416 146.323 744.548 151.91 748.857 159.202C753.165 166.446 755.32 175.04 755.32 184.983C755.32 195.068 753.118 203.638 748.714 210.693C744.311 217.701 738.061 223.051 729.964 226.744C721.868 230.39 712.28 232.213 701.2 232.213H663.203V204.514H694.666C699.969 204.514 704.396 203.828 707.947 202.455C711.546 201.034 714.268 198.903 716.115 196.062C717.962 193.174 718.885 189.481 718.885 184.983C718.885 180.485 717.962 176.768 716.115 173.832C714.268 170.849 711.546 168.624 707.947 167.156C704.349 165.641 699.922 164.884 694.666 164.884H677.337V282H642.18ZM724.07 215.523L760.291 282H721.939L686.428 215.523H724.07ZM770.913 136.545H810.188L840.941 197.412H842.219L872.972 136.545H912.248L859.052 233.42V282H824.109V233.42L770.913 136.545ZM1121.99 189.244H1086.47C1086 185.598 1085.03 182.308 1083.56 179.372C1082.09 176.437 1080.15 173.927 1077.74 171.844C1075.32 169.76 1072.46 168.174 1069.14 167.085C1065.88 165.949 1062.25 165.381 1058.28 165.381C1051.22 165.381 1045.14 167.109 1040.02 170.565C1034.96 174.022 1031.05 179.017 1028.31 185.551C1025.61 192.085 1024.26 199.992 1024.26 209.273C1024.26 218.932 1025.63 227.028 1028.38 233.562C1031.17 240.049 1035.08 244.95 1040.1 248.264C1045.16 251.531 1051.15 253.165 1058.06 253.165C1061.95 253.165 1065.47 252.668 1068.65 251.673C1071.87 250.679 1074.68 249.235 1077.1 247.341C1079.56 245.4 1081.57 243.056 1083.14 240.31C1084.75 237.516 1085.86 234.367 1086.47 230.864L1121.99 231.077C1121.37 237.516 1119.5 243.861 1116.37 250.111C1113.3 256.361 1109.06 262.066 1103.66 267.227C1098.26 272.341 1091.68 276.413 1083.92 279.443C1076.2 282.473 1067.34 283.989 1057.35 283.989C1044.19 283.989 1032.4 281.1 1021.99 275.324C1011.62 269.5 1003.42 261.025 997.411 249.898C991.398 238.771 988.391 225.229 988.391 209.273C988.391 193.269 991.445 179.704 997.553 168.577C1003.66 157.45 1011.92 148.998 1022.34 143.222C1032.76 137.445 1044.43 134.557 1057.35 134.557C1066.16 134.557 1074.31 135.788 1081.79 138.25C1089.27 140.665 1095.85 144.216 1101.53 148.903C1107.21 153.544 1111.83 159.249 1115.38 166.02C1118.93 172.791 1121.13 180.532 1121.99 189.244ZM1289.39 209.273C1289.39 225.277 1286.31 238.842 1280.16 249.969C1274 261.096 1265.67 269.547 1255.16 275.324C1244.69 281.1 1232.95 283.989 1219.93 283.989C1206.86 283.989 1195.09 281.077 1184.63 275.253C1174.17 269.429 1165.86 260.977 1159.7 249.898C1153.59 238.771 1150.54 225.229 1150.54 209.273C1150.54 193.269 1153.59 179.704 1159.7 168.577C1165.86 157.45 1174.17 148.998 1184.63 143.222C1195.09 137.445 1206.86 134.557 1219.93 134.557C1232.95 134.557 1244.69 137.445 1255.16 143.222C1265.67 148.998 1274 157.45 1280.16 168.577C1286.31 179.704 1289.39 193.269 1289.39 209.273ZM1253.45 209.273C1253.45 199.803 1252.1 191.801 1249.4 185.267C1246.75 178.733 1242.92 173.785 1237.9 170.423C1232.93 167.062 1226.94 165.381 1219.93 165.381C1212.97 165.381 1206.98 167.062 1201.96 170.423C1196.94 173.785 1193.08 178.733 1190.38 185.267C1187.73 191.801 1186.41 199.803 1186.41 209.273C1186.41 218.742 1187.73 226.744 1190.38 233.278C1193.08 239.812 1196.94 244.76 1201.96 248.122C1206.98 251.484 1212.97 253.165 1219.93 253.165C1226.94 253.165 1232.93 251.484 1237.9 248.122C1242.92 244.76 1246.75 239.812 1249.4 233.278C1252.1 226.744 1253.45 218.742 1253.45 209.273ZM1319.91 136.545H1363.45L1400.38 226.602H1402.09L1439.02 136.545H1482.56V282H1448.32V192.653H1447.12L1412.17 281.077H1390.3L1355.36 192.156H1354.15V282H1319.91V136.545ZM1514.49 282V136.545H1574.57C1585.46 136.545 1594.86 138.676 1602.77 142.938C1610.72 147.152 1616.85 153.046 1621.16 160.622C1625.47 168.151 1627.62 176.91 1627.62 186.901C1627.62 196.938 1625.42 205.722 1621.02 213.25C1616.66 220.731 1610.44 226.531 1602.34 230.651C1594.24 234.77 1584.63 236.83 1573.5 236.83H1536.43V209.131H1566.97C1572.27 209.131 1576.7 208.207 1580.25 206.361C1583.85 204.514 1586.57 201.934 1588.42 198.619C1590.27 195.258 1591.19 191.351 1591.19 186.901C1591.19 182.402 1590.27 178.52 1588.42 175.253C1586.57 171.938 1583.85 169.382 1580.25 167.582C1576.65 165.783 1572.23 164.884 1566.97 164.884H1549.64V282H1514.49ZM1668.84 282H1631.05L1680.13 136.545H1726.94L1776.01 282H1738.23L1704.07 173.193H1702.93L1668.84 282ZM1663.8 224.756H1742.77V251.46H1663.8V224.756ZM1925.47 136.545V282H1895.64L1837.75 198.051H1836.83V282H1801.67V136.545H1831.93L1889.17 220.352H1890.38V136.545H1925.47ZM1950.33 136.545H1989.6L2020.36 197.412H2021.63L2052.39 136.545H2091.66L2038.47 233.42V282H2003.52V233.42L1950.33 136.545ZM2293.16 136.545V282H2263.33L2205.45 198.051H2204.52V282H2169.37V136.545H2199.62L2256.87 220.352H2258.08V136.545H2293.16ZM2325.27 282V136.545H2426.69V165.097H2360.42V194.926H2421.5V223.548H2360.42V253.449H2426.69V282H2325.27ZM2458.7 282V136.545H2560.12V165.097H2493.86V194.926H2554.94V223.548H2493.86V253.449H2560.12V282H2458.7ZM2645.91 282H2592.14V136.545H2645.83C2660.65 136.545 2673.42 139.457 2684.12 145.281C2694.86 151.058 2703.15 159.391 2708.97 170.281C2714.8 181.124 2717.71 194.098 2717.71 209.202C2717.71 224.353 2714.8 237.374 2708.97 248.264C2703.2 259.154 2694.93 267.511 2684.19 273.335C2673.44 279.112 2660.68 282 2645.91 282ZM2627.3 252.028H2644.56C2652.7 252.028 2659.59 250.655 2665.22 247.909C2670.91 245.116 2675.19 240.594 2678.08 234.344C2681.01 228.046 2682.48 219.666 2682.48 209.202C2682.48 198.738 2681.01 190.404 2678.08 184.202C2675.14 177.952 2670.81 173.454 2665.08 170.707C2659.4 167.914 2652.39 166.517 2644.06 166.517H2627.3V252.028ZM2826.86 180.153C2826.38 174.945 2824.28 170.897 2820.54 168.009C2816.84 165.073 2811.56 163.605 2804.7 163.605C2800.15 163.605 2796.36 164.197 2793.33 165.381C2790.3 166.564 2788.03 168.198 2786.52 170.281C2785 172.317 2784.22 174.661 2784.17 177.312C2784.08 179.491 2784.5 181.408 2785.45 183.065C2786.45 184.723 2787.87 186.19 2789.71 187.469C2791.61 188.7 2793.88 189.789 2796.53 190.736C2799.18 191.683 2802.17 192.511 2805.48 193.222L2817.98 196.062C2825.18 197.625 2831.52 199.708 2837.01 202.312C2842.55 204.917 2847.19 208.018 2850.93 211.616C2854.72 215.215 2857.59 219.358 2859.53 224.045C2861.47 228.733 2862.46 233.989 2862.51 239.812C2862.46 248.998 2860.14 256.882 2855.55 263.463C2850.96 270.045 2844.35 275.087 2835.74 278.591C2827.17 282.095 2816.82 283.847 2804.7 283.847C2792.53 283.847 2781.92 282.024 2772.88 278.378C2763.84 274.732 2756.81 269.192 2751.79 261.759C2746.77 254.325 2744.19 244.926 2744.04 233.562H2777.71C2777.99 238.25 2779.25 242.156 2781.47 245.281C2783.7 248.406 2786.75 250.774 2790.64 252.384C2794.57 253.993 2799.11 254.798 2804.27 254.798C2809.01 254.798 2813.03 254.159 2816.35 252.881C2819.71 251.602 2822.29 249.827 2824.09 247.554C2825.89 245.281 2826.81 242.677 2826.86 239.741C2826.81 236.995 2825.96 234.652 2824.3 232.71C2822.64 230.722 2820.09 229.017 2816.63 227.597C2813.22 226.129 2808.86 224.779 2803.56 223.548L2788.36 219.997C2775.77 217.109 2765.85 212.445 2758.6 206.006C2751.36 199.519 2747.76 190.759 2747.81 179.727C2747.76 170.731 2750.18 162.848 2755.05 156.077C2759.93 149.306 2766.68 144.027 2775.29 140.239C2783.91 136.451 2793.74 134.557 2804.77 134.557C2816.04 134.557 2825.82 136.474 2834.1 140.31C2842.43 144.098 2848.9 149.424 2853.49 156.29C2858.08 163.155 2860.43 171.11 2860.52 180.153H2826.86Z" fill="#E2E8F0"/>
</g>
</g>
<g clip-path="url(#clip2_3929_9970)">
<rect width="1920" height="1024" transform="translate(1920)" fill="#E2E8F0"/>
<g filter="url(#filter2_iiii_3929_9970)">
<path d="M3081.01 320V174.545H3182.43V203.097H3116.16V232.926H3177.24V261.548H3116.16V291.449H3182.43V320H3081.01ZM3247.47 174.545L3280 281.08H3281.21L3313.74 174.545H3353.08L3304.01 320H3257.2L3208.12 174.545H3247.47ZM3378.74 320V174.545H3480.16V203.097H3413.9V232.926H3474.98V261.548H3413.9V291.449H3480.16V320H3378.74ZM3512.18 320V174.545H3572.27C3583.16 174.545 3592.55 176.51 3600.46 180.44C3608.42 184.323 3614.55 189.91 3618.86 197.202C3623.17 204.446 3625.32 213.04 3625.32 222.983C3625.32 233.068 3623.12 241.638 3618.71 248.693C3614.31 255.701 3608.06 261.051 3599.96 264.744C3591.87 268.39 3582.28 270.213 3571.2 270.213H3533.2V242.514H3564.67C3569.97 242.514 3574.4 241.828 3577.95 240.455C3581.55 239.034 3584.27 236.903 3586.12 234.062C3587.96 231.174 3588.88 227.481 3588.88 222.983C3588.88 218.485 3587.96 214.768 3586.12 211.832C3584.27 208.849 3581.55 206.624 3577.95 205.156C3574.35 203.641 3569.92 202.884 3564.67 202.884H3547.34V320H3512.18ZM3594.07 253.523L3630.29 320H3591.94L3556.43 253.523H3594.07ZM3640.91 174.545H3680.19L3710.94 235.412H3712.22L3742.97 174.545H3782.25L3729.05 271.42V320H3694.11V271.42L3640.91 174.545ZM3991.99 227.244H3956.47C3956 223.598 3955.03 220.308 3953.56 217.372C3952.09 214.437 3950.15 211.927 3947.74 209.844C3945.32 207.76 3942.46 206.174 3939.14 205.085C3935.88 203.949 3932.25 203.381 3928.28 203.381C3921.22 203.381 3915.14 205.109 3910.02 208.565C3904.96 212.022 3901.05 217.017 3898.31 223.551C3895.61 230.085 3894.26 237.992 3894.26 247.273C3894.26 256.932 3895.63 265.028 3898.38 271.562C3901.17 278.049 3905.08 282.95 3910.1 286.264C3915.16 289.531 3921.15 291.165 3928.06 291.165C3931.95 291.165 3935.47 290.668 3938.65 289.673C3941.87 288.679 3944.68 287.235 3947.1 285.341C3949.56 283.4 3951.57 281.056 3953.14 278.31C3954.75 275.516 3955.86 272.367 3956.47 268.864L3991.99 269.077C3991.37 275.516 3989.5 281.861 3986.37 288.111C3983.3 294.361 3979.06 300.066 3973.66 305.227C3968.26 310.341 3961.68 314.413 3953.92 317.443C3946.2 320.473 3937.34 321.989 3927.35 321.989C3914.19 321.989 3902.4 319.1 3891.99 313.324C3881.62 307.5 3873.42 299.025 3867.41 287.898C3861.4 276.771 3858.39 263.229 3858.39 247.273C3858.39 231.269 3861.45 217.704 3867.55 206.577C3873.66 195.45 3881.92 186.998 3892.34 181.222C3902.76 175.445 3914.43 172.557 3927.35 172.557C3936.16 172.557 3944.31 173.788 3951.79 176.25C3959.27 178.665 3965.85 182.216 3971.53 186.903C3977.21 191.544 3981.83 197.249 3985.38 204.02C3988.93 210.791 3991.13 218.532 3991.99 227.244ZM4159.39 247.273C4159.39 263.277 4156.31 276.842 4150.16 287.969C4144 299.096 4135.67 307.547 4125.16 313.324C4114.69 319.1 4102.95 321.989 4089.93 321.989C4076.86 321.989 4065.09 319.077 4054.63 313.253C4044.17 307.429 4035.86 298.977 4029.7 287.898C4023.59 276.771 4020.54 263.229 4020.54 247.273C4020.54 231.269 4023.59 217.704 4029.7 206.577C4035.86 195.45 4044.17 186.998 4054.63 181.222C4065.09 175.445 4076.86 172.557 4089.93 172.557C4102.95 172.557 4114.69 175.445 4125.16 181.222C4135.67 186.998 4144 195.45 4150.16 206.577C4156.31 217.704 4159.39 231.269 4159.39 247.273ZM4123.45 247.273C4123.45 237.803 4122.1 229.801 4119.4 223.267C4116.75 216.733 4112.92 211.785 4107.9 208.423C4102.93 205.062 4096.94 203.381 4089.93 203.381C4082.97 203.381 4076.98 205.062 4071.96 208.423C4066.94 211.785 4063.08 216.733 4060.38 223.267C4057.73 229.801 4056.41 237.803 4056.41 247.273C4056.41 256.742 4057.73 264.744 4060.38 271.278C4063.08 277.812 4066.94 282.76 4071.96 286.122C4076.98 289.484 4082.97 291.165 4089.93 291.165C4096.94 291.165 4102.93 289.484 4107.9 286.122C4112.92 282.76 4116.75 277.812 4119.4 271.278C4122.1 264.744 4123.45 256.742 4123.45 247.273ZM4189.91 174.545H4233.45L4270.38 264.602H4272.09L4309.02 174.545H4352.56V320H4318.32V230.653H4317.12L4282.17 319.077H4260.3L4225.36 230.156H4224.15V320H4189.91V174.545ZM4384.49 320V174.545H4444.57C4455.46 174.545 4464.86 176.676 4472.77 180.938C4480.72 185.152 4486.85 191.046 4491.16 198.622C4495.47 206.151 4497.62 214.91 4497.62 224.901C4497.62 234.938 4495.42 243.722 4491.02 251.25C4486.66 258.731 4480.44 264.531 4472.34 268.651C4464.24 272.77 4454.63 274.83 4443.5 274.83H4406.43V247.131H4436.97C4442.27 247.131 4446.7 246.207 4450.25 244.361C4453.85 242.514 4456.57 239.934 4458.42 236.619C4460.27 233.258 4461.19 229.351 4461.19 224.901C4461.19 220.402 4460.27 216.52 4458.42 213.253C4456.57 209.938 4453.85 207.382 4450.25 205.582C4446.65 203.783 4442.23 202.884 4436.97 202.884H4419.64V320H4384.49ZM4538.84 320H4501.05L4550.13 174.545H4596.94L4646.01 320H4608.23L4574.07 211.193H4572.93L4538.84 320ZM4533.8 262.756H4612.77V289.46H4533.8V262.756ZM4795.47 174.545V320H4765.64L4707.75 236.051H4706.83V320H4671.67V174.545H4701.93L4759.17 258.352H4760.38V174.545H4795.47ZM4820.33 174.545H4859.6L4890.36 235.412H4891.63L4922.39 174.545H4961.66L4908.47 271.42V320H4873.52V271.42L4820.33 174.545ZM5163.16 174.545V320H5133.33L5075.45 236.051H5074.52V320H5039.37V174.545H5069.62L5126.87 258.352H5128.08V174.545H5163.16ZM5195.27 320V174.545H5296.69V203.097H5230.42V232.926H5291.5V261.548H5230.42V291.449H5296.69V320H5195.27ZM5328.7 320V174.545H5430.12V203.097H5363.86V232.926H5424.94V261.548H5363.86V291.449H5430.12V320H5328.7ZM5515.91 320H5462.14V174.545H5515.83C5530.65 174.545 5543.42 177.457 5554.12 183.281C5564.86 189.058 5573.15 197.391 5578.97 208.281C5584.8 219.124 5587.71 232.098 5587.71 247.202C5587.71 262.353 5584.8 275.374 5578.97 286.264C5573.2 297.154 5564.93 305.511 5554.19 311.335C5543.44 317.112 5530.68 320 5515.91 320ZM5497.3 290.028H5514.56C5522.7 290.028 5529.59 288.655 5535.22 285.909C5540.91 283.116 5545.19 278.594 5548.08 272.344C5551.01 266.046 5552.48 257.666 5552.48 247.202C5552.48 236.738 5551.01 228.404 5548.08 222.202C5545.14 215.952 5540.81 211.454 5535.08 208.707C5529.4 205.914 5522.39 204.517 5514.06 204.517H5497.3V290.028ZM5696.86 218.153C5696.38 212.945 5694.28 208.897 5690.54 206.009C5686.84 203.073 5681.56 201.605 5674.7 201.605C5670.15 201.605 5666.36 202.197 5663.33 203.381C5660.3 204.564 5658.03 206.198 5656.52 208.281C5655 210.317 5654.22 212.661 5654.17 215.312C5654.08 217.491 5654.5 219.408 5655.45 221.065C5656.45 222.723 5657.87 224.19 5659.71 225.469C5661.61 226.7 5663.88 227.789 5666.53 228.736C5669.18 229.683 5672.17 230.511 5675.48 231.222L5687.98 234.062C5695.18 235.625 5701.52 237.708 5707.01 240.312C5712.55 242.917 5717.19 246.018 5720.93 249.616C5724.72 253.215 5727.59 257.358 5729.53 262.045C5731.47 266.733 5732.46 271.989 5732.51 277.812C5732.46 286.998 5730.14 294.882 5725.55 301.463C5720.96 308.045 5714.35 313.087 5705.74 316.591C5697.17 320.095 5686.82 321.847 5674.7 321.847C5662.53 321.847 5651.92 320.024 5642.88 316.378C5633.84 312.732 5626.81 307.192 5621.79 299.759C5616.77 292.325 5614.19 282.926 5614.04 271.562H5647.71C5647.99 276.25 5649.25 280.156 5651.47 283.281C5653.7 286.406 5656.75 288.774 5660.64 290.384C5664.57 291.993 5669.11 292.798 5674.27 292.798C5679.01 292.798 5683.03 292.159 5686.35 290.881C5689.71 289.602 5692.29 287.827 5694.09 285.554C5695.89 283.281 5696.81 280.677 5696.86 277.741C5696.81 274.995 5695.96 272.652 5694.3 270.71C5692.64 268.722 5690.09 267.017 5686.63 265.597C5683.22 264.129 5678.86 262.779 5673.56 261.548L5658.36 257.997C5645.77 255.109 5635.85 250.445 5628.6 244.006C5621.36 237.519 5617.76 228.759 5617.81 217.727C5617.76 208.731 5620.18 200.848 5625.05 194.077C5629.93 187.306 5636.68 182.027 5645.29 178.239C5653.91 174.451 5663.74 172.557 5674.77 172.557C5686.04 172.557 5695.82 174.474 5704.1 178.31C5712.43 182.098 5718.9 187.424 5723.49 194.29C5728.08 201.155 5730.43 209.11 5730.52 218.153H5696.86Z" fill="#E2E8F0"/>
</g>
<g filter="url(#filter3_iiii_3929_9970)">
<path d="M2066.01 872V726.545H2167.43V755.097H2101.16V784.926H2162.24V813.548H2101.16V843.449H2167.43V872H2066.01ZM2232.47 726.545L2265 833.08H2266.21L2298.74 726.545H2338.08L2289.01 872H2242.2L2193.12 726.545H2232.47ZM2363.74 872V726.545H2465.16V755.097H2398.9V784.926H2459.98V813.548H2398.9V843.449H2465.16V872H2363.74ZM2497.18 872V726.545H2557.27C2568.16 726.545 2577.55 728.51 2585.46 732.44C2593.42 736.323 2599.55 741.91 2603.86 749.202C2608.17 756.446 2610.32 765.04 2610.32 774.983C2610.32 785.068 2608.12 793.638 2603.71 800.693C2599.31 807.701 2593.06 813.051 2584.96 816.744C2576.87 820.39 2567.28 822.213 2556.2 822.213H2518.2V794.514H2549.67C2554.97 794.514 2559.4 793.828 2562.95 792.455C2566.55 791.034 2569.27 788.903 2571.12 786.062C2572.96 783.174 2573.88 779.481 2573.88 774.983C2573.88 770.485 2572.96 766.768 2571.12 763.832C2569.27 760.849 2566.55 758.624 2562.95 757.156C2559.35 755.641 2554.92 754.884 2549.67 754.884H2532.34V872H2497.18ZM2579.07 805.523L2615.29 872H2576.94L2541.43 805.523H2579.07ZM2625.91 726.545H2665.19L2695.94 787.412H2697.22L2727.97 726.545H2767.25L2714.05 823.42V872H2679.11V823.42L2625.91 726.545ZM2976.99 779.244H2941.47C2941 775.598 2940.03 772.308 2938.56 769.372C2937.09 766.437 2935.15 763.927 2932.74 761.844C2930.32 759.76 2927.46 758.174 2924.14 757.085C2920.88 755.949 2917.25 755.381 2913.28 755.381C2906.22 755.381 2900.14 757.109 2895.02 760.565C2889.96 764.022 2886.05 769.017 2883.31 775.551C2880.61 782.085 2879.26 789.992 2879.26 799.273C2879.26 808.932 2880.63 817.028 2883.38 823.562C2886.17 830.049 2890.08 834.95 2895.1 838.264C2900.16 841.531 2906.15 843.165 2913.06 843.165C2916.95 843.165 2920.47 842.668 2923.65 841.673C2926.87 840.679 2929.68 839.235 2932.1 837.341C2934.56 835.4 2936.57 833.056 2938.14 830.31C2939.75 827.516 2940.86 824.367 2941.47 820.864L2976.99 821.077C2976.37 827.516 2974.5 833.861 2971.37 840.111C2968.3 846.361 2964.06 852.066 2958.66 857.227C2953.26 862.341 2946.68 866.413 2938.92 869.443C2931.2 872.473 2922.34 873.989 2912.35 873.989C2899.19 873.989 2887.4 871.1 2876.99 865.324C2866.62 859.5 2858.42 851.025 2852.41 839.898C2846.4 828.771 2843.39 815.229 2843.39 799.273C2843.39 783.269 2846.45 769.704 2852.55 758.577C2858.66 747.45 2866.92 738.998 2877.34 733.222C2887.76 727.445 2899.43 724.557 2912.35 724.557C2921.16 724.557 2929.31 725.788 2936.79 728.25C2944.27 730.665 2950.85 734.216 2956.53 738.903C2962.21 743.544 2966.83 749.249 2970.38 756.02C2973.93 762.791 2976.13 770.532 2976.99 779.244ZM3144.39 799.273C3144.39 815.277 3141.31 828.842 3135.16 839.969C3129 851.096 3120.67 859.547 3110.16 865.324C3099.69 871.1 3087.95 873.989 3074.93 873.989C3061.86 873.989 3050.09 871.077 3039.63 865.253C3029.17 859.429 3020.86 850.977 3014.7 839.898C3008.59 828.771 3005.54 815.229 3005.54 799.273C3005.54 783.269 3008.59 769.704 3014.7 758.577C3020.86 747.45 3029.17 738.998 3039.63 733.222C3050.09 727.445 3061.86 724.557 3074.93 724.557C3087.95 724.557 3099.69 727.445 3110.16 733.222C3120.67 738.998 3129 747.45 3135.16 758.577C3141.31 769.704 3144.39 783.269 3144.39 799.273ZM3108.45 799.273C3108.45 789.803 3107.1 781.801 3104.4 775.267C3101.75 768.733 3097.92 763.785 3092.9 760.423C3087.93 757.062 3081.94 755.381 3074.93 755.381C3067.97 755.381 3061.98 757.062 3056.96 760.423C3051.94 763.785 3048.08 768.733 3045.38 775.267C3042.73 781.801 3041.41 789.803 3041.41 799.273C3041.41 808.742 3042.73 816.744 3045.38 823.278C3048.08 829.812 3051.94 834.76 3056.96 838.122C3061.98 841.484 3067.97 843.165 3074.93 843.165C3081.94 843.165 3087.93 841.484 3092.9 838.122C3097.92 834.76 3101.75 829.812 3104.4 823.278C3107.1 816.744 3108.45 808.742 3108.45 799.273ZM3174.91 726.545H3218.45L3255.38 816.602H3257.09L3294.02 726.545H3337.56V872H3303.32V782.653H3302.12L3267.17 871.077H3245.3L3210.36 782.156H3209.15V872H3174.91V726.545ZM3369.49 872V726.545H3429.57C3440.46 726.545 3449.86 728.676 3457.77 732.938C3465.72 737.152 3471.85 743.046 3476.16 750.622C3480.47 758.151 3482.62 766.91 3482.62 776.901C3482.62 786.938 3480.42 795.722 3476.02 803.25C3471.66 810.731 3465.44 816.531 3457.34 820.651C3449.24 824.77 3439.63 826.83 3428.5 826.83H3391.43V799.131H3421.97C3427.27 799.131 3431.7 798.207 3435.25 796.361C3438.85 794.514 3441.57 791.934 3443.42 788.619C3445.27 785.258 3446.19 781.351 3446.19 776.901C3446.19 772.402 3445.27 768.52 3443.42 765.253C3441.57 761.938 3438.85 759.382 3435.25 757.582C3431.65 755.783 3427.23 754.884 3421.97 754.884H3404.64V872H3369.49ZM3523.84 872H3486.05L3535.13 726.545H3581.94L3631.01 872H3593.23L3559.07 763.193H3557.93L3523.84 872ZM3518.8 814.756H3597.77V841.46H3518.8V814.756ZM3780.47 726.545V872H3750.64L3692.75 788.051H3691.83V872H3656.67V726.545H3686.93L3744.17 810.352H3745.38V726.545H3780.47ZM3805.33 726.545H3844.6L3875.36 787.412H3876.63L3907.39 726.545H3946.66L3893.47 823.42V872H3858.52V823.42L3805.33 726.545ZM4148.16 726.545V872H4118.33L4060.45 788.051H4059.52V872H4024.37V726.545H4054.62L4111.87 810.352H4113.08V726.545H4148.16ZM4180.27 872V726.545H4281.69V755.097H4215.42V784.926H4276.5V813.548H4215.42V843.449H4281.69V872H4180.27ZM4313.7 872V726.545H4415.12V755.097H4348.86V784.926H4409.94V813.548H4348.86V843.449H4415.12V872H4313.7ZM4500.91 872H4447.14V726.545H4500.83C4515.65 726.545 4528.42 729.457 4539.12 735.281C4549.86 741.058 4558.15 749.391 4563.97 760.281C4569.8 771.124 4572.71 784.098 4572.71 799.202C4572.71 814.353 4569.8 827.374 4563.97 838.264C4558.2 849.154 4549.93 857.511 4539.19 863.335C4528.44 869.112 4515.68 872 4500.91 872ZM4482.3 842.028H4499.56C4507.7 842.028 4514.59 840.655 4520.22 837.909C4525.91 835.116 4530.19 830.594 4533.08 824.344C4536.01 818.046 4537.48 809.666 4537.48 799.202C4537.48 788.738 4536.01 780.404 4533.08 774.202C4530.14 767.952 4525.81 763.454 4520.08 760.707C4514.4 757.914 4507.39 756.517 4499.06 756.517H4482.3V842.028ZM4681.86 770.153C4681.38 764.945 4679.28 760.897 4675.54 758.009C4671.84 755.073 4666.56 753.605 4659.7 753.605C4655.15 753.605 4651.36 754.197 4648.33 755.381C4645.3 756.564 4643.03 758.198 4641.52 760.281C4640 762.317 4639.22 764.661 4639.17 767.312C4639.08 769.491 4639.5 771.408 4640.45 773.065C4641.45 774.723 4642.87 776.19 4644.71 777.469C4646.61 778.7 4648.88 779.789 4651.53 780.736C4654.18 781.683 4657.17 782.511 4660.48 783.222L4672.98 786.062C4680.18 787.625 4686.52 789.708 4692.01 792.312C4697.55 794.917 4702.19 798.018 4705.93 801.616C4709.72 805.215 4712.59 809.358 4714.53 814.045C4716.47 818.733 4717.46 823.989 4717.51 829.812C4717.46 838.998 4715.14 846.882 4710.55 853.463C4705.96 860.045 4699.35 865.087 4690.74 868.591C4682.17 872.095 4671.82 873.847 4659.7 873.847C4647.53 873.847 4636.92 872.024 4627.88 868.378C4618.84 864.732 4611.81 859.192 4606.79 851.759C4601.77 844.325 4599.19 834.926 4599.04 823.562H4632.71C4632.99 828.25 4634.25 832.156 4636.47 835.281C4638.7 838.406 4641.75 840.774 4645.64 842.384C4649.57 843.993 4654.11 844.798 4659.27 844.798C4664.01 844.798 4668.03 844.159 4671.35 842.881C4674.71 841.602 4677.29 839.827 4679.09 837.554C4680.89 835.281 4681.81 832.677 4681.86 829.741C4681.81 826.995 4680.96 824.652 4679.3 822.71C4677.64 820.722 4675.09 819.017 4671.63 817.597C4668.22 816.129 4663.86 814.779 4658.56 813.548L4643.36 809.997C4630.77 807.109 4620.85 802.445 4613.6 796.006C4606.36 789.519 4602.76 780.759 4602.81 769.727C4602.76 760.731 4605.18 752.848 4610.05 746.077C4614.93 739.306 4621.68 734.027 4630.29 730.239C4638.91 726.451 4648.74 724.557 4659.77 724.557C4671.04 724.557 4680.82 726.474 4689.1 730.31C4697.43 734.098 4703.9 739.424 4708.49 746.29C4713.08 753.155 4715.43 761.11 4715.52 770.153H4681.86Z" fill="#E2E8F0"/>
</g>
<g filter="url(#filter4_iiii_3929_9970)">
<path d="M211.009 320V174.545H312.429V203.097H246.165V232.926H307.244V261.548H246.165V291.449H312.429V320H211.009ZM377.472 174.545L410 281.08H411.207L443.736 174.545H483.082L434.006 320H387.202L338.125 174.545H377.472ZM508.743 320V174.545H610.163V203.097H543.899V232.926H604.979V261.548H543.899V291.449H610.163V320H508.743ZM642.18 320V174.545H702.266C713.156 174.545 722.554 176.51 730.462 180.44C738.416 184.323 744.548 189.91 748.857 197.202C753.165 204.446 755.32 213.04 755.32 222.983C755.32 233.068 753.118 241.638 748.714 248.693C744.311 255.701 738.061 261.051 729.964 264.744C721.868 268.39 712.28 270.213 701.2 270.213H663.203V242.514H694.666C699.969 242.514 704.396 241.828 707.947 240.455C711.546 239.034 714.268 236.903 716.115 234.062C717.962 231.174 718.885 227.481 718.885 222.983C718.885 218.485 717.962 214.768 716.115 211.832C714.268 208.849 711.546 206.624 707.947 205.156C704.349 203.641 699.922 202.884 694.666 202.884H677.337V320H642.18ZM724.07 253.523L760.291 320H721.939L686.428 253.523H724.07ZM770.913 174.545H810.188L840.941 235.412H842.219L872.972 174.545H912.248L859.052 271.42V320H824.109V271.42L770.913 174.545ZM1121.99 227.244H1086.47C1086 223.598 1085.03 220.308 1083.56 217.372C1082.09 214.437 1080.15 211.927 1077.74 209.844C1075.32 207.76 1072.46 206.174 1069.14 205.085C1065.88 203.949 1062.25 203.381 1058.28 203.381C1051.22 203.381 1045.14 205.109 1040.02 208.565C1034.96 212.022 1031.05 217.017 1028.31 223.551C1025.61 230.085 1024.26 237.992 1024.26 247.273C1024.26 256.932 1025.63 265.028 1028.38 271.562C1031.17 278.049 1035.08 282.95 1040.1 286.264C1045.16 289.531 1051.15 291.165 1058.06 291.165C1061.95 291.165 1065.47 290.668 1068.65 289.673C1071.87 288.679 1074.68 287.235 1077.1 285.341C1079.56 283.4 1081.57 281.056 1083.14 278.31C1084.75 275.516 1085.86 272.367 1086.47 268.864L1121.99 269.077C1121.37 275.516 1119.5 281.861 1116.37 288.111C1113.3 294.361 1109.06 300.066 1103.66 305.227C1098.26 310.341 1091.68 314.413 1083.92 317.443C1076.2 320.473 1067.34 321.989 1057.35 321.989C1044.19 321.989 1032.4 319.1 1021.99 313.324C1011.62 307.5 1003.42 299.025 997.411 287.898C991.398 276.771 988.391 263.229 988.391 247.273C988.391 231.269 991.445 217.704 997.553 206.577C1003.66 195.45 1011.92 186.998 1022.34 181.222C1032.76 175.445 1044.43 172.557 1057.35 172.557C1066.16 172.557 1074.31 173.788 1081.79 176.25C1089.27 178.665 1095.85 182.216 1101.53 186.903C1107.21 191.544 1111.83 197.249 1115.38 204.02C1118.93 210.791 1121.13 218.532 1121.99 227.244ZM1289.39 247.273C1289.39 263.277 1286.31 276.842 1280.16 287.969C1274 299.096 1265.67 307.547 1255.16 313.324C1244.69 319.1 1232.95 321.989 1219.93 321.989C1206.86 321.989 1195.09 319.077 1184.63 313.253C1174.17 307.429 1165.86 298.977 1159.7 287.898C1153.59 276.771 1150.54 263.229 1150.54 247.273C1150.54 231.269 1153.59 217.704 1159.7 206.577C1165.86 195.45 1174.17 186.998 1184.63 181.222C1195.09 175.445 1206.86 172.557 1219.93 172.557C1232.95 172.557 1244.69 175.445 1255.16 181.222C1265.67 186.998 1274 195.45 1280.16 206.577C1286.31 217.704 1289.39 231.269 1289.39 247.273ZM1253.45 247.273C1253.45 237.803 1252.1 229.801 1249.4 223.267C1246.75 216.733 1242.92 211.785 1237.9 208.423C1232.93 205.062 1226.94 203.381 1219.93 203.381C1212.97 203.381 1206.98 205.062 1201.96 208.423C1196.94 211.785 1193.08 216.733 1190.38 223.267C1187.73 229.801 1186.41 237.803 1186.41 247.273C1186.41 256.742 1187.73 264.744 1190.38 271.278C1193.08 277.812 1196.94 282.76 1201.96 286.122C1206.98 289.484 1212.97 291.165 1219.93 291.165C1226.94 291.165 1232.93 289.484 1237.9 286.122C1242.92 282.76 1246.75 277.812 1249.4 271.278C1252.1 264.744 1253.45 256.742 1253.45 247.273ZM1319.91 174.545H1363.45L1400.38 264.602H1402.09L1439.02 174.545H1482.56V320H1448.32V230.653H1447.12L1412.17 319.077H1390.3L1355.36 230.156H1354.15V320H1319.91V174.545ZM1514.49 320V174.545H1574.57C1585.46 174.545 1594.86 176.676 1602.77 180.938C1610.72 185.152 1616.85 191.046 1621.16 198.622C1625.47 206.151 1627.62 214.91 1627.62 224.901C1627.62 234.938 1625.42 243.722 1621.02 251.25C1616.66 258.731 1610.44 264.531 1602.34 268.651C1594.24 272.77 1584.63 274.83 1573.5 274.83H1536.43V247.131H1566.97C1572.27 247.131 1576.7 246.207 1580.25 244.361C1583.85 242.514 1586.57 239.934 1588.42 236.619C1590.27 233.258 1591.19 229.351 1591.19 224.901C1591.19 220.402 1590.27 216.52 1588.42 213.253C1586.57 209.938 1583.85 207.382 1580.25 205.582C1576.65 203.783 1572.23 202.884 1566.97 202.884H1549.64V320H1514.49ZM1668.84 320H1631.05L1680.13 174.545H1726.94L1776.01 320H1738.23L1704.07 211.193H1702.93L1668.84 320ZM1663.8 262.756H1742.77V289.46H1663.8V262.756ZM1925.47 174.545V320H1895.64L1837.75 236.051H1836.83V320H1801.67V174.545H1831.93L1889.17 258.352H1890.38V174.545H1925.47ZM1950.33 174.545H1989.6L2020.36 235.412H2021.63L2052.39 174.545H2091.66L2038.47 271.42V320H2003.52V271.42L1950.33 174.545ZM2293.16 174.545V320H2263.33L2205.45 236.051H2204.52V320H2169.37V174.545H2199.62L2256.87 258.352H2258.08V174.545H2293.16ZM2325.27 320V174.545H2426.69V203.097H2360.42V232.926H2421.5V261.548H2360.42V291.449H2426.69V320H2325.27ZM2458.7 320V174.545H2560.12V203.097H2493.86V232.926H2554.94V261.548H2493.86V291.449H2560.12V320H2458.7ZM2645.91 320H2592.14V174.545H2645.83C2660.65 174.545 2673.42 177.457 2684.12 183.281C2694.86 189.058 2703.15 197.391 2708.97 208.281C2714.8 219.124 2717.71 232.098 2717.71 247.202C2717.71 262.353 2714.8 275.374 2708.97 286.264C2703.2 297.154 2694.93 305.511 2684.19 311.335C2673.44 317.112 2660.68 320 2645.91 320ZM2627.3 290.028H2644.56C2652.7 290.028 2659.59 288.655 2665.22 285.909C2670.91 283.116 2675.19 278.594 2678.08 272.344C2681.01 266.046 2682.48 257.666 2682.48 247.202C2682.48 236.738 2681.01 228.404 2678.08 222.202C2675.14 215.952 2670.81 211.454 2665.08 208.707C2659.4 205.914 2652.39 204.517 2644.06 204.517H2627.3V290.028ZM2826.86 218.153C2826.38 212.945 2824.28 208.897 2820.54 206.009C2816.84 203.073 2811.56 201.605 2804.7 201.605C2800.15 201.605 2796.36 202.197 2793.33 203.381C2790.3 204.564 2788.03 206.198 2786.52 208.281C2785 210.317 2784.22 212.661 2784.17 215.312C2784.08 217.491 2784.5 219.408 2785.45 221.065C2786.45 222.723 2787.87 224.19 2789.71 225.469C2791.61 226.7 2793.88 227.789 2796.53 228.736C2799.18 229.683 2802.17 230.511 2805.48 231.222L2817.98 234.062C2825.18 235.625 2831.52 237.708 2837.01 240.312C2842.55 242.917 2847.19 246.018 2850.93 249.616C2854.72 253.215 2857.59 257.358 2859.53 262.045C2861.47 266.733 2862.46 271.989 2862.51 277.812C2862.46 286.998 2860.14 294.882 2855.55 301.463C2850.96 308.045 2844.35 313.087 2835.74 316.591C2827.17 320.095 2816.82 321.847 2804.7 321.847C2792.53 321.847 2781.92 320.024 2772.88 316.378C2763.84 312.732 2756.81 307.192 2751.79 299.759C2746.77 292.325 2744.19 282.926 2744.04 271.562H2777.71C2777.99 276.25 2779.25 280.156 2781.47 283.281C2783.7 286.406 2786.75 288.774 2790.64 290.384C2794.57 291.993 2799.11 292.798 2804.27 292.798C2809.01 292.798 2813.03 292.159 2816.35 290.881C2819.71 289.602 2822.29 287.827 2824.09 285.554C2825.89 283.281 2826.81 280.677 2826.86 277.741C2826.81 274.995 2825.96 272.652 2824.3 270.71C2822.64 268.722 2820.09 267.017 2816.63 265.597C2813.22 264.129 2808.86 262.779 2803.56 261.548L2788.36 257.997C2775.77 255.109 2765.85 250.445 2758.6 244.006C2751.36 237.519 2747.76 228.759 2747.81 217.727C2747.76 208.731 2750.18 200.848 2755.05 194.077C2759.93 187.306 2766.68 182.027 2775.29 178.239C2783.91 174.451 2793.74 172.557 2804.77 172.557C2816.04 172.557 2825.82 174.474 2834.1 178.31C2842.43 182.098 2848.9 187.424 2853.49 194.29C2858.08 201.155 2860.43 209.11 2860.52 218.153H2826.86Z" fill="#E2E8F0"/>
</g>
</g>
<g clip-path="url(#clip3_3929_9970)">
<rect width="1920" height="1024" transform="translate(3840)" fill="#E2E8F0"/>
<g filter="url(#filter5_iiii_3929_9970)">
<path d="M2066.01 872V726.545H2167.43V755.097H2101.16V784.926H2162.24V813.548H2101.16V843.449H2167.43V872H2066.01ZM2232.47 726.545L2265 833.08H2266.21L2298.74 726.545H2338.08L2289.01 872H2242.2L2193.12 726.545H2232.47ZM2363.74 872V726.545H2465.16V755.097H2398.9V784.926H2459.98V813.548H2398.9V843.449H2465.16V872H2363.74ZM2497.18 872V726.545H2557.27C2568.16 726.545 2577.55 728.51 2585.46 732.44C2593.42 736.323 2599.55 741.91 2603.86 749.202C2608.17 756.446 2610.32 765.04 2610.32 774.983C2610.32 785.068 2608.12 793.638 2603.71 800.693C2599.31 807.701 2593.06 813.051 2584.96 816.744C2576.87 820.39 2567.28 822.213 2556.2 822.213H2518.2V794.514H2549.67C2554.97 794.514 2559.4 793.828 2562.95 792.455C2566.55 791.034 2569.27 788.903 2571.12 786.062C2572.96 783.174 2573.88 779.481 2573.88 774.983C2573.88 770.485 2572.96 766.768 2571.12 763.832C2569.27 760.849 2566.55 758.624 2562.95 757.156C2559.35 755.641 2554.92 754.884 2549.67 754.884H2532.34V872H2497.18ZM2579.07 805.523L2615.29 872H2576.94L2541.43 805.523H2579.07ZM2625.91 726.545H2665.19L2695.94 787.412H2697.22L2727.97 726.545H2767.25L2714.05 823.42V872H2679.11V823.42L2625.91 726.545ZM2976.99 779.244H2941.47C2941 775.598 2940.03 772.308 2938.56 769.372C2937.09 766.437 2935.15 763.927 2932.74 761.844C2930.32 759.76 2927.46 758.174 2924.14 757.085C2920.88 755.949 2917.25 755.381 2913.28 755.381C2906.22 755.381 2900.14 757.109 2895.02 760.565C2889.96 764.022 2886.05 769.017 2883.31 775.551C2880.61 782.085 2879.26 789.992 2879.26 799.273C2879.26 808.932 2880.63 817.028 2883.38 823.562C2886.17 830.049 2890.08 834.95 2895.1 838.264C2900.16 841.531 2906.15 843.165 2913.06 843.165C2916.95 843.165 2920.47 842.668 2923.65 841.673C2926.87 840.679 2929.68 839.235 2932.1 837.341C2934.56 835.4 2936.57 833.056 2938.14 830.31C2939.75 827.516 2940.86 824.367 2941.47 820.864L2976.99 821.077C2976.37 827.516 2974.5 833.861 2971.37 840.111C2968.3 846.361 2964.06 852.066 2958.66 857.227C2953.26 862.341 2946.68 866.413 2938.92 869.443C2931.2 872.473 2922.34 873.989 2912.35 873.989C2899.19 873.989 2887.4 871.1 2876.99 865.324C2866.62 859.5 2858.42 851.025 2852.41 839.898C2846.4 828.771 2843.39 815.229 2843.39 799.273C2843.39 783.269 2846.45 769.704 2852.55 758.577C2858.66 747.45 2866.92 738.998 2877.34 733.222C2887.76 727.445 2899.43 724.557 2912.35 724.557C2921.16 724.557 2929.31 725.788 2936.79 728.25C2944.27 730.665 2950.85 734.216 2956.53 738.903C2962.21 743.544 2966.83 749.249 2970.38 756.02C2973.93 762.791 2976.13 770.532 2976.99 779.244ZM3144.39 799.273C3144.39 815.277 3141.31 828.842 3135.16 839.969C3129 851.096 3120.67 859.547 3110.16 865.324C3099.69 871.1 3087.95 873.989 3074.93 873.989C3061.86 873.989 3050.09 871.077 3039.63 865.253C3029.17 859.429 3020.86 850.977 3014.7 839.898C3008.59 828.771 3005.54 815.229 3005.54 799.273C3005.54 783.269 3008.59 769.704 3014.7 758.577C3020.86 747.45 3029.17 738.998 3039.63 733.222C3050.09 727.445 3061.86 724.557 3074.93 724.557C3087.95 724.557 3099.69 727.445 3110.16 733.222C3120.67 738.998 3129 747.45 3135.16 758.577C3141.31 769.704 3144.39 783.269 3144.39 799.273ZM3108.45 799.273C3108.45 789.803 3107.1 781.801 3104.4 775.267C3101.75 768.733 3097.92 763.785 3092.9 760.423C3087.93 757.062 3081.94 755.381 3074.93 755.381C3067.97 755.381 3061.98 757.062 3056.96 760.423C3051.94 763.785 3048.08 768.733 3045.38 775.267C3042.73 781.801 3041.41 789.803 3041.41 799.273C3041.41 808.742 3042.73 816.744 3045.38 823.278C3048.08 829.812 3051.94 834.76 3056.96 838.122C3061.98 841.484 3067.97 843.165 3074.93 843.165C3081.94 843.165 3087.93 841.484 3092.9 838.122C3097.92 834.76 3101.75 829.812 3104.4 823.278C3107.1 816.744 3108.45 808.742 3108.45 799.273ZM3174.91 726.545H3218.45L3255.38 816.602H3257.09L3294.02 726.545H3337.56V872H3303.32V782.653H3302.12L3267.17 871.077H3245.3L3210.36 782.156H3209.15V872H3174.91V726.545ZM3369.49 872V726.545H3429.57C3440.46 726.545 3449.86 728.676 3457.77 732.938C3465.72 737.152 3471.85 743.046 3476.16 750.622C3480.47 758.151 3482.62 766.91 3482.62 776.901C3482.62 786.938 3480.42 795.722 3476.02 803.25C3471.66 810.731 3465.44 816.531 3457.34 820.651C3449.24 824.77 3439.63 826.83 3428.5 826.83H3391.43V799.131H3421.97C3427.27 799.131 3431.7 798.207 3435.25 796.361C3438.85 794.514 3441.57 791.934 3443.42 788.619C3445.27 785.258 3446.19 781.351 3446.19 776.901C3446.19 772.402 3445.27 768.52 3443.42 765.253C3441.57 761.938 3438.85 759.382 3435.25 757.582C3431.65 755.783 3427.23 754.884 3421.97 754.884H3404.64V872H3369.49ZM3523.84 872H3486.05L3535.13 726.545H3581.94L3631.01 872H3593.23L3559.07 763.193H3557.93L3523.84 872ZM3518.8 814.756H3597.77V841.46H3518.8V814.756ZM3780.47 726.545V872H3750.64L3692.75 788.051H3691.83V872H3656.67V726.545H3686.93L3744.17 810.352H3745.38V726.545H3780.47ZM3805.33 726.545H3844.6L3875.36 787.412H3876.63L3907.39 726.545H3946.66L3893.47 823.42V872H3858.52V823.42L3805.33 726.545ZM4148.16 726.545V872H4118.33L4060.45 788.051H4059.52V872H4024.37V726.545H4054.62L4111.87 810.352H4113.08V726.545H4148.16ZM4180.27 872V726.545H4281.69V755.097H4215.42V784.926H4276.5V813.548H4215.42V843.449H4281.69V872H4180.27ZM4313.7 872V726.545H4415.12V755.097H4348.86V784.926H4409.94V813.548H4348.86V843.449H4415.12V872H4313.7ZM4500.91 872H4447.14V726.545H4500.83C4515.65 726.545 4528.42 729.457 4539.12 735.281C4549.86 741.058 4558.15 749.391 4563.97 760.281C4569.8 771.124 4572.71 784.098 4572.71 799.202C4572.71 814.353 4569.8 827.374 4563.97 838.264C4558.2 849.154 4549.93 857.511 4539.19 863.335C4528.44 869.112 4515.68 872 4500.91 872ZM4482.3 842.028H4499.56C4507.7 842.028 4514.59 840.655 4520.22 837.909C4525.91 835.116 4530.19 830.594 4533.08 824.344C4536.01 818.046 4537.48 809.666 4537.48 799.202C4537.48 788.738 4536.01 780.404 4533.08 774.202C4530.14 767.952 4525.81 763.454 4520.08 760.707C4514.4 757.914 4507.39 756.517 4499.06 756.517H4482.3V842.028ZM4681.86 770.153C4681.38 764.945 4679.28 760.897 4675.54 758.009C4671.84 755.073 4666.56 753.605 4659.7 753.605C4655.15 753.605 4651.36 754.197 4648.33 755.381C4645.3 756.564 4643.03 758.198 4641.52 760.281C4640 762.317 4639.22 764.661 4639.17 767.312C4639.08 769.491 4639.5 771.408 4640.45 773.065C4641.45 774.723 4642.87 776.19 4644.71 777.469C4646.61 778.7 4648.88 779.789 4651.53 780.736C4654.18 781.683 4657.17 782.511 4660.48 783.222L4672.98 786.062C4680.18 787.625 4686.52 789.708 4692.01 792.312C4697.55 794.917 4702.19 798.018 4705.93 801.616C4709.72 805.215 4712.59 809.358 4714.53 814.045C4716.47 818.733 4717.46 823.989 4717.51 829.812C4717.46 838.998 4715.14 846.882 4710.55 853.463C4705.96 860.045 4699.35 865.087 4690.74 868.591C4682.17 872.095 4671.82 873.847 4659.7 873.847C4647.53 873.847 4636.92 872.024 4627.88 868.378C4618.84 864.732 4611.81 859.192 4606.79 851.759C4601.77 844.325 4599.19 834.926 4599.04 823.562H4632.71C4632.99 828.25 4634.25 832.156 4636.47 835.281C4638.7 838.406 4641.75 840.774 4645.64 842.384C4649.57 843.993 4654.11 844.798 4659.27 844.798C4664.01 844.798 4668.03 844.159 4671.35 842.881C4674.71 841.602 4677.29 839.827 4679.09 837.554C4680.89 835.281 4681.81 832.677 4681.86 829.741C4681.81 826.995 4680.96 824.652 4679.3 822.71C4677.64 820.722 4675.09 819.017 4671.63 817.597C4668.22 816.129 4663.86 814.779 4658.56 813.548L4643.36 809.997C4630.77 807.109 4620.85 802.445 4613.6 796.006C4606.36 789.519 4602.76 780.759 4602.81 769.727C4602.76 760.731 4605.18 752.848 4610.05 746.077C4614.93 739.306 4621.68 734.027 4630.29 730.239C4638.91 726.451 4648.74 724.557 4659.77 724.557C4671.04 724.557 4680.82 726.474 4689.1 730.31C4697.43 734.098 4703.9 739.424 4708.49 746.29C4713.08 753.155 4715.43 761.11 4715.52 770.153H4681.86Z" fill="#E2E8F0"/>
</g>
<g filter="url(#filter6_iiii_3929_9970)">
<path d="M4936.01 872V726.545H5037.43V755.097H4971.16V784.926H5032.24V813.548H4971.16V843.449H5037.43V872H4936.01ZM5102.47 726.545L5135 833.08H5136.21L5168.74 726.545H5208.08L5159.01 872H5112.2L5063.12 726.545H5102.47ZM5233.74 872V726.545H5335.16V755.097H5268.9V784.926H5329.98V813.548H5268.9V843.449H5335.16V872H5233.74ZM5367.18 872V726.545H5427.27C5438.16 726.545 5447.55 728.51 5455.46 732.44C5463.42 736.323 5469.55 741.91 5473.86 749.202C5478.17 756.446 5480.32 765.04 5480.32 774.983C5480.32 785.068 5478.12 793.638 5473.71 800.693C5469.31 807.701 5463.06 813.051 5454.96 816.744C5446.87 820.39 5437.28 822.213 5426.2 822.213H5388.2V794.514H5419.67C5424.97 794.514 5429.4 793.828 5432.95 792.455C5436.55 791.034 5439.27 788.903 5441.12 786.062C5442.96 783.174 5443.88 779.481 5443.88 774.983C5443.88 770.485 5442.96 766.768 5441.12 763.832C5439.27 760.849 5436.55 758.624 5432.95 757.156C5429.35 755.641 5424.92 754.884 5419.67 754.884H5402.34V872H5367.18ZM5449.07 805.523L5485.29 872H5446.94L5411.43 805.523H5449.07ZM5495.91 726.545H5535.19L5565.94 787.412H5567.22L5597.97 726.545H5637.25L5584.05 823.42V872H5549.11V823.42L5495.91 726.545ZM5846.99 779.244H5811.47C5811 775.598 5810.03 772.308 5808.56 769.372C5807.09 766.437 5805.15 763.927 5802.74 761.844C5800.32 759.76 5797.46 758.174 5794.14 757.085C5790.88 755.949 5787.25 755.381 5783.28 755.381C5776.22 755.381 5770.14 757.109 5765.02 760.565C5759.96 764.022 5756.05 769.017 5753.31 775.551C5750.61 782.085 5749.26 789.992 5749.26 799.273C5749.26 808.932 5750.63 817.028 5753.38 823.562C5756.17 830.049 5760.08 834.95 5765.1 838.264C5770.16 841.531 5776.15 843.165 5783.06 843.165C5786.95 843.165 5790.47 842.668 5793.65 841.673C5796.87 840.679 5799.68 839.235 5802.1 837.341C5804.56 835.4 5806.57 833.056 5808.14 830.31C5809.75 827.516 5810.86 824.367 5811.47 820.864L5846.99 821.077C5846.37 827.516 5844.5 833.861 5841.37 840.111C5838.3 846.361 5834.06 852.066 5828.66 857.227C5823.26 862.341 5816.68 866.413 5808.92 869.443C5801.2 872.473 5792.34 873.989 5782.35 873.989C5769.19 873.989 5757.4 871.1 5746.99 865.324C5736.62 859.5 5728.42 851.025 5722.41 839.898C5716.4 828.771 5713.39 815.229 5713.39 799.273C5713.39 783.269 5716.45 769.704 5722.55 758.577C5728.66 747.45 5736.92 738.998 5747.34 733.222C5757.76 727.445 5769.43 724.557 5782.35 724.557C5791.16 724.557 5799.31 725.788 5806.79 728.25C5814.27 730.665 5820.85 734.216 5826.53 738.903C5832.21 743.544 5836.83 749.249 5840.38 756.02C5843.93 762.791 5846.13 770.532 5846.99 779.244ZM6014.39 799.273C6014.39 815.277 6011.31 828.842 6005.16 839.969C5999 851.096 5990.67 859.547 5980.16 865.324C5969.69 871.1 5957.95 873.989 5944.93 873.989C5931.86 873.989 5920.09 871.077 5909.63 865.253C5899.17 859.429 5890.86 850.977 5884.7 839.898C5878.59 828.771 5875.54 815.229 5875.54 799.273C5875.54 783.269 5878.59 769.704 5884.7 758.577C5890.86 747.45 5899.17 738.998 5909.63 733.222C5920.09 727.445 5931.86 724.557 5944.93 724.557C5957.95 724.557 5969.69 727.445 5980.16 733.222C5990.67 738.998 5999 747.45 6005.16 758.577C6011.31 769.704 6014.39 783.269 6014.39 799.273ZM5978.45 799.273C5978.45 789.803 5977.1 781.801 5974.4 775.267C5971.75 768.733 5967.92 763.785 5962.9 760.423C5957.93 757.062 5951.94 755.381 5944.93 755.381C5937.97 755.381 5931.98 757.062 5926.96 760.423C5921.94 763.785 5918.08 768.733 5915.38 775.267C5912.73 781.801 5911.41 789.803 5911.41 799.273C5911.41 808.742 5912.73 816.744 5915.38 823.278C5918.08 829.812 5921.94 834.76 5926.96 838.122C5931.98 841.484 5937.97 843.165 5944.93 843.165C5951.94 843.165 5957.93 841.484 5962.9 838.122C5967.92 834.76 5971.75 829.812 5974.4 823.278C5977.1 816.744 5978.45 808.742 5978.45 799.273ZM6044.91 726.545H6088.45L6125.38 816.602H6127.09L6164.02 726.545H6207.56V872H6173.32V782.653H6172.12L6137.17 871.077H6115.3L6080.36 782.156H6079.15V872H6044.91V726.545ZM6239.49 872V726.545H6299.57C6310.46 726.545 6319.86 728.676 6327.77 732.938C6335.72 737.152 6341.85 743.046 6346.16 750.622C6350.47 758.151 6352.62 766.91 6352.62 776.901C6352.62 786.938 6350.42 795.722 6346.02 803.25C6341.66 810.731 6335.44 816.531 6327.34 820.651C6319.24 824.77 6309.63 826.83 6298.5 826.83H6261.43V799.131H6291.97C6297.27 799.131 6301.7 798.207 6305.25 796.361C6308.85 794.514 6311.57 791.934 6313.42 788.619C6315.27 785.258 6316.19 781.351 6316.19 776.901C6316.19 772.402 6315.27 768.52 6313.42 765.253C6311.57 761.938 6308.85 759.382 6305.25 757.582C6301.65 755.783 6297.23 754.884 6291.97 754.884H6274.64V872H6239.49ZM6393.84 872H6356.05L6405.13 726.545H6451.94L6501.01 872H6463.23L6429.07 763.193H6427.93L6393.84 872ZM6388.8 814.756H6467.77V841.46H6388.8V814.756ZM6650.47 726.545V872H6620.64L6562.75 788.051H6561.83V872H6526.67V726.545H6556.93L6614.17 810.352H6615.38V726.545H6650.47ZM6675.33 726.545H6714.6L6745.36 787.412H6746.63L6777.39 726.545H6816.66L6763.47 823.42V872H6728.52V823.42L6675.33 726.545ZM7018.16 726.545V872H6988.33L6930.45 788.051H6929.52V872H6894.37V726.545H6924.62L6981.87 810.352H6983.08V726.545H7018.16ZM7050.27 872V726.545H7151.69V755.097H7085.42V784.926H7146.5V813.548H7085.42V843.449H7151.69V872H7050.27ZM7183.7 872V726.545H7285.12V755.097H7218.86V784.926H7279.94V813.548H7218.86V843.449H7285.12V872H7183.7ZM7370.91 872H7317.14V726.545H7370.83C7385.65 726.545 7398.42 729.457 7409.12 735.281C7419.86 741.058 7428.15 749.391 7433.97 760.281C7439.8 771.124 7442.71 784.098 7442.71 799.202C7442.71 814.353 7439.8 827.374 7433.97 838.264C7428.2 849.154 7419.93 857.511 7409.19 863.335C7398.44 869.112 7385.68 872 7370.91 872ZM7352.3 842.028H7369.56C7377.7 842.028 7384.59 840.655 7390.22 837.909C7395.91 835.116 7400.19 830.594 7403.08 824.344C7406.01 818.046 7407.48 809.666 7407.48 799.202C7407.48 788.738 7406.01 780.404 7403.08 774.202C7400.14 767.952 7395.81 763.454 7390.08 760.707C7384.4 757.914 7377.39 756.517 7369.06 756.517H7352.3V842.028ZM7551.86 770.153C7551.38 764.945 7549.28 760.897 7545.54 758.009C7541.84 755.073 7536.56 753.605 7529.7 753.605C7525.15 753.605 7521.36 754.197 7518.33 755.381C7515.3 756.564 7513.03 758.198 7511.52 760.281C7510 762.317 7509.22 764.661 7509.17 767.312C7509.08 769.491 7509.5 771.408 7510.45 773.065C7511.45 774.723 7512.87 776.19 7514.71 777.469C7516.61 778.7 7518.88 779.789 7521.53 780.736C7524.18 781.683 7527.17 782.511 7530.48 783.222L7542.98 786.062C7550.18 787.625 7556.52 789.708 7562.01 792.312C7567.55 794.917 7572.19 798.018 7575.93 801.616C7579.72 805.215 7582.59 809.358 7584.53 814.045C7586.47 818.733 7587.46 823.989 7587.51 829.812C7587.46 838.998 7585.14 846.882 7580.55 853.463C7575.96 860.045 7569.35 865.087 7560.74 868.591C7552.17 872.095 7541.82 873.847 7529.7 873.847C7517.53 873.847 7506.92 872.024 7497.88 868.378C7488.84 864.732 7481.81 859.192 7476.79 851.759C7471.77 844.325 7469.19 834.926 7469.04 823.562H7502.71C7502.99 828.25 7504.25 832.156 7506.47 835.281C7508.7 838.406 7511.75 840.774 7515.64 842.384C7519.57 843.993 7524.11 844.798 7529.27 844.798C7534.01 844.798 7538.03 844.159 7541.35 842.881C7544.71 841.602 7547.29 839.827 7549.09 837.554C7550.89 835.281 7551.81 832.677 7551.86 829.741C7551.81 826.995 7550.96 824.652 7549.3 822.71C7547.64 820.722 7545.09 819.017 7541.63 817.597C7538.22 816.129 7533.86 814.779 7528.56 813.548L7513.36 809.997C7500.77 807.109 7490.85 802.445 7483.6 796.006C7476.36 789.519 7472.76 780.759 7472.81 769.727C7472.76 760.731 7475.18 752.848 7480.05 746.077C7484.93 739.306 7491.68 734.027 7500.29 730.239C7508.91 726.451 7518.74 724.557 7529.77 724.557C7541.04 724.557 7550.82 726.474 7559.1 730.31C7567.43 734.098 7573.9 739.424 7578.49 746.29C7583.08 753.155 7585.43 761.11 7585.52 770.153H7551.86Z" fill="#E2E8F0"/>
</g>
<g filter="url(#filter7_iiii_3929_9970)">
<path d="M3107.01 320V174.545H3208.43V203.097H3142.16V232.926H3203.24V261.548H3142.16V291.449H3208.43V320H3107.01ZM3273.47 174.545L3306 281.08H3307.21L3339.74 174.545H3379.08L3330.01 320H3283.2L3234.12 174.545H3273.47ZM3404.74 320V174.545H3506.16V203.097H3439.9V232.926H3500.98V261.548H3439.9V291.449H3506.16V320H3404.74ZM3538.18 320V174.545H3598.27C3609.16 174.545 3618.55 176.51 3626.46 180.44C3634.42 184.323 3640.55 189.91 3644.86 197.202C3649.17 204.446 3651.32 213.04 3651.32 222.983C3651.32 233.068 3649.12 241.638 3644.71 248.693C3640.31 255.701 3634.06 261.051 3625.96 264.744C3617.87 268.39 3608.28 270.213 3597.2 270.213H3559.2V242.514H3590.67C3595.97 242.514 3600.4 241.828 3603.95 240.455C3607.55 239.034 3610.27 236.903 3612.12 234.062C3613.96 231.174 3614.88 227.481 3614.88 222.983C3614.88 218.485 3613.96 214.768 3612.12 211.832C3610.27 208.849 3607.55 206.624 3603.95 205.156C3600.35 203.641 3595.92 202.884 3590.67 202.884H3573.34V320H3538.18ZM3620.07 253.523L3656.29 320H3617.94L3582.43 253.523H3620.07ZM3666.91 174.545H3706.19L3736.94 235.412H3738.22L3768.97 174.545H3808.25L3755.05 271.42V320H3720.11V271.42L3666.91 174.545ZM4017.99 227.244H3982.47C3982 223.598 3981.03 220.308 3979.56 217.372C3978.09 214.437 3976.15 211.927 3973.74 209.844C3971.32 207.76 3968.46 206.174 3965.14 205.085C3961.88 203.949 3958.25 203.381 3954.28 203.381C3947.22 203.381 3941.14 205.109 3936.02 208.565C3930.96 212.022 3927.05 217.017 3924.31 223.551C3921.61 230.085 3920.26 237.992 3920.26 247.273C3920.26 256.932 3921.63 265.028 3924.38 271.562C3927.17 278.049 3931.08 282.95 3936.1 286.264C3941.16 289.531 3947.15 291.165 3954.06 291.165C3957.95 291.165 3961.47 290.668 3964.65 289.673C3967.87 288.679 3970.68 287.235 3973.1 285.341C3975.56 283.4 3977.57 281.056 3979.14 278.31C3980.75 275.516 3981.86 272.367 3982.47 268.864L4017.99 269.077C4017.37 275.516 4015.5 281.861 4012.37 288.111C4009.3 294.361 4005.06 300.066 3999.66 305.227C3994.26 310.341 3987.68 314.413 3979.92 317.443C3972.2 320.473 3963.34 321.989 3953.35 321.989C3940.19 321.989 3928.4 319.1 3917.99 313.324C3907.62 307.5 3899.42 299.025 3893.41 287.898C3887.4 276.771 3884.39 263.229 3884.39 247.273C3884.39 231.269 3887.45 217.704 3893.55 206.577C3899.66 195.45 3907.92 186.998 3918.34 181.222C3928.76 175.445 3940.43 172.557 3953.35 172.557C3962.16 172.557 3970.31 173.788 3977.79 176.25C3985.27 178.665 3991.85 182.216 3997.53 186.903C4003.21 191.544 4007.83 197.249 4011.38 204.02C4014.93 210.791 4017.13 218.532 4017.99 227.244ZM4185.39 247.273C4185.39 263.277 4182.31 276.842 4176.16 287.969C4170 299.096 4161.67 307.547 4151.16 313.324C4140.69 319.1 4128.95 321.989 4115.93 321.989C4102.86 321.989 4091.09 319.077 4080.63 313.253C4070.17 307.429 4061.86 298.977 4055.7 287.898C4049.59 276.771 4046.54 263.229 4046.54 247.273C4046.54 231.269 4049.59 217.704 4055.7 206.577C4061.86 195.45 4070.17 186.998 4080.63 181.222C4091.09 175.445 4102.86 172.557 4115.93 172.557C4128.95 172.557 4140.69 175.445 4151.16 181.222C4161.67 186.998 4170 195.45 4176.16 206.577C4182.31 217.704 4185.39 231.269 4185.39 247.273ZM4149.45 247.273C4149.45 237.803 4148.1 229.801 4145.4 223.267C4142.75 216.733 4138.92 211.785 4133.9 208.423C4128.93 205.062 4122.94 203.381 4115.93 203.381C4108.97 203.381 4102.98 205.062 4097.96 208.423C4092.94 211.785 4089.08 216.733 4086.38 223.267C4083.73 229.801 4082.41 237.803 4082.41 247.273C4082.41 256.742 4083.73 264.744 4086.38 271.278C4089.08 277.812 4092.94 282.76 4097.96 286.122C4102.98 289.484 4108.97 291.165 4115.93 291.165C4122.94 291.165 4128.93 289.484 4133.9 286.122C4138.92 282.76 4142.75 277.812 4145.4 271.278C4148.1 264.744 4149.45 256.742 4149.45 247.273ZM4215.91 174.545H4259.45L4296.38 264.602H4298.09L4335.02 174.545H4378.56V320H4344.32V230.653H4343.12L4308.17 319.077H4286.3L4251.36 230.156H4250.15V320H4215.91V174.545ZM4410.49 320V174.545H4470.57C4481.46 174.545 4490.86 176.676 4498.77 180.938C4506.72 185.152 4512.85 191.046 4517.16 198.622C4521.47 206.151 4523.62 214.91 4523.62 224.901C4523.62 234.938 4521.42 243.722 4517.02 251.25C4512.66 258.731 4506.44 264.531 4498.34 268.651C4490.24 272.77 4480.63 274.83 4469.5 274.83H4432.43V247.131H4462.97C4468.27 247.131 4472.7 246.207 4476.25 244.361C4479.85 242.514 4482.57 239.934 4484.42 236.619C4486.27 233.258 4487.19 229.351 4487.19 224.901C4487.19 220.402 4486.27 216.52 4484.42 213.253C4482.57 209.938 4479.85 207.382 4476.25 205.582C4472.65 203.783 4468.23 202.884 4462.97 202.884H4445.64V320H4410.49ZM4564.84 320H4527.05L4576.13 174.545H4622.94L4672.01 320H4634.23L4600.07 211.193H4598.93L4564.84 320ZM4559.8 262.756H4638.77V289.46H4559.8V262.756ZM4821.47 174.545V320H4791.64L4733.75 236.051H4732.83V320H4697.67V174.545H4727.93L4785.17 258.352H4786.38V174.545H4821.47ZM4846.33 174.545H4885.6L4916.36 235.412H4917.63L4948.39 174.545H4987.66L4934.47 271.42V320H4899.52V271.42L4846.33 174.545ZM5189.16 174.545V320H5159.33L5101.45 236.051H5100.52V320H5065.37V174.545H5095.62L5152.87 258.352H5154.08V174.545H5189.16ZM5221.27 320V174.545H5322.69V203.097H5256.42V232.926H5317.5V261.548H5256.42V291.449H5322.69V320H5221.27ZM5354.7 320V174.545H5456.12V203.097H5389.86V232.926H5450.94V261.548H5389.86V291.449H5456.12V320H5354.7ZM5541.91 320H5488.14V174.545H5541.83C5556.65 174.545 5569.42 177.457 5580.12 183.281C5590.86 189.058 5599.15 197.391 5604.97 208.281C5610.8 219.124 5613.71 232.098 5613.71 247.202C5613.71 262.353 5610.8 275.374 5604.97 286.264C5599.2 297.154 5590.93 305.511 5580.19 311.335C5569.44 317.112 5556.68 320 5541.91 320ZM5523.3 290.028H5540.56C5548.7 290.028 5555.59 288.655 5561.22 285.909C5566.91 283.116 5571.19 278.594 5574.08 272.344C5577.01 266.046 5578.48 257.666 5578.48 247.202C5578.48 236.738 5577.01 228.404 5574.08 222.202C5571.14 215.952 5566.81 211.454 5561.08 208.707C5555.4 205.914 5548.39 204.517 5540.06 204.517H5523.3V290.028ZM5722.86 218.153C5722.38 212.945 5720.28 208.897 5716.54 206.009C5712.84 203.073 5707.56 201.605 5700.7 201.605C5696.15 201.605 5692.36 202.197 5689.33 203.381C5686.3 204.564 5684.03 206.198 5682.52 208.281C5681 210.317 5680.22 212.661 5680.17 215.312C5680.08 217.491 5680.5 219.408 5681.45 221.065C5682.45 222.723 5683.87 224.19 5685.71 225.469C5687.61 226.7 5689.88 227.789 5692.53 228.736C5695.18 229.683 5698.17 230.511 5701.48 231.222L5713.98 234.062C5721.18 235.625 5727.52 237.708 5733.01 240.312C5738.55 242.917 5743.19 246.018 5746.93 249.616C5750.72 253.215 5753.59 257.358 5755.53 262.045C5757.47 266.733 5758.46 271.989 5758.51 277.812C5758.46 286.998 5756.14 294.882 5751.55 301.463C5746.96 308.045 5740.35 313.087 5731.74 316.591C5723.17 320.095 5712.82 321.847 5700.7 321.847C5688.53 321.847 5677.92 320.024 5668.88 316.378C5659.84 312.732 5652.81 307.192 5647.79 299.759C5642.77 292.325 5640.19 282.926 5640.04 271.562H5673.71C5673.99 276.25 5675.25 280.156 5677.47 283.281C5679.7 286.406 5682.75 288.774 5686.64 290.384C5690.57 291.993 5695.11 292.798 5700.27 292.798C5705.01 292.798 5709.03 292.159 5712.35 290.881C5715.71 289.602 5718.29 287.827 5720.09 285.554C5721.89 283.281 5722.81 280.677 5722.86 277.741C5722.81 274.995 5721.96 272.652 5720.3 270.71C5718.64 268.722 5716.09 267.017 5712.63 265.597C5709.22 264.129 5704.86 262.779 5699.56 261.548L5684.36 257.997C5671.77 255.109 5661.85 250.445 5654.6 244.006C5647.36 237.519 5643.76 228.759 5643.81 217.727C5643.76 208.731 5646.18 200.848 5651.05 194.077C5655.93 187.306 5662.68 182.027 5671.29 178.239C5679.91 174.451 5689.74 172.557 5700.77 172.557C5712.04 172.557 5721.82 174.474 5730.1 178.31C5738.43 182.098 5744.9 187.424 5749.49 194.29C5754.08 201.155 5756.43 209.11 5756.52 218.153H5722.86Z" fill="#E2E8F0"/>
</g>
</g>
</g>
<defs>
<filter id="filter0_iiii_3929_9970" x="-906.992" y="683.557" width="2657.5" height="155.432" filterUnits="userSpaceOnUse" color-interpolation-filters="sRGB">
<feFlood flood-opacity="0" result="BackgroundImageFix"/>
<feBlend mode="normal" in="SourceGraphic" in2="BackgroundImageFix" result="shape"/>
<feColorMatrix in="SourceAlpha" type="matrix" values="0 0 0 0 0 0 0 0 0 0 0 0 0 0 0 0 0 0 127 0" result="hardAlpha"/>
<feOffset dx="3" dy="3"/>
<feGaussianBlur stdDeviation="4"/>
<feComposite in2="hardAlpha" operator="arithmetic" k2="-1" k3="1"/>
<feColorMatrix type="matrix" values="0 0 0 0 0.796078 0 0 0 0 0.819608 0 0 0 0 0.847059 0 0 0 0.9 0"/>
<feBlend mode="normal" in2="shape" result="effect1_innerShadow_3929_9970"/>
<feColorMatrix in="SourceAlpha" type="matrix" values="0 0 0 0 0 0 0 0 0 0 0 0 0 0 0 0 0 0 127 0" result="hardAlpha"/>
<feOffset dx="-3" dy="-3"/>
<feGaussianBlur stdDeviation="3"/>
<feComposite in2="hardAlpha" operator="arithmetic" k2="-1" k3="1"/>
<feColorMatrix type="matrix" values="0 0 0 0 0.976471 0 0 0 0 1 0 0 0 0 1 0 0 0 0.9 0"/>
<feBlend mode="normal" in2="effect1_innerShadow_3929_9970" result="effect2_innerShadow_3929_9970"/>
<feColorMatrix in="SourceAlpha" type="matrix" values="0 0 0 0 0 0 0 0 0 0 0 0 0 0 0 0 0 0 127 0" result="hardAlpha"/>
<feOffset dx="3" dy="-3"/>
<feGaussianBlur stdDeviation="3"/>
<feComposite in2="hardAlpha" operator="arithmetic" k2="-1" k3="1"/>
<feColorMatrix type="matrix" values="0 0 0 0 0.796078 0 0 0 0 0.819608 0 0 0 0 0.847059 0 0 0 0.2 0"/>
<feBlend mode="normal" in2="effect2_innerShadow_3929_9970" result="effect3_innerShadow_3929_9970"/>
<feColorMatrix in="SourceAlpha" type="matrix" values="0 0 0 0 0 0 0 0 0 0 0 0 0 0 0 0 0 0 127 0" result="hardAlpha"/>
<feOffset dx="-3" dy="3"/>
<feGaussianBlur stdDeviation="3"/>
<feComposite in2="hardAlpha" operator="arithmetic" k2="-1" k3="1"/>
<feColorMatrix type="matrix" values="0 0 0 0 0.796078 0 0 0 0 0.819608 0 0 0 0 0.847059 0 0 0 0.2 0"/>
<feBlend mode="normal" in2="effect3_innerShadow_3929_9970" result="effect4_innerShadow_3929_9970"/>
</filter>
<filter id="filter1_iiii_3929_9970" x="208.008" y="131.557" width="2657.5" height="155.432" filterUnits="userSpaceOnUse" color-interpolation-filters="sRGB">
<feFlood flood-opacity="0" result="BackgroundImageFix"/>
<feBlend mode="normal" in="SourceGraphic" in2="BackgroundImageFix" result="shape"/>
<feColorMatrix in="SourceAlpha" type="matrix" values="0 0 0 0 0 0 0 0 0 0 0 0 0 0 0 0 0 0 127 0" result="hardAlpha"/>
<feOffset dx="3" dy="3"/>
<feGaussianBlur stdDeviation="4"/>
<feComposite in2="hardAlpha" operator="arithmetic" k2="-1" k3="1"/>
<feColorMatrix type="matrix" values="0 0 0 0 0.796078 0 0 0 0 0.819608 0 0 0 0 0.847059 0 0 0 0.9 0"/>
<feBlend mode="normal" in2="shape" result="effect1_innerShadow_3929_9970"/>
<feColorMatrix in="SourceAlpha" type="matrix" values="0 0 0 0 0 0 0 0 0 0 0 0 0 0 0 0 0 0 127 0" result="hardAlpha"/>
<feOffset dx="-3" dy="-3"/>
<feGaussianBlur stdDeviation="3"/>
<feComposite in2="hardAlpha" operator="arithmetic" k2="-1" k3="1"/>
<feColorMatrix type="matrix" values="0 0 0 0 0.976471 0 0 0 0 1 0 0 0 0 1 0 0 0 0.9 0"/>
<feBlend mode="normal" in2="effect1_innerShadow_3929_9970" result="effect2_innerShadow_3929_9970"/>
<feColorMatrix in="SourceAlpha" type="matrix" values="0 0 0 0 0 0 0 0 0 0 0 0 0 0 0 0 0 0 127 0" result="hardAlpha"/>
<feOffset dx="3" dy="-3"/>
<feGaussianBlur stdDeviation="3"/>
<feComposite in2="hardAlpha" operator="arithmetic" k2="-1" k3="1"/>
<feColorMatrix type="matrix" values="0 0 0 0 0.796078 0 0 0 0 0.819608 0 0 0 0 0.847059 0 0 0 0.2 0"/>
<feBlend mode="normal" in2="effect2_innerShadow_3929_9970" result="effect3_innerShadow_3929_9970"/>
<feColorMatrix in="SourceAlpha" type="matrix" values="0 0 0 0 0 0 0 0 0 0 0 0 0 0 0 0 0 0 127 0" result="hardAlpha"/>
<feOffset dx="-3" dy="3"/>
<feGaussianBlur stdDeviation="3"/>
<feComposite in2="hardAlpha" operator="arithmetic" k2="-1" k3="1"/>
<feColorMatrix type="matrix" values="0 0 0 0 0.796078 0 0 0 0 0.819608 0 0 0 0 0.847059 0 0 0 0.2 0"/>
<feBlend mode="normal" in2="effect3_innerShadow_3929_9970" result="effect4_innerShadow_3929_9970"/>
</filter>
<filter id="filter2_iiii_3929_9970" x="3078.01" y="169.557" width="2657.5" height="155.432" filterUnits="userSpaceOnUse" color-interpolation-filters="sRGB">
<feFlood flood-opacity="0" result="BackgroundImageFix"/>
<feBlend mode="normal" in="SourceGraphic" in2="BackgroundImageFix" result="shape"/>
<feColorMatrix in="SourceAlpha" type="matrix" values="0 0 0 0 0 0 0 0 0 0 0 0 0 0 0 0 0 0 127 0" result="hardAlpha"/>
<feOffset dx="3" dy="3"/>
<feGaussianBlur stdDeviation="4"/>
<feComposite in2="hardAlpha" operator="arithmetic" k2="-1" k3="1"/>
<feColorMatrix type="matrix" values="0 0 0 0 0.796078 0 0 0 0 0.819608 0 0 0 0 0.847059 0 0 0 0.9 0"/>
<feBlend mode="normal" in2="shape" result="effect1_innerShadow_3929_9970"/>
<feColorMatrix in="SourceAlpha" type="matrix" values="0 0 0 0 0 0 0 0 0 0 0 0 0 0 0 0 0 0 127 0" result="hardAlpha"/>
<feOffset dx="-3" dy="-3"/>
<feGaussianBlur stdDeviation="3"/>
<feComposite in2="hardAlpha" operator="arithmetic" k2="-1" k3="1"/>
<feColorMatrix type="matrix" values="0 0 0 0 0.976471 0 0 0 0 1 0 0 0 0 1 0 0 0 0.9 0"/>
<feBlend mode="normal" in2="effect1_innerShadow_3929_9970" result="effect2_innerShadow_3929_9970"/>
<feColorMatrix in="SourceAlpha" type="matrix" values="0 0 0 0 0 0 0 0 0 0 0 0 0 0 0 0 0 0 127 0" result="hardAlpha"/>
<feOffset dx="3" dy="-3"/>
<feGaussianBlur stdDeviation="3"/>
<feComposite in2="hardAlpha" operator="arithmetic" k2="-1" k3="1"/>
<feColorMatrix type="matrix" values="0 0 0 0 0.796078 0 0 0 0 0.819608 0 0 0 0 0.847059 0 0 0 0.2 0"/>
<feBlend mode="normal" in2="effect2_innerShadow_3929_9970" result="effect3_innerShadow_3929_9970"/>
<feColorMatrix in="SourceAlpha" type="matrix" values="0 0 0 0 0 0 0 0 0 0 0 0 0 0 0 0 0 0 127 0" result="hardAlpha"/>
<feOffset dx="-3" dy="3"/>
<feGaussianBlur stdDeviation="3"/>
<feComposite in2="hardAlpha" operator="arithmetic" k2="-1" k3="1"/>
<feColorMatrix type="matrix" values="0 0 0 0 0.796078 0 0 0 0 0.819608 0 0 0 0 0.847059 0 0 0 0.2 0"/>
<feBlend mode="normal" in2="effect3_innerShadow_3929_9970" result="effect4_innerShadow_3929_9970"/>
</filter>
<filter id="filter3_iiii_3929_9970" x="2063.01" y="721.557" width="2657.5" height="155.432" filterUnits="userSpaceOnUse" color-interpolation-filters="sRGB">
<feFlood flood-opacity="0" result="BackgroundImageFix"/>
<feBlend mode="normal" in="SourceGraphic" in2="BackgroundImageFix" result="shape"/>
<feColorMatrix in="SourceAlpha" type="matrix" values="0 0 0 0 0 0 0 0 0 0 0 0 0 0 0 0 0 0 127 0" result="hardAlpha"/>
<feOffset dx="3" dy="3"/>
<feGaussianBlur stdDeviation="4"/>
<feComposite in2="hardAlpha" operator="arithmetic" k2="-1" k3="1"/>
<feColorMatrix type="matrix" values="0 0 0 0 0.796078 0 0 0 0 0.819608 0 0 0 0 0.847059 0 0 0 0.9 0"/>
<feBlend mode="normal" in2="shape" result="effect1_innerShadow_3929_9970"/>
<feColorMatrix in="SourceAlpha" type="matrix" values="0 0 0 0 0 0 0 0 0 0 0 0 0 0 0 0 0 0 127 0" result="hardAlpha"/>
<feOffset dx="-3" dy="-3"/>
<feGaussianBlur stdDeviation="3"/>
<feComposite in2="hardAlpha" operator="arithmetic" k2="-1" k3="1"/>
<feColorMatrix type="matrix" values="0 0 0 0 0.976471 0 0 0 0 1 0 0 0 0 1 0 0 0 0.9 0"/>
<feBlend mode="normal" in2="effect1_innerShadow_3929_9970" result="effect2_innerShadow_3929_9970"/>
<feColorMatrix in="SourceAlpha" type="matrix" values="0 0 0 0 0 0 0 0 0 0 0 0 0 0 0 0 0 0 127 0" result="hardAlpha"/>
<feOffset dx="3" dy="-3"/>
<feGaussianBlur stdDeviation="3"/>
<feComposite in2="hardAlpha" operator="arithmetic" k2="-1" k3="1"/>
<feColorMatrix type="matrix" values="0 0 0 0 0.796078 0 0 0 0 0.819608 0 0 0 0 0.847059 0 0 0 0.2 0"/>
<feBlend mode="normal" in2="effect2_innerShadow_3929_9970" result="effect3_innerShadow_3929_9970"/>
<feColorMatrix in="SourceAlpha" type="matrix" values="0 0 0 0 0 0 0 0 0 0 0 0 0 0 0 0 0 0 127 0" result="hardAlpha"/>
<feOffset dx="-3" dy="3"/>
<feGaussianBlur stdDeviation="3"/>
<feComposite in2="hardAlpha" operator="arithmetic" k2="-1" k3="1"/>
<feColorMatrix type="matrix" values="0 0 0 0 0.796078 0 0 0 0 0.819608 0 0 0 0 0.847059 0 0 0 0.2 0"/>
<feBlend mode="normal" in2="effect3_innerShadow_3929_9970" result="effect4_innerShadow_3929_9970"/>
</filter>
<filter id="filter4_iiii_3929_9970" x="208.008" y="169.557" width="2657.5" height="155.432" filterUnits="userSpaceOnUse" color-interpolation-filters="sRGB">
<feFlood flood-opacity="0" result="BackgroundImageFix"/>
<feBlend mode="normal" in="SourceGraphic" in2="BackgroundImageFix" result="shape"/>
<feColorMatrix in="SourceAlpha" type="matrix" values="0 0 0 0 0 0 0 0 0 0 0 0 0 0 0 0 0 0 127 0" result="hardAlpha"/>
<feOffset dx="3" dy="3"/>
<feGaussianBlur stdDeviation="4"/>
<feComposite in2="hardAlpha" operator="arithmetic" k2="-1" k3="1"/>
<feColorMatrix type="matrix" values="0 0 0 0 0.796078 0 0 0 0 0.819608 0 0 0 0 0.847059 0 0 0 0.9 0"/>
<feBlend mode="normal" in2="shape" result="effect1_innerShadow_3929_9970"/>
<feColorMatrix in="SourceAlpha" type="matrix" values="0 0 0 0 0 0 0 0 0 0 0 0 0 0 0 0 0 0 127 0" result="hardAlpha"/>
<feOffset dx="-3" dy="-3"/>
<feGaussianBlur stdDeviation="3"/>
<feComposite in2="hardAlpha" operator="arithmetic" k2="-1" k3="1"/>
<feColorMatrix type="matrix" values="0 0 0 0 0.976471 0 0 0 0 1 0 0 0 0 1 0 0 0 0.9 0"/>
<feBlend mode="normal" in2="effect1_innerShadow_3929_9970" result="effect2_innerShadow_3929_9970"/>
<feColorMatrix in="SourceAlpha" type="matrix" values="0 0 0 0 0 0 0 0 0 0 0 0 0 0 0 0 0 0 127 0" result="hardAlpha"/>
<feOffset dx="3" dy="-3"/>
<feGaussianBlur stdDeviation="3"/>
<feComposite in2="hardAlpha" operator="arithmetic" k2="-1" k3="1"/>
<feColorMatrix type="matrix" values="0 0 0 0 0.796078 0 0 0 0 0.819608 0 0 0 0 0.847059 0 0 0 0.2 0"/>
<feBlend mode="normal" in2="effect2_innerShadow_3929_9970" result="effect3_innerShadow_3929_9970"/>
<feColorMatrix in="SourceAlpha" type="matrix" values="0 0 0 0 0 0 0 0 0 0 0 0 0 0 0 0 0 0 127 0" result="hardAlpha"/>
<feOffset dx="-3" dy="3"/>
<feGaussianBlur stdDeviation="3"/>
<feComposite in2="hardAlpha" operator="arithmetic" k2="-1" k3="1"/>
<feColorMatrix type="matrix" values="0 0 0 0 0.796078 0 0 0 0 0.819608 0 0 0 0 0.847059 0 0 0 0.2 0"/>
<feBlend mode="normal" in2="effect3_innerShadow_3929_9970" result="effect4_innerShadow_3929_9970"/>
</filter>
<filter id="filter5_iiii_3929_9970" x="2063.01" y="721.557" width="2657.5" height="155.432" filterUnits="userSpaceOnUse" color-interpolation-filters="sRGB">
<feFlood flood-opacity="0" result="BackgroundImageFix"/>
<feBlend mode="normal" in="SourceGraphic" in2="BackgroundImageFix" result="shape"/>
<feColorMatrix in="SourceAlpha" type="matrix" values="0 0 0 0 0 0 0 0 0 0 0 0 0 0 0 0 0 0 127 0" result="hardAlpha"/>
<feOffset dx="3" dy="3"/>
<feGaussianBlur stdDeviation="4"/>
<feComposite in2="hardAlpha" operator="arithmetic" k2="-1" k3="1"/>
<feColorMatrix type="matrix" values="0 0 0 0 0.796078 0 0 0 0 0.819608 0 0 0 0 0.847059 0 0 0 0.9 0"/>
<feBlend mode="normal" in2="shape" result="effect1_innerShadow_3929_9970"/>
<feColorMatrix in="SourceAlpha" type="matrix" values="0 0 0 0 0 0 0 0 0 0 0 0 0 0 0 0 0 0 127 0" result="hardAlpha"/>
<feOffset dx="-3" dy="-3"/>
<feGaussianBlur stdDeviation="3"/>
<feComposite in2="hardAlpha" operator="arithmetic" k2="-1" k3="1"/>
<feColorMatrix type="matrix" values="0 0 0 0 0.976471 0 0 0 0 1 0 0 0 0 1 0 0 0 0.9 0"/>
<feBlend mode="normal" in2="effect1_innerShadow_3929_9970" result="effect2_innerShadow_3929_9970"/>
<feColorMatrix in="SourceAlpha" type="matrix" values="0 0 0 0 0 0 0 0 0 0 0 0 0 0 0 0 0 0 127 0" result="hardAlpha"/>
<feOffset dx="3" dy="-3"/>
<feGaussianBlur stdDeviation="3"/>
<feComposite in2="hardAlpha" operator="arithmetic" k2="-1" k3="1"/>
<feColorMatrix type="matrix" values="0 0 0 0 0.796078 0 0 0 0 0.819608 0 0 0 0 0.847059 0 0 0 0.2 0"/>
<feBlend mode="normal" in2="effect2_innerShadow_3929_9970" result="effect3_innerShadow_3929_9970"/>
<feColorMatrix in="SourceAlpha" type="matrix" values="0 0 0 0 0 0 0 0 0 0 0 0 0 0 0 0 0 0 127 0" result="hardAlpha"/>
<feOffset dx="-3" dy="3"/>
<feGaussianBlur stdDeviation="3"/>
<feComposite in2="hardAlpha" operator="arithmetic" k2="-1" k3="1"/>
<feColorMatrix type="matrix" values="0 0 0 0 0.796078 0 0 0 0 0.819608 0 0 0 0 0.847059 0 0 0 0.2 0"/>
<feBlend mode="normal" in2="effect3_innerShadow_3929_9970" result="effect4_innerShadow_3929_9970"/>
</filter>
<filter id="filter6_iiii_3929_9970" x="4933.01" y="721.557" width="2657.5" height="155.432" filterUnits="userSpaceOnUse" color-interpolation-filters="sRGB">
<feFlood flood-opacity="0" result="BackgroundImageFix"/>
<feBlend mode="normal" in="SourceGraphic" in2="BackgroundImageFix" result="shape"/>
<feColorMatrix in="SourceAlpha" type="matrix" values="0 0 0 0 0 0 0 0 0 0 0 0 0 0 0 0 0 0 127 0" result="hardAlpha"/>
<feOffset dx="3" dy="3"/>
<feGaussianBlur stdDeviation="4"/>
<feComposite in2="hardAlpha" operator="arithmetic" k2="-1" k3="1"/>
<feColorMatrix type="matrix" values="0 0 0 0 0.796078 0 0 0 0 0.819608 0 0 0 0 0.847059 0 0 0 0.9 0"/>
<feBlend mode="normal" in2="shape" result="effect1_innerShadow_3929_9970"/>
<feColorMatrix in="SourceAlpha" type="matrix" values="0 0 0 0 0 0 0 0 0 0 0 0 0 0 0 0 0 0 127 0" result="hardAlpha"/>
<feOffset dx="-3" dy="-3"/>
<feGaussianBlur stdDeviation="3"/>
<feComposite in2="hardAlpha" operator="arithmetic" k2="-1" k3="1"/>
<feColorMatrix type="matrix" values="0 0 0 0 0.976471 0 0 0 0 1 0 0 0 0 1 0 0 0 0.9 0"/>
<feBlend mode="normal" in2="effect1_innerShadow_3929_9970" result="effect2_innerShadow_3929_9970"/>
<feColorMatrix in="SourceAlpha" type="matrix" values="0 0 0 0 0 0 0 0 0 0 0 0 0 0 0 0 0 0 127 0" result="hardAlpha"/>
<feOffset dx="3" dy="-3"/>
<feGaussianBlur stdDeviation="3"/>
<feComposite in2="hardAlpha" operator="arithmetic" k2="-1" k3="1"/>
<feColorMatrix type="matrix" values="0 0 0 0 0.796078 0 0 0 0 0.819608 0 0 0 0 0.847059 0 0 0 0.2 0"/>
<feBlend mode="normal" in2="effect2_innerShadow_3929_9970" result="effect3_innerShadow_3929_9970"/>
<feColorMatrix in="SourceAlpha" type="matrix" values="0 0 0 0 0 0 0 0 0 0 0 0 0 0 0 0 0 0 127 0" result="hardAlpha"/>
<feOffset dx="-3" dy="3"/>
<feGaussianBlur stdDeviation="3"/>
<feComposite in2="hardAlpha" operator="arithmetic" k2="-1" k3="1"/>
<feColorMatrix type="matrix" values="0 0 0 0 0.796078 0 0 0 0 0.819608 0 0 0 0 0.847059 0 0 0 0.2 0"/>
<feBlend mode="normal" in2="effect3_innerShadow_3929_9970" result="effect4_innerShadow_3929_9970"/>
</filter>
<filter id="filter7_iiii_3929_9970" x="3104.01" y="169.557" width="2657.5" height="155.432" filterUnits="userSpaceOnUse" color-interpolation-filters="sRGB">
<feFlood flood-opacity="0" result="BackgroundImageFix"/>
<feBlend mode="normal" in="SourceGraphic" in2="BackgroundImageFix" result="shape"/>
<feColorMatrix in="SourceAlpha" type="matrix" values="0 0 0 0 0 0 0 0 0 0 0 0 0 0 0 0 0 0 127 0" result="hardAlpha"/>
<feOffset dx="3" dy="3"/>
<feGaussianBlur stdDeviation="4"/>
<feComposite in2="hardAlpha" operator="arithmetic" k2="-1" k3="1"/>
<feColorMatrix type="matrix" values="0 0 0 0 0.796078 0 0 0 0 0.819608 0 0 0 0 0.847059 0 0 0 0.9 0"/>
<feBlend mode="normal" in2="shape" result="effect1_innerShadow_3929_9970"/>
<feColorMatrix in="SourceAlpha" type="matrix" values="0 0 0 0 0 0 0 0 0 0 0 0 0 0 0 0 0 0 127 0" result="hardAlpha"/>
<feOffset dx="-3" dy="-3"/>
<feGaussianBlur stdDeviation="3"/>
<feComposite in2="hardAlpha" operator="arithmetic" k2="-1" k3="1"/>
<feColorMatrix type="matrix" values="0 0 0 0 0.976471 0 0 0 0 1 0 0 0 0 1 0 0 0 0.9 0"/>
<feBlend mode="normal" in2="effect1_innerShadow_3929_9970" result="effect2_innerShadow_3929_9970"/>
<feColorMatrix in="SourceAlpha" type="matrix" values="0 0 0 0 0 0 0 0 0 0 0 0 0 0 0 0 0 0 127 0" result="hardAlpha"/>
<feOffset dx="3" dy="-3"/>
<feGaussianBlur stdDeviation="3"/>
<feComposite in2="hardAlpha" operator="arithmetic" k2="-1" k3="1"/>
<feColorMatrix type="matrix" values="0 0 0 0 0.796078 0 0 0 0 0.819608 0 0 0 0 0.847059 0 0 0 0.2 0"/>
<feBlend mode="normal" in2="effect2_innerShadow_3929_9970" result="effect3_innerShadow_3929_9970"/>
<feColorMatrix in="SourceAlpha" type="matrix" values="0 0 0 0 0 0 0 0 0 0 0 0 0 0 0 0 0 0 127 0" result="hardAlpha"/>
<feOffset dx="-3" dy="3"/>
<feGaussianBlur stdDeviation="3"/>
<feComposite in2="hardAlpha" operator="arithmetic" k2="-1" k3="1"/>
<feColorMatrix type="matrix" values="0 0 0 0 0.796078 0 0 0 0 0.819608 0 0 0 0 0.847059 0 0 0 0.2 0"/>
<feBlend mode="normal" in2="effect3_innerShadow_3929_9970" result="effect4_innerShadow_3929_9970"/>
</filter>
<clipPath id="clip0_3929_9970">
<rect width="5760" height="950" fill="white"/>
</clipPath>
<clipPath id="clip1_3929_9970">
<rect width="1920" height="950" fill="white"/>
</clipPath>
<clipPath id="clip2_3929_9970">
<rect width="1920" height="1024" fill="white" transform="translate(1920)"/>
</clipPath>
<clipPath id="clip3_3929_9970">
<rect width="1920" height="1024" fill="white" transform="translate(3840)"/>
</clipPath>
</defs>
</svg>
