<svg width="192" height="84" viewBox="0 0 192 84" fill="none" xmlns="http://www.w3.org/2000/svg">
<g clip-path="url(#clip0_4288_19095)">
<path d="M85.1298 64.1068C72.0389 64.3646 38.971 65 31 65C21 65 15.5 74.5 15.5 74.5C15.5 74.5 11.8542 76.4563 10.5 74.5C10.5 74.5 6.5 73.5 6.5 58.5V31L-2.8988 7.69099C-4.37122 4.03938 -1.64513 0.0676923 2.29169 0.128886L85.0812 1.41577C88.0875 1.4625 90.5 3.91283 90.5 6.91943V58.6057C90.5 61.6024 88.1259 64.0478 85.1298 64.1068Z" fill="#FFCF54"/>
</g>
<path d="M0 33C0 21.9543 8.9543 13 20 13H172C183.046 13 192 21.9543 192 33V44C192 55.0457 183.046 64 172 64H20C8.95431 64 0 55.0457 0 44V33Z" fill="#FFCF54"/>
<path d="M39 31.8V39.62C39 41.4867 38.5 42.8867 37.5 43.82C36.5133 44.74 35.0467 45.2 33.1 45.2C31.1667 45.2 29.7 44.74 28.7 43.82C27.7 42.8867 27.2 41.4867 27.2 39.62V31.8H30.66V39.68C30.66 40.6267 30.86 41.3333 31.26 41.8C31.6733 42.2667 32.2867 42.5 33.1 42.5C33.9267 42.5 34.54 42.2667 34.94 41.8C35.3533 41.3333 35.56 40.6267 35.56 39.68V31.8H39ZM45.1606 45.2C44.1606 45.2 43.2273 45.04 42.3606 44.72C41.5073 44.3867 40.8006 43.9133 40.2406 43.3L41.8406 41.42C42.174 41.8467 42.614 42.2067 43.1606 42.5C43.7206 42.78 44.3406 42.92 45.0206 42.92C45.434 42.92 45.774 42.86 46.0406 42.74C46.3073 42.62 46.4406 42.4333 46.4406 42.18C46.4406 41.9933 46.374 41.8467 46.2406 41.74C46.1073 41.62 45.8406 41.52 45.4406 41.44L44.0406 41.16C42.7873 40.9067 41.894 40.5333 41.3606 40.04C40.8406 39.5333 40.5806 38.8733 40.5806 38.06C40.5806 37.5133 40.7473 36.9933 41.0806 36.5C41.414 35.9933 41.9273 35.5867 42.6206 35.28C43.314 34.96 44.2006 34.8 45.2806 34.8C46.294 34.8 47.1873 34.9467 47.9606 35.24C48.734 35.5333 49.3473 35.96 49.8006 36.52L48.1806 38.36C47.8606 37.96 47.4473 37.6467 46.9406 37.42C46.434 37.1933 45.9273 37.08 45.4206 37.08C45.1006 37.08 44.8273 37.1133 44.6006 37.18C44.3873 37.2333 44.2273 37.3133 44.1206 37.42C44.014 37.5267 43.9606 37.66 43.9606 37.82C43.9606 37.9933 44.0406 38.1467 44.2006 38.28C44.374 38.4 44.6873 38.5067 45.1406 38.6L46.9606 38.96C47.9873 39.1467 48.7273 39.4867 49.1806 39.98C49.634 40.4733 49.8606 41.0667 49.8606 41.76C49.8606 42.4133 49.6873 43 49.3406 43.52C48.994 44.04 48.474 44.4533 47.7806 44.76C47.0873 45.0533 46.214 45.2 45.1606 45.2ZM56.0461 45.2C54.9394 45.2 53.9794 44.9933 53.1661 44.58C52.3661 44.1667 51.7461 43.5733 51.3061 42.8C50.8661 42.0267 50.6461 41.0933 50.6461 40C50.6461 38.9067 50.8661 37.9733 51.3061 37.2C51.7461 36.4267 52.3594 35.8333 53.1461 35.42C53.9461 35.0067 54.8594 34.8 55.8861 34.8C56.9394 34.8 57.8328 35.0067 58.5661 35.42C59.3128 35.82 59.8794 36.38 60.2661 37.1C60.6528 37.8067 60.8461 38.62 60.8461 39.54C60.8461 39.78 60.8394 40.02 60.8261 40.26C60.8128 40.5 60.7928 40.7 60.7661 40.86H52.8461V39.04H59.2661L57.6461 39.66C57.6461 38.86 57.4994 38.2467 57.2061 37.82C56.9261 37.3933 56.4861 37.18 55.8861 37.18C55.4594 37.18 55.0928 37.28 54.7861 37.48C54.4928 37.68 54.2661 37.9933 54.1061 38.42C53.9594 38.8467 53.8861 39.3933 53.8861 40.06C53.8861 40.7133 53.9728 41.2467 54.1461 41.66C54.3194 42.06 54.5661 42.3533 54.8861 42.54C55.2061 42.7133 55.5928 42.8 56.0461 42.8C56.5528 42.8 56.9528 42.7 57.2461 42.5C57.5528 42.3 57.7794 42.02 57.9261 41.66L60.6461 42.56C60.4594 43.1333 60.1328 43.62 59.6661 44.02C59.2128 44.4067 58.6661 44.7 58.0261 44.9C57.3994 45.1 56.7394 45.2 56.0461 45.2ZM62.3481 45V35H65.3481L65.4881 37.16C65.7415 36.4133 66.1148 35.8333 66.6081 35.42C67.1148 35.0067 67.7548 34.8 68.5281 34.8C68.7815 34.8 68.9948 34.82 69.1681 34.86C69.3548 34.9 69.5015 34.9533 69.6081 35.02L69.2681 37.82C69.1348 37.7667 68.9615 37.7267 68.7481 37.7C68.5481 37.66 68.3015 37.64 68.0081 37.64C67.6081 37.64 67.2348 37.7267 66.8881 37.9C66.5415 38.0733 66.2615 38.3333 66.0481 38.68C65.8481 39.0133 65.7481 39.44 65.7481 39.96V45H62.3481ZM79.232 31.8V45H75.792V31.8H79.232ZM81.4802 45V35H84.5202L84.7002 38.44L84.3202 38.06C84.4535 37.34 84.6868 36.74 85.0202 36.26C85.3668 35.78 85.7935 35.42 86.3002 35.18C86.8202 34.9267 87.4002 34.8 88.0402 34.8C88.7335 34.8 89.3335 34.9333 89.8402 35.2C90.3602 35.4667 90.7668 35.86 91.0602 36.38C91.3535 36.9 91.5002 37.5533 91.5002 38.34V45H88.1002V39.24C88.1002 38.5467 87.9668 38.0667 87.7002 37.8C87.4335 37.5333 87.0935 37.4 86.6802 37.4C86.3602 37.4 86.0602 37.48 85.7802 37.64C85.5002 37.7867 85.2802 38.0267 85.1202 38.36C84.9602 38.6933 84.8802 39.14 84.8802 39.7V45H81.4802ZM97.6039 31.82V41.44C97.6039 41.92 97.7172 42.2667 97.9439 42.48C98.1839 42.68 98.5106 42.78 98.9239 42.78C99.2439 42.78 99.5172 42.7467 99.7439 42.68C99.9839 42.6 100.197 42.4867 100.384 42.34L100.744 44.44C100.411 44.68 99.9906 44.8667 99.4839 45C98.9772 45.1333 98.4572 45.2 97.9239 45.2C97.1639 45.2 96.5039 45.0933 95.9439 44.88C95.3972 44.6667 94.9706 44.3267 94.6639 43.86C94.3706 43.3933 94.2172 42.7733 94.2039 42V32.76L97.6039 31.82ZM100.584 35V37.42H92.4839V35H100.584ZM106.634 45.2C105.528 45.2 104.568 44.9933 103.754 44.58C102.954 44.1667 102.334 43.5733 101.894 42.8C101.454 42.0267 101.234 41.0933 101.234 40C101.234 38.9067 101.454 37.9733 101.894 37.2C102.334 36.4267 102.948 35.8333 103.734 35.42C104.534 35.0067 105.448 34.8 106.474 34.8C107.528 34.8 108.421 35.0067 109.154 35.42C109.901 35.82 110.468 36.38 110.854 37.1C111.241 37.8067 111.434 38.62 111.434 39.54C111.434 39.78 111.428 40.02 111.414 40.26C111.401 40.5 111.381 40.7 111.354 40.86H103.434V39.04H109.854L108.234 39.66C108.234 38.86 108.088 38.2467 107.794 37.82C107.514 37.3933 107.074 37.18 106.474 37.18C106.048 37.18 105.681 37.28 105.374 37.48C105.081 37.68 104.854 37.9933 104.694 38.42C104.548 38.8467 104.474 39.3933 104.474 40.06C104.474 40.7133 104.561 41.2467 104.734 41.66C104.908 42.06 105.154 42.3533 105.474 42.54C105.794 42.7133 106.181 42.8 106.634 42.8C107.141 42.8 107.541 42.7 107.834 42.5C108.141 42.3 108.368 42.02 108.514 41.66L111.234 42.56C111.048 43.1333 110.721 43.62 110.254 44.02C109.801 44.4067 109.254 44.7 108.614 44.9C107.988 45.1 107.328 45.2 106.634 45.2ZM112.936 45V35H115.936L116.076 37.16C116.33 36.4133 116.703 35.8333 117.196 35.42C117.703 35.0067 118.343 34.8 119.116 34.8C119.37 34.8 119.583 34.82 119.756 34.86C119.943 34.9 120.09 34.9533 120.196 35.02L119.856 37.82C119.723 37.7667 119.55 37.7267 119.336 37.7C119.136 37.66 118.89 37.64 118.596 37.64C118.196 37.64 117.823 37.7267 117.476 37.9C117.13 38.0733 116.85 38.3333 116.636 38.68C116.436 39.0133 116.336 39.44 116.336 39.96V45H112.936ZM127.63 35H131.15L127.55 45H123.49L119.89 35H123.47L125.53 42.62L127.63 35ZM133.641 33.84C132.948 33.84 132.441 33.7133 132.121 33.46C131.814 33.1933 131.661 32.78 131.661 32.22C131.661 31.6467 131.814 31.2333 132.121 30.98C132.441 30.7133 132.948 30.58 133.641 30.58C134.321 30.58 134.821 30.7133 135.141 30.98C135.461 31.2333 135.621 31.6467 135.621 32.22C135.621 32.78 135.461 33.1933 135.141 33.46C134.821 33.7133 134.321 33.84 133.641 33.84ZM135.341 35V45H131.941V35H135.341ZM142.241 45.2C141.135 45.2 140.175 44.9933 139.361 44.58C138.561 44.1667 137.941 43.5733 137.501 42.8C137.061 42.0267 136.841 41.0933 136.841 40C136.841 38.9067 137.061 37.9733 137.501 37.2C137.941 36.4267 138.555 35.8333 139.341 35.42C140.141 35.0067 141.055 34.8 142.081 34.8C143.135 34.8 144.028 35.0067 144.761 35.42C145.508 35.82 146.075 36.38 146.461 37.1C146.848 37.8067 147.041 38.62 147.041 39.54C147.041 39.78 147.035 40.02 147.021 40.26C147.008 40.5 146.988 40.7 146.961 40.86H139.041V39.04H145.461L143.841 39.66C143.841 38.86 143.695 38.2467 143.401 37.82C143.121 37.3933 142.681 37.18 142.081 37.18C141.655 37.18 141.288 37.28 140.981 37.48C140.688 37.68 140.461 37.9933 140.301 38.42C140.155 38.8467 140.081 39.3933 140.081 40.06C140.081 40.7133 140.168 41.2467 140.341 41.66C140.515 42.06 140.761 42.3533 141.081 42.54C141.401 42.7133 141.788 42.8 142.241 42.8C142.748 42.8 143.148 42.7 143.441 42.5C143.748 42.3 143.975 42.02 144.121 41.66L146.841 42.56C146.655 43.1333 146.328 43.62 145.861 44.02C145.408 44.4067 144.861 44.7 144.221 44.9C143.595 45.1 142.935 45.2 142.241 45.2ZM161.37 35H164.93L161.91 45H157.83L156.01 38.86L154.25 45H150.19L147.15 35H150.73L152.41 42.38L154.37 35H157.73L159.67 42.38L161.37 35Z" fill="#494949"/>
<defs>
<clipPath id="clip0_4288_19095">
<rect width="165" height="50" fill="white" transform="translate(6 34)"/>
</clipPath>
</defs>
</svg>
