<svg width="171" height="84" viewBox="0 0 171 84" fill="none" xmlns="http://www.w3.org/2000/svg">
<g clip-path="url(#clip0_4288_19100)">
<path d="M85.1298 64.1068C72.0389 64.3646 38.971 65 31 65C21 65 15.5 74.5 15.5 74.5C15.5 74.5 11.8542 76.4563 10.5 74.5C10.5 74.5 6.5 73.5 6.5 58.5V31L-2.8988 7.69099C-4.37122 4.03938 -1.64513 0.0676923 2.29169 0.128886L85.0812 1.41577C88.0875 1.4625 90.5 3.91283 90.5 6.91943V58.6057C90.5 61.6024 88.1259 64.0478 85.1298 64.1068Z" fill="#FFCF54"/>
</g>
<path d="M0 33C0 21.9543 8.95431 13 20 13H136C147.046 13 156 21.9543 156 33V44C156 55.0457 147.046 64 136 64H20C8.9543 64 0 55.0457 0 44V33Z" fill="#FFCF54"/>
<path d="M30.38 31.6C31.7133 31.6 32.86 31.8733 33.82 32.42C34.7933 32.9533 35.54 33.7267 36.06 34.74C36.58 35.7533 36.84 36.9733 36.84 38.4C36.84 39.8267 36.58 41.0467 36.06 42.06C35.54 43.0733 34.7933 43.8533 33.82 44.4C32.86 44.9333 31.7133 45.2 30.38 45.2C29.0467 45.2 27.8933 44.9333 26.92 44.4C25.9467 43.8533 25.2 43.0733 24.68 42.06C24.16 41.0467 23.9 39.8267 23.9 38.4C23.9 36.9733 24.16 35.7533 24.68 34.74C25.2 33.7267 25.9467 32.9533 26.92 32.42C27.8933 31.8733 29.0467 31.6 30.38 31.6ZM30.38 34.3C29.74 34.3 29.2 34.4533 28.76 34.76C28.32 35.0667 27.9867 35.5267 27.76 36.14C27.5333 36.74 27.42 37.4933 27.42 38.4C27.42 39.2933 27.5333 40.0467 27.76 40.66C27.9867 41.2733 28.32 41.7333 28.76 42.04C29.2 42.3467 29.74 42.5 30.38 42.5C31.02 42.5 31.5533 42.3467 31.98 42.04C32.42 41.7333 32.7533 41.2733 32.98 40.66C33.2067 40.0467 33.32 39.2933 33.32 38.4C33.32 37.4933 33.2067 36.74 32.98 36.14C32.7533 35.5267 32.42 35.0667 31.98 34.76C31.5533 34.4533 31.02 34.3 30.38 34.3ZM38.527 45V35H41.567L41.747 38.44L41.367 38.06C41.5004 37.34 41.7337 36.74 42.067 36.26C42.4137 35.78 42.8404 35.42 43.347 35.18C43.867 34.9267 44.447 34.8 45.087 34.8C45.7804 34.8 46.3804 34.9333 46.887 35.2C47.407 35.4667 47.8137 35.86 48.107 36.38C48.4004 36.9 48.547 37.5533 48.547 38.34V45H45.147V39.24C45.147 38.5467 45.0137 38.0667 44.747 37.8C44.4804 37.5333 44.1404 37.4 43.727 37.4C43.407 37.4 43.107 37.48 42.827 37.64C42.547 37.7867 42.327 38.0267 42.167 38.36C42.007 38.6933 41.927 39.14 41.927 39.7V45H38.527ZM56.9494 45.2C56.296 45.2 55.716 45.0533 55.2094 44.76C54.716 44.4667 54.3094 44.0667 53.9894 43.56C53.6694 43.04 53.4627 42.4533 53.3694 41.8L53.6894 41.38L53.5094 45H50.5294V30.76H53.9294V38.14L53.6094 37.66C53.796 36.8333 54.176 36.1533 54.7494 35.62C55.3227 35.0733 56.096 34.8 57.0694 34.8C57.8427 34.8 58.5294 35.0067 59.1294 35.42C59.7427 35.8333 60.216 36.4333 60.5494 37.22C60.896 37.9933 61.0694 38.9333 61.0694 40.04C61.0694 41.12 60.896 42.0467 60.5494 42.82C60.2027 43.5933 59.7227 44.1867 59.1094 44.6C58.496 45 57.776 45.2 56.9494 45.2ZM55.7694 42.7C56.356 42.7 56.816 42.4867 57.1494 42.06C57.4827 41.62 57.6494 40.9333 57.6494 40C57.6494 39.0667 57.4827 38.3867 57.1494 37.96C56.816 37.52 56.356 37.3 55.7694 37.3C55.3827 37.3 55.0494 37.4133 54.7694 37.64C54.5027 37.8533 54.296 38.16 54.1494 38.56C54.0027 38.96 53.9294 39.4467 53.9294 40.02C53.9294 40.5933 54.0027 41.08 54.1494 41.48C54.296 41.88 54.5094 42.1867 54.7894 42.4C55.0694 42.6 55.396 42.7 55.7694 42.7ZM67.4284 34.8C68.4818 34.8 69.4018 35.0067 70.1884 35.42C70.9884 35.82 71.6084 36.4133 72.0484 37.2C72.5018 37.9733 72.7284 38.9067 72.7284 40C72.7284 41.0933 72.5018 42.0333 72.0484 42.82C71.6084 43.5933 70.9884 44.1867 70.1884 44.6C69.4018 45 68.4818 45.2 67.4284 45.2C66.4018 45.2 65.4884 45 64.6884 44.6C63.8884 44.1867 63.2618 43.5933 62.8084 42.82C62.3684 42.0333 62.1484 41.0933 62.1484 40C62.1484 38.9067 62.3684 37.9733 62.8084 37.2C63.2618 36.4133 63.8884 35.82 64.6884 35.42C65.4884 35.0067 66.4018 34.8 67.4284 34.8ZM67.4284 37.22C67.0418 37.22 66.7084 37.3133 66.4284 37.5C66.1484 37.6867 65.9351 37.9867 65.7884 38.4C65.6418 38.8133 65.5684 39.3467 65.5684 40C65.5684 40.6533 65.6418 41.1867 65.7884 41.6C65.9351 42 66.1484 42.3 66.4284 42.5C66.7084 42.6867 67.0418 42.78 67.4284 42.78C67.8284 42.78 68.1684 42.6867 68.4484 42.5C68.7284 42.3 68.9418 42 69.0884 41.6C69.2351 41.1867 69.3084 40.6533 69.3084 40C69.3084 39.3467 69.2351 38.8133 69.0884 38.4C68.9418 37.9867 68.7284 37.6867 68.4484 37.5C68.1684 37.3133 67.8284 37.22 67.4284 37.22ZM79.7234 38.66C79.7234 38.1933 79.5901 37.8267 79.3234 37.56C79.0701 37.28 78.7234 37.14 78.2834 37.14C77.8434 37.14 77.4634 37.2533 77.1434 37.48C76.8368 37.6933 76.6234 38.08 76.5034 38.64L73.6234 37.96C73.8101 37 74.3034 36.2333 75.1034 35.66C75.9034 35.0867 77.0301 34.8 78.4834 34.8C79.4568 34.8 80.2834 34.9467 80.9634 35.24C81.6568 35.52 82.1834 35.9467 82.5434 36.52C82.9168 37.08 83.1034 37.7733 83.1034 38.6V42.26C83.1034 42.78 83.3368 43.04 83.8034 43.04C84.0434 43.04 84.2368 43.0133 84.3834 42.96L84.1834 44.9C83.7834 45.0867 83.2968 45.18 82.7234 45.18C82.2034 45.18 81.7434 45.1 81.3434 44.94C80.9434 44.7667 80.6301 44.5133 80.4034 44.18C80.1768 43.8333 80.0634 43.4 80.0634 42.88V42.76L80.4434 42.62C80.4434 43.1933 80.2701 43.6733 79.9234 44.06C79.5901 44.4467 79.1501 44.7333 78.6034 44.92C78.0701 45.1067 77.5101 45.2 76.9234 45.2C76.2434 45.2 75.6501 45.0933 75.1434 44.88C74.6368 44.6667 74.2434 44.36 73.9634 43.96C73.6968 43.5467 73.5634 43.04 73.5634 42.44C73.5634 41.72 73.7768 41.1267 74.2034 40.66C74.6434 40.18 75.3301 39.8467 76.2634 39.66L80.0434 38.88L80.0234 40.68L78.1034 41.08C77.7034 41.16 77.4034 41.28 77.2034 41.44C77.0168 41.5867 76.9234 41.8133 76.9234 42.12C76.9234 42.4133 77.0301 42.6333 77.2434 42.78C77.4568 42.9267 77.7101 43 78.0034 43C78.2301 43 78.4434 42.9667 78.6434 42.9C78.8568 42.8333 79.0434 42.7333 79.2034 42.6C79.3634 42.4533 79.4901 42.2733 79.5834 42.06C79.6768 41.8467 79.7234 41.5933 79.7234 41.3V38.66ZM85.3255 45V35H88.3255L88.4655 37.16C88.7188 36.4133 89.0921 35.8333 89.5855 35.42C90.0921 35.0067 90.7321 34.8 91.5055 34.8C91.7588 34.8 91.9721 34.82 92.1455 34.86C92.3321 34.9 92.4788 34.9533 92.5855 35.02L92.2455 37.82C92.1121 37.7667 91.9388 37.7267 91.7255 37.7C91.5255 37.66 91.2788 37.64 90.9855 37.64C90.5855 37.64 90.2121 37.7267 89.8655 37.9C89.5188 38.0733 89.2388 38.3333 89.0255 38.68C88.8255 39.0133 88.7255 39.44 88.7255 39.96V45H85.3255ZM97.082 45.2C96.2554 45.2 95.5287 45 94.902 44.6C94.2887 44.1867 93.8087 43.5933 93.462 42.82C93.1287 42.0467 92.962 41.12 92.962 40.04C92.962 38.92 93.1354 37.9733 93.482 37.2C93.842 36.4267 94.3354 35.8333 94.962 35.42C95.602 35.0067 96.3354 34.8 97.162 34.8C98.0687 34.8 98.7954 35.08 99.342 35.64C99.902 36.1867 100.262 36.8867 100.422 37.74L100.102 38.16V30.76H103.502V45H100.462L100.242 41.6L100.642 41.9C100.562 42.5667 100.355 43.1467 100.022 43.64C99.702 44.1333 99.2887 44.52 98.782 44.8C98.2887 45.0667 97.722 45.2 97.082 45.2ZM98.262 42.7C98.6487 42.7 98.9754 42.6 99.242 42.4C99.522 42.1867 99.7354 41.8733 99.882 41.46C100.029 41.0467 100.102 40.54 100.102 39.94C100.102 39.38 100.029 38.9067 99.882 38.52C99.7487 38.12 99.542 37.82 99.262 37.62C98.9954 37.4067 98.6687 37.3 98.282 37.3C97.6954 37.3 97.2287 37.52 96.882 37.96C96.5487 38.3867 96.382 39.0667 96.382 40C96.382 40.9333 96.5487 41.62 96.882 42.06C97.2154 42.4867 97.6754 42.7 98.262 42.7ZM107.241 33.84C106.548 33.84 106.041 33.7133 105.721 33.46C105.414 33.1933 105.261 32.78 105.261 32.22C105.261 31.6467 105.414 31.2333 105.721 30.98C106.041 30.7133 106.548 30.58 107.241 30.58C107.921 30.58 108.421 30.7133 108.741 30.98C109.061 31.2333 109.221 31.6467 109.221 32.22C109.221 32.78 109.061 33.1933 108.741 33.46C108.421 33.7133 107.921 33.84 107.241 33.84ZM108.941 35V45H105.541V35H108.941ZM110.961 45V35H114.001L114.181 38.44L113.801 38.06C113.935 37.34 114.168 36.74 114.501 36.26C114.848 35.78 115.275 35.42 115.781 35.18C116.301 34.9267 116.881 34.8 117.521 34.8C118.215 34.8 118.815 34.9333 119.321 35.2C119.841 35.4667 120.248 35.86 120.541 36.38C120.835 36.9 120.981 37.5533 120.981 38.34V45H117.581V39.24C117.581 38.5467 117.448 38.0667 117.181 37.8C116.915 37.5333 116.575 37.4 116.161 37.4C115.841 37.4 115.541 37.48 115.261 37.64C114.981 37.7867 114.761 38.0267 114.601 38.36C114.441 38.6933 114.361 39.14 114.361 39.7V45H110.961ZM132.644 32.32L132.924 34.6C132.844 34.5733 132.764 34.56 132.684 34.56C132.604 34.5467 132.524 34.54 132.444 34.54C131.857 34.54 131.417 34.6867 131.124 34.98C130.844 35.26 130.704 35.6133 130.704 36.04L129.504 35.6C129.504 35.0533 129.604 34.5267 129.804 34.02C130.004 33.5133 130.31 33.1 130.724 32.78C131.15 32.46 131.684 32.3 132.324 32.3C132.364 32.3 132.41 32.3 132.464 32.3C132.53 32.3 132.59 32.3067 132.644 32.32ZM129.204 42.78C130.364 42.78 131.25 43.0267 131.864 43.52C132.49 44 132.804 44.6933 132.804 45.6C132.804 46.4267 132.577 47.1133 132.124 47.66C131.67 48.2067 131.03 48.6133 130.204 48.88C129.39 49.16 128.424 49.3 127.304 49.3C125.49 49.3 124.184 49.0733 123.384 48.62C122.584 48.1667 122.184 47.5533 122.184 46.78C122.184 46.22 122.41 45.7667 122.864 45.42C123.317 45.0733 124.07 44.8867 125.124 44.86L125.044 45.18C124.23 45.0733 123.624 44.8333 123.224 44.46C122.824 44.0867 122.624 43.58 122.624 42.94C122.624 42.3 122.877 41.78 123.384 41.38C123.89 40.98 124.564 40.76 125.404 40.72L126.644 41.3H126.324C125.804 41.3267 125.437 41.4133 125.224 41.56C125.01 41.7067 124.904 41.8867 124.904 42.1C124.904 42.3267 124.997 42.5 125.184 42.62C125.37 42.7267 125.65 42.78 126.024 42.78H129.204ZM127.324 47.1C127.964 47.1 128.49 47.0533 128.904 46.96C129.33 46.88 129.65 46.76 129.864 46.6C130.077 46.4533 130.184 46.28 130.184 46.08C130.184 45.88 130.11 45.72 129.964 45.6C129.817 45.4933 129.55 45.44 129.164 45.44H125.584C125.33 45.44 125.124 45.5067 124.964 45.64C124.817 45.7733 124.744 45.94 124.744 46.14C124.744 46.4467 124.97 46.68 125.424 46.84C125.877 47.0133 126.51 47.1 127.324 47.1ZM127.444 34.8C128.457 34.8 129.324 34.9333 130.044 35.2C130.764 35.4667 131.31 35.8533 131.684 36.36C132.07 36.8533 132.264 37.4667 132.264 38.2C132.264 38.92 132.07 39.5333 131.684 40.04C131.31 40.5467 130.764 40.9333 130.044 41.2C129.324 41.4533 128.457 41.58 127.444 41.58C125.857 41.58 124.65 41.2867 123.824 40.7C123.01 40.1133 122.604 39.28 122.604 38.2C122.604 37.4667 122.79 36.8533 123.164 36.36C123.55 35.8533 124.104 35.4667 124.824 35.2C125.544 34.9333 126.417 34.8 127.444 34.8ZM127.444 36.74C127.004 36.74 126.644 36.8667 126.364 37.12C126.097 37.3733 125.964 37.7333 125.964 38.2C125.964 38.6533 126.097 39.0067 126.364 39.26C126.644 39.5133 127.004 39.64 127.444 39.64C127.87 39.64 128.224 39.5133 128.504 39.26C128.784 39.0067 128.924 38.6533 128.924 38.2C128.924 37.7333 128.784 37.3733 128.504 37.12C128.224 36.8667 127.87 36.74 127.444 36.74Z" fill="#494949"/>
<defs>
<clipPath id="clip0_4288_19100">
<rect width="165" height="50" fill="white" transform="translate(6 34)"/>
</clipPath>
</defs>
</svg>
