<svg width="171" height="84" viewBox="0 0 171 84" fill="none" xmlns="http://www.w3.org/2000/svg">
<g clip-path="url(#clip0_4288_19080)">
<path d="M85.1298 64.1068C72.0389 64.3646 38.971 65 31 65C21 65 15.5 74.5 15.5 74.5C15.5 74.5 11.8542 76.4563 10.5 74.5C10.5 74.5 6.5 73.5 6.5 58.5V31L-2.8988 7.69099C-4.37122 4.03938 -1.64513 0.0676923 2.29169 0.128886L85.0812 1.41577C88.0875 1.4625 90.5 3.91283 90.5 6.91943V58.6057C90.5 61.6024 88.1259 64.0478 85.1298 64.1068Z" fill="#FFCF54"/>
</g>
<path d="M0 33C0 21.9543 8.95431 13 20 13H136C147.046 13 156 21.9543 156 33V44C156 55.0457 147.046 64 136 64H20C8.9543 64 0 55.0457 0 44V33Z" fill="#FFCF54"/>
<path d="M37.12 31.6C38.3467 31.6 39.4267 31.7933 40.36 32.18C41.3067 32.5533 42.1267 33.1067 42.82 33.84L41.16 36.06C40.5867 35.46 39.9667 35.0133 39.3 34.72C38.6467 34.4133 37.9 34.26 37.06 34.26C36.5667 34.26 36.1667 34.3133 35.86 34.42C35.5533 34.5267 35.3333 34.6733 35.2 34.86C35.0667 35.0467 35 35.26 35 35.5C35 35.78 35.1267 36.02 35.38 36.22C35.6467 36.4067 36.0733 36.5667 36.66 36.7L38.88 37.2C40.2 37.5067 41.1667 37.9533 41.78 38.54C42.3933 39.1267 42.7 39.9067 42.7 40.88C42.7 41.8133 42.46 42.6067 41.98 43.26C41.5 43.9 40.84 44.3867 40 44.72C39.16 45.04 38.2 45.2 37.12 45.2C36.24 45.2 35.4 45.1067 34.6 44.92C33.8 44.72 33.08 44.44 32.44 44.08C31.8 43.72 31.26 43.3067 30.82 42.84L32.48 40.54C32.8133 40.9267 33.22 41.2733 33.7 41.58C34.1933 41.8733 34.7267 42.1067 35.3 42.28C35.8867 42.4533 36.48 42.54 37.08 42.54C37.5467 42.54 37.9333 42.4933 38.24 42.4C38.56 42.3067 38.7933 42.1667 38.94 41.98C39.0867 41.7933 39.16 41.5733 39.16 41.32C39.16 41.04 39.06 40.8067 38.86 40.62C38.66 40.42 38.28 40.2533 37.72 40.12L35.28 39.58C34.5333 39.4067 33.8667 39.18 33.28 38.9C32.7067 38.6067 32.2533 38.22 31.92 37.74C31.5867 37.2467 31.42 36.6333 31.42 35.9C31.42 35.0733 31.6467 34.34 32.1 33.7C32.5533 33.0467 33.2067 32.5333 34.06 32.16C34.9133 31.7867 35.9333 31.6 37.12 31.6ZM48.9506 34.8C49.964 34.8 50.804 34.9467 51.4706 35.24C52.1506 35.52 52.6773 35.9 53.0506 36.38C53.4373 36.8467 53.6773 37.3533 53.7706 37.9L50.6306 38.94C50.5373 38.3667 50.364 37.94 50.1106 37.66C49.8706 37.3667 49.5173 37.22 49.0506 37.22C48.624 37.22 48.264 37.32 47.9706 37.52C47.6906 37.7067 47.4773 38.0133 47.3306 38.44C47.184 38.8533 47.1106 39.3867 47.1106 40.04C47.1106 40.6933 47.1906 41.2267 47.3506 41.64C47.5106 42.04 47.7373 42.3333 48.0306 42.52C48.324 42.6933 48.6706 42.78 49.0706 42.78C49.404 42.78 49.6773 42.72 49.8906 42.6C50.1173 42.4667 50.304 42.28 50.4506 42.04C50.5973 41.8 50.6906 41.5067 50.7306 41.16L53.7906 42.14C53.6973 42.7267 53.444 43.2533 53.0306 43.72C52.6306 44.1733 52.0973 44.5333 51.4306 44.8C50.764 45.0667 49.984 45.2 49.0906 45.2C47.9973 45.2 47.044 45 46.2306 44.6C45.4173 44.1867 44.7906 43.5933 44.3506 42.82C43.9106 42.0333 43.6906 41.0933 43.6906 40C43.6906 38.9067 43.9106 37.9733 44.3506 37.2C44.7906 36.4133 45.404 35.82 46.1906 35.42C46.9906 35.0067 47.9106 34.8 48.9506 34.8ZM55.1583 45V35H58.1583L58.2983 37.16C58.5516 36.4133 58.9249 35.8333 59.4183 35.42C59.9249 35.0067 60.5649 34.8 61.3383 34.8C61.5916 34.8 61.8049 34.82 61.9783 34.86C62.1649 34.9 62.3116 34.9533 62.4183 35.02L62.0783 37.82C61.9449 37.7667 61.7716 37.7267 61.5583 37.7C61.3583 37.66 61.1116 37.64 60.8183 37.64C60.4183 37.64 60.0449 37.7267 59.6983 37.9C59.3516 38.0733 59.0716 38.3333 58.8583 38.68C58.6583 39.0133 58.5583 39.44 58.5583 39.96V45H55.1583ZM68.1148 45.2C67.0082 45.2 66.0482 44.9933 65.2348 44.58C64.4348 44.1667 63.8148 43.5733 63.3748 42.8C62.9348 42.0267 62.7148 41.0933 62.7148 40C62.7148 38.9067 62.9348 37.9733 63.3748 37.2C63.8148 36.4267 64.4282 35.8333 65.2148 35.42C66.0148 35.0067 66.9282 34.8 67.9548 34.8C69.0082 34.8 69.9015 35.0067 70.6348 35.42C71.3815 35.82 71.9482 36.38 72.3348 37.1C72.7215 37.8067 72.9148 38.62 72.9148 39.54C72.9148 39.78 72.9082 40.02 72.8948 40.26C72.8815 40.5 72.8615 40.7 72.8348 40.86H64.9148V39.04H71.3348L69.7148 39.66C69.7148 38.86 69.5682 38.2467 69.2748 37.82C68.9948 37.3933 68.5548 37.18 67.9548 37.18C67.5282 37.18 67.1615 37.28 66.8548 37.48C66.5615 37.68 66.3348 37.9933 66.1748 38.42C66.0282 38.8467 65.9548 39.3933 65.9548 40.06C65.9548 40.7133 66.0415 41.2467 66.2148 41.66C66.3882 42.06 66.6348 42.3533 66.9548 42.54C67.2748 42.7133 67.6615 42.8 68.1148 42.8C68.6215 42.8 69.0215 42.7 69.3148 42.5C69.6215 42.3 69.8482 42.02 69.9948 41.66L72.7148 42.56C72.5282 43.1333 72.2015 43.62 71.7348 44.02C71.2815 44.4067 70.7348 44.7 70.0948 44.9C69.4682 45.1 68.8082 45.2 68.1148 45.2ZM79.2969 45.2C78.1902 45.2 77.2302 44.9933 76.4169 44.58C75.6169 44.1667 74.9969 43.5733 74.5569 42.8C74.1169 42.0267 73.8969 41.0933 73.8969 40C73.8969 38.9067 74.1169 37.9733 74.5569 37.2C74.9969 36.4267 75.6102 35.8333 76.3969 35.42C77.1969 35.0067 78.1102 34.8 79.1369 34.8C80.1902 34.8 81.0835 35.0067 81.8169 35.42C82.5635 35.82 83.1302 36.38 83.5169 37.1C83.9035 37.8067 84.0969 38.62 84.0969 39.54C84.0969 39.78 84.0902 40.02 84.0769 40.26C84.0635 40.5 84.0435 40.7 84.0169 40.86H76.0969V39.04H82.5169L80.8969 39.66C80.8969 38.86 80.7502 38.2467 80.4569 37.82C80.1769 37.3933 79.7369 37.18 79.1369 37.18C78.7102 37.18 78.3435 37.28 78.0369 37.48C77.7435 37.68 77.5169 37.9933 77.3569 38.42C77.2102 38.8467 77.1369 39.3933 77.1369 40.06C77.1369 40.7133 77.2235 41.2467 77.3969 41.66C77.5702 42.06 77.8169 42.3533 78.1369 42.54C78.4569 42.7133 78.8435 42.8 79.2969 42.8C79.8035 42.8 80.2035 42.7 80.4969 42.5C80.8035 42.3 81.0302 42.02 81.1769 41.66L83.8969 42.56C83.7102 43.1333 83.3835 43.62 82.9169 44.02C82.4635 44.4067 81.9169 44.7 81.2769 44.9C80.6502 45.1 79.9902 45.2 79.2969 45.2ZM85.5989 45V35H88.6389L88.8189 38.44L88.4389 38.06C88.5722 37.34 88.8056 36.74 89.1389 36.26C89.4856 35.78 89.9122 35.42 90.4189 35.18C90.9389 34.9267 91.5189 34.8 92.1589 34.8C92.8522 34.8 93.4522 34.9333 93.9589 35.2C94.4789 35.4667 94.8856 35.86 95.1789 36.38C95.4722 36.9 95.6189 37.5533 95.6189 38.34V45H92.2189V39.24C92.2189 38.5467 92.0856 38.0667 91.8189 37.8C91.5522 37.5333 91.2122 37.4 90.7989 37.4C90.4789 37.4 90.1789 37.48 89.8989 37.64C89.6189 37.7867 89.3989 38.0267 89.2389 38.36C89.0789 38.6933 88.9989 39.14 88.9989 39.7V45H85.5989ZM99.3012 33.84C98.6079 33.84 98.1012 33.7133 97.7812 33.46C97.4746 33.1933 97.3212 32.78 97.3212 32.22C97.3212 31.6467 97.4746 31.2333 97.7812 30.98C98.1012 30.7133 98.6079 30.58 99.3012 30.58C99.9812 30.58 100.481 30.7133 100.801 30.98C101.121 31.2333 101.281 31.6467 101.281 32.22C101.281 32.78 101.121 33.1933 100.801 33.46C100.481 33.7133 99.9812 33.84 99.3012 33.84ZM101.001 35V45H97.6012V35H101.001ZM103.022 45V35H106.062L106.242 38.44L105.862 38.06C105.995 37.34 106.228 36.74 106.562 36.26C106.908 35.78 107.335 35.42 107.842 35.18C108.362 34.9267 108.942 34.8 109.582 34.8C110.275 34.8 110.875 34.9333 111.382 35.2C111.902 35.4667 112.308 35.86 112.602 36.38C112.895 36.9 113.042 37.5533 113.042 38.34V45H109.642V39.24C109.642 38.5467 109.508 38.0667 109.242 37.8C108.975 37.5333 108.635 37.4 108.222 37.4C107.902 37.4 107.602 37.48 107.322 37.64C107.042 37.7867 106.822 38.0267 106.662 38.36C106.502 38.6933 106.422 39.14 106.422 39.7V45H103.022ZM124.704 32.32L124.984 34.6C124.904 34.5733 124.824 34.56 124.744 34.56C124.664 34.5467 124.584 34.54 124.504 34.54C123.917 34.54 123.477 34.6867 123.184 34.98C122.904 35.26 122.764 35.6133 122.764 36.04L121.564 35.6C121.564 35.0533 121.664 34.5267 121.864 34.02C122.064 33.5133 122.371 33.1 122.784 32.78C123.211 32.46 123.744 32.3 124.384 32.3C124.424 32.3 124.471 32.3 124.524 32.3C124.591 32.3 124.651 32.3067 124.704 32.32ZM121.264 42.78C122.424 42.78 123.311 43.0267 123.924 43.52C124.551 44 124.864 44.6933 124.864 45.6C124.864 46.4267 124.637 47.1133 124.184 47.66C123.731 48.2067 123.091 48.6133 122.264 48.88C121.451 49.16 120.484 49.3 119.364 49.3C117.551 49.3 116.244 49.0733 115.444 48.62C114.644 48.1667 114.244 47.5533 114.244 46.78C114.244 46.22 114.471 45.7667 114.924 45.42C115.377 45.0733 116.131 44.8867 117.184 44.86L117.104 45.18C116.291 45.0733 115.684 44.8333 115.284 44.46C114.884 44.0867 114.684 43.58 114.684 42.94C114.684 42.3 114.937 41.78 115.444 41.38C115.951 40.98 116.624 40.76 117.464 40.72L118.704 41.3H118.384C117.864 41.3267 117.497 41.4133 117.284 41.56C117.071 41.7067 116.964 41.8867 116.964 42.1C116.964 42.3267 117.057 42.5 117.244 42.62C117.431 42.7267 117.711 42.78 118.084 42.78H121.264ZM119.384 47.1C120.024 47.1 120.551 47.0533 120.964 46.96C121.391 46.88 121.711 46.76 121.924 46.6C122.137 46.4533 122.244 46.28 122.244 46.08C122.244 45.88 122.171 45.72 122.024 45.6C121.877 45.4933 121.611 45.44 121.224 45.44H117.644C117.391 45.44 117.184 45.5067 117.024 45.64C116.877 45.7733 116.804 45.94 116.804 46.14C116.804 46.4467 117.031 46.68 117.484 46.84C117.937 47.0133 118.571 47.1 119.384 47.1ZM119.504 34.8C120.517 34.8 121.384 34.9333 122.104 35.2C122.824 35.4667 123.371 35.8533 123.744 36.36C124.131 36.8533 124.324 37.4667 124.324 38.2C124.324 38.92 124.131 39.5333 123.744 40.04C123.371 40.5467 122.824 40.9333 122.104 41.2C121.384 41.4533 120.517 41.58 119.504 41.58C117.917 41.58 116.711 41.2867 115.884 40.7C115.071 40.1133 114.664 39.28 114.664 38.2C114.664 37.4667 114.851 36.8533 115.224 36.36C115.611 35.8533 116.164 35.4667 116.884 35.2C117.604 34.9333 118.477 34.8 119.504 34.8ZM119.504 36.74C119.064 36.74 118.704 36.8667 118.424 37.12C118.157 37.3733 118.024 37.7333 118.024 38.2C118.024 38.6533 118.157 39.0067 118.424 39.26C118.704 39.5133 119.064 39.64 119.504 39.64C119.931 39.64 120.284 39.5133 120.564 39.26C120.844 39.0067 120.984 38.6533 120.984 38.2C120.984 37.7333 120.844 37.3733 120.564 37.12C120.284 36.8667 119.931 36.74 119.504 36.74Z" fill="#494949"/>
<defs>
<clipPath id="clip0_4288_19080">
<rect width="165" height="50" fill="white" transform="translate(6 34)"/>
</clipPath>
</defs>
</svg>
