<svg width="171" height="84" viewBox="0 0 171 84" fill="none" xmlns="http://www.w3.org/2000/svg">
<g clip-path="url(#clip0_4288_19090)">
<path d="M85.1298 64.1068C72.0389 64.3646 38.971 65 31 65C21 65 15.5 74.5 15.5 74.5C15.5 74.5 11.8542 76.4563 10.5 74.5C10.5 74.5 6.5 73.5 6.5 58.5V31L-2.8988 7.69099C-4.37122 4.03938 -1.64513 0.0676923 2.29169 0.128886L85.0812 1.41577C88.0875 1.4625 90.5 3.91283 90.5 6.91943V58.6057C90.5 61.6024 88.1259 64.0478 85.1298 64.1068Z" fill="#FFCF54"/>
</g>
<path d="M0 33C0 21.9543 8.95431 13 20 13H136C147.046 13 156 21.9543 156 33V44C156 55.0457 147.046 64 136 64H20C8.9543 64 0 55.0457 0 44V33Z" fill="#FFCF54"/>
<path d="M37.4 31.8V45H33.96V31.8H37.4ZM39.6481 45V35H42.6881L42.8681 38.44L42.4881 38.06C42.6215 37.34 42.8548 36.74 43.1881 36.26C43.5348 35.78 43.9615 35.42 44.4681 35.18C44.9881 34.9267 45.5681 34.8 46.2081 34.8C46.9015 34.8 47.5015 34.9333 48.0081 35.2C48.5281 35.4667 48.9348 35.86 49.2281 36.38C49.5215 36.9 49.6681 37.5533 49.6681 38.34V45H46.2681V39.24C46.2681 38.5467 46.1348 38.0667 45.8681 37.8C45.6015 37.5333 45.2615 37.4 44.8481 37.4C44.5281 37.4 44.2281 37.48 43.9481 37.64C43.6681 37.7867 43.4481 38.0267 43.2881 38.36C43.1281 38.6933 43.0481 39.14 43.0481 39.7V45H39.6481ZM55.7719 31.82V41.44C55.7719 41.92 55.8852 42.2667 56.1119 42.48C56.3519 42.68 56.6785 42.78 57.0919 42.78C57.4119 42.78 57.6852 42.7467 57.9119 42.68C58.1519 42.6 58.3652 42.4867 58.5519 42.34L58.9119 44.44C58.5785 44.68 58.1585 44.8667 57.6519 45C57.1452 45.1333 56.6252 45.2 56.0919 45.2C55.3319 45.2 54.6719 45.0933 54.1119 44.88C53.5652 44.6667 53.1385 44.3267 52.8319 43.86C52.5385 43.3933 52.3852 42.7733 52.3719 42V32.76L55.7719 31.82ZM58.7519 35V37.42H50.6519V35H58.7519ZM64.8023 45.2C63.6957 45.2 62.7357 44.9933 61.9223 44.58C61.1223 44.1667 60.5023 43.5733 60.0623 42.8C59.6223 42.0267 59.4023 41.0933 59.4023 40C59.4023 38.9067 59.6223 37.9733 60.0623 37.2C60.5023 36.4267 61.1157 35.8333 61.9023 35.42C62.7023 35.0067 63.6157 34.8 64.6423 34.8C65.6957 34.8 66.589 35.0067 67.3223 35.42C68.069 35.82 68.6357 36.38 69.0223 37.1C69.409 37.8067 69.6023 38.62 69.6023 39.54C69.6023 39.78 69.5957 40.02 69.5823 40.26C69.569 40.5 69.549 40.7 69.5223 40.86H61.6023V39.04H68.0223L66.4023 39.66C66.4023 38.86 66.2557 38.2467 65.9623 37.82C65.6823 37.3933 65.2423 37.18 64.6423 37.18C64.2157 37.18 63.849 37.28 63.5423 37.48C63.249 37.68 63.0223 37.9933 62.8623 38.42C62.7157 38.8467 62.6423 39.3933 62.6423 40.06C62.6423 40.7133 62.729 41.2467 62.9023 41.66C63.0757 42.06 63.3223 42.3533 63.6423 42.54C63.9623 42.7133 64.349 42.8 64.8023 42.8C65.309 42.8 65.709 42.7 66.0023 42.5C66.309 42.3 66.5357 42.02 66.6823 41.66L69.4023 42.56C69.2157 43.1333 68.889 43.62 68.4223 44.02C67.969 44.4067 67.4223 44.7 66.7823 44.9C66.1557 45.1 65.4957 45.2 64.8023 45.2ZM71.1044 45V35H74.1044L74.2444 37.16C74.4977 36.4133 74.871 35.8333 75.3644 35.42C75.871 35.0067 76.511 34.8 77.2844 34.8C77.5377 34.8 77.751 34.82 77.9244 34.86C78.111 34.9 78.2577 34.9533 78.3644 35.02L78.0244 37.82C77.891 37.7667 77.7177 37.7267 77.5044 37.7C77.3044 37.66 77.0577 37.64 76.7644 37.64C76.3644 37.64 75.991 37.7267 75.6444 37.9C75.2977 38.0733 75.0177 38.3333 74.8044 38.68C74.6044 39.0133 74.5044 39.44 74.5044 39.96V45H71.1044ZM85.7981 35H89.3181L85.7181 45H81.6581L78.0581 35H81.6381L83.6981 42.62L85.7981 35ZM91.8091 33.84C91.1157 33.84 90.6091 33.7133 90.2891 33.46C89.9824 33.1933 89.8291 32.78 89.8291 32.22C89.8291 31.6467 89.9824 31.2333 90.2891 30.98C90.6091 30.7133 91.1157 30.58 91.8091 30.58C92.4891 30.58 92.9891 30.7133 93.3091 30.98C93.6291 31.2333 93.7891 31.6467 93.7891 32.22C93.7891 32.78 93.6291 33.1933 93.3091 33.46C92.9891 33.7133 92.4891 33.84 91.8091 33.84ZM93.5091 35V45H90.1091V35H93.5091ZM100.409 45.2C99.3027 45.2 98.3427 44.9933 97.5294 44.58C96.7294 44.1667 96.1094 43.5733 95.6694 42.8C95.2294 42.0267 95.0094 41.0933 95.0094 40C95.0094 38.9067 95.2294 37.9733 95.6694 37.2C96.1094 36.4267 96.7227 35.8333 97.5094 35.42C98.3094 35.0067 99.2227 34.8 100.249 34.8C101.303 34.8 102.196 35.0067 102.929 35.42C103.676 35.82 104.243 36.38 104.629 37.1C105.016 37.8067 105.209 38.62 105.209 39.54C105.209 39.78 105.203 40.02 105.189 40.26C105.176 40.5 105.156 40.7 105.129 40.86H97.2094V39.04H103.629L102.009 39.66C102.009 38.86 101.863 38.2467 101.569 37.82C101.289 37.3933 100.849 37.18 100.249 37.18C99.8227 37.18 99.456 37.28 99.1494 37.48C98.856 37.68 98.6294 37.9933 98.4694 38.42C98.3227 38.8467 98.2494 39.3933 98.2494 40.06C98.2494 40.7133 98.336 41.2467 98.5094 41.66C98.6827 42.06 98.9294 42.3533 99.2494 42.54C99.5694 42.7133 99.956 42.8 100.409 42.8C100.916 42.8 101.316 42.7 101.609 42.5C101.916 42.3 102.143 42.02 102.289 41.66L105.009 42.56C104.823 43.1333 104.496 43.62 104.029 44.02C103.576 44.4067 103.029 44.7 102.389 44.9C101.763 45.1 101.103 45.2 100.409 45.2ZM119.538 35H123.098L120.078 45H115.998L114.178 38.86L112.418 45H108.358L105.318 35H108.898L110.578 42.38L112.538 35H115.898L117.838 42.38L119.538 35Z" fill="#494949"/>
<defs>
<clipPath id="clip0_4288_19090">
<rect width="165" height="50" fill="white" transform="translate(6 34)"/>
</clipPath>
</defs>
</svg>
