<svg width="171" height="84" viewBox="0 0 171 84" fill="none" xmlns="http://www.w3.org/2000/svg">
<g clip-path="url(#clip0_4288_19085)">
<path d="M85.1298 64.1068C72.0389 64.3646 38.971 65 31 65C21 65 15.5 74.5 15.5 74.5C15.5 74.5 11.8542 76.4563 10.5 74.5C10.5 74.5 6.5 73.5 6.5 58.5V31L-2.8988 7.69099C-4.37122 4.03938 -1.64513 0.0676923 2.29169 0.128886L85.0812 1.41577C88.0875 1.4625 90.5 3.91283 90.5 6.91943V58.6057C90.5 61.6024 88.1259 64.0478 85.1298 64.1068Z" fill="#FFCF54"/>
</g>
<path d="M0 33C0 21.9543 8.95431 13 20 13H136C147.046 13 156 21.9543 156 33V44C156 55.0457 147.046 64 136 64H20C8.9543 64 0 55.0457 0 44V33Z" fill="#FFCF54"/>
<path d="M70.06 31.8V34.46H65.76V45H62.32V34.46H58V31.8H70.06ZM74.4109 45.2C73.3043 45.2 72.3443 44.9933 71.5309 44.58C70.7309 44.1667 70.1109 43.5733 69.6709 42.8C69.2309 42.0267 69.0109 41.0933 69.0109 40C69.0109 38.9067 69.2309 37.9733 69.6709 37.2C70.1109 36.4267 70.7243 35.8333 71.5109 35.42C72.3109 35.0067 73.2243 34.8 74.2509 34.8C75.3043 34.8 76.1976 35.0067 76.9309 35.42C77.6776 35.82 78.2443 36.38 78.6309 37.1C79.0176 37.8067 79.2109 38.62 79.2109 39.54C79.2109 39.78 79.2043 40.02 79.1909 40.26C79.1776 40.5 79.1576 40.7 79.1309 40.86H71.2109V39.04H77.6309L76.0109 39.66C76.0109 38.86 75.8643 38.2467 75.5709 37.82C75.2909 37.3933 74.8509 37.18 74.2509 37.18C73.8243 37.18 73.4576 37.28 73.1509 37.48C72.8576 37.68 72.6309 37.9933 72.4709 38.42C72.3243 38.8467 72.2509 39.3933 72.2509 40.06C72.2509 40.7133 72.3376 41.2467 72.5109 41.66C72.6843 42.06 72.9309 42.3533 73.2509 42.54C73.5709 42.7133 73.9576 42.8 74.4109 42.8C74.9176 42.8 75.3176 42.7 75.6109 42.5C75.9176 42.3 76.1443 42.02 76.2909 41.66L79.0109 42.56C78.8243 43.1333 78.4976 43.62 78.0309 44.02C77.5776 44.4067 77.0309 44.7 76.3909 44.9C75.7643 45.1 75.1043 45.2 74.4109 45.2ZM84.913 45.2C83.913 45.2 82.9796 45.04 82.113 44.72C81.2596 44.3867 80.553 43.9133 79.993 43.3L81.593 41.42C81.9263 41.8467 82.3663 42.2067 82.913 42.5C83.473 42.78 84.093 42.92 84.773 42.92C85.1863 42.92 85.5263 42.86 85.793 42.74C86.0596 42.62 86.193 42.4333 86.193 42.18C86.193 41.9933 86.1263 41.8467 85.993 41.74C85.8596 41.62 85.593 41.52 85.193 41.44L83.793 41.16C82.5396 40.9067 81.6463 40.5333 81.113 40.04C80.593 39.5333 80.333 38.8733 80.333 38.06C80.333 37.5133 80.4996 36.9933 80.833 36.5C81.1663 35.9933 81.6796 35.5867 82.373 35.28C83.0663 34.96 83.953 34.8 85.033 34.8C86.0463 34.8 86.9396 34.9467 87.713 35.24C88.4863 35.5333 89.0996 35.96 89.553 36.52L87.933 38.36C87.613 37.96 87.1996 37.6467 86.693 37.42C86.1863 37.1933 85.6796 37.08 85.173 37.08C84.853 37.08 84.5796 37.1133 84.353 37.18C84.1396 37.2333 83.9796 37.3133 83.873 37.42C83.7663 37.5267 83.713 37.66 83.713 37.82C83.713 37.9933 83.793 38.1467 83.953 38.28C84.1263 38.4 84.4396 38.5067 84.893 38.6L86.713 38.96C87.7396 39.1467 88.4796 39.4867 88.933 39.98C89.3863 40.4733 89.613 41.0667 89.613 41.76C89.613 42.4133 89.4396 43 89.093 43.52C88.7463 44.04 88.2263 44.4533 87.533 44.76C86.8396 45.0533 85.9663 45.2 84.913 45.2ZM95.157 31.82V41.44C95.157 41.92 95.2704 42.2667 95.497 42.48C95.737 42.68 96.0637 42.78 96.477 42.78C96.797 42.78 97.0704 42.7467 97.297 42.68C97.537 42.6 97.7504 42.4867 97.937 42.34L98.297 44.44C97.9637 44.68 97.5437 44.8667 97.037 45C96.5304 45.1333 96.0104 45.2 95.477 45.2C94.717 45.2 94.057 45.0933 93.497 44.88C92.9504 44.6667 92.5237 44.3267 92.217 43.86C91.9237 43.3933 91.7704 42.7733 91.757 42V32.76L95.157 31.82ZM98.137 35V37.42H90.037V35H98.137Z" fill="#494949"/>
<defs>
<clipPath id="clip0_4288_19085">
<rect width="165" height="50" fill="white" transform="translate(6 34)"/>
</clipPath>
</defs>
</svg>
