<svg width="85" height="85" viewBox="0 0 85 85" fill="none" xmlns="http://www.w3.org/2000/svg">
<g clip-path="url(#clip0_4467_20318)">
<path d="M36.8039 45.5941C41.7007 40.6588 46.3091 35.9975 50.9416 31.3506C53.4741 28.8133 54.416 28.8181 56.8764 31.2833C59.1975 33.6092 59.1879 34.6424 56.7899 37.0499C51.0233 42.8309 45.2615 48.6071 39.4805 54.3737C37.3517 56.4978 36.3858 56.493 34.2762 54.3978C31.7196 51.8605 29.1583 49.328 26.645 46.7522C24.7565 44.8156 24.915 43.5902 27.2072 41.3124C29.3601 39.1739 30.4942 39.073 32.4501 40.9952C33.8725 42.3984 35.1988 43.8977 36.8039 45.5941Z" fill="#458744"/>
</g>
<defs>
<clipPath id="clip0_4467_20318">
<rect width="85" height="85" rx="15.4545" fill="white"/>
</clipPath>
</defs>
</svg>
