<svg width="85" height="85" viewBox="0 0 85 85" fill="none" xmlns="http://www.w3.org/2000/svg">
<g clip-path="url(#clip0_4467_20281)">
<path d="M32.3229 48.5715H24.7247C24.3649 48.5715 24.0732 48.8632 24.0732 49.223V63.9901C24.0732 64.3499 24.3649 64.6416 24.7247 64.6416H32.3253C32.6852 64.6416 32.9769 64.3498 32.9768 63.99L32.9744 49.2229C32.9743 48.8631 32.6826 48.5715 32.3229 48.5715Z" fill="#665E66"/>
<path d="M30.6124 48.5715H32.7841C33.1439 48.5715 33.4355 48.8632 33.4355 49.223V63.9901C33.4355 64.3499 33.1439 64.6416 32.7841 64.6416H31.2639L31.2646 49.3547C31.2646 49.1368 31.1556 48.9333 30.9742 48.8125L30.6124 48.5715Z" fill="#454045"/>
<path d="M59.6969 36.8447H52.0988C51.7389 36.8447 51.4473 37.1364 51.4473 37.4962V63.99C51.4473 64.3498 51.7389 64.6415 52.0988 64.6415H59.6994C60.0592 64.6415 60.3509 64.3498 60.3509 63.99L60.3483 37.4962C60.3483 37.1364 60.0566 36.8447 59.6969 36.8447Z" fill="#665E66"/>
<path d="M57.9865 36.8447H60.1581C60.5179 36.8447 60.8096 37.1364 60.8096 37.4962V63.99C60.8096 64.3498 60.5179 64.6415 60.1581 64.6415H58.6379L58.6386 37.8393C58.6386 37.6824 58.582 37.5307 58.4791 37.4122L57.9865 36.8447Z" fill="#454045"/>
<path d="M22.3787 45.5348C22.1477 45.5291 21.8873 45.5187 21.6229 45.5061C20.744 45.4643 20.2049 44.5381 20.5836 43.744C20.7617 43.3705 21.1212 43.1086 21.5299 43.0443C41.1961 39.9466 48.9079 34.8203 59.7486 21.7461C60.1575 21.2529 60.9113 20.9423 61.5489 20.8794C61.7718 20.8575 61.9656 20.8883 62.088 21.1003C62.2292 21.3448 62.3315 21.6345 62.4012 21.8786C62.496 22.2104 62.4074 22.5633 62.2034 22.8417C51.9066 36.8946 39.8652 43.7041 22.3787 45.5348Z" fill="#FEBD2F"/>
<path d="M54.4358 22.4085L54.4368 22.2795C54.4421 21.6237 54.934 21.0741 55.5851 20.9963L61.5257 20.2864C62.1925 20.2067 62.8106 20.6468 62.9535 21.3029L62.9853 21.4488C63 21.5165 63.0093 21.5851 63.0131 21.6542L63.019 21.7615C63.0569 22.4479 62.5552 23.0456 61.8726 23.1271L55.9247 23.8379C55.2736 23.9157 54.666 23.4974 54.5064 22.8614L54.4749 22.7363C54.448 22.6291 54.4349 22.519 54.4358 22.4085Z" fill="#FEBD2F"/>
<path d="M61.3997 29.0089L61.2718 28.992C60.622 28.9064 60.137 28.3514 60.1391 27.696L60.1586 21.661C60.1608 20.9898 60.6725 20.4301 61.3408 20.3679L61.4897 20.354C61.559 20.3476 61.6287 20.3467 61.6982 20.3514L61.8053 20.3586C62.4909 20.4049 63.0227 20.9756 63.0205 21.6628L63.0009 27.7053C62.9988 28.3607 62.5102 28.9125 61.8598 28.9939L61.7318 29.01C61.6215 29.0238 61.5099 29.0234 61.3997 29.0089Z" fill="#FEBD2F"/>
<path d="M46.2106 45.1038H38.6124C38.2526 45.1038 37.9609 45.3954 37.9609 45.7552V64.2141C37.9609 64.5739 38.2526 64.8655 38.6124 64.8655H46.213C46.5729 64.8655 46.8646 64.5738 46.8645 64.214L46.862 45.7552C46.862 45.3954 46.5703 45.1038 46.2106 45.1038Z" fill="#665E66"/>
<path d="M43.9669 45.1038H46.1386C46.4984 45.1038 46.79 45.3954 46.79 45.7552V64.2141C46.79 64.5739 46.4984 64.8655 46.1386 64.8655H44.6184L44.619 45.9464C44.6191 45.7511 44.5314 45.5661 44.3804 45.4424L43.9669 45.1038Z" fill="#454045"/>
</g>
<defs>
<clipPath id="clip0_4467_20281">
<rect width="85" height="85" rx="16.0728" fill="white"/>
</clipPath>
</defs>
</svg>
