<svg width="343" height="165" viewBox="0 0 343 165" fill="none" xmlns="http://www.w3.org/2000/svg">
<g filter="url(#filter0_d_5129_20210)">
<rect x="6" y="6" width="312" height="133" rx="20" fill="#FFCF54"/>
<path d="M27.3125 54V33.6364H36.1023C37.6136 33.6364 38.9361 33.9347 40.0696 34.5312C41.2031 35.1278 42.0848 35.9664 42.7145 37.0469C43.3442 38.1274 43.6591 39.3902 43.6591 40.8352C43.6591 42.2936 43.3343 43.5563 42.6847 44.6236C42.0417 45.6908 41.1368 46.5128 39.9702 47.0895C38.8101 47.6662 37.4545 47.9545 35.9034 47.9545H30.6534V43.6591H34.7898C35.4394 43.6591 35.9929 43.5464 36.4503 43.321C36.9143 43.089 37.2689 42.7609 37.5142 42.3366C37.7661 41.9124 37.892 41.4119 37.892 40.8352C37.892 40.2519 37.7661 39.7547 37.5142 39.3438C37.2689 38.9261 36.9143 38.608 36.4503 38.3892C35.9929 38.1638 35.4394 38.0511 34.7898 38.0511H32.8409V54H27.3125ZM52.7571 54.2784C51.1264 54.2784 49.7211 53.9669 48.5412 53.3438C47.3679 52.714 46.4631 51.8125 45.8267 50.6392C45.197 49.4593 44.8821 48.0473 44.8821 46.4034C44.8821 44.8258 45.2003 43.447 45.8366 42.267C46.473 41.0871 47.3712 40.169 48.5312 39.5128C49.6913 38.8565 51.0601 38.5284 52.6378 38.5284C53.7912 38.5284 54.8352 38.7074 55.7699 39.0653C56.7045 39.4233 57.5033 39.9437 58.1662 40.6264C58.8291 41.3026 59.3395 42.1245 59.6974 43.0923C60.0554 44.0601 60.2344 45.1506 60.2344 46.3636V47.6364H46.5923V44.6136H55.1832C55.1766 44.1761 55.0639 43.7917 54.8452 43.4602C54.633 43.1222 54.3447 42.8603 53.9801 42.6747C53.6222 42.4825 53.2145 42.3864 52.7571 42.3864C52.313 42.3864 51.9053 42.4825 51.5341 42.6747C51.1629 42.8603 50.8646 43.1188 50.6392 43.4503C50.4205 43.7817 50.3045 44.1695 50.2912 44.6136V47.875C50.2912 48.3655 50.3939 48.803 50.5994 49.1875C50.8049 49.572 51.0999 49.8736 51.4844 50.0923C51.8688 50.3111 52.3329 50.4205 52.8764 50.4205C53.2543 50.4205 53.599 50.3674 53.9105 50.2614C54.2287 50.1553 54.5005 50.0028 54.7259 49.804C54.9512 49.5985 55.117 49.3532 55.223 49.0682H60.2344C60.062 50.1288 59.6544 51.0502 59.0114 51.8324C58.3684 52.608 57.5166 53.2112 56.456 53.642C55.402 54.0663 54.169 54.2784 52.7571 54.2784ZM62.4741 54V38.7273H67.8036V41.6307H67.9627C68.2411 40.5568 68.6819 39.7713 69.2852 39.2741C69.895 38.777 70.6076 38.5284 71.4229 38.5284C71.6616 38.5284 71.8969 38.5483 72.1289 38.5881C72.3675 38.6212 72.5962 38.6709 72.815 38.7372V43.4205C72.5432 43.3277 72.2085 43.258 71.8107 43.2116C71.413 43.1652 71.0716 43.142 70.7866 43.142C70.2496 43.142 69.7657 43.2647 69.3349 43.5099C68.9106 43.7486 68.5759 44.0866 68.3306 44.5241C68.0853 44.955 67.9627 45.4621 67.9627 46.0455V54H62.4741ZM79.5465 50.3807L79.5863 43.858H80.3022L84.0011 38.7273H90.1658L83.9613 46.7216H82.4102L79.5465 50.3807ZM74.6147 54V33.6364H80.1033V54H74.6147ZM84.0408 54L80.5408 47.9545L84.1204 44.0568L90.3249 54H84.0408ZM98.2844 54.2784C96.6538 54.2784 95.2485 53.9669 94.0685 53.3438C92.8952 52.714 91.9904 51.8125 91.354 50.6392C90.7243 49.4593 90.4094 48.0473 90.4094 46.4034C90.4094 44.8258 90.7276 43.447 91.364 42.267C92.0004 41.0871 92.8986 40.169 94.0586 39.5128C95.2186 38.8565 96.5875 38.5284 98.1651 38.5284C99.3185 38.5284 100.363 38.7074 101.297 39.0653C102.232 39.4233 103.031 39.9437 103.694 40.6264C104.356 41.3026 104.867 42.1245 105.225 43.0923C105.583 44.0601 105.762 45.1506 105.762 46.3636V47.6364H92.1197V44.6136H100.711C100.704 44.1761 100.591 43.7917 100.373 43.4602C100.16 43.1222 99.872 42.8603 99.5075 42.6747C99.1495 42.4825 98.7418 42.3864 98.2844 42.3864C97.8403 42.3864 97.4326 42.4825 97.0614 42.6747C96.6902 42.8603 96.3919 43.1188 96.1665 43.4503C95.9478 43.7817 95.8318 44.1695 95.8185 44.6136V47.875C95.8185 48.3655 95.9213 48.803 96.1268 49.1875C96.3323 49.572 96.6272 49.8736 97.0117 50.0923C97.3962 50.3111 97.8602 50.4205 98.4038 50.4205C98.7816 50.4205 99.1263 50.3674 99.4379 50.2614C99.756 50.1553 100.028 50.0028 100.253 49.804C100.479 49.5985 100.644 49.3532 100.75 49.0682H105.762C105.589 50.1288 105.182 51.0502 104.539 51.8324C103.896 52.608 103.044 53.2112 101.983 53.642C100.929 54.0663 99.6964 54.2784 98.2844 54.2784ZM113.49 45.4091V54H108.001V38.7273H113.212V41.6307H113.371C113.702 40.6629 114.286 39.9039 115.121 39.3537C115.963 38.8035 116.944 38.5284 118.064 38.5284C119.144 38.5284 120.082 38.777 120.878 39.2741C121.68 39.7647 122.3 40.4408 122.737 41.3026C123.181 42.1643 123.4 43.1487 123.393 44.2557V54H117.905V45.4091C117.911 44.6534 117.719 44.0601 117.328 43.6293C116.944 43.1984 116.407 42.983 115.717 42.983C115.267 42.983 114.872 43.0824 114.534 43.2812C114.203 43.4735 113.947 43.7519 113.768 44.1165C113.589 44.4744 113.497 44.9053 113.49 45.4091ZM130.359 54.2386C129.384 54.2386 128.522 54.0795 127.773 53.7614C127.031 53.4366 126.448 52.946 126.023 52.2898C125.599 51.6335 125.387 50.7983 125.387 49.7841C125.387 48.9489 125.53 48.2363 125.815 47.6463C126.1 47.0497 126.497 46.5625 127.008 46.1847C127.518 45.8068 128.112 45.5185 128.788 45.3196C129.47 45.1207 130.206 44.9915 130.995 44.9318C131.85 44.8655 132.536 44.786 133.053 44.6932C133.577 44.5937 133.955 44.4579 134.187 44.2855C134.419 44.1065 134.535 43.8712 134.535 43.5795V43.5398C134.535 43.142 134.382 42.8371 134.077 42.625C133.772 42.4129 133.381 42.3068 132.904 42.3068C132.38 42.3068 131.953 42.4228 131.621 42.6548C131.297 42.8802 131.101 43.2282 131.035 43.6989H125.984C126.05 42.7708 126.345 41.9157 126.869 41.1335C127.399 40.3447 128.171 39.715 129.185 39.2443C130.2 38.767 131.466 38.5284 132.984 38.5284C134.077 38.5284 135.058 38.6577 135.927 38.9162C136.795 39.1681 137.534 39.5227 138.144 39.9801C138.754 40.4309 139.218 40.9612 139.536 41.571C139.861 42.1742 140.023 42.8305 140.023 43.5398V54H134.893V51.8523H134.773C134.469 52.4223 134.097 52.883 133.66 53.2344C133.229 53.5857 132.735 53.8409 132.178 54C131.628 54.1591 131.022 54.2386 130.359 54.2386ZM132.148 50.7784C132.566 50.7784 132.957 50.6922 133.322 50.5199C133.693 50.3475 133.995 50.099 134.227 49.7741C134.459 49.4493 134.575 49.0549 134.575 48.5909V47.3182C134.429 47.3778 134.273 47.4342 134.107 47.4872C133.948 47.5402 133.776 47.59 133.59 47.6364C133.411 47.6828 133.219 47.7259 133.013 47.7656C132.815 47.8054 132.606 47.8419 132.387 47.875C131.963 47.9413 131.615 48.0507 131.343 48.2031C131.078 48.349 130.879 48.5312 130.746 48.75C130.621 48.9621 130.558 49.2008 130.558 49.4659C130.558 49.8902 130.707 50.215 131.005 50.4403C131.303 50.6657 131.684 50.7784 132.148 50.7784ZM148.135 33.6364V54H142.646V33.6364H148.135ZM155.863 50.3807L155.903 43.858H156.619L160.317 38.7273H166.482L160.278 46.7216H158.727L155.863 50.3807ZM150.931 54V33.6364H156.42V54H150.931ZM160.357 54L156.857 47.9545L160.437 44.0568L166.641 54H160.357ZM172.167 54.2386C171.193 54.2386 170.331 54.0795 169.582 53.7614C168.84 53.4366 168.256 52.946 167.832 52.2898C167.408 51.6335 167.196 50.7983 167.196 49.7841C167.196 48.9489 167.338 48.2363 167.623 47.6463C167.908 47.0497 168.306 46.5625 168.816 46.1847C169.327 45.8068 169.92 45.5185 170.596 45.3196C171.279 45.1207 172.015 44.9915 172.804 44.9318C173.659 44.8655 174.345 44.786 174.862 44.6932C175.386 44.5937 175.763 44.4579 175.995 44.2855C176.227 44.1065 176.343 43.8712 176.343 43.5795V43.5398C176.343 43.142 176.191 42.8371 175.886 42.625C175.581 42.4129 175.19 42.3068 174.713 42.3068C174.189 42.3068 173.761 42.4228 173.43 42.6548C173.105 42.8802 172.91 43.2282 172.843 43.6989H167.792C167.859 42.7708 168.154 41.9157 168.677 41.1335C169.208 40.3447 169.98 39.715 170.994 39.2443C172.008 38.767 173.274 38.5284 174.792 38.5284C175.886 38.5284 176.867 38.6577 177.735 38.9162C178.604 39.1681 179.343 39.5227 179.953 39.9801C180.563 40.4309 181.027 40.9612 181.345 41.571C181.67 42.1742 181.832 42.8305 181.832 43.5398V54H176.701V51.8523H176.582C176.277 52.4223 175.906 52.883 175.468 53.2344C175.038 53.5857 174.544 53.8409 173.987 54C173.437 54.1591 172.83 54.2386 172.167 54.2386ZM173.957 50.7784C174.375 50.7784 174.766 50.6922 175.13 50.5199C175.502 50.3475 175.803 50.099 176.035 49.7741C176.267 49.4493 176.383 49.0549 176.383 48.5909V47.3182C176.237 47.3778 176.082 47.4342 175.916 47.4872C175.757 47.5402 175.584 47.59 175.399 47.6364C175.22 47.6828 175.028 47.7259 174.822 47.7656C174.623 47.8054 174.414 47.8419 174.196 47.875C173.771 47.9413 173.423 48.0507 173.152 48.2031C172.886 48.349 172.688 48.5312 172.555 48.75C172.429 48.9621 172.366 49.2008 172.366 49.4659C172.366 49.8902 172.515 50.215 172.814 50.4403C173.112 50.6657 173.493 50.7784 173.957 50.7784ZM189.943 45.4091V54H184.455V38.7273H189.665V41.6307H189.824C190.155 40.6629 190.739 39.9039 191.574 39.3537C192.416 38.8035 193.397 38.5284 194.517 38.5284C195.598 38.5284 196.536 38.777 197.331 39.2741C198.133 39.7647 198.753 40.4408 199.19 41.3026C199.634 42.1643 199.853 43.1487 199.847 44.2557V54H194.358V45.4091C194.365 44.6534 194.172 44.0601 193.781 43.6293C193.397 43.1984 192.86 42.983 192.17 42.983C191.72 42.983 191.325 43.0824 190.987 43.2812C190.656 43.4735 190.401 43.7519 190.222 44.1165C190.043 44.4744 189.95 44.9053 189.943 45.4091ZM227.066 41.2727H221.458C221.418 40.8087 221.312 40.3878 221.14 40.0099C220.974 39.6321 220.742 39.3073 220.444 39.0355C220.152 38.7571 219.798 38.545 219.38 38.3991C218.962 38.2467 218.488 38.1705 217.958 38.1705C217.03 38.1705 216.245 38.3958 215.602 38.8466C214.965 39.2973 214.481 39.9437 214.15 40.7855C213.825 41.6274 213.663 42.6383 213.663 43.8182C213.663 45.0644 213.828 46.1084 214.16 46.9503C214.498 47.7855 214.985 48.4152 215.621 48.8395C216.258 49.2571 217.023 49.4659 217.918 49.4659C218.429 49.4659 218.886 49.4029 219.29 49.277C219.695 49.1444 220.046 48.9555 220.344 48.7102C220.643 48.465 220.885 48.17 221.07 47.8253C221.263 47.474 221.392 47.0795 221.458 46.642L227.066 46.6818C227 47.5436 226.758 48.4219 226.34 49.3168C225.923 50.205 225.329 51.027 224.56 51.7827C223.798 52.5317 222.853 53.1349 221.727 53.5923C220.6 54.0497 219.29 54.2784 217.799 54.2784C215.93 54.2784 214.253 53.8774 212.768 53.0753C211.29 52.2732 210.12 51.0933 209.258 49.5355C208.403 47.9777 207.975 46.072 207.975 43.8182C207.975 41.5511 208.413 39.642 209.288 38.0909C210.163 36.5331 211.343 35.3565 212.827 34.5611C214.312 33.759 215.969 33.358 217.799 33.358C219.085 33.358 220.268 33.5336 221.349 33.8849C222.429 34.2363 223.377 34.75 224.192 35.4261C225.008 36.0956 225.664 36.9209 226.161 37.902C226.658 38.883 226.96 40.0066 227.066 41.2727ZM229.654 54V38.7273H235.142V54H229.654ZM232.398 37.1364C231.656 37.1364 231.019 36.8911 230.489 36.4006C229.959 35.91 229.694 35.3201 229.694 34.6307C229.694 33.9413 229.959 33.3513 230.489 32.8608C231.019 32.3703 231.656 32.125 232.398 32.125C233.147 32.125 233.783 32.3703 234.307 32.8608C234.837 33.3513 235.103 33.9413 235.103 34.6307C235.103 35.3201 234.837 35.91 234.307 36.4006C233.783 36.8911 233.147 37.1364 232.398 37.1364ZM243.428 45.4091V54H237.939V38.7273H243.149V41.6307H243.308C243.64 40.6629 244.223 39.9039 245.058 39.3537C245.9 38.8035 246.881 38.5284 248.001 38.5284C249.082 38.5284 250.02 38.777 250.815 39.2741C251.617 39.7647 252.237 40.4408 252.675 41.3026C253.119 42.1643 253.338 43.1487 253.331 44.2557V54H247.842V45.4091C247.849 44.6534 247.657 44.0601 247.266 43.6293C246.881 43.1984 246.344 42.983 245.655 42.983C245.204 42.983 244.81 43.0824 244.472 43.2812C244.14 43.4735 243.885 43.7519 243.706 44.1165C243.527 44.4744 243.434 44.9053 243.428 45.4091ZM261.569 54.1989C260.482 54.1989 259.481 53.9138 258.566 53.3438C257.658 52.7737 256.929 51.9086 256.379 50.7486C255.835 49.5885 255.563 48.1269 255.563 46.3636C255.563 44.5208 255.848 43.0227 256.418 41.8693C256.995 40.7159 257.737 39.8707 258.646 39.3338C259.56 38.7969 260.522 38.5284 261.529 38.5284C262.285 38.5284 262.948 38.661 263.518 38.9261C264.088 39.1847 264.565 39.5327 264.95 39.9702C265.334 40.401 265.626 40.875 265.825 41.392H265.904V33.6364H271.393V54H265.944V51.4943H265.825C265.612 52.0114 265.308 52.4754 264.91 52.8864C264.519 53.2907 264.041 53.6122 263.478 53.8509C262.921 54.0829 262.285 54.1989 261.569 54.1989ZM263.597 49.983C264.101 49.983 264.532 49.8371 264.89 49.5455C265.254 49.2472 265.533 48.8295 265.725 48.2926C265.924 47.7491 266.023 47.1061 266.023 46.3636C266.023 45.608 265.924 44.9616 265.725 44.4247C265.533 43.8812 265.254 43.4669 264.89 43.1818C264.532 42.8902 264.101 42.7443 263.597 42.7443C263.094 42.7443 262.663 42.8902 262.305 43.1818C261.953 43.4669 261.682 43.8812 261.489 44.4247C261.304 44.9616 261.211 45.608 261.211 46.3636C261.211 47.1193 261.304 47.7689 261.489 48.3125C261.682 48.8494 261.953 49.2637 262.305 49.5554C262.663 49.8404 263.094 49.983 263.597 49.983ZM277.428 59.7273C276.799 59.7273 276.199 59.6776 275.629 59.5781C275.058 59.4853 274.558 59.3561 274.127 59.1903L275.32 55.2926C275.771 55.4517 276.182 55.5545 276.553 55.6009C276.931 55.6473 277.253 55.6207 277.518 55.5213C277.79 55.4219 277.985 55.233 278.104 54.9545L278.224 54.6761L272.854 38.7273H278.582L281.048 49.3068H281.207L283.712 38.7273H289.479L283.911 55.2727C283.633 56.1146 283.228 56.8703 282.698 57.5398C282.174 58.2159 281.485 58.7495 280.63 59.1406C279.775 59.5317 278.708 59.7273 277.428 59.7273ZM295.413 51.2159L295.333 52.3295C295.267 53.2841 295.108 54.1989 294.856 55.0739C294.611 55.9489 294.349 56.7244 294.071 57.4006C293.799 58.0767 293.583 58.6004 293.424 58.9716H290.044C290.15 58.6004 290.299 58.0634 290.491 57.3608C290.69 56.6648 290.869 55.8759 291.028 54.9943C291.194 54.1193 291.277 53.2311 291.277 52.3295V51.2159H295.413Z" fill="#2B2B29"/>
<path d="M35.5753 81.1293H34.0241C33.9645 80.7978 33.8535 80.5062 33.6911 80.2543C33.5286 80.0024 33.3298 79.7886 33.0945 79.6129C32.8591 79.4373 32.5956 79.3047 32.304 79.2152C32.0156 79.1257 31.709 79.081 31.3842 79.081C30.7976 79.081 30.2723 79.2285 29.8082 79.5234C29.3475 79.8184 28.983 80.2509 28.7145 80.821C28.4493 81.3911 28.3168 82.0871 28.3168 82.9091C28.3168 83.7377 28.4493 84.437 28.7145 85.0071C28.983 85.5772 29.3492 86.008 29.8132 86.2997C30.2772 86.5914 30.7992 86.7372 31.3793 86.7372C31.7008 86.7372 32.0057 86.6941 32.294 86.608C32.5857 86.5185 32.8492 86.3875 33.0845 86.2152C33.3198 86.0429 33.5187 85.8324 33.6811 85.5838C33.8468 85.3319 33.9612 85.0436 34.0241 84.7188L35.5753 84.7237C35.4924 85.2242 35.3317 85.6849 35.093 86.1058C34.8577 86.5234 34.5545 86.8847 34.1832 87.1896C33.8153 87.4912 33.3944 87.7249 32.9205 87.8906C32.4465 88.0563 31.9295 88.1392 31.3693 88.1392C30.4877 88.1392 29.7022 87.9304 29.0128 87.5128C28.3234 87.0919 27.7798 86.4903 27.3821 85.7081C26.9877 84.9259 26.7905 83.9929 26.7905 82.9091C26.7905 81.822 26.9893 80.889 27.3871 80.1101C27.7848 79.3279 28.3284 78.728 29.0178 78.3104C29.7071 77.8894 30.491 77.679 31.3693 77.679C31.9096 77.679 32.4134 77.7569 32.8807 77.9126C33.3513 78.0651 33.7739 78.2905 34.1484 78.5888C34.523 78.8838 34.8329 79.245 35.0781 79.6726C35.3234 80.0968 35.4891 80.5824 35.5753 81.1293ZM37.2942 88V80.3636H38.7807V88H37.2942ZM38.0449 79.1854C37.7864 79.1854 37.5643 79.0992 37.3787 78.9268C37.1964 78.7512 37.1053 78.5424 37.1053 78.3004C37.1053 78.0552 37.1964 77.8464 37.3787 77.674C37.5643 77.4983 37.7864 77.4105 38.0449 77.4105C38.3034 77.4105 38.5239 77.4983 38.7061 77.674C38.8917 77.8464 38.9846 78.0552 38.9846 78.3004C38.9846 78.5424 38.8917 78.7512 38.7061 78.9268C38.5239 79.0992 38.3034 79.1854 38.0449 79.1854ZM42.267 83.4659V88H40.7805V80.3636H42.2074V81.6065H42.3018C42.4775 81.2022 42.7526 80.8774 43.1271 80.6321C43.505 80.3868 43.9806 80.2642 44.554 80.2642C45.0743 80.2642 45.5301 80.3736 45.9212 80.5923C46.3123 80.8078 46.6155 81.1293 46.831 81.5568C47.0464 81.9844 47.1541 82.513 47.1541 83.1428V88H45.6676V83.3217C45.6676 82.7682 45.5234 82.3357 45.2351 82.0241C44.9467 81.7093 44.5507 81.5518 44.0469 81.5518C43.7022 81.5518 43.3956 81.6264 43.1271 81.7756C42.862 81.9247 42.6515 82.1435 42.4957 82.4318C42.3433 82.7169 42.267 83.0616 42.267 83.4659ZM52.0064 88.1491C51.3899 88.1491 50.8397 87.9917 50.3558 87.6768C49.8752 87.3587 49.4974 86.9062 49.2223 86.3196C48.9505 85.7296 48.8146 85.022 48.8146 84.1967C48.8146 83.3714 48.9522 82.6655 49.2273 82.0788C49.5057 81.4922 49.8868 81.0431 50.3707 80.7315C50.8546 80.42 51.4032 80.2642 52.0163 80.2642C52.4903 80.2642 52.8714 80.3438 53.1598 80.5028C53.4515 80.6586 53.6768 80.8409 53.8359 81.0497C53.9983 81.2585 54.1243 81.4425 54.2138 81.6016H54.3033V77.8182H55.7898V88H54.3381V86.8118H54.2138C54.1243 86.9742 53.995 87.1598 53.826 87.3686C53.6603 87.5774 53.4316 87.7597 53.1399 87.9155C52.8482 88.0713 52.4704 88.1491 52.0064 88.1491ZM52.3345 86.8814C52.7621 86.8814 53.1233 86.7687 53.4183 86.5433C53.7166 86.3146 53.942 85.9981 54.0945 85.5938C54.2502 85.1894 54.3281 84.7187 54.3281 84.1818C54.3281 83.6515 54.2519 83.1875 54.0994 82.7898C53.947 82.392 53.7232 82.0821 53.4283 81.8601C53.1333 81.638 52.7687 81.527 52.3345 81.527C51.8871 81.527 51.5142 81.643 51.2159 81.875C50.9176 82.107 50.6922 82.4235 50.5398 82.8246C50.3906 83.2256 50.3161 83.678 50.3161 84.1818C50.3161 84.6922 50.3923 85.1513 50.5447 85.5589C50.6972 85.9666 50.9226 86.2898 51.2209 86.5284C51.5225 86.7637 51.8937 86.8814 52.3345 86.8814ZM58.851 90.8636C58.629 90.8636 58.4268 90.8454 58.2445 90.8089C58.0622 90.7758 57.9263 90.7393 57.8368 90.6996L58.1948 89.4815C58.4666 89.5545 58.7085 89.5859 58.9206 89.576C59.1328 89.5661 59.32 89.4865 59.4824 89.3374C59.6481 89.1882 59.794 88.9446 59.9199 88.6065L60.1039 88.0994L57.3098 80.3636H58.9007L60.8347 86.2898H60.9142L62.8482 80.3636H64.4441L61.2971 89.0192C61.1512 89.4169 60.9656 89.7533 60.7402 90.0284C60.5149 90.3068 60.2464 90.5156 59.9348 90.6548C59.6233 90.794 59.262 90.8636 58.851 90.8636ZM72.4048 88.1491C71.7884 88.1491 71.2382 87.9917 70.7543 87.6768C70.2737 87.3587 69.8958 86.9062 69.6207 86.3196C69.349 85.7296 69.2131 85.022 69.2131 84.1967C69.2131 83.3714 69.3506 82.6655 69.6257 82.0788C69.9041 81.4922 70.2853 81.0431 70.7692 80.7315C71.2531 80.42 71.8016 80.2642 72.4148 80.2642C72.8887 80.2642 73.2699 80.3438 73.5582 80.5028C73.8499 80.6586 74.0753 80.8409 74.2344 81.0497C74.3968 81.2585 74.5227 81.4425 74.6122 81.6016H74.7017V77.8182H76.1882V88H74.7365V86.8118H74.6122C74.5227 86.9742 74.3935 87.1598 74.2244 87.3686C74.0587 87.5774 73.83 87.7597 73.5384 87.9155C73.2467 88.0713 72.8688 88.1491 72.4048 88.1491ZM72.733 86.8814C73.1605 86.8814 73.5218 86.7687 73.8168 86.5433C74.1151 86.3146 74.3404 85.9981 74.4929 85.5938C74.6487 85.1894 74.7266 84.7187 74.7266 84.1818C74.7266 83.6515 74.6503 83.1875 74.4979 82.7898C74.3454 82.392 74.1217 82.0821 73.8267 81.8601C73.5317 81.638 73.1671 81.527 72.733 81.527C72.2855 81.527 71.9126 81.643 71.6143 81.875C71.3161 82.107 71.0907 82.4235 70.9382 82.8246C70.7891 83.2256 70.7145 83.678 70.7145 84.1818C70.7145 84.6922 70.7907 85.1513 70.9432 85.5589C71.0956 85.9666 71.321 86.2898 71.6193 86.5284C71.9209 86.7637 72.2921 86.8814 72.733 86.8814ZM78.3098 88V80.3636H79.7963V88H78.3098ZM79.0605 79.1854C78.802 79.1854 78.58 79.0992 78.3944 78.9268C78.2121 78.7512 78.1209 78.5424 78.1209 78.3004C78.1209 78.0552 78.2121 77.8464 78.3944 77.674C78.58 77.4983 78.802 77.4105 79.0605 77.4105C79.3191 77.4105 79.5395 77.4983 79.7218 77.674C79.9074 77.8464 80.0002 78.0552 80.0002 78.3004C80.0002 78.5424 79.9074 78.7512 79.7218 78.9268C79.5395 79.0992 79.3191 79.1854 79.0605 79.1854ZM91.2235 82.228L89.8762 82.4666C89.8199 82.2943 89.7304 82.1302 89.6078 81.9744C89.4885 81.8187 89.3261 81.6911 89.1206 81.5916C88.9151 81.4922 88.6582 81.4425 88.35 81.4425C87.929 81.4425 87.5777 81.5369 87.296 81.7259C87.0143 81.9115 86.8734 82.1518 86.8734 82.4467C86.8734 82.7019 86.9679 82.9074 87.1568 83.0632C87.3457 83.219 87.6506 83.3466 88.0716 83.446L89.2846 83.7244C89.9873 83.8868 90.5109 84.1371 90.8556 84.4751C91.2003 84.8132 91.3727 85.2524 91.3727 85.7926C91.3727 86.25 91.2401 86.6577 90.975 87.0156C90.7131 87.3703 90.3469 87.6487 89.8762 87.8509C89.4089 88.053 88.867 88.1541 88.2505 88.1541C87.3954 88.1541 86.6977 87.9718 86.1575 87.6072C85.6172 87.2393 85.2858 86.7173 85.1632 86.0412L86.6 85.8224C86.6895 86.197 86.8734 86.4804 87.1518 86.6726C87.4302 86.8615 87.7931 86.956 88.2406 86.956C88.7278 86.956 89.1172 86.8549 89.4089 86.6527C89.7006 86.4472 89.8464 86.197 89.8464 85.902C89.8464 85.6634 89.7569 85.4628 89.5779 85.3004C89.4023 85.138 89.1322 85.0154 88.7676 84.9325L87.475 84.6491C86.7624 84.4867 86.2354 84.2282 85.894 83.8736C85.5559 83.5189 85.3869 83.0698 85.3869 82.5263C85.3869 82.0755 85.5128 81.6811 85.7647 81.343C86.0166 81.005 86.3646 80.7415 86.8088 80.5526C87.2529 80.3603 87.7617 80.2642 88.335 80.2642C89.1603 80.2642 89.81 80.4432 90.2839 80.8011C90.7579 81.1558 91.0711 81.6314 91.2235 82.228ZM93.0071 88V80.3636H94.4936V88H93.0071ZM93.7578 79.1854C93.4993 79.1854 93.2772 79.0992 93.0916 78.9268C92.9093 78.7512 92.8182 78.5424 92.8182 78.3004C92.8182 78.0552 92.9093 77.8464 93.0916 77.674C93.2772 77.4983 93.4993 77.4105 93.7578 77.4105C94.0163 77.4105 94.2367 77.4983 94.419 77.674C94.6046 77.8464 94.6974 78.0552 94.6974 78.3004C94.6974 78.5424 94.6046 78.7512 94.419 78.9268C94.2367 79.0992 94.0163 79.1854 93.7578 79.1854ZM97.9799 83.4659V88H96.4934V80.3636H97.9203V81.6065H98.0147C98.1904 81.2022 98.4655 80.8774 98.84 80.6321C99.2179 80.3868 99.6935 80.2642 100.267 80.2642C100.787 80.2642 101.243 80.3736 101.634 80.5923C102.025 80.8078 102.328 81.1293 102.544 81.5568C102.759 81.9844 102.867 82.513 102.867 83.1428V88H101.381V83.3217C101.381 82.7682 101.236 82.3357 100.948 82.0241C100.66 81.7093 100.264 81.5518 99.7598 81.5518C99.4151 81.5518 99.1085 81.6264 98.84 81.7756C98.5749 81.9247 98.3644 82.1435 98.2086 82.4318C98.0562 82.7169 97.9799 83.0616 97.9799 83.4659ZM104.861 88V80.3636H106.347V88H104.861ZM105.611 79.1854C105.353 79.1854 105.131 79.0992 104.945 78.9268C104.763 78.7512 104.672 78.5424 104.672 78.3004C104.672 78.0552 104.763 77.8464 104.945 77.674C105.131 77.4983 105.353 77.4105 105.611 77.4105C105.87 77.4105 106.09 77.4983 106.273 77.674C106.458 77.8464 106.551 78.0552 106.551 78.3004C106.551 78.5424 106.458 78.7512 106.273 78.9268C106.09 79.0992 105.87 79.1854 105.611 79.1854ZM117.774 82.228L116.427 82.4666C116.371 82.2943 116.281 82.1302 116.159 81.9744C116.039 81.8187 115.877 81.6911 115.671 81.5916C115.466 81.4922 115.209 81.4425 114.901 81.4425C114.48 81.4425 114.128 81.5369 113.847 81.7259C113.565 81.9115 113.424 82.1518 113.424 82.4467C113.424 82.7019 113.519 82.9074 113.708 83.0632C113.896 83.219 114.201 83.3466 114.622 83.446L115.835 83.7244C116.538 83.8868 117.062 84.1371 117.406 84.4751C117.751 84.8132 117.923 85.2524 117.923 85.7926C117.923 86.25 117.791 86.6577 117.526 87.0156C117.264 87.3703 116.898 87.6487 116.427 87.8509C115.96 88.053 115.418 88.1541 114.801 88.1541C113.946 88.1541 113.249 87.9718 112.708 87.6072C112.168 87.2393 111.837 86.7173 111.714 86.0412L113.151 85.8224C113.24 86.197 113.424 86.4804 113.703 86.6726C113.981 86.8615 114.344 86.956 114.791 86.956C115.279 86.956 115.668 86.8549 115.96 86.6527C116.251 86.4472 116.397 86.197 116.397 85.902C116.397 85.6634 116.308 85.4628 116.129 85.3004C115.953 85.138 115.683 85.0154 115.318 84.9325L114.026 84.6491C113.313 84.4867 112.786 84.2282 112.445 83.8736C112.107 83.5189 111.938 83.0698 111.938 82.5263C111.938 82.0755 112.064 81.6811 112.316 81.343C112.567 81.005 112.915 80.7415 113.36 80.5526C113.804 80.3603 114.312 80.2642 114.886 80.2642C115.711 80.2642 116.361 80.4432 116.835 80.8011C117.309 81.1558 117.622 81.6314 117.774 82.228ZM122.849 88.1541C122.097 88.1541 121.449 87.9934 120.905 87.6719C120.365 87.3471 119.947 86.8913 119.652 86.3047C119.361 85.7147 119.215 85.0237 119.215 84.2315C119.215 83.4493 119.361 82.7599 119.652 82.1634C119.947 81.5668 120.358 81.1011 120.885 80.7663C121.416 80.4316 122.035 80.2642 122.745 80.2642C123.176 80.2642 123.593 80.3355 123.998 80.478C124.402 80.6205 124.765 80.8442 125.086 81.1491C125.408 81.4541 125.661 81.8501 125.847 82.3374C126.033 82.8213 126.125 83.4096 126.125 84.1023V84.6293H120.055V83.5156H124.669C124.669 83.1245 124.589 82.7782 124.43 82.4766C124.271 82.1716 124.047 81.9313 123.759 81.7557C123.474 81.58 123.139 81.4922 122.755 81.4922C122.337 81.4922 121.972 81.5949 121.661 81.8004C121.353 82.0026 121.114 82.2678 120.945 82.5959C120.779 82.9207 120.696 83.2737 120.696 83.6548V84.5249C120.696 85.0353 120.786 85.4695 120.965 85.8274C121.147 86.1854 121.401 86.4588 121.725 86.6477C122.05 86.8333 122.43 86.9261 122.864 86.9261C123.146 86.9261 123.403 86.8864 123.635 86.8068C123.867 86.724 124.067 86.6013 124.236 86.4389C124.405 86.2765 124.534 86.076 124.624 85.8374L126.031 86.0909C125.918 86.5052 125.716 86.8681 125.424 87.1797C125.136 87.4879 124.773 87.7282 124.336 87.9006C123.901 88.0696 123.406 88.1541 122.849 88.1541ZM130.633 88.1491C130.017 88.1491 129.467 87.9917 128.983 87.6768C128.502 87.3587 128.124 86.9062 127.849 86.3196C127.577 85.7296 127.442 85.022 127.442 84.1967C127.442 83.3714 127.579 82.6655 127.854 82.0788C128.133 81.4922 128.514 81.0431 128.998 80.7315C129.482 80.42 130.03 80.2642 130.643 80.2642C131.117 80.2642 131.498 80.3438 131.787 80.5028C132.078 80.6586 132.304 80.8409 132.463 81.0497C132.625 81.2585 132.751 81.4425 132.841 81.6016H132.93V77.8182H134.417V88H132.965V86.8118H132.841C132.751 86.9742 132.622 87.1598 132.453 87.3686C132.287 87.5774 132.059 87.7597 131.767 87.9155C131.475 88.0713 131.097 88.1491 130.633 88.1491ZM130.961 86.8814C131.389 86.8814 131.75 86.7687 132.045 86.5433C132.344 86.3146 132.569 85.9981 132.721 85.5938C132.877 85.1894 132.955 84.7187 132.955 84.1818C132.955 83.6515 132.879 83.1875 132.726 82.7898C132.574 82.392 132.35 82.0821 132.055 81.8601C131.76 81.638 131.396 81.527 130.961 81.527C130.514 81.527 130.141 81.643 129.843 81.875C129.545 82.107 129.319 82.4235 129.167 82.8246C129.018 83.2256 128.943 83.678 128.943 84.1818C128.943 84.6922 129.019 85.1513 129.172 85.5589C129.324 85.9666 129.55 86.2898 129.848 86.5284C130.149 86.7637 130.521 86.8814 130.961 86.8814ZM138.761 88.169C138.277 88.169 137.839 88.0795 137.448 87.9006C137.057 87.7183 136.747 87.4548 136.518 87.1101C136.293 86.7654 136.18 86.3428 136.18 85.8423C136.18 85.4115 136.263 85.0568 136.429 84.7784C136.595 84.5 136.818 84.2796 137.1 84.1172C137.382 83.9548 137.697 83.8321 138.045 83.7493C138.393 83.6664 138.747 83.6035 139.109 83.5604C139.566 83.5073 139.937 83.4643 140.222 83.4311C140.507 83.3946 140.714 83.3366 140.844 83.2571C140.973 83.1776 141.038 83.0483 141.038 82.8693V82.8345C141.038 82.4003 140.915 82.0639 140.67 81.8253C140.428 81.5866 140.067 81.4673 139.586 81.4673C139.085 81.4673 138.691 81.5784 138.403 81.8004C138.118 82.0192 137.92 82.2628 137.811 82.5312L136.414 82.2131C136.58 81.7491 136.822 81.3745 137.14 81.0895C137.461 80.8011 137.831 80.5923 138.249 80.4631C138.666 80.3305 139.105 80.2642 139.566 80.2642C139.871 80.2642 140.194 80.3007 140.536 80.3736C140.88 80.4432 141.202 80.5724 141.5 80.7614C141.802 80.9503 142.049 81.2204 142.241 81.5717C142.433 81.9197 142.529 82.3722 142.529 82.929V88H141.077V86.956H141.018C140.922 87.1482 140.777 87.3371 140.585 87.5227C140.393 87.7083 140.146 87.8625 139.844 87.9851C139.543 88.1077 139.182 88.169 138.761 88.169ZM139.084 86.9759C139.495 86.9759 139.846 86.8946 140.138 86.7322C140.433 86.5698 140.656 86.3577 140.809 86.0959C140.965 85.8307 141.043 85.5473 141.043 85.2457V84.2614C140.99 84.3144 140.887 84.3641 140.734 84.4105C140.585 84.4536 140.415 84.4917 140.222 84.5249C140.03 84.5547 139.843 84.5829 139.661 84.6094C139.478 84.6326 139.326 84.6525 139.203 84.669C138.915 84.7055 138.651 84.7668 138.413 84.853C138.177 84.9392 137.988 85.0634 137.846 85.2259C137.707 85.3849 137.637 85.5971 137.637 85.8622C137.637 86.2301 137.773 86.5085 138.045 86.6974C138.317 86.883 138.663 86.9759 139.084 86.9759ZM145.996 83.4659V88H144.509V80.3636H145.936V81.6065H146.03C146.206 81.2022 146.481 80.8774 146.856 80.6321C147.233 80.3868 147.709 80.2642 148.282 80.2642C148.803 80.2642 149.259 80.3736 149.65 80.5923C150.041 80.8078 150.344 81.1293 150.559 81.5568C150.775 81.9844 150.883 82.513 150.883 83.1428V88H149.396V83.3217C149.396 82.7682 149.252 82.3357 148.964 82.0241C148.675 81.7093 148.279 81.5518 147.775 81.5518C147.431 81.5518 147.124 81.6264 146.856 81.7756C146.59 81.9247 146.38 82.1435 146.224 82.4318C146.072 82.7169 145.996 83.0616 145.996 83.4659ZM156.078 91.0227C155.471 91.0227 154.949 90.9432 154.512 90.7841C154.078 90.625 153.723 90.4145 153.448 90.1527C153.173 89.8909 152.967 89.6042 152.831 89.2926L154.109 88.7656C154.199 88.9115 154.318 89.0656 154.467 89.228C154.62 89.3937 154.825 89.5346 155.084 89.6506C155.345 89.7666 155.682 89.8246 156.093 89.8246C156.656 89.8246 157.122 89.687 157.49 89.4119C157.858 89.1402 158.042 88.706 158.042 88.1094V86.608H157.947C157.858 86.7704 157.729 86.951 157.559 87.1499C157.394 87.3487 157.165 87.5211 156.873 87.6669C156.582 87.8127 156.202 87.8857 155.735 87.8857C155.132 87.8857 154.588 87.7448 154.104 87.4631C153.624 87.178 153.242 86.7588 152.961 86.2053C152.682 85.6484 152.543 84.964 152.543 84.152C152.543 83.34 152.681 82.6439 152.956 82.0639C153.234 81.4839 153.615 81.0398 154.099 80.7315C154.583 80.42 155.132 80.2642 155.745 80.2642C156.219 80.2642 156.602 80.3438 156.893 80.5028C157.185 80.6586 157.412 80.8409 157.574 81.0497C157.74 81.2585 157.868 81.4425 157.957 81.6016H158.067V80.3636H159.523V88.169C159.523 88.8253 159.371 89.3639 159.066 89.7848C158.761 90.2057 158.348 90.5173 157.828 90.7195C157.311 90.9216 156.728 91.0227 156.078 91.0227ZM156.063 86.6527C156.491 86.6527 156.852 86.5533 157.147 86.3544C157.445 86.1522 157.671 85.8639 157.823 85.4893C157.979 85.1115 158.057 84.6591 158.057 84.1321C158.057 83.6184 157.98 83.166 157.828 82.7749C157.675 82.3838 157.452 82.0788 157.157 81.8601C156.862 81.638 156.497 81.527 156.063 81.527C155.616 81.527 155.243 81.643 154.944 81.875C154.646 82.1037 154.421 82.4152 154.268 82.8097C154.119 83.2041 154.045 83.6449 154.045 84.1321C154.045 84.6326 154.121 85.0717 154.273 85.4496C154.426 85.8274 154.651 86.1224 154.949 86.3345C155.251 86.5466 155.622 86.6527 156.063 86.6527ZM165.222 88V80.3636H166.649V81.6065H166.743C166.902 81.1856 167.163 80.8575 167.524 80.6222C167.885 80.3835 168.318 80.2642 168.821 80.2642C169.332 80.2642 169.759 80.3835 170.104 80.6222C170.452 80.8608 170.709 81.1889 170.875 81.6065H170.954C171.136 81.1989 171.426 80.8741 171.824 80.6321C172.222 80.3868 172.696 80.2642 173.246 80.2642C173.939 80.2642 174.504 80.4813 174.941 80.9155C175.382 81.3497 175.603 82.0043 175.603 82.8793V88H174.116V83.0185C174.116 82.5014 173.975 82.1269 173.694 81.8949C173.412 81.6629 173.075 81.5469 172.684 81.5469C172.2 81.5469 171.824 81.696 171.556 81.9943C171.287 82.2893 171.153 82.6688 171.153 83.1328V88H169.672V82.924C169.672 82.5097 169.542 82.1766 169.284 81.9247C169.025 81.6728 168.689 81.5469 168.275 81.5469C167.993 81.5469 167.733 81.6214 167.494 81.7706C167.259 81.9164 167.068 82.1203 166.922 82.3821C166.78 82.6439 166.708 82.9472 166.708 83.2919V88H165.222ZM180.886 88.1541C180.134 88.1541 179.486 87.9934 178.942 87.6719C178.402 87.3471 177.984 86.8913 177.689 86.3047C177.398 85.7147 177.252 85.0237 177.252 84.2315C177.252 83.4493 177.398 82.7599 177.689 82.1634C177.984 81.5668 178.395 81.1011 178.922 80.7663C179.453 80.4316 180.073 80.2642 180.782 80.2642C181.213 80.2642 181.63 80.3355 182.035 80.478C182.439 80.6205 182.802 80.8442 183.123 81.1491C183.445 81.4541 183.698 81.8501 183.884 82.3374C184.07 82.8213 184.162 83.4096 184.162 84.1023V84.6293H178.092V83.5156H182.706C182.706 83.1245 182.626 82.7782 182.467 82.4766C182.308 82.1716 182.084 81.9313 181.796 81.7557C181.511 81.58 181.176 81.4922 180.792 81.4922C180.374 81.4922 180.01 81.5949 179.698 81.8004C179.39 82.0026 179.151 82.2678 178.982 82.5959C178.816 82.9207 178.733 83.2737 178.733 83.6548V84.5249C178.733 85.0353 178.823 85.4695 179.002 85.8274C179.184 86.1854 179.438 86.4588 179.763 86.6477C180.087 86.8333 180.467 86.9261 180.901 86.9261C181.183 86.9261 181.44 86.8864 181.672 86.8068C181.904 86.724 182.104 86.6013 182.273 86.4389C182.442 86.2765 182.572 86.076 182.661 85.8374L184.068 86.0909C183.955 86.5052 183.753 86.8681 183.461 87.1797C183.173 87.4879 182.81 87.7282 182.373 87.9006C181.939 88.0696 181.443 88.1541 180.886 88.1541ZM187.298 77.8182V88H185.812V77.8182H187.298ZM191.52 88.169C191.037 88.169 190.599 88.0795 190.208 87.9006C189.817 87.7183 189.507 87.4548 189.278 87.1101C189.053 86.7654 188.94 86.3428 188.94 85.8423C188.94 85.4115 189.023 85.0568 189.189 84.7784C189.354 84.5 189.578 84.2796 189.86 84.1172C190.142 83.9548 190.456 83.8321 190.805 83.7493C191.153 83.6664 191.507 83.6035 191.868 83.5604C192.326 83.5073 192.697 83.4643 192.982 83.4311C193.267 83.3946 193.474 83.3366 193.604 83.2571C193.733 83.1776 193.797 83.0483 193.797 82.8693V82.8345C193.797 82.4003 193.675 82.0639 193.43 81.8253C193.188 81.5866 192.826 81.4673 192.346 81.4673C191.845 81.4673 191.451 81.5784 191.162 81.8004C190.877 82.0192 190.68 82.2628 190.571 82.5312L189.174 82.2131C189.34 81.7491 189.581 81.3745 189.9 81.0895C190.221 80.8011 190.591 80.5923 191.008 80.4631C191.426 80.3305 191.865 80.2642 192.326 80.2642C192.631 80.2642 192.954 80.3007 193.295 80.3736C193.64 80.4432 193.961 80.5724 194.26 80.7614C194.561 80.9503 194.808 81.2204 195.001 81.5717C195.193 81.9197 195.289 82.3722 195.289 82.929V88H193.837V86.956H193.778C193.681 87.1482 193.537 87.3371 193.345 87.5227C193.153 87.7083 192.906 87.8625 192.604 87.9851C192.303 88.1077 191.941 88.169 191.52 88.169ZM191.844 86.9759C192.255 86.9759 192.606 86.8946 192.898 86.7322C193.193 86.5698 193.416 86.3577 193.569 86.0959C193.724 85.8307 193.802 85.5473 193.802 85.2457V84.2614C193.749 84.3144 193.647 84.3641 193.494 84.4105C193.345 84.4536 193.174 84.4917 192.982 84.5249C192.79 84.5547 192.603 84.5829 192.42 84.6094C192.238 84.6326 192.086 84.6525 191.963 84.669C191.675 84.7055 191.411 84.7668 191.172 84.853C190.937 84.9392 190.748 85.0634 190.606 85.2259C190.466 85.3849 190.397 85.5971 190.397 85.8622C190.397 86.2301 190.533 86.5085 190.805 86.6974C191.076 86.883 191.423 86.9759 191.844 86.9759ZM197.269 88V80.3636H198.696V81.6065H198.79C198.949 81.1856 199.209 80.8575 199.571 80.6222C199.932 80.3835 200.364 80.2642 200.868 80.2642C201.379 80.2642 201.806 80.3835 202.151 80.6222C202.499 80.8608 202.756 81.1889 202.922 81.6065H203.001C203.183 81.1989 203.473 80.8741 203.871 80.6321C204.269 80.3868 204.743 80.2642 205.293 80.2642C205.986 80.2642 206.551 80.4813 206.988 80.9155C207.429 81.3497 207.65 82.0043 207.65 82.8793V88H206.163V83.0185C206.163 82.5014 206.022 82.1269 205.74 81.8949C205.459 81.6629 205.122 81.5469 204.731 81.5469C204.247 81.5469 203.871 81.696 203.603 81.9943C203.334 82.2893 203.2 82.6688 203.2 83.1328V88H201.718V82.924C201.718 82.5097 201.589 82.1766 201.331 81.9247C201.072 81.6728 200.736 81.5469 200.321 81.5469C200.04 81.5469 199.779 81.6214 199.541 81.7706C199.306 81.9164 199.115 82.1203 198.969 82.3821C198.827 82.6439 198.755 82.9472 198.755 83.2919V88H197.269ZM211.864 88.169C211.38 88.169 210.943 88.0795 210.552 87.9006C210.161 87.7183 209.851 87.4548 209.622 87.1101C209.397 86.7654 209.284 86.3428 209.284 85.8423C209.284 85.4115 209.367 85.0568 209.532 84.7784C209.698 84.5 209.922 84.2796 210.204 84.1172C210.485 83.9548 210.8 83.8321 211.148 83.7493C211.496 83.6664 211.851 83.6035 212.212 83.5604C212.67 83.5073 213.041 83.4643 213.326 83.4311C213.611 83.3946 213.818 83.3366 213.947 83.2571C214.077 83.1776 214.141 83.0483 214.141 82.8693V82.8345C214.141 82.4003 214.019 82.0639 213.773 81.8253C213.531 81.5866 213.17 81.4673 212.689 81.4673C212.189 81.4673 211.795 81.5784 211.506 81.8004C211.221 82.0192 211.024 82.2628 210.915 82.5312L209.518 82.2131C209.683 81.7491 209.925 81.3745 210.243 81.0895C210.565 80.8011 210.934 80.5923 211.352 80.4631C211.77 80.3305 212.209 80.2642 212.67 80.2642C212.974 80.2642 213.298 80.3007 213.639 80.3736C213.984 80.4432 214.305 80.5724 214.604 80.7614C214.905 80.9503 215.152 81.2204 215.344 81.5717C215.537 81.9197 215.633 82.3722 215.633 82.929V88H214.181V86.956H214.121C214.025 87.1482 213.881 87.3371 213.689 87.5227C213.497 87.7083 213.25 87.8625 212.948 87.9851C212.646 88.1077 212.285 88.169 211.864 88.169ZM212.187 86.9759C212.598 86.9759 212.95 86.8946 213.241 86.7322C213.536 86.5698 213.76 86.3577 213.912 86.0959C214.068 85.8307 214.146 85.5473 214.146 85.2457V84.2614C214.093 84.3144 213.99 84.3641 213.838 84.4105C213.689 84.4536 213.518 84.4917 213.326 84.5249C213.134 84.5547 212.946 84.5829 212.764 84.6094C212.582 84.6326 212.429 84.6525 212.307 84.669C212.018 84.7055 211.755 84.7668 211.516 84.853C211.281 84.9392 211.092 85.0634 210.949 85.2259C210.81 85.3849 210.741 85.5971 210.741 85.8622C210.741 86.2301 210.876 86.5085 211.148 86.6974C211.42 86.883 211.766 86.9759 212.187 86.9759ZM217.613 88V80.3636H219.049V81.5767H219.129C219.268 81.1657 219.513 80.8426 219.865 80.6072C220.219 80.3686 220.62 80.2493 221.068 80.2493C221.161 80.2493 221.27 80.2526 221.396 80.2592C221.525 80.2659 221.626 80.2741 221.699 80.2841V81.706C221.64 81.6894 221.533 81.6712 221.381 81.6513C221.229 81.6281 221.076 81.6165 220.924 81.6165C220.572 81.6165 220.259 81.6911 219.984 81.8402C219.712 81.986 219.497 82.1899 219.338 82.4517C219.179 82.7102 219.099 83.0052 219.099 83.3366V88H217.613ZM226.691 88V80.3636H228.118V81.6065H228.212C228.371 81.1856 228.631 80.8575 228.993 80.6222C229.354 80.3835 229.786 80.2642 230.29 80.2642C230.801 80.2642 231.228 80.3835 231.573 80.6222C231.921 80.8608 232.178 81.1889 232.343 81.6065H232.423C232.605 81.1989 232.895 80.8741 233.293 80.6321C233.691 80.3868 234.165 80.2642 234.715 80.2642C235.408 80.2642 235.973 80.4813 236.41 80.9155C236.851 81.3497 237.071 82.0043 237.071 82.8793V88H235.585V83.0185C235.585 82.5014 235.444 82.1269 235.162 81.8949C234.881 81.6629 234.544 81.5469 234.153 81.5469C233.669 81.5469 233.293 81.696 233.025 81.9943C232.756 82.2893 232.622 82.6688 232.622 83.1328V88H231.14V82.924C231.14 82.5097 231.011 82.1766 230.752 81.9247C230.494 81.6728 230.158 81.5469 229.743 81.5469C229.462 81.5469 229.201 81.6214 228.963 81.7706C228.727 81.9164 228.537 82.1203 228.391 82.3821C228.248 82.6439 228.177 82.9472 228.177 83.2919V88H226.691ZM242.355 88.1541C241.603 88.1541 240.955 87.9934 240.411 87.6719C239.871 87.3471 239.453 86.8913 239.158 86.3047C238.867 85.7147 238.721 85.0237 238.721 84.2315C238.721 83.4493 238.867 82.7599 239.158 82.1634C239.453 81.5668 239.864 81.1011 240.391 80.7663C240.921 80.4316 241.541 80.2642 242.251 80.2642C242.681 80.2642 243.099 80.3355 243.503 80.478C243.908 80.6205 244.271 80.8442 244.592 81.1491C244.914 81.4541 245.167 81.8501 245.353 82.3374C245.538 82.8213 245.631 83.4096 245.631 84.1023V84.6293H239.561V83.5156H244.175C244.175 83.1245 244.095 82.7782 243.936 82.4766C243.777 82.1716 243.553 81.9313 243.265 81.7557C242.98 81.58 242.645 81.4922 242.26 81.4922C241.843 81.4922 241.478 81.5949 241.167 81.8004C240.858 82.0026 240.62 82.2678 240.451 82.5959C240.285 82.9207 240.202 83.2737 240.202 83.6548V84.5249C240.202 85.0353 240.292 85.4695 240.471 85.8274C240.653 86.1854 240.907 86.4588 241.231 86.6477C241.556 86.8333 241.936 86.9261 242.37 86.9261C242.652 86.9261 242.908 86.8864 243.14 86.8068C243.372 86.724 243.573 86.6013 243.742 86.4389C243.911 86.2765 244.04 86.076 244.13 85.8374L245.537 86.0909C245.424 86.5052 245.222 86.8681 244.93 87.1797C244.642 87.4879 244.279 87.7282 243.841 87.9006C243.407 88.0696 242.912 88.1541 242.355 88.1541ZM248.767 83.4659V88H247.281V80.3636H248.707V81.6065H248.802C248.978 81.2022 249.253 80.8774 249.627 80.6321C250.005 80.3868 250.481 80.2642 251.054 80.2642C251.574 80.2642 252.03 80.3736 252.421 80.5923C252.812 80.8078 253.116 81.1293 253.331 81.5568C253.546 81.9844 253.654 82.513 253.654 83.1428V88H252.168V83.3217C252.168 82.7682 252.023 82.3357 251.735 82.0241C251.447 81.7093 251.051 81.5518 250.547 81.5518C250.202 81.5518 249.896 81.6264 249.627 81.7756C249.362 81.9247 249.152 82.1435 248.996 82.4318C248.843 82.7169 248.767 83.0616 248.767 83.4659ZM255.648 80.3636H257.134V88.4972C257.134 89.0076 257.041 89.4384 256.856 89.7898C256.674 90.1411 256.402 90.4079 256.04 90.5902C255.683 90.7725 255.24 90.8636 254.713 90.8636C254.66 90.8636 254.61 90.8636 254.564 90.8636C254.514 90.8636 254.463 90.862 254.41 90.8587V89.581C254.456 89.581 254.498 89.581 254.534 89.581C254.567 89.581 254.605 89.581 254.648 89.581C255 89.581 255.253 89.4865 255.409 89.2976C255.568 89.112 255.648 88.8419 255.648 88.4872V80.3636ZM256.384 79.1854C256.125 79.1854 255.903 79.0992 255.717 78.9268C255.535 78.7512 255.444 78.5424 255.444 78.3004C255.444 78.0552 255.535 77.8464 255.717 77.674C255.903 77.4983 256.125 77.4105 256.384 77.4105C256.642 77.4105 256.862 77.4983 257.045 77.674C257.23 77.8464 257.323 78.0552 257.323 78.3004C257.323 78.5424 257.23 78.7512 257.045 78.9268C256.862 79.0992 256.642 79.1854 256.384 79.1854ZM261.356 88.169C260.872 88.169 260.435 88.0795 260.044 87.9006C259.653 87.7183 259.343 87.4548 259.114 87.1101C258.889 86.7654 258.776 86.3428 258.776 85.8423C258.776 85.4115 258.859 85.0568 259.025 84.7784C259.19 84.5 259.414 84.2796 259.696 84.1172C259.978 83.9548 260.292 83.8321 260.64 83.7493C260.988 83.6664 261.343 83.6035 261.704 83.5604C262.162 83.5073 262.533 83.4643 262.818 83.4311C263.103 83.3946 263.31 83.3366 263.439 83.2571C263.569 83.1776 263.633 83.0483 263.633 82.8693V82.8345C263.633 82.4003 263.511 82.0639 263.265 81.8253C263.023 81.5866 262.662 81.4673 262.182 81.4673C261.681 81.4673 261.287 81.5784 260.998 81.8004C260.713 82.0192 260.516 82.2628 260.407 82.5312L259.01 82.2131C259.175 81.7491 259.417 81.3745 259.736 81.0895C260.057 80.8011 260.427 80.5923 260.844 80.4631C261.262 80.3305 261.701 80.2642 262.162 80.2642C262.467 80.2642 262.79 80.3007 263.131 80.3736C263.476 80.4432 263.797 80.5724 264.096 80.7614C264.397 80.9503 264.644 81.2204 264.836 81.5717C265.029 81.9197 265.125 82.3722 265.125 82.929V88H263.673V86.956H263.613C263.517 87.1482 263.373 87.3371 263.181 87.5227C262.989 87.7083 262.742 87.8625 262.44 87.9851C262.139 88.1077 261.777 88.169 261.356 88.169ZM261.68 86.9759C262.09 86.9759 262.442 86.8946 262.733 86.7322C263.028 86.5698 263.252 86.3577 263.405 86.0959C263.56 85.8307 263.638 85.5473 263.638 85.2457V84.2614C263.585 84.3144 263.483 84.3641 263.33 84.4105C263.181 84.4536 263.01 84.4917 262.818 84.5249C262.626 84.5547 262.439 84.5829 262.256 84.6094C262.074 84.6326 261.921 84.6525 261.799 84.669C261.51 84.7055 261.247 84.7668 261.008 84.853C260.773 84.9392 260.584 85.0634 260.442 85.2259C260.302 85.3849 260.233 85.5971 260.233 85.8622C260.233 86.2301 260.369 86.5085 260.64 86.6974C260.912 86.883 261.259 86.9759 261.68 86.9759ZM269.963 88.1491C269.347 88.1491 268.797 87.9917 268.313 87.6768C267.832 87.3587 267.454 86.9062 267.179 86.3196C266.908 85.7296 266.772 85.022 266.772 84.1967C266.772 83.3714 266.909 82.6655 267.184 82.0788C267.463 81.4922 267.844 81.0431 268.328 80.7315C268.812 80.42 269.36 80.2642 269.973 80.2642C270.447 80.2642 270.828 80.3438 271.117 80.5028C271.408 80.6586 271.634 80.8409 271.793 81.0497C271.955 81.2585 272.081 81.4425 272.171 81.6016H272.26V77.8182H273.747V88H272.295V86.8118H272.171C272.081 86.9742 271.952 87.1598 271.783 87.3686C271.617 87.5774 271.389 87.7597 271.097 87.9155C270.805 88.0713 270.427 88.1491 269.963 88.1491ZM270.292 86.8814C270.719 86.8814 271.08 86.7687 271.375 86.5433C271.674 86.3146 271.899 85.9981 272.051 85.5938C272.207 85.1894 272.285 84.7187 272.285 84.1818C272.285 83.6515 272.209 83.1875 272.056 82.7898C271.904 82.392 271.68 82.0821 271.385 81.8601C271.09 81.638 270.726 81.527 270.292 81.527C269.844 81.527 269.471 81.643 269.173 81.875C268.875 82.107 268.649 82.4235 268.497 82.8246C268.348 83.2256 268.273 83.678 268.273 84.1818C268.273 84.6922 268.349 85.1513 268.502 85.5589C268.654 85.9666 268.88 86.2898 269.178 86.5284C269.48 86.7637 269.851 86.8814 270.292 86.8814ZM275.868 88V80.3636H277.355V88H275.868ZM276.619 79.1854C276.361 79.1854 276.139 79.0992 275.953 78.9268C275.771 78.7512 275.68 78.5424 275.68 78.3004C275.68 78.0552 275.771 77.8464 275.953 77.674C276.139 77.4983 276.361 77.4105 276.619 77.4105C276.878 77.4105 277.098 77.4983 277.28 77.674C277.466 77.8464 277.559 78.0552 277.559 78.3004C277.559 78.5424 277.466 78.7512 277.28 78.9268C277.098 79.0992 276.878 79.1854 276.619 79.1854ZM32.7216 106.228L31.3743 106.467C31.3179 106.294 31.2285 106.13 31.1058 105.974C30.9865 105.819 30.8241 105.691 30.6186 105.592C30.4131 105.492 30.1563 105.442 29.848 105.442C29.4271 105.442 29.0758 105.537 28.794 105.726C28.5123 105.911 28.3714 106.152 28.3714 106.447C28.3714 106.702 28.4659 106.907 28.6548 107.063C28.8438 107.219 29.1487 107.347 29.5696 107.446L30.7827 107.724C31.4853 107.887 32.009 108.137 32.3537 108.475C32.6984 108.813 32.8707 109.252 32.8707 109.793C32.8707 110.25 32.7382 110.658 32.473 111.016C32.2112 111.37 31.8449 111.649 31.3743 111.851C30.907 112.053 30.3651 112.154 29.7486 112.154C28.8935 112.154 28.1958 111.972 27.6555 111.607C27.1153 111.239 26.7839 110.717 26.6612 110.041L28.098 109.822C28.1875 110.197 28.3714 110.48 28.6499 110.673C28.9283 110.862 29.2912 110.956 29.7386 110.956C30.2259 110.956 30.6153 110.855 30.907 110.653C31.1986 110.447 31.3445 110.197 31.3445 109.902C31.3445 109.663 31.255 109.463 31.076 109.3C30.9003 109.138 30.6302 109.015 30.2656 108.933L28.973 108.649C28.2604 108.487 27.7334 108.228 27.392 107.874C27.054 107.519 26.8849 107.07 26.8849 106.526C26.8849 106.076 27.0109 105.681 27.2628 105.343C27.5147 105.005 27.8627 104.741 28.3068 104.553C28.7509 104.36 29.2597 104.264 29.8331 104.264C30.6584 104.264 31.308 104.443 31.782 104.801C32.2559 105.156 32.5691 105.631 32.7216 106.228ZM37.7963 112.154C37.044 112.154 36.396 111.993 35.8525 111.672C35.3122 111.347 34.8946 110.891 34.5996 110.305C34.3079 109.715 34.1621 109.024 34.1621 108.232C34.1621 107.449 34.3079 106.76 34.5996 106.163C34.8946 105.567 35.3056 105.101 35.8326 104.766C36.3629 104.432 36.9827 104.264 37.6919 104.264C38.1228 104.264 38.5404 104.335 38.9448 104.478C39.3491 104.621 39.7121 104.844 40.0336 105.149C40.3551 105.454 40.6086 105.85 40.7942 106.337C40.9798 106.821 41.0726 107.41 41.0726 108.102V108.629H35.0023V107.516H39.6159C39.6159 107.125 39.5364 106.778 39.3773 106.477C39.2182 106.172 38.9945 105.931 38.7061 105.756C38.4211 105.58 38.0864 105.492 37.7019 105.492C37.2843 105.492 36.9197 105.595 36.6081 105.8C36.2999 106.003 36.0613 106.268 35.8922 106.596C35.7265 106.921 35.6436 107.274 35.6436 107.655V108.525C35.6436 109.035 35.7331 109.469 35.9121 109.827C36.0944 110.185 36.348 110.459 36.6728 110.648C36.9976 110.833 37.3771 110.926 37.8113 110.926C38.093 110.926 38.3498 110.886 38.5819 110.807C38.8139 110.724 39.0144 110.601 39.1834 110.439C39.3525 110.277 39.4817 110.076 39.5712 109.837L40.9782 110.091C40.8655 110.505 40.6633 110.868 40.3716 111.18C40.0833 111.488 39.7203 111.728 39.2828 111.901C38.8487 112.07 38.3532 112.154 37.7963 112.154ZM45.9386 112.154C45.2227 112.154 44.5979 111.99 44.0643 111.662C43.5307 111.334 43.1164 110.875 42.8214 110.285C42.5264 109.695 42.3789 109.005 42.3789 108.217C42.3789 107.424 42.5264 106.732 42.8214 106.138C43.1164 105.545 43.5307 105.085 44.0643 104.756C44.5979 104.428 45.2227 104.264 45.9386 104.264C46.6545 104.264 47.2792 104.428 47.8129 104.756C48.3465 105.085 48.7608 105.545 49.0558 106.138C49.3507 106.732 49.4982 107.424 49.4982 108.217C49.4982 109.005 49.3507 109.695 49.0558 110.285C48.7608 110.875 48.3465 111.334 47.8129 111.662C47.2792 111.99 46.6545 112.154 45.9386 112.154ZM45.9435 110.906C46.4076 110.906 46.792 110.784 47.0969 110.538C47.4019 110.293 47.6272 109.967 47.7731 109.559C47.9222 109.151 47.9968 108.702 47.9968 108.212C47.9968 107.724 47.9222 107.277 47.7731 106.869C47.6272 106.458 47.4019 106.129 47.0969 105.88C46.792 105.631 46.4076 105.507 45.9435 105.507C45.4762 105.507 45.0884 105.631 44.7802 105.88C44.4753 106.129 44.2482 106.458 44.0991 106.869C43.9532 107.277 43.8803 107.724 43.8803 108.212C43.8803 108.702 43.9532 109.151 44.0991 109.559C44.2482 109.967 44.4753 110.293 44.7802 110.538C45.0884 110.784 45.4762 110.906 45.9435 110.906ZM51.1575 112V104.364H52.5943V105.577H52.6738C52.813 105.166 53.0583 104.843 53.4096 104.607C53.7643 104.369 54.1653 104.249 54.6127 104.249C54.7056 104.249 54.8149 104.253 54.9409 104.259C55.0701 104.266 55.1712 104.274 55.2441 104.284V105.706C55.1845 105.689 55.0784 105.671 54.926 105.651C54.7735 105.628 54.621 105.616 54.4686 105.616C54.1172 105.616 53.804 105.691 53.5289 105.84C53.2572 105.986 53.0417 106.19 52.8826 106.452C52.7235 106.71 52.644 107.005 52.644 107.337V112H51.1575ZM58.6845 112.169C58.2006 112.169 57.7631 112.08 57.372 111.901C56.9809 111.718 56.671 111.455 56.4423 111.11C56.2169 110.765 56.1042 110.343 56.1042 109.842C56.1042 109.411 56.1871 109.057 56.3528 108.778C56.5185 108.5 56.7422 108.28 57.024 108.117C57.3057 107.955 57.6206 107.832 57.9686 107.749C58.3166 107.666 58.6712 107.603 59.0325 107.56C59.4899 107.507 59.8611 107.464 60.1461 107.431C60.4312 107.395 60.6383 107.337 60.7676 107.257C60.8968 107.178 60.9615 107.048 60.9615 106.869V106.835C60.9615 106.4 60.8388 106.064 60.5936 105.825C60.3516 105.587 59.9904 105.467 59.5098 105.467C59.0093 105.467 58.6149 105.578 58.3265 105.8C58.0415 106.019 57.8443 106.263 57.7349 106.531L56.3379 106.213C56.5036 105.749 56.7456 105.375 57.0637 105.089C57.3852 104.801 57.7548 104.592 58.1724 104.463C58.59 104.33 59.0292 104.264 59.4899 104.264C59.7948 104.264 60.118 104.301 60.4593 104.374C60.804 104.443 61.1255 104.572 61.4238 104.761C61.7254 104.95 61.9724 105.22 62.1646 105.572C62.3568 105.92 62.4529 106.372 62.4529 106.929V112H61.0012V110.956H60.9416C60.8455 111.148 60.7013 111.337 60.5091 111.523C60.3168 111.708 60.0699 111.862 59.7683 111.985C59.4667 112.108 59.1054 112.169 58.6845 112.169ZM59.0076 110.976C59.4186 110.976 59.7699 110.895 60.0616 110.732C60.3566 110.57 60.5803 110.358 60.7328 110.096C60.8886 109.831 60.9664 109.547 60.9664 109.246V108.261C60.9134 108.314 60.8107 108.364 60.6582 108.411C60.5091 108.454 60.3384 108.492 60.1461 108.525C59.9539 108.555 59.7666 108.583 59.5843 108.609C59.402 108.633 59.2496 108.652 59.127 108.669C58.8386 108.705 58.5751 108.767 58.3365 108.853C58.1011 108.939 57.9122 109.063 57.7697 109.226C57.6305 109.385 57.5609 109.597 57.5609 109.862C57.5609 110.23 57.6968 110.509 57.9686 110.697C58.2404 110.883 58.5867 110.976 59.0076 110.976ZM65.9194 107.466V112H64.4329V104.364H65.8597V105.607H65.9542C66.1299 105.202 66.4049 104.877 66.7795 104.632C67.1573 104.387 67.6329 104.264 68.2063 104.264C68.7267 104.264 69.1824 104.374 69.5735 104.592C69.9646 104.808 70.2679 105.129 70.4833 105.557C70.6987 105.984 70.8065 106.513 70.8065 107.143V112H69.32V107.322C69.32 106.768 69.1758 106.336 68.8874 106.024C68.5991 105.709 68.203 105.552 67.6992 105.552C67.3545 105.552 67.0479 105.626 66.7795 105.776C66.5143 105.925 66.3039 106.143 66.1481 106.432C65.9956 106.717 65.9194 107.062 65.9194 107.466ZM76.0018 115.023C75.3952 115.023 74.8732 114.943 74.4357 114.784C74.0015 114.625 73.6469 114.415 73.3718 114.153C73.0967 113.891 72.8912 113.604 72.7553 113.293L74.033 112.766C74.1225 112.911 74.2418 113.066 74.391 113.228C74.5434 113.394 74.7489 113.535 75.0075 113.651C75.2693 113.767 75.6057 113.825 76.0167 113.825C76.5801 113.825 77.0458 113.687 77.4137 113.412C77.7816 113.14 77.9656 112.706 77.9656 112.109V110.608H77.8711C77.7816 110.77 77.6523 110.951 77.4833 111.15C77.3176 111.349 77.0889 111.521 76.7972 111.667C76.5056 111.813 76.1261 111.886 75.6587 111.886C75.0555 111.886 74.512 111.745 74.0281 111.463C73.5475 111.178 73.1663 110.759 72.8846 110.205C72.6062 109.648 72.467 108.964 72.467 108.152C72.467 107.34 72.6045 106.644 72.8796 106.064C73.158 105.484 73.5392 105.04 74.0231 104.732C74.507 104.42 75.0555 104.264 75.6687 104.264C76.1426 104.264 76.5254 104.344 76.8171 104.503C77.1088 104.659 77.3358 104.841 77.4982 105.05C77.6639 105.259 77.7915 105.442 77.881 105.602H77.9904V104.364H79.4471V112.169C79.4471 112.825 79.2946 113.364 78.9897 113.785C78.6848 114.206 78.2721 114.517 77.7518 114.719C77.2347 114.922 76.6514 115.023 76.0018 115.023ZM75.9869 110.653C76.4144 110.653 76.7757 110.553 77.0707 110.354C77.369 110.152 77.5943 109.864 77.7468 109.489C77.9026 109.112 77.9805 108.659 77.9805 108.132C77.9805 107.618 77.9042 107.166 77.7518 106.775C77.5993 106.384 77.3756 106.079 77.0806 105.86C76.7856 105.638 76.421 105.527 75.9869 105.527C75.5394 105.527 75.1665 105.643 74.8683 105.875C74.57 106.104 74.3446 106.415 74.1921 106.81C74.043 107.204 73.9684 107.645 73.9684 108.132C73.9684 108.633 74.0446 109.072 74.1971 109.45C74.3496 109.827 74.5749 110.122 74.8732 110.335C75.1748 110.547 75.546 110.653 75.9869 110.653ZM85.2651 101.818H87.1294L90.3709 109.733H90.4902L93.7317 101.818H95.5961V112H94.1344V104.632H94.04L91.0371 111.985H89.824L86.8212 104.627H86.7267V112H85.2651V101.818ZM99.9325 112.169C99.4486 112.169 99.0111 112.08 98.62 111.901C98.2289 111.718 97.919 111.455 97.6903 111.11C97.465 110.765 97.3523 110.343 97.3523 109.842C97.3523 109.411 97.4351 109.057 97.6009 108.778C97.7666 108.5 97.9903 108.28 98.272 108.117C98.5537 107.955 98.8686 107.832 99.2166 107.749C99.5646 107.666 99.9193 107.603 100.281 107.56C100.738 107.507 101.109 107.464 101.394 107.431C101.679 107.395 101.886 107.337 102.016 107.257C102.145 107.178 102.21 107.048 102.21 106.869V106.835C102.21 106.4 102.087 106.064 101.842 105.825C101.6 105.587 101.238 105.467 100.758 105.467C100.257 105.467 99.8629 105.578 99.5746 105.8C99.2895 106.019 99.0923 106.263 98.983 106.531L97.5859 106.213C97.7517 105.749 97.9936 105.375 98.3118 105.089C98.6333 104.801 99.0028 104.592 99.4205 104.463C99.8381 104.33 100.277 104.264 100.738 104.264C101.043 104.264 101.366 104.301 101.707 104.374C102.052 104.443 102.374 104.572 102.672 104.761C102.973 104.95 103.22 105.22 103.413 105.572C103.605 105.92 103.701 106.372 103.701 106.929V112H102.249V110.956H102.19C102.094 111.148 101.949 111.337 101.757 111.523C101.565 111.708 101.318 111.862 101.016 111.985C100.715 112.108 100.353 112.169 99.9325 112.169ZM100.256 110.976C100.667 110.976 101.018 110.895 101.31 110.732C101.605 110.57 101.828 110.358 101.981 110.096C102.137 109.831 102.214 109.547 102.214 109.246V108.261C102.161 108.314 102.059 108.364 101.906 108.411C101.757 108.454 101.586 108.492 101.394 108.525C101.202 108.555 101.015 108.583 100.832 108.609C100.65 108.633 100.498 108.652 100.375 108.669C100.087 108.705 99.8232 108.767 99.5845 108.853C99.3492 108.939 99.1603 109.063 99.0178 109.226C98.8786 109.385 98.8089 109.597 98.8089 109.862C98.8089 110.23 98.9448 110.509 99.2166 110.697C99.4884 110.883 99.8348 110.976 100.256 110.976ZM105.681 112V104.364H107.118V105.577H107.197C107.336 105.166 107.582 104.843 107.933 104.607C108.288 104.369 108.689 104.249 109.136 104.249C109.229 104.249 109.338 104.253 109.464 104.259C109.594 104.266 109.695 104.274 109.768 104.284V105.706C109.708 105.689 109.602 105.671 109.449 105.651C109.297 105.628 109.144 105.616 108.992 105.616C108.641 105.616 108.327 105.691 108.052 105.84C107.781 105.986 107.565 106.19 107.406 106.452C107.247 106.71 107.167 107.005 107.167 107.337V112H105.681ZM112.421 109.41L112.411 107.595H112.67L115.712 104.364H117.492L114.022 108.043H113.788L112.421 109.41ZM111.054 112V101.818H112.54V112H111.054ZM115.876 112L113.142 108.371L114.166 107.332L117.701 112H115.876ZM121.824 112.154C121.071 112.154 120.423 111.993 119.88 111.672C119.34 111.347 118.922 110.891 118.627 110.305C118.335 109.715 118.189 109.024 118.189 108.232C118.189 107.449 118.335 106.76 118.627 106.163C118.922 105.567 119.333 105.101 119.86 104.766C120.39 104.432 121.01 104.264 121.719 104.264C122.15 104.264 122.568 104.335 122.972 104.478C123.376 104.621 123.739 104.844 124.061 105.149C124.382 105.454 124.636 105.85 124.822 106.337C125.007 106.821 125.1 107.41 125.1 108.102V108.629H119.03V107.516H123.643C123.643 107.125 123.564 106.778 123.405 106.477C123.246 106.172 123.022 105.931 122.733 105.756C122.448 105.58 122.114 105.492 121.729 105.492C121.312 105.492 120.947 105.595 120.635 105.8C120.327 106.003 120.089 106.268 119.92 106.596C119.754 106.921 119.671 107.274 119.671 107.655V108.525C119.671 109.035 119.76 109.469 119.939 109.827C120.122 110.185 120.375 110.459 120.7 110.648C121.025 110.833 121.404 110.926 121.839 110.926C122.12 110.926 122.377 110.886 122.609 110.807C122.841 110.724 123.042 110.601 123.211 110.439C123.38 110.277 123.509 110.076 123.599 109.837L125.006 110.091C124.893 110.505 124.691 110.868 124.399 111.18C124.111 111.488 123.748 111.728 123.31 111.901C122.876 112.07 122.381 112.154 121.824 112.154ZM130.314 104.364V105.557H126.143V104.364H130.314ZM127.261 102.534H128.748V109.758C128.748 110.046 128.791 110.263 128.877 110.409C128.963 110.552 129.074 110.649 129.21 110.702C129.349 110.752 129.5 110.777 129.663 110.777C129.782 110.777 129.886 110.769 129.976 110.752C130.065 110.736 130.135 110.722 130.185 110.712L130.453 111.94C130.367 111.973 130.244 112.007 130.085 112.04C129.926 112.076 129.727 112.096 129.489 112.099C129.098 112.106 128.733 112.036 128.395 111.891C128.057 111.745 127.783 111.519 127.575 111.214C127.366 110.91 127.261 110.527 127.261 110.066V102.534ZM131.958 112V104.364H133.445V112H131.958ZM132.709 103.185C132.45 103.185 132.228 103.099 132.043 102.927C131.86 102.751 131.769 102.542 131.769 102.3C131.769 102.055 131.86 101.846 132.043 101.674C132.228 101.498 132.45 101.411 132.709 101.411C132.968 101.411 133.188 101.498 133.37 101.674C133.556 101.846 133.649 102.055 133.649 102.3C133.649 102.542 133.556 102.751 133.37 102.927C133.188 103.099 132.968 103.185 132.709 103.185ZM136.931 107.466V112H135.445V104.364H136.871V105.607H136.966C137.142 105.202 137.417 104.877 137.791 104.632C138.169 104.387 138.645 104.264 139.218 104.264C139.738 104.264 140.194 104.374 140.585 104.592C140.976 104.808 141.28 105.129 141.495 105.557C141.71 105.984 141.818 106.513 141.818 107.143V112H140.332V107.322C140.332 106.768 140.188 106.336 139.899 106.024C139.611 105.709 139.215 105.552 138.711 105.552C138.366 105.552 138.06 105.626 137.791 105.776C137.526 105.925 137.316 106.143 137.16 106.432C137.007 106.717 136.931 107.062 136.931 107.466ZM147.013 115.023C146.407 115.023 145.885 114.943 145.447 114.784C145.013 114.625 144.659 114.415 144.384 114.153C144.108 113.891 143.903 113.604 143.767 113.293L145.045 112.766C145.134 112.911 145.254 113.066 145.403 113.228C145.555 113.394 145.761 113.535 146.019 113.651C146.281 113.767 146.617 113.825 147.028 113.825C147.592 113.825 148.058 113.687 148.425 113.412C148.793 113.14 148.977 112.706 148.977 112.109V110.608H148.883C148.793 110.77 148.664 110.951 148.495 111.15C148.329 111.349 148.101 111.521 147.809 111.667C147.517 111.813 147.138 111.886 146.67 111.886C146.067 111.886 145.524 111.745 145.04 111.463C144.559 111.178 144.178 110.759 143.896 110.205C143.618 109.648 143.479 108.964 143.479 108.152C143.479 107.34 143.616 106.644 143.891 106.064C144.17 105.484 144.551 105.04 145.035 104.732C145.519 104.42 146.067 104.264 146.68 104.264C147.154 104.264 147.537 104.344 147.829 104.503C148.121 104.659 148.348 104.841 148.51 105.05C148.676 105.259 148.803 105.442 148.893 105.602H149.002V104.364H150.459V112.169C150.459 112.825 150.306 113.364 150.001 113.785C149.696 114.206 149.284 114.517 148.763 114.719C148.246 114.922 147.663 115.023 147.013 115.023ZM146.999 110.653C147.426 110.653 147.787 110.553 148.082 110.354C148.381 110.152 148.606 109.864 148.759 109.489C148.914 109.112 148.992 108.659 148.992 108.132C148.992 107.618 148.916 107.166 148.763 106.775C148.611 106.384 148.387 106.079 148.092 105.86C147.797 105.638 147.433 105.527 146.999 105.527C146.551 105.527 146.178 105.643 145.88 105.875C145.582 106.104 145.356 106.415 145.204 106.81C145.055 107.204 144.98 107.645 144.98 108.132C144.98 108.633 145.056 109.072 145.209 109.45C145.361 109.827 145.587 110.122 145.885 110.335C146.187 110.547 146.558 110.653 146.999 110.653Z" fill="#4A5568"/>
</g>
<defs>
<filter id="filter0_d_5129_20210" x="0.217206" y="0.940054" width="342.36" height="163.36" filterUnits="userSpaceOnUse" color-interpolation-filters="sRGB">
<feFlood flood-opacity="0" result="BackgroundImageFix"/>
<feColorMatrix in="SourceAlpha" type="matrix" values="0 0 0 0 0 0 0 0 0 0 0 0 0 0 0 0 0 0 127 0" result="hardAlpha"/>
<feOffset dx="9.39704" dy="10.1199"/>
<feGaussianBlur stdDeviation="7.58992"/>
<feComposite in2="hardAlpha" operator="out"/>
<feColorMatrix type="matrix" values="0 0 0 0 0.0375 0 0 0 0 0.18975 0 0 0 0 0.3 0 0 0 0.06 0"/>
<feBlend mode="normal" in2="BackgroundImageFix" result="effect1_dropShadow_5129_20210"/>
<feBlend mode="normal" in="SourceGraphic" in2="effect1_dropShadow_5129_20210" result="shape"/>
</filter>
</defs>
</svg>
