<svg width="85" height="85" viewBox="0 0 85 85" fill="none" xmlns="http://www.w3.org/2000/svg">
<g clip-path="url(#clip0_4467_20303)">
<path d="M41.5204 56.223C48.7791 56.3609 56.5637 54.2082 55.7577 43.5974C52.2656 43.5975 27.8204 43.5974 27.8204 43.5974C27.8204 54.4769 34.4212 56.088 41.5204 56.223Z" fill="#665E66"/>
<path d="M55.7582 44.2694L55.7582 41.3144L43.2356 47.5758C42.1584 48.1144 40.8884 48.1046 39.8197 47.5492L27.8208 41.3144L27.8208 43.8664L38.8438 49.8102C40.5238 50.7161 42.5379 50.7548 44.2515 49.9142L55.7582 44.2694Z" fill="#454045"/>
<path d="M38.7022 55.8201C49.0443 56.626 56.163 54.3426 55.7601 44.269H49.0444C48.1042 52.3279 45.2836 54.8799 38.7022 55.8201Z" fill="#454045"/>
<path d="M44.4309 23.4482L62.7356 33.1786C64.6317 34.1865 64.6373 36.9017 62.7453 37.9174L44.48 47.7229C42.7186 48.6686 40.5984 48.6595 38.8451 47.6989L20.7688 37.7954C18.8949 36.7687 18.9116 34.0713 20.798 33.0679L38.8816 23.4489C40.6162 22.5262 42.696 22.526 44.4309 23.4482Z" fill="#665E66"/>
<path d="M50.4579 44.4075L42.1996 34.897C41.9278 34.5841 41.4538 34.5507 41.1409 34.8224C40.8279 35.0942 40.7945 35.5682 41.0663 35.8811L49.3243 45.3919C49.5961 45.7049 50.0702 45.7384 50.3833 45.4666C50.6963 45.1947 50.7298 44.7206 50.4579 44.4075Z" fill="#EAB14D"/>
<path d="M50.6732 57.218L50.6728 45.0195C50.6728 44.605 50.3368 44.269 49.9224 44.269C49.5079 44.269 49.1719 44.605 49.1719 45.0195V57.218C49.1719 57.6326 49.508 57.9687 49.9225 57.9687C50.3371 57.9687 50.6732 57.6326 50.6732 57.218Z" fill="#EAB14D"/>
<path d="M47.0249 61.1931C46.8906 62.9392 47.9651 63.745 49.9798 63.745C51.9945 63.745 52.9348 62.9392 52.8005 61.1931C52.1289 59.3127 50.9657 56.895 49.9799 56.895C48.771 56.895 47.5622 59.5813 47.0249 61.1931Z" fill="#F4DD45"/>
</g>
<defs>
<clipPath id="clip0_4467_20303">
<rect width="85" height="85" rx="16.0728" fill="white"/>
</clipPath>
</defs>
</svg>
