<svg width="85" height="85" viewBox="0 0 85 85" fill="none" xmlns="http://www.w3.org/2000/svg">
<g clip-path="url(#clip0_4467_20254)">
<path d="M53.7544 67.2525H31.002C29.9938 67.2525 29.1973 66.3874 29.3344 65.3885C30.4842 57.0089 34.1683 52.7216 35.9818 51.5864H48.6215C53.1672 55.1253 54.9223 61.531 55.3877 65.495C55.5005 66.4561 54.7221 67.2525 53.7544 67.2525Z" fill="#665E66"/>
<path d="M36.0654 51.5865C37.8605 54.6871 43.2576 59.384 50.4853 53.3668C48.6309 50.9041 43.1508 47.1004 36.0654 51.5865Z" fill="#454045"/>
<circle cx="42.3007" cy="45.0891" r="8.99019" fill="#665E66"/>
<path d="M36.8704 52.8329C31.9926 57.2835 30.4467 64.2264 30.2835 67.2083C29.6851 67.2083 29.2137 66.6933 29.2829 66.0989C30.3088 57.2897 34.1439 52.7819 36.0248 51.5422L36.8704 52.8329Z" fill="#8D858D"/>
<path d="M47.865 48.4712C42.5599 54.3816 36.7237 51.5569 34.4688 49.4058C35.3589 51.1504 36.6792 52.1503 37.2281 52.4322C43.637 56.6603 48.0876 51.8091 48.6216 51.5421C53.357 46.0946 50.7134 40.8162 48.7996 38.8579C50.9003 43.2373 49.0518 47.0915 47.865 48.4712Z" fill="#454045"/>
<path d="M37.1158 39.1247C33.1637 42.4359 33.6889 47.3879 34.4455 49.45C31.7039 44.6078 34.3369 40.1779 36.1171 38.5016C39.6776 35.0479 44.6326 36.0686 46.5315 37.1219C40.7902 35.3862 37.7834 38.8131 37.1158 39.1247Z" fill="#8D858D"/>
<path d="M19.0869 31.9168C19.4596 31.1809 20.0904 30.8942 20.8932 30.8368C21.6864 30.7795 22.4701 30.6075 23.2538 30.5119C23.4736 30.4832 23.5787 30.3877 23.6743 30.2061C24.0757 29.3937 24.4962 28.5909 24.8976 27.7786C25.1747 27.1956 25.6239 26.9185 26.2642 26.9185C26.9046 26.9185 27.3442 27.2147 27.6213 27.7881C28.0132 28.5909 28.4337 29.3746 28.8255 30.1678C28.9307 30.3781 29.0358 30.4737 29.2747 30.5023C30.2878 30.6361 31.3008 30.7604 32.2947 30.9515C33.3938 31.1618 33.7952 32.4615 33.0497 33.3026C32.9637 33.3981 32.8682 33.4841 32.7821 33.5702C32.1609 34.1627 31.5397 34.7552 30.909 35.3478C30.7465 35.5007 30.6796 35.6345 30.7274 35.883C30.8994 36.7526 31.0332 37.6319 31.1957 38.5111C31.3104 39.1228 31.1861 39.658 30.6796 40.0498C30.1731 40.4417 29.6283 40.4417 29.0645 40.1549C28.233 39.7249 27.392 39.3139 26.5701 38.8647C26.3503 38.7501 26.1782 38.7501 25.9584 38.8647C25.1652 39.2948 24.3528 39.6867 23.55 40.1167C22.9671 40.4225 22.3936 40.4608 21.8489 40.0498C21.3233 39.6484 21.2181 39.0941 21.3424 38.4633C21.5144 37.6032 21.6291 36.7335 21.8011 35.883C21.8489 35.6345 21.782 35.5007 21.6195 35.3478C21.113 34.8795 20.6256 34.4112 20.1286 33.9333C19.7559 33.5797 19.3545 33.2357 19.0965 32.7674C19.0869 32.4902 19.0869 32.2035 19.0869 31.9168Z" fill="#FFCC5B"/>
<path fill-rule="evenodd" clip-rule="evenodd" d="M27.9205 28.3853C28.0347 28.6108 28.1501 28.8353 28.2653 29.0596C28.4545 29.4279 28.6433 29.7955 28.8259 30.1651C28.931 30.3753 29.0361 30.4709 29.2751 30.4996C29.3977 30.5157 29.5203 30.5318 29.6429 30.5479C30.5331 30.6644 31.4214 30.7807 32.2951 30.9487C33.3941 31.159 33.7955 32.4587 33.0501 33.2998C32.9924 33.3639 32.9304 33.4237 32.8699 33.482C32.8402 33.5107 32.8108 33.539 32.7825 33.5674C32.1613 34.1599 31.5401 34.7524 30.9093 35.345C30.7468 35.4979 30.6799 35.6317 30.7277 35.8802C30.8278 36.386 30.9149 36.8951 31.0023 37.4056C31.0651 37.7727 31.128 38.1405 31.196 38.5083C31.3107 39.12 31.1865 39.6552 30.6799 40.047C30.1734 40.4389 29.6287 40.4389 29.0648 40.1522C28.7876 40.0088 28.5094 39.8676 28.2312 39.7263C27.6748 39.4439 27.1184 39.1614 26.5704 38.862C26.3506 38.7473 26.1786 38.7473 25.9588 38.862C25.5409 39.0885 25.1178 39.3044 24.6935 39.5209C24.3123 39.7154 23.9303 39.9104 23.5504 40.1139C23.4883 40.1465 23.4262 40.1761 23.3643 40.2024C23.0603 39.2013 22.8936 38.1136 22.8936 36.9764C22.8936 32.9226 25.0121 29.4968 27.9205 28.3853Z" fill="#FEBD2F"/>
<path d="M35.1553 23.597C35.528 22.8611 36.1588 22.5744 36.9616 22.517C37.7548 22.4597 38.5385 22.2876 39.3221 22.1921C39.542 22.1634 39.6471 22.0678 39.7426 21.8863C40.144 21.0739 40.5646 20.2711 40.9659 19.4588C41.2431 18.8758 41.6923 18.5986 42.3326 18.5986C42.9729 18.5986 43.4125 18.8949 43.6897 19.4683C44.0815 20.2711 44.502 21.0548 44.8939 21.848C44.999 22.0583 45.1041 22.1538 45.3431 22.1825C46.3561 22.3163 47.3692 22.4406 48.3631 22.6317C49.4621 22.842 49.8635 24.1417 49.1181 24.9827C49.0321 25.0783 48.9365 25.1643 48.8505 25.2503C48.2293 25.8429 47.6081 26.4354 46.9773 27.0279C46.8149 27.1808 46.748 27.3146 46.7957 27.5631C46.9678 28.4328 47.1016 29.3121 47.264 30.1913C47.3787 30.803 47.2545 31.3382 46.748 31.73C46.2414 32.1218 45.6967 32.1218 45.1328 31.8351C44.3014 31.4051 43.4603 30.9941 42.6384 30.5449C42.4186 30.4302 42.2466 30.4302 42.0268 30.5449C41.2335 30.975 40.4212 31.3668 39.6184 31.7969C39.0354 32.1027 38.462 32.1409 37.9173 31.73C37.3916 31.3286 37.2865 30.7743 37.4107 30.1435C37.5828 29.2834 37.6974 28.4137 37.8695 27.5631C37.9173 27.3146 37.8504 27.1808 37.6879 27.0279C37.1814 26.5596 36.694 26.0913 36.197 25.6135C35.8243 25.2599 35.4229 24.9158 35.1648 24.4475C35.1553 24.1704 35.1553 23.8837 35.1553 23.597Z" fill="#FFCC5B"/>
<path fill-rule="evenodd" clip-rule="evenodd" d="M43.9801 20.0652C44.0943 20.2907 44.2097 20.5153 44.3248 20.7395C44.5141 21.1079 44.7029 21.4754 44.8854 21.845C44.9906 22.0552 45.0957 22.1508 45.3346 22.1795C45.4572 22.1957 45.5799 22.2117 45.7024 22.2278C46.5926 22.3443 47.481 22.4607 48.3546 22.6287C49.4537 22.8389 49.8551 24.1387 49.1097 24.9797C49.052 25.0438 48.99 25.1036 48.9295 25.162C48.8997 25.1906 48.8704 25.219 48.8421 25.2473C48.2208 25.8398 47.5996 26.4324 46.9689 27.0249C46.8064 27.1778 46.7395 27.3116 46.7873 27.5601C46.8874 28.0659 46.9745 28.575 47.0618 29.0855C47.1247 29.4526 47.1876 29.8204 47.2556 30.1883C47.3703 30.7999 47.246 31.3351 46.7395 31.727C46.233 32.1188 45.6882 32.1188 45.1244 31.8321C44.8472 31.6887 44.569 31.5475 44.2908 31.4063C43.7344 31.1238 43.1779 30.8413 42.63 30.5419C42.4102 30.4272 42.2381 30.4272 42.0183 30.5419C41.6005 30.7684 41.1773 30.9844 40.7531 31.2009C40.3719 31.3954 39.9899 31.5903 39.61 31.7939C39.5478 31.8265 39.4858 31.856 39.4239 31.8823C39.1198 30.8812 38.9531 29.7935 38.9531 28.6564C38.9531 24.6026 41.0716 21.1768 43.9801 20.0652Z" fill="#FEBD2F"/>
<path d="M51.209 31.9168C51.5817 31.1809 52.2125 30.8942 53.0153 30.8368C53.8085 30.7795 54.5922 30.6075 55.3758 30.5119C55.5957 30.4832 55.7008 30.3877 55.7964 30.2061C56.1978 29.3937 56.6183 28.5909 57.0197 27.7786C57.2968 27.1956 57.746 26.9185 58.3863 26.9185C59.0266 26.9185 59.4663 27.2147 59.7434 27.7881C60.1353 28.5909 60.5558 29.3746 60.9476 30.1678C61.0527 30.3781 61.1579 30.4737 61.3968 30.5023C62.4098 30.6361 63.4229 30.7604 64.4168 30.9515C65.5159 31.1618 65.9173 32.4615 65.1718 33.3026C65.0858 33.3981 64.9902 33.4841 64.9042 33.5702C64.283 34.1627 63.6618 34.7552 63.031 35.3478C62.8686 35.5007 62.8017 35.6345 62.8494 35.883C63.0215 36.7526 63.1553 37.6319 63.3177 38.5111C63.4324 39.1228 63.3082 39.658 62.8017 40.0498C62.2951 40.4417 61.7504 40.4417 61.1865 40.1549C60.3551 39.7249 59.514 39.3139 58.6921 38.8647C58.4723 38.7501 58.3003 38.7501 58.0805 38.8647C57.2873 39.2948 56.4749 39.6867 55.6721 40.1167C55.0891 40.4225 54.5157 40.4608 53.971 40.0498C53.4453 39.6484 53.3402 39.0941 53.4644 38.4633C53.6365 37.6032 53.7512 36.7335 53.9232 35.883C53.971 35.6345 53.9041 35.5007 53.7416 35.3478C53.2351 34.8795 52.7477 34.4112 52.2507 33.9333C51.878 33.5797 51.4766 33.2357 51.2185 32.7674C51.209 32.4902 51.209 32.2035 51.209 31.9168Z" fill="#FFC851"/>
<path fill-rule="evenodd" clip-rule="evenodd" d="M60.0465 28.3853C60.1607 28.6108 60.2761 28.8353 60.3913 29.0596C60.5805 29.4279 60.7693 29.7955 60.9518 30.1651C61.057 30.3753 61.1621 30.4709 61.401 30.4996C61.5236 30.5157 61.6463 30.5318 61.7688 30.5479C62.659 30.6644 63.5474 30.7807 64.4211 30.9487C65.5201 31.159 65.9215 32.4587 65.1761 33.2998C65.1184 33.3639 65.0564 33.4237 64.9959 33.482C64.9662 33.5107 64.9368 33.539 64.9085 33.5674C64.2873 34.1599 63.666 34.7524 63.0353 35.345C62.8728 35.4979 62.8059 35.6317 62.8537 35.8802C62.9538 36.386 63.0409 36.8951 63.1282 37.4056C63.1911 37.7727 63.254 38.1405 63.322 38.5083C63.4367 39.12 63.3124 39.6552 62.8059 40.047C62.2994 40.4389 61.7546 40.4389 61.1908 40.1522C60.9136 40.0088 60.6354 39.8676 60.3572 39.7263C59.8008 39.4439 59.2443 39.1614 58.6964 38.862C58.4766 38.7473 58.3046 38.7473 58.0847 38.862C57.6669 39.0885 57.2437 39.3044 56.8195 39.5209C56.4383 39.7154 56.0563 39.9104 55.6764 40.1139C55.6142 40.1465 55.5522 40.1761 55.4903 40.2024C55.1862 39.2013 55.0195 38.1136 55.0195 36.9764C55.0195 32.9226 57.138 29.4968 60.0465 28.3853Z" fill="#FEBD2F"/>
</g>
<defs>
<clipPath id="clip0_4467_20254">
<rect width="85" height="85" rx="16.0728" fill="white"/>
</clipPath>
</defs>
</svg>
