<svg width="39" height="39" viewBox="0 0 39 39" fill="none" xmlns="http://www.w3.org/2000/svg">
<rect y="4.14233" width="39" height="34.2325" rx="2.34469" fill="#FFA600"/>
<rect y="6.64331" width="39" height="6.56513" fill="#4C6C8D"/>
<path fill-rule="evenodd" clip-rule="evenodd" d="M6.64324 2.18838C6.64324 0.979769 7.62301 0 8.83162 0C10.0402 0 11.02 0.97977 11.02 2.18838V4.14235H27.9016V2.18839C27.9016 0.979786 28.8814 1.72163e-05 30.09 1.72163e-05C31.2986 1.72163e-05 32.2784 0.979787 32.2784 2.18839V4.14235H36.6553C37.9502 4.14235 39 5.1921 39 6.48704V8.36279C39 9.65772 37.9502 10.7075 36.6553 10.7075H2.34469C1.04975 10.7075 0 9.65772 0 8.36279V6.48704C0 5.1921 1.04975 4.14235 2.34469 4.14235H6.64324V2.18838Z" fill="#4C6C8D"/>
<rect x="28.3708" y="18.6793" width="4.84569" height="4.84569" rx="0.781563" fill="#4C6C8D"/>
<rect x="28.3708" y="27.9799" width="4.84569" height="4.84569" rx="0.781563" fill="#4C6C8D"/>
<rect x="5.86182" y="27.9799" width="4.84569" height="4.84569" rx="0.781563" fill="#4C6C8D"/>
<rect x="17.1165" y="27.9799" width="4.84569" height="4.84569" rx="0.781563" fill="#4C6C8D"/>
<rect x="17.1165" y="18.6793" width="4.84569" height="4.84569" rx="0.781563" fill="#4C6C8D"/>
<rect x="5.86182" y="18.6793" width="4.84569" height="4.84569" rx="0.781563" fill="#4C6C8D"/>
<path d="M0.0392076 13.2085C0.999424 8.43834 4.80098 5.34593 6.63197 4.36452C6.66388 4.34741 6.68249 4.31503 6.68249 4.27883C6.68249 4.22502 6.63887 4.1814 6.58506 4.1814H2.34482C0.218967 4.24392 -0.0780268 5.95294 0.0392076 6.79963V13.2085Z" fill="#8A9FB5" fill-opacity="0.45"/>
<path d="M29.0742 38.3748C37.1083 33.7697 37.7415 19.6784 37.0538 13.2084H39.0001L38.9636 36.8141C38.9622 37.6764 38.2628 38.3748 37.4004 38.3748H29.0742Z" fill="#DC9002" fill-opacity="0.44"/>
</svg>
