<svg width="224" height="178" viewBox="0 0 224 178" fill="none" xmlns="http://www.w3.org/2000/svg">
<g filter="url(#filter0_dd_5129_22226)">
<path d="M192 14H34C22.9543 14 14 22.9543 14 34V146C14 157.046 22.9543 166 34 166H192C203.046 166 212 157.046 212 146V34C212 22.9543 203.046 14 192 14Z" fill="#EDF2F7"/>
<path d="M109.135 79.4722H115.812C116.379 79.9578 116.048 80.4839 115.812 80.6862H109.135C108.487 80.2006 108.865 79.6745 109.135 79.4722Z" fill="#61BAAE"/>
<path d="M109.096 81.0908H115.9C116.477 81.7383 116.141 82.4398 115.9 82.7096H109.096C108.437 82.0621 108.821 81.3606 109.096 81.0908Z" fill="#61BAAE"/>
<path d="M108.831 78.9657H112.574V65.0039C110.389 64.923 108.628 66.1168 108.021 66.7238C104.865 69.7186 106.099 73.435 107.111 74.9188C108.568 76.2138 108.865 78.1563 108.831 78.9657Z" fill="#FFCF54"/>
<path d="M116.22 78.9657H112.477V65.0039C114.662 64.923 116.422 66.1168 117.029 66.7238C120.186 69.7186 118.952 73.435 117.94 74.9188C116.483 76.2138 116.186 78.1563 116.22 78.9657Z" fill="#FFCF54"/>
<path d="M110.958 82.3052H114.195V83.2157C112.819 83.7823 111.464 83.4518 110.958 83.2157V82.3052Z" fill="#61BAAE"/>
<path opacity="0.4" d="M113.594 79.0002C116.469 70.3739 114.262 66.1981 112.551 65C120.768 65.8216 119.584 71.8116 118.213 74.8925C116.981 75.3032 116.331 77.8021 116.159 79.0002H113.594Z" fill="#D3AC46"/>
<path fill-rule="evenodd" clip-rule="evenodd" d="M92.818 73.3372V75.4964L89.1641 77.8216L90.8249 83.3854L95.1432 83.5515L96.1397 85.5446L94.1466 89.2815L98.2157 93.1845L102.036 91.2745L103.946 92.5202L104.195 96.5893L109.676 98.001L111.918 94.5132H114.326L116.402 98.001L122.132 96.5893V92.5202L124.208 91.2745L127.862 93.1845L132.014 89.1154L130.021 85.3785L131.184 83.3854H135.253L136.831 77.6555L133.26 75.4964V73.2542L136.831 70.929L135.253 65.3651L131.018 65.199L129.855 63.289L131.848 59.6351L128.111 55.7321L123.959 57.393L122.132 56.3965L121.966 52.2443L116.485 50.6665L114.077 54.1543H111.752L109.51 50.6665L104.112 52.2443L103.78 56.3965L101.953 57.393L98.1327 55.566L94.0636 59.7182L96.0566 63.3721L94.9771 65.2821L90.6588 65.4482L89.1641 70.929L92.818 73.3372ZM112.999 89.0325C121.117 89.0325 127.698 82.4517 127.698 74.3339C127.698 66.216 121.117 59.6353 112.999 59.6353C104.882 59.6353 98.3008 66.216 98.3008 74.3339C98.3008 82.4517 104.882 89.0325 112.999 89.0325Z" fill="#449F93"/>
<path d="M60.415 118.479V115.909H71.4797V118.479H67.5102V129H64.3909V118.479H60.415ZM76.1906 129.185C75.1636 129.185 74.2773 128.983 73.5315 128.578C72.79 128.169 72.219 127.587 71.8184 126.833C71.4221 126.075 71.224 125.173 71.224 124.129C71.224 123.115 71.4243 122.229 71.8248 121.47C72.2254 120.707 72.79 120.115 73.5187 119.693C74.2474 119.267 75.1061 119.054 76.0947 119.054C76.7936 119.054 77.4328 119.163 78.0123 119.38C78.5919 119.597 79.0926 119.919 79.5145 120.345C79.9363 120.771 80.2645 121.298 80.4988 121.924C80.7332 122.546 80.8504 123.26 80.8504 124.065V124.845H72.317V123.03H77.942C77.9378 122.697 77.8589 122.401 77.7055 122.141C77.5521 121.881 77.3412 121.679 77.0727 121.534C76.8085 121.385 76.5038 121.31 76.1586 121.31C75.8092 121.31 75.496 121.389 75.219 121.547C74.942 121.7 74.7226 121.911 74.5606 122.18C74.3987 122.444 74.3135 122.744 74.305 123.081V124.928C74.305 125.329 74.3838 125.68 74.5415 125.983C74.6991 126.281 74.9229 126.513 75.2126 126.68C75.5024 126.846 75.8476 126.929 76.2481 126.929C76.5251 126.929 76.7765 126.891 77.0024 126.814C77.2282 126.737 77.4221 126.624 77.5841 126.475C77.746 126.326 77.8675 126.143 77.9484 125.925L80.8184 126.009C80.6991 126.652 80.4371 127.212 80.0322 127.69C79.6317 128.163 79.1054 128.531 78.4534 128.795C77.8014 129.055 77.0471 129.185 76.1906 129.185ZM91.0186 122.18L88.1485 122.256C88.1187 122.052 88.0377 121.871 87.9056 121.713C87.7735 121.551 87.6009 121.425 87.3879 121.336C87.1791 121.242 86.9362 121.195 86.6592 121.195C86.297 121.195 85.988 121.268 85.7323 121.413C85.4809 121.558 85.3573 121.754 85.3616 122.001C85.3573 122.192 85.434 122.359 85.5917 122.499C85.7536 122.64 86.0413 122.753 86.4546 122.838L88.3467 123.196C89.3268 123.384 90.0555 123.695 90.5328 124.129C91.0143 124.564 91.2572 125.139 91.2615 125.855C91.2572 126.528 91.0569 127.114 90.6606 127.613C90.2686 128.112 89.7316 128.499 89.0498 128.776C88.368 129.049 87.5882 129.185 86.7103 129.185C85.3083 129.185 84.2025 128.898 83.3928 128.322C82.5874 127.743 82.1272 126.967 82.0122 125.996L85.0995 125.919C85.1677 126.277 85.3445 126.55 85.6301 126.737C85.9156 126.925 86.2799 127.018 86.7231 127.018C87.1237 127.018 87.4497 126.944 87.7011 126.795C87.9525 126.646 88.0803 126.447 88.0846 126.2C88.0803 125.979 87.9823 125.802 87.7906 125.67C87.5988 125.533 87.2984 125.427 86.8893 125.35L85.1762 125.024C84.1919 124.845 83.4589 124.515 82.9774 124.033C82.4958 123.548 82.2572 122.93 82.2615 122.18C82.2572 121.523 82.4319 120.963 82.7856 120.499C83.1393 120.03 83.6421 119.672 84.2941 119.425C84.9461 119.178 85.7153 119.054 86.6017 119.054C87.9312 119.054 88.9795 119.333 89.7465 119.891C90.5136 120.445 90.9376 121.208 91.0186 122.18ZM96.6675 129V115.909H99.8316V121.445H100.004L104.332 115.909H108.058L103.418 121.751L108.141 129H104.357L101.097 123.854L99.8316 125.452V129H96.6675ZM113.169 129.185C112.137 129.185 111.251 128.974 110.509 128.553C109.772 128.126 109.203 127.534 108.803 126.776C108.407 126.013 108.208 125.129 108.208 124.123C108.208 123.113 108.407 122.229 108.803 121.47C109.203 120.707 109.772 120.115 110.509 119.693C111.251 119.267 112.137 119.054 113.169 119.054C114.2 119.054 115.084 119.267 115.821 119.693C116.563 120.115 117.132 120.707 117.528 121.47C117.929 122.229 118.129 123.113 118.129 124.123C118.129 125.129 117.929 126.013 117.528 126.776C117.132 127.534 116.563 128.126 115.821 128.553C115.084 128.974 114.2 129.185 113.169 129.185ZM113.188 126.827C113.563 126.827 113.88 126.712 114.14 126.482C114.4 126.251 114.598 125.932 114.735 125.523C114.875 125.114 114.946 124.641 114.946 124.104C114.946 123.558 114.875 123.081 114.735 122.672C114.598 122.263 114.4 121.943 114.14 121.713C113.88 121.483 113.563 121.368 113.188 121.368C112.8 121.368 112.472 121.483 112.203 121.713C111.939 121.943 111.737 122.263 111.596 122.672C111.46 123.081 111.392 123.558 111.392 124.104C111.392 124.641 111.46 125.114 111.596 125.523C111.737 125.932 111.939 126.251 112.203 126.482C112.472 126.712 112.8 126.827 113.188 126.827ZM124.307 132.886C123.373 132.886 122.574 132.756 121.91 132.496C121.245 132.237 120.723 131.881 120.344 131.429C119.964 130.977 119.736 130.466 119.66 129.895L122.619 129.729C122.675 129.929 122.777 130.104 122.926 130.253C123.079 130.402 123.278 130.517 123.521 130.598C123.768 130.679 124.057 130.719 124.39 130.719C124.914 130.719 125.347 130.592 125.687 130.336C126.033 130.085 126.205 129.643 126.205 129.013V127.287H126.097C125.973 127.589 125.785 127.86 125.534 128.099C125.283 128.337 124.969 128.525 124.594 128.661C124.224 128.798 123.797 128.866 123.316 128.866C122.6 128.866 121.944 128.7 121.347 128.367C120.755 128.031 120.28 127.511 119.922 126.808C119.568 126.1 119.391 125.19 119.391 124.078C119.391 122.932 119.574 121.988 119.941 121.246C120.307 120.501 120.787 119.949 121.379 119.591C121.976 119.233 122.617 119.054 123.303 119.054C123.819 119.054 124.26 119.143 124.626 119.322C124.997 119.497 125.302 119.723 125.54 120C125.779 120.277 125.96 120.565 126.084 120.863H126.173V119.182H129.286V129.038C129.286 129.869 129.077 130.57 128.66 131.141C128.242 131.712 127.658 132.145 126.908 132.439C126.158 132.737 125.291 132.886 124.307 132.886ZM124.403 126.59C124.782 126.59 125.106 126.49 125.374 126.29C125.643 126.089 125.849 125.802 125.994 125.427C126.139 125.052 126.212 124.602 126.212 124.078C126.212 123.545 126.139 123.087 125.994 122.704C125.854 122.316 125.647 122.018 125.374 121.809C125.106 121.6 124.782 121.496 124.403 121.496C124.015 121.496 123.687 121.602 123.418 121.815C123.15 122.028 122.945 122.329 122.805 122.717C122.668 123.1 122.6 123.554 122.6 124.078C122.6 124.602 122.67 125.052 122.811 125.427C122.952 125.802 123.154 126.089 123.418 126.29C123.687 126.49 124.015 126.59 124.403 126.59ZM134.405 123.401V129H131.279V119.182H134.251V120.984H134.36C134.577 120.384 134.948 119.913 135.472 119.572C135.996 119.227 136.62 119.054 137.345 119.054C138.035 119.054 138.634 119.21 139.141 119.521C139.652 119.827 140.049 120.258 140.33 120.812C140.616 121.362 140.756 122.005 140.752 122.742V129H137.626V123.356C137.63 122.81 137.492 122.384 137.211 122.077C136.934 121.771 136.548 121.617 136.054 121.617C135.726 121.617 135.436 121.69 135.184 121.835C134.937 121.975 134.745 122.178 134.609 122.442C134.477 122.706 134.409 123.026 134.405 123.401ZM142.687 129V119.182H145.813V129H142.687ZM144.253 118.038C143.814 118.038 143.437 117.893 143.122 117.603C142.806 117.309 142.649 116.955 142.649 116.542C142.649 116.133 142.806 115.783 143.122 115.494C143.437 115.2 143.814 115.053 144.253 115.053C144.696 115.053 145.073 115.2 145.384 115.494C145.7 115.783 145.858 116.133 145.858 116.542C145.858 116.955 145.7 117.309 145.384 117.603C145.073 117.893 144.696 118.038 144.253 118.038ZM153.344 119.182V121.483H147.15V119.182H153.344ZM148.448 116.83H151.574V125.913C151.574 126.104 151.603 126.26 151.663 126.379C151.727 126.494 151.819 126.577 151.938 126.629C152.057 126.675 152.2 126.699 152.366 126.699C152.486 126.699 152.611 126.688 152.743 126.667C152.88 126.641 152.982 126.62 153.05 126.603L153.523 128.859C153.374 128.902 153.163 128.955 152.89 129.019C152.622 129.083 152.3 129.124 151.925 129.141C151.192 129.175 150.564 129.089 150.04 128.885C149.52 128.676 149.121 128.352 148.844 127.913C148.571 127.474 148.439 126.923 148.448 126.258V116.83ZM154.939 129V119.182H158.065V129H154.939ZM156.505 118.038C156.066 118.038 155.689 117.893 155.374 117.603C155.058 117.309 154.901 116.955 154.901 116.542C154.901 116.133 155.058 115.783 155.374 115.494C155.689 115.2 156.066 115.053 156.505 115.053C156.948 115.053 157.325 115.2 157.636 115.494C157.952 115.783 158.109 116.133 158.109 116.542C158.109 116.955 157.952 117.309 157.636 117.603C157.325 117.893 156.948 118.038 156.505 118.038ZM165.634 119.182V121.483H159.319V119.182H165.634ZM160.636 129V118.683C160.636 117.925 160.779 117.296 161.064 116.798C161.35 116.295 161.746 115.92 162.253 115.673C162.76 115.421 163.346 115.295 164.011 115.295C164.446 115.295 164.855 115.33 165.238 115.398C165.626 115.462 165.914 115.519 166.101 115.57L165.603 117.859C165.487 117.82 165.347 117.788 165.181 117.763C165.019 117.737 164.865 117.724 164.72 117.724C164.354 117.724 164.103 117.805 163.966 117.967C163.83 118.129 163.762 118.351 163.762 118.632V129H160.636Z" fill="#4A5568"/>
<path d="M192 15H34C23.5066 15 15 23.5066 15 34V146C15 156.493 23.5066 165 34 165H192C202.493 165 211 156.493 211 146V34C211 23.5066 202.493 15 192 15Z" stroke="url(#paint0_radial_5129_22226)" stroke-width="2"/>
<path d="M192 15H34C23.5066 15 15 23.5066 15 34V146C15 156.493 23.5066 165 34 165H192C202.493 165 211 156.493 211 146V34C211 23.5066 202.493 15 192 15Z" stroke="url(#paint1_radial_5129_22226)" stroke-width="2"/>
<path d="M192 15H34C23.5066 15 15 23.5066 15 34V146C15 156.493 23.5066 165 34 165H192C202.493 165 211 156.493 211 146V34C211 23.5066 202.493 15 192 15Z" stroke="url(#paint2_linear_5129_22226)" stroke-width="2"/>
<path d="M192 15H34C23.5066 15 15 23.5066 15 34V146C15 156.493 23.5066 165 34 165H192C202.493 165 211 156.493 211 146V34C211 23.5066 202.493 15 192 15Z" stroke="#C1BABA" stroke-opacity="0.2" stroke-width="2"/>
</g>
<defs>
<filter id="filter0_dd_5129_22226" x="0.8997" y="0.8997" width="222.236" height="176.563" filterUnits="userSpaceOnUse" color-interpolation-filters="sRGB">
<feFlood flood-opacity="0" result="BackgroundImageFix"/>
<feColorMatrix in="SourceAlpha" type="matrix" values="0 0 0 0 0 0 0 0 0 0 0 0 0 0 0 0 0 0 127 0" result="hardAlpha"/>
<feOffset dx="4.2576" dy="4.58511"/>
<feGaussianBlur stdDeviation="3.43883"/>
<feColorMatrix type="matrix" values="0 0 0 0 0 0 0 0 0 0 0 0 0 0 0 0 0 0 0.1 0"/>
<feBlend mode="normal" in2="BackgroundImageFix" result="effect1_dropShadow_5129_22226"/>
<feColorMatrix in="SourceAlpha" type="matrix" values="0 0 0 0 0 0 0 0 0 0 0 0 0 0 0 0 0 0 127 0" result="hardAlpha"/>
<feOffset dx="-3.27508" dy="-3.27508"/>
<feGaussianBlur stdDeviation="4.91261"/>
<feColorMatrix type="matrix" values="0 0 0 0 0.970833 0 0 0 0 0.985417 0 0 0 0 1 0 0 0 1 0"/>
<feBlend mode="normal" in2="effect1_dropShadow_5129_22226" result="effect2_dropShadow_5129_22226"/>
<feBlend mode="normal" in="SourceGraphic" in2="effect2_dropShadow_5129_22226" result="shape"/>
</filter>
<radialGradient id="paint0_radial_5129_22226" cx="0" cy="0" r="1" gradientUnits="userSpaceOnUse" gradientTransform="translate(15.781 18.5223) rotate(36.6219) scale(240.697 368.808)">
<stop stop-color="#D8D8D8" stop-opacity="0"/>
<stop offset="1" stop-color="#D8D8D8"/>
</radialGradient>
<radialGradient id="paint1_radial_5129_22226" cx="0" cy="0" r="1" gradientUnits="userSpaceOnUse" gradientTransform="translate(16.7238 161.352) rotate(-36.6117) scale(239.491 366.538)">
<stop stop-color="#D8D8D8" stop-opacity="0"/>
<stop offset="1" stop-color="#D8D8D8"/>
</radialGradient>
<linearGradient id="paint2_linear_5129_22226" x1="17.6667" y1="18.1455" x2="222.184" y2="139.863" gradientUnits="userSpaceOnUse">
<stop stop-color="white" stop-opacity="0.9"/>
<stop offset="1" stop-color="white" stop-opacity="0"/>
</linearGradient>
</defs>
</svg>
