<svg width="238" height="228" viewBox="0 0 238 228" fill="none" xmlns="http://www.w3.org/2000/svg">
<g filter="url(#filter0_d_5194_23815)">
<rect x="6" y="5.27222" width="207" height="197.272" rx="16" fill="#FFCF54"/>
<rect x="67.8643" y="37.2722" width="83.2722" height="83.2722" rx="14.457" fill="#E8ECEF"/>
<path d="M97.6664 82.6492H90.1026C89.7445 82.6492 89.4541 82.9395 89.4541 83.2977V97.9979C89.4541 98.3561 89.7445 98.6464 90.1026 98.6464H97.6688C98.027 98.6464 98.3174 98.356 98.3173 97.9978L98.3149 83.2976C98.3149 82.9395 98.0245 82.6492 97.6664 82.6492Z" fill="#665E66"/>
<path d="M95.9641 82.6492H98.1259C98.4841 82.6492 98.7744 82.9395 98.7744 83.2977V97.9979C98.7744 98.3561 98.4841 98.6464 98.1259 98.6464H96.6126L96.6132 83.4288C96.6133 83.2119 96.5048 83.0093 96.3242 82.889L95.9641 82.6492Z" fill="#454045"/>
<path d="M124.916 70.9753H117.353C116.994 70.9753 116.704 71.2657 116.704 71.6239V97.9977C116.704 98.3559 116.994 98.6463 117.353 98.6463H124.919C125.277 98.6463 125.567 98.3559 125.567 97.9977L125.565 71.6238C125.565 71.2657 125.274 70.9753 124.916 70.9753Z" fill="#665E66"/>
<path d="M123.214 70.9753H125.376C125.734 70.9753 126.024 71.2657 126.024 71.6239V97.9977C126.024 98.3559 125.734 98.6463 125.376 98.6463H123.863L123.863 71.9654C123.863 71.8092 123.807 71.6583 123.704 71.5403L123.214 70.9753Z" fill="#454045"/>
<path d="M87.7671 79.6261C87.5372 79.6203 87.2779 79.61 87.0148 79.5975C86.1399 79.5559 85.6032 78.6339 85.9802 77.8433C86.1575 77.4716 86.5153 77.2109 86.9222 77.1468C106.499 74.0631 114.176 68.9601 124.968 55.945C125.375 55.4541 126.125 55.1449 126.76 55.0823C126.982 55.0605 127.175 55.0911 127.297 55.3022C127.437 55.5456 127.539 55.834 127.608 56.077C127.703 56.4073 127.615 56.7585 127.411 57.0357C117.161 71.025 105.174 77.8037 87.7671 79.6261Z" fill="#FEBD2F"/>
<path d="M119.679 56.6045L119.68 56.4761C119.685 55.8233 120.175 55.2761 120.823 55.1986L126.737 54.492C127.401 54.4126 128.016 54.8507 128.158 55.5039L128.19 55.6492C128.205 55.7165 128.214 55.7848 128.218 55.8536L128.224 55.9604C128.261 56.6437 127.762 57.2387 127.082 57.3199L121.161 58.0274C120.513 58.1049 119.908 57.6885 119.749 57.0553L119.718 56.9308C119.691 56.8241 119.678 56.7144 119.679 56.6045Z" fill="#FEBD2F"/>
<path d="M126.612 63.175L126.484 63.1582C125.838 63.073 125.355 62.5205 125.357 61.868L125.376 55.8604C125.378 55.1922 125.888 54.635 126.553 54.5731L126.701 54.5593C126.77 54.5529 126.84 54.552 126.909 54.5566L127.015 54.5638C127.698 54.6099 128.227 55.1781 128.225 55.8622L128.206 61.8773C128.204 62.5297 127.717 63.0791 127.07 63.1601L126.942 63.1761C126.833 63.1898 126.721 63.1894 126.612 63.175Z" fill="#FEBD2F"/>
<path d="M111.491 79.197H103.927C103.569 79.197 103.278 79.4874 103.278 79.8456V98.2208C103.278 98.579 103.569 98.8693 103.927 98.8693H111.493C111.851 98.8693 112.142 98.5789 112.142 98.2207L112.139 79.8455C112.139 79.4873 111.849 79.197 111.491 79.197Z" fill="#665E66"/>
<path d="M109.257 79.197H111.419C111.777 79.197 112.067 79.4874 112.067 79.8456V98.2208C112.067 98.579 111.777 98.8693 111.419 98.8693H109.906L109.906 80.0358C109.906 79.8414 109.819 79.6573 109.669 79.5341L109.257 79.197Z" fill="#454045"/>
<path d="M91.2898 149.544C91.2367 148.882 90.9882 148.365 90.544 147.993C90.1065 147.622 89.4403 147.436 88.5455 147.436C87.9754 147.436 87.508 147.506 87.1435 147.645C86.7855 147.778 86.5204 147.96 86.348 148.192C86.1757 148.424 86.0862 148.689 86.0795 148.988C86.0663 149.233 86.1094 149.455 86.2088 149.654C86.3149 149.846 86.4806 150.022 86.706 150.181C86.9313 150.333 87.2197 150.472 87.571 150.598C87.9223 150.724 88.34 150.837 88.8239 150.936L90.4943 151.294C91.6212 151.533 92.5857 151.848 93.3878 152.239C94.1899 152.63 94.8461 153.091 95.3565 153.621C95.867 154.145 96.2415 154.735 96.4801 155.391C96.7254 156.047 96.8513 156.763 96.858 157.539C96.8513 158.878 96.5166 160.011 95.8537 160.939C95.1908 161.867 94.2429 162.573 93.0099 163.057C91.7836 163.541 90.3087 163.783 88.5852 163.783C86.8153 163.783 85.2708 163.521 83.9517 162.998C82.6392 162.474 81.6184 161.668 80.8892 160.581C80.1667 159.488 79.8021 158.089 79.7955 156.385H85.0455C85.0786 157.008 85.2344 157.532 85.5128 157.956C85.7912 158.381 86.1823 158.702 86.6861 158.921C87.1965 159.14 87.803 159.249 88.5057 159.249C89.0956 159.249 89.5895 159.176 89.9872 159.03C90.3849 158.884 90.6866 158.682 90.892 158.424C91.0975 158.165 91.2036 157.87 91.2102 157.539C91.2036 157.227 91.1009 156.955 90.902 156.723C90.7098 156.485 90.3916 156.273 89.9474 156.087C89.5033 155.895 88.9034 155.716 88.1477 155.55L86.1193 155.113C84.3163 154.722 82.8944 154.069 81.8537 153.154C80.8196 152.232 80.3059 150.976 80.3125 149.385C80.3059 148.093 80.6506 146.963 81.3466 145.995C82.0492 145.02 83.0204 144.261 84.2599 143.718C85.5062 143.174 86.9347 142.902 88.5455 142.902C90.1894 142.902 91.6113 143.177 92.8111 143.728C94.0109 144.278 94.9356 145.053 95.5852 146.054C96.2415 147.049 96.5729 148.212 96.5795 149.544H91.2898ZM103.972 159.925L104.012 153.402H104.728L108.427 148.272H114.592L108.387 156.266H106.836L103.972 159.925ZM99.0405 163.544V143.181H104.529V163.544H99.0405ZM108.467 163.544L104.967 157.499L108.546 153.601L114.751 163.544H108.467ZM116.021 163.544V148.272H121.51V163.544H116.021ZM118.765 146.681C118.023 146.681 117.386 146.436 116.856 145.945C116.326 145.454 116.061 144.865 116.061 144.175C116.061 143.486 116.326 142.896 116.856 142.405C117.386 141.915 118.023 141.669 118.765 141.669C119.514 141.669 120.151 141.915 120.674 142.405C121.205 142.896 121.47 143.486 121.47 144.175C121.47 144.865 121.205 145.454 120.674 145.945C120.151 146.436 119.514 146.681 118.765 146.681ZM129.795 143.181V163.544H124.306V143.181H129.795ZM138.08 143.181V163.544H132.591V143.181H138.08Z" fill="#615E4A"/>
</g>
<defs>
<filter id="filter0_d_5194_23815" x="0.217206" y="0.212271" width="237.36" height="227.632" filterUnits="userSpaceOnUse" color-interpolation-filters="sRGB">
<feFlood flood-opacity="0" result="BackgroundImageFix"/>
<feColorMatrix in="SourceAlpha" type="matrix" values="0 0 0 0 0 0 0 0 0 0 0 0 0 0 0 0 0 0 127 0" result="hardAlpha"/>
<feOffset dx="9.39704" dy="10.1199"/>
<feGaussianBlur stdDeviation="7.58992"/>
<feComposite in2="hardAlpha" operator="out"/>
<feColorMatrix type="matrix" values="0 0 0 0 0.0375 0 0 0 0 0.18975 0 0 0 0 0.3 0 0 0 0.06 0"/>
<feBlend mode="normal" in2="BackgroundImageFix" result="effect1_dropShadow_5194_23815"/>
<feBlend mode="normal" in="SourceGraphic" in2="effect1_dropShadow_5194_23815" result="shape"/>
</filter>
</defs>
</svg>
