<svg width="254" height="228" viewBox="0 0 254 228" fill="none" xmlns="http://www.w3.org/2000/svg">
<g filter="url(#filter0_d_4834_20546)">
<rect x="6" y="5.27222" width="223" height="197.272" rx="16" fill="#FFCF54"/>
<rect x="75.8643" y="37.2722" width="83.2722" height="83.2722" rx="14.457" fill="#E8ECEF"/>
<path d="M127 100.886H104.351C103.347 100.886 102.554 100.024 102.691 99.03C103.835 90.6883 107.503 86.4204 109.308 85.2904H121.891C126.416 88.8133 128.163 95.19 128.626 99.136C128.739 100.093 127.964 100.886 127 100.886Z" fill="#665E66"/>
<path d="M109.392 85.2904C111.179 88.3769 116.551 93.0525 123.746 87.0626C121.9 84.6111 116.445 80.8245 109.392 85.2904Z" fill="#454045"/>
<circle cx="115.599" cy="78.8224" r="8.94948" fill="#665E66"/>
<path d="M110.193 86.5313C105.337 90.9617 103.798 97.8732 103.636 100.842C103.04 100.842 102.571 100.329 102.64 99.7372C103.661 90.9679 107.479 86.4805 109.351 85.2465L110.193 86.5313Z" fill="#8D858D"/>
<path d="M121.137 82.1892C115.856 88.0729 110.047 85.261 107.802 83.1196C108.688 84.8564 110.002 85.8517 110.549 86.1323C116.928 90.3413 121.359 85.5121 121.891 85.2463C126.605 79.8234 123.973 74.5689 122.068 72.6195C124.159 76.9791 122.319 80.8158 121.137 82.1892Z" fill="#454045"/>
<path d="M110.437 72.8851C106.503 76.1813 107.026 81.1109 107.779 83.1637C105.05 78.3434 107.671 73.9336 109.443 72.2648C112.987 68.8268 117.92 69.8429 119.81 70.8914C114.095 69.1635 111.102 72.575 110.437 72.8851Z" fill="#8D858D"/>
<path d="M92.4893 65.7098C92.8603 64.9773 93.4882 64.6919 94.2874 64.6348C95.077 64.5777 95.8571 64.4064 96.6373 64.3113C96.8561 64.2828 96.9607 64.1876 97.0559 64.0069C97.4554 63.1982 97.874 62.399 98.2736 61.5904C98.5495 61.01 98.9967 60.7341 99.6341 60.7341C100.272 60.7341 100.709 61.0291 100.985 61.5999C101.375 62.399 101.794 63.1792 102.184 63.9688C102.288 64.1781 102.393 64.2732 102.631 64.3018C103.639 64.435 104.648 64.5587 105.637 64.7489C106.731 64.9582 107.131 66.2521 106.389 67.0893C106.303 67.1845 106.208 67.2701 106.122 67.3557C105.504 67.9456 104.886 68.5354 104.258 69.1253C104.096 69.2775 104.029 69.4107 104.077 69.658C104.248 70.5238 104.381 71.3991 104.543 72.2743C104.657 72.8832 104.534 73.416 104.029 73.806C103.525 74.1961 102.983 74.1961 102.422 73.9107C101.594 73.4826 100.757 73.0735 99.9385 72.6263C99.7197 72.5122 99.5485 72.5122 99.3296 72.6263C98.54 73.0544 97.7313 73.4445 96.9322 73.8726C96.3518 74.1771 95.781 74.2151 95.2387 73.806C94.7155 73.4065 94.6108 72.8547 94.7345 72.2268C94.9058 71.3705 95.0199 70.5048 95.1912 69.658C95.2387 69.4107 95.1721 69.2775 95.0104 69.1253C94.5062 68.6591 94.021 68.1929 93.5263 67.7172C93.1552 67.3652 92.7556 67.0227 92.4988 66.5566C92.4893 66.2807 92.4893 65.9952 92.4893 65.7098Z" fill="#FFCC5B"/>
<path fill-rule="evenodd" clip-rule="evenodd" d="M101.283 62.1941C101.396 62.4186 101.511 62.6421 101.626 62.8654C101.814 63.2321 102.002 63.5979 102.184 63.9658C102.288 64.1751 102.393 64.2703 102.631 64.2988C102.753 64.3149 102.875 64.3309 102.997 64.3469C103.883 64.4629 104.768 64.5787 105.637 64.746C106.731 64.9553 107.131 66.2491 106.389 67.0863C106.331 67.1502 106.27 67.2097 106.209 67.2678C106.18 67.2963 106.151 67.3245 106.122 67.3527C105.504 67.9426 104.886 68.5324 104.258 69.1223C104.096 69.2745 104.029 69.4077 104.077 69.6551C104.177 70.1586 104.263 70.6654 104.35 71.1736C104.413 71.539 104.476 71.9052 104.543 72.2713C104.657 72.8802 104.534 73.413 104.029 73.8031C103.525 74.1931 102.983 74.1931 102.422 73.9077C102.146 73.765 101.869 73.6244 101.592 73.4838C101.038 73.2026 100.484 72.9214 99.9385 72.6234C99.7197 72.5092 99.5485 72.5092 99.3296 72.6234C98.9137 72.8489 98.4924 73.0638 98.0701 73.2794C97.6907 73.473 97.3104 73.6671 96.9322 73.8697C96.8703 73.9021 96.8086 73.9315 96.747 73.9577C96.4443 72.9612 96.2783 71.8784 96.2783 70.7464C96.2783 66.7109 98.3872 63.3006 101.283 62.1941Z" fill="#FEBD2F"/>
<path d="M108.485 57.4276C108.856 56.695 109.484 56.4096 110.283 56.3525C111.073 56.2955 111.853 56.1242 112.633 56.0291C112.852 56.0005 112.957 55.9054 113.052 55.7246C113.452 54.916 113.87 54.1168 114.27 53.3081C114.546 52.7278 114.993 52.4519 115.63 52.4519C116.268 52.4519 116.705 52.7468 116.981 53.3177C117.371 54.1168 117.79 54.8969 118.18 55.6866C118.285 55.8959 118.389 55.991 118.627 56.0196C119.635 56.1528 120.644 56.2764 121.633 56.4667C122.727 56.676 123.127 57.9699 122.385 58.8071C122.299 58.9022 122.204 58.9879 122.119 59.0735C121.5 59.6633 120.882 60.2532 120.254 60.843C120.092 60.9953 120.026 61.1285 120.073 61.3758C120.244 62.2416 120.378 63.1168 120.539 63.9921C120.653 64.601 120.53 65.1337 120.026 65.5238C119.521 65.9139 118.979 65.9139 118.418 65.6285C117.59 65.2003 116.753 64.7912 115.935 64.3441C115.716 64.2299 115.545 64.2299 115.326 64.3441C114.536 64.7722 113.727 65.1623 112.928 65.5904C112.348 65.8948 111.777 65.9329 111.235 65.5238C110.712 65.1242 110.607 64.5724 110.731 63.9445C110.902 63.0883 111.016 62.2225 111.187 61.3758C111.235 61.1285 111.168 60.9953 111.006 60.843C110.502 60.3769 110.017 59.9107 109.522 59.435C109.151 59.083 108.752 58.7405 108.495 58.2743C108.485 57.9984 108.485 57.713 108.485 57.4276Z" fill="#FFCC5B"/>
<path fill-rule="evenodd" clip-rule="evenodd" d="M117.271 53.9119C117.384 54.1364 117.499 54.3599 117.614 54.5831C117.802 54.9498 117.99 55.3157 118.172 55.6836C118.277 55.8929 118.381 55.988 118.619 56.0166C118.741 56.0327 118.863 56.0487 118.985 56.0647C119.872 56.1807 120.756 56.2965 121.626 56.4637C122.72 56.673 123.119 57.9669 122.377 58.8041C122.32 58.8679 122.258 58.9275 122.198 58.9856C122.168 59.0141 122.139 59.0423 122.111 59.0705C121.492 59.6604 120.874 60.2502 120.246 60.8401C120.084 60.9923 120.018 61.1255 120.065 61.3728C120.165 61.8764 120.252 62.3832 120.339 62.8913C120.401 63.2568 120.464 63.623 120.531 63.9891C120.646 64.598 120.522 65.1308 120.018 65.5208C119.513 65.9109 118.971 65.9109 118.41 65.6255C118.134 65.4828 117.857 65.3422 117.58 65.2016C117.026 64.9204 116.472 64.6392 115.927 64.3411C115.708 64.227 115.537 64.227 115.318 64.3411C114.902 64.5666 114.481 64.7816 114.058 64.9971C113.679 65.1908 113.299 65.3848 112.92 65.5874C112.859 65.6199 112.797 65.6493 112.735 65.6755C112.433 64.6789 112.267 63.5961 112.267 62.4641C112.267 58.4287 114.376 55.0184 117.271 53.9119Z" fill="#FEBD2F"/>
<path d="M124.466 65.7098C124.837 64.9773 125.465 64.6919 126.264 64.6348C127.054 64.5777 127.834 64.4064 128.614 64.3113C128.833 64.2828 128.937 64.1876 129.032 64.0069C129.432 63.1982 129.851 62.399 130.25 61.5904C130.526 61.01 130.973 60.7341 131.611 60.7341C132.248 60.7341 132.686 61.0291 132.962 61.5999C133.352 62.399 133.77 63.1792 134.16 63.9688C134.265 64.1781 134.37 64.2732 134.607 64.3018C135.616 64.435 136.624 64.5587 137.614 64.7489C138.708 64.9582 139.107 66.2521 138.365 67.0893C138.28 67.1845 138.185 67.2701 138.099 67.3557C137.481 67.9456 136.862 68.5354 136.234 69.1253C136.073 69.2775 136.006 69.4107 136.054 69.658C136.225 70.5238 136.358 71.3991 136.52 72.2743C136.634 72.8832 136.51 73.416 136.006 73.806C135.502 74.1961 134.959 74.1961 134.398 73.9107C133.57 73.4826 132.733 73.0735 131.915 72.6263C131.696 72.5122 131.525 72.5122 131.306 72.6263C130.517 73.0544 129.708 73.4445 128.909 73.8726C128.328 74.1771 127.758 74.2151 127.215 73.806C126.692 73.4065 126.587 72.8547 126.711 72.2268C126.882 71.3705 126.996 70.5048 127.168 69.658C127.215 69.4107 127.149 69.2775 126.987 69.1253C126.483 68.6591 125.998 68.1929 125.503 67.7172C125.132 67.3652 124.732 67.0227 124.475 66.5566C124.466 66.2807 124.466 65.9952 124.466 65.7098Z" fill="#FFC851"/>
<path fill-rule="evenodd" clip-rule="evenodd" d="M133.263 62.1941C133.377 62.4186 133.492 62.6421 133.606 62.8654C133.795 63.2321 133.983 63.5979 134.164 63.9658C134.269 64.1751 134.374 64.2703 134.611 64.2988C134.733 64.3149 134.856 64.3309 134.978 64.3469C135.864 64.4629 136.748 64.5787 137.618 64.746C138.712 64.9553 139.111 66.2491 138.369 67.0863C138.312 67.1502 138.25 67.2097 138.19 67.2678C138.16 67.2963 138.131 67.3245 138.103 67.3527C137.485 67.9426 136.866 68.5324 136.238 69.1223C136.077 69.2745 136.01 69.4077 136.057 69.6551C136.157 70.1586 136.244 70.6654 136.331 71.1736C136.393 71.539 136.456 71.9052 136.524 72.2713C136.638 72.8802 136.514 73.413 136.01 73.8031C135.506 74.1931 134.963 74.1931 134.402 73.9077C134.126 73.765 133.849 73.6244 133.572 73.4838C133.018 73.2026 132.464 72.9214 131.919 72.6234C131.7 72.5092 131.529 72.5092 131.31 72.6234C130.894 72.8489 130.473 73.0638 130.051 73.2794C129.671 73.473 129.291 73.6671 128.913 73.8697C128.851 73.9021 128.789 73.9315 128.727 73.9577C128.425 72.9612 128.259 71.8784 128.259 70.7464C128.259 66.7109 130.368 63.3006 133.263 62.1941Z" fill="#FEBD2F"/>
<path d="M39.3125 163.544V143.181H53.9886V147.635H44.8409V151.135H53.233V155.59H44.8409V159.09H53.9489V163.544H39.3125ZM61.543 148.272L63.7702 153.005L66.1168 148.272H71.5657L67.4691 155.908L71.7646 163.544H66.3555L63.7702 158.692L61.2646 163.544H55.7759L60.1112 155.908L56.0543 148.272H61.543ZM73.517 169.272V148.272H78.9659V150.936H79.0852C79.2841 150.419 79.5758 149.945 79.9602 149.515C80.3447 149.077 80.822 148.729 81.392 148.471C81.9621 148.205 82.625 148.073 83.3807 148.073C84.3883 148.073 85.3461 148.341 86.2543 148.878C87.169 149.415 87.9115 150.26 88.4815 151.414C89.0582 152.567 89.3466 154.065 89.3466 155.908C89.3466 157.671 89.0715 159.133 88.5213 160.293C87.9777 161.453 87.2486 162.318 86.3338 162.888C85.4257 163.458 84.428 163.743 83.3409 163.743C82.625 163.743 81.9853 163.627 81.4219 163.395C80.8651 163.157 80.3878 162.835 79.9901 162.431C79.599 162.02 79.2973 161.556 79.0852 161.039H79.0057V169.272H73.517ZM78.8864 155.908C78.8864 156.65 78.9825 157.293 79.1747 157.837C79.3736 158.374 79.652 158.792 80.0099 159.09C80.3745 159.382 80.8087 159.527 81.3125 159.527C81.8163 159.527 82.2438 159.385 82.5952 159.1C82.9531 158.808 83.2249 158.394 83.4105 157.857C83.6027 157.313 83.6989 156.664 83.6989 155.908C83.6989 155.152 83.6027 154.506 83.4105 153.969C83.2249 153.426 82.9531 153.011 82.5952 152.726C82.2438 152.435 81.8163 152.289 81.3125 152.289C80.8087 152.289 80.3745 152.435 80.0099 152.726C79.652 153.011 79.3736 153.426 79.1747 153.969C78.9825 154.506 78.8864 155.152 78.8864 155.908ZM98.9641 163.823C97.3335 163.823 95.9281 163.511 94.7482 162.888C93.5749 162.258 92.6701 161.357 92.0337 160.184C91.404 159.004 91.0891 157.592 91.0891 155.948C91.0891 154.37 91.4073 152.991 92.0437 151.811C92.68 150.632 93.5782 149.713 94.7383 149.057C95.8983 148.401 97.2672 148.073 98.8448 148.073C99.9982 148.073 101.042 148.252 101.977 148.61C102.912 148.968 103.71 149.488 104.373 150.171C105.036 150.847 105.547 151.669 105.904 152.637C106.262 153.605 106.441 154.695 106.441 155.908V157.181H92.7994V154.158H101.39C101.384 153.721 101.271 153.336 101.052 153.005C100.84 152.667 100.552 152.405 100.187 152.219C99.8292 152.027 99.4215 151.931 98.9641 151.931C98.52 151.931 98.1123 152.027 97.7411 152.219C97.3699 152.405 97.0716 152.663 96.8462 152.995C96.6275 153.326 96.5115 153.714 96.4982 154.158V157.419C96.4982 157.91 96.601 158.347 96.8065 158.732C97.012 159.116 97.3069 159.418 97.6914 159.637C98.0759 159.856 98.5399 159.965 99.0835 159.965C99.4613 159.965 99.806 159.912 100.118 159.806C100.436 159.7 100.708 159.547 100.933 159.348C101.158 159.143 101.324 158.898 101.43 158.613H106.441C106.269 159.673 105.861 160.595 105.218 161.377C104.575 162.152 103.724 162.756 102.663 163.186C101.609 163.611 100.376 163.823 98.9641 163.823ZM108.681 163.544V148.272H114.011V151.175H114.17C114.448 150.101 114.889 149.316 115.492 148.819C116.102 148.321 116.815 148.073 117.63 148.073C117.869 148.073 118.104 148.093 118.336 148.133C118.575 148.166 118.803 148.215 119.022 148.282V152.965C118.75 152.872 118.415 152.802 118.018 152.756C117.62 152.71 117.279 152.686 116.994 152.686C116.457 152.686 115.973 152.809 115.542 153.054C115.118 153.293 114.783 153.631 114.538 154.069C114.292 154.499 114.17 155.007 114.17 155.59V163.544H108.681ZM120.822 163.544V148.272H126.31V163.544H120.822ZM123.566 146.681C122.824 146.681 122.187 146.436 121.657 145.945C121.127 145.454 120.862 144.865 120.862 144.175C120.862 143.486 121.127 142.896 121.657 142.405C122.187 141.915 122.824 141.669 123.566 141.669C124.315 141.669 124.951 141.915 125.475 142.405C126.005 142.896 126.271 143.486 126.271 144.175C126.271 144.865 126.005 145.454 125.475 145.945C124.951 146.436 124.315 146.681 123.566 146.681ZM136.425 163.823C134.794 163.823 133.389 163.511 132.209 162.888C131.036 162.258 130.131 161.357 129.495 160.184C128.865 159.004 128.55 157.592 128.55 155.948C128.55 154.37 128.868 152.991 129.505 151.811C130.141 150.632 131.039 149.713 132.199 149.057C133.359 148.401 134.728 148.073 136.306 148.073C137.459 148.073 138.503 148.252 139.438 148.61C140.373 148.968 141.171 149.488 141.834 150.171C142.497 150.847 143.007 151.669 143.365 152.637C143.723 153.605 143.902 154.695 143.902 155.908V157.181H130.26V154.158H138.851C138.845 153.721 138.732 153.336 138.513 153.005C138.301 152.667 138.013 152.405 137.648 152.219C137.29 152.027 136.882 151.931 136.425 151.931C135.981 151.931 135.573 152.027 135.202 152.219C134.831 152.405 134.533 152.663 134.307 152.995C134.088 153.326 133.972 153.714 133.959 154.158V157.419C133.959 157.91 134.062 158.347 134.267 158.732C134.473 159.116 134.768 159.418 135.152 159.637C135.537 159.856 136.001 159.965 136.544 159.965C136.922 159.965 137.267 159.912 137.578 159.806C137.897 159.7 138.168 159.547 138.394 159.348C138.619 159.143 138.785 158.898 138.891 158.613H143.902C143.73 159.673 143.322 160.595 142.679 161.377C142.036 162.152 141.185 162.756 140.124 163.186C139.07 163.611 137.837 163.823 136.425 163.823ZM151.631 154.954V163.544H146.142V148.272H151.352V151.175H151.511C151.843 150.207 152.426 149.448 153.261 148.898C154.103 148.348 155.084 148.073 156.205 148.073C157.285 148.073 158.223 148.321 159.018 148.819C159.821 149.309 160.44 149.985 160.878 150.847C161.322 151.709 161.541 152.693 161.534 153.8V163.544H156.045V154.954C156.052 154.198 155.86 153.605 155.469 153.174C155.084 152.743 154.547 152.527 153.858 152.527C153.407 152.527 153.013 152.627 152.675 152.826C152.343 153.018 152.088 153.296 151.909 153.661C151.73 154.019 151.637 154.45 151.631 154.954ZM171.602 163.823C169.944 163.823 168.526 163.495 167.346 162.838C166.166 162.176 165.261 161.254 164.631 160.074C164.002 158.888 163.687 157.512 163.687 155.948C163.687 154.383 164.002 153.011 164.631 151.831C165.261 150.645 166.166 149.723 167.346 149.067C168.526 148.404 169.944 148.073 171.602 148.073C173.1 148.073 174.396 148.345 175.489 148.888C176.59 149.425 177.442 150.187 178.045 151.175C178.648 152.156 178.953 153.31 178.96 154.635H173.869C173.796 153.833 173.564 153.223 173.173 152.806C172.788 152.382 172.291 152.169 171.681 152.169C171.204 152.169 170.786 152.309 170.428 152.587C170.07 152.859 169.792 153.273 169.593 153.83C169.394 154.38 169.295 155.073 169.295 155.908C169.295 156.743 169.394 157.439 169.593 157.996C169.792 158.546 170.07 158.961 170.428 159.239C170.786 159.511 171.204 159.647 171.681 159.647C172.085 159.647 172.443 159.554 172.755 159.368C173.067 159.176 173.318 158.898 173.511 158.533C173.71 158.162 173.829 157.711 173.869 157.181H178.96C178.94 158.526 178.631 159.7 178.035 160.701C177.438 161.695 176.593 162.464 175.499 163.008C174.412 163.551 173.113 163.823 171.602 163.823ZM188.542 163.823C186.912 163.823 185.506 163.511 184.326 162.888C183.153 162.258 182.248 161.357 181.612 160.184C180.982 159.004 180.667 157.592 180.667 155.948C180.667 154.37 180.985 152.991 181.622 151.811C182.258 150.632 183.156 149.713 184.316 149.057C185.476 148.401 186.845 148.073 188.423 148.073C189.576 148.073 190.62 148.252 191.555 148.61C192.49 148.968 193.288 149.488 193.951 150.171C194.614 150.847 195.125 151.669 195.483 152.637C195.841 153.605 196.02 154.695 196.02 155.908V157.181H182.377V154.158H190.968C190.962 153.721 190.849 153.336 190.63 153.005C190.418 152.667 190.13 152.405 189.765 152.219C189.407 152.027 189 151.931 188.542 151.931C188.098 151.931 187.69 152.027 187.319 152.219C186.948 152.405 186.65 152.663 186.424 152.995C186.206 153.326 186.09 153.714 186.076 154.158V157.419C186.076 157.91 186.179 158.347 186.385 158.732C186.59 159.116 186.885 159.418 187.27 159.637C187.654 159.856 188.118 159.965 188.662 159.965C189.039 159.965 189.384 159.912 189.696 159.806C190.014 159.7 190.286 159.547 190.511 159.348C190.736 159.143 190.902 158.898 191.008 158.613H196.02C195.847 159.673 195.44 160.595 194.797 161.377C194.154 162.152 193.302 162.756 192.241 163.186C191.187 163.611 189.954 163.823 188.542 163.823Z" fill="#615E4A"/>
</g>
<defs>
<filter id="filter0_d_4834_20546" x="0.217206" y="0.212271" width="253.36" height="227.632" filterUnits="userSpaceOnUse" color-interpolation-filters="sRGB">
<feFlood flood-opacity="0" result="BackgroundImageFix"/>
<feColorMatrix in="SourceAlpha" type="matrix" values="0 0 0 0 0 0 0 0 0 0 0 0 0 0 0 0 0 0 127 0" result="hardAlpha"/>
<feOffset dx="9.39704" dy="10.1199"/>
<feGaussianBlur stdDeviation="7.58992"/>
<feComposite in2="hardAlpha" operator="out"/>
<feColorMatrix type="matrix" values="0 0 0 0 0.0375 0 0 0 0 0.18975 0 0 0 0 0.3 0 0 0 0.06 0"/>
<feBlend mode="normal" in2="BackgroundImageFix" result="effect1_dropShadow_4834_20546"/>
<feBlend mode="normal" in="SourceGraphic" in2="effect1_dropShadow_4834_20546" result="shape"/>
</filter>
</defs>
</svg>
