<svg width="224" height="209" viewBox="0 0 224 209" fill="none" xmlns="http://www.w3.org/2000/svg">
<g filter="url(#filter0_dd_5129_22192)">
<path d="M192 14H34C22.9543 14 14 22.9543 14 34V177C14 188.046 22.9543 197 34 197H192C203.046 197 212 188.046 212 177V34C212 22.9543 203.046 14 192 14Z" fill="#EDF2F7"/>
<path d="M119.332 71.2679V65.1184L120.972 63.4785V71.2679H119.332Z" fill="#2B2B29"/>
<path d="M128.942 81.0928L122.027 77.1007L121.004 74.616L129.762 79.6726L128.942 81.0928Z" fill="#2B2B29"/>
<path d="M127.936 89.3396L129.43 83.812L130.963 82.6448L129.071 89.6464L127.936 89.3396Z" fill="#2B2B29"/>
<path d="M120.559 65.1189C124.182 65.1189 127.119 62.1822 127.119 58.5595C127.119 54.9368 124.182 52 120.559 52C116.937 52 114 54.9368 114 58.5595C114 62.1822 116.937 65.1189 120.559 65.1189Z" fill="#FFCF54"/>
<path d="M120.146 79.0578C122.637 79.0578 124.656 77.0388 124.656 74.5482C124.656 72.0576 122.637 70.0386 120.146 70.0386C117.656 70.0386 115.637 72.0576 115.637 74.5482C115.637 77.0388 117.656 79.0578 120.146 79.0578Z" fill="#FFCF54"/>
<path d="M127.948 94.6356C129.759 94.6356 131.227 93.1672 131.227 91.3559C131.227 89.5446 129.759 88.0762 127.948 88.0762C126.136 88.0762 124.668 89.5446 124.668 91.3559C124.668 93.1672 126.136 94.6356 127.948 94.6356Z" fill="#FFCF54"/>
<path d="M130.811 84.7974C132.849 84.7974 134.5 83.1454 134.5 81.1077C134.5 79.0699 132.849 77.418 130.811 77.418C128.773 77.418 127.121 79.0699 127.121 81.1077C127.121 83.1454 128.773 84.7974 130.811 84.7974Z" fill="#FFCF54"/>
<path d="M98.6792 57.3139C98.0941 58.6303 98.1917 59.5689 98.3136 59.8736L97.2171 62.2505L93.5602 76.5118C93.2676 77.2432 94.0477 77.9136 94.4743 78.1574L97.7654 81.8141L96.6684 85.4709C96.9609 87.0798 98.0092 87.4821 98.4968 87.4821L98.8624 88.0306L99.2281 87.1164L100.508 89.3105L104.165 92.6015H109.833L111.478 79.0715C111.917 78.0477 111.417 77.1822 111.113 76.8775L109.284 67.3699L109.833 62.2505L110.747 56.7653L107.821 55.1198L104.53 54.5713L102.154 56.7653L98.6792 57.3139Z" fill="#FD8B7C"/>
<path d="M107.146 79.6276C108.901 80.6515 111.168 79.201 112.082 78.3478V93.5232C112.082 96.0098 109.4 96.7534 108.06 96.8143C105.719 97.2531 104.281 94.8031 103.854 93.5232C101.953 94.1083 100.259 92.9138 99.6491 92.2434C95.9923 87.4165 99.5881 85.6003 101.843 85.2955C101.989 86.7582 103.854 87.9772 104.769 88.4038C104.037 88.9523 103.854 90.2322 103.854 90.415C104.293 91.2926 104.89 90.7807 105.134 90.415C105.134 89.0986 105.866 88.5257 106.231 88.4038H108.242C109.12 87.8187 108.608 87.3068 108.242 87.1239H105.5C103.013 86.5388 102.879 83.3453 103.123 81.8216C102.392 80.7977 101.843 81.395 101.66 81.8216L101.295 83.8328C98.808 83.8328 97.0894 86.0269 96.5408 87.1239C92.1527 84.9299 92.8841 80.6027 93.7983 78.7134C94.1639 77.6164 96.358 76.1537 96.5408 76.1537C96.9797 75.276 96.358 75.0566 95.9923 75.0566C95.6998 75.0566 95.0172 75.5442 94.7125 75.788C93.9811 76.8119 93.1888 77.1897 92.8841 77.2507C92.4453 77.1044 91.848 76.2146 91.6042 75.788C90.7266 74.7641 90.9947 73.0454 91.2385 72.3141C91.3848 70.9976 92.8839 69.9372 93.6152 69.5715C94.4926 69.279 93.9808 68.2307 93.6152 67.7431C91.7137 64.0864 94.4075 61.2219 95.9921 60.2468C99.5026 58.199 102.209 60.003 103.123 61.161C103.708 63.5013 105.439 64.8177 106.231 65.1834C107.109 65.4759 107.084 64.6958 106.962 64.2692C104.915 63.099 104.525 61.3438 104.585 60.6124C104.585 60.1736 105.317 58.845 105.682 58.2356C106.535 58.7841 108.242 58.7841 108.425 58.7841C109.156 58.3453 108.73 57.748 108.425 57.5042C105.792 57.943 105.134 56.4681 105.134 55.6758C104.695 54.9445 104.22 55.2492 104.037 55.493C103.306 56.2243 105.317 57.8699 104.768 57.8699C104.329 57.8699 103.732 59.2107 103.488 59.8811C102.465 57.8333 99.405 57.687 98.0033 57.8699C98.5884 53.9206 102.27 53.4208 104.037 53.6646C104.476 51.178 106.658 50.1907 107.694 50.0079C110.327 49.8617 111.716 51.7754 112.082 52.7505V75.9709C110.912 78.6038 108.304 78.6525 107.146 78.3478C106.268 79.0791 106.78 79.5058 107.146 79.6276Z" fill="#FFC2B1"/>
<path d="M101.746 75.6077C100.722 76.1928 100.466 75.3639 100.466 74.8764C101.929 70.1958 98.8812 69.3912 97.1746 69.574C96.5895 69.1351 96.9308 68.6598 97.1746 68.4771C98.7836 67.7457 100.405 69.2694 101.014 70.1227C104.817 67.051 107.718 69.0866 108.693 70.4884C108.693 71.5122 107.962 71.4025 107.596 71.2196C104.964 68.733 102.599 70.3054 101.746 71.4025C102.477 72.8652 102.05 74.8154 101.746 75.6077Z" fill="#FD8B7C"/>
<path d="M95.6509 118.479V115.909H106.715V118.479H102.746V129H99.6267V118.479H95.6509ZM111.426 129.185C110.399 129.185 109.513 128.983 108.767 128.578C108.025 128.169 107.454 127.587 107.054 126.833C106.657 126.075 106.459 125.173 106.459 124.129C106.459 123.115 106.66 122.229 107.06 121.47C107.461 120.707 108.025 120.115 108.754 119.693C109.483 119.267 110.341 119.054 111.33 119.054C112.029 119.054 112.668 119.163 113.248 119.38C113.827 119.597 114.328 119.919 114.75 120.345C115.172 120.771 115.5 121.298 115.734 121.924C115.969 122.546 116.086 123.26 116.086 124.065V124.845H107.552V123.03H113.177C113.173 122.697 113.094 122.401 112.941 122.141C112.787 121.881 112.577 121.679 112.308 121.534C112.044 121.385 111.739 121.31 111.394 121.31C111.045 121.31 110.731 121.389 110.454 121.547C110.177 121.7 109.958 121.911 109.796 122.18C109.634 122.444 109.549 122.744 109.54 123.081V124.928C109.54 125.329 109.619 125.68 109.777 125.983C109.934 126.281 110.158 126.513 110.448 126.68C110.738 126.846 111.083 126.929 111.483 126.929C111.76 126.929 112.012 126.891 112.238 126.814C112.464 126.737 112.657 126.624 112.819 126.475C112.981 126.326 113.103 126.143 113.184 125.925L116.054 126.009C115.934 126.652 115.672 127.212 115.268 127.69C114.867 128.163 114.341 128.531 113.689 128.795C113.037 129.055 112.282 129.185 111.426 129.185ZM126.254 122.18L123.384 122.256C123.354 122.052 123.273 121.871 123.141 121.713C123.009 121.551 122.836 121.425 122.623 121.336C122.414 121.242 122.172 121.195 121.895 121.195C121.532 121.195 121.223 121.268 120.968 121.413C120.716 121.558 120.593 121.754 120.597 122.001C120.593 122.192 120.669 122.359 120.827 122.499C120.989 122.64 121.277 122.753 121.69 122.838L123.582 123.196C124.562 123.384 125.291 123.695 125.768 124.129C126.25 124.564 126.493 125.139 126.497 125.855C126.493 126.528 126.292 127.114 125.896 127.613C125.504 128.112 124.967 128.499 124.285 128.776C123.603 129.049 122.824 129.185 121.946 129.185C120.544 129.185 119.438 128.898 118.628 128.322C117.823 127.743 117.363 126.967 117.248 125.996L120.335 125.919C120.403 126.277 120.58 126.55 120.865 126.737C121.151 126.925 121.515 127.018 121.958 127.018C122.359 127.018 122.685 126.944 122.936 126.795C123.188 126.646 123.316 126.447 123.32 126.2C123.316 125.979 123.218 125.802 123.026 125.67C122.834 125.533 122.534 125.427 122.125 125.35L120.412 125.024C119.427 124.845 118.694 124.515 118.213 124.033C117.731 123.548 117.493 122.93 117.497 122.18C117.493 121.523 117.667 120.963 118.021 120.499C118.375 120.03 118.877 119.672 119.529 119.425C120.181 119.178 120.951 119.054 121.837 119.054C123.167 119.054 124.215 119.333 124.982 119.891C125.749 120.445 126.173 121.208 126.254 122.18ZM73.21 160V146.909H78.6177C79.5978 146.909 80.4437 147.101 81.1553 147.484C81.8712 147.864 82.4231 148.394 82.8109 149.076C83.1987 149.754 83.3925 150.542 83.3925 151.441C83.3925 152.344 83.1944 153.135 82.7981 153.812C82.406 154.486 81.8457 155.008 81.117 155.379C80.3883 155.749 79.5232 155.935 78.5218 155.935H75.1852V153.442H77.9337C78.411 153.442 78.8094 153.359 79.1291 153.192C79.4529 153.026 79.6979 152.794 79.8641 152.496C80.0303 152.193 80.1134 151.842 80.1134 151.441C80.1134 151.036 80.0303 150.687 79.8641 150.393C79.6979 150.094 79.4529 149.864 79.1291 149.702C78.8052 149.54 78.4068 149.46 77.9337 149.46H76.3741V160H73.21ZM93.5239 153.18L90.6539 153.256C90.6241 153.052 90.5431 152.871 90.411 152.713C90.2789 152.551 90.1063 152.425 89.8933 152.336C89.6844 152.242 89.4416 152.195 89.1646 152.195C88.8023 152.195 88.4934 152.268 88.2377 152.413C87.9863 152.558 87.8627 152.754 87.867 153.001C87.8627 153.192 87.9394 153.359 88.0971 153.499C88.259 153.64 88.5467 153.753 88.96 153.838L90.8521 154.196C91.8322 154.384 92.5609 154.695 93.0381 155.129C93.5197 155.564 93.7626 156.139 93.7668 156.855C93.7626 157.528 93.5623 158.114 93.166 158.613C92.7739 159.112 92.237 159.499 91.5552 159.776C90.8734 160.049 90.0935 160.185 89.2157 160.185C87.8137 160.185 86.7079 159.898 85.8982 159.322C85.0928 158.743 84.6326 157.967 84.5175 156.996L87.6049 156.919C87.6731 157.277 87.8499 157.55 88.1354 157.737C88.421 157.925 88.7853 158.018 89.2285 158.018C89.6291 158.018 89.955 157.944 90.2065 157.795C90.4579 157.646 90.5857 157.447 90.59 157.2C90.5857 156.979 90.4877 156.802 90.296 156.67C90.1042 156.533 89.8038 156.427 89.3947 156.35L87.6816 156.024C86.6972 155.845 85.9643 155.515 85.4827 155.033C85.0012 154.548 84.7626 153.93 84.7668 153.18C84.7626 152.523 84.9373 151.963 85.291 151.499C85.6447 151.03 86.1475 150.672 86.7995 150.425C87.4515 150.178 88.2207 150.054 89.107 150.054C90.4366 150.054 91.4849 150.333 92.2519 150.891C93.019 151.445 93.443 152.208 93.5239 153.18ZM95.3057 160V150.182H98.4314V160H95.3057ZM96.8718 149.038C96.4329 149.038 96.0557 148.893 95.7404 148.603C95.425 148.309 95.2674 147.955 95.2674 147.542C95.2674 147.133 95.425 146.783 95.7404 146.494C96.0557 146.2 96.4329 146.053 96.8718 146.053C97.315 146.053 97.6921 146.2 98.0032 146.494C98.3185 146.783 98.4762 147.133 98.4762 147.542C98.4762 147.955 98.3185 148.309 98.0032 148.603C97.6921 148.893 97.315 149.038 96.8718 149.038ZM103.239 157.424L103.252 153.697H103.687L106.448 150.182H109.989L105.886 155.219H105.061L103.239 157.424ZM100.42 160V146.909H103.546V160H100.42ZM106.518 160L103.949 155.922L106.007 153.704L110.13 160H106.518ZM115.287 160.185C114.256 160.185 113.369 159.974 112.628 159.553C111.89 159.126 111.322 158.534 110.921 157.776C110.525 157.013 110.327 156.129 110.327 155.123C110.327 154.113 110.525 153.229 110.921 152.47C111.322 151.707 111.89 151.115 112.628 150.693C113.369 150.267 114.256 150.054 115.287 150.054C116.318 150.054 117.202 150.267 117.939 150.693C118.681 151.115 119.25 151.707 119.646 152.47C120.047 153.229 120.247 154.113 120.247 155.123C120.247 156.129 120.047 157.013 119.646 157.776C119.25 158.534 118.681 159.126 117.939 159.553C117.202 159.974 116.318 160.185 115.287 160.185ZM115.306 157.827C115.681 157.827 115.998 157.712 116.258 157.482C116.518 157.251 116.716 156.932 116.853 156.523C116.993 156.114 117.064 155.641 117.064 155.104C117.064 154.558 116.993 154.081 116.853 153.672C116.716 153.263 116.518 152.943 116.258 152.713C115.998 152.483 115.681 152.368 115.306 152.368C114.918 152.368 114.59 152.483 114.322 152.713C114.057 152.943 113.855 153.263 113.714 153.672C113.578 154.081 113.51 154.558 113.51 155.104C113.51 155.641 113.578 156.114 113.714 156.523C113.855 156.932 114.057 157.251 114.322 157.482C114.59 157.712 114.918 157.827 115.306 157.827ZM124.974 146.909V160H121.848V146.909H124.974ZM131.547 160.185C130.515 160.185 129.629 159.974 128.887 159.553C128.15 159.126 127.581 158.534 127.181 157.776C126.784 157.013 126.586 156.129 126.586 155.123C126.586 154.113 126.784 153.229 127.181 152.47C127.581 151.707 128.15 151.115 128.887 150.693C129.629 150.267 130.515 150.054 131.547 150.054C132.578 150.054 133.462 150.267 134.199 150.693C134.941 151.115 135.51 151.707 135.906 152.47C136.306 153.229 136.507 154.113 136.507 155.123C136.507 156.129 136.306 157.013 135.906 157.776C135.51 158.534 134.941 159.126 134.199 159.553C133.462 159.974 132.578 160.185 131.547 160.185ZM131.566 157.827C131.941 157.827 132.258 157.712 132.518 157.482C132.778 157.251 132.976 156.932 133.113 156.523C133.253 156.114 133.324 155.641 133.324 155.104C133.324 154.558 133.253 154.081 133.113 153.672C132.976 153.263 132.778 152.943 132.518 152.713C132.258 152.483 131.941 152.368 131.566 152.368C131.178 152.368 130.85 152.483 130.581 152.713C130.317 152.943 130.115 153.263 129.974 153.672C129.838 154.081 129.77 154.558 129.77 155.104C129.77 155.641 129.838 156.114 129.974 156.523C130.115 156.932 130.317 157.251 130.581 157.482C130.85 157.712 131.178 157.827 131.566 157.827ZM142.685 163.886C141.751 163.886 140.952 163.756 140.288 163.496C139.623 163.237 139.101 162.881 138.722 162.429C138.342 161.977 138.114 161.466 138.038 160.895L140.997 160.729C141.053 160.929 141.155 161.104 141.304 161.253C141.457 161.402 141.656 161.517 141.898 161.598C142.146 161.679 142.435 161.719 142.768 161.719C143.292 161.719 143.724 161.592 144.065 161.336C144.411 161.085 144.583 160.643 144.583 160.013V158.287H144.474C144.351 158.589 144.163 158.86 143.912 159.099C143.661 159.337 143.347 159.525 142.972 159.661C142.602 159.798 142.175 159.866 141.694 159.866C140.978 159.866 140.322 159.7 139.725 159.367C139.133 159.031 138.658 158.511 138.3 157.808C137.946 157.1 137.769 156.19 137.769 155.078C137.769 153.932 137.952 152.988 138.319 152.246C138.685 151.501 139.165 150.949 139.757 150.591C140.354 150.233 140.995 150.054 141.681 150.054C142.197 150.054 142.638 150.143 143.004 150.322C143.375 150.497 143.68 150.723 143.918 151C144.157 151.277 144.338 151.565 144.462 151.863H144.551V150.182H147.664V160.038C147.664 160.869 147.455 161.57 147.038 162.141C146.62 162.712 146.036 163.145 145.286 163.439C144.536 163.737 143.669 163.886 142.685 163.886ZM142.781 157.59C143.16 157.59 143.484 157.49 143.752 157.29C144.021 157.089 144.227 156.802 144.372 156.427C144.517 156.052 144.589 155.602 144.589 155.078C144.589 154.545 144.517 154.087 144.372 153.704C144.232 153.316 144.025 153.018 143.752 152.809C143.484 152.6 143.16 152.496 142.781 152.496C142.393 152.496 142.065 152.602 141.796 152.815C141.528 153.028 141.323 153.329 141.183 153.717C141.046 154.1 140.978 154.554 140.978 155.078C140.978 155.602 141.048 156.052 141.189 156.427C141.33 156.802 141.532 157.089 141.796 157.29C142.065 157.49 142.393 157.59 142.781 157.59ZM149.657 160V150.182H152.782V160H149.657ZM151.223 149.038C150.784 149.038 150.407 148.893 150.091 148.603C149.776 148.309 149.618 147.955 149.618 147.542C149.618 147.133 149.776 146.783 150.091 146.494C150.407 146.2 150.784 146.053 151.223 146.053C151.666 146.053 152.043 146.2 152.354 146.494C152.67 146.783 152.827 147.133 152.827 147.542C152.827 147.955 152.67 148.309 152.354 148.603C152.043 148.893 151.666 149.038 151.223 149.038Z" fill="#4A5568"/>
<path d="M192 15H34C23.5066 15 15 23.5066 15 34V177C15 187.493 23.5066 196 34 196H192C202.493 196 211 187.493 211 177V34C211 23.5066 202.493 15 192 15Z" stroke="url(#paint0_radial_5129_22192)" stroke-width="2"/>
<path d="M192 15H34C23.5066 15 15 23.5066 15 34V177C15 187.493 23.5066 196 34 196H192C202.493 196 211 187.493 211 177V34C211 23.5066 202.493 15 192 15Z" stroke="url(#paint1_radial_5129_22192)" stroke-width="2"/>
<path d="M192 15H34C23.5066 15 15 23.5066 15 34V177C15 187.493 23.5066 196 34 196H192C202.493 196 211 187.493 211 177V34C211 23.5066 202.493 15 192 15Z" stroke="url(#paint2_linear_5129_22192)" stroke-width="2"/>
<path d="M192 15H34C23.5066 15 15 23.5066 15 34V177C15 187.493 23.5066 196 34 196H192C202.493 196 211 187.493 211 177V34C211 23.5066 202.493 15 192 15Z" stroke="#C1BABA" stroke-opacity="0.2" stroke-width="2"/>
</g>
<defs>
<filter id="filter0_dd_5129_22192" x="0.8997" y="0.8997" width="222.236" height="207.563" filterUnits="userSpaceOnUse" color-interpolation-filters="sRGB">
<feFlood flood-opacity="0" result="BackgroundImageFix"/>
<feColorMatrix in="SourceAlpha" type="matrix" values="0 0 0 0 0 0 0 0 0 0 0 0 0 0 0 0 0 0 127 0" result="hardAlpha"/>
<feOffset dx="4.2576" dy="4.58511"/>
<feGaussianBlur stdDeviation="3.43883"/>
<feColorMatrix type="matrix" values="0 0 0 0 0 0 0 0 0 0 0 0 0 0 0 0 0 0 0.1 0"/>
<feBlend mode="normal" in2="BackgroundImageFix" result="effect1_dropShadow_5129_22192"/>
<feColorMatrix in="SourceAlpha" type="matrix" values="0 0 0 0 0 0 0 0 0 0 0 0 0 0 0 0 0 0 127 0" result="hardAlpha"/>
<feOffset dx="-3.27508" dy="-3.27508"/>
<feGaussianBlur stdDeviation="4.91261"/>
<feColorMatrix type="matrix" values="0 0 0 0 0.970833 0 0 0 0 0.985417 0 0 0 0 1 0 0 0 1 0"/>
<feBlend mode="normal" in2="effect1_dropShadow_5129_22192" result="effect2_dropShadow_5129_22192"/>
<feBlend mode="normal" in="SourceGraphic" in2="effect2_dropShadow_5129_22192" result="shape"/>
</filter>
<radialGradient id="paint0_radial_5129_22192" cx="0" cy="0" r="1" gradientUnits="userSpaceOnUse" gradientTransform="translate(15.781 19.4446) rotate(41.8236) scale(259.233 412.276)">
<stop stop-color="#D8D8D8" stop-opacity="0"/>
<stop offset="1" stop-color="#D8D8D8"/>
</radialGradient>
<radialGradient id="paint1_radial_5129_22192" cx="0" cy="0" r="1" gradientUnits="userSpaceOnUse" gradientTransform="translate(16.7238 191.404) rotate(-41.8131) scale(257.925 409.752)">
<stop stop-color="#D8D8D8" stop-opacity="0"/>
<stop offset="1" stop-color="#D8D8D8"/>
</radialGradient>
<linearGradient id="paint2_linear_5129_22192" x1="17.6667" y1="18.9909" x2="240.237" y2="129.014" gradientUnits="userSpaceOnUse">
<stop stop-color="white" stop-opacity="0.9"/>
<stop offset="1" stop-color="white" stop-opacity="0"/>
</linearGradient>
</defs>
</svg>
