<svg width="390" height="281" viewBox="0 0 390 281" fill="none" xmlns="http://www.w3.org/2000/svg">
<g filter="url(#filter0_dd_5166_20947)">
<path d="M352.677 14H40.0317C25.6548 14 14 25.6548 14 40.0317V243.49C14 257.867 25.6548 269.522 40.0317 269.522H352.677C367.054 269.522 378.709 257.867 378.709 243.49V40.0317C378.709 25.6548 367.054 14 352.677 14Z" fill="#E2E8F0"/>
<path d="M352.677 14H40.0317C25.6548 14 14 25.6548 14 40.0317V243.49C14 257.867 25.6548 269.522 40.0317 269.522H352.677C367.054 269.522 378.709 257.867 378.709 243.49V40.0317C378.709 25.6548 367.054 14 352.677 14Z" fill="url(#paint0_linear_5166_20947)"/>
<path d="M208 141.761C208 126.753 203.76 112.051 195.768 99.3485C187.776 86.6458 176.358 76.4595 162.829 69.9634L150.763 95.0926C159.557 99.315 166.979 105.936 172.173 114.193C177.368 122.45 180.124 132.006 180.124 141.761H208Z" fill="#46AFBF"/>
<path d="M83.2637 207.413C95.2925 215.675 109.36 220.473 123.93 221.283C138.5 222.094 153.013 218.886 165.884 212.01C178.755 205.134 189.489 194.854 196.915 182.293C204.342 169.731 208.174 155.37 207.994 140.779L180.12 141.123C180.237 150.607 177.746 159.941 172.919 168.106C168.092 176.272 161.115 182.954 152.748 187.423C144.382 191.893 134.949 193.978 125.478 193.451C116.008 192.924 106.864 189.805 99.0456 184.435L83.2637 207.413Z" fill="#FD8F80"/>
<path d="M162.832 69.965C149.133 63.3862 133.837 60.8642 118.751 62.6967C103.664 64.5293 89.4166 70.6399 77.6904 80.3072L95.4228 101.816C103.045 95.5323 112.306 91.5604 122.112 90.3693C131.918 89.1781 141.86 90.8174 150.765 95.0936L162.832 69.965Z" fill="#449F93"/>
<path d="M78.505 79.6447C68.7832 87.4466 61.0284 97.4216 55.8645 108.767C50.7006 120.112 48.2718 132.512 48.7735 144.967C49.2753 157.422 52.6935 169.585 58.7532 180.479C64.8129 191.372 73.3449 200.691 83.6628 207.686L99.3049 184.612C92.5983 180.065 87.0525 174.008 83.1137 166.928C79.1748 159.847 76.953 151.941 76.6269 143.845C76.3007 135.749 77.8795 127.689 81.236 120.315C84.5925 112.94 89.6331 106.457 95.9523 101.385L78.505 79.6447Z" fill="#F5B11E"/>
<path d="M257.159 85.5619V99.761H254.247L248.597 91.566H248.507V99.761H245.075V85.5619H248.028L253.616 93.743H253.734V85.5619H257.159ZM259.317 99.761V89.1116H262.707V99.761H259.317ZM261.016 87.8706C260.54 87.8706 260.131 87.7134 259.789 87.3991C259.447 87.0802 259.276 86.6966 259.276 86.2482C259.276 85.8045 259.447 85.4255 259.789 85.1112C260.131 84.7923 260.54 84.6328 261.016 84.6328C261.496 84.6328 261.905 84.7923 262.243 85.1112C262.585 85.4255 262.756 85.8045 262.756 86.2482C262.756 86.6966 262.585 87.0802 262.243 87.3991C261.905 87.7134 261.496 87.8706 261.016 87.8706ZM268.256 85.5619V99.761H264.865V85.5619H268.256ZM273.416 99.9412C272.736 99.9412 272.133 99.828 271.606 99.6015C271.084 99.3704 270.67 99.0238 270.365 98.5615C270.065 98.0947 269.914 97.51 269.914 96.8075C269.914 96.2158 270.018 95.7166 270.226 95.3099C270.434 94.9031 270.721 94.5727 271.086 94.3184C271.451 94.0642 271.872 93.8724 272.348 93.743C272.824 93.609 273.333 93.5188 273.873 93.4726C274.479 93.4171 274.966 93.3594 275.336 93.2993C275.706 93.2346 275.974 93.1444 276.14 93.0289C276.311 92.9087 276.397 92.74 276.397 92.5228V92.4881C276.397 92.1322 276.274 91.8572 276.03 91.663C275.785 91.4689 275.454 91.3718 275.038 91.3718C274.59 91.3718 274.229 91.4689 273.957 91.663C273.684 91.8572 273.51 92.1253 273.437 92.4673L270.31 92.3564C270.402 91.7093 270.64 91.1315 271.024 90.6231C271.412 90.11 271.944 89.7079 272.618 89.4167C273.298 89.1209 274.114 88.973 275.066 88.973C275.745 88.973 276.372 89.0539 276.945 89.2156C277.518 89.3728 278.017 89.6039 278.442 89.9089C278.867 90.2094 279.196 90.5792 279.427 91.0183C279.662 91.4574 279.78 91.9589 279.78 92.5228V99.761H276.591V98.2773H276.508C276.318 98.6378 276.076 98.9429 275.78 99.1925C275.489 99.4421 275.144 99.6293 274.747 99.7541C274.354 99.8789 273.91 99.9412 273.416 99.9412ZM274.463 97.7226C274.828 97.7226 275.156 97.6487 275.447 97.5008C275.743 97.3529 275.979 97.1495 276.154 96.8907C276.33 96.6272 276.418 96.3221 276.418 95.9755V94.9632C276.321 95.0141 276.203 95.0603 276.064 95.1019C275.93 95.1435 275.782 95.1828 275.62 95.2198C275.459 95.2567 275.292 95.2891 275.121 95.3168C274.95 95.3446 274.786 95.37 274.629 95.3931C274.31 95.4439 274.037 95.5225 273.811 95.6288C273.589 95.7351 273.418 95.8738 273.298 96.0448C273.182 96.2112 273.125 96.41 273.125 96.6411C273.125 96.9923 273.249 97.2604 273.499 97.4453C273.753 97.6302 274.074 97.7226 274.463 97.7226ZM281.853 99.761V89.1116H285.244V99.761H281.853ZM283.552 87.8706C283.076 87.8706 282.667 87.7134 282.325 87.3991C281.983 87.0802 281.812 86.6966 281.812 86.2482C281.812 85.8045 281.983 85.4255 282.325 85.1112C282.667 84.7923 283.076 84.6328 283.552 84.6328C284.033 84.6328 284.442 84.7923 284.779 85.1112C285.121 85.4255 285.292 85.8045 285.292 86.2482C285.292 86.6966 285.121 87.0802 284.779 87.3991C284.442 87.7134 284.033 87.8706 283.552 87.8706ZM294.668 99.761H290.979L295.77 85.5619H300.339L305.13 99.761H301.441L298.106 89.1394H297.996L294.668 99.761ZM294.175 94.1729H301.885V96.7797H294.175V94.1729ZM309.716 96.9669L309.73 92.9249H310.201L313.197 89.1116H317.037L312.586 94.575H311.692L309.716 96.9669ZM306.659 99.761V85.5619H310.049V99.761H306.659ZM313.273 99.761L310.486 95.3376L312.718 92.9318L317.19 99.761H313.273ZM321.641 93.6875V99.761H318.251V85.5619H321.53V91.0668H321.648C321.888 90.4104 322.281 89.8974 322.827 89.5276C323.377 89.1579 324.049 88.973 324.844 88.973C325.593 88.973 326.245 89.1394 326.799 89.4722C327.354 89.8003 327.784 90.2649 328.089 90.8657C328.399 91.4666 328.551 92.1692 328.547 92.9734V99.761H325.156V93.639C325.161 93.0474 325.013 92.5852 324.713 92.2524C324.412 91.9196 323.989 91.7532 323.444 91.7532C323.088 91.7532 322.774 91.8317 322.501 91.9889C322.233 92.1414 322.022 92.361 321.87 92.6476C321.722 92.9341 321.646 93.2808 321.641 93.6875ZM330.663 99.761V89.1116H334.053V99.761H330.663ZM332.362 87.8706C331.885 87.8706 331.476 87.7134 331.134 87.3991C330.792 87.0802 330.621 86.6966 330.621 86.2482C330.621 85.8045 330.792 85.4255 331.134 85.1112C331.476 84.7923 331.885 84.6328 332.362 84.6328C332.842 84.6328 333.251 84.7923 333.589 85.1112C333.931 85.4255 334.102 85.8045 334.102 86.2482C334.102 86.6966 333.931 87.0802 333.589 87.3991C333.251 87.7134 332.842 87.8706 332.362 87.8706ZM336.211 99.761V89.1116H339.504V91.0529H339.615C339.809 90.3504 340.126 89.8281 340.565 89.486C341.004 89.1394 341.515 88.966 342.097 88.966C342.255 88.966 342.416 88.9776 342.583 89.0007C342.749 89.0192 342.904 89.0492 343.047 89.0908V92.0374C342.886 91.982 342.673 91.9381 342.409 91.9057C342.151 91.8733 341.919 91.8572 341.716 91.8572C341.314 91.8572 340.951 91.9473 340.628 92.1276C340.309 92.3032 340.057 92.5505 339.872 92.8694C339.692 93.1837 339.601 93.5535 339.601 93.9787V99.761H336.211Z" fill="#1F1E1F"/>
<path d="M267.472 185.437C263.479 185.437 259.913 184.817 256.774 183.578C253.651 182.338 251.188 180.656 249.385 178.531C247.598 176.406 246.705 174.007 246.705 171.335C246.705 169.29 247.212 167.423 248.226 165.733C249.256 164.042 250.641 162.642 252.379 161.531C254.118 160.404 256.058 159.68 258.199 159.358V158.971C255.382 158.488 253.063 157.241 251.244 155.228C249.441 153.2 248.54 150.809 248.54 148.056C248.54 145.465 249.361 143.162 251.003 141.15C252.645 139.122 254.891 137.528 257.74 136.369C260.589 135.21 263.833 134.63 267.472 134.63C271.11 134.63 274.354 135.218 277.203 136.393C280.053 137.552 282.298 139.146 283.94 141.174C285.582 143.187 286.403 145.481 286.403 148.056C286.403 150.825 285.486 153.216 283.651 155.228C281.815 157.241 279.513 158.488 276.744 158.971V159.358C278.869 159.68 280.801 160.404 282.54 161.531C284.278 162.642 285.663 164.042 286.693 165.733C287.723 167.423 288.239 169.29 288.239 171.335C288.239 174.007 287.337 176.406 285.534 178.531C283.747 180.656 281.284 182.338 278.145 183.578C275.022 184.817 271.464 185.437 267.472 185.437ZM267.472 176.164C268.743 176.164 269.87 175.907 270.852 175.392C271.834 174.877 272.607 174.168 273.17 173.267C273.75 172.349 274.04 171.319 274.04 170.176C274.04 169.033 273.75 168.019 273.17 167.133C272.607 166.248 271.834 165.555 270.852 165.056C269.87 164.541 268.743 164.284 267.472 164.284C266.216 164.284 265.089 164.541 264.091 165.056C263.109 165.555 262.328 166.248 261.749 167.133C261.185 168.019 260.903 169.033 260.903 170.176C260.903 171.319 261.185 172.341 261.749 173.243C262.328 174.144 263.109 174.86 264.091 175.392C265.089 175.907 266.216 176.164 267.472 176.164ZM267.472 155.011C268.598 155.011 269.597 154.778 270.466 154.311C271.335 153.844 272.019 153.2 272.518 152.379C273.018 151.558 273.267 150.632 273.267 149.602C273.267 148.572 273.018 147.662 272.518 146.873C272.019 146.068 271.335 145.44 270.466 144.99C269.597 144.523 268.598 144.289 267.472 144.289C266.361 144.289 265.363 144.523 264.477 144.99C263.608 145.44 262.924 146.068 262.425 146.873C261.926 147.662 261.676 148.572 261.676 149.602C261.676 150.632 261.926 151.558 262.425 152.379C262.924 153.184 263.608 153.828 264.477 154.311C265.363 154.778 266.361 155.011 267.472 155.011ZM314.421 185.437C310.428 185.437 306.863 184.817 303.723 183.578C300.6 182.338 298.137 180.656 296.334 178.531C294.547 176.406 293.654 174.007 293.654 171.335C293.654 169.29 294.161 167.423 295.175 165.733C296.205 164.042 297.59 162.642 299.328 161.531C301.067 160.404 303.007 159.68 305.148 159.358V158.971C302.331 158.488 300.013 157.241 298.194 155.228C296.391 153.2 295.489 150.809 295.489 148.056C295.489 145.465 296.31 143.162 297.952 141.15C299.594 139.122 301.84 137.528 304.689 136.369C307.539 135.21 310.783 134.63 314.421 134.63C318.059 134.63 321.303 135.218 324.152 136.393C327.002 137.552 329.248 139.146 330.89 141.174C332.532 143.187 333.353 145.481 333.353 148.056C333.353 150.825 332.435 153.216 330.6 155.228C328.765 157.241 326.462 158.488 323.694 158.971V159.358C325.819 159.68 327.75 160.404 329.489 161.531C331.228 162.642 332.612 164.042 333.642 165.733C334.673 167.423 335.188 169.29 335.188 171.335C335.188 174.007 334.286 176.406 332.483 178.531C330.696 180.656 328.233 182.338 325.094 183.578C321.971 184.817 318.413 185.437 314.421 185.437ZM314.421 176.164C315.693 176.164 316.819 175.907 317.801 175.392C318.784 174.877 319.556 174.168 320.12 173.267C320.699 172.349 320.989 171.319 320.989 170.176C320.989 169.033 320.699 168.019 320.12 167.133C319.556 166.248 318.784 165.555 317.801 165.056C316.819 164.541 315.693 164.284 314.421 164.284C313.165 164.284 312.038 164.541 311.04 165.056C310.058 165.555 309.277 166.248 308.698 167.133C308.134 168.019 307.853 169.033 307.853 170.176C307.853 171.319 308.134 172.341 308.698 173.243C309.277 174.144 310.058 174.86 311.04 175.392C312.038 175.907 313.165 176.164 314.421 176.164ZM314.421 155.011C315.548 155.011 316.546 154.778 317.415 154.311C318.284 153.844 318.969 153.2 319.468 152.379C319.967 151.558 320.216 150.632 320.216 149.602C320.216 148.572 319.967 147.662 319.468 146.873C318.969 146.068 318.284 145.44 317.415 144.99C316.546 144.523 315.548 144.289 314.421 144.289C313.31 144.289 312.312 144.523 311.426 144.99C310.557 145.44 309.873 146.068 309.374 146.873C308.875 147.662 308.625 148.572 308.625 149.602C308.625 150.632 308.875 151.558 309.374 152.379C309.873 153.184 310.557 153.828 311.426 154.311C312.312 154.778 313.31 155.011 314.421 155.011Z" fill="#2F2E30"/>
<path d="M352.678 15.0847H40.0321C26.2542 15.0847 15.085 26.2539 15.085 40.0318V243.491C15.085 257.269 26.2542 268.438 40.0321 268.438H352.678C366.456 268.438 377.625 257.269 377.625 243.491V40.0318C377.625 26.2539 366.456 15.0847 352.678 15.0847Z" stroke="url(#paint1_radial_5166_20947)" stroke-width="2.16931"/>
<path d="M352.678 15.0847H40.0321C26.2542 15.0847 15.085 26.2539 15.085 40.0318V243.491C15.085 257.269 26.2542 268.438 40.0321 268.438H352.678C366.456 268.438 377.625 257.269 377.625 243.491V40.0318C377.625 26.2539 366.456 15.0847 352.678 15.0847Z" stroke="url(#paint2_radial_5166_20947)" stroke-width="2.16931"/>
<path d="M352.678 15.0847H40.0321C26.2542 15.0847 15.085 26.2539 15.085 40.0318V243.491C15.085 257.269 26.2542 268.438 40.0321 268.438H352.678C366.456 268.438 377.625 257.269 377.625 243.491V40.0318C377.625 26.2539 366.456 15.0847 352.678 15.0847Z" stroke="url(#paint3_linear_5166_20947)" stroke-width="2.16931"/>
<path d="M352.678 15.0847H40.0321C26.2542 15.0847 15.085 26.2539 15.085 40.0318V243.491C15.085 257.269 26.2542 268.438 40.0321 268.438H352.678C366.456 268.438 377.625 257.269 377.625 243.491V40.0318C377.625 26.2539 366.456 15.0847 352.678 15.0847Z" stroke="#C1BABA" stroke-opacity="0.2" stroke-width="2.16931"/>
</g>
<defs>
<filter id="filter0_dd_5166_20947" x="0.8997" y="0.8997" width="388.946" height="280.085" filterUnits="userSpaceOnUse" color-interpolation-filters="sRGB">
<feFlood flood-opacity="0" result="BackgroundImageFix"/>
<feColorMatrix in="SourceAlpha" type="matrix" values="0 0 0 0 0 0 0 0 0 0 0 0 0 0 0 0 0 0 127 0" result="hardAlpha"/>
<feOffset dx="4.2576" dy="4.58511"/>
<feGaussianBlur stdDeviation="3.43883"/>
<feColorMatrix type="matrix" values="0 0 0 0 0 0 0 0 0 0 0 0 0 0 0 0 0 0 0.1 0"/>
<feBlend mode="normal" in2="BackgroundImageFix" result="effect1_dropShadow_5166_20947"/>
<feColorMatrix in="SourceAlpha" type="matrix" values="0 0 0 0 0 0 0 0 0 0 0 0 0 0 0 0 0 0 127 0" result="hardAlpha"/>
<feOffset dx="-3.27508" dy="-3.27508"/>
<feGaussianBlur stdDeviation="4.91261"/>
<feColorMatrix type="matrix" values="0 0 0 0 0.970833 0 0 0 0 0.985417 0 0 0 0 1 0 0 0 1 0"/>
<feBlend mode="normal" in2="effect1_dropShadow_5166_20947" result="effect2_dropShadow_5166_20947"/>
<feBlend mode="normal" in="SourceGraphic" in2="effect2_dropShadow_5166_20947" result="shape"/>
</filter>
<linearGradient id="paint0_linear_5166_20947" x1="14" y1="141.761" x2="378.709" y2="141.761" gradientUnits="userSpaceOnUse">
<stop stop-color="#EDF2F7"/>
<stop offset="1" stop-color="#E2E8F0"/>
</linearGradient>
<radialGradient id="paint1_radial_5166_20947" cx="0" cy="0" r="1" gradientUnits="userSpaceOnUse" gradientTransform="translate(17.2807 21.6023) rotate(34.1504) scale(429.974 639.285)">
<stop stop-color="#D8D8D8" stop-opacity="0"/>
<stop offset="1" stop-color="#D8D8D8"/>
</radialGradient>
<radialGradient id="paint2_radial_5166_20947" cx="0" cy="0" r="1" gradientUnits="userSpaceOnUse" gradientTransform="translate(19.0174 261.708) rotate(-34.1405) scale(427.826 635.341)">
<stop stop-color="#D8D8D8" stop-opacity="0"/>
<stop offset="1" stop-color="#D8D8D8"/>
</radialGradient>
<linearGradient id="paint3_linear_5166_20947" x1="20.7542" y1="20.9688" x2="378.689" y2="254.382" gradientUnits="userSpaceOnUse">
<stop stop-color="white" stop-opacity="0.9"/>
<stop offset="1" stop-color="white" stop-opacity="0"/>
</linearGradient>
</defs>
</svg>
