<svg width="158" height="222" viewBox="0 0 158 222" fill="none" xmlns="http://www.w3.org/2000/svg">
<g filter="url(#filter0_dd_5166_20961)">
<path d="M132.394 10H27.0362C17.6274 10 10 17.6274 10 27.0362V196.13C10 205.539 17.6274 213.166 27.0362 213.166H132.394C141.803 213.166 149.43 205.539 149.43 196.13V27.0362C149.43 17.6274 141.803 10 132.394 10Z" fill="#EDF2F7"/>
<path d="M73.3281 82.3777V83.7366C73.3281 88.1549 69.7464 91.7366 65.3281 91.7366H40.7149C36.2966 91.7366 32.7149 88.1549 32.7149 83.7366V82.3777C32.7149 77.9594 36.2966 74.3777 40.7149 74.3777H65.3281C69.7464 74.3777 73.3281 77.9594 73.3281 82.3777Z" fill="#46AFBF"/>
<path d="M105.473 61.3005V63.0466C105.473 67.4649 101.891 71.0466 97.4727 71.0466H41.0687C36.6504 71.0466 33.0687 67.4649 33.0687 63.0466V61.3005C33.0687 56.8823 36.6504 53.3005 41.0687 53.3005H97.4727C101.891 53.3005 105.473 56.8823 105.473 61.3005Z" fill="#46AFBF"/>
<path d="M124.285 40.715V41.7512C124.285 46.1695 120.703 49.7512 116.285 49.7512H40.7155C36.2972 49.7512 32.7155 46.1695 32.7155 41.7512V40.715C32.7155 36.2967 36.2972 32.715 40.7155 32.715H116.285C120.703 32.715 124.285 36.2967 124.285 40.715Z" fill="#46AFBF"/>
<path d="M41.5356 128.348C40.0353 128.348 38.6953 128.115 37.5156 127.649C36.3419 127.183 35.4163 126.551 34.7387 125.753C34.0672 124.954 33.7314 124.053 33.7314 123.048C33.7314 122.28 33.922 121.578 34.3031 120.943C34.6903 120.308 35.2106 119.782 35.864 119.364C36.5173 118.941 37.2463 118.668 38.051 118.547V118.402C36.9922 118.221 36.1211 117.752 35.4375 116.996C34.7599 116.233 34.4211 115.335 34.4211 114.3C34.4211 113.326 34.7296 112.461 35.3467 111.705C35.9638 110.943 36.8077 110.344 37.8785 109.908C38.9494 109.473 40.1684 109.255 41.5356 109.255C42.9029 109.255 44.1219 109.476 45.1927 109.917C46.2636 110.353 47.1075 110.952 47.7246 111.714C48.3417 112.47 48.6502 113.332 48.6502 114.3C48.6502 115.341 48.3054 116.239 47.6157 116.996C46.926 117.752 46.0609 118.221 45.0203 118.402V118.547C45.8189 118.668 46.5449 118.941 47.1983 119.364C47.8516 119.782 48.3719 120.308 48.7591 120.943C49.1463 121.578 49.3399 122.28 49.3399 123.048C49.3399 124.053 49.0011 124.954 48.3235 125.753C47.652 126.551 46.7264 127.183 45.5467 127.649C44.373 128.115 43.036 128.348 41.5356 128.348ZM41.5356 124.863C42.0136 124.863 42.4371 124.767 42.8061 124.573C43.1751 124.379 43.4655 124.113 43.6773 123.774C43.8951 123.43 44.004 123.042 44.004 122.613C44.004 122.183 43.8951 121.802 43.6773 121.469C43.4655 121.137 43.1751 120.877 42.8061 120.689C42.4371 120.495 42.0136 120.399 41.5356 120.399C41.0638 120.399 40.6403 120.495 40.2652 120.689C39.8962 120.877 39.6027 121.137 39.3849 121.469C39.1732 121.802 39.0673 122.183 39.0673 122.613C39.0673 123.042 39.1732 123.427 39.3849 123.765C39.6027 124.104 39.8962 124.373 40.2652 124.573C40.6403 124.767 41.0638 124.863 41.5356 124.863ZM41.5356 116.914C41.9591 116.914 42.3342 116.826 42.6609 116.651C42.9876 116.475 43.2447 116.233 43.4323 115.925C43.6198 115.616 43.7136 115.268 43.7136 114.881C43.7136 114.494 43.6198 114.152 43.4323 113.856C43.2447 113.553 42.9876 113.317 42.6609 113.148C42.3342 112.973 41.9591 112.885 41.5356 112.885C41.1182 112.885 40.7431 112.973 40.4104 113.148C40.0837 113.317 39.8266 113.553 39.639 113.856C39.4515 114.152 39.3577 114.494 39.3577 114.881C39.3577 115.268 39.4515 115.616 39.639 115.925C39.8266 116.227 40.0837 116.469 40.4104 116.651C40.7431 116.826 41.1182 116.914 41.5356 116.914ZM59.3606 128.348C58.2777 128.348 57.2492 128.179 56.2752 127.84C55.3072 127.495 54.4482 126.954 53.698 126.216C52.9478 125.477 52.358 124.516 51.9284 123.33C51.505 122.144 51.2962 120.707 51.3023 119.019C51.3083 117.513 51.5019 116.158 51.8831 114.954C52.2702 113.75 52.8178 112.724 53.5256 111.878C54.2395 111.031 55.0925 110.383 56.0846 109.936C57.0768 109.482 58.1809 109.255 59.3969 109.255C60.7642 109.255 61.9681 109.518 63.0086 110.044C64.0492 110.571 64.878 111.276 65.4951 112.159C66.1182 113.036 66.4812 114.004 66.5841 115.063H61.6111C61.4962 114.536 61.23 114.152 60.8126 113.91C60.4012 113.662 59.9293 113.538 59.3969 113.538C58.3382 113.538 57.5608 113.998 57.0647 114.918C56.5747 115.837 56.3236 117.047 56.3115 118.547H56.4204C56.6564 117.979 57.0133 117.492 57.4912 117.086C57.9692 116.681 58.5257 116.369 59.161 116.152C59.7962 115.934 60.4677 115.825 61.1755 115.825C62.3008 115.825 63.2839 116.079 64.1248 116.587C64.9718 117.095 65.6312 117.791 66.1031 118.674C66.575 119.558 66.8079 120.568 66.8019 121.705C66.8079 123.036 66.4933 124.201 65.8581 125.199C65.2289 126.197 64.3547 126.972 63.2355 127.522C62.1163 128.073 60.8247 128.348 59.3606 128.348ZM59.3243 124.537C59.8264 124.537 60.2711 124.422 60.6583 124.192C61.0515 123.962 61.357 123.647 61.5748 123.248C61.7987 122.849 61.9076 122.395 61.9015 121.887C61.9076 121.373 61.7987 120.919 61.5748 120.526C61.357 120.126 61.0515 119.812 60.6583 119.582C60.2711 119.352 59.8264 119.237 59.3243 119.237C58.9553 119.237 58.6135 119.304 58.2989 119.437C57.9903 119.564 57.7211 119.748 57.4912 119.99C57.2613 120.226 57.0798 120.508 56.9467 120.834C56.8197 121.155 56.7531 121.506 56.7471 121.887C56.7531 122.395 56.8681 122.849 57.0919 123.248C57.3158 123.647 57.6213 123.962 58.0085 124.192C58.3957 124.422 58.8343 124.537 59.3243 124.537Z" fill="black"/>
<path d="M33.418 162.452V153.159H37.2929C37.9887 153.159 38.5709 153.257 39.0398 153.454C39.5117 153.651 39.8656 153.926 40.1015 154.28C40.3405 154.634 40.46 155.044 40.46 155.509C40.46 155.863 40.3859 156.179 40.2377 156.458C40.0894 156.733 39.8853 156.961 39.6251 157.143C39.365 157.324 39.064 157.451 38.7222 157.524V157.615C39.0973 157.633 39.4436 157.734 39.7612 157.919C40.0819 158.103 40.339 158.36 40.5326 158.69C40.7262 159.017 40.823 159.404 40.823 159.852C40.823 160.351 40.6959 160.797 40.4418 161.19C40.1878 161.58 39.8202 161.889 39.3393 162.116C38.8583 162.34 38.2745 162.452 37.5879 162.452H33.418ZM35.664 160.641H37.0524C37.5395 160.641 37.8979 160.549 38.1278 160.364C38.3607 160.18 38.4772 159.923 38.4772 159.593C38.4772 159.354 38.4212 159.148 38.3093 158.976C38.1974 158.8 38.0386 158.666 37.8329 158.572C37.6272 158.475 37.3806 158.427 37.0933 158.427H35.664V160.641ZM35.664 156.979H36.9073C37.1523 156.979 37.3701 156.939 37.5606 156.857C37.7512 156.775 37.8994 156.657 38.0053 156.503C38.1142 156.349 38.1686 156.163 38.1686 155.945C38.1686 155.633 38.0582 155.388 37.8374 155.21C37.6166 155.031 37.3186 154.942 36.9436 154.942H35.664V156.979ZM43.8675 162.57C43.4229 162.57 43.0281 162.495 42.6833 162.347C42.3415 162.196 42.0708 161.969 41.8711 161.667C41.6745 161.361 41.5762 160.978 41.5762 160.519C41.5762 160.131 41.6442 159.805 41.7804 159.539C41.9165 159.272 42.104 159.056 42.343 158.89C42.582 158.723 42.8572 158.598 43.1688 158.513C43.4804 158.425 43.8131 158.366 44.167 158.336C44.5633 158.3 44.8824 158.262 45.1244 158.223C45.3664 158.18 45.5418 158.121 45.6507 158.046C45.7626 157.967 45.8186 157.857 45.8186 157.715V157.692C45.8186 157.459 45.7384 157.279 45.5781 157.152C45.4178 157.025 45.2015 156.961 44.9293 156.961C44.6359 156.961 44.3999 157.025 44.2215 157.152C44.043 157.279 43.9296 157.454 43.8812 157.678L41.8348 157.606C41.8953 157.182 42.0511 156.804 42.3022 156.471C42.5562 156.136 42.9041 155.872 43.3457 155.682C43.7904 155.488 44.3243 155.391 44.9474 155.391C45.3921 155.391 45.802 155.444 46.1771 155.55C46.5521 155.653 46.8788 155.804 47.1571 156.004C47.4354 156.201 47.6502 156.443 47.8014 156.73C47.9557 157.017 48.0328 157.346 48.0328 157.715V162.452H45.9456V161.481H45.8912C45.7672 161.716 45.6084 161.916 45.4148 162.079C45.2242 162.243 44.9989 162.365 44.7387 162.447C44.4816 162.529 44.1912 162.57 43.8675 162.57ZM44.5527 161.118C44.7916 161.118 45.0064 161.069 45.197 160.972C45.3906 160.876 45.5448 160.742 45.6598 160.573C45.7747 160.401 45.8322 160.201 45.8322 159.974V159.312C45.7687 159.345 45.6916 159.375 45.6008 159.402C45.5131 159.43 45.4163 159.455 45.3104 159.48C45.2045 159.504 45.0956 159.525 44.9837 159.543C44.8718 159.561 44.7644 159.578 44.6616 159.593C44.4529 159.626 44.2744 159.678 44.1262 159.747C43.981 159.817 43.8691 159.908 43.7904 160.02C43.7148 160.128 43.677 160.258 43.677 160.41C43.677 160.64 43.7586 160.815 43.922 160.936C44.0884 161.057 44.2986 161.118 44.5527 161.118ZM51.6083 158.477V162.452H49.3895V153.159H51.5357V156.762H51.6128C51.7701 156.332 52.0272 155.996 52.3841 155.754C52.7441 155.512 53.1842 155.391 53.7045 155.391C54.1945 155.391 54.6211 155.5 54.984 155.718C55.347 155.933 55.6283 156.237 55.828 156.63C56.0307 157.023 56.1305 157.483 56.1275 158.009V162.452H53.9087V158.445C53.9117 158.058 53.8149 157.755 53.6183 157.538C53.4217 157.32 53.1449 157.211 52.788 157.211C52.555 157.211 52.3494 157.262 52.1709 157.365C51.9954 157.465 51.8578 157.609 51.758 157.796C51.6612 157.984 51.6113 158.211 51.6083 158.477ZM59.4771 162.57C59.0325 162.57 58.6377 162.495 58.2929 162.347C57.9511 162.196 57.6804 161.969 57.4807 161.667C57.2841 161.361 57.1858 160.978 57.1858 160.519C57.1858 160.131 57.2538 159.805 57.39 159.539C57.5261 159.272 57.7136 159.056 57.9526 158.89C58.1916 158.723 58.4668 158.598 58.7784 158.513C59.09 158.425 59.4227 158.366 59.7766 158.336C60.1729 158.3 60.492 158.262 60.734 158.223C60.976 158.18 61.1514 158.121 61.2603 158.046C61.3722 157.967 61.4282 157.857 61.4282 157.715V157.692C61.4282 157.459 61.348 157.279 61.1877 157.152C61.0274 157.025 60.8111 156.961 60.5389 156.961C60.2455 156.961 60.0095 157.025 59.8311 157.152C59.6526 157.279 59.5392 157.454 59.4908 157.678L57.4444 157.606C57.5049 157.182 57.6607 156.804 57.9118 156.471C58.1659 156.136 58.5137 155.872 58.9554 155.682C59.4 155.488 59.9339 155.391 60.557 155.391C61.0017 155.391 61.4116 155.444 61.7867 155.55C62.1617 155.653 62.4884 155.804 62.7667 156.004C63.045 156.201 63.2598 156.443 63.411 156.73C63.5653 157.017 63.6424 157.346 63.6424 157.715V162.452H61.5553V161.481H61.5008C61.3768 161.716 61.218 161.916 61.0244 162.079C60.8338 162.243 60.6085 162.365 60.3483 162.447C60.0912 162.529 59.8008 162.57 59.4771 162.57ZM60.1623 161.118C60.4013 161.118 60.616 161.069 60.8066 160.972C61.0002 160.876 61.1545 160.742 61.2694 160.573C61.3843 160.401 61.4418 160.201 61.4418 159.974V159.312C61.3783 159.345 61.3012 159.375 61.2104 159.402C61.1227 159.43 61.0259 159.455 60.92 159.48C60.8142 159.504 60.7053 159.525 60.5933 159.543C60.4814 159.561 60.374 159.578 60.2712 159.593C60.0625 159.626 59.884 159.678 59.7358 159.747C59.5906 159.817 59.4787 159.908 59.4 160.02C59.3244 160.128 59.2866 160.258 59.2866 160.41C59.2866 160.64 59.3682 160.815 59.5316 160.936C59.698 161.057 59.9082 161.118 60.1623 161.118ZM71.0837 157.61L69.0464 157.665C69.0252 157.519 68.9678 157.391 68.874 157.279C68.7802 157.164 68.6577 157.075 68.5065 157.011C68.3582 156.945 68.1858 156.911 67.9892 156.911C67.7321 156.911 67.5128 156.963 67.3313 157.066C67.1528 157.169 67.0651 157.308 67.0681 157.483C67.0651 157.619 67.1195 157.737 67.2315 157.837C67.3464 157.937 67.5506 158.017 67.844 158.078L69.1871 158.332C69.8828 158.465 70.4001 158.686 70.7388 158.994C71.0807 159.303 71.2531 159.711 71.2561 160.219C71.2531 160.697 71.1109 161.113 70.8296 161.467C70.5513 161.821 70.1702 162.096 69.6862 162.293C69.2022 162.486 68.6486 162.583 68.0255 162.583C67.0303 162.583 66.2454 162.379 65.6706 161.971C65.0989 161.559 64.7722 161.009 64.6906 160.319L66.8821 160.265C66.9305 160.519 67.056 160.712 67.2587 160.845C67.4614 160.978 67.72 161.045 68.0346 161.045C68.3189 161.045 68.5503 160.992 68.7288 160.886C68.9073 160.78 68.998 160.64 69.001 160.464C68.998 160.307 68.9284 160.181 68.7923 160.088C68.6562 159.991 68.4429 159.915 68.1526 159.861L66.9365 159.629C66.2378 159.502 65.7175 159.268 65.3757 158.926C65.0339 158.581 64.8645 158.143 64.8675 157.61C64.8645 157.144 64.9885 156.747 65.2396 156.417C65.4906 156.084 65.8476 155.83 66.3104 155.655C66.7732 155.479 67.3192 155.391 67.9484 155.391C68.8921 155.391 69.6363 155.59 70.1807 155.986C70.7252 156.379 71.0262 156.921 71.0837 157.61ZM74.3131 162.57C73.8685 162.57 73.4737 162.495 73.1289 162.347C72.7871 162.196 72.5163 161.969 72.3167 161.667C72.1201 161.361 72.0218 160.978 72.0218 160.519C72.0218 160.131 72.0898 159.805 72.226 159.539C72.3621 159.272 72.5496 159.056 72.7886 158.89C73.0276 158.723 73.3028 158.598 73.6144 158.513C73.9259 158.425 74.2587 158.366 74.6126 158.336C75.0089 158.3 75.328 158.262 75.57 158.223C75.812 158.18 75.9874 158.121 76.0963 158.046C76.2082 157.967 76.2642 157.857 76.2642 157.715V157.692C76.2642 157.459 76.184 157.279 76.0237 157.152C75.8634 157.025 75.6471 156.961 75.3749 156.961C75.0815 156.961 74.8455 157.025 74.667 157.152C74.4886 157.279 74.3751 157.454 74.3267 157.678L72.2804 157.606C72.3409 157.182 72.4967 156.804 72.7478 156.471C73.0018 156.136 73.3497 155.872 73.7913 155.682C74.236 155.488 74.7699 155.391 75.393 155.391C75.8377 155.391 76.2476 155.444 76.6226 155.55C76.9977 155.653 77.3244 155.804 77.6027 156.004C77.881 156.201 78.0958 156.443 78.247 156.73C78.4013 157.017 78.4784 157.346 78.4784 157.715V162.452H76.3912V161.481H76.3368C76.2128 161.716 76.054 161.916 75.8604 162.079C75.6698 162.243 75.4444 162.365 75.1843 162.447C74.9272 162.529 74.6368 162.57 74.3131 162.57ZM74.9983 161.118C75.2372 161.118 75.452 161.069 75.6426 160.972C75.8362 160.876 75.9904 160.742 76.1054 160.573C76.2203 160.401 76.2778 160.201 76.2778 159.974V159.312C76.2143 159.345 76.1371 159.375 76.0464 159.402C75.9587 159.43 75.8619 159.455 75.756 159.48C75.6501 159.504 75.5412 159.525 75.4293 159.543C75.3174 159.561 75.21 159.578 75.1072 159.593C74.8985 159.626 74.72 159.678 74.5718 159.747C74.4266 159.817 74.3146 159.908 74.236 160.02C74.1604 160.128 74.1226 160.258 74.1226 160.41C74.1226 160.64 74.2042 160.815 74.3676 160.936C74.534 161.057 74.7442 161.118 74.9983 161.118ZM84.8262 153.159V162.452H82.5802V153.159H84.8262ZM88.4549 158.477V162.452H86.2361V155.482H88.346V156.762H88.4231C88.5774 156.335 88.8406 156.001 89.2126 155.759C89.5847 155.514 90.0279 155.391 90.5421 155.391C91.0321 155.391 91.4571 155.502 91.8171 155.723C92.1801 155.94 92.4614 156.246 92.661 156.639C92.8637 157.029 92.9635 157.486 92.9605 158.009V162.452H90.7417V158.445C90.7448 158.058 90.6464 157.755 90.4468 157.538C90.2502 157.32 89.9764 157.211 89.6255 157.211C89.3926 157.211 89.1869 157.262 89.0085 157.365C88.833 157.465 88.6969 157.609 88.6001 157.796C88.5063 157.984 88.4579 158.211 88.4549 158.477ZM97.5829 165.21C96.9205 165.21 96.3533 165.118 95.8814 164.933C95.4095 164.749 95.039 164.496 94.7698 164.176C94.5005 163.855 94.3387 163.492 94.2843 163.087L96.3851 162.969C96.4244 163.111 96.497 163.235 96.6028 163.341C96.7117 163.447 96.8524 163.528 97.0248 163.586C97.2003 163.643 97.406 163.672 97.6419 163.672C98.014 163.672 98.321 163.581 98.563 163.4C98.808 163.221 98.9305 162.908 98.9305 162.461V161.236H98.8534C98.7656 161.45 98.6326 161.642 98.4541 161.812C98.2756 161.981 98.0533 162.114 97.7871 162.211C97.5239 162.308 97.2214 162.356 96.8796 162.356C96.3714 162.356 95.9056 162.238 95.4821 162.002C95.0617 161.763 94.7244 161.394 94.4703 160.895C94.2192 160.393 94.0937 159.747 94.0937 158.958C94.0937 158.144 94.2238 157.474 94.4839 156.948C94.744 156.418 95.0843 156.027 95.5048 155.773C95.9283 155.518 96.3835 155.391 96.8706 155.391C97.2366 155.391 97.5496 155.455 97.8098 155.582C98.0729 155.706 98.2892 155.866 98.4586 156.063C98.628 156.26 98.7566 156.464 98.8443 156.675H98.9078V155.482H101.118V162.479C101.118 163.069 100.969 163.566 100.673 163.972C100.377 164.377 99.962 164.684 99.4296 164.893C98.8972 165.104 98.2817 165.21 97.5829 165.21ZM97.651 160.741C97.9202 160.741 98.1501 160.67 98.3407 160.528C98.5312 160.386 98.6779 160.181 98.7808 159.915C98.8836 159.649 98.935 159.33 98.935 158.958C98.935 158.58 98.8836 158.254 98.7808 157.982C98.681 157.707 98.5342 157.495 98.3407 157.347C98.1501 157.199 97.9202 157.125 97.651 157.125C97.3757 157.125 97.1428 157.2 96.9522 157.352C96.7617 157.503 96.6165 157.716 96.5166 157.991C96.4198 158.264 96.3714 158.586 96.3714 158.958C96.3714 159.33 96.4214 159.649 96.5212 159.915C96.621 160.181 96.7647 160.386 96.9522 160.528C97.1428 160.67 97.3757 160.741 97.651 160.741ZM105.781 165.21C105.118 165.21 104.551 165.118 104.079 164.933C103.607 164.749 103.237 164.496 102.968 164.176C102.698 163.855 102.537 163.492 102.482 163.087L104.583 162.969C104.622 163.111 104.695 163.235 104.801 163.341C104.91 163.447 105.05 163.528 105.223 163.586C105.398 163.643 105.604 163.672 105.84 163.672C106.212 163.672 106.519 163.581 106.761 163.4C107.006 163.221 107.128 162.908 107.128 162.461V161.236H107.051C106.964 161.45 106.831 161.642 106.652 161.812C106.474 161.981 106.251 162.114 105.985 162.211C105.722 162.308 105.419 162.356 105.078 162.356C104.569 162.356 104.104 162.238 103.68 162.002C103.26 161.763 102.922 161.394 102.668 160.895C102.417 160.393 102.292 159.747 102.292 158.958C102.292 158.144 102.422 157.474 102.682 156.948C102.942 156.418 103.282 156.027 103.703 155.773C104.126 155.518 104.581 155.391 105.069 155.391C105.435 155.391 105.748 155.455 106.008 155.582C106.271 155.706 106.487 155.866 106.657 156.063C106.826 156.26 106.955 156.464 107.042 156.675H107.106V155.482H109.315V162.479C109.315 163.069 109.167 163.566 108.871 163.972C108.574 164.377 108.16 164.684 107.628 164.893C107.095 165.104 106.48 165.21 105.781 165.21ZM105.849 160.741C106.118 160.741 106.348 160.67 106.539 160.528C106.729 160.386 106.876 160.181 106.979 159.915C107.082 159.649 107.133 159.33 107.133 158.958C107.133 158.58 107.082 158.254 106.979 157.982C106.879 157.707 106.732 157.495 106.539 157.347C106.348 157.199 106.118 157.125 105.849 157.125C105.574 157.125 105.341 157.2 105.15 157.352C104.96 157.503 104.814 157.716 104.715 157.991C104.618 158.264 104.569 158.586 104.569 158.958C104.569 159.33 104.619 159.649 104.719 159.915C104.819 160.181 104.963 160.386 105.15 160.528C105.341 160.67 105.574 160.741 105.849 160.741ZM110.73 162.452V155.482H112.885V156.753H112.958C113.085 156.293 113.292 155.951 113.579 155.727C113.867 155.5 114.201 155.387 114.582 155.387C114.685 155.387 114.791 155.394 114.9 155.41C115.009 155.422 115.11 155.441 115.204 155.469V157.397C115.098 157.361 114.959 157.332 114.786 157.311C114.617 157.29 114.466 157.279 114.333 157.279C114.069 157.279 113.832 157.338 113.62 157.456C113.412 157.571 113.247 157.733 113.126 157.941C113.008 158.147 112.949 158.389 112.949 158.667V162.452H110.73ZM116.108 162.452V155.482H118.327V162.452H116.108ZM117.22 154.67C116.908 154.67 116.64 154.567 116.416 154.361C116.193 154.153 116.081 153.902 116.081 153.608C116.081 153.318 116.193 153.07 116.416 152.864C116.64 152.655 116.908 152.551 117.22 152.551C117.534 152.551 117.802 152.655 118.023 152.864C118.246 153.07 118.358 153.318 118.358 153.608C118.358 153.902 118.246 154.153 118.023 154.361C117.802 154.567 117.534 154.67 117.22 154.67ZM125.823 157.61L123.786 157.665C123.765 157.519 123.708 157.391 123.614 157.279C123.52 157.164 123.397 157.075 123.246 157.011C123.098 156.945 122.926 156.911 122.729 156.911C122.472 156.911 122.253 156.963 122.071 157.066C121.893 157.169 121.805 157.308 121.808 157.483C121.805 157.619 121.859 157.737 121.971 157.837C122.086 157.937 122.29 158.017 122.584 158.078L123.927 158.332C124.623 158.465 125.14 158.686 125.479 158.994C125.82 159.303 125.993 159.711 125.996 160.219C125.993 160.697 125.851 161.113 125.569 161.467C125.291 161.821 124.91 162.096 124.426 162.293C123.942 162.486 123.388 162.583 122.765 162.583C121.77 162.583 120.985 162.379 120.41 161.971C119.839 161.559 119.512 161.009 119.43 160.319L121.622 160.265C121.67 160.519 121.796 160.712 121.998 160.845C122.201 160.978 122.46 161.045 122.774 161.045C123.059 161.045 123.29 160.992 123.469 160.886C123.647 160.78 123.738 160.64 123.741 160.464C123.738 160.307 123.668 160.181 123.532 160.088C123.396 159.991 123.183 159.915 122.892 159.861L121.676 159.629C120.978 159.502 120.457 159.268 120.115 158.926C119.774 158.581 119.604 158.143 119.607 157.61C119.604 157.144 119.728 156.747 119.979 156.417C120.23 156.084 120.587 155.83 121.05 155.655C121.513 155.479 122.059 155.391 122.688 155.391C123.632 155.391 124.376 155.59 124.921 155.986C125.465 156.379 125.766 156.921 125.823 157.61ZM36.8528 184.452H33.418V175.159H36.8483C37.7951 175.159 38.6103 175.345 39.2939 175.717C39.9805 176.086 40.5099 176.619 40.882 177.314C41.254 178.007 41.4401 178.836 41.4401 179.801C41.4401 180.769 41.254 181.601 40.882 182.296C40.5129 182.992 39.9851 183.526 39.2984 183.898C38.6118 184.267 37.7966 184.452 36.8528 184.452ZM35.664 182.537H36.7666C37.2869 182.537 37.727 182.449 38.087 182.274C38.4499 182.095 38.7237 181.806 38.9082 181.407C39.0958 181.005 39.1895 180.469 39.1895 179.801C39.1895 179.132 39.0958 178.6 38.9082 178.204C38.7207 177.804 38.4439 177.517 38.0779 177.342C37.7149 177.163 37.2672 177.074 36.7348 177.074H35.664V182.537ZM44.716 184.57C44.2714 184.57 43.8766 184.495 43.5318 184.347C43.19 184.196 42.9192 183.969 42.7196 183.667C42.523 183.361 42.4247 182.978 42.4247 182.519C42.4247 182.131 42.4927 181.805 42.6288 181.539C42.765 181.272 42.9525 181.056 43.1915 180.89C43.4304 180.723 43.7057 180.598 44.0173 180.513C44.3288 180.425 44.6616 180.366 45.0155 180.336C45.4118 180.3 45.7309 180.262 45.9729 180.223C46.2149 180.18 46.3903 180.121 46.4992 180.046C46.6111 179.967 46.6671 179.857 46.6671 179.715V179.692C46.6671 179.459 46.5869 179.279 46.4266 179.152C46.2663 179.025 46.05 178.961 45.7778 178.961C45.4843 178.961 45.2484 179.025 45.0699 179.152C44.8915 179.279 44.778 179.454 44.7296 179.678L42.6833 179.606C42.7438 179.182 42.8996 178.804 43.1506 178.471C43.4047 178.136 43.7526 177.872 44.1942 177.682C44.6389 177.488 45.1728 177.391 45.7959 177.391C46.2406 177.391 46.6504 177.444 47.0255 177.55C47.4006 177.653 47.7273 177.804 48.0056 178.004C48.2839 178.201 48.4987 178.443 48.6499 178.73C48.8042 179.017 48.8813 179.346 48.8813 179.715V184.452H46.7941V183.481H46.7397C46.6157 183.716 46.4569 183.916 46.2633 184.079C46.0727 184.243 45.8473 184.365 45.5872 184.447C45.3301 184.529 45.0397 184.57 44.716 184.57ZM45.4012 183.118C45.6401 183.118 45.8549 183.069 46.0455 182.972C46.2391 182.876 46.3933 182.742 46.5083 182.573C46.6232 182.401 46.6807 182.201 46.6807 181.974V181.312C46.6172 181.345 46.54 181.375 46.4493 181.402C46.3616 181.43 46.2648 181.455 46.1589 181.48C46.053 181.504 45.9441 181.525 45.8322 181.543C45.7203 181.561 45.6129 181.578 45.5101 181.593C45.3013 181.626 45.1229 181.678 44.9747 181.747C44.8295 181.817 44.7175 181.908 44.6389 182.02C44.5633 182.128 44.5255 182.258 44.5255 182.41C44.5255 182.64 44.6071 182.815 44.7705 182.936C44.9368 183.057 45.1471 183.118 45.4012 183.118ZM56.3226 179.61L54.2853 179.665C54.2641 179.519 54.2066 179.391 54.1129 179.279C54.0191 179.164 53.8966 179.075 53.7453 179.011C53.5971 178.945 53.4247 178.911 53.2281 178.911C52.971 178.911 52.7517 178.963 52.5702 179.066C52.3917 179.169 52.304 179.308 52.307 179.483C52.304 179.619 52.3584 179.737 52.4703 179.837C52.5853 179.937 52.7895 180.017 53.0829 180.078L54.4259 180.332C55.1217 180.465 55.6389 180.686 55.9777 180.994C56.3195 181.303 56.492 181.711 56.495 182.219C56.492 182.697 56.3498 183.113 56.0685 183.467C55.7902 183.821 55.409 184.096 54.9251 184.293C54.4411 184.486 53.8875 184.583 53.2644 184.583C52.2692 184.583 51.4842 184.379 50.9095 183.971C50.3378 183.559 50.0111 183.009 49.9294 182.319L52.121 182.265C52.1694 182.519 52.2949 182.712 52.4976 182.845C52.7002 182.978 52.9589 183.045 53.2735 183.045C53.5578 183.045 53.7892 182.992 53.9677 182.886C54.1461 182.78 54.2369 182.64 54.2399 182.464C54.2369 182.307 54.1673 182.181 54.0312 182.088C53.8951 181.991 53.6818 181.915 53.3914 181.861L52.1754 181.629C51.4767 181.502 50.9564 181.268 50.6146 180.926C50.2728 180.581 50.1034 180.143 50.1064 179.61C50.1034 179.144 50.2274 178.747 50.4785 178.417C50.7295 178.084 51.0865 177.83 51.5493 177.655C52.0121 177.479 52.5581 177.391 53.1873 177.391C54.131 177.391 54.8751 177.59 55.4196 177.986C55.9641 178.379 56.2651 178.921 56.3226 179.61ZM59.552 184.57C59.1074 184.57 58.7126 184.495 58.3678 184.347C58.026 184.196 57.7552 183.969 57.5556 183.667C57.359 183.361 57.2607 182.978 57.2607 182.519C57.2607 182.131 57.3287 181.805 57.4648 181.539C57.601 181.272 57.7885 181.056 58.0275 180.89C58.2664 180.723 58.5417 180.598 58.8533 180.513C59.1648 180.425 59.4976 180.366 59.8515 180.336C60.2477 180.3 60.5669 180.262 60.8089 180.223C61.0508 180.18 61.2263 180.121 61.3352 180.046C61.4471 179.967 61.5031 179.857 61.5031 179.715V179.692C61.5031 179.459 61.4229 179.279 61.2626 179.152C61.1023 179.025 60.886 178.961 60.6138 178.961C60.3203 178.961 60.0844 179.025 59.9059 179.152C59.7275 179.279 59.614 179.454 59.5656 179.678L57.5193 179.606C57.5798 179.182 57.7356 178.804 57.9866 178.471C58.2407 178.136 58.5886 177.872 59.0302 177.682C59.4749 177.488 60.0088 177.391 60.6319 177.391C61.0766 177.391 61.4864 177.444 61.8615 177.55C62.2366 177.653 62.5633 177.804 62.8416 178.004C63.1199 178.201 63.3346 178.443 63.4859 178.73C63.6402 179.017 63.7173 179.346 63.7173 179.715V184.452H61.6301V183.481H61.5757C61.4516 183.716 61.2928 183.916 61.0992 184.079C60.9087 184.243 60.6833 184.365 60.4232 184.447C60.1661 184.529 59.8757 184.57 59.552 184.57ZM60.2372 183.118C60.4761 183.118 60.6909 183.069 60.8815 182.972C61.075 182.876 61.2293 182.742 61.3443 182.573C61.4592 182.401 61.5167 182.201 61.5167 181.974V181.312C61.4532 181.345 61.376 181.375 61.2853 181.402C61.1976 181.43 61.1008 181.455 60.9949 181.48C60.889 181.504 60.7801 181.525 60.6682 181.543C60.5563 181.561 60.4489 181.578 60.346 181.593C60.1373 181.626 59.9589 181.678 59.8106 181.747C59.6654 181.817 59.5535 181.908 59.4749 182.02C59.3993 182.128 59.3614 182.258 59.3614 182.41C59.3614 182.64 59.4431 182.815 59.6065 182.936C59.7728 183.057 59.9831 183.118 60.2372 183.118ZM65.074 184.452V177.482H67.2292V178.753H67.3018C67.4288 178.293 67.6361 177.951 67.9234 177.727C68.2108 177.5 68.545 177.387 68.9262 177.387C69.029 177.387 69.1349 177.394 69.2438 177.41C69.3527 177.422 69.454 177.441 69.5478 177.469V179.397C69.4419 179.361 69.3028 179.332 69.1304 179.311C68.961 179.29 68.8097 179.279 68.6766 179.279C68.4135 179.279 68.176 179.338 67.9643 179.456C67.7555 179.571 67.5907 179.733 67.4697 179.941C67.3517 180.147 67.2927 180.389 67.2927 180.667V184.452H65.074Z" fill="#2F2E30"/>
<path d="M132.394 10.7098H27.0364C18.0195 10.7098 10.71 18.0194 10.71 27.0362V196.13C10.71 205.147 18.0195 212.457 27.0364 212.457H132.394C141.41 212.457 148.72 205.147 148.72 196.13V27.0362C148.72 18.0194 141.41 10.7098 132.394 10.7098Z" stroke="url(#paint0_radial_5166_20961)" stroke-width="1.41969"/>
<path d="M132.394 10.7098H27.0364C18.0195 10.7098 10.71 18.0194 10.71 27.0362V196.13C10.71 205.147 18.0195 212.457 27.0364 212.457H132.394C141.41 212.457 148.72 205.147 148.72 196.13V27.0362C148.72 18.0194 141.41 10.7098 132.394 10.7098Z" stroke="url(#paint1_radial_5166_20961)" stroke-width="1.41969"/>
<path d="M132.394 10.7098H27.0364C18.0195 10.7098 10.71 18.0194 10.71 27.0362V196.13C10.71 205.147 18.0195 212.457 27.0364 212.457H132.394C141.41 212.457 148.72 205.147 148.72 196.13V27.0362C148.72 18.0194 141.41 10.7098 132.394 10.7098Z" stroke="url(#paint2_linear_5166_20961)" stroke-width="1.41969"/>
<path d="M132.394 10.7098H27.0364C18.0195 10.7098 10.71 18.0194 10.71 27.0362V196.13C10.71 205.147 18.0195 212.457 27.0364 212.457H132.394C141.41 212.457 148.72 205.147 148.72 196.13V27.0362C148.72 18.0194 141.41 10.7098 132.394 10.7098Z" stroke="#C1BABA" stroke-opacity="0.2" stroke-width="1.41969"/>
</g>
<defs>
<filter id="filter0_dd_5166_20961" x="0.70085" y="0.700789" width="156.633" height="220.603" filterUnits="userSpaceOnUse" color-interpolation-filters="sRGB">
<feFlood flood-opacity="0" result="BackgroundImageFix"/>
<feColorMatrix in="SourceAlpha" type="matrix" values="0 0 0 0 0 0 0 0 0 0 0 0 0 0 0 0 0 0 127 0" result="hardAlpha"/>
<feOffset dx="3.02222" dy="3.2547"/>
<feGaussianBlur stdDeviation="2.44103"/>
<feColorMatrix type="matrix" values="0 0 0 0 0 0 0 0 0 0 0 0 0 0 0 0 0 0 0.1 0"/>
<feBlend mode="normal" in2="BackgroundImageFix" result="effect1_dropShadow_5166_20961"/>
<feColorMatrix in="SourceAlpha" type="matrix" values="0 0 0 0 0 0 0 0 0 0 0 0 0 0 0 0 0 0 127 0" result="hardAlpha"/>
<feOffset dx="-2.32479" dy="-2.32479"/>
<feGaussianBlur stdDeviation="3.48718"/>
<feColorMatrix type="matrix" values="0 0 0 0 0.970833 0 0 0 0 0.985417 0 0 0 0 1 0 0 0 1 0"/>
<feBlend mode="normal" in2="effect1_dropShadow_5166_20961" result="effect2_dropShadow_5166_20961"/>
<feBlend mode="normal" in="SourceGraphic" in2="effect2_dropShadow_5166_20961" result="shape"/>
</filter>
<radialGradient id="paint0_radial_5166_20961" cx="0" cy="0" r="1" gradientUnits="userSpaceOnUse" gradientTransform="translate(11.2543 16.0446) rotate(54.6698) scale(235.24 355.188)">
<stop stop-color="#D8D8D8" stop-opacity="0"/>
<stop offset="1" stop-color="#D8D8D8"/>
</radialGradient>
<radialGradient id="paint1_radial_5166_20961" cx="0" cy="0" r="1" gradientUnits="userSpaceOnUse" gradientTransform="translate(11.9183 206.954) rotate(-54.6598) scale(234.034 353.043)">
<stop stop-color="#D8D8D8" stop-opacity="0"/>
<stop offset="1" stop-color="#D8D8D8"/>
</radialGradient>
<linearGradient id="paint2_linear_5166_20961" x1="12.5822" y1="15.5409" x2="190.155" y2="71.2189" gradientUnits="userSpaceOnUse">
<stop stop-color="white" stop-opacity="0.9"/>
<stop offset="1" stop-color="white" stop-opacity="0"/>
</linearGradient>
</defs>
</svg>
