<svg width="238" height="229" viewBox="0 0 238 229" fill="none" xmlns="http://www.w3.org/2000/svg">
<g filter="url(#filter0_d_4834_20573)">
<rect x="6" y="6" width="207" height="197.272" rx="16" fill="#FFCF54"/>
<rect x="67.8643" y="38" width="83.2722" height="83.2722" rx="14.457" fill="#E8ECEF"/>
<path d="M107.181 93.0571C114.407 93.1945 122.156 91.0516 121.354 80.4888C117.877 80.4889 93.5429 80.4888 93.5429 80.4888C93.5429 91.319 100.114 92.9228 107.181 93.0571Z" fill="#665E66"/>
<path d="M121.354 81.1577L121.354 78.216L108.888 84.4491C107.815 84.9853 106.551 84.9755 105.487 84.4227L93.5428 78.216L93.5428 80.7565L104.516 86.6734C106.188 87.5752 108.193 87.6137 109.899 86.7769L121.354 81.1577Z" fill="#454045"/>
<path d="M104.375 92.656C114.67 93.4582 121.757 91.1852 121.356 81.1572H114.671C113.735 89.1796 110.927 91.72 104.375 92.656Z" fill="#454045"/>
<path d="M110.078 60.4308L128.3 70.1171C130.187 71.1205 130.193 73.8233 128.309 74.8344L110.127 84.5956C108.373 85.5369 106.263 85.5279 104.517 84.5717L86.5228 74.713C84.6574 73.691 84.674 71.0058 86.5519 70.0069L104.554 60.4315C106.28 59.513 108.351 59.5127 110.078 60.4308Z" fill="#665E66"/>
<path d="M116.078 81.295L107.857 71.8275C107.587 71.516 107.115 71.4827 106.803 71.7532C106.492 72.0237 106.459 72.4956 106.729 72.8071L114.95 82.2749C115.22 82.5865 115.692 82.6198 116.004 82.3492C116.316 82.0786 116.349 81.6066 116.078 81.295Z" fill="#EAB14D"/>
<path d="M116.292 94.0476L116.292 81.9043C116.292 81.4917 115.958 81.1572 115.545 81.1572C115.132 81.1572 114.798 81.4917 114.798 81.9043V94.0476C114.798 94.4603 115.132 94.7949 115.545 94.7949C115.958 94.7949 116.292 94.4603 116.292 94.0476Z" fill="#EAB14D"/>
<path d="M112.661 98.0047C112.527 99.7429 113.597 100.545 115.602 100.545C117.608 100.545 118.544 99.7429 118.41 98.0047C117.741 96.1328 116.584 93.7261 115.602 93.7261C114.399 93.7261 113.195 96.4002 112.661 98.0047Z" fill="#F4DD45"/>
<path d="M39.3125 164.272V143.909H53.9886V148.363H44.8409V151.863H53.233V156.318H44.8409V159.818H53.9489V164.272H39.3125ZM62.3384 164.471C61.2513 164.471 60.2504 164.186 59.3356 163.616C58.4274 163.046 57.6983 162.181 57.1481 161.021C56.6045 159.861 56.3327 158.399 56.3327 156.636C56.3327 154.793 56.6178 153.295 57.1879 152.142C57.7646 150.988 58.507 150.143 59.4151 149.606C60.3299 149.069 61.2911 148.801 62.2987 148.801C63.0543 148.801 63.7172 148.933 64.2873 149.198C64.8574 149.457 65.3346 149.805 65.7191 150.242C66.1036 150.673 66.3952 151.147 66.5941 151.664H66.6737V143.909H72.1623V164.272H66.7134V161.767H66.5941C66.382 162.284 66.0771 162.748 65.6793 163.159C65.2882 163.563 64.811 163.884 64.2475 164.123C63.6907 164.355 63.0543 164.471 62.3384 164.471ZM64.3668 160.255C64.8706 160.255 65.3015 160.109 65.6594 159.818C66.024 159.519 66.3024 159.102 66.4947 158.565C66.6935 158.021 66.793 157.378 66.793 156.636C66.793 155.88 66.6935 155.234 66.4947 154.697C66.3024 154.153 66.024 153.739 65.6594 153.454C65.3015 153.162 64.8706 153.017 64.3668 153.017C63.863 153.017 63.4322 153.162 63.0742 153.454C62.7229 153.739 62.4511 154.153 62.2589 154.697C62.0733 155.234 61.9805 155.88 61.9805 156.636C61.9805 157.392 62.0733 158.041 62.2589 158.585C62.4511 159.122 62.7229 159.536 63.0742 159.828C63.4322 160.113 63.863 160.255 64.3668 160.255ZM84.7603 157.59V148.999H90.2489V164.272H85.0387V161.369H84.8796C84.5482 162.343 83.9682 163.106 83.1396 163.656C82.311 164.199 81.3266 164.471 80.1864 164.471C79.1192 164.471 78.1845 164.226 77.3825 163.735C76.587 163.245 75.9672 162.569 75.5231 161.707C75.0856 160.845 74.8635 159.857 74.8569 158.744V148.999H80.3455V157.59C80.3522 158.346 80.5444 158.939 80.9222 159.37C81.3067 159.801 81.8436 160.017 82.533 160.017C82.9904 160.017 83.3848 159.92 83.7163 159.728C84.0543 159.529 84.3129 159.251 84.4918 158.893C84.6774 158.528 84.7669 158.094 84.7603 157.59ZM100.398 164.551C98.7412 164.551 97.3227 164.223 96.1428 163.566C94.9628 162.903 94.058 161.982 93.4283 160.802C92.7985 159.615 92.4837 158.24 92.4837 156.676C92.4837 155.111 92.7985 153.739 93.4283 152.559C94.058 151.373 94.9628 150.451 96.1428 149.795C97.3227 149.132 98.7412 148.801 100.398 148.801C101.897 148.801 103.192 149.072 104.286 149.616C105.387 150.153 106.238 150.915 106.842 151.903C107.445 152.884 107.75 154.037 107.756 155.363H102.665C102.593 154.561 102.361 153.951 101.969 153.534C101.585 153.109 101.088 152.897 100.478 152.897C100.001 152.897 99.5831 153.036 99.2251 153.315C98.8672 153.587 98.5888 154.001 98.3899 154.558C98.1911 155.108 98.0916 155.801 98.0916 156.636C98.0916 157.471 98.1911 158.167 98.3899 158.724C98.5888 159.274 98.8672 159.688 99.2251 159.967C99.5831 160.239 100.001 160.374 100.478 160.374C100.882 160.374 101.24 160.282 101.552 160.096C101.863 159.904 102.115 159.625 102.308 159.261C102.506 158.89 102.626 158.439 102.665 157.909H107.756C107.737 159.254 107.428 160.428 106.832 161.428C106.235 162.423 105.39 163.192 104.296 163.735C103.209 164.279 101.91 164.551 100.398 164.551ZM114.277 164.511C113.302 164.511 112.44 164.352 111.691 164.034C110.949 163.709 110.366 163.218 109.941 162.562C109.517 161.906 109.305 161.071 109.305 160.056C109.305 159.221 109.448 158.508 109.733 157.919C110.018 157.322 110.415 156.835 110.926 156.457C111.436 156.079 112.029 155.791 112.706 155.592C113.388 155.393 114.124 155.264 114.913 155.204C115.768 155.138 116.454 155.058 116.971 154.965C117.495 154.866 117.873 154.73 118.105 154.558C118.337 154.379 118.453 154.143 118.453 153.852V153.812C118.453 153.414 118.3 153.109 117.995 152.897C117.69 152.685 117.299 152.579 116.822 152.579C116.298 152.579 115.871 152.695 115.539 152.927C115.215 153.152 115.019 153.5 114.953 153.971H109.902C109.968 153.043 110.263 152.188 110.787 151.406C111.317 150.617 112.089 149.987 113.103 149.517C114.118 149.039 115.384 148.801 116.902 148.801C117.995 148.801 118.976 148.93 119.845 149.188C120.713 149.44 121.452 149.795 122.062 150.252C122.672 150.703 123.136 151.233 123.454 151.843C123.779 152.446 123.941 153.103 123.941 153.812V164.272H118.811V162.124H118.691C118.386 162.695 118.015 163.155 117.578 163.507C117.147 163.858 116.653 164.113 116.096 164.272C115.546 164.431 114.94 164.511 114.277 164.511ZM116.066 161.051C116.484 161.051 116.875 160.964 117.24 160.792C117.611 160.62 117.913 160.371 118.145 160.046C118.377 159.722 118.493 159.327 118.493 158.863V157.59C118.347 157.65 118.191 157.706 118.025 157.759C117.866 157.812 117.694 157.862 117.508 157.909C117.329 157.955 117.137 157.998 116.931 158.038C116.733 158.078 116.524 158.114 116.305 158.147C115.881 158.214 115.533 158.323 115.261 158.475C114.996 158.621 114.797 158.803 114.664 159.022C114.538 159.234 114.475 159.473 114.475 159.738C114.475 160.162 114.625 160.487 114.923 160.713C115.221 160.938 115.602 161.051 116.066 161.051ZM135.672 148.999V152.977H125.609V148.999H135.672ZM127.558 145.34H133.047V159.36C133.047 159.572 133.083 159.751 133.156 159.897C133.229 160.036 133.342 160.142 133.494 160.215C133.647 160.282 133.842 160.315 134.081 160.315C134.247 160.315 134.439 160.295 134.658 160.255C134.883 160.215 135.049 160.182 135.155 160.156L135.95 164.014C135.705 164.087 135.354 164.176 134.896 164.282C134.446 164.388 133.909 164.458 133.286 164.491C132.026 164.557 130.969 164.428 130.114 164.103C129.259 163.772 128.616 163.251 128.185 162.542C127.754 161.833 127.545 160.945 127.558 159.877V145.34ZM137.912 164.272V148.999H143.4V164.272H137.912ZM140.656 147.409C139.913 147.409 139.277 147.163 138.747 146.673C138.217 146.182 137.951 145.592 137.951 144.903C137.951 144.214 138.217 143.624 138.747 143.133C139.277 142.642 139.913 142.397 140.656 142.397C141.405 142.397 142.041 142.642 142.565 143.133C143.095 143.624 143.36 144.214 143.36 144.903C143.36 145.592 143.095 146.182 142.565 146.673C142.041 147.163 141.405 147.409 140.656 147.409ZM153.555 164.551C151.897 164.551 150.479 164.223 149.299 163.566C148.119 162.903 147.214 161.982 146.585 160.802C145.955 159.615 145.64 158.24 145.64 156.676C145.64 155.111 145.955 153.739 146.585 152.559C147.214 151.373 148.119 150.451 149.299 149.795C150.479 149.132 151.897 148.801 153.555 148.801C155.212 148.801 156.63 149.132 157.81 149.795C158.99 150.451 159.895 151.373 160.525 152.559C161.155 153.739 161.469 155.111 161.469 156.676C161.469 158.24 161.155 159.615 160.525 160.802C159.895 161.982 158.99 162.903 157.81 163.566C156.63 164.223 155.212 164.551 153.555 164.551ZM153.594 160.494C154.058 160.494 154.46 160.338 154.798 160.026C155.136 159.715 155.397 159.271 155.583 158.694C155.769 158.117 155.862 157.431 155.862 156.636C155.862 155.834 155.769 155.148 155.583 154.578C155.397 154.001 155.136 153.557 154.798 153.245C154.46 152.934 154.058 152.778 153.594 152.778C153.104 152.778 152.683 152.934 152.332 153.245C151.98 153.557 151.712 154.001 151.526 154.578C151.341 155.148 151.248 155.834 151.248 156.636C151.248 157.431 151.341 158.117 151.526 158.694C151.712 159.271 151.98 159.715 152.332 160.026C152.683 160.338 153.104 160.494 153.594 160.494ZM169.185 155.681V164.272H163.697V148.999H168.907V151.903H169.066C169.397 150.935 169.981 150.176 170.816 149.626C171.658 149.076 172.639 148.801 173.759 148.801C174.84 148.801 175.778 149.049 176.573 149.546C177.375 150.037 177.995 150.713 178.433 151.575C178.877 152.437 179.095 153.421 179.089 154.528V164.272H173.6V155.681C173.607 154.926 173.415 154.332 173.023 153.901C172.639 153.471 172.102 153.255 171.413 153.255C170.962 153.255 170.567 153.355 170.229 153.553C169.898 153.746 169.643 154.024 169.464 154.389C169.285 154.747 169.192 155.178 169.185 155.681Z" fill="#615E4A"/>
</g>
<defs>
<filter id="filter0_d_4834_20573" x="0.217206" y="0.940054" width="237.36" height="227.632" filterUnits="userSpaceOnUse" color-interpolation-filters="sRGB">
<feFlood flood-opacity="0" result="BackgroundImageFix"/>
<feColorMatrix in="SourceAlpha" type="matrix" values="0 0 0 0 0 0 0 0 0 0 0 0 0 0 0 0 0 0 127 0" result="hardAlpha"/>
<feOffset dx="9.39704" dy="10.1199"/>
<feGaussianBlur stdDeviation="7.58992"/>
<feComposite in2="hardAlpha" operator="out"/>
<feColorMatrix type="matrix" values="0 0 0 0 0.0375 0 0 0 0 0.18975 0 0 0 0 0.3 0 0 0 0.06 0"/>
<feBlend mode="normal" in2="BackgroundImageFix" result="effect1_dropShadow_4834_20573"/>
<feBlend mode="normal" in="SourceGraphic" in2="effect1_dropShadow_4834_20573" result="shape"/>
</filter>
</defs>
</svg>
