<svg width="335" height="230" viewBox="0 0 335 230" fill="none" xmlns="http://www.w3.org/2000/svg">
<g filter="url(#filter0_d_5685_28289)">
<path d="M289 7H153H27C15.9543 7 7 15.9543 7 27V150.5C7 161.546 15.9543 170.5 27 170.5H31C32.1046 170.5 33 171.395 33 172.5V197.65C33 203.175 39.8369 205.764 43.496 201.623L69.5074 172.189C70.4565 171.115 71.8208 170.5 73.254 170.5H289C300.046 170.5 309 161.546 309 150.5V27C309 15.9543 300.046 7 289 7Z" fill="#EDF2F7"/>
<path d="M289 7H153H27C15.9543 7 7 15.9543 7 27V150.5C7 161.546 15.9543 170.5 27 170.5H31C32.1046 170.5 33 171.395 33 172.5V197.65C33 203.175 39.8369 205.764 43.496 201.623L69.5074 172.189C70.4565 171.115 71.8208 170.5 73.254 170.5H289C300.046 170.5 309 161.546 309 150.5V27C309 15.9543 300.046 7 289 7Z" stroke="url(#paint0_radial_5685_28289)" stroke-width="2"/>
<path d="M289 7H153H27C15.9543 7 7 15.9543 7 27V150.5C7 161.546 15.9543 170.5 27 170.5H31C32.1046 170.5 33 171.395 33 172.5V197.65C33 203.175 39.8369 205.764 43.496 201.623L69.5074 172.189C70.4565 171.115 71.8208 170.5 73.254 170.5H289C300.046 170.5 309 161.546 309 150.5V27C309 15.9543 300.046 7 289 7Z" stroke="url(#paint1_radial_5685_28289)" stroke-width="2"/>
<path d="M289 7H153H27C15.9543 7 7 15.9543 7 27V150.5C7 161.546 15.9543 170.5 27 170.5H31C32.1046 170.5 33 171.395 33 172.5V197.65C33 203.175 39.8369 205.764 43.496 201.623L69.5074 172.189C70.4565 171.115 71.8208 170.5 73.254 170.5H289C300.046 170.5 309 161.546 309 150.5V27C309 15.9543 300.046 7 289 7Z" stroke="url(#paint2_linear_5685_28289)" stroke-width="2"/>
<path d="M289 7H153H27C15.9543 7 7 15.9543 7 27V150.5C7 161.546 15.9543 170.5 27 170.5H31C32.1046 170.5 33 171.395 33 172.5V197.65C33 203.175 39.8369 205.764 43.496 201.623L69.5074 172.189C70.4565 171.115 71.8208 170.5 73.254 170.5H289C300.046 170.5 309 161.546 309 150.5V27C309 15.9543 300.046 7 289 7Z" stroke="#C1BABA" stroke-opacity="0.2" stroke-width="2"/>
</g>
<path d="M47.5854 64V50.9091H49.1707V57.4034H49.3241L55.2047 50.9091H57.2758L51.7786 56.8153L57.2758 64H55.3582L50.807 57.9148L49.1707 59.7557V64H47.5854ZM60.6316 50.9091V64H59.1231V50.9091H60.6316ZM63.3946 64V54.1818H64.9031V64H63.3946ZM64.1616 52.5455C63.8676 52.5455 63.614 52.4453 63.4009 52.245C63.1921 52.0447 63.0877 51.804 63.0877 51.5227C63.0877 51.2415 63.1921 51.0007 63.4009 50.8004C63.614 50.6001 63.8676 50.5 64.1616 50.5C64.4556 50.5 64.7071 50.6001 64.9159 50.8004C65.1289 51.0007 65.2355 51.2415 65.2355 51.5227C65.2355 51.804 65.1289 52.0447 64.9159 52.245C64.7071 52.4453 64.4556 52.5455 64.1616 52.5455ZM69.0723 60.4205L69.0467 58.554H69.3535L73.649 54.1818H75.5155L70.9388 58.8097H70.8109L69.0723 60.4205ZM67.666 64V50.9091H69.1746V64H67.666ZM73.9047 64L70.0694 59.142L71.1433 58.0938L75.8223 64H73.9047ZM89.4741 56.3807L88.119 56.7642C88.0338 56.5384 87.908 56.3189 87.7419 56.1058C87.5799 55.8885 87.3583 55.7095 87.0771 55.5689C86.7958 55.4283 86.4357 55.358 85.9968 55.358C85.396 55.358 84.8953 55.4964 84.4947 55.7734C84.0984 56.0462 83.9002 56.3935 83.9002 56.8153C83.9002 57.1903 84.0366 57.4865 84.3093 57.7038C84.5821 57.9212 85.0082 58.1023 85.5877 58.2472L87.0451 58.6051C87.923 58.8182 88.5771 59.1442 89.0075 59.5831C89.4379 60.0178 89.6531 60.5781 89.6531 61.2642C89.6531 61.8267 89.4911 62.3295 89.1673 62.7727C88.8477 63.2159 88.4002 63.5653 87.825 63.821C87.2497 64.0767 86.5806 64.2045 85.8178 64.2045C84.8164 64.2045 83.9876 63.9872 83.3313 63.5526C82.6751 63.1179 82.2596 62.483 82.0849 61.6477L83.5167 61.2898C83.6531 61.8182 83.9109 62.2145 84.2902 62.4787C84.6737 62.7429 85.1744 62.875 85.7923 62.875C86.4954 62.875 87.0536 62.7259 87.467 62.4276C87.8846 62.125 88.0934 61.7628 88.0934 61.3409C88.0934 61 87.9741 60.7145 87.7355 60.4844C87.4968 60.25 87.1303 60.0753 86.636 59.9602L84.9997 59.5767C84.1005 59.3636 83.44 59.0334 83.0181 58.5859C82.6005 58.1342 82.3917 57.5696 82.3917 56.892C82.3917 56.3381 82.5473 55.848 82.8583 55.4219C83.1737 54.9957 83.6019 54.6612 84.1431 54.4183C84.6886 54.1754 85.3065 54.054 85.9968 54.054C86.9684 54.054 87.7312 54.267 88.2852 54.6932C88.8434 55.1193 89.2397 55.6818 89.4741 56.3807ZM94.8131 64.2301C94.1909 64.2301 93.6263 64.1129 93.1192 63.8786C92.6121 63.6399 92.2094 63.2969 91.9111 62.8494C91.6128 62.3977 91.4636 61.8523 91.4636 61.2131C91.4636 60.6506 91.5744 60.1946 91.796 59.8452C92.0176 59.4915 92.3138 59.2145 92.6845 59.0142C93.0552 58.8139 93.4643 58.6648 93.9118 58.5668C94.3635 58.4645 94.8173 58.3835 95.2733 58.3239C95.8699 58.2472 96.3535 58.1896 96.7243 58.1513C97.0993 58.1087 97.372 58.0384 97.5425 57.9403C97.7172 57.8423 97.8045 57.6719 97.8045 57.429V57.3778C97.8045 56.7472 97.6319 56.2571 97.2868 55.9077C96.9459 55.5582 96.4281 55.3835 95.7335 55.3835C95.0133 55.3835 94.4487 55.5412 94.0396 55.8565C93.6305 56.1719 93.3429 56.5085 93.1767 56.8665L91.7449 56.3551C92.0006 55.7585 92.3415 55.294 92.7676 54.9616C93.198 54.625 93.6667 54.3906 94.1739 54.2585C94.6852 54.1222 95.1881 54.054 95.6824 54.054C95.9977 54.054 96.3599 54.0923 96.769 54.169C97.1824 54.2415 97.5808 54.3928 97.9643 54.6229C98.3521 54.853 98.6739 55.2003 98.9295 55.6648C99.1852 56.1293 99.3131 56.7514 99.3131 57.5312V64H97.8045V62.6705H97.7278C97.6256 62.8835 97.4551 63.1115 97.2165 63.3544C96.9778 63.5973 96.6604 63.804 96.264 63.9744C95.8677 64.1449 95.3841 64.2301 94.8131 64.2301ZM95.0432 62.875C95.6398 62.875 96.1426 62.7578 96.5517 62.5234C96.965 62.2891 97.2761 61.9865 97.4849 61.6158C97.698 61.245 97.8045 60.8551 97.8045 60.446V59.0653C97.7406 59.142 97.6 59.2124 97.3827 59.2763C97.1696 59.3359 96.9224 59.3892 96.6412 59.4361C96.3642 59.4787 96.0936 59.517 95.8294 59.5511C95.5694 59.581 95.3585 59.6065 95.1966 59.6278C94.8045 59.679 94.4381 59.7621 94.0971 59.8771C93.7605 59.9879 93.4878 60.1562 93.279 60.3821C93.0744 60.6037 92.9721 60.9062 92.9721 61.2898C92.9721 61.8139 93.166 62.2102 93.5538 62.4787C93.9459 62.7429 94.4423 62.875 95.0432 62.875ZM103.575 50.9091V64H102.066V50.9091H103.575ZM109.227 64.2301C108.605 64.2301 108.04 64.1129 107.533 63.8786C107.026 63.6399 106.623 63.2969 106.325 62.8494C106.027 62.3977 105.877 61.8523 105.877 61.2131C105.877 60.6506 105.988 60.1946 106.21 59.8452C106.431 59.4915 106.728 59.2145 107.098 59.0142C107.469 58.8139 107.878 58.6648 108.326 58.5668C108.777 58.4645 109.231 58.3835 109.687 58.3239C110.284 58.2472 110.767 58.1896 111.138 58.1513C111.513 58.1087 111.786 58.0384 111.956 57.9403C112.131 57.8423 112.218 57.6719 112.218 57.429V57.3778C112.218 56.7472 112.046 56.2571 111.701 55.9077C111.36 55.5582 110.842 55.3835 110.147 55.3835C109.427 55.3835 108.863 55.5412 108.453 55.8565C108.044 56.1719 107.757 56.5085 107.591 56.8665L106.159 56.3551C106.414 55.7585 106.755 55.294 107.181 54.9616C107.612 54.625 108.081 54.3906 108.588 54.2585C109.099 54.1222 109.602 54.054 110.096 54.054C110.412 54.054 110.774 54.0923 111.183 54.169C111.596 54.2415 111.995 54.3928 112.378 54.6229C112.766 54.853 113.088 55.2003 113.343 55.6648C113.599 56.1293 113.727 56.7514 113.727 57.5312V64H112.218V62.6705H112.142C112.039 62.8835 111.869 63.1115 111.63 63.3544C111.392 63.5973 111.074 63.804 110.678 63.9744C110.282 64.1449 109.798 64.2301 109.227 64.2301ZM109.457 62.875C110.054 62.875 110.556 62.7578 110.966 62.5234C111.379 62.2891 111.69 61.9865 111.899 61.6158C112.112 61.245 112.218 60.8551 112.218 60.446V59.0653C112.154 59.142 112.014 59.2124 111.797 59.2763C111.583 59.3359 111.336 59.3892 111.055 59.4361C110.778 59.4787 110.507 59.517 110.243 59.5511C109.983 59.581 109.772 59.6065 109.61 59.6278C109.218 59.679 108.852 59.7621 108.511 59.8771C108.174 59.9879 107.902 60.1562 107.693 60.3821C107.488 60.6037 107.386 60.9062 107.386 61.2898C107.386 61.8139 107.58 62.2102 107.968 62.4787C108.36 62.7429 108.856 62.875 109.457 62.875ZM117.989 58.0938V64H116.48V50.9091H117.989V55.7159H118.117C118.347 55.2088 118.692 54.8061 119.152 54.5078C119.617 54.2053 120.235 54.054 121.006 54.054C121.675 54.054 122.261 54.1882 122.764 54.4567C123.267 54.7209 123.656 55.1278 123.933 55.6776C124.215 56.223 124.355 56.9176 124.355 57.7614V64H122.847V57.8636C122.847 57.0838 122.644 56.4808 122.24 56.0547C121.839 55.6243 121.283 55.4091 120.571 55.4091C120.077 55.4091 119.634 55.5135 119.242 55.7223C118.854 55.9311 118.547 56.2358 118.321 56.6364C118.1 57.0369 117.989 57.5227 117.989 58.0938ZM139.132 56.3807L137.777 56.7642C137.692 56.5384 137.566 56.3189 137.4 56.1058C137.238 55.8885 137.016 55.7095 136.735 55.5689C136.454 55.4283 136.094 55.358 135.655 55.358C135.054 55.358 134.553 55.4964 134.153 55.7734C133.756 56.0462 133.558 56.3935 133.558 56.8153C133.558 57.1903 133.695 57.4865 133.967 57.7038C134.24 57.9212 134.666 58.1023 135.246 58.2472L136.703 58.6051C137.581 58.8182 138.235 59.1442 138.665 59.5831C139.096 60.0178 139.311 60.5781 139.311 61.2642C139.311 61.8267 139.149 62.3295 138.825 62.7727C138.506 63.2159 138.058 63.5653 137.483 63.821C136.908 64.0767 136.239 64.2045 135.476 64.2045C134.474 64.2045 133.646 63.9872 132.989 63.5526C132.333 63.1179 131.918 62.483 131.743 61.6477L133.175 61.2898C133.311 61.8182 133.569 62.2145 133.948 62.4787C134.332 62.7429 134.832 62.875 135.45 62.875C136.153 62.875 136.712 62.7259 137.125 62.4276C137.543 62.125 137.751 61.7628 137.751 61.3409C137.751 61 137.632 60.7145 137.393 60.4844C137.155 60.25 136.788 60.0753 136.294 59.9602L134.658 59.5767C133.759 59.3636 133.098 59.0334 132.676 58.5859C132.259 58.1342 132.05 57.5696 132.05 56.892C132.05 56.3381 132.205 55.848 132.516 55.4219C132.832 54.9957 133.26 54.6612 133.801 54.4183C134.347 54.1754 134.964 54.054 135.655 54.054C136.626 54.054 137.389 54.267 137.943 54.6932C138.501 55.1193 138.898 55.6818 139.132 56.3807ZM144.471 64.2301C143.849 64.2301 143.284 64.1129 142.777 63.8786C142.27 63.6399 141.867 63.2969 141.569 62.8494C141.271 62.3977 141.122 61.8523 141.122 61.2131C141.122 60.6506 141.232 60.1946 141.454 59.8452C141.676 59.4915 141.972 59.2145 142.343 59.0142C142.713 58.8139 143.122 58.6648 143.57 58.5668C144.021 58.4645 144.475 58.3835 144.931 58.3239C145.528 58.2472 146.012 58.1896 146.382 58.1513C146.757 58.1087 147.03 58.0384 147.2 57.9403C147.375 57.8423 147.463 57.6719 147.463 57.429V57.3778C147.463 56.7472 147.29 56.2571 146.945 55.9077C146.604 55.5582 146.086 55.3835 145.392 55.3835C144.671 55.3835 144.107 55.5412 143.698 55.8565C143.289 56.1719 143.001 56.5085 142.835 56.8665L141.403 56.3551C141.659 55.7585 141.999 55.294 142.426 54.9616C142.856 54.625 143.325 54.3906 143.832 54.2585C144.343 54.1222 144.846 54.054 145.34 54.054C145.656 54.054 146.018 54.0923 146.427 54.169C146.84 54.2415 147.239 54.3928 147.622 54.6229C148.01 54.853 148.332 55.2003 148.588 55.6648C148.843 56.1293 148.971 56.7514 148.971 57.5312V64H147.463V62.6705H147.386C147.284 62.8835 147.113 63.1115 146.874 63.3544C146.636 63.5973 146.318 63.804 145.922 63.9744C145.526 64.1449 145.042 64.2301 144.471 64.2301ZM144.701 62.875C145.298 62.875 145.801 62.7578 146.21 62.5234C146.623 62.2891 146.934 61.9865 147.143 61.6158C147.356 61.245 147.463 60.8551 147.463 60.446V59.0653C147.399 59.142 147.258 59.2124 147.041 59.2763C146.828 59.3359 146.58 59.3892 146.299 59.4361C146.022 59.4787 145.752 59.517 145.487 59.5511C145.227 59.581 145.017 59.6065 144.855 59.6278C144.463 59.679 144.096 59.7621 143.755 59.8771C143.419 59.9879 143.146 60.1562 142.937 60.3821C142.732 60.6037 142.63 60.9062 142.63 61.2898C142.63 61.8139 142.824 62.2102 143.212 62.4787C143.604 62.7429 144.1 62.875 144.701 62.875ZM155.994 54.1818V55.4602H150.906V54.1818H155.994ZM152.389 51.8295H153.898V61.1875C153.898 61.6136 153.96 61.9332 154.083 62.1463C154.211 62.3551 154.373 62.4957 154.569 62.5682C154.769 62.6364 154.98 62.6705 155.202 62.6705C155.368 62.6705 155.504 62.6619 155.611 62.6449C155.717 62.6236 155.803 62.6065 155.866 62.5938L156.173 63.9489C156.071 63.9872 155.928 64.0256 155.745 64.0639C155.562 64.1065 155.33 64.1278 155.048 64.1278C154.622 64.1278 154.205 64.0362 153.795 63.853C153.391 63.6697 153.054 63.3906 152.786 63.0156C152.521 62.6406 152.389 62.1676 152.389 61.5966V51.8295ZM164.451 59.9858V54.1818H165.96V64H164.451V62.3381H164.349C164.119 62.8366 163.761 63.2607 163.275 63.6101C162.789 63.9553 162.175 64.1278 161.434 64.1278C160.82 64.1278 160.275 63.9936 159.798 63.7251C159.32 63.4524 158.945 63.0433 158.673 62.4979C158.4 61.9482 158.263 61.2557 158.263 60.4205V54.1818H159.772V60.3182C159.772 61.0341 159.972 61.6051 160.373 62.0312C160.778 62.4574 161.293 62.6705 161.92 62.6705C162.295 62.6705 162.676 62.5746 163.064 62.3828C163.456 62.1911 163.784 61.897 164.048 61.5007C164.317 61.1044 164.451 60.5994 164.451 59.9858ZM177.774 64.2045C176.887 64.2045 176.11 63.9936 175.441 63.5717C174.776 63.1499 174.256 62.5597 173.881 61.8011C173.51 61.0426 173.325 60.1562 173.325 59.142C173.325 58.1193 173.51 57.2266 173.881 56.4638C174.256 55.701 174.776 55.1087 175.441 54.6868C176.11 54.2649 176.887 54.054 177.774 54.054C178.66 54.054 179.436 54.2649 180.1 54.6868C180.769 55.1087 181.289 55.701 181.66 56.4638C182.035 57.2266 182.222 58.1193 182.222 59.142C182.222 60.1562 182.035 61.0426 181.66 61.8011C181.289 62.5597 180.769 63.1499 180.1 63.5717C179.436 63.9936 178.66 64.2045 177.774 64.2045ZM177.774 62.8494C178.447 62.8494 179.001 62.6768 179.436 62.3317C179.87 61.9865 180.192 61.5327 180.401 60.9702C180.61 60.4077 180.714 59.7983 180.714 59.142C180.714 58.4858 180.61 57.8743 180.401 57.3075C180.192 56.7408 179.87 56.2827 179.436 55.9332C179.001 55.5838 178.447 55.4091 177.774 55.4091C177.1 55.4091 176.546 55.5838 176.112 55.9332C175.677 56.2827 175.355 56.7408 175.146 57.3075C174.938 57.8743 174.833 58.4858 174.833 59.142C174.833 59.7983 174.938 60.4077 175.146 60.9702C175.355 61.5327 175.677 61.9865 176.112 62.3317C176.546 62.6768 177.1 62.8494 177.774 62.8494ZM184.525 64V54.1818H185.983V55.6648H186.085C186.264 55.179 186.588 54.7848 187.056 54.4822C187.525 54.1797 188.054 54.0284 188.642 54.0284C188.752 54.0284 188.891 54.0305 189.057 54.0348C189.223 54.0391 189.349 54.0455 189.434 54.054V55.5881C189.383 55.5753 189.266 55.5561 189.083 55.5305C188.904 55.5007 188.714 55.4858 188.514 55.4858C188.037 55.4858 187.61 55.5859 187.235 55.7862C186.865 55.9822 186.571 56.255 186.353 56.6044C186.14 56.9496 186.034 57.3437 186.034 57.7869V64H184.525ZM194.112 64.2301C193.49 64.2301 192.925 64.1129 192.418 63.8786C191.911 63.6399 191.508 63.2969 191.21 62.8494C190.911 62.3977 190.762 61.8523 190.762 61.2131C190.762 60.6506 190.873 60.1946 191.095 59.8452C191.316 59.4915 191.612 59.2145 191.983 59.0142C192.354 58.8139 192.763 58.6648 193.21 58.5668C193.662 58.4645 194.116 58.3835 194.572 58.3239C195.169 58.2472 195.652 58.1896 196.023 58.1513C196.398 58.1087 196.671 58.0384 196.841 57.9403C197.016 57.8423 197.103 57.6719 197.103 57.429V57.3778C197.103 56.7472 196.931 56.2571 196.585 55.9077C196.244 55.5582 195.727 55.3835 195.032 55.3835C194.312 55.3835 193.747 55.5412 193.338 55.8565C192.929 56.1719 192.642 56.5085 192.475 56.8665L191.044 56.3551C191.299 55.7585 191.64 55.294 192.066 54.9616C192.497 54.625 192.965 54.3906 193.472 54.2585C193.984 54.1222 194.487 54.054 194.981 54.054C195.296 54.054 195.659 54.0923 196.068 54.169C196.481 54.2415 196.879 54.3928 197.263 54.6229C197.651 54.853 197.972 55.2003 198.228 55.6648C198.484 56.1293 198.612 56.7514 198.612 57.5312V64H197.103V62.6705H197.026C196.924 62.8835 196.754 63.1115 196.515 63.3544C196.276 63.5973 195.959 63.804 195.563 63.9744C195.166 64.1449 194.683 64.2301 194.112 64.2301ZM194.342 62.875C194.938 62.875 195.441 62.7578 195.85 62.5234C196.264 62.2891 196.575 61.9865 196.784 61.6158C196.997 61.245 197.103 60.8551 197.103 60.446V59.0653C197.039 59.142 196.899 59.2124 196.681 59.2763C196.468 59.3359 196.221 59.3892 195.94 59.4361C195.663 59.4787 195.392 59.517 195.128 59.5511C194.868 59.581 194.657 59.6065 194.495 59.6278C194.103 59.679 193.737 59.7621 193.396 59.8771C193.059 59.9879 192.786 60.1562 192.578 60.3821C192.373 60.6037 192.271 60.9062 192.271 61.2898C192.271 61.8139 192.465 62.2102 192.852 62.4787C193.244 62.7429 193.741 62.875 194.342 62.875ZM202.874 58.0938V64H201.365V54.1818H202.822V55.7159H202.95C203.18 55.2173 203.53 54.8168 203.999 54.5142C204.467 54.2074 205.072 54.054 205.814 54.054C206.479 54.054 207.06 54.1903 207.559 54.4631C208.058 54.7315 208.445 55.1406 208.722 55.6903C208.999 56.2358 209.138 56.9261 209.138 57.7614V64H207.629V57.8636C207.629 57.0923 207.429 56.4915 207.028 56.0611C206.628 55.6264 206.078 55.4091 205.379 55.4091C204.898 55.4091 204.467 55.5135 204.088 55.7223C203.713 55.9311 203.417 56.2358 203.2 56.6364C202.982 57.0369 202.874 57.5227 202.874 58.0938ZM215.857 67.8864C215.129 67.8864 214.502 67.7926 213.978 67.6051C213.454 67.4219 213.017 67.179 212.668 66.8764C212.323 66.5781 212.048 66.2585 211.843 65.9176L213.045 65.0739C213.181 65.2528 213.354 65.4574 213.563 65.6875C213.771 65.9219 214.057 66.1243 214.419 66.2947C214.786 66.4695 215.265 66.5568 215.857 66.5568C216.65 66.5568 217.304 66.3651 217.82 65.9815C218.335 65.598 218.593 64.9972 218.593 64.179V62.1847H218.465C218.355 62.3636 218.197 62.5852 217.992 62.8494C217.792 63.1094 217.502 63.3416 217.123 63.5462C216.748 63.7464 216.241 63.8466 215.602 63.8466C214.809 63.8466 214.097 63.6591 213.467 63.2841C212.84 62.9091 212.344 62.3636 211.977 61.6477C211.615 60.9318 211.434 60.0625 211.434 59.0398C211.434 58.0341 211.611 57.1584 211.965 56.4126C212.318 55.6626 212.811 55.0831 213.441 54.674C214.072 54.2607 214.801 54.054 215.627 54.054C216.267 54.054 216.774 54.1605 217.149 54.3736C217.528 54.5824 217.818 54.821 218.018 55.0895C218.222 55.3537 218.38 55.571 218.491 55.7415H218.644V54.1818H220.102V64.2812C220.102 65.125 219.91 65.8111 219.526 66.3395C219.147 66.8722 218.636 67.2621 217.992 67.5092C217.353 67.7607 216.642 67.8864 215.857 67.8864ZM215.806 62.4915C216.411 62.4915 216.923 62.353 217.34 62.076C217.758 61.799 218.075 61.4006 218.293 60.8807C218.51 60.3608 218.619 59.7386 218.619 59.0142C218.619 58.3068 218.512 57.6825 218.299 57.1413C218.086 56.6001 217.771 56.1761 217.353 55.8693C216.936 55.5625 216.42 55.4091 215.806 55.4091C215.167 55.4091 214.634 55.571 214.208 55.8949C213.786 56.2187 213.469 56.6534 213.256 57.1989C213.047 57.7443 212.943 58.3494 212.943 59.0142C212.943 59.696 213.049 60.299 213.262 60.8232C213.48 61.343 213.799 61.7521 214.221 62.0504C214.647 62.3445 215.176 62.4915 215.806 62.4915ZM231.633 64.2045C230.815 64.2045 230.093 63.9979 229.466 63.5845C228.84 63.1669 228.35 62.5788 227.996 61.8203C227.642 61.0575 227.465 60.1562 227.465 59.1165C227.465 58.0852 227.642 57.1903 227.996 56.4318C228.35 55.6733 228.842 55.0874 229.472 54.674C230.103 54.2607 230.832 54.054 231.659 54.054C232.298 54.054 232.803 54.1605 233.173 54.3736C233.548 54.5824 233.834 54.821 234.03 55.0895C234.23 55.3537 234.386 55.571 234.497 55.7415H234.624V50.9091H236.133V64H234.676V62.4915H234.497C234.386 62.6705 234.228 62.8963 234.024 63.169C233.819 63.4375 233.527 63.6783 233.148 63.8913C232.769 64.1001 232.264 64.2045 231.633 64.2045ZM231.838 62.8494C232.443 62.8494 232.954 62.6918 233.372 62.3764C233.789 62.0568 234.107 61.6158 234.324 61.0533C234.541 60.4865 234.65 59.8324 234.65 59.0909C234.65 58.358 234.544 57.7166 234.33 57.1669C234.117 56.6129 233.802 56.1825 233.384 55.8757C232.967 55.5646 232.451 55.4091 231.838 55.4091C231.198 55.4091 230.666 55.5732 230.24 55.9013C229.818 56.2251 229.5 56.6662 229.287 57.2244C229.078 57.7784 228.974 58.4006 228.974 59.0909C228.974 59.7898 229.08 60.4247 229.294 60.9957C229.511 61.5625 229.83 62.0142 230.252 62.3509C230.678 62.6832 231.207 62.8494 231.838 62.8494ZM239.105 64V54.1818H240.614V64H239.105ZM239.872 52.5455C239.578 52.5455 239.325 52.4453 239.112 52.245C238.903 52.0447 238.798 51.804 238.798 51.5227C238.798 51.2415 238.903 51.0007 239.112 50.8004C239.325 50.6001 239.578 50.5 239.872 50.5C240.166 50.5 240.418 50.6001 240.627 50.8004C240.84 51.0007 240.946 51.2415 240.946 51.5227C240.946 51.804 240.84 52.0447 240.627 52.245C240.418 52.4453 240.166 52.5455 239.872 52.5455ZM251.328 64.2301C250.706 64.2301 250.142 64.1129 249.635 63.8786C249.127 63.6399 248.725 63.2969 248.426 62.8494C248.128 62.3977 247.979 61.8523 247.979 61.2131C247.979 60.6506 248.09 60.1946 248.311 59.8452C248.533 59.4915 248.829 59.2145 249.2 59.0142C249.571 58.8139 249.98 58.6648 250.427 58.5668C250.879 58.4645 251.333 58.3835 251.789 58.3239C252.385 58.2472 252.869 58.1896 253.24 58.1513C253.615 58.1087 253.887 58.0384 254.058 57.9403C254.233 57.8423 254.32 57.6719 254.32 57.429V57.3778C254.32 56.7472 254.147 56.2571 253.802 55.9077C253.461 55.5582 252.944 55.3835 252.249 55.3835C251.529 55.3835 250.964 55.5412 250.555 55.8565C250.146 56.1719 249.858 56.5085 249.692 56.8665L248.26 56.3551C248.516 55.7585 248.857 55.294 249.283 54.9616C249.713 54.625 250.182 54.3906 250.689 54.2585C251.201 54.1222 251.703 54.054 252.198 54.054C252.513 54.054 252.875 54.0923 253.284 54.169C253.698 54.2415 254.096 54.3928 254.48 54.6229C254.868 54.853 255.189 55.2003 255.445 55.6648C255.701 56.1293 255.828 56.7514 255.828 57.5312V64H254.32V62.6705H254.243C254.141 62.8835 253.971 63.1115 253.732 63.3544C253.493 63.5973 253.176 63.804 252.779 63.9744C252.383 64.1449 251.9 64.2301 251.328 64.2301ZM251.559 62.875C252.155 62.875 252.658 62.7578 253.067 62.5234C253.48 62.2891 253.792 61.9865 254 61.6158C254.213 61.245 254.32 60.8551 254.32 60.446V59.0653C254.256 59.142 254.115 59.2124 253.898 59.2763C253.685 59.3359 253.438 59.3892 253.157 59.4361C252.88 59.4787 252.609 59.517 252.345 59.5511C252.085 59.581 251.874 59.6065 251.712 59.6278C251.32 59.679 250.953 59.7621 250.613 59.8771C250.276 59.9879 250.003 60.1562 249.794 60.3821C249.59 60.6037 249.488 60.9062 249.488 61.2898C249.488 61.8139 249.681 62.2102 250.069 62.4787C250.461 62.7429 250.958 62.875 251.559 62.875ZM262.852 54.1818V55.4602H257.764V54.1818H262.852ZM259.247 51.8295H260.755V61.1875C260.755 61.6136 260.817 61.9332 260.941 62.1463C261.068 62.3551 261.23 62.4957 261.426 62.5682C261.627 62.6364 261.838 62.6705 262.059 62.6705C262.225 62.6705 262.362 62.6619 262.468 62.6449C262.575 62.6236 262.66 62.6065 262.724 62.5938L263.031 63.9489C262.928 63.9872 262.786 64.0256 262.602 64.0639C262.419 64.1065 262.187 64.1278 261.906 64.1278C261.48 64.1278 261.062 64.0362 260.653 63.853C260.248 63.6697 259.911 63.3906 259.643 63.0156C259.379 62.6406 259.247 62.1676 259.247 61.5966V51.8295ZM268.01 64.2301C267.388 64.2301 266.823 64.1129 266.316 63.8786C265.809 63.6399 265.406 63.2969 265.108 62.8494C264.81 62.3977 264.661 61.8523 264.661 61.2131C264.661 60.6506 264.771 60.1946 264.993 59.8452C265.215 59.4915 265.511 59.2145 265.882 59.0142C266.252 58.8139 266.661 58.6648 267.109 58.5668C267.561 58.4645 268.014 58.3835 268.47 58.3239C269.067 58.2472 269.551 58.1896 269.921 58.1513C270.296 58.1087 270.569 58.0384 270.74 57.9403C270.914 57.8423 271.002 57.6719 271.002 57.429V57.3778C271.002 56.7472 270.829 56.2571 270.484 55.9077C270.143 55.5582 269.625 55.3835 268.931 55.3835C268.21 55.3835 267.646 55.5412 267.237 55.8565C266.828 56.1719 266.54 56.5085 266.374 56.8665L264.942 56.3551C265.198 55.7585 265.539 55.294 265.965 54.9616C266.395 54.625 266.864 54.3906 267.371 54.2585C267.882 54.1222 268.385 54.054 268.879 54.054C269.195 54.054 269.557 54.0923 269.966 54.169C270.379 54.2415 270.778 54.3928 271.161 54.6229C271.549 54.853 271.871 55.2003 272.127 55.6648C272.382 56.1293 272.51 56.7514 272.51 57.5312V64H271.002V62.6705H270.925C270.823 62.8835 270.652 63.1115 270.414 63.3544C270.175 63.5973 269.857 63.804 269.461 63.9744C269.065 64.1449 268.581 64.2301 268.01 64.2301ZM268.24 62.875C268.837 62.875 269.34 62.7578 269.749 62.5234C270.162 62.2891 270.473 61.9865 270.682 61.6158C270.895 61.245 271.002 60.8551 271.002 60.446V59.0653C270.938 59.142 270.797 59.2124 270.58 59.2763C270.367 59.3359 270.119 59.3892 269.838 59.4361C269.561 59.4787 269.291 59.517 269.026 59.5511C268.767 59.581 268.556 59.6065 268.394 59.6278C268.002 59.679 267.635 59.7621 267.294 59.8771C266.958 59.9879 266.685 60.1562 266.476 60.3821C266.271 60.6037 266.169 60.9062 266.169 61.2898C266.169 61.8139 266.363 62.2102 266.751 62.4787C267.143 62.7429 267.639 62.875 268.24 62.875ZM282.218 56.3807L280.863 56.7642C280.778 56.5384 280.652 56.3189 280.486 56.1058C280.324 55.8885 280.102 55.7095 279.821 55.5689C279.54 55.4283 279.18 55.358 278.741 55.358C278.14 55.358 277.639 55.4964 277.239 55.7734C276.842 56.0462 276.644 56.3935 276.644 56.8153C276.644 57.1903 276.781 57.4865 277.053 57.7038C277.326 57.9212 277.752 58.1023 278.332 58.2472L279.789 58.6051C280.667 58.8182 281.321 59.1442 281.751 59.5831C282.182 60.0178 282.397 60.5781 282.397 61.2642C282.397 61.8267 282.235 62.3295 281.911 62.7727C281.592 63.2159 281.144 63.5653 280.569 63.821C279.994 64.0767 279.325 64.2045 278.562 64.2045C277.56 64.2045 276.732 63.9872 276.075 63.5526C275.419 63.1179 275.004 62.483 274.829 61.6477L276.261 61.2898C276.397 61.8182 276.655 62.2145 277.034 62.4787C277.418 62.7429 277.918 62.875 278.536 62.875C279.239 62.875 279.798 62.7259 280.211 62.4276C280.629 62.125 280.837 61.7628 280.837 61.3409C280.837 61 280.718 60.7145 280.479 60.4844C280.241 60.25 279.874 60.0753 279.38 59.9602L277.744 59.5767C276.844 59.3636 276.184 59.0334 275.762 58.5859C275.344 58.1342 275.136 57.5696 275.136 56.892C275.136 56.3381 275.291 55.848 275.602 55.4219C275.918 54.9957 276.346 54.6612 276.887 54.4183C277.433 54.1754 278.05 54.054 278.741 54.054C279.712 54.054 280.475 54.267 281.029 54.6932C281.587 55.1193 281.984 55.6818 282.218 56.3807ZM53.5684 90.9858V85.1818H55.0769V95H53.5684V93.3381H53.4661C53.236 93.8366 52.878 94.2607 52.3922 94.6101C51.9065 94.9553 51.2928 95.1278 50.5513 95.1278C49.9377 95.1278 49.3922 94.9936 48.915 94.7251C48.4377 94.4524 48.0627 94.0433 47.79 93.4979C47.5172 92.9482 47.3809 92.2557 47.3809 91.4205V85.1818H48.8894V91.3182C48.8894 92.0341 49.0897 92.6051 49.4903 93.0312C49.8951 93.4574 50.4107 93.6705 51.0371 93.6705C51.4121 93.6705 51.7935 93.5746 52.1813 93.3828C52.5734 93.1911 52.9015 92.897 53.1657 92.5007C53.4341 92.1044 53.5684 91.5994 53.5684 90.9858ZM59.3484 89.0938V95H57.8399V85.1818H59.2973V86.7159H59.4251C59.6552 86.2173 60.0046 85.8168 60.4734 85.5142C60.9421 85.2074 61.5473 85.054 62.2887 85.054C62.9535 85.054 63.5352 85.1903 64.0338 85.4631C64.5323 85.7315 64.9201 86.1406 65.1971 86.6903C65.4741 87.2358 65.6126 87.9261 65.6126 88.7614V95H64.1041V88.8636C64.1041 88.0923 63.9038 87.4915 63.5032 87.0611C63.1027 86.6264 62.5529 86.4091 61.8541 86.4091C61.3725 86.4091 60.9421 86.5135 60.5629 86.7223C60.1879 86.9311 59.8917 87.2358 59.6744 87.6364C59.4571 88.0369 59.3484 88.5227 59.3484 89.0938ZM72.639 85.1818V86.4602H67.551V85.1818H72.639ZM69.0339 82.8295H70.5425V92.1875C70.5425 92.6136 70.6042 92.9332 70.7278 93.1463C70.8557 93.3551 71.0176 93.4957 71.2136 93.5682C71.4139 93.6364 71.6248 93.6705 71.8464 93.6705C72.0126 93.6705 72.149 93.6619 72.2555 93.6449C72.3621 93.6236 72.4473 93.6065 72.5112 93.5938L72.818 94.9489C72.7158 94.9872 72.573 95.0256 72.3898 95.0639C72.2065 95.1065 71.9743 95.1278 71.693 95.1278C71.2669 95.1278 70.8493 95.0362 70.4402 94.853C70.0354 94.6697 69.6987 94.3906 69.4302 94.0156C69.166 93.6406 69.0339 93.1676 69.0339 92.5966V82.8295ZM81.0957 90.9858V85.1818H82.6042V95H81.0957V93.3381H80.9935C80.7633 93.8366 80.4054 94.2607 79.9196 94.6101C79.4338 94.9553 78.8202 95.1278 78.0787 95.1278C77.465 95.1278 76.9196 94.9936 76.4423 94.7251C75.965 94.4524 75.59 94.0433 75.3173 93.4979C75.0446 92.9482 74.9082 92.2557 74.9082 91.4205V85.1818H76.4167V91.3182C76.4167 92.0341 76.617 92.6051 77.0176 93.0312C77.4224 93.4574 77.9381 93.6705 78.5645 93.6705C78.9395 93.6705 79.3209 93.5746 79.7087 93.3828C80.1007 93.1911 80.4288 92.897 80.693 92.5007C80.9615 92.1044 81.0957 91.5994 81.0957 90.9858ZM86.7735 91.4205L86.7479 89.554H87.0547L91.3502 85.1818H93.2166L88.6399 89.8097H88.5121L86.7735 91.4205ZM85.3672 95V81.9091H86.8757V95H85.3672ZM91.6058 95L87.7706 90.142L88.8445 89.0938L93.5235 95H91.6058ZM100.221 95V85.1818H101.678V86.7159H101.806C102.01 86.1918 102.341 85.7848 102.797 85.495C103.252 85.201 103.8 85.054 104.439 85.054C105.087 85.054 105.626 85.201 106.056 85.495C106.491 85.7848 106.83 86.1918 107.073 86.7159H107.175C107.426 86.2088 107.804 85.8061 108.306 85.5078C108.809 85.2053 109.412 85.054 110.115 85.054C110.993 85.054 111.711 85.3288 112.27 85.8786C112.828 86.424 113.107 87.2741 113.107 88.429V95H111.598V88.429C111.598 87.7045 111.4 87.1868 111.004 86.8757C110.608 86.5646 110.141 86.4091 109.604 86.4091C108.914 86.4091 108.379 86.6179 108 87.0355C107.62 87.4489 107.431 87.973 107.431 88.608V95H105.897V88.2756C105.897 87.7173 105.716 87.2678 105.353 86.9268C104.991 86.5817 104.525 86.4091 103.953 86.4091C103.561 86.4091 103.195 86.5135 102.854 86.7223C102.517 86.9311 102.245 87.2209 102.036 87.5916C101.831 87.9581 101.729 88.3821 101.729 88.8636V95H100.221ZM119.982 95.2045C119.036 95.2045 118.219 94.9957 117.533 94.5781C116.852 94.1562 116.325 93.5682 115.955 92.8139C115.588 92.0554 115.405 91.1733 115.405 90.1676C115.405 89.1619 115.588 88.2756 115.955 87.5085C116.325 86.7372 116.841 86.1364 117.501 85.706C118.166 85.2713 118.942 85.054 119.828 85.054C120.339 85.054 120.844 85.1392 121.343 85.3097C121.842 85.4801 122.295 85.7571 122.705 86.1406C123.114 86.5199 123.44 87.0227 123.683 87.6491C123.925 88.2756 124.047 89.0469 124.047 89.9631V90.6023H116.479V89.2983H122.513C122.513 88.7443 122.402 88.25 122.18 87.8153C121.963 87.3807 121.652 87.0376 121.247 86.7862C120.847 86.5348 120.374 86.4091 119.828 86.4091C119.227 86.4091 118.707 86.5582 118.268 86.8565C117.834 87.1506 117.499 87.5341 117.265 88.0071C117.031 88.4801 116.913 88.9872 116.913 89.5284V90.3977C116.913 91.1392 117.041 91.7678 117.297 92.2834C117.557 92.7947 117.917 93.1847 118.377 93.4531C118.837 93.7173 119.372 93.8494 119.982 93.8494C120.378 93.8494 120.736 93.794 121.055 93.6832C121.379 93.5682 121.658 93.3977 121.893 93.1719C122.127 92.9418 122.308 92.6562 122.436 92.3153L123.893 92.7244C123.74 93.2188 123.482 93.6534 123.12 94.0284C122.758 94.3991 122.31 94.6889 121.778 94.8977C121.245 95.1023 120.646 95.2045 119.982 95.2045ZM126.342 95V85.1818H127.799V86.7159H127.927C128.131 86.1918 128.462 85.7848 128.918 85.495C129.374 85.201 129.921 85.054 130.56 85.054C131.208 85.054 131.747 85.201 132.178 85.495C132.612 85.7848 132.951 86.1918 133.194 86.7159H133.296C133.548 86.2088 133.925 85.8061 134.428 85.5078C134.93 85.2053 135.533 85.054 136.237 85.054C137.114 85.054 137.832 85.3288 138.391 85.8786C138.949 86.424 139.228 87.2741 139.228 88.429V95H137.719V88.429C137.719 87.7045 137.521 87.1868 137.125 86.8757C136.729 86.5646 136.262 86.4091 135.725 86.4091C135.035 86.4091 134.5 86.6179 134.121 87.0355C133.741 87.4489 133.552 87.973 133.552 88.608V95H132.018V88.2756C132.018 87.7173 131.837 87.2678 131.474 86.9268C131.112 86.5817 130.646 86.4091 130.075 86.4091C129.683 86.4091 129.316 86.5135 128.975 86.7223C128.638 86.9311 128.366 87.2209 128.157 87.5916C127.952 87.9581 127.85 88.3821 127.85 88.8636V95H126.342ZM142.191 95V81.9091H143.699V86.7415H143.827C143.938 86.571 144.091 86.3537 144.287 86.0895C144.488 85.821 144.773 85.5824 145.144 85.3736C145.519 85.1605 146.026 85.054 146.665 85.054C147.492 85.054 148.221 85.2607 148.851 85.674C149.482 86.0874 149.974 86.6733 150.328 87.4318C150.681 88.1903 150.858 89.0852 150.858 90.1165C150.858 91.1562 150.681 92.0575 150.328 92.8203C149.974 93.5788 149.484 94.1669 148.858 94.5845C148.231 94.9979 147.509 95.2045 146.691 95.2045C146.06 95.2045 145.555 95.1001 145.176 94.8913C144.797 94.6783 144.505 94.4375 144.3 94.169C144.096 93.8963 143.938 93.6705 143.827 93.4915H143.648V95H142.191ZM143.674 90.0909C143.674 90.8324 143.782 91.4865 144 92.0533C144.217 92.6158 144.534 93.0568 144.952 93.3764C145.37 93.6918 145.881 93.8494 146.486 93.8494C147.117 93.8494 147.643 93.6832 148.065 93.3509C148.491 93.0142 148.811 92.5625 149.024 91.9957C149.241 91.4247 149.35 90.7898 149.35 90.0909C149.35 89.4006 149.243 88.7784 149.03 88.2244C148.821 87.6662 148.504 87.2251 148.078 86.9013C147.656 86.5732 147.125 86.4091 146.486 86.4091C145.873 86.4091 145.357 86.5646 144.939 86.8757C144.522 87.1825 144.206 87.6129 143.993 88.1669C143.78 88.7166 143.674 89.358 143.674 90.0909ZM156.055 95.2301C155.433 95.2301 154.868 95.1129 154.361 94.8786C153.854 94.6399 153.451 94.2969 153.153 93.8494C152.855 93.3977 152.706 92.8523 152.706 92.2131C152.706 91.6506 152.816 91.1946 153.038 90.8452C153.26 90.4915 153.556 90.2145 153.926 90.0142C154.297 89.8139 154.706 89.6648 155.154 89.5668C155.605 89.4645 156.059 89.3835 156.515 89.3239C157.112 89.2472 157.596 89.1896 157.966 89.1513C158.341 89.1087 158.614 89.0384 158.784 88.9403C158.959 88.8423 159.047 88.6719 159.047 88.429V88.3778C159.047 87.7472 158.874 87.2571 158.529 86.9077C158.188 86.5582 157.67 86.3835 156.975 86.3835C156.255 86.3835 155.691 86.5412 155.282 86.8565C154.873 87.1719 154.585 87.5085 154.419 87.8665L152.987 87.3551C153.243 86.7585 153.583 86.294 154.01 85.9616C154.44 85.625 154.909 85.3906 155.416 85.2585C155.927 85.1222 156.43 85.054 156.924 85.054C157.24 85.054 157.602 85.0923 158.011 85.169C158.424 85.2415 158.823 85.3928 159.206 85.6229C159.594 85.853 159.916 86.2003 160.172 86.6648C160.427 87.1293 160.555 87.7514 160.555 88.5312V95H159.047V93.6705H158.97C158.868 93.8835 158.697 94.1115 158.458 94.3544C158.22 94.5973 157.902 94.804 157.506 94.9744C157.11 95.1449 156.626 95.2301 156.055 95.2301ZM156.285 93.875C156.882 93.875 157.385 93.7578 157.794 93.5234C158.207 93.2891 158.518 92.9865 158.727 92.6158C158.94 92.245 159.047 91.8551 159.047 91.446V90.0653C158.983 90.142 158.842 90.2124 158.625 90.2763C158.412 90.3359 158.164 90.3892 157.883 90.4361C157.606 90.4787 157.336 90.517 157.071 90.5511C156.811 90.581 156.6 90.6065 156.439 90.6278C156.047 90.679 155.68 90.7621 155.339 90.8771C155.002 90.9879 154.73 91.1562 154.521 91.3821C154.316 91.6037 154.214 91.9062 154.214 92.2898C154.214 92.8139 154.408 93.2102 154.796 93.4787C155.188 93.7429 155.684 93.875 156.285 93.875ZM164.817 89.0938V95H163.308V85.1818H164.766V86.7159H164.894C165.124 86.2173 165.473 85.8168 165.942 85.5142C166.411 85.2074 167.016 85.054 167.757 85.054C168.422 85.054 169.004 85.1903 169.502 85.4631C170.001 85.7315 170.389 86.1406 170.666 86.6903C170.943 87.2358 171.081 87.9261 171.081 88.7614V95H169.573V88.8636C169.573 88.0923 169.372 87.4915 168.972 87.0611C168.571 86.6264 168.021 86.4091 167.323 86.4091C166.841 86.4091 166.411 86.5135 166.031 86.7223C165.656 86.9311 165.36 87.2358 165.143 87.6364C164.926 88.0369 164.817 88.5227 164.817 89.0938ZM178.108 85.1818V86.4602H173.02V85.1818H178.108ZM174.502 82.8295H176.011V92.1875C176.011 92.6136 176.073 92.9332 176.196 93.1463C176.324 93.3551 176.486 93.4957 176.682 93.5682C176.882 93.6364 177.093 93.6705 177.315 93.6705C177.481 93.6705 177.618 93.6619 177.724 93.6449C177.831 93.6236 177.916 93.6065 177.98 93.5938L178.287 94.9489C178.184 94.9872 178.042 95.0256 177.858 95.0639C177.675 95.1065 177.443 95.1278 177.162 95.1278C176.735 95.1278 176.318 95.0362 175.909 94.853C175.504 94.6697 175.167 94.3906 174.899 94.0156C174.635 93.6406 174.502 93.1676 174.502 92.5966V82.8295ZM186.564 90.9858V85.1818H188.073V95H186.564V93.3381H186.462C186.232 93.8366 185.874 94.2607 185.388 94.6101C184.902 94.9553 184.289 95.1278 183.547 95.1278C182.934 95.1278 182.388 94.9936 181.911 94.7251C181.434 94.4524 181.059 94.0433 180.786 93.4979C180.513 92.9482 180.377 92.2557 180.377 91.4205V85.1818H181.885V91.3182C181.885 92.0341 182.086 92.6051 182.486 93.0312C182.891 93.4574 183.407 93.6705 184.033 93.6705C184.408 93.6705 184.789 93.5746 185.177 93.3828C185.569 93.1911 185.897 92.897 186.162 92.5007C186.43 92.1044 186.564 91.5994 186.564 90.9858ZM195.898 95V85.1818H197.356V86.7159H197.483C197.688 86.1918 198.018 85.7848 198.474 85.495C198.93 85.201 199.478 85.054 200.117 85.054C200.765 85.054 201.304 85.201 201.734 85.495C202.169 85.7848 202.508 86.1918 202.751 86.7159H202.853C203.104 86.2088 203.481 85.8061 203.984 85.5078C204.487 85.2053 205.09 85.054 205.793 85.054C206.671 85.054 207.389 85.3288 207.947 85.8786C208.506 86.424 208.785 87.2741 208.785 88.429V95H207.276V88.429C207.276 87.7045 207.078 87.1868 206.682 86.8757C206.285 86.5646 205.819 86.4091 205.282 86.4091C204.591 86.4091 204.057 86.6179 203.677 87.0355C203.298 87.4489 203.108 87.973 203.108 88.608V95H201.574V88.2756C201.574 87.7173 201.393 87.2678 201.031 86.9268C200.669 86.5817 200.202 86.4091 199.631 86.4091C199.239 86.4091 198.873 86.5135 198.532 86.7223C198.195 86.9311 197.922 87.2209 197.714 87.5916C197.509 87.9581 197.407 88.3821 197.407 88.8636V95H195.898ZM215.659 95.2045C214.713 95.2045 213.897 94.9957 213.211 94.5781C212.529 94.1562 212.003 93.5682 211.632 92.8139C211.266 92.0554 211.083 91.1733 211.083 90.1676C211.083 89.1619 211.266 88.2756 211.632 87.5085C212.003 86.7372 212.519 86.1364 213.179 85.706C213.844 85.2713 214.619 85.054 215.506 85.054C216.017 85.054 216.522 85.1392 217.021 85.3097C217.519 85.4801 217.973 85.7571 218.382 86.1406C218.791 86.5199 219.117 87.0227 219.36 87.6491C219.603 88.2756 219.725 89.0469 219.725 89.9631V90.6023H212.156V89.2983H218.191C218.191 88.7443 218.08 88.25 217.858 87.8153C217.641 87.3807 217.33 87.0376 216.925 86.7862C216.524 86.5348 216.051 86.4091 215.506 86.4091C214.905 86.4091 214.385 86.5582 213.946 86.8565C213.512 87.1506 213.177 87.5341 212.943 88.0071C212.708 88.4801 212.591 88.9872 212.591 89.5284V90.3977C212.591 91.1392 212.719 91.7678 212.975 92.2834C213.235 92.7947 213.595 93.1847 214.055 93.4531C214.515 93.7173 215.05 93.8494 215.659 93.8494C216.056 93.8494 216.414 93.794 216.733 93.6832C217.057 93.5682 217.336 93.3977 217.57 93.1719C217.805 92.9418 217.986 92.6562 218.114 92.3153L219.571 92.7244C219.418 93.2188 219.16 93.6534 218.798 94.0284C218.436 94.3991 217.988 94.6889 217.455 94.8977C216.923 95.1023 216.324 95.2045 215.659 95.2045ZM222.019 95V85.1818H223.477V86.6648H223.579C223.758 86.179 224.082 85.7848 224.551 85.4822C225.019 85.1797 225.548 85.0284 226.136 85.0284C226.247 85.0284 226.385 85.0305 226.551 85.0348C226.718 85.0391 226.843 85.0455 226.928 85.054V86.5881C226.877 86.5753 226.76 86.5561 226.577 86.5305C226.398 86.5007 226.208 86.4858 226.008 86.4858C225.531 86.4858 225.105 86.5859 224.73 86.7862C224.359 86.9822 224.065 87.255 223.847 87.6044C223.634 87.9496 223.528 88.3437 223.528 88.7869V95H222.019ZM232.534 95.2045C231.588 95.2045 230.772 94.9957 230.086 94.5781C229.404 94.1562 228.878 93.5682 228.507 92.8139C228.141 92.0554 227.958 91.1733 227.958 90.1676C227.958 89.1619 228.141 88.2756 228.507 87.5085C228.878 86.7372 229.394 86.1364 230.054 85.706C230.719 85.2713 231.494 85.054 232.381 85.054C232.892 85.054 233.397 85.1392 233.896 85.3097C234.394 85.4801 234.848 85.7571 235.257 86.1406C235.666 86.5199 235.992 87.0227 236.235 87.6491C236.478 88.2756 236.6 89.0469 236.6 89.9631V90.6023H229.031V89.2983H235.066C235.066 88.7443 234.955 88.25 234.733 87.8153C234.516 87.3807 234.205 87.0376 233.8 86.7862C233.399 86.5348 232.926 86.4091 232.381 86.4091C231.78 86.4091 231.26 86.5582 230.821 86.8565C230.387 87.1506 230.052 87.5341 229.818 88.0071C229.583 88.4801 229.466 88.9872 229.466 89.5284V90.3977C229.466 91.1392 229.594 91.7678 229.85 92.2834C230.11 92.7947 230.47 93.1847 230.93 93.4531C231.39 93.7173 231.925 93.8494 232.534 93.8494C232.931 93.8494 233.289 93.794 233.608 93.6832C233.932 93.5682 234.211 93.3977 234.445 93.1719C234.68 92.9418 234.861 92.6562 234.989 92.3153L236.446 92.7244C236.293 93.2188 236.035 93.6534 235.673 94.0284C235.311 94.3991 234.863 94.6889 234.33 94.8977C233.798 95.1023 233.199 95.2045 232.534 95.2045ZM240.301 91.4205L240.275 89.554H240.582L244.877 85.1818H246.744L242.167 89.8097H242.039L240.301 91.4205ZM238.894 95V81.9091H240.403V95H238.894ZM245.133 95L241.298 90.142L242.372 89.0938L247.051 95H245.133ZM251.575 95.2301C250.952 95.2301 250.388 95.1129 249.881 94.8786C249.374 94.6399 248.971 94.2969 248.673 93.8494C248.374 93.3977 248.225 92.8523 248.225 92.2131C248.225 91.6506 248.336 91.1946 248.558 90.8452C248.779 90.4915 249.075 90.2145 249.446 90.0142C249.817 89.8139 250.226 89.6648 250.673 89.5668C251.125 89.4645 251.579 89.3835 252.035 89.3239C252.631 89.2472 253.115 89.1896 253.486 89.1513C253.861 89.1087 254.134 89.0384 254.304 88.9403C254.479 88.8423 254.566 88.6719 254.566 88.429V88.3778C254.566 87.7472 254.393 87.2571 254.048 86.9077C253.707 86.5582 253.19 86.3835 252.495 86.3835C251.775 86.3835 251.21 86.5412 250.801 86.8565C250.392 87.1719 250.104 87.5085 249.938 87.8665L248.506 87.3551C248.762 86.7585 249.103 86.294 249.529 85.9616C249.96 85.625 250.428 85.3906 250.935 85.2585C251.447 85.1222 251.95 85.054 252.444 85.054C252.759 85.054 253.121 85.0923 253.531 85.169C253.944 85.2415 254.342 85.3928 254.726 85.6229C255.114 85.853 255.435 86.2003 255.691 86.6648C255.947 87.1293 256.075 87.7514 256.075 88.5312V95H254.566V93.6705H254.489C254.387 93.8835 254.217 94.1115 253.978 94.3544C253.739 94.5973 253.422 94.804 253.026 94.9744C252.629 95.1449 252.146 95.2301 251.575 95.2301ZM251.805 93.875C252.401 93.875 252.904 93.7578 253.313 93.5234C253.727 93.2891 254.038 92.9865 254.246 92.6158C254.46 92.245 254.566 91.8551 254.566 91.446V90.0653C254.502 90.142 254.362 90.2124 254.144 90.2763C253.931 90.3359 253.684 90.3892 253.403 90.4361C253.126 90.4787 252.855 90.517 252.591 90.5511C252.331 90.581 252.12 90.6065 251.958 90.6278C251.566 90.679 251.2 90.7621 250.859 90.8771C250.522 90.9879 250.249 91.1562 250.04 91.3821C249.836 91.6037 249.734 91.9062 249.734 92.2898C249.734 92.8139 249.928 93.2102 250.315 93.4787C250.707 93.7429 251.204 93.875 251.805 93.875ZM47.3809 126V116.182H48.8383V117.716H48.9661C49.1707 117.192 49.5009 116.785 49.9569 116.495C50.4128 116.201 50.9604 116.054 51.5996 116.054C52.2474 116.054 52.7864 116.201 53.2168 116.495C53.6515 116.785 53.9903 117.192 54.2332 117.716H54.3354C54.5868 117.209 54.964 116.806 55.4668 116.508C55.9697 116.205 56.5726 116.054 57.2758 116.054C58.1536 116.054 58.8716 116.329 59.4299 116.879C59.9881 117.424 60.2672 118.274 60.2672 119.429V126H58.7587V119.429C58.7587 118.705 58.5606 118.187 58.1643 117.876C57.768 117.565 57.3013 117.409 56.7644 117.409C56.0741 117.409 55.5393 117.618 55.16 118.036C54.7807 118.449 54.5911 118.973 54.5911 119.608V126H53.057V119.276C53.057 118.717 52.8759 118.268 52.5137 117.927C52.1515 117.582 51.6849 117.409 51.1138 117.409C50.7218 117.409 50.3553 117.513 50.0144 117.722C49.6778 117.931 49.405 118.221 49.1962 118.592C48.9917 118.958 48.8894 119.382 48.8894 119.864V126H47.3809ZM67.1419 126.205C66.1959 126.205 65.3798 125.996 64.6937 125.578C64.0119 125.156 63.4856 124.568 63.1149 123.814C62.7484 123.055 62.5652 122.173 62.5652 121.168C62.5652 120.162 62.7484 119.276 63.1149 118.509C63.4856 117.737 64.0013 117.136 64.6618 116.706C65.3265 116.271 66.1021 116.054 66.9885 116.054C67.4998 116.054 68.0048 116.139 68.5034 116.31C69.002 116.48 69.4558 116.757 69.8649 117.141C70.274 117.52 70.6 118.023 70.8429 118.649C71.0858 119.276 71.2072 120.047 71.2072 120.963V121.602H63.639V120.298H69.6731C69.6731 119.744 69.5623 119.25 69.3408 118.815C69.1234 118.381 68.8123 118.038 68.4075 117.786C68.0069 117.535 67.5339 117.409 66.9885 117.409C66.3876 117.409 65.8677 117.558 65.4288 117.857C64.9942 118.151 64.6596 118.534 64.4253 119.007C64.1909 119.48 64.0737 119.987 64.0737 120.528V121.398C64.0737 122.139 64.2015 122.768 64.4572 123.283C64.7172 123.795 65.0773 124.185 65.5375 124.453C65.9977 124.717 66.5325 124.849 67.1419 124.849C67.5382 124.849 67.8962 124.794 68.2158 124.683C68.5396 124.568 68.8187 124.398 69.0531 124.172C69.2875 123.942 69.4686 123.656 69.5964 123.315L71.0538 123.724C70.9004 124.219 70.6426 124.653 70.2804 125.028C69.9182 125.399 69.4707 125.689 68.9381 125.898C68.4054 126.102 67.8067 126.205 67.1419 126.205ZM75.0105 120.094V126H73.502V116.182H74.9594V117.716H75.0872C75.3173 117.217 75.6667 116.817 76.1355 116.514C76.6042 116.207 77.2094 116.054 77.9508 116.054C78.6156 116.054 79.1973 116.19 79.6959 116.463C80.1944 116.732 80.5822 117.141 80.8592 117.69C81.1362 118.236 81.2747 118.926 81.2747 119.761V126H79.7662V119.864C79.7662 119.092 79.5659 118.491 79.1653 118.061C78.7648 117.626 78.215 117.409 77.5162 117.409C77.0346 117.409 76.6042 117.513 76.225 117.722C75.85 117.931 75.5538 118.236 75.3365 118.636C75.1192 119.037 75.0105 119.523 75.0105 120.094ZM87.7387 126.205C86.9205 126.205 86.1982 125.998 85.5718 125.585C84.9453 125.167 84.4553 124.579 84.1016 123.82C83.7479 123.058 83.571 122.156 83.571 121.116C83.571 120.085 83.7479 119.19 84.1016 118.432C84.4553 117.673 84.9475 117.087 85.5781 116.674C86.2088 116.261 86.9375 116.054 87.7642 116.054C88.4034 116.054 88.9084 116.161 89.2791 116.374C89.6541 116.582 89.9397 116.821 90.1357 117.089C90.336 117.354 90.4915 117.571 90.6023 117.741H90.7301V112.909H92.2387V126H90.7813V124.491H90.6023C90.4915 124.67 90.3338 124.896 90.1293 125.169C89.9247 125.437 89.6328 125.678 89.2536 125.891C88.8743 126.1 88.3693 126.205 87.7387 126.205ZM87.9432 124.849C88.5483 124.849 89.0597 124.692 89.4773 124.376C89.8949 124.057 90.2124 123.616 90.4297 123.053C90.647 122.487 90.7557 121.832 90.7557 121.091C90.7557 120.358 90.6492 119.717 90.4361 119.167C90.223 118.613 89.9077 118.183 89.4901 117.876C89.0725 117.565 88.5568 117.409 87.9432 117.409C87.304 117.409 86.7713 117.573 86.3452 117.901C85.9233 118.225 85.6058 118.666 85.3928 119.224C85.184 119.778 85.0796 120.401 85.0796 121.091C85.0796 121.79 85.1861 122.425 85.3992 122.996C85.6165 123.562 85.9361 124.014 86.358 124.351C86.7841 124.683 87.3125 124.849 87.9432 124.849ZM98.1002 126.23C97.478 126.23 96.9134 126.113 96.4063 125.879C95.8992 125.64 95.4965 125.297 95.1982 124.849C94.8999 124.398 94.7507 123.852 94.7507 123.213C94.7507 122.651 94.8615 122.195 95.0831 121.845C95.3047 121.491 95.6009 121.214 95.9716 121.014C96.3424 120.814 96.7514 120.665 97.1989 120.567C97.6506 120.464 98.1044 120.384 98.5604 120.324C99.157 120.247 99.6406 120.19 100.011 120.151C100.386 120.109 100.659 120.038 100.829 119.94C101.004 119.842 101.091 119.672 101.091 119.429V119.378C101.091 118.747 100.919 118.257 100.574 117.908C100.233 117.558 99.7152 117.384 99.0206 117.384C98.3004 117.384 97.7358 117.541 97.3267 117.857C96.9176 118.172 96.63 118.509 96.4638 118.866L95.032 118.355C95.2877 117.759 95.6286 117.294 96.0547 116.962C96.4851 116.625 96.9539 116.391 97.461 116.259C97.9723 116.122 98.4752 116.054 98.9695 116.054C99.2848 116.054 99.647 116.092 100.056 116.169C100.469 116.241 100.868 116.393 101.251 116.623C101.639 116.853 101.961 117.2 102.216 117.665C102.472 118.129 102.6 118.751 102.6 119.531V126H101.091V124.67H101.015C100.912 124.884 100.742 125.112 100.503 125.354C100.265 125.597 99.9475 125.804 99.5512 125.974C99.1549 126.145 98.6712 126.23 98.1002 126.23ZM98.3303 124.875C98.9269 124.875 99.4297 124.758 99.8388 124.523C100.252 124.289 100.563 123.987 100.772 123.616C100.985 123.245 101.091 122.855 101.091 122.446V121.065C101.028 121.142 100.887 121.212 100.67 121.276C100.456 121.336 100.209 121.389 99.9283 121.436C99.6513 121.479 99.3807 121.517 99.1165 121.551C98.8566 121.581 98.6456 121.607 98.4837 121.628C98.0916 121.679 97.7252 121.762 97.3843 121.877C97.0476 121.988 96.7749 122.156 96.5661 122.382C96.3615 122.604 96.2593 122.906 96.2593 123.29C96.2593 123.814 96.4531 124.21 96.8409 124.479C97.233 124.743 97.7294 124.875 98.3303 124.875ZM105.353 129.682V116.182H106.811V117.741H106.99C107.1 117.571 107.254 117.354 107.45 117.089C107.65 116.821 107.936 116.582 108.306 116.374C108.681 116.161 109.189 116.054 109.828 116.054C110.654 116.054 111.383 116.261 112.014 116.674C112.645 117.087 113.137 117.673 113.49 118.432C113.844 119.19 114.021 120.085 114.021 121.116C114.021 122.156 113.844 123.058 113.49 123.82C113.137 124.579 112.647 125.167 112.02 125.585C111.394 125.998 110.672 126.205 109.853 126.205C109.223 126.205 108.718 126.1 108.338 125.891C107.959 125.678 107.667 125.437 107.463 125.169C107.258 124.896 107.1 124.67 106.99 124.491H106.862V129.682H105.353ZM106.836 121.091C106.836 121.832 106.945 122.487 107.162 123.053C107.38 123.616 107.697 124.057 108.115 124.376C108.532 124.692 109.044 124.849 109.649 124.849C110.279 124.849 110.806 124.683 111.228 124.351C111.654 124.014 111.973 123.562 112.186 122.996C112.404 122.425 112.512 121.79 112.512 121.091C112.512 120.401 112.406 119.778 112.193 119.224C111.984 118.666 111.667 118.225 111.24 117.901C110.819 117.573 110.288 117.409 109.649 117.409C109.035 117.409 108.52 117.565 108.102 117.876C107.684 118.183 107.369 118.613 107.156 119.167C106.943 119.717 106.836 120.358 106.836 121.091ZM119.211 126.23C118.589 126.23 118.025 126.113 117.517 125.879C117.01 125.64 116.608 125.297 116.309 124.849C116.011 124.398 115.862 123.852 115.862 123.213C115.862 122.651 115.973 122.195 116.194 121.845C116.416 121.491 116.712 121.214 117.083 121.014C117.453 120.814 117.863 120.665 118.31 120.567C118.762 120.464 119.216 120.384 119.672 120.324C120.268 120.247 120.752 120.19 121.123 120.151C121.498 120.109 121.77 120.038 121.941 119.94C122.115 119.842 122.203 119.672 122.203 119.429V119.378C122.203 118.747 122.03 118.257 121.685 117.908C121.344 117.558 120.826 117.384 120.132 117.384C119.412 117.384 118.847 117.541 118.438 117.857C118.029 118.172 117.741 118.509 117.575 118.866L116.143 118.355C116.399 117.759 116.74 117.294 117.166 116.962C117.596 116.625 118.065 116.391 118.572 116.259C119.083 116.122 119.586 116.054 120.081 116.054C120.396 116.054 120.758 116.092 121.167 116.169C121.581 116.241 121.979 116.393 122.363 116.623C122.75 116.853 123.072 117.2 123.328 117.665C123.583 118.129 123.711 118.751 123.711 119.531V126H122.203V124.67H122.126C122.024 124.884 121.853 125.112 121.615 125.354C121.376 125.597 121.059 125.804 120.662 125.974C120.266 126.145 119.782 126.23 119.211 126.23ZM119.441 124.875C120.038 124.875 120.541 124.758 120.95 124.523C121.363 124.289 121.674 123.987 121.883 123.616C122.096 123.245 122.203 122.855 122.203 122.446V121.065C122.139 121.142 121.998 121.212 121.781 121.276C121.568 121.336 121.321 121.389 121.039 121.436C120.762 121.479 120.492 121.517 120.228 121.551C119.968 121.581 119.757 121.607 119.595 121.628C119.203 121.679 118.836 121.762 118.495 121.877C118.159 121.988 117.886 122.156 117.677 122.382C117.473 122.604 117.37 122.906 117.37 123.29C117.37 123.814 117.564 124.21 117.952 124.479C118.344 124.743 118.841 124.875 119.441 124.875ZM130.735 116.182V117.46H125.646V116.182H130.735ZM127.129 113.83H128.638V123.188C128.638 123.614 128.7 123.933 128.823 124.146C128.951 124.355 129.113 124.496 129.309 124.568C129.509 124.636 129.72 124.67 129.942 124.67C130.108 124.67 130.244 124.662 130.351 124.645C130.458 124.624 130.543 124.607 130.607 124.594L130.914 125.949C130.811 125.987 130.669 126.026 130.485 126.064C130.302 126.107 130.07 126.128 129.789 126.128C129.362 126.128 128.945 126.036 128.536 125.853C128.131 125.67 127.794 125.391 127.526 125.016C127.262 124.641 127.129 124.168 127.129 123.597V113.83ZM134.621 122.42L134.595 120.554H134.902L139.198 116.182H141.064L136.487 120.81H136.36L134.621 122.42ZM133.215 126V112.909H134.723V126H133.215ZM139.453 126L135.618 121.142L136.692 120.094L141.371 126H139.453ZM145.895 126.23C145.273 126.23 144.708 126.113 144.201 125.879C143.694 125.64 143.291 125.297 142.993 124.849C142.695 124.398 142.545 123.852 142.545 123.213C142.545 122.651 142.656 122.195 142.878 121.845C143.099 121.491 143.396 121.214 143.766 121.014C144.137 120.814 144.546 120.665 144.994 120.567C145.445 120.464 145.899 120.384 146.355 120.324C146.952 120.247 147.435 120.19 147.806 120.151C148.181 120.109 148.454 120.038 148.624 119.94C148.799 119.842 148.886 119.672 148.886 119.429V119.378C148.886 118.747 148.714 118.257 148.369 117.908C148.028 117.558 147.51 117.384 146.815 117.384C146.095 117.384 145.531 117.541 145.121 117.857C144.712 118.172 144.425 118.509 144.259 118.866L142.827 118.355C143.082 117.759 143.423 117.294 143.849 116.962C144.28 116.625 144.749 116.391 145.256 116.259C145.767 116.122 146.27 116.054 146.764 116.054C147.08 116.054 147.442 116.092 147.851 116.169C148.264 116.241 148.663 116.393 149.046 116.623C149.434 116.853 149.756 117.2 150.011 117.665C150.267 118.129 150.395 118.751 150.395 119.531V126H148.886V124.67H148.81C148.707 124.884 148.537 125.112 148.298 125.354C148.06 125.597 147.742 125.804 147.346 125.974C146.95 126.145 146.466 126.23 145.895 126.23ZM146.125 124.875C146.722 124.875 147.224 124.758 147.634 124.523C148.047 124.289 148.358 123.987 148.567 123.616C148.78 123.245 148.886 122.855 148.886 122.446V121.065C148.822 121.142 148.682 121.212 148.464 121.276C148.251 121.336 148.004 121.389 147.723 121.436C147.446 121.479 147.175 121.517 146.911 121.551C146.651 121.581 146.44 121.607 146.278 121.628C145.886 121.679 145.52 121.762 145.179 121.877C144.842 121.988 144.57 122.156 144.361 122.382C144.156 122.604 144.054 122.906 144.054 123.29C144.054 123.814 144.248 124.21 144.636 124.479C145.028 124.743 145.524 124.875 146.125 124.875ZM154.657 120.094V126H153.148V116.182H154.606V117.716H154.733C154.964 117.217 155.313 116.817 155.782 116.514C156.251 116.207 156.856 116.054 157.597 116.054C158.262 116.054 158.844 116.19 159.342 116.463C159.841 116.732 160.229 117.141 160.506 117.69C160.782 118.236 160.921 118.926 160.921 119.761V126H159.412V119.864C159.412 119.092 159.212 118.491 158.812 118.061C158.411 117.626 157.861 117.409 157.162 117.409C156.681 117.409 156.251 117.513 155.871 117.722C155.496 117.931 155.2 118.236 154.983 118.636C154.765 119.037 154.657 119.523 154.657 120.094ZM168.74 116.182H170.249V126.716C170.249 127.321 170.144 127.845 169.935 128.288C169.731 128.732 169.42 129.075 169.002 129.317C168.589 129.56 168.067 129.682 167.436 129.682C167.385 129.682 167.334 129.682 167.283 129.682C167.232 129.682 167.18 129.682 167.129 129.682V128.276C167.18 128.276 167.227 128.276 167.27 128.276C167.312 128.276 167.359 128.276 167.411 128.276C167.871 128.276 168.207 128.139 168.42 127.866C168.634 127.598 168.74 127.214 168.74 126.716V116.182ZM169.482 114.545C169.188 114.545 168.934 114.445 168.721 114.245C168.512 114.045 168.408 113.804 168.408 113.523C168.408 113.241 168.512 113.001 168.721 112.8C168.934 112.6 169.188 112.5 169.482 112.5C169.776 112.5 170.027 112.6 170.236 112.8C170.449 113.001 170.555 113.241 170.555 113.523C170.555 113.804 170.449 114.045 170.236 114.245C170.027 114.445 169.776 114.545 169.482 114.545ZM175.901 126.23C175.279 126.23 174.714 126.113 174.207 125.879C173.7 125.64 173.297 125.297 172.999 124.849C172.7 124.398 172.551 123.852 172.551 123.213C172.551 122.651 172.662 122.195 172.884 121.845C173.105 121.491 173.401 121.214 173.772 121.014C174.143 120.814 174.552 120.665 174.999 120.567C175.451 120.464 175.905 120.384 176.361 120.324C176.958 120.247 177.441 120.19 177.812 120.151C178.187 120.109 178.46 120.038 178.63 119.94C178.805 119.842 178.892 119.672 178.892 119.429V119.378C178.892 118.747 178.72 118.257 178.374 117.908C178.034 117.558 177.516 117.384 176.821 117.384C176.101 117.384 175.536 117.541 175.127 117.857C174.718 118.172 174.431 118.509 174.264 118.866L172.833 118.355C173.088 117.759 173.429 117.294 173.855 116.962C174.286 116.625 174.754 116.391 175.262 116.259C175.773 116.122 176.276 116.054 176.77 116.054C177.085 116.054 177.448 116.092 177.857 116.169C178.27 116.241 178.669 116.393 179.052 116.623C179.44 116.853 179.762 117.2 180.017 117.665C180.273 118.129 180.401 118.751 180.401 119.531V126H178.892V124.67H178.816C178.713 124.884 178.543 125.112 178.304 125.354C178.066 125.597 177.748 125.804 177.352 125.974C176.955 126.145 176.472 126.23 175.901 126.23ZM176.131 124.875C176.727 124.875 177.23 124.758 177.639 124.523C178.053 124.289 178.364 123.987 178.573 123.616C178.786 123.245 178.892 122.855 178.892 122.446V121.065C178.828 121.142 178.688 121.212 178.47 121.276C178.257 121.336 178.01 121.389 177.729 121.436C177.452 121.479 177.181 121.517 176.917 121.551C176.657 121.581 176.446 121.607 176.284 121.628C175.892 121.679 175.526 121.762 175.185 121.877C174.848 121.988 174.575 122.156 174.367 122.382C174.162 122.604 174.06 122.906 174.06 123.29C174.06 123.814 174.254 124.21 174.642 124.479C175.034 124.743 175.53 124.875 176.131 124.875ZM186.862 126.205C186.043 126.205 185.321 125.998 184.695 125.585C184.068 125.167 183.578 124.579 183.224 123.82C182.871 123.058 182.694 122.156 182.694 121.116C182.694 120.085 182.871 119.19 183.224 118.432C183.578 117.673 184.07 117.087 184.701 116.674C185.332 116.261 186.06 116.054 186.887 116.054C187.526 116.054 188.031 116.161 188.402 116.374C188.777 116.582 189.063 116.821 189.259 117.089C189.459 117.354 189.614 117.571 189.725 117.741H189.853V112.909H191.362V126H189.904V124.491H189.725C189.614 124.67 189.457 124.896 189.252 125.169C189.048 125.437 188.756 125.678 188.376 125.891C187.997 126.1 187.492 126.205 186.862 126.205ZM187.066 124.849C187.671 124.849 188.183 124.692 188.6 124.376C189.018 124.057 189.335 123.616 189.553 123.053C189.77 122.487 189.879 121.832 189.879 121.091C189.879 120.358 189.772 119.717 189.559 119.167C189.346 118.613 189.031 118.183 188.613 117.876C188.195 117.565 187.68 117.409 187.066 117.409C186.427 117.409 185.894 117.573 185.468 117.901C185.046 118.225 184.729 118.666 184.516 119.224C184.307 119.778 184.202 120.401 184.202 121.091C184.202 121.79 184.309 122.425 184.522 122.996C184.739 123.562 185.059 124.014 185.481 124.351C185.907 124.683 186.435 124.849 187.066 124.849ZM196.558 126L193.567 116.182H195.152L197.274 123.699H197.376L199.473 116.182H201.084L203.155 123.673H203.257L205.379 116.182H206.964L203.973 126H202.49L200.342 118.457H200.189L198.041 126H196.558ZM211.848 126.23C211.226 126.23 210.661 126.113 210.154 125.879C209.647 125.64 209.244 125.297 208.946 124.849C208.648 124.398 208.499 123.852 208.499 123.213C208.499 122.651 208.609 122.195 208.831 121.845C209.053 121.491 209.349 121.214 209.719 121.014C210.09 120.814 210.499 120.665 210.947 120.567C211.398 120.464 211.852 120.384 212.308 120.324C212.905 120.247 213.388 120.19 213.759 120.151C214.134 120.109 214.407 120.038 214.577 119.94C214.752 119.842 214.839 119.672 214.839 119.429V119.378C214.839 118.747 214.667 118.257 214.322 117.908C213.981 117.558 213.463 117.384 212.768 117.384C212.048 117.384 211.484 117.541 211.075 117.857C210.665 118.172 210.378 118.509 210.212 118.866L208.78 118.355C209.036 117.759 209.376 117.294 209.803 116.962C210.233 116.625 210.702 116.391 211.209 116.259C211.72 116.122 212.223 116.054 212.717 116.054C213.033 116.054 213.395 116.092 213.804 116.169C214.217 116.241 214.616 116.393 214.999 116.623C215.387 116.853 215.709 117.2 215.964 117.665C216.22 118.129 216.348 118.751 216.348 119.531V126H214.839V124.67H214.763C214.661 124.884 214.49 125.112 214.251 125.354C214.013 125.597 213.695 125.804 213.299 125.974C212.903 126.145 212.419 126.23 211.848 126.23ZM212.078 124.875C212.675 124.875 213.178 124.758 213.587 124.523C214 124.289 214.311 123.987 214.52 123.616C214.733 123.245 214.839 122.855 214.839 122.446V121.065C214.776 121.142 214.635 121.212 214.418 121.276C214.205 121.336 213.957 121.389 213.676 121.436C213.399 121.479 213.129 121.517 212.864 121.551C212.604 121.581 212.393 121.607 212.232 121.628C211.839 121.679 211.473 121.762 211.132 121.877C210.795 121.988 210.523 122.156 210.314 122.382C210.109 122.604 210.007 122.906 210.007 123.29C210.007 123.814 210.201 124.21 210.589 124.479C210.981 124.743 211.477 124.875 212.078 124.875ZM220.61 112.909V126H219.101V112.909H220.61ZM224.472 126.102C224.157 126.102 223.886 125.989 223.661 125.763C223.435 125.538 223.322 125.267 223.322 124.952C223.322 124.636 223.435 124.366 223.661 124.14C223.886 123.914 224.157 123.801 224.472 123.801C224.788 123.801 225.058 123.914 225.284 124.14C225.51 124.366 225.623 124.636 225.623 124.952C225.623 125.161 225.57 125.352 225.463 125.527C225.361 125.702 225.222 125.842 225.048 125.949C224.877 126.051 224.685 126.102 224.472 126.102ZM229.429 126.102C229.114 126.102 228.843 125.989 228.618 125.763C228.392 125.538 228.279 125.267 228.279 124.952C228.279 124.636 228.392 124.366 228.618 124.14C228.843 123.914 229.114 123.801 229.429 123.801C229.745 123.801 230.015 123.914 230.241 124.14C230.467 124.366 230.58 124.636 230.58 124.952C230.58 125.161 230.527 125.352 230.42 125.527C230.318 125.702 230.179 125.842 230.005 125.949C229.834 126.051 229.642 126.102 229.429 126.102ZM234.386 126.102C234.071 126.102 233.8 125.989 233.575 125.763C233.349 125.538 233.236 125.267 233.236 124.952C233.236 124.636 233.349 124.366 233.575 124.14C233.8 123.914 234.071 123.801 234.386 123.801C234.702 123.801 234.972 123.914 235.198 124.14C235.424 124.366 235.537 124.636 235.537 124.952C235.537 125.161 235.484 125.352 235.377 125.527C235.275 125.702 235.136 125.842 234.962 125.949C234.791 126.051 234.599 126.102 234.386 126.102Z" fill="#2D3748"/>
<path d="M282.673 24.3308C282.445 24.1033 282.078 24.1033 281.85 24.3308L278.998 27.1774L276.145 24.3249C275.918 24.0974 275.55 24.0974 275.323 24.3249C275.095 24.5524 275.095 24.9199 275.323 25.1474L278.175 27.9999L275.323 30.8524C275.095 31.0799 275.095 31.4474 275.323 31.6749C275.55 31.9024 275.918 31.9024 276.145 31.6749L278.998 28.8224L281.85 31.6749C282.078 31.9024 282.445 31.9024 282.673 31.6749C282.9 31.4474 282.9 31.0799 282.673 30.8524L279.82 27.9999L282.673 25.1474C282.895 24.9258 282.895 24.5524 282.673 24.3308Z" fill="#323232"/>
<defs>
<filter id="filter0_d_5685_28289" x="0.2172" y="0.94006" width="334.36" height="229.024" filterUnits="userSpaceOnUse" color-interpolation-filters="sRGB">
<feFlood flood-opacity="0" result="BackgroundImageFix"/>
<feColorMatrix in="SourceAlpha" type="matrix" values="0 0 0 0 0 0 0 0 0 0 0 0 0 0 0 0 0 0 127 0" result="hardAlpha"/>
<feOffset dx="9.39704" dy="10.1199"/>
<feGaussianBlur stdDeviation="7.58992"/>
<feColorMatrix type="matrix" values="0 0 0 0 0.0375 0 0 0 0 0.18975 0 0 0 0 0.3 0 0 0 0.06 0"/>
<feBlend mode="normal" in2="BackgroundImageFix" result="effect1_dropShadow_5685_28289"/>
<feBlend mode="normal" in="SourceGraphic" in2="effect1_dropShadow_5685_28289" result="shape"/>
</filter>
<radialGradient id="paint0_radial_5685_28289" cx="0" cy="0" r="1" gradientUnits="userSpaceOnUse" gradientTransform="translate(9.71641 13.1438) rotate(33.5056) scale(353.368 520.549)">
<stop stop-color="#D8D8D8" stop-opacity="0"/>
<stop offset="1" stop-color="#D8D8D8"/>
</radialGradient>
<radialGradient id="paint1_radial_5685_28289" cx="0" cy="0" r="1" gradientUnits="userSpaceOnUse" gradientTransform="translate(11.1545 207.186) rotate(-33.4958) scale(351.604 517.336)">
<stop stop-color="#D8D8D8" stop-opacity="0"/>
<stop offset="1" stop-color="#D8D8D8"/>
</radialGradient>
<linearGradient id="paint2_linear_5685_28289" x1="12.5926" y1="12.6318" x2="304.638" y2="207.768" gradientUnits="userSpaceOnUse">
<stop stop-color="white" stop-opacity="0.9"/>
<stop offset="1" stop-color="white" stop-opacity="0"/>
</linearGradient>
</defs>
</svg>
