<svg width="519" height="97" viewBox="0 0 519 97" fill="none" xmlns="http://www.w3.org/2000/svg">
<g filter="url(#filter0_d_5159_20924)">
<path d="M473 6H27C15.402 6 6 15.402 6 27V50C6 61.598 15.402 71 27 71H473C484.598 71 494 61.598 494 50V27C494 15.402 484.598 6 473 6Z" fill="#E2E8F0"/>
<path d="M40.3037 36.7245H36.7525C36.7052 36.3599 36.6081 36.0309 36.4613 35.7373C36.3146 35.4438 36.1204 35.1928 35.879 34.9845C35.6375 34.7761 35.351 34.6175 35.0196 34.5086C34.6929 34.395 34.3307 34.3382 33.9329 34.3382C33.2274 34.3382 32.619 34.511 32.1077 34.8566C31.601 35.2023 31.2104 35.7018 30.9358 36.3552C30.6659 37.0086 30.5309 37.7993 30.5309 38.7274C30.5309 39.6933 30.6683 40.5029 30.9429 41.1563C31.2222 41.805 31.6129 42.2951 32.1148 42.6265C32.6214 42.9532 33.2203 43.1166 33.9116 43.1166C34.2999 43.1166 34.6526 43.0669 34.9699 42.9674C35.2918 42.868 35.5736 42.7236 35.815 42.5342C36.0613 42.3401 36.2625 42.1057 36.4187 41.8311C36.5797 41.5517 36.691 41.2368 36.7525 40.8865L40.3037 40.9078C40.2421 41.5517 40.0551 42.1862 39.7426 42.8112C39.4348 43.4362 39.0111 44.0067 38.4713 44.5228C37.9315 45.0342 37.2734 45.4414 36.4969 45.7444C35.7251 46.0474 34.8397 46.199 33.8406 46.199C32.5243 46.199 31.3453 45.9101 30.3037 45.3325C29.2667 44.7501 28.4476 43.9026 27.8463 42.7899C27.245 41.6772 26.9443 40.323 26.9443 38.7274C26.9443 37.127 27.2497 35.7705 27.8605 34.6578C28.4713 33.5451 29.2975 32.6999 30.3392 32.1223C31.3809 31.5446 32.548 31.2558 33.8406 31.2558C34.7213 31.2558 35.5357 31.3789 36.2838 31.6251C37.0319 31.8666 37.69 32.2217 38.2582 32.6904C38.8264 33.1545 39.2881 33.725 39.6432 34.4021C39.9983 35.0792 40.2185 35.8533 40.3037 36.7245ZM42.3154 46.0001V35.091H45.7884V46.0001H42.3154ZM44.0555 33.8197C43.5678 33.8197 43.1487 33.6587 42.7984 33.3367C42.448 33.01 42.2728 32.6171 42.2728 32.1578C42.2728 31.7032 42.448 31.315 42.7984 30.993C43.1487 30.6663 43.5678 30.5029 44.0555 30.5029C44.5479 30.5029 44.9669 30.6663 45.3126 30.993C45.6629 31.315 45.8381 31.7032 45.8381 32.1578C45.8381 32.6171 45.6629 33.01 45.3126 33.3367C44.9669 33.6587 44.5479 33.8197 44.0555 33.8197ZM51.472 39.7785V46.0001H47.999V35.091H51.3015V37.0939H51.4223C51.6638 36.4262 52.0757 35.903 52.6581 35.5242C53.2405 35.1407 53.9341 34.949 54.739 34.949C55.5061 34.949 56.1713 35.1218 56.7348 35.4674C57.303 35.8083 57.7433 36.2866 58.0558 36.9021C58.373 37.5129 58.5293 38.2278 58.5246 39.047V46.0001H55.0515V39.7288C55.0563 39.1227 54.9024 38.6492 54.5899 38.3083C54.2821 37.9674 53.8536 37.797 53.3044 37.797C52.9398 37.797 52.6178 37.8775 52.3385 38.0385C52.0639 38.1947 51.8508 38.4196 51.6993 38.7132C51.5525 39.0067 51.4767 39.3618 51.472 39.7785ZM64.6591 46.1563C63.8542 46.1563 63.1227 45.948 62.4645 45.5313C61.8064 45.1147 61.2808 44.4897 60.8878 43.6563C60.4948 42.823 60.2984 41.7885 60.2984 40.5527C60.2984 39.2695 60.5019 38.2136 60.9091 37.385C61.3163 36.5564 61.849 35.9433 62.5072 35.5456C63.17 35.1478 63.8826 34.949 64.6449 34.949C65.2179 34.949 65.7079 35.0484 66.1151 35.2473C66.5223 35.4414 66.8585 35.6923 67.1236 36.0001C67.3888 36.3079 67.59 36.6275 67.7273 36.9589H67.7984V31.4546H71.2714V46.0001H67.8339V44.2316H67.7273C67.5805 44.5678 67.3722 44.8827 67.1023 45.1762C66.8324 45.4698 66.4939 45.7065 66.0867 45.8865C65.6842 46.0664 65.2084 46.1563 64.6591 46.1563ZM65.8665 43.4504C66.2879 43.4504 66.6478 43.332 66.9461 43.0953C67.2444 42.8538 67.474 42.5153 67.635 42.0796C67.796 41.644 67.8765 41.1327 67.8765 40.5456C67.8765 39.949 67.796 39.4352 67.635 39.0044C67.4787 38.5735 67.2491 38.2421 66.9461 38.01C66.6478 37.778 66.2879 37.662 65.8665 37.662C65.4357 37.662 65.0711 37.7804 64.7728 38.0171C64.4745 38.2539 64.2472 38.5877 64.091 39.0186C63.9394 39.4494 63.8637 39.9584 63.8637 40.5456C63.8637 41.1327 63.9418 41.644 64.0981 42.0796C64.2543 42.5153 64.4792 42.8538 64.7728 43.0953C65.0711 43.332 65.4357 43.4504 65.8665 43.4504ZM75.5913 50.091C75.1747 50.091 74.7817 50.0579 74.4123 49.9916C74.043 49.93 73.7258 49.8472 73.4606 49.743L74.2277 47.2217C74.5686 47.3353 74.8764 47.4016 75.151 47.4206C75.4303 47.4395 75.6694 47.3945 75.8683 47.2856C76.0719 47.1814 76.2282 46.9944 76.3371 46.7245L76.472 46.3978L72.5942 35.091H76.2305L78.2405 42.8751H78.3541L80.3925 35.091H84.0501L79.9379 47.0441C79.739 47.6407 79.4573 48.1663 79.0927 48.6208C78.7329 49.0801 78.2665 49.44 77.6936 49.7004C77.1254 49.9608 76.4247 50.091 75.5913 50.091ZM95.8363 35.091V37.6478H88.9542V35.091H95.8363ZM90.396 32.4774H93.869V42.5697C93.869 42.7828 93.9022 42.9556 93.9685 43.0882C94.0395 43.216 94.1413 43.3083 94.2738 43.3652C94.4064 43.4172 94.565 43.4433 94.7497 43.4433C94.8823 43.4433 95.022 43.4314 95.1687 43.4078C95.3202 43.3794 95.4339 43.3557 95.5096 43.3367L96.0352 45.8439C95.8695 45.8912 95.6351 45.9504 95.3321 46.0214C95.0338 46.0924 94.6763 46.1374 94.2596 46.1563C93.4452 46.1942 92.7469 46.0995 92.1645 45.8723C91.5868 45.6403 91.1441 45.2804 90.8363 44.7927C90.5333 44.305 90.3865 43.6919 90.396 42.9532V32.4774ZM102.591 46.2061C101.45 46.2061 100.465 45.9812 99.6361 45.5313C98.8122 45.0768 98.1777 44.4305 97.7327 43.5924C97.2923 42.7496 97.0721 41.7482 97.0721 40.5882C97.0721 39.4613 97.2947 38.4764 97.7398 37.6336C98.1848 36.7861 98.8122 36.1279 99.6219 35.6592C100.432 35.1857 101.386 34.949 102.484 34.949C103.261 34.949 103.971 35.0697 104.615 35.3112C105.259 35.5527 105.815 35.9101 106.284 36.3836C106.753 36.8571 107.117 37.4419 107.378 38.1379C107.638 38.8292 107.768 39.6223 107.768 40.5171V41.3836H98.2866V39.3666H104.537C104.532 38.9973 104.445 38.6682 104.274 38.3794C104.104 38.0905 103.869 37.8656 103.571 37.7046C103.277 37.5389 102.939 37.4561 102.555 37.4561C102.167 37.4561 101.819 37.5437 101.511 37.7189C101.204 37.8893 100.96 38.1237 100.78 38.422C100.6 38.7155 100.505 39.0493 100.496 39.4234V41.476C100.496 41.921 100.583 42.3117 100.759 42.6478C100.934 42.9793 101.182 43.2373 101.504 43.422C101.826 43.6066 102.21 43.699 102.655 43.699C102.963 43.699 103.242 43.6563 103.493 43.5711C103.744 43.4859 103.959 43.3604 104.139 43.1947C104.319 43.029 104.454 42.8254 104.544 42.5839L107.733 42.6762C107.6 43.3912 107.309 44.0138 106.859 44.5441C106.414 45.0697 105.83 45.4793 105.105 45.7728C104.381 46.0617 103.543 46.2061 102.591 46.2061ZM113.015 31.4546V46.0001H109.542V31.4546H113.015ZM118.301 46.1848C117.605 46.1848 116.987 46.0688 116.447 45.8367C115.912 45.6 115.489 45.2449 115.176 44.7714C114.868 44.2932 114.714 43.6942 114.714 42.9745C114.714 42.3685 114.821 41.8571 115.034 41.4404C115.247 41.0238 115.541 40.6852 115.915 40.4248C116.289 40.1644 116.72 39.9679 117.207 39.8353C117.695 39.698 118.216 39.6057 118.77 39.5583C119.39 39.5015 119.89 39.4423 120.268 39.3808C120.647 39.3145 120.922 39.2222 121.092 39.1038C121.268 38.9807 121.355 38.8079 121.355 38.5853V38.5498C121.355 38.1852 121.23 37.9035 120.979 37.7046C120.728 37.5058 120.389 37.4063 119.963 37.4063C119.504 37.4063 119.134 37.5058 118.855 37.7046C118.576 37.9035 118.398 38.1781 118.322 38.5285L115.119 38.4149C115.214 37.752 115.458 37.1601 115.851 36.6393C116.249 36.1137 116.793 35.7018 117.484 35.4035C118.18 35.1005 119.016 34.949 119.991 34.949C120.688 34.949 121.329 35.0318 121.916 35.1975C122.503 35.3585 123.015 35.5953 123.45 35.9078C123.886 36.2155 124.222 36.5943 124.459 37.0441C124.7 37.4939 124.821 38.0077 124.821 38.5853V46.0001H121.554V44.4802H121.469C121.275 44.8495 121.026 45.162 120.723 45.4177C120.425 45.6734 120.072 45.8652 119.665 45.993C119.262 46.1208 118.808 46.1848 118.301 46.1848ZM119.374 43.912C119.748 43.912 120.084 43.8363 120.382 43.6848C120.685 43.5332 120.927 43.3249 121.107 43.0598C121.286 42.7899 121.376 42.4774 121.376 42.1223V41.0853C121.277 41.1374 121.156 41.1848 121.014 41.2274C120.877 41.27 120.725 41.3102 120.56 41.3481C120.394 41.386 120.223 41.4191 120.048 41.4475C119.873 41.476 119.705 41.502 119.544 41.5257C119.217 41.5778 118.938 41.6582 118.706 41.7671C118.479 41.876 118.304 42.0181 118.18 42.1933C118.062 42.3637 118.003 42.5673 118.003 42.8041C118.003 43.1639 118.131 43.4385 118.386 43.6279C118.647 43.8173 118.976 43.912 119.374 43.912ZM130.418 39.7785V46.0001H126.945V31.4546H130.304V37.0939H130.425C130.671 36.4215 131.073 35.8959 131.632 35.5171C132.196 35.1384 132.884 34.949 133.699 34.949C134.466 34.949 135.134 35.1194 135.702 35.4603C136.27 35.7965 136.71 36.2724 137.023 36.8879C137.34 37.5034 137.496 38.2231 137.491 39.047V46.0001H134.018V39.7288C134.023 39.1227 133.872 38.6492 133.564 38.3083C133.256 37.9674 132.823 37.797 132.264 37.797C131.9 37.797 131.578 37.8775 131.298 38.0385C131.024 38.1947 130.808 38.4196 130.652 38.7132C130.5 39.0067 130.422 39.3618 130.418 39.7785ZM143.956 46.0001V35.091H147.259V37.0939H147.38C147.607 36.431 147.99 35.9078 148.53 35.5242C149.07 35.1407 149.714 34.949 150.462 34.949C151.22 34.949 151.868 35.1431 152.408 35.5313C152.948 35.9196 153.291 36.4404 153.438 37.0939H153.551C153.755 36.4452 154.153 35.9267 154.745 35.5385C155.337 35.1455 156.035 34.949 156.84 34.949C157.872 34.949 158.71 35.2804 159.354 35.9433C159.998 36.6014 160.32 37.5058 160.32 38.6563V46.0001H156.847V39.4518C156.847 38.9073 156.707 38.493 156.428 38.2089C156.149 37.9201 155.786 37.7757 155.341 37.7757C154.863 37.7757 154.487 37.9319 154.212 38.2444C153.942 38.5522 153.807 38.9665 153.807 39.4873V46.0001H150.469V39.4163C150.469 38.9097 150.332 38.5096 150.057 38.216C149.783 37.9224 149.42 37.7757 148.971 37.7757C148.667 37.7757 148.4 37.8491 148.168 37.9958C147.936 38.1379 147.754 38.3415 147.621 38.6066C147.493 38.8718 147.429 39.1843 147.429 39.5441V46.0001H143.956ZM167.571 46.2061C166.43 46.2061 165.445 45.9812 164.617 45.5313C163.793 45.0768 163.158 44.4305 162.713 43.5924C162.273 42.7496 162.053 41.7482 162.053 40.5882C162.053 39.4613 162.275 38.4764 162.721 37.6336C163.166 36.7861 163.793 36.1279 164.603 35.6592C165.412 35.1857 166.366 34.949 167.465 34.949C168.241 34.949 168.952 35.0697 169.596 35.3112C170.239 35.5527 170.796 35.9101 171.265 36.3836C171.733 36.8571 172.098 37.4419 172.358 38.1379C172.619 38.8292 172.749 39.6223 172.749 40.5171V41.3836H163.267V39.3666H169.517C169.513 38.9973 169.425 38.6682 169.255 38.3794C169.084 38.0905 168.85 37.8656 168.551 37.7046C168.258 37.5389 167.919 37.4561 167.536 37.4561C167.148 37.4561 166.8 37.5437 166.492 37.7189C166.184 37.8893 165.94 38.1237 165.76 38.422C165.58 38.7155 165.486 39.0493 165.476 39.4234V41.476C165.476 41.921 165.564 42.3117 165.739 42.6478C165.914 42.9793 166.163 43.2373 166.485 43.422C166.807 43.6066 167.19 43.699 167.635 43.699C167.943 43.699 168.222 43.6563 168.473 43.5711C168.724 43.4859 168.94 43.3604 169.12 43.1947C169.3 43.029 169.435 42.8254 169.525 42.5839L172.713 42.6762C172.581 43.3912 172.29 44.0138 171.84 44.5441C171.395 45.0697 170.81 45.4793 170.086 45.7728C169.361 46.0617 168.523 46.2061 167.571 46.2061ZM177.996 31.4546V46.0001H174.523V31.4546H177.996ZM185.306 46.2061C184.165 46.2061 183.18 45.9812 182.351 45.5313C181.527 45.0768 180.893 44.4305 180.448 43.5924C180.007 42.7496 179.787 41.7482 179.787 40.5882C179.787 39.4613 180.01 38.4764 180.455 37.6336C180.9 36.7861 181.527 36.1279 182.337 35.6592C183.147 35.1857 184.101 34.949 185.199 34.949C185.976 34.949 186.686 35.0697 187.33 35.3112C187.974 35.5527 188.53 35.9101 188.999 36.3836C189.468 36.8571 189.832 37.4419 190.093 38.1379C190.353 38.8292 190.483 39.6223 190.483 40.5171V41.3836H181.002V39.3666H187.252C187.247 38.9973 187.159 38.6682 186.989 38.3794C186.819 38.0905 186.584 37.8656 186.286 37.7046C185.992 37.5389 185.654 37.4561 185.27 37.4561C184.882 37.4561 184.534 37.5437 184.226 37.7189C183.918 37.8893 183.675 38.1237 183.495 38.422C183.315 38.7155 183.22 39.0493 183.211 39.4234V41.476C183.211 41.921 183.298 42.3117 183.473 42.6478C183.649 42.9793 183.897 43.2373 184.219 43.422C184.541 43.6066 184.925 43.699 185.37 43.699C185.677 43.699 185.957 43.6563 186.208 43.5711C186.459 43.4859 186.674 43.3604 186.854 43.1947C187.034 43.029 187.169 42.8254 187.259 42.5839L190.448 42.6762C190.315 43.3912 190.024 44.0138 189.574 44.5441C189.129 45.0697 188.544 45.4793 187.82 45.7728C187.096 46.0617 186.257 46.2061 185.306 46.2061ZM194.178 46.0001L191.337 35.091H194.825L196.295 42.0796H196.387L197.964 35.091H201.366L202.985 42.0299H203.077L204.505 35.091H207.992L205.144 46.0001H201.43L199.725 39.6436H199.604L197.9 46.0001H194.178ZM212.461 46.1848C211.765 46.1848 211.147 46.0688 210.608 45.8367C210.073 45.6 209.649 45.2449 209.336 44.7714C209.029 44.2932 208.875 43.6942 208.875 42.9745C208.875 42.3685 208.981 41.8571 209.194 41.4404C209.407 41.0238 209.701 40.6852 210.075 40.4248C210.449 40.1644 210.88 39.9679 211.368 39.8353C211.855 39.698 212.376 39.6057 212.93 39.5583C213.55 39.5015 214.05 39.4423 214.429 39.3808C214.807 39.3145 215.082 39.2222 215.252 39.1038C215.428 38.9807 215.515 38.8079 215.515 38.5853V38.5498C215.515 38.1852 215.39 37.9035 215.139 37.7046C214.888 37.5058 214.549 37.4063 214.123 37.4063C213.664 37.4063 213.295 37.5058 213.015 37.7046C212.736 37.9035 212.558 38.1781 212.483 38.5285L209.279 38.4149C209.374 37.752 209.618 37.1601 210.011 36.6393C210.409 36.1137 210.953 35.7018 211.645 35.4035C212.341 35.1005 213.176 34.949 214.152 34.949C214.848 34.949 215.489 35.0318 216.076 35.1975C216.663 35.3585 217.175 35.5953 217.61 35.9078C218.046 36.2155 218.382 36.5943 218.619 37.0441C218.86 37.4939 218.981 38.0077 218.981 38.5853V46.0001H215.714V44.4802H215.629C215.435 44.8495 215.186 45.162 214.883 45.4177C214.585 45.6734 214.232 45.8652 213.825 45.993C213.422 46.1208 212.968 46.1848 212.461 46.1848ZM213.534 43.912C213.908 43.912 214.244 43.8363 214.542 43.6848C214.845 43.5332 215.087 43.3249 215.267 43.0598C215.447 42.7899 215.537 42.4774 215.537 42.1223V41.0853C215.437 41.1374 215.316 41.1848 215.174 41.2274C215.037 41.27 214.886 41.3102 214.72 41.3481C214.554 41.386 214.384 41.4191 214.208 41.4475C214.033 41.476 213.865 41.502 213.704 41.5257C213.377 41.5778 213.098 41.6582 212.866 41.7671C212.639 41.876 212.464 42.0181 212.341 42.1933C212.222 42.3637 212.163 42.5673 212.163 42.8041C212.163 43.1639 212.291 43.4385 212.547 43.6279C212.807 43.8173 213.136 43.912 213.534 43.912ZM227.262 35.091V37.6478H220.38V35.091H227.262ZM221.822 32.4774H225.295V42.5697C225.295 42.7828 225.328 42.9556 225.395 43.0882C225.466 43.216 225.567 43.3083 225.7 43.3652C225.833 43.4172 225.991 43.4433 226.176 43.4433C226.308 43.4433 226.448 43.4314 226.595 43.4078C226.746 43.3794 226.86 43.3557 226.936 43.3367L227.461 45.8439C227.296 45.8912 227.061 45.9504 226.758 46.0214C226.46 46.0924 226.102 46.1374 225.686 46.1563C224.871 46.1942 224.173 46.0995 223.591 45.8723C223.013 45.6403 222.57 45.2804 222.262 44.7927C221.959 44.305 221.813 43.6919 221.822 42.9532V32.4774ZM229.034 46.0001V35.091H232.507V46.0001H229.034ZM230.775 33.8197C230.287 33.8197 229.868 33.6587 229.517 33.3367C229.167 33.01 228.992 32.6171 228.992 32.1578C228.992 31.7032 229.167 31.315 229.517 30.993C229.868 30.6663 230.287 30.5029 230.775 30.5029C231.267 30.5029 231.686 30.6663 232.032 30.993C232.382 31.315 232.557 31.7032 232.557 32.1578C232.557 32.6171 232.382 33.01 232.032 33.3367C231.686 33.6587 231.267 33.8197 230.775 33.8197ZM248.539 38.422L245.35 38.5072C245.317 38.2799 245.227 38.0787 245.08 37.9035C244.933 37.7236 244.742 37.5839 244.505 37.4845C244.273 37.3803 244.003 37.3282 243.695 37.3282C243.293 37.3282 242.95 37.4087 242.665 37.5697C242.386 37.7307 242.249 37.9485 242.254 38.2231C242.249 38.4362 242.334 38.6208 242.509 38.7771C242.689 38.9333 243.009 39.0588 243.468 39.1535L245.57 39.5512C246.659 39.7596 247.469 40.1052 247.999 40.5882C248.534 41.0711 248.804 41.7103 248.809 42.5058C248.804 43.2539 248.582 43.9049 248.141 44.4589C247.706 45.0129 247.109 45.4438 246.352 45.7515C245.594 46.0546 244.728 46.2061 243.752 46.2061C242.194 46.2061 240.966 45.8865 240.066 45.2473C239.171 44.6033 238.66 43.7416 238.532 42.662L241.962 42.5768C242.038 42.9745 242.235 43.2776 242.552 43.4859C242.869 43.6942 243.274 43.7984 243.766 43.7984C244.211 43.7984 244.574 43.7155 244.853 43.5498C245.132 43.3841 245.274 43.1639 245.279 42.8893C245.274 42.6431 245.165 42.4466 244.952 42.2998C244.739 42.1483 244.406 42.0299 243.951 41.9447L242.048 41.5825C240.954 41.3836 240.139 41.0167 239.604 40.4816C239.069 39.9419 238.804 39.2553 238.809 38.422C238.804 37.6928 238.998 37.0702 239.391 36.5541C239.784 36.0332 240.343 35.6355 241.067 35.3609C241.792 35.0863 242.647 34.949 243.631 34.949C245.109 34.949 246.273 35.2591 247.126 35.8794C247.978 36.4949 248.449 37.3424 248.539 38.422ZM255.618 46.2061C254.477 46.2061 253.492 45.9812 252.664 45.5313C251.84 45.0768 251.205 44.4305 250.76 43.5924C250.32 42.7496 250.1 41.7482 250.1 40.5882C250.1 39.4613 250.322 38.4764 250.767 37.6336C251.212 36.7861 251.84 36.1279 252.65 35.6592C253.459 35.1857 254.413 34.949 255.512 34.949C256.288 34.949 256.998 35.0697 257.642 35.3112C258.286 35.5527 258.843 35.9101 259.311 36.3836C259.78 36.8571 260.145 37.4419 260.405 38.1379C260.666 38.8292 260.796 39.6223 260.796 40.5171V41.3836H251.314V39.3666H257.564C257.56 38.9973 257.472 38.6682 257.301 38.3794C257.131 38.0905 256.897 37.8656 256.598 37.7046C256.305 37.5389 255.966 37.4561 255.583 37.4561C255.194 37.4561 254.846 37.5437 254.539 37.7189C254.231 37.8893 253.987 38.1237 253.807 38.422C253.627 38.7155 253.533 39.0493 253.523 39.4234V41.476C253.523 41.921 253.611 42.3117 253.786 42.6478C253.961 42.9793 254.21 43.2373 254.532 43.422C254.854 43.6066 255.237 43.699 255.682 43.699C255.99 43.699 256.269 43.6563 256.52 43.5711C256.771 43.4859 256.987 43.3604 257.167 43.1947C257.346 43.029 257.481 42.8254 257.571 42.5839L260.76 42.6762C260.628 43.3912 260.337 44.0138 259.887 44.5441C259.442 45.0697 258.857 45.4793 258.132 45.7728C257.408 46.0617 256.57 46.2061 255.618 46.2061ZM262.57 46.0001V35.091H265.872V37.0939H265.993C266.22 36.431 266.604 35.9078 267.143 35.5242C267.683 35.1407 268.327 34.949 269.075 34.949C269.833 34.949 270.482 35.1431 271.021 35.5313C271.561 35.9196 271.904 36.4404 272.051 37.0939H272.165C272.368 36.4452 272.766 35.9267 273.358 35.5385C273.95 35.1455 274.648 34.949 275.453 34.949C276.485 34.949 277.323 35.2804 277.967 35.9433C278.611 36.6014 278.933 37.5058 278.933 38.6563V46.0001H275.46V39.4518C275.46 38.9073 275.321 38.493 275.041 38.2089C274.762 37.9201 274.4 37.7757 273.955 37.7757C273.476 37.7757 273.1 37.9319 272.825 38.2444C272.555 38.5522 272.42 38.9665 272.42 39.4873V46.0001H269.082V39.4163C269.082 38.9097 268.945 38.5096 268.67 38.216C268.396 37.9224 268.034 37.7757 267.584 37.7757C267.281 37.7757 267.013 37.8491 266.781 37.9958C266.549 38.1379 266.367 38.3415 266.234 38.6066C266.107 38.8718 266.043 39.1843 266.043 39.5441V46.0001H262.57ZM288.124 41.2913V35.091H291.589V46.0001H288.28V43.9689H288.166C287.925 44.6365 287.513 45.1668 286.93 45.5598C286.353 45.948 285.654 46.1421 284.835 46.1421C284.092 46.1421 283.438 45.9717 282.875 45.6308C282.312 45.2899 281.874 44.814 281.561 44.2032C281.249 43.5877 281.09 42.868 281.085 42.0441V35.091H284.558V41.3623C284.563 41.9542 284.719 42.4206 285.027 42.7615C285.335 43.1024 285.754 43.2728 286.284 43.2728C286.63 43.2728 286.94 43.1971 287.214 43.0456C287.494 42.8893 287.714 42.6644 287.875 42.3708C288.041 42.0725 288.124 41.7127 288.124 41.2913ZM296.875 46.1848C296.179 46.1848 295.561 46.0688 295.022 45.8367C294.487 45.6 294.063 45.2449 293.75 44.7714C293.443 44.2932 293.289 43.6942 293.289 42.9745C293.289 42.3685 293.395 41.8571 293.608 41.4404C293.821 41.0238 294.115 40.6852 294.489 40.4248C294.863 40.1644 295.294 39.9679 295.782 39.8353C296.269 39.698 296.79 39.6057 297.344 39.5583C297.964 39.5015 298.464 39.4423 298.843 39.3808C299.221 39.3145 299.496 39.2222 299.667 39.1038C299.842 38.9807 299.929 38.8079 299.929 38.5853V38.5498C299.929 38.1852 299.804 37.9035 299.553 37.7046C299.302 37.5058 298.963 37.4063 298.537 37.4063C298.078 37.4063 297.709 37.5058 297.429 37.7046C297.15 37.9035 296.972 38.1781 296.897 38.5285L293.694 38.4149C293.788 37.752 294.032 37.1601 294.425 36.6393C294.823 36.1137 295.367 35.7018 296.059 35.4035C296.755 35.1005 297.59 34.949 298.566 34.949C299.262 34.949 299.903 35.0318 300.49 35.1975C301.078 35.3585 301.589 35.5953 302.025 35.9078C302.46 36.2155 302.796 36.5943 303.033 37.0441C303.275 37.4939 303.395 38.0077 303.395 38.5853V46.0001H300.128V44.4802H300.043C299.849 44.8495 299.6 45.162 299.297 45.4177C298.999 45.6734 298.646 45.8652 298.239 45.993C297.837 46.1208 297.382 46.1848 296.875 46.1848ZM297.948 43.912C298.322 43.912 298.658 43.8363 298.956 43.6848C299.259 43.5332 299.501 43.3249 299.681 43.0598C299.861 42.7899 299.951 42.4774 299.951 42.1223V41.0853C299.851 41.1374 299.73 41.1848 299.588 41.2274C299.451 41.27 299.3 41.3102 299.134 41.3481C298.968 41.386 298.798 41.4191 298.623 41.4475C298.447 41.476 298.279 41.502 298.118 41.5257C297.792 41.5778 297.512 41.6582 297.28 41.7671C297.053 41.876 296.878 42.0181 296.755 42.1933C296.636 42.3637 296.577 42.5673 296.577 42.8041C296.577 43.1639 296.705 43.4385 296.961 43.6279C297.221 43.8173 297.55 43.912 297.948 43.912ZM315.973 35.091V37.6478H309.091V35.091H315.973ZM310.533 32.4774H314.006V42.5697C314.006 42.7828 314.039 42.9556 314.105 43.0882C314.176 43.216 314.278 43.3083 314.411 43.3652C314.543 43.4172 314.702 43.4433 314.887 43.4433C315.019 43.4433 315.159 43.4314 315.306 43.4078C315.457 43.3794 315.571 43.3557 315.647 43.3367L316.172 45.8439C316.007 45.8912 315.772 45.9504 315.469 46.0214C315.171 46.0924 314.813 46.1374 314.397 46.1563C313.582 46.1942 312.884 46.0995 312.301 45.8723C311.724 45.6403 311.281 45.2804 310.973 44.7927C310.67 44.305 310.524 43.6919 310.533 42.9532V32.4774ZM320.821 46.1848C320.125 46.1848 319.507 46.0688 318.967 45.8367C318.432 45.6 318.008 45.2449 317.696 44.7714C317.388 44.2932 317.234 43.6942 317.234 42.9745C317.234 42.3685 317.341 41.8571 317.554 41.4404C317.767 41.0238 318.06 40.6852 318.434 40.4248C318.808 40.1644 319.239 39.9679 319.727 39.8353C320.215 39.698 320.735 39.6057 321.289 39.5583C321.91 39.5015 322.409 39.4423 322.788 39.3808C323.167 39.3145 323.441 39.2222 323.612 39.1038C323.787 38.9807 323.875 38.8079 323.875 38.5853V38.5498C323.875 38.1852 323.749 37.9035 323.498 37.7046C323.247 37.5058 322.909 37.4063 322.483 37.4063C322.023 37.4063 321.654 37.5058 321.375 37.7046C321.095 37.9035 320.918 38.1781 320.842 38.5285L317.639 38.4149C317.734 37.752 317.977 37.1601 318.37 36.6393C318.768 36.1137 319.313 35.7018 320.004 35.4035C320.7 35.1005 321.536 34.949 322.511 34.949C323.207 34.949 323.849 35.0318 324.436 35.1975C325.023 35.3585 325.534 35.5953 325.97 35.9078C326.405 36.2155 326.742 36.5943 326.978 37.0441C327.22 37.4939 327.341 38.0077 327.341 38.5853V46.0001H324.074V44.4802H323.988C323.794 44.8495 323.546 45.162 323.243 45.4177C322.944 45.6734 322.592 45.8652 322.184 45.993C321.782 46.1208 321.327 46.1848 320.821 46.1848ZM321.893 43.912C322.267 43.912 322.603 43.8363 322.902 43.6848C323.205 43.5332 323.446 43.3249 323.626 43.0598C323.806 42.7899 323.896 42.4774 323.896 42.1223V41.0853C323.797 41.1374 323.676 41.1848 323.534 41.2274C323.396 41.27 323.245 41.3102 323.079 41.3481C322.913 41.386 322.743 41.4191 322.568 41.4475C322.393 41.476 322.225 41.502 322.064 41.5257C321.737 41.5778 321.458 41.6582 321.225 41.7671C320.998 41.876 320.823 42.0181 320.7 42.1933C320.582 42.3637 320.522 42.5673 320.522 42.8041C320.522 43.1639 320.65 43.4385 320.906 43.6279C321.166 43.8173 321.495 43.912 321.893 43.912ZM332.937 39.7785V46.0001H329.464V31.4546H332.824V37.0939H332.944C333.19 36.4215 333.593 35.8959 334.152 35.5171C334.715 35.1384 335.404 34.949 336.218 34.949C336.985 34.949 337.653 35.1194 338.221 35.4603C338.789 35.7965 339.23 36.2724 339.542 36.8879C339.859 37.5034 340.016 38.2231 340.011 39.047V46.0001H336.538V39.7288C336.543 39.1227 336.391 38.6492 336.083 38.3083C335.776 37.9674 335.342 37.797 334.784 37.797C334.419 37.797 334.097 37.8775 333.818 38.0385C333.543 38.1947 333.328 38.4196 333.172 38.7132C333.02 39.0067 332.942 39.3618 332.937 39.7785ZM345.254 46.1848C344.558 46.1848 343.94 46.0688 343.401 45.8367C342.866 45.6 342.442 45.2449 342.129 44.7714C341.821 44.2932 341.668 43.6942 341.668 42.9745C341.668 42.3685 341.774 41.8571 341.987 41.4404C342.2 41.0238 342.494 40.6852 342.868 40.4248C343.242 40.1644 343.673 39.9679 344.161 39.8353C344.648 39.698 345.169 39.6057 345.723 39.5583C346.343 39.5015 346.843 39.4423 347.222 39.3808C347.6 39.3145 347.875 39.2222 348.045 39.1038C348.221 38.9807 348.308 38.8079 348.308 38.5853V38.5498C348.308 38.1852 348.183 37.9035 347.932 37.7046C347.681 37.5058 347.342 37.4063 346.916 37.4063C346.457 37.4063 346.088 37.5058 345.808 37.7046C345.529 37.9035 345.351 38.1781 345.276 38.5285L342.072 38.4149C342.167 37.752 342.411 37.1601 342.804 36.6393C343.202 36.1137 343.746 35.7018 344.438 35.4035C345.134 35.1005 345.969 34.949 346.945 34.949C347.641 34.949 348.282 35.0318 348.869 35.1975C349.456 35.3585 349.968 35.5953 350.403 35.9078C350.839 36.2155 351.175 36.5943 351.412 37.0441C351.653 37.4939 351.774 38.0077 351.774 38.5853V46.0001H348.507V44.4802H348.422C348.228 44.8495 347.979 45.162 347.676 45.4177C347.378 45.6734 347.025 45.8652 346.618 45.993C346.215 46.1208 345.761 46.1848 345.254 46.1848ZM346.327 43.912C346.701 43.912 347.037 43.8363 347.335 43.6848C347.638 43.5332 347.88 43.3249 348.06 43.0598C348.24 42.7899 348.33 42.4774 348.33 42.1223V41.0853C348.23 41.1374 348.109 41.1848 347.967 41.2274C347.83 41.27 347.679 41.3102 347.513 41.3481C347.347 41.386 347.177 41.4191 347.001 41.4475C346.826 41.476 346.658 41.502 346.497 41.5257C346.17 41.5778 345.891 41.6582 345.659 41.7671C345.432 41.876 345.257 42.0181 345.134 42.1933C345.015 42.3637 344.956 42.5673 344.956 42.8041C344.956 43.1639 345.084 43.4385 345.339 43.6279C345.6 43.8173 345.929 43.912 346.327 43.912ZM353.898 50.091V35.091H357.335V36.9589H357.442C357.584 36.6275 357.785 36.3079 358.045 36.0001C358.311 35.6923 358.647 35.4414 359.054 35.2473C359.466 35.0484 359.958 34.949 360.531 34.949C361.289 34.949 361.997 35.1478 362.655 35.5456C363.318 35.9433 363.853 36.5564 364.26 37.385C364.667 38.2136 364.871 39.2695 364.871 40.5527C364.871 41.7885 364.674 42.823 364.281 43.6563C363.893 44.4897 363.367 45.1147 362.705 45.5313C362.046 45.948 361.315 46.1563 360.51 46.1563C359.961 46.1563 359.485 46.0664 359.082 45.8865C358.68 45.7065 358.341 45.4698 358.067 45.1762C357.797 44.8827 357.589 44.5678 357.442 44.2316H357.371V50.091H353.898ZM357.3 40.5456C357.3 41.1327 357.378 41.644 357.534 42.0796C357.695 42.5153 357.925 42.8538 358.223 43.0953C358.526 43.332 358.888 43.4504 359.31 43.4504C359.736 43.4504 360.098 43.332 360.396 43.0953C360.695 42.8538 360.92 42.5153 361.071 42.0796C361.227 41.644 361.305 41.1327 361.305 40.5456C361.305 39.9584 361.227 39.4494 361.071 39.0186C360.92 38.5877 360.695 38.2539 360.396 38.0171C360.103 37.7804 359.741 37.662 359.31 37.662C358.884 37.662 358.521 37.778 358.223 38.01C357.925 38.2421 357.695 38.5735 357.534 39.0044C357.378 39.4352 357.3 39.949 357.3 40.5456ZM370.988 46.0001V35.091H374.361V37.0796H374.475C374.674 36.3599 374.998 35.8249 375.448 35.4745C375.898 35.1194 376.421 34.9419 377.017 34.9419C377.178 34.9419 377.344 34.9537 377.515 34.9774C377.685 34.9963 377.844 35.0271 377.99 35.0697V38.0882C377.825 38.0313 377.607 37.9864 377.337 37.9532C377.072 37.9201 376.835 37.9035 376.627 37.9035C376.215 37.9035 375.843 37.9958 375.512 38.1805C375.185 38.3604 374.927 38.6137 374.738 38.9404C374.553 39.2624 374.461 39.6412 374.461 40.0768V46.0001H370.988ZM383.939 46.2061C382.797 46.2061 381.813 45.9812 380.984 45.5313C380.16 45.0768 379.526 44.4305 379.081 43.5924C378.64 42.7496 378.42 41.7482 378.42 40.5882C378.42 39.4613 378.643 38.4764 379.088 37.6336C379.533 36.7861 380.16 36.1279 380.97 35.6592C381.779 35.1857 382.734 34.949 383.832 34.949C384.609 34.949 385.319 35.0697 385.963 35.3112C386.607 35.5527 387.163 35.9101 387.632 36.3836C388.1 36.8571 388.465 37.4419 388.725 38.1379C388.986 38.8292 389.116 39.6223 389.116 40.5171V41.3836H379.635V39.3666H385.885C385.88 38.9973 385.792 38.6682 385.622 38.3794C385.451 38.0905 385.217 37.8656 384.919 37.7046C384.625 37.5389 384.287 37.4561 383.903 37.4561C383.515 37.4561 383.167 37.5437 382.859 37.7189C382.551 37.8893 382.307 38.1237 382.127 38.422C381.948 38.7155 381.853 39.0493 381.843 39.4234V41.476C381.843 41.921 381.931 42.3117 382.106 42.6478C382.281 42.9793 382.53 43.2373 382.852 43.422C383.174 43.6066 383.557 43.699 384.002 43.699C384.31 43.699 384.59 43.6563 384.841 43.5711C385.092 43.4859 385.307 43.3604 385.487 43.1947C385.667 43.029 385.802 42.8254 385.892 42.5839L389.081 42.6762C388.948 43.3912 388.657 44.0138 388.207 44.5441C387.762 45.0697 387.177 45.4793 386.453 45.7728C385.728 46.0617 384.89 46.2061 383.939 46.2061ZM394.022 43.1379L394.036 38.9973H394.519L397.587 35.091H401.522L396.962 40.6876H396.046L394.022 43.1379ZM390.89 46.0001V31.4546H394.363V46.0001H390.89ZM397.665 46.0001L394.81 41.4689L397.097 39.0044L401.678 46.0001H397.665ZM402.765 46.0001V35.091H406.138V37.0796H406.252C406.451 36.3599 406.775 35.8249 407.225 35.4745C407.675 35.1194 408.198 34.9419 408.795 34.9419C408.956 34.9419 409.121 34.9537 409.292 34.9774C409.462 34.9963 409.621 35.0271 409.768 35.0697V38.0882C409.602 38.0313 409.384 37.9864 409.114 37.9532C408.849 37.9201 408.612 37.9035 408.404 37.9035C407.992 37.9035 407.621 37.9958 407.289 38.1805C406.962 38.3604 406.704 38.6137 406.515 38.9404C406.33 39.2624 406.238 39.6412 406.238 40.0768V46.0001H402.765ZM418.221 41.2913V35.091H421.687V46.0001H418.377V43.9689H418.264C418.022 44.6365 417.61 45.1668 417.028 45.5598C416.45 45.948 415.752 46.1421 414.933 46.1421C414.19 46.1421 413.536 45.9717 412.973 45.6308C412.409 45.2899 411.971 44.814 411.659 44.2032C411.346 43.5877 411.188 42.868 411.183 42.0441V35.091H414.656V41.3623C414.661 41.9542 414.817 42.4206 415.125 42.7615C415.432 43.1024 415.851 43.2728 416.382 43.2728C416.727 43.2728 417.038 43.1971 417.312 43.0456C417.592 42.8893 417.812 42.6644 417.973 42.3708C418.138 42.0725 418.221 41.7127 418.221 41.2913ZM430.055 35.091V37.6478H423.173V35.091H430.055ZM424.615 32.4774H428.088V42.5697C428.088 42.7828 428.121 42.9556 428.188 43.0882C428.259 43.216 428.36 43.3083 428.493 43.3652C428.625 43.4172 428.784 43.4433 428.969 43.4433C429.101 43.4433 429.241 43.4314 429.388 43.4078C429.539 43.3794 429.653 43.3557 429.729 43.3367L430.254 45.8439C430.089 45.8912 429.854 45.9504 429.551 46.0214C429.253 46.0924 428.895 46.1374 428.479 46.1563C427.664 46.1942 426.966 46.0995 426.384 45.8723C425.806 45.6403 425.363 45.2804 425.055 44.7927C424.752 44.305 424.606 43.6919 424.615 42.9532V32.4774ZM431.827 46.0001V35.091H435.13V37.0939H435.251C435.478 36.431 435.862 35.9078 436.401 35.5242C436.941 35.1407 437.585 34.949 438.333 34.949C439.091 34.949 439.739 35.1431 440.279 35.5313C440.819 35.9196 441.162 36.4404 441.309 37.0939H441.423C441.626 36.4452 442.024 35.9267 442.616 35.5385C443.208 35.1455 443.906 34.949 444.711 34.949C445.743 34.949 446.581 35.2804 447.225 35.9433C447.869 36.6014 448.191 37.5058 448.191 38.6563V46.0001H444.718V39.4518C444.718 38.9073 444.578 38.493 444.299 38.2089C444.02 37.9201 443.657 37.7757 443.212 37.7757C442.734 37.7757 442.358 37.9319 442.083 38.2444C441.813 38.5522 441.678 38.9665 441.678 39.4873V46.0001H438.34V39.4163C438.34 38.9097 438.203 38.5096 437.928 38.216C437.654 37.9224 437.291 37.7757 436.842 37.7757C436.539 37.7757 436.271 37.8491 436.039 37.9958C435.807 38.1379 435.625 38.3415 435.492 38.6066C435.364 38.8718 435.3 39.1843 435.3 39.5441V46.0001H431.827ZM455.442 46.2061C454.301 46.2061 453.317 45.9812 452.488 45.5313C451.664 45.0768 451.03 44.4305 450.585 43.5924C450.144 42.7496 449.924 41.7482 449.924 40.5882C449.924 39.4613 450.147 38.4764 450.592 37.6336C451.037 36.7861 451.664 36.1279 452.474 35.6592C453.283 35.1857 454.237 34.949 455.336 34.949C456.112 34.949 456.823 35.0697 457.467 35.3112C458.111 35.5527 458.667 35.9101 459.136 36.3836C459.604 36.8571 459.969 37.4419 460.229 38.1379C460.49 38.8292 460.62 39.6223 460.62 40.5171V41.3836H451.138V39.3666H457.388C457.384 38.9973 457.296 38.6682 457.126 38.3794C456.955 38.0905 456.721 37.8656 456.423 37.7046C456.129 37.5389 455.79 37.4561 455.407 37.4561C455.019 37.4561 454.671 37.5437 454.363 37.7189C454.055 37.8893 453.811 38.1237 453.631 38.422C453.451 38.7155 453.357 39.0493 453.347 39.4234V41.476C453.347 41.921 453.435 42.3117 453.61 42.6478C453.785 42.9793 454.034 43.2373 454.356 43.422C454.678 43.6066 455.061 43.699 455.506 43.699C455.814 43.699 456.094 43.6563 456.344 43.5711C456.595 43.4859 456.811 43.3604 456.991 43.1947C457.171 43.029 457.306 42.8254 457.396 42.5839L460.585 42.6762C460.452 43.3912 460.161 44.0138 459.711 44.5441C459.266 45.0697 458.681 45.4793 457.957 45.7728C457.232 46.0617 456.394 46.2061 455.442 46.2061ZM465.867 39.7785V46.0001H462.394V35.091H465.696V37.0939H465.817C466.059 36.4262 466.471 35.903 467.053 35.5242C467.635 35.1407 468.329 34.949 469.134 34.949C469.901 34.949 470.566 35.1218 471.13 35.4674C471.698 35.8083 472.138 36.2866 472.451 36.9021C472.768 37.5129 472.924 38.2278 472.919 39.047V46.0001H469.446V39.7288C469.451 39.1227 469.297 38.6492 468.985 38.3083C468.677 37.9674 468.248 37.797 467.699 37.797C467.335 37.797 467.013 37.8775 466.733 38.0385C466.459 38.1947 466.246 38.4196 466.094 38.7132C465.947 39.0067 465.872 39.3618 465.867 39.7785Z" fill="#4A5568"/>
<path d="M473 7H27C15.9543 7 7 15.9543 7 27V50C7 61.0457 15.9543 70 27 70H473C484.046 70 493 61.0457 493 50V27C493 15.9543 484.046 7 473 7Z" stroke="url(#paint0_radial_5159_20924)" stroke-width="2"/>
<path d="M473 7H27C15.9543 7 7 15.9543 7 27V50C7 61.0457 15.9543 70 27 70H473C484.046 70 493 61.0457 493 50V27C493 15.9543 484.046 7 473 7Z" stroke="url(#paint1_radial_5159_20924)" stroke-width="2"/>
<path d="M473 7H27C15.9543 7 7 15.9543 7 27V50C7 61.0457 15.9543 70 27 70H473C484.046 70 493 61.0457 493 50V27C493 15.9543 484.046 7 473 7Z" stroke="url(#paint2_linear_5159_20924)" stroke-width="2"/>
<path d="M473 7H27C15.9543 7 7 15.9543 7 27V50C7 61.0457 15.9543 70 27 70H473C484.046 70 493 61.0457 493 50V27C493 15.9543 484.046 7 473 7Z" stroke="#C1BABA" stroke-opacity="0.2" stroke-width="2"/>
</g>
<defs>
<filter id="filter0_d_5159_20924" x="0.2172" y="0.94006" width="518.36" height="95.3597" filterUnits="userSpaceOnUse" color-interpolation-filters="sRGB">
<feFlood flood-opacity="0" result="BackgroundImageFix"/>
<feColorMatrix in="SourceAlpha" type="matrix" values="0 0 0 0 0 0 0 0 0 0 0 0 0 0 0 0 0 0 127 0" result="hardAlpha"/>
<feOffset dx="9.39704" dy="10.1199"/>
<feGaussianBlur stdDeviation="7.58992"/>
<feColorMatrix type="matrix" values="0 0 0 0 0.0375 0 0 0 0 0.18975 0 0 0 0 0.3 0 0 0 0.06 0"/>
<feBlend mode="normal" in2="BackgroundImageFix" result="effect1_dropShadow_5159_20924"/>
<feBlend mode="normal" in="SourceGraphic" in2="effect1_dropShadow_5159_20924" result="shape"/>
</filter>
<radialGradient id="paint0_radial_5159_20924" cx="0" cy="0" r="1" gradientUnits="userSpaceOnUse" gradientTransform="translate(10.3894 7.93388) rotate(7.34831) scale(480.066 194.892)">
<stop stop-color="#D8D8D8" stop-opacity="0"/>
<stop offset="1" stop-color="#D8D8D8"/>
</radialGradient>
<radialGradient id="paint1_radial_5159_20924" cx="0" cy="0" r="1" gradientUnits="userSpaceOnUse" gradientTransform="translate(12.7132 69.0124) rotate(-7.34562) scale(477.72 193.669)">
<stop stop-color="#D8D8D8" stop-opacity="0"/>
<stop offset="1" stop-color="#D8D8D8"/>
</radialGradient>
<linearGradient id="paint2_linear_5159_20924" x1="15.037" y1="7.77273" x2="68.5087" y2="191.187" gradientUnits="userSpaceOnUse">
<stop stop-color="white" stop-opacity="0.9"/>
<stop offset="1" stop-color="white" stop-opacity="0"/>
</linearGradient>
</defs>
</svg>
