<svg width="275" height="229" viewBox="0 0 275 229" fill="none" xmlns="http://www.w3.org/2000/svg">
<g filter="url(#filter0_d_4834_20532)">
<rect x="6" y="6" width="244" height="197.272" rx="16" fill="#FFCF54"/>
<rect x="86.3643" y="38" width="83.2722" height="83.2722" rx="14.457" fill="#E8ECEF"/>
<path d="M145.983 59.6855H106.963C104.967 59.6855 103.349 61.3037 103.349 63.2998V92.4679C103.349 94.464 104.967 96.0821 106.963 96.0821H145.983C147.979 96.0821 149.597 94.464 149.597 92.4679V63.2998C149.597 61.3037 147.979 59.6855 145.983 59.6855Z" fill="#665E66"/>
<path d="M147.439 59.6855H140.994C139.704 80.3464 137.287 89.7201 125.032 96.0821H147.439C149.036 96.0821 150.331 94.7876 150.331 93.1907V62.5769C150.331 60.9801 149.036 59.6855 147.439 59.6855Z" fill="#454045"/>
<path d="M111.47 64.7501L111.608 64.4713C111.743 64.1964 112.023 64.0225 112.33 64.0225H135.631C135.968 64.0225 136.27 64.2322 136.387 64.5482L136.508 64.8744C136.564 65.0258 136.573 65.1905 136.534 65.3473L136.477 65.5786C136.388 65.9383 136.066 66.191 135.695 66.191H112.33C112.023 66.191 111.743 66.017 111.608 65.7422L111.47 65.4634C111.359 65.2386 111.359 64.9749 111.47 64.7501Z" fill="#8D858D"/>
<path d="M111.537 69.7562L111.702 69.4774C111.848 69.2326 112.111 69.0825 112.395 69.0825H140.648C140.967 69.0825 141.255 69.27 141.384 69.5609L141.533 69.8955C141.611 70.0706 141.624 70.2677 141.569 70.4515L141.503 70.6744C141.402 71.0164 141.088 71.2511 140.731 71.2511H112.395C112.111 71.2511 111.848 71.101 111.702 70.8562L111.537 70.5774C111.387 70.3242 111.387 70.0094 111.537 69.7562Z" fill="#8D858D"/>
<path d="M111.362 86.5635L111.444 86.2847C111.546 85.9426 111.86 85.708 112.217 85.708H125.587C125.964 85.708 126.291 85.9702 126.373 86.3388L126.441 86.6469C126.463 86.743 126.466 86.8422 126.452 86.9396L126.415 87.1891C126.356 87.5841 126.017 87.8766 125.618 87.8766H112.217C111.86 87.8766 111.546 87.6419 111.444 87.2999L111.362 87.0211C111.317 86.8718 111.317 86.7128 111.362 86.5635Z" fill="#8D858D"/>
<path d="M140.48 85.1821H135.688C135.125 85.1821 134.669 85.6383 134.669 86.2009V98.4752C134.669 99.2277 135.457 99.7205 136.133 99.3913L137.561 98.697C137.835 98.5633 138.156 98.56 138.433 98.6881L140.055 99.4364C140.73 99.748 141.5 99.2548 141.5 98.5113L141.499 86.2008C141.499 85.6382 141.042 85.1821 140.48 85.1821Z" fill="#FBC157"/>
<circle cx="138.083" cy="81.5876" r="7.19115" fill="#FFA600"/>
<circle cx="138.08" cy="81.5868" r="2.69668" fill="#FBC157"/>
<path d="M58.3239 151.545H52.7159C52.6761 151.081 52.5701 150.66 52.3977 150.282C52.232 149.904 52 149.58 51.7017 149.308C51.41 149.029 51.0554 148.817 50.6378 148.671C50.2202 148.519 49.7462 148.443 49.2159 148.443C48.2879 148.443 47.5024 148.668 46.8594 149.119C46.223 149.57 45.7391 150.216 45.4077 151.058C45.0829 151.9 44.9205 152.91 44.9205 154.09C44.9205 155.337 45.0862 156.381 45.4176 157.223C45.7557 158.058 46.2429 158.687 46.8793 159.112C47.5156 159.529 48.2813 159.738 49.1761 159.738C49.6866 159.738 50.1439 159.675 50.5483 159.549C50.9527 159.417 51.304 159.228 51.6023 158.982C51.9006 158.737 52.1425 158.442 52.3281 158.098C52.5204 157.746 52.6496 157.352 52.7159 156.914L58.3239 156.954C58.2576 157.816 58.0156 158.694 57.598 159.589C57.1804 160.477 56.5871 161.299 55.8182 162.055C55.0559 162.804 54.1113 163.407 52.9844 163.865C51.8575 164.322 50.5483 164.551 49.0568 164.551C47.1875 164.551 45.5104 164.15 44.0256 163.348C42.5473 162.545 41.3774 161.365 40.5156 159.808C39.6605 158.25 39.233 156.344 39.233 154.09C39.233 151.823 39.6705 149.914 40.5455 148.363C41.4205 146.805 42.6004 145.629 44.0852 144.833C45.5701 144.031 47.2273 143.63 49.0568 143.63C50.3428 143.63 51.526 143.806 52.6065 144.157C53.687 144.508 54.6349 145.022 55.4503 145.698C56.2656 146.368 56.9219 147.193 57.419 148.174C57.9162 149.155 58.2178 150.279 58.3239 151.545ZM68.2298 164.551C66.5991 164.551 65.1938 164.239 64.0138 163.616C62.8406 162.986 61.9357 162.085 61.2994 160.911C60.6696 159.731 60.3548 158.32 60.3548 156.676C60.3548 155.098 60.6729 153.719 61.3093 152.539C61.9457 151.359 62.8439 150.441 64.0039 149.785C65.1639 149.129 66.5328 148.801 68.1104 148.801C69.2638 148.801 70.3079 148.98 71.2425 149.338C72.1772 149.696 72.976 150.216 73.6388 150.899C74.3017 151.575 74.8121 152.397 75.1701 153.365C75.5281 154.332 75.707 155.423 75.707 156.636V157.909H62.065V154.886H70.6559C70.6493 154.448 70.5366 154.064 70.3178 153.732C70.1057 153.394 69.8174 153.133 69.4528 152.947C69.0948 152.755 68.6871 152.659 68.2298 152.659C67.7856 152.659 67.378 152.755 67.0067 152.947C66.6355 153.133 66.3372 153.391 66.1119 153.723C65.8931 154.054 65.7771 154.442 65.7638 154.886V158.147C65.7638 158.638 65.8666 159.075 66.0721 159.46C66.2776 159.844 66.5726 160.146 66.957 160.365C67.3415 160.583 67.8055 160.693 68.3491 160.693C68.7269 160.693 69.0716 160.64 69.3832 160.534C69.7013 160.428 69.9731 160.275 70.1985 160.076C70.4239 159.871 70.5896 159.625 70.6957 159.34H75.707C75.5347 160.401 75.127 161.322 74.484 162.105C73.841 162.88 72.9892 163.483 71.9286 163.914C70.8746 164.339 69.6417 164.551 68.2298 164.551ZM77.9467 164.272V148.999H83.2763V151.903H83.4354C83.7138 150.829 84.1546 150.044 84.7578 149.546C85.3677 149.049 86.0803 148.801 86.8956 148.801C87.1342 148.801 87.3696 148.821 87.6016 148.86C87.8402 148.893 88.0689 148.943 88.2876 149.009V153.693C88.0159 153.6 87.6811 153.53 87.2834 153.484C86.8857 153.437 86.5443 153.414 86.2592 153.414C85.7223 153.414 85.2384 153.537 84.8075 153.782C84.3833 154.021 84.0485 154.359 83.8033 154.796C83.558 155.227 83.4354 155.734 83.4354 156.318V164.272H77.9467ZM99.8242 148.999V152.977H89.7617V148.999H99.8242ZM91.7106 145.34H97.1992V159.36C97.1992 159.572 97.2357 159.751 97.3086 159.897C97.3815 160.036 97.4942 160.142 97.6467 160.215C97.7991 160.282 97.9947 160.315 98.2333 160.315C98.399 160.315 98.5913 160.295 98.81 160.255C99.0354 160.215 99.2011 160.182 99.3072 160.156L100.103 164.014C99.8574 164.087 99.506 164.176 99.0487 164.282C98.5979 164.388 98.061 164.458 97.4379 164.491C96.1784 164.557 95.1211 164.428 94.266 164.103C93.4109 163.772 92.7679 163.251 92.337 162.542C91.9061 161.833 91.6973 160.945 91.7106 159.877V145.34ZM102.064 164.272V148.999H107.553V164.272H102.064ZM104.808 147.409C104.066 147.409 103.429 147.163 102.899 146.673C102.369 146.182 102.104 145.592 102.104 144.903C102.104 144.214 102.369 143.624 102.899 143.133C103.429 142.642 104.066 142.397 104.808 142.397C105.557 142.397 106.194 142.642 106.717 143.133C107.248 143.624 107.513 144.214 107.513 144.903C107.513 145.592 107.248 146.182 106.717 146.673C106.194 147.163 105.557 147.409 104.808 147.409ZM119.497 148.999V152.977H109.275V148.999H119.497ZM111.224 164.272V148.562C111.224 147.303 111.449 146.258 111.9 145.43C112.351 144.601 112.987 143.981 113.809 143.571C114.631 143.16 115.599 142.954 116.713 142.954C117.409 142.954 118.085 143.007 118.741 143.113C119.404 143.219 119.895 143.312 120.213 143.392L119.417 147.329C119.218 147.269 118.986 147.223 118.721 147.19C118.456 147.15 118.224 147.13 118.025 147.13C117.508 147.13 117.16 147.24 116.981 147.458C116.802 147.677 116.713 147.965 116.713 148.323V164.272H111.224ZM121.615 164.272V148.999H127.103V164.272H121.615ZM124.359 147.409C123.617 147.409 122.98 147.163 122.45 146.673C121.92 146.182 121.654 145.592 121.654 144.903C121.654 144.214 121.92 143.624 122.45 143.133C122.98 142.642 123.617 142.397 124.359 142.397C125.108 142.397 125.744 142.642 126.268 143.133C126.798 143.624 127.064 144.214 127.064 144.903C127.064 145.592 126.798 146.182 126.268 146.673C125.744 147.163 125.108 147.409 124.359 147.409ZM137.258 164.551C135.601 164.551 134.182 164.223 133.002 163.566C131.822 162.903 130.917 161.982 130.288 160.802C129.658 159.615 129.343 158.24 129.343 156.676C129.343 155.111 129.658 153.739 130.288 152.559C130.917 151.373 131.822 150.451 133.002 149.795C134.182 149.132 135.601 148.801 137.258 148.801C138.756 148.801 140.052 149.072 141.146 149.616C142.246 150.153 143.098 150.915 143.701 151.903C144.304 152.884 144.609 154.037 144.616 155.363H139.525C139.452 154.561 139.22 153.951 138.829 153.534C138.444 153.109 137.947 152.897 137.337 152.897C136.86 152.897 136.442 153.036 136.085 153.315C135.727 153.587 135.448 154.001 135.249 154.558C135.05 155.108 134.951 155.801 134.951 156.636C134.951 157.471 135.05 158.167 135.249 158.724C135.448 159.274 135.727 159.688 136.085 159.967C136.442 160.239 136.86 160.374 137.337 160.374C137.742 160.374 138.1 160.282 138.411 160.096C138.723 159.904 138.975 159.625 139.167 159.261C139.366 158.89 139.485 158.439 139.525 157.909H144.616C144.596 159.254 144.288 160.428 143.691 161.428C143.094 162.423 142.249 163.192 141.156 163.735C140.068 164.279 138.769 164.551 137.258 164.551ZM151.136 164.511C150.162 164.511 149.3 164.352 148.551 164.034C147.808 163.709 147.225 163.218 146.801 162.562C146.377 161.906 146.164 161.071 146.164 160.056C146.164 159.221 146.307 158.508 146.592 157.919C146.877 157.322 147.275 156.835 147.785 156.457C148.296 156.079 148.889 155.791 149.565 155.592C150.248 155.393 150.984 155.264 151.772 155.204C152.627 155.138 153.314 155.058 153.831 154.965C154.354 154.866 154.732 154.73 154.964 154.558C155.196 154.379 155.312 154.143 155.312 153.852V153.812C155.312 153.414 155.16 153.109 154.855 152.897C154.55 152.685 154.159 152.579 153.681 152.579C153.158 152.579 152.73 152.695 152.399 152.927C152.074 153.152 151.878 153.5 151.812 153.971H146.761C146.827 153.043 147.122 152.188 147.646 151.406C148.176 150.617 148.949 149.987 149.963 149.517C150.977 149.039 152.243 148.801 153.761 148.801C154.855 148.801 155.836 148.93 156.704 149.188C157.573 149.44 158.312 149.795 158.922 150.252C159.531 150.703 159.995 151.233 160.314 151.843C160.638 152.446 160.801 153.103 160.801 153.812V164.272H155.67V162.124H155.551C155.246 162.695 154.875 163.155 154.437 163.507C154.006 163.858 153.512 164.113 152.956 164.272C152.405 164.431 151.799 164.511 151.136 164.511ZM152.926 161.051C153.343 161.051 153.734 160.964 154.099 160.792C154.47 160.62 154.772 160.371 155.004 160.046C155.236 159.722 155.352 159.327 155.352 158.863V157.59C155.206 157.65 155.05 157.706 154.885 157.759C154.725 157.812 154.553 157.862 154.368 157.909C154.189 157.955 153.996 157.998 153.791 158.038C153.592 158.078 153.383 158.114 153.164 158.147C152.74 158.214 152.392 158.323 152.12 158.475C151.855 158.621 151.656 158.803 151.524 159.022C151.398 159.234 151.335 159.473 151.335 159.738C151.335 160.162 151.484 160.487 151.782 160.713C152.081 160.938 152.462 161.051 152.926 161.051ZM172.531 148.999V152.977H162.469V148.999H172.531ZM164.418 145.34H169.906V159.36C169.906 159.572 169.943 159.751 170.016 159.897C170.089 160.036 170.201 160.142 170.354 160.215C170.506 160.282 170.702 160.315 170.94 160.315C171.106 160.315 171.298 160.295 171.517 160.255C171.742 160.215 171.908 160.182 172.014 160.156L172.81 164.014C172.564 164.087 172.213 164.176 171.756 164.282C171.305 164.388 170.768 164.458 170.145 164.491C168.885 164.557 167.828 164.428 166.973 164.103C166.118 163.772 165.475 163.251 165.044 162.542C164.613 161.833 164.404 160.945 164.418 159.877V145.34ZM174.771 164.272V148.999H180.26V164.272H174.771ZM177.515 147.409C176.773 147.409 176.136 147.163 175.606 146.673C175.076 146.182 174.811 145.592 174.811 144.903C174.811 144.214 175.076 143.624 175.606 143.133C176.136 142.642 176.773 142.397 177.515 142.397C178.264 142.397 178.901 142.642 179.424 143.133C179.955 143.624 180.22 144.214 180.22 144.903C180.22 145.592 179.955 146.182 179.424 146.673C178.901 147.163 178.264 147.409 177.515 147.409ZM190.414 164.551C188.757 164.551 187.338 164.223 186.158 163.566C184.978 162.903 184.074 161.982 183.444 160.802C182.814 159.615 182.499 158.24 182.499 156.676C182.499 155.111 182.814 153.739 183.444 152.559C184.074 151.373 184.978 150.451 186.158 149.795C187.338 149.132 188.757 148.801 190.414 148.801C192.071 148.801 193.49 149.132 194.67 149.795C195.85 150.451 196.754 151.373 197.384 152.559C198.014 153.739 198.329 155.111 198.329 156.676C198.329 158.24 198.014 159.615 197.384 160.802C196.754 161.982 195.85 162.903 194.67 163.566C193.49 164.223 192.071 164.551 190.414 164.551ZM190.454 160.494C190.918 160.494 191.319 160.338 191.657 160.026C191.995 159.715 192.257 159.271 192.442 158.694C192.628 158.117 192.721 157.431 192.721 156.636C192.721 155.834 192.628 155.148 192.442 154.578C192.257 154.001 191.995 153.557 191.657 153.245C191.319 152.934 190.918 152.778 190.454 152.778C189.963 152.778 189.542 152.934 189.191 153.245C188.84 153.557 188.571 154.001 188.386 154.578C188.2 155.148 188.107 155.834 188.107 156.636C188.107 157.431 188.2 158.117 188.386 158.694C188.571 159.271 188.84 159.715 189.191 160.026C189.542 160.338 189.963 160.494 190.454 160.494ZM206.045 155.681V164.272H200.556V148.999H205.766V151.903H205.925C206.257 150.935 206.84 150.176 207.675 149.626C208.517 149.076 209.498 148.801 210.619 148.801C211.699 148.801 212.637 149.049 213.433 149.546C214.235 150.037 214.854 150.713 215.292 151.575C215.736 152.437 215.955 153.421 215.948 154.528V164.272H210.46V155.681C210.466 154.926 210.274 154.332 209.883 153.901C209.498 153.471 208.961 153.255 208.272 153.255C207.821 153.255 207.427 153.355 207.089 153.553C206.757 153.746 206.502 154.024 206.323 154.389C206.144 154.747 206.051 155.178 206.045 155.681Z" fill="#615E4A"/>
</g>
<defs>
<filter id="filter0_d_4834_20532" x="0.217206" y="0.940054" width="274.36" height="227.632" filterUnits="userSpaceOnUse" color-interpolation-filters="sRGB">
<feFlood flood-opacity="0" result="BackgroundImageFix"/>
<feColorMatrix in="SourceAlpha" type="matrix" values="0 0 0 0 0 0 0 0 0 0 0 0 0 0 0 0 0 0 127 0" result="hardAlpha"/>
<feOffset dx="9.39704" dy="10.1199"/>
<feGaussianBlur stdDeviation="7.58992"/>
<feComposite in2="hardAlpha" operator="out"/>
<feColorMatrix type="matrix" values="0 0 0 0 0.0375 0 0 0 0 0.18975 0 0 0 0 0.3 0 0 0 0.06 0"/>
<feBlend mode="normal" in2="BackgroundImageFix" result="effect1_dropShadow_4834_20532"/>
<feBlend mode="normal" in="SourceGraphic" in2="effect1_dropShadow_4834_20532" result="shape"/>
</filter>
</defs>
</svg>
