<svg width="224" height="209" viewBox="0 0 224 209" fill="none" xmlns="http://www.w3.org/2000/svg">
<g filter="url(#filter0_dd_5129_22241)">
<path d="M192 14H34C22.9543 14 14 22.9543 14 34V177C14 188.046 22.9543 197 34 197H192C203.046 197 212 188.046 212 177V34C212 22.9543 203.046 14 192 14Z" fill="#EDF2F7"/>
<path d="M109.368 72.5333C109.368 73.859 109.365 75.0946 109.368 76.3287C109.372 78.0024 110.137 78.6238 111.765 78.293C112.044 78.2358 112.329 78.1842 112.612 78.1828C113.934 78.1771 114.216 78.4634 114.216 79.762C114.216 80.5251 114.179 81.291 114.229 82.0513C114.266 82.6268 114.415 83.1952 114.541 83.9268C113.871 84.5568 112.883 84.8188 111.863 84.4923C110.399 84.0227 109.266 84.8932 109.351 86.5025C109.428 87.9771 109.367 89.4575 109.367 91.0496C109.077 91.0496 108.827 91.0496 108.575 91.0496C103.349 91.0496 98.1248 91.051 92.8991 91.0481C90.9233 91.0467 90.0228 90.1419 90.0213 88.1561C90.0185 83.1938 90.0199 78.23 90.0199 73.2677C90.0199 73.0573 90.0199 72.8468 90.0199 72.5318C90.8288 72.5318 91.5819 72.5318 92.335 72.5318C93.2899 72.5318 94.2434 72.539 95.1984 72.5304C96.842 72.5161 97.5163 71.4595 96.8477 69.9562C95.9157 67.8645 97.0195 65.6668 99.2086 65.3117C100.407 65.117 101.429 65.5165 102.194 66.4628C102.958 67.4092 103.107 68.4787 102.691 69.624C102.633 69.7801 102.563 69.9319 102.5 70.0865C101.957 71.4208 102.65 72.5018 104.099 72.5261C105.554 72.5519 107.01 72.5318 108.466 72.5318C108.728 72.5347 108.987 72.5333 109.368 72.5333Z" fill="#CDA291"/>
<path d="M109.358 51.557C109.358 53.1533 109.337 54.6981 109.373 56.2401C109.383 56.6768 109.48 57.1507 109.679 57.5344C110.001 58.1529 110.743 58.3347 111.639 58.1357C113.414 57.7405 115.009 58.4793 115.59 60.0126C116.029 61.168 115.887 62.279 115.091 63.244C114.256 64.2562 113.147 64.5841 111.878 64.3421C110.076 63.9971 109.361 64.5612 109.36 66.3737C109.358 67.8269 109.36 69.2801 109.36 70.8278C107.567 70.8278 105.821 70.8278 104.004 70.8278C105.095 68.1433 104.657 65.8068 102.051 64.262C100.268 63.2068 98.3742 63.3772 96.7607 64.6772C94.7405 66.3036 94.3926 68.4154 95.4549 70.8192C93.6266 70.8192 91.8742 70.8192 90.0202 70.8192C90.0202 70.54 90.0202 70.2866 90.0202 70.0318C90.0202 64.8561 90.0187 59.6791 90.0202 54.5034C90.0216 52.4475 90.9379 51.5226 92.9838 51.5212C98.1838 51.5183 103.384 51.5198 108.584 51.5212C108.814 51.5226 109.048 51.5427 109.358 51.557Z" fill="#CDA291"/>
<path d="M128.306 77.3876C128.731 77.9817 129.308 78.1936 130.034 78.1764C131.198 78.1492 132.364 78.1836 133.528 78.1922C133.536 83.3378 133.523 88.4847 133.568 93.6303C133.578 94.7699 133.423 95.8008 132.661 96.6813C132.472 96.6985 132.283 96.7285 132.094 96.7285C126.87 96.7314 121.646 96.73 116.422 96.73C116.283 96.73 116.142 96.73 115.945 96.73C115.945 95.0291 115.945 93.3783 115.945 91.6889C118.384 92.2201 120.369 91.5944 121.647 89.434C122.659 87.7231 122.584 85.9206 121.433 84.3085C120.087 82.4229 118.217 81.7972 115.922 82.5059C115.922 81.0613 115.922 79.6626 115.922 78.1664C116.503 78.1664 117.067 78.1664 117.631 78.1664C118.871 78.165 120.112 78.1865 121.352 78.1578C122.594 78.1278 123.302 77.0554 122.8 75.9115C122.324 74.8305 122.147 73.7768 122.691 72.6787C123.271 71.509 124.585 70.8031 125.805 71.005C125.869 71.1281 125.909 71.2713 126 71.3701C127.298 72.7675 127.446 74.3223 126.668 76.0203C126.299 76.8278 126.643 77.379 127.527 77.4176C127.786 77.4305 128.047 77.399 128.306 77.3876Z" fill="#FFCF54"/>
<path d="M128.802 70.4931C127.845 69.7844 126.801 69.2991 125.521 69.2891C125.656 67.352 125.121 65.7155 123.533 64.5544C122.436 63.7526 121.183 63.5007 119.866 63.7326C118.261 64.0146 117.083 64.9309 116.356 66.3898C115.803 67.4994 115.819 67.8459 116.354 70.8353C116.24 70.8525 116.125 70.8854 116.012 70.8854C114.393 70.8883 112.774 70.8883 111.101 70.8883C111.101 69.2103 111.101 67.5782 111.101 65.8615C112.994 66.3469 114.696 66.0104 116.082 64.6016C117.043 63.6252 117.53 62.4226 117.478 61.0439C117.358 57.907 114.968 56.2233 111.09 56.5569C111.09 54.919 111.09 53.2854 111.09 51.6089C111.244 51.5888 111.403 51.5488 111.562 51.5488C116.832 51.5459 122.103 51.5459 127.373 51.5473C127.514 51.5473 127.656 51.5731 127.798 51.586C128.399 52.2918 128.809 53.0907 128.81 54.0299C128.816 59.5191 128.806 65.0068 128.802 70.4931Z" fill="#CDA291"/>
<path d="M132.66 96.681C133.422 95.8005 133.576 94.7682 133.566 93.63C133.522 88.4845 133.535 83.3375 133.526 78.1919C134.068 78.1919 134.607 78.1919 135.187 78.1919C135.206 78.4253 135.232 78.6085 135.233 78.7932C135.236 83.8457 135.239 88.8968 135.233 93.9493C135.23 95.7031 134.271 96.7082 132.66 96.681Z" fill="#D3AC46"/>
<path d="M128.804 70.4941C128.809 65.0064 128.82 59.5201 128.813 54.0323C128.812 53.0931 128.402 52.2942 127.801 51.5884C129.287 51.5841 130.372 52.5262 130.379 53.9622C130.404 59.4972 130.388 65.0336 130.385 70.5686C130.385 70.6358 130.355 70.7046 130.326 70.8248C129.791 70.8392 129.214 71.1284 128.804 70.4941Z" fill="#B4968A"/>
<path d="M128.307 77.387C128.047 77.3984 127.786 77.4299 127.527 77.4185C126.642 77.3798 126.299 76.8272 126.668 76.0211C127.445 74.3231 127.298 72.7683 125.999 71.3709C125.909 71.2736 125.868 71.129 125.805 71.0059C127.924 71.0331 129.374 73.3395 128.508 75.354C128.22 76.0269 127.947 76.6668 128.307 77.387Z" fill="#D3AC46"/>
<path d="M91.6651 81.4421C91.6651 79.462 91.6623 77.482 91.668 75.5019C91.668 75.2414 91.625 74.9264 91.751 74.7331C91.9114 74.4868 92.2206 74.1933 92.4712 74.1905C92.7189 74.1862 93.0167 74.4797 93.2071 74.7131C93.3202 74.8505 93.2916 75.124 93.2916 75.3358C93.2959 79.3675 93.2959 83.4007 93.2916 87.4324C93.2916 87.6443 93.3273 87.9249 93.2128 88.0537C93.0009 88.2914 92.6931 88.5749 92.4196 88.5806C92.192 88.5863 91.8899 88.2613 91.741 88.0122C91.6222 87.8103 91.6694 87.5025 91.6694 87.2405C91.6637 85.3077 91.6651 83.3749 91.6651 81.4421Z" fill="#CDA291"/>
<path d="M93.2988 60.4173C93.2988 62.1339 93.3017 63.852 93.296 65.5686C93.2945 65.8048 93.3404 66.1069 93.2172 66.2615C93.0197 66.5078 92.7061 66.7927 92.4298 66.8056C92.2021 66.8156 91.9058 66.4906 91.7411 66.2458C91.6252 66.0725 91.6567 65.7848 91.6567 65.5485C91.6524 62.1625 91.6524 58.7751 91.6567 55.3891C91.6567 55.1515 91.6123 54.8594 91.7297 54.6905C91.9244 54.4113 92.2394 54.0261 92.4942 54.0333C92.7605 54.0405 93.0569 54.4285 93.2588 54.7076C93.3633 54.8522 93.2974 55.1243 93.2974 55.3376C93.3003 57.0313 93.2988 58.725 93.2988 60.4173Z" fill="#CDA291"/>
<path d="M97.5844 118.479V115.909H108.649V118.479H104.679V129H101.56V118.479H97.5844ZM113.36 129.185C112.333 129.185 111.446 128.983 110.7 128.578C109.959 128.169 109.388 127.587 108.987 126.833C108.591 126.075 108.393 125.173 108.393 124.129C108.393 123.115 108.593 122.229 108.994 121.47C109.394 120.707 109.959 120.115 110.688 119.693C111.416 119.267 112.275 119.054 113.264 119.054C113.963 119.054 114.602 119.163 115.181 119.38C115.761 119.597 116.262 119.919 116.683 120.345C117.105 120.771 117.433 121.298 117.668 121.924C117.902 122.546 118.019 123.26 118.019 124.065V124.845H109.486V123.03H115.111C115.107 122.697 115.028 122.401 114.874 122.141C114.721 121.881 114.51 121.679 114.242 121.534C113.977 121.385 113.673 121.31 113.328 121.31C112.978 121.31 112.665 121.389 112.388 121.547C112.111 121.7 111.892 121.911 111.73 122.18C111.568 122.444 111.482 122.744 111.474 123.081V124.928C111.474 125.329 111.553 125.68 111.71 125.983C111.868 126.281 112.092 126.513 112.382 126.68C112.671 126.846 113.017 126.929 113.417 126.929C113.694 126.929 113.945 126.891 114.171 126.814C114.397 126.737 114.591 126.624 114.753 126.475C114.915 126.326 115.036 126.143 115.117 125.925L117.987 126.009C117.868 126.652 117.606 127.212 117.201 127.69C116.801 128.163 116.274 128.531 115.622 128.795C114.97 129.055 114.216 129.185 113.36 129.185ZM128.188 122.18L125.317 122.256C125.288 122.052 125.207 121.871 125.075 121.713C124.942 121.551 124.77 121.425 124.557 121.336C124.348 121.242 124.105 121.195 123.828 121.195C123.466 121.195 123.157 121.268 122.901 121.413C122.65 121.558 122.526 121.754 122.531 122.001C122.526 122.192 122.603 122.359 122.761 122.499C122.923 122.64 123.21 122.753 123.624 122.838L125.516 123.196C126.496 123.384 127.224 123.695 127.702 124.129C128.183 124.564 128.426 125.139 128.43 125.855C128.426 126.528 128.226 127.114 127.83 127.613C127.438 128.112 126.901 128.499 126.219 128.776C125.537 129.049 124.757 129.185 123.879 129.185C122.477 129.185 121.371 128.898 120.562 128.322C119.756 127.743 119.296 126.967 119.181 125.996L122.268 125.919C122.337 126.277 122.513 126.55 122.799 126.737C123.085 126.925 123.449 127.018 123.892 127.018C124.293 127.018 124.619 126.944 124.87 126.795C125.121 126.646 125.249 126.447 125.254 126.2C125.249 125.979 125.151 125.802 124.96 125.67C124.768 125.533 124.467 125.427 124.058 125.35L122.345 125.024C121.361 124.845 120.628 124.515 120.146 124.033C119.665 123.548 119.426 122.93 119.43 122.18C119.426 121.523 119.601 120.963 119.955 120.499C120.308 120.03 120.811 119.672 121.463 119.425C122.115 119.178 122.884 119.054 123.771 119.054C125.1 119.054 126.148 119.333 126.915 119.891C127.683 120.445 128.107 121.208 128.188 122.18ZM43.2656 160V146.909H48.6733C49.6534 146.909 50.4992 147.101 51.2109 147.484C51.9268 147.864 52.4786 148.394 52.8664 149.076C53.2542 149.754 53.4481 150.542 53.4481 151.441C53.4481 152.344 53.25 153.135 52.8536 153.812C52.4616 154.486 51.9012 155.008 51.1725 155.379C50.4438 155.749 49.5788 155.935 48.5774 155.935H45.2407V153.442H47.9893C48.4666 153.442 48.865 153.359 49.1846 153.192C49.5085 153.026 49.7535 152.794 49.9197 152.496C50.0859 152.193 50.169 151.842 50.169 151.441C50.169 151.036 50.0859 150.687 49.9197 150.393C49.7535 150.094 49.5085 149.864 49.1846 149.702C48.8608 149.54 48.4623 149.46 47.9893 149.46H46.4296V160H43.2656ZM59.4039 160.185C58.3769 160.185 57.4905 159.983 56.7448 159.578C56.0033 159.169 55.4323 158.587 55.0317 157.833C54.6354 157.075 54.4373 156.173 54.4373 155.129C54.4373 154.115 54.6376 153.229 55.0381 152.47C55.4387 151.707 56.0033 151.115 56.732 150.693C57.4607 150.267 58.3194 150.054 59.308 150.054C60.0069 150.054 60.6461 150.163 61.2256 150.38C61.8052 150.597 62.3059 150.919 62.7278 151.345C63.1496 151.771 63.4778 152.298 63.7121 152.924C63.9465 153.546 64.0637 154.26 64.0637 155.065V155.845H55.5303V154.03H61.1553C61.1511 153.697 61.0722 153.401 60.9188 153.141C60.7654 152.881 60.5545 152.679 60.286 152.534C60.0218 152.385 59.7171 152.31 59.3719 152.31C59.0225 152.31 58.7093 152.389 58.4323 152.547C58.1553 152.7 57.9359 152.911 57.7739 153.18C57.612 153.444 57.5268 153.744 57.5182 154.081V155.928C57.5182 156.329 57.5971 156.68 57.7548 156.983C57.9124 157.281 58.1361 157.513 58.4259 157.68C58.7157 157.846 59.0609 157.929 59.4614 157.929C59.7384 157.929 59.9898 157.891 60.2157 157.814C60.4415 157.737 60.6354 157.624 60.7974 157.475C60.9593 157.326 61.0807 157.143 61.1617 156.925L64.0317 157.009C63.9124 157.652 63.6503 158.212 63.2455 158.69C62.8449 159.163 62.3187 159.531 61.6667 159.795C61.0147 160.055 60.2604 160.185 59.4039 160.185ZM68.7858 154.401V160H65.6601V150.182H68.6324V151.984H68.7411C68.9584 151.384 69.3291 150.913 69.8533 150.572C70.3774 150.227 71.0017 150.054 71.7262 150.054C72.4165 150.054 73.0152 150.21 73.5223 150.521C74.0337 150.827 74.43 151.258 74.7112 151.812C74.9968 152.362 75.1374 153.005 75.1331 153.742V160H72.0074V154.356C72.0117 153.81 71.8732 153.384 71.5919 153.077C71.3149 152.771 70.9293 152.617 70.435 152.617C70.1068 152.617 69.8171 152.69 69.5657 152.835C69.3185 152.975 69.1267 153.178 68.9904 153.442C68.8583 153.706 68.7901 154.026 68.7858 154.401ZM79.8361 160.166C79.2097 160.166 78.6535 160.062 78.1677 159.853C77.6862 159.64 77.3048 159.32 77.0236 158.894C76.7466 158.464 76.6081 157.925 76.6081 157.277C76.6081 156.732 76.704 156.271 76.8957 155.896C77.0875 155.521 77.3517 155.217 77.6883 154.982C78.025 154.748 78.4128 154.571 78.8517 154.452C79.2906 154.328 79.7594 154.245 80.2579 154.202C80.8162 154.151 81.2658 154.098 81.6067 154.043C81.9476 153.983 82.1947 153.9 82.3481 153.793C82.5058 153.683 82.5847 153.527 82.5847 153.327V153.295C82.5847 152.967 82.4717 152.713 82.2459 152.534C82.02 152.355 81.7153 152.266 81.3318 152.266C80.9185 152.266 80.5861 152.355 80.3347 152.534C80.0832 152.713 79.9234 152.96 79.8552 153.276L76.9724 153.173C77.0577 152.577 77.2771 152.044 77.6308 151.575C77.9888 151.102 78.4788 150.732 79.101 150.463C79.7274 150.19 80.4795 150.054 81.3574 150.054C81.9838 150.054 82.5612 150.129 83.0896 150.278C83.618 150.423 84.0783 150.636 84.4703 150.917C84.8623 151.194 85.1649 151.535 85.378 151.94C85.5953 152.344 85.704 152.807 85.704 153.327V160H82.7636V158.632H82.6869C82.5122 158.964 82.2885 159.246 82.0158 159.476C81.7473 159.706 81.4298 159.879 81.0633 159.994C80.7011 160.109 80.292 160.166 79.8361 160.166ZM80.8013 158.121C81.1379 158.121 81.4405 158.053 81.7089 157.916C81.9817 157.78 82.199 157.592 82.3609 157.354C82.5229 157.111 82.6038 156.83 82.6038 156.51V155.577C82.5143 155.624 82.4057 155.666 82.2778 155.705C82.1543 155.743 82.0179 155.779 81.8687 155.813C81.7196 155.847 81.5662 155.877 81.4085 155.903C81.2508 155.928 81.0996 155.952 80.9547 155.973C80.6606 156.02 80.4092 156.092 80.2004 156.19C79.9959 156.288 79.8382 156.416 79.7274 156.574C79.6209 156.727 79.5676 156.911 79.5676 157.124C79.5676 157.447 79.6827 157.695 79.9128 157.865C80.1472 158.036 80.4433 158.121 80.8013 158.121ZM90.7409 146.909V160H87.6152V146.909H90.7409ZM95.4982 160.166C94.8718 160.166 94.3157 160.062 93.8299 159.853C93.3483 159.64 92.9669 159.32 92.6857 158.894C92.4087 158.464 92.2702 157.925 92.2702 157.277C92.2702 156.732 92.3661 156.271 92.5578 155.896C92.7496 155.521 93.0138 155.217 93.3505 154.982C93.6871 154.748 94.0749 154.571 94.5138 154.452C94.9527 154.328 95.4215 154.245 95.9201 154.202C96.4783 154.151 96.9279 154.098 97.2688 154.043C97.6097 153.983 97.8568 153.9 98.0103 153.793C98.1679 153.683 98.2468 153.527 98.2468 153.327V153.295C98.2468 152.967 98.1338 152.713 97.908 152.534C97.6821 152.355 97.3774 152.266 96.9939 152.266C96.5806 152.266 96.2482 152.355 95.9968 152.534C95.7453 152.713 95.5855 152.96 95.5174 153.276L92.6345 153.173C92.7198 152.577 92.9392 152.044 93.2929 151.575C93.6509 151.102 94.1409 150.732 94.7631 150.463C95.3895 150.19 96.1416 150.054 97.0195 150.054C97.6459 150.054 98.2233 150.129 98.7517 150.278C99.2801 150.423 99.7404 150.636 100.132 150.917C100.524 151.194 100.827 151.535 101.04 151.94C101.257 152.344 101.366 152.807 101.366 153.327V160H98.4257V158.632H98.349C98.1743 158.964 97.9506 159.246 97.6779 159.476C97.4094 159.706 97.0919 159.879 96.7255 159.994C96.3632 160.109 95.9541 160.166 95.4982 160.166ZM96.4634 158.121C96.8 158.121 97.1026 158.053 97.3711 157.916C97.6438 157.78 97.8611 157.592 98.023 157.354C98.185 157.111 98.2659 156.83 98.2659 156.51V155.577C98.1764 155.624 98.0678 155.666 97.9399 155.705C97.8164 155.743 97.68 155.779 97.5309 155.813C97.3817 155.847 97.2283 155.877 97.0706 155.903C96.913 155.928 96.7617 155.952 96.6168 155.973C96.3228 156.02 96.0713 156.092 95.8625 156.19C95.658 156.288 95.5003 156.416 95.3895 156.574C95.283 156.727 95.2297 156.911 95.2297 157.124C95.2297 157.447 95.3448 157.695 95.5749 157.865C95.8093 158.036 96.1054 158.121 96.4634 158.121ZM103.277 160V150.182H106.313V151.972H106.415C106.594 151.324 106.886 150.842 107.291 150.527C107.696 150.207 108.167 150.048 108.704 150.048C108.849 150.048 108.998 150.058 109.151 150.08C109.305 150.097 109.447 150.124 109.579 150.163V152.879C109.43 152.828 109.234 152.788 108.991 152.758C108.753 152.728 108.54 152.713 108.352 152.713C107.981 152.713 107.647 152.796 107.349 152.962C107.055 153.124 106.822 153.352 106.652 153.646C106.486 153.936 106.403 154.277 106.403 154.669V160H103.277ZM113.252 160.166C112.625 160.166 112.069 160.062 111.583 159.853C111.102 159.64 110.72 159.32 110.439 158.894C110.162 158.464 110.024 157.925 110.024 157.277C110.024 156.732 110.12 156.271 110.311 155.896C110.503 155.521 110.767 155.217 111.104 154.982C111.441 154.748 111.828 154.571 112.267 154.452C112.706 154.328 113.175 154.245 113.674 154.202C114.232 154.151 114.681 154.098 115.022 154.043C115.363 153.983 115.61 153.9 115.764 153.793C115.921 153.683 116 153.527 116 153.327V153.295C116 152.967 115.887 152.713 115.661 152.534C115.436 152.355 115.131 152.266 114.747 152.266C114.334 152.266 114.002 152.355 113.75 152.534C113.499 152.713 113.339 152.96 113.271 153.276L110.388 153.173C110.473 152.577 110.693 152.044 111.046 151.575C111.404 151.102 111.894 150.732 112.517 150.463C113.143 150.19 113.895 150.054 114.773 150.054C115.399 150.054 115.977 150.129 116.505 150.278C117.034 150.423 117.494 150.636 117.886 150.917C118.278 151.194 118.581 151.535 118.794 151.94C119.011 152.344 119.12 152.807 119.12 153.327V160H116.179V158.632H116.103C115.928 158.964 115.704 159.246 115.431 159.476C115.163 159.706 114.845 159.879 114.479 159.994C114.117 160.109 113.708 160.166 113.252 160.166ZM114.217 158.121C114.554 158.121 114.856 158.053 115.125 157.916C115.397 157.78 115.615 157.592 115.777 157.354C115.938 157.111 116.019 156.83 116.019 156.51V155.577C115.93 155.624 115.821 155.666 115.693 155.705C115.57 155.743 115.434 155.779 115.284 155.813C115.135 155.847 114.982 155.877 114.824 155.903C114.666 155.928 114.515 155.952 114.37 155.973C114.076 156.02 113.825 156.092 113.616 156.19C113.411 156.288 113.254 156.416 113.143 156.574C113.036 156.727 112.983 156.911 112.983 157.124C112.983 157.447 113.098 157.695 113.328 157.865C113.563 158.036 113.859 158.121 114.217 158.121ZM124.157 154.401V160H121.031V150.182H124.003V151.984H124.112C124.329 151.384 124.7 150.913 125.224 150.572C125.748 150.227 126.372 150.054 127.097 150.054C127.787 150.054 128.386 150.21 128.893 150.521C129.404 150.827 129.801 151.258 130.082 151.812C130.367 152.362 130.508 153.005 130.504 153.742V160H127.378V154.356C127.382 153.81 127.244 153.384 126.963 153.077C126.686 152.771 126.3 152.617 125.806 152.617C125.478 152.617 125.188 152.69 124.936 152.835C124.689 152.975 124.497 153.178 124.361 153.442C124.229 153.706 124.161 154.026 124.157 154.401ZM136.306 160V146.909H139.47V157.43H144.916V160H136.306ZM151.137 160.185C150.106 160.185 149.22 159.974 148.478 159.553C147.741 159.126 147.172 158.534 146.772 157.776C146.375 157.013 146.177 156.129 146.177 155.123C146.177 154.113 146.375 153.229 146.772 152.47C147.172 151.707 147.741 151.115 148.478 150.693C149.22 150.267 150.106 150.054 151.137 150.054C152.169 150.054 153.053 150.267 153.79 150.693C154.532 151.115 155.1 151.707 155.497 152.47C155.897 153.229 156.098 154.113 156.098 155.123C156.098 156.129 155.897 157.013 155.497 157.776C155.1 158.534 154.532 159.126 153.79 159.553C153.053 159.974 152.169 160.185 151.137 160.185ZM151.157 157.827C151.532 157.827 151.849 157.712 152.109 157.482C152.369 157.251 152.567 156.932 152.703 156.523C152.844 156.114 152.914 155.641 152.914 155.104C152.914 154.558 152.844 154.081 152.703 153.672C152.567 153.263 152.369 152.943 152.109 152.713C151.849 152.483 151.532 152.368 151.157 152.368C150.769 152.368 150.441 152.483 150.172 152.713C149.908 152.943 149.706 153.263 149.565 153.672C149.429 154.081 149.36 154.558 149.36 155.104C149.36 155.641 149.429 156.114 149.565 156.523C149.706 156.932 149.908 157.251 150.172 157.482C150.441 157.712 150.769 157.827 151.157 157.827ZM162.275 163.886C161.342 163.886 160.543 163.756 159.878 163.496C159.214 163.237 158.692 162.881 158.312 162.429C157.933 161.977 157.705 161.466 157.628 160.895L160.588 160.729C160.643 160.929 160.746 161.104 160.895 161.253C161.048 161.402 161.246 161.517 161.489 161.598C161.736 161.679 162.026 161.719 162.359 161.719C162.883 161.719 163.315 161.592 163.656 161.336C164.001 161.085 164.174 160.643 164.174 160.013V158.287H164.065C163.942 158.589 163.754 158.86 163.503 159.099C163.251 159.337 162.938 159.525 162.563 159.661C162.192 159.798 161.766 159.866 161.285 159.866C160.569 159.866 159.913 159.7 159.316 159.367C158.724 159.031 158.248 158.511 157.891 157.808C157.537 157.1 157.36 156.19 157.36 155.078C157.36 153.932 157.543 152.988 157.91 152.246C158.276 151.501 158.756 150.949 159.348 150.591C159.945 150.233 160.586 150.054 161.272 150.054C161.788 150.054 162.229 150.143 162.595 150.322C162.966 150.497 163.271 150.723 163.509 151C163.748 151.277 163.929 151.565 164.052 151.863H164.142V150.182H167.255V160.038C167.255 160.869 167.046 161.57 166.628 162.141C166.211 162.712 165.627 163.145 164.877 163.439C164.127 163.737 163.26 163.886 162.275 163.886ZM162.371 157.59C162.751 157.59 163.074 157.49 163.343 157.29C163.611 157.089 163.818 156.802 163.963 156.427C164.108 156.052 164.18 155.602 164.18 155.078C164.18 154.545 164.108 154.087 163.963 153.704C163.822 153.316 163.616 153.018 163.343 152.809C163.074 152.6 162.751 152.496 162.371 152.496C161.984 152.496 161.655 152.602 161.387 152.815C161.119 153.028 160.914 153.329 160.773 153.717C160.637 154.1 160.569 154.554 160.569 155.078C160.569 155.602 160.639 156.052 160.78 156.427C160.92 156.802 161.123 157.089 161.387 157.29C161.655 157.49 161.984 157.59 162.371 157.59ZM169.248 160V150.182H172.373V160H169.248ZM170.814 149.038C170.375 149.038 169.998 148.893 169.682 148.603C169.367 148.309 169.209 147.955 169.209 147.542C169.209 147.133 169.367 146.783 169.682 146.494C169.998 146.2 170.375 146.053 170.814 146.053C171.257 146.053 171.634 146.2 171.945 146.494C172.26 146.783 172.418 147.133 172.418 147.542C172.418 147.955 172.26 148.309 171.945 148.603C171.634 148.893 171.257 149.038 170.814 149.038ZM182.935 153.18L180.065 153.256C180.035 153.052 179.954 152.871 179.822 152.713C179.69 152.551 179.517 152.425 179.304 152.336C179.095 152.242 178.852 152.195 178.575 152.195C178.213 152.195 177.904 152.268 177.648 152.413C177.397 152.558 177.273 152.754 177.278 153.001C177.273 153.192 177.35 153.359 177.508 153.499C177.67 153.64 177.957 153.753 178.371 153.838L180.263 154.196C181.243 154.384 181.972 154.695 182.449 155.129C182.93 155.564 183.173 156.139 183.177 156.855C183.173 157.528 182.973 158.114 182.577 158.613C182.185 159.112 181.648 159.499 180.966 159.776C180.284 160.049 179.504 160.185 178.626 160.185C177.224 160.185 176.119 159.898 175.309 159.322C174.503 158.743 174.043 157.967 173.928 156.996L177.016 156.919C177.084 157.277 177.261 157.55 177.546 157.737C177.832 157.925 178.196 158.018 178.639 158.018C179.04 158.018 179.366 157.944 179.617 157.795C179.869 157.646 179.996 157.447 180.001 157.2C179.996 156.979 179.898 156.802 179.707 156.67C179.515 156.533 179.214 156.427 178.805 156.35L177.092 156.024C176.108 155.845 175.375 155.515 174.893 155.033C174.412 154.548 174.173 153.93 174.177 153.18C174.173 152.523 174.348 151.963 174.702 151.499C175.055 151.03 175.558 150.672 176.21 150.425C176.862 150.178 177.631 150.054 178.518 150.054C179.847 150.054 180.896 150.333 181.663 150.891C182.43 151.445 182.854 152.208 182.935 153.18Z" fill="#4A5568"/>
<path d="M192 15H34C23.5066 15 15 23.5066 15 34V177C15 187.493 23.5066 196 34 196H192C202.493 196 211 187.493 211 177V34C211 23.5066 202.493 15 192 15Z" stroke="url(#paint0_radial_5129_22241)" stroke-width="2"/>
<path d="M192 15H34C23.5066 15 15 23.5066 15 34V177C15 187.493 23.5066 196 34 196H192C202.493 196 211 187.493 211 177V34C211 23.5066 202.493 15 192 15Z" stroke="url(#paint1_radial_5129_22241)" stroke-width="2"/>
<path d="M192 15H34C23.5066 15 15 23.5066 15 34V177C15 187.493 23.5066 196 34 196H192C202.493 196 211 187.493 211 177V34C211 23.5066 202.493 15 192 15Z" stroke="url(#paint2_linear_5129_22241)" stroke-width="2"/>
<path d="M192 15H34C23.5066 15 15 23.5066 15 34V177C15 187.493 23.5066 196 34 196H192C202.493 196 211 187.493 211 177V34C211 23.5066 202.493 15 192 15Z" stroke="#C1BABA" stroke-opacity="0.2" stroke-width="2"/>
</g>
<defs>
<filter id="filter0_dd_5129_22241" x="0.8997" y="0.8997" width="222.236" height="207.563" filterUnits="userSpaceOnUse" color-interpolation-filters="sRGB">
<feFlood flood-opacity="0" result="BackgroundImageFix"/>
<feColorMatrix in="SourceAlpha" type="matrix" values="0 0 0 0 0 0 0 0 0 0 0 0 0 0 0 0 0 0 127 0" result="hardAlpha"/>
<feOffset dx="4.2576" dy="4.58511"/>
<feGaussianBlur stdDeviation="3.43883"/>
<feColorMatrix type="matrix" values="0 0 0 0 0 0 0 0 0 0 0 0 0 0 0 0 0 0 0.1 0"/>
<feBlend mode="normal" in2="BackgroundImageFix" result="effect1_dropShadow_5129_22241"/>
<feColorMatrix in="SourceAlpha" type="matrix" values="0 0 0 0 0 0 0 0 0 0 0 0 0 0 0 0 0 0 127 0" result="hardAlpha"/>
<feOffset dx="-3.27508" dy="-3.27508"/>
<feGaussianBlur stdDeviation="4.91261"/>
<feColorMatrix type="matrix" values="0 0 0 0 0.970833 0 0 0 0 0.985417 0 0 0 0 1 0 0 0 1 0"/>
<feBlend mode="normal" in2="effect1_dropShadow_5129_22241" result="effect2_dropShadow_5129_22241"/>
<feBlend mode="normal" in="SourceGraphic" in2="effect2_dropShadow_5129_22241" result="shape"/>
</filter>
<radialGradient id="paint0_radial_5129_22241" cx="0" cy="0" r="1" gradientUnits="userSpaceOnUse" gradientTransform="translate(15.781 19.4446) rotate(41.8236) scale(259.233 412.276)">
<stop stop-color="#D8D8D8" stop-opacity="0"/>
<stop offset="1" stop-color="#D8D8D8"/>
</radialGradient>
<radialGradient id="paint1_radial_5129_22241" cx="0" cy="0" r="1" gradientUnits="userSpaceOnUse" gradientTransform="translate(16.7238 191.404) rotate(-41.8131) scale(257.925 409.752)">
<stop stop-color="#D8D8D8" stop-opacity="0"/>
<stop offset="1" stop-color="#D8D8D8"/>
</radialGradient>
<linearGradient id="paint2_linear_5129_22241" x1="17.6667" y1="18.9909" x2="240.237" y2="129.014" gradientUnits="userSpaceOnUse">
<stop stop-color="white" stop-opacity="0.9"/>
<stop offset="1" stop-color="white" stop-opacity="0"/>
</linearGradient>
</defs>
</svg>
