<svg width="222" height="254" viewBox="0 0 222 254" fill="none" xmlns="http://www.w3.org/2000/svg">
<g filter="url(#filter0_dd_5129_22210)">
<path d="M190 14H34C22.9543 14 14 22.9543 14 34V222C14 233.046 22.9543 242 34 242H190C201.046 242 210 233.046 210 222V34C210 22.9543 201.046 14 190 14Z" fill="#EDF2F7"/>
<path d="M129.06 108.123C116.323 108.123 105.998 97.7979 105.998 85.0614C105.998 72.3249 116.323 62 129.06 62C141.796 62 152.121 72.3249 152.121 85.0614C152.121 97.7979 141.796 108.123 129.06 108.123Z" fill="#B4AA99"/>
<path d="M149.714 107.024C147.149 105.205 146.093 102.37 145.78 100.473C145.709 100.04 145.193 99.7969 144.84 100.057L139.303 104.136C138.969 104.383 139.027 104.899 139.409 105.063C144.36 107.184 147.699 107.8 149.529 107.848C150.021 107.861 150.116 107.309 149.714 107.024Z" fill="#867B65"/>
<path d="M147.256 86.6713C147.023 70.0657 135.389 63.4857 129.602 62.2715C147.986 63.3162 152.582 80.4855 151.925 86.6713C151.925 99.6617 136.581 107.703 130.623 108.666C142.529 106.356 146.672 93.0405 147.256 86.6713Z" fill="#867B65"/>
<path d="M95.0614 121.123C107.798 121.123 118.123 110.798 118.123 98.0614C118.123 85.3249 107.798 75 95.0614 75C82.3249 75 72 85.3249 72 98.0614C72 110.798 82.3249 121.123 95.0614 121.123Z" fill="#B4AA99"/>
<path d="M74.6769 120.583C77.2419 118.764 78.2982 115.929 78.6103 114.032C78.6814 113.599 79.1981 113.356 79.5509 113.616L85.0873 117.695C85.422 117.942 85.3638 118.458 84.9816 118.622C80.0311 120.743 76.6921 121.359 74.8621 121.407C74.3693 121.42 74.2748 120.868 74.6769 120.583Z" fill="#B4AA99"/>
<path d="M88.0117 103H82.9258V94.4336H88.0117V96.291H85.2402V97.6387H87.8066V99.4961H85.2402V101.113H88.0117V103ZM97.668 103H94.6328L91.5039 96.9648H91.4512C91.4707 97.1484 91.4883 97.3691 91.5039 97.627C91.5195 97.8848 91.5332 98.1484 91.5449 98.418C91.5566 98.6836 91.5625 98.9238 91.5625 99.1387V103H89.5117V94.4336H92.5352L95.6523 100.387H95.6875C95.6758 100.199 95.6641 99.9824 95.6523 99.7363C95.6406 99.4863 95.6289 99.2344 95.6172 98.9805C95.6094 98.7266 95.6055 98.502 95.6055 98.3066V94.4336H97.668V103ZM102.959 97.9844H106.656V102.602C106.215 102.754 105.709 102.879 105.139 102.977C104.568 103.07 103.971 103.117 103.346 103.117C102.521 103.117 101.799 102.957 101.178 102.637C100.557 102.316 100.072 101.83 99.7246 101.178C99.377 100.521 99.2031 99.6934 99.2031 98.6934C99.2031 97.7949 99.375 97.0195 99.7188 96.3672C100.062 95.7109 100.568 95.2051 101.236 94.8496C101.908 94.4902 102.73 94.3105 103.703 94.3105C104.238 94.3105 104.746 94.3613 105.227 94.4629C105.707 94.5645 106.125 94.6934 106.48 94.8496L105.748 96.666C105.439 96.5137 105.119 96.4004 104.787 96.3262C104.455 96.248 104.098 96.209 103.715 96.209C103.203 96.209 102.791 96.3242 102.479 96.5547C102.17 96.7852 101.945 97.0938 101.805 97.4805C101.664 97.8633 101.594 98.2871 101.594 98.752C101.594 99.2832 101.668 99.7324 101.816 100.1C101.969 100.463 102.189 100.74 102.479 100.932C102.771 101.119 103.125 101.213 103.539 101.213C103.676 101.213 103.842 101.203 104.037 101.184C104.236 101.164 104.387 101.141 104.488 101.113V99.7715H102.959V97.9844Z" fill="#FFCF54"/>
<path d="M113.936 99.3998C113.702 82.7942 102.069 76.2143 96.2812 75C114.665 76.0447 119.261 93.214 118.605 99.3998C118.605 112.39 103.26 120.432 97.3027 121.394C109.208 119.085 113.352 105.769 113.936 99.3998Z" fill="#867B66"/>
<path d="M120.804 84.4479C120.804 83.7871 120.997 83.3227 121.384 83.0547C121.777 82.7867 122.247 82.6526 122.796 82.6526C123.313 82.6526 123.762 82.7867 124.142 83.0547C124.522 83.3227 124.712 83.7871 124.712 84.4479C124.712 85.0774 124.522 85.5325 124.142 85.813C123.762 86.0935 123.313 86.2338 122.796 86.2338C122.247 86.2338 121.777 86.0935 121.384 85.813C120.997 85.5325 120.804 85.0774 120.804 84.4479ZM126.339 84.4479C126.339 83.7871 126.533 83.3227 126.919 83.0547C127.312 82.7867 127.782 82.6526 128.331 82.6526C128.848 82.6526 129.297 82.7867 129.677 83.0547C130.058 83.3227 130.248 83.7871 130.248 84.4479C130.248 85.0774 130.058 85.5325 129.677 85.813C129.297 86.0935 128.848 86.2338 128.331 86.2338C127.782 86.2338 127.312 86.0935 126.919 85.813C126.533 85.5325 126.339 85.0774 126.339 84.4479ZM131.875 84.4479C131.875 83.7871 132.068 83.3227 132.454 83.0547C132.847 82.7867 133.318 82.6526 133.866 82.6526C134.384 82.6526 134.833 82.7867 135.213 83.0547C135.593 83.3227 135.783 83.7871 135.783 84.4479C135.783 85.0774 135.593 85.5325 135.213 85.813C134.833 86.0935 134.384 86.2338 133.866 86.2338C133.318 86.2338 132.847 86.0935 132.454 85.813C132.068 85.5325 131.875 85.0774 131.875 84.4479Z" fill="#FFCF54"/>
<path d="M47.0117 174V160.909H52.4705C53.4506 160.909 54.2709 161.048 54.9314 161.325C55.5962 161.602 56.0948 161.989 56.4272 162.488C56.7638 162.987 56.9321 163.564 56.9321 164.22C56.9321 164.719 56.8277 165.164 56.6189 165.556C56.4101 165.944 56.1225 166.266 55.756 166.521C55.3895 166.777 54.9655 166.956 54.484 167.058V167.186C55.0124 167.212 55.5003 167.354 55.9478 167.614C56.3995 167.874 56.7617 168.237 57.0344 168.701C57.3071 169.161 57.4435 169.707 57.4435 170.337C57.4435 171.04 57.2645 171.669 56.9066 172.223C56.5486 172.773 56.0309 173.207 55.3533 173.527C54.6757 173.842 53.8533 174 52.886 174H47.0117ZM50.1757 171.45H52.1317C52.8178 171.45 53.3228 171.32 53.6466 171.06C53.9747 170.8 54.1388 170.438 54.1388 169.973C54.1388 169.636 54.06 169.347 53.9023 169.104C53.7446 168.857 53.5209 168.667 53.2311 168.535C52.9414 168.398 52.5941 168.33 52.1892 168.33H50.1757V171.45ZM50.1757 166.291H51.9272C52.2723 166.291 52.5791 166.234 52.8476 166.119C53.1161 166.004 53.3249 165.837 53.474 165.62C53.6274 165.403 53.7041 165.141 53.7041 164.834C53.7041 164.395 53.5486 164.05 53.2375 163.798C52.9264 163.547 52.5067 163.421 51.9783 163.421H50.1757V166.291ZM61.7326 174.166C61.1061 174.166 60.55 174.062 60.0642 173.853C59.5827 173.64 59.2013 173.32 58.9201 172.894C58.6431 172.464 58.5046 171.925 58.5046 171.277C58.5046 170.732 58.6005 170.271 58.7922 169.896C58.984 169.521 59.2482 169.217 59.5848 168.982C59.9215 168.748 60.3093 168.571 60.7482 168.452C61.1871 168.328 61.6559 168.245 62.1544 168.202C62.7127 168.151 63.1622 168.098 63.5032 168.043C63.8441 167.983 64.0912 167.9 64.2446 167.793C64.4023 167.683 64.4811 167.527 64.4811 167.327V167.295C64.4811 166.967 64.3682 166.713 64.1424 166.534C63.9165 166.355 63.6118 166.266 63.2283 166.266C62.8149 166.266 62.4826 166.355 62.2311 166.534C61.9797 166.713 61.8199 166.96 61.7517 167.276L58.8689 167.173C58.9541 166.577 59.1736 166.044 59.5273 165.575C59.8853 165.102 60.3753 164.732 60.9975 164.463C61.6239 164.19 62.376 164.054 63.2539 164.054C63.8803 164.054 64.4577 164.129 64.9861 164.278C65.5145 164.423 65.9747 164.636 66.3668 164.917C66.7588 165.194 67.0614 165.535 67.2745 165.94C67.4918 166.344 67.6005 166.807 67.6005 167.327V174H64.6601V172.632H64.5834C64.4087 172.964 64.185 173.246 63.9122 173.476C63.6438 173.706 63.3263 173.879 62.9598 173.994C62.5976 174.109 62.1885 174.166 61.7326 174.166ZM62.6978 172.121C63.0344 172.121 63.337 172.053 63.6054 171.916C63.8782 171.78 64.0955 171.592 64.2574 171.354C64.4193 171.111 64.5003 170.83 64.5003 170.51V169.577C64.4108 169.624 64.3022 169.666 64.1743 169.705C64.0507 169.743 63.9144 169.779 63.7652 169.813C63.6161 169.847 63.4627 169.877 63.305 169.903C63.1473 169.928 62.996 169.952 62.8512 169.973C62.5571 170.02 62.3057 170.092 62.0969 170.19C61.8924 170.288 61.7347 170.416 61.6239 170.574C61.5174 170.727 61.4641 170.911 61.4641 171.124C61.4641 171.447 61.5791 171.695 61.8093 171.865C62.0436 172.036 62.3398 172.121 62.6978 172.121ZM72.6374 168.401V174H69.5117V160.909H72.5351V165.984H72.6438C72.8654 165.379 73.2276 164.906 73.7304 164.565C74.2375 164.224 74.8576 164.054 75.5905 164.054C76.2809 164.054 76.8817 164.207 77.3931 164.514C77.9044 164.817 78.3007 165.245 78.582 165.799C78.8675 166.353 79.0081 167.001 79.0039 167.742V174H75.8782V168.356C75.8824 167.81 75.7461 167.384 75.4691 167.077C75.1921 166.771 74.8022 166.617 74.2993 166.617C73.9712 166.617 73.6814 166.69 73.43 166.835C73.1828 166.975 72.9889 167.178 72.8483 167.442C72.712 167.706 72.6416 168.026 72.6374 168.401ZM83.7228 174.166C83.0964 174.166 82.5403 174.062 82.0545 173.853C81.5729 173.64 81.1915 173.32 80.9103 172.894C80.6333 172.464 80.4948 171.925 80.4948 171.277C80.4948 170.732 80.5907 170.271 80.7824 169.896C80.9742 169.521 81.2384 169.217 81.5751 168.982C81.9117 168.748 82.2995 168.571 82.7384 168.452C83.1773 168.328 83.6461 168.245 84.1447 168.202C84.7029 168.151 85.1525 168.098 85.4934 168.043C85.8343 167.983 86.0815 167.9 86.2349 167.793C86.3925 167.683 86.4714 167.527 86.4714 167.327V167.295C86.4714 166.967 86.3584 166.713 86.1326 166.534C85.9067 166.355 85.6021 166.266 85.2185 166.266C84.8052 166.266 84.4728 166.355 84.2214 166.534C83.9699 166.713 83.8101 166.96 83.742 167.276L80.8592 167.173C80.9444 166.577 81.1638 166.044 81.5175 165.575C81.8755 165.102 82.3655 164.732 82.9877 164.463C83.6141 164.19 84.3663 164.054 85.2441 164.054C85.8705 164.054 86.4479 164.129 86.9763 164.278C87.5048 164.423 87.965 164.636 88.357 164.917C88.7491 165.194 89.0516 165.535 89.2647 165.94C89.482 166.344 89.5907 166.807 89.5907 167.327V174H86.6503V172.632H86.5736C86.3989 172.964 86.1752 173.246 85.9025 173.476C85.634 173.706 85.3165 173.879 84.9501 173.994C84.5878 174.109 84.1788 174.166 83.7228 174.166ZM84.688 172.121C85.0246 172.121 85.3272 172.053 85.5957 171.916C85.8684 171.78 86.0857 171.592 86.2476 171.354C86.4096 171.111 86.4905 170.83 86.4905 170.51V169.577C86.4011 169.624 86.2924 169.666 86.1646 169.705C86.041 169.743 85.9046 169.779 85.7555 169.813C85.6063 169.847 85.4529 169.877 85.2952 169.903C85.1376 169.928 84.9863 169.952 84.8414 169.973C84.5474 170.02 84.2959 170.092 84.0871 170.19C83.8826 170.288 83.7249 170.416 83.6141 170.574C83.5076 170.727 83.4543 170.911 83.4543 171.124C83.4543 171.447 83.5694 171.695 83.7995 171.865C84.0339 172.036 84.33 172.121 84.688 172.121ZM100.073 167.18L97.2036 167.256C97.1738 167.052 97.0928 166.871 96.9607 166.713C96.8286 166.551 96.656 166.425 96.443 166.336C96.2342 166.242 95.9913 166.195 95.7143 166.195C95.3521 166.195 95.0431 166.268 94.7874 166.413C94.536 166.558 94.4124 166.754 94.4167 167.001C94.4124 167.192 94.4891 167.359 94.6468 167.499C94.8087 167.64 95.0964 167.753 95.5097 167.838L97.4018 168.196C98.3819 168.384 99.1106 168.695 99.5878 169.129C100.069 169.564 100.312 170.139 100.316 170.855C100.312 171.528 100.112 172.114 99.7157 172.613C99.3236 173.112 98.7867 173.499 98.1049 173.776C97.4231 174.049 96.6432 174.185 95.7654 174.185C94.3634 174.185 93.2576 173.898 92.4479 173.322C91.6425 172.743 91.1823 171.967 91.0673 170.996L94.1546 170.919C94.2228 171.277 94.3996 171.55 94.6851 171.737C94.9707 171.925 95.335 172.018 95.7782 172.018C96.1788 172.018 96.5048 171.944 96.7562 171.795C97.0076 171.646 97.1354 171.447 97.1397 171.2C97.1354 170.979 97.0374 170.802 96.8457 170.67C96.6539 170.533 96.3535 170.427 95.9444 170.35L94.2313 170.024C93.2469 169.845 92.514 169.515 92.0324 169.033C91.5509 168.548 91.3123 167.93 91.3165 167.18C91.3123 166.523 91.487 165.963 91.8407 165.499C92.1944 165.03 92.6972 164.672 93.3492 164.425C94.0012 164.178 94.7704 164.054 95.6567 164.054C96.9863 164.054 98.0346 164.333 98.8016 164.891C99.5687 165.445 99.9927 166.208 100.073 167.18ZM104.623 174.166C103.996 174.166 103.44 174.062 102.954 173.853C102.473 173.64 102.092 173.32 101.81 172.894C101.533 172.464 101.395 171.925 101.395 171.277C101.395 170.732 101.491 170.271 101.682 169.896C101.874 169.521 102.138 169.217 102.475 168.982C102.812 168.748 103.199 168.571 103.638 168.452C104.077 168.328 104.546 168.245 105.045 168.202C105.603 168.151 106.052 168.098 106.393 168.043C106.734 167.983 106.981 167.9 107.135 167.793C107.293 167.683 107.371 167.527 107.371 167.327V167.295C107.371 166.967 107.258 166.713 107.033 166.534C106.807 166.355 106.502 166.266 106.119 166.266C105.705 166.266 105.373 166.355 105.121 166.534C104.87 166.713 104.71 166.96 104.642 167.276L101.759 167.173C101.844 166.577 102.064 166.044 102.418 165.575C102.775 165.102 103.266 164.732 103.888 164.463C104.514 164.19 105.266 164.054 106.144 164.054C106.771 164.054 107.348 164.129 107.876 164.278C108.405 164.423 108.865 164.636 109.257 164.917C109.649 165.194 109.952 165.535 110.165 165.94C110.382 166.344 110.491 166.807 110.491 167.327V174H107.55V172.632H107.474C107.299 172.964 107.075 173.246 106.802 173.476C106.534 173.706 106.217 173.879 105.85 173.994C105.488 174.109 105.079 174.166 104.623 174.166ZM105.588 172.121C105.925 172.121 106.227 172.053 106.496 171.916C106.768 171.78 106.986 171.592 107.148 171.354C107.31 171.111 107.391 170.83 107.391 170.51V169.577C107.301 169.624 107.192 169.666 107.065 169.705C106.941 169.743 106.805 169.779 106.655 169.813C106.506 169.847 106.353 169.877 106.195 169.903C106.038 169.928 105.886 169.952 105.741 169.973C105.447 170.02 105.196 170.092 104.987 170.19C104.783 170.288 104.625 170.416 104.514 170.574C104.408 170.727 104.354 170.911 104.354 171.124C104.354 171.447 104.469 171.695 104.699 171.865C104.934 172.036 105.23 172.121 105.588 172.121ZM119.433 160.909V174H116.269V160.909H119.433ZM124.545 168.401V174H121.419V164.182H124.392V165.984H124.5C124.718 165.384 125.089 164.913 125.613 164.572C126.137 164.227 126.761 164.054 127.486 164.054C128.176 164.054 128.775 164.21 129.282 164.521C129.793 164.827 130.189 165.258 130.471 165.812C130.756 166.362 130.897 167.005 130.892 167.742V174H127.767V168.356C127.771 167.81 127.633 167.384 127.351 167.077C127.074 166.771 126.689 166.617 126.194 166.617C125.866 166.617 125.576 166.69 125.325 166.835C125.078 166.975 124.886 167.178 124.75 167.442C124.618 167.706 124.549 168.026 124.545 168.401ZM137.404 177.886C136.471 177.886 135.672 177.756 135.007 177.496C134.343 177.237 133.821 176.881 133.441 176.429C133.062 175.977 132.834 175.466 132.757 174.895L135.717 174.729C135.772 174.929 135.875 175.104 136.024 175.253C136.177 175.402 136.375 175.517 136.618 175.598C136.865 175.679 137.155 175.719 137.487 175.719C138.012 175.719 138.444 175.592 138.785 175.336C139.13 175.085 139.303 174.643 139.303 174.013V172.287H139.194C139.071 172.589 138.883 172.86 138.632 173.099C138.38 173.337 138.067 173.525 137.692 173.661C137.321 173.798 136.895 173.866 136.414 173.866C135.698 173.866 135.041 173.7 134.445 173.367C133.853 173.031 133.377 172.511 133.019 171.808C132.666 171.1 132.489 170.19 132.489 169.078C132.489 167.932 132.672 166.988 133.039 166.246C133.405 165.501 133.884 164.949 134.477 164.591C135.073 164.233 135.715 164.054 136.401 164.054C136.916 164.054 137.358 164.143 137.724 164.322C138.095 164.497 138.399 164.723 138.638 165C138.877 165.277 139.058 165.565 139.181 165.863H139.271V164.182H142.384V174.038C142.384 174.869 142.175 175.57 141.757 176.141C141.34 176.712 140.756 177.145 140.006 177.439C139.256 177.737 138.389 177.886 137.404 177.886ZM137.5 171.59C137.88 171.59 138.203 171.49 138.472 171.29C138.74 171.089 138.947 170.802 139.092 170.427C139.237 170.052 139.309 169.602 139.309 169.078C139.309 168.545 139.237 168.087 139.092 167.704C138.951 167.316 138.745 167.018 138.472 166.809C138.203 166.6 137.88 166.496 137.5 166.496C137.112 166.496 136.784 166.602 136.516 166.815C136.247 167.028 136.043 167.329 135.902 167.717C135.766 168.1 135.698 168.554 135.698 169.078C135.698 169.602 135.768 170.052 135.909 170.427C136.049 170.802 136.252 171.089 136.516 171.29C136.784 171.49 137.112 171.59 137.5 171.59ZM148.953 177.886C148.02 177.886 147.221 177.756 146.556 177.496C145.891 177.237 145.369 176.881 144.99 176.429C144.611 175.977 144.383 175.466 144.306 174.895L147.266 174.729C147.321 174.929 147.423 175.104 147.573 175.253C147.726 175.402 147.924 175.517 148.167 175.598C148.414 175.679 148.704 175.719 149.036 175.719C149.56 175.719 149.993 175.592 150.334 175.336C150.679 175.085 150.852 174.643 150.852 174.013V172.287H150.743C150.619 172.589 150.432 172.86 150.18 173.099C149.929 173.337 149.616 173.525 149.241 173.661C148.87 173.798 148.444 173.866 147.962 173.866C147.247 173.866 146.59 173.7 145.994 173.367C145.401 173.031 144.926 172.511 144.568 171.808C144.215 171.1 144.038 170.19 144.038 169.078C144.038 167.932 144.221 166.988 144.587 166.246C144.954 165.501 145.433 164.949 146.026 164.591C146.622 164.233 147.264 164.054 147.95 164.054C148.465 164.054 148.906 164.143 149.273 164.322C149.644 164.497 149.948 164.723 150.187 165C150.426 165.277 150.607 165.565 150.73 165.863H150.82V164.182H153.933V174.038C153.933 174.869 153.724 175.57 153.306 176.141C152.889 176.712 152.305 177.145 151.555 177.439C150.805 177.737 149.938 177.886 148.953 177.886ZM149.049 171.59C149.428 171.59 149.752 171.49 150.021 171.29C150.289 171.089 150.496 170.802 150.641 170.427C150.786 170.052 150.858 169.602 150.858 169.078C150.858 168.545 150.786 168.087 150.641 167.704C150.5 167.316 150.293 167.018 150.021 166.809C149.752 166.6 149.428 166.496 149.049 166.496C148.661 166.496 148.333 166.602 148.065 166.815C147.796 167.028 147.592 167.329 147.451 167.717C147.315 168.1 147.247 168.554 147.247 169.078C147.247 169.602 147.317 170.052 147.457 170.427C147.598 170.802 147.801 171.089 148.065 171.29C148.333 171.49 148.661 171.59 149.049 171.59ZM155.925 174V164.182H158.962V165.972H159.064C159.243 165.324 159.535 164.842 159.94 164.527C160.344 164.207 160.815 164.048 161.352 164.048C161.497 164.048 161.646 164.058 161.8 164.08C161.953 164.097 162.096 164.124 162.228 164.163V166.879C162.079 166.828 161.883 166.788 161.64 166.758C161.401 166.728 161.188 166.713 161.001 166.713C160.63 166.713 160.295 166.796 159.997 166.962C159.703 167.124 159.471 167.352 159.3 167.646C159.134 167.936 159.051 168.277 159.051 168.669V174H155.925ZM163.502 174V164.182H166.627V174H163.502ZM165.068 163.038C164.629 163.038 164.252 162.893 163.936 162.603C163.621 162.309 163.463 161.955 163.463 161.542C163.463 161.133 163.621 160.783 163.936 160.494C164.252 160.2 164.629 160.053 165.068 160.053C165.511 160.053 165.888 160.2 166.199 160.494C166.514 160.783 166.672 161.133 166.672 161.542C166.672 161.955 166.514 162.309 166.199 162.603C165.888 162.893 165.511 163.038 165.068 163.038ZM177.188 167.18L174.318 167.256C174.289 167.052 174.208 166.871 174.076 166.713C173.943 166.551 173.771 166.425 173.558 166.336C173.349 166.242 173.106 166.195 172.829 166.195C172.467 166.195 172.158 166.268 171.902 166.413C171.651 166.558 171.527 166.754 171.532 167.001C171.527 167.192 171.604 167.359 171.762 167.499C171.924 167.64 172.211 167.753 172.625 167.838L174.517 168.196C175.497 168.384 176.225 168.695 176.703 169.129C177.184 169.564 177.427 170.139 177.431 170.855C177.427 171.528 177.227 172.114 176.831 172.613C176.438 173.112 175.902 173.499 175.22 173.776C174.538 174.049 173.758 174.185 172.88 174.185C171.478 174.185 170.372 173.898 169.563 173.322C168.757 172.743 168.297 171.967 168.182 170.996L171.269 170.919C171.338 171.277 171.514 171.55 171.8 171.737C172.085 171.925 172.45 172.018 172.893 172.018C173.294 172.018 173.62 171.944 173.871 171.795C174.122 171.646 174.25 171.447 174.255 171.2C174.25 170.979 174.152 170.802 173.96 170.67C173.769 170.533 173.468 170.427 173.059 170.35L171.346 170.024C170.362 169.845 169.629 169.515 169.147 169.033C168.666 168.548 168.427 167.93 168.431 167.18C168.427 166.523 168.602 165.963 168.956 165.499C169.309 165.03 169.812 164.672 170.464 164.425C171.116 164.178 171.885 164.054 172.772 164.054C174.101 164.054 175.149 164.333 175.916 164.891C176.684 165.445 177.108 166.208 177.188 167.18ZM91.744 205H86.9052V191.909H91.7376C93.0714 191.909 94.2199 192.171 95.1829 192.695C96.1503 193.215 96.896 193.965 97.4201 194.945C97.9443 195.921 98.2064 197.089 98.2064 198.448C98.2064 199.812 97.9443 200.984 97.4201 201.964C96.9003 202.944 96.1566 203.696 95.1893 204.22C94.222 204.74 93.0736 205 91.744 205ZM90.0693 202.303H91.6226C92.3555 202.303 92.9755 202.179 93.4826 201.932C93.994 201.68 94.3797 201.273 94.6396 200.711C94.9038 200.144 95.0359 199.39 95.0359 198.448C95.0359 197.506 94.9038 196.756 94.6396 196.198C94.3754 195.636 93.9855 195.231 93.4699 194.984C92.9585 194.732 92.3278 194.607 91.5778 194.607H90.0693V202.303ZM102.821 205.166C102.195 205.166 101.638 205.062 101.153 204.853C100.671 204.64 100.29 204.32 100.009 203.894C99.7319 203.464 99.5934 202.925 99.5934 202.277C99.5934 201.732 99.6893 201.271 99.8811 200.896C100.072 200.521 100.337 200.217 100.673 199.982C101.01 199.748 101.398 199.571 101.837 199.452C102.276 199.328 102.744 199.245 103.243 199.202C103.801 199.151 104.251 199.098 104.592 199.043C104.933 198.983 105.18 198.9 105.333 198.793C105.491 198.683 105.57 198.527 105.57 198.327V198.295C105.57 197.967 105.457 197.713 105.231 197.534C105.005 197.355 104.7 197.266 104.317 197.266C103.903 197.266 103.571 197.355 103.32 197.534C103.068 197.713 102.908 197.96 102.84 198.276L99.9578 198.173C100.043 197.577 100.262 197.044 100.616 196.575C100.974 196.102 101.464 195.732 102.086 195.463C102.712 195.19 103.464 195.054 104.342 195.054C104.969 195.054 105.546 195.129 106.075 195.278C106.603 195.423 107.063 195.636 107.455 195.917C107.847 196.194 108.15 196.535 108.363 196.94C108.58 197.344 108.689 197.807 108.689 198.327V205H105.749V203.632H105.672C105.497 203.964 105.273 204.246 105.001 204.476C104.732 204.706 104.415 204.879 104.048 204.994C103.686 205.109 103.277 205.166 102.821 205.166ZM103.786 203.121C104.123 203.121 104.425 203.053 104.694 202.916C104.967 202.78 105.184 202.592 105.346 202.354C105.508 202.111 105.589 201.83 105.589 201.51V200.577C105.499 200.624 105.391 200.666 105.263 200.705C105.139 200.743 105.003 200.779 104.854 200.813C104.705 200.847 104.551 200.877 104.393 200.903C104.236 200.928 104.085 200.952 103.94 200.973C103.646 201.02 103.394 201.092 103.185 201.19C102.981 201.288 102.823 201.416 102.712 201.574C102.606 201.727 102.553 201.911 102.553 202.124C102.553 202.447 102.668 202.695 102.898 202.865C103.132 203.036 103.428 203.121 103.786 203.121ZM119.172 198.18L116.302 198.256C116.272 198.052 116.191 197.871 116.059 197.713C115.927 197.551 115.754 197.425 115.541 197.336C115.332 197.242 115.089 197.195 114.812 197.195C114.45 197.195 114.141 197.268 113.886 197.413C113.634 197.558 113.511 197.754 113.515 198.001C113.511 198.192 113.587 198.359 113.745 198.499C113.907 198.64 114.195 198.753 114.608 198.838L116.5 199.196C117.48 199.384 118.209 199.695 118.686 200.129C119.168 200.564 119.411 201.139 119.415 201.855C119.411 202.528 119.21 203.114 118.814 203.613C118.422 204.112 117.885 204.499 117.203 204.776C116.521 205.049 115.741 205.185 114.864 205.185C113.462 205.185 112.356 204.898 111.546 204.322C110.741 203.743 110.281 202.967 110.165 201.996L113.253 201.919C113.321 202.277 113.498 202.55 113.783 202.737C114.069 202.925 114.433 203.018 114.876 203.018C115.277 203.018 115.603 202.944 115.854 202.795C116.106 202.646 116.234 202.447 116.238 202.2C116.234 201.979 116.136 201.802 115.944 201.67C115.752 201.533 115.452 201.427 115.043 201.35L113.33 201.024C112.345 200.845 111.612 200.515 111.131 200.033C110.649 199.548 110.411 198.93 110.415 198.18C110.411 197.523 110.585 196.963 110.939 196.499C111.293 196.03 111.795 195.672 112.447 195.425C113.099 195.178 113.869 195.054 114.755 195.054C116.085 195.054 117.133 195.333 117.9 195.891C118.667 196.445 119.091 197.208 119.172 198.18ZM123.721 205.166C123.095 205.166 122.539 205.062 122.053 204.853C121.572 204.64 121.19 204.32 120.909 203.894C120.632 203.464 120.493 202.925 120.493 202.277C120.493 201.732 120.589 201.271 120.781 200.896C120.973 200.521 121.237 200.217 121.574 199.982C121.91 199.748 122.298 199.571 122.737 199.452C123.176 199.328 123.645 199.245 124.143 199.202C124.702 199.151 125.151 199.098 125.492 199.043C125.833 198.983 126.08 198.9 126.233 198.793C126.391 198.683 126.47 198.527 126.47 198.327V198.295C126.47 197.967 126.357 197.713 126.131 197.534C125.905 197.355 125.601 197.266 125.217 197.266C124.804 197.266 124.471 197.355 124.22 197.534C123.969 197.713 123.809 197.96 123.741 198.276L120.858 198.173C120.943 197.577 121.162 197.044 121.516 196.575C121.874 196.102 122.364 195.732 122.986 195.463C123.613 195.19 124.365 195.054 125.243 195.054C125.869 195.054 126.447 195.129 126.975 195.278C127.503 195.423 127.964 195.636 128.356 195.917C128.748 196.194 129.05 196.535 129.263 196.94C129.481 197.344 129.589 197.807 129.589 198.327V205H126.649V203.632H126.572C126.398 203.964 126.174 204.246 125.901 204.476C125.633 204.706 125.315 204.879 124.949 204.994C124.586 205.109 124.177 205.166 123.721 205.166ZM124.687 203.121C125.023 203.121 125.326 203.053 125.594 202.916C125.867 202.78 126.084 202.592 126.246 202.354C126.408 202.111 126.489 201.83 126.489 201.51V200.577C126.4 200.624 126.291 200.666 126.163 200.705C126.04 200.743 125.903 200.779 125.754 200.813C125.605 200.847 125.452 200.877 125.294 200.903C125.136 200.928 124.985 200.952 124.84 200.973C124.546 201.02 124.295 201.092 124.086 201.19C123.881 201.288 123.724 201.416 123.613 201.574C123.506 201.727 123.453 201.911 123.453 202.124C123.453 202.447 123.568 202.695 123.798 202.865C124.032 203.036 124.329 203.121 124.687 203.121ZM131.501 205V195.182H134.537V196.972H134.639C134.818 196.324 135.11 195.842 135.515 195.527C135.92 195.207 136.39 195.048 136.927 195.048C137.072 195.048 137.221 195.058 137.375 195.08C137.528 195.097 137.671 195.124 137.803 195.163V197.879C137.654 197.828 137.458 197.788 137.215 197.758C136.976 197.728 136.763 197.713 136.576 197.713C136.205 197.713 135.871 197.796 135.572 197.962C135.278 198.124 135.046 198.352 134.876 198.646C134.709 198.936 134.626 199.277 134.626 199.669V205H131.501Z" fill="#4A5568"/>
<path d="M190 15H34C23.5066 15 15 23.5066 15 34V222C15 232.493 23.5066 241 34 241H190C200.493 241 209 232.493 209 222V34C209 23.5066 200.493 15 190 15Z" stroke="url(#paint0_radial_5129_22210)" stroke-width="2"/>
<path d="M190 15H34C23.5066 15 15 23.5066 15 34V222C15 232.493 23.5066 241 34 241H190C200.493 241 209 232.493 209 222V34C209 23.5066 200.493 15 190 15Z" stroke="url(#paint1_radial_5129_22210)" stroke-width="2"/>
<path d="M190 15H34C23.5066 15 15 23.5066 15 34V222C15 232.493 23.5066 241 34 241H190C200.493 241 209 232.493 209 222V34C209 23.5066 200.493 15 190 15Z" stroke="url(#paint2_linear_5129_22210)" stroke-width="2"/>
<path d="M190 15H34C23.5066 15 15 23.5066 15 34V222C15 232.493 23.5066 241 34 241H190C200.493 241 209 232.493 209 222V34C209 23.5066 200.493 15 190 15Z" stroke="#C1BABA" stroke-opacity="0.2" stroke-width="2"/>
</g>
<defs>
<filter id="filter0_dd_5129_22210" x="0.8997" y="0.8997" width="220.236" height="252.563" filterUnits="userSpaceOnUse" color-interpolation-filters="sRGB">
<feFlood flood-opacity="0" result="BackgroundImageFix"/>
<feColorMatrix in="SourceAlpha" type="matrix" values="0 0 0 0 0 0 0 0 0 0 0 0 0 0 0 0 0 0 127 0" result="hardAlpha"/>
<feOffset dx="4.2576" dy="4.58511"/>
<feGaussianBlur stdDeviation="3.43883"/>
<feColorMatrix type="matrix" values="0 0 0 0 0 0 0 0 0 0 0 0 0 0 0 0 0 0 0.1 0"/>
<feBlend mode="normal" in2="BackgroundImageFix" result="effect1_dropShadow_5129_22210"/>
<feColorMatrix in="SourceAlpha" type="matrix" values="0 0 0 0 0 0 0 0 0 0 0 0 0 0 0 0 0 0 127 0" result="hardAlpha"/>
<feOffset dx="-3.27508" dy="-3.27508"/>
<feGaussianBlur stdDeviation="4.91261"/>
<feColorMatrix type="matrix" values="0 0 0 0 0.970833 0 0 0 0 0.985417 0 0 0 0 1 0 0 0 1 0"/>
<feBlend mode="normal" in2="effect1_dropShadow_5129_22210" result="effect2_dropShadow_5129_22210"/>
<feBlend mode="normal" in="SourceGraphic" in2="effect2_dropShadow_5129_22210" result="shape"/>
</filter>
<radialGradient id="paint0_radial_5129_22210" cx="0" cy="0" r="1" gradientUnits="userSpaceOnUse" gradientTransform="translate(15.763 20.7835) rotate(48.3984) scale(288.02 457.648)">
<stop stop-color="#D8D8D8" stop-opacity="0"/>
<stop offset="1" stop-color="#D8D8D8"/>
</radialGradient>
<radialGradient id="paint1_radial_5129_22210" cx="0" cy="0" r="1" gradientUnits="userSpaceOnUse" gradientTransform="translate(16.6963 235.028) rotate(-48.3879) scale(286.554 454.866)">
<stop stop-color="#D8D8D8" stop-opacity="0"/>
<stop offset="1" stop-color="#D8D8D8"/>
</radialGradient>
<linearGradient id="paint2_linear_5129_22210" x1="17.6296" y1="20.2182" x2="255.15" y2="113.506" gradientUnits="userSpaceOnUse">
<stop stop-color="white" stop-opacity="0.9"/>
<stop offset="1" stop-color="white" stop-opacity="0"/>
</linearGradient>
</defs>
</svg>
