<svg width="85" height="85" viewBox="0 0 85 85" fill="none" xmlns="http://www.w3.org/2000/svg">
<g clip-path="url(#clip0_4467_20239)">
<path d="M61.9142 24.9219H22.7166C20.7115 24.9219 19.0859 26.5474 19.0859 28.5526V57.8533C19.0859 59.8585 20.7114 61.484 22.7166 61.484H61.9142C63.9194 61.484 65.5449 59.8585 65.5449 57.8533V28.5526C65.5449 26.5474 63.9194 24.9219 61.9142 24.9219Z" fill="#665E66"/>
<path d="M63.3771 24.9219H56.9024C55.607 45.6767 53.1783 55.0931 40.8682 61.484H63.3771C64.9812 61.484 66.2817 60.1836 66.2817 58.5795V27.8264C66.2817 26.2223 64.9812 24.9219 63.3771 24.9219Z" fill="#454045"/>
<path d="M27.2453 30.0095L27.3836 29.7294C27.5199 29.4533 27.8012 29.2786 28.1091 29.2786H51.5166C51.8551 29.2786 52.1578 29.4893 52.2753 29.8067L52.3967 30.1344C52.453 30.2865 52.4624 30.4519 52.4235 30.6094L52.3661 30.8418C52.2769 31.2031 51.9527 31.457 51.5805 31.457H28.1091C27.8012 31.457 27.5199 31.2822 27.3836 31.0061L27.2453 30.726C27.1338 30.5002 27.1338 30.2353 27.2453 30.0095Z" fill="#8D858D"/>
<path d="M27.3128 35.0383L27.4788 34.7582C27.6245 34.5123 27.8891 34.3616 28.1749 34.3616H56.5562C56.8759 34.3616 57.1657 34.5499 57.2956 34.8421L57.445 35.1782C57.5232 35.3541 57.5361 35.5522 57.4814 35.7367L57.415 35.9607C57.3132 36.3043 56.9975 36.54 56.6392 36.54H28.1749C27.8891 36.54 27.6245 36.3892 27.4788 36.1433L27.3128 35.8633C27.1621 35.6089 27.1621 35.2926 27.3128 35.0383Z" fill="#8D858D"/>
<path d="M27.1365 51.9221L27.2194 51.642C27.3212 51.2984 27.6369 51.0627 27.9953 51.0627H41.4261C41.8054 51.0627 42.1337 51.3262 42.216 51.6964L42.2848 52.0059C42.3062 52.1024 42.3098 52.2021 42.2953 52.3L42.2582 52.5506C42.1994 52.9473 41.8588 53.2412 41.4578 53.2412H27.9953C27.6369 53.2412 27.3212 53.0055 27.2194 52.6619L27.1365 52.3818C27.092 52.2318 27.092 52.0721 27.1365 51.9221Z" fill="#8D858D"/>
<path d="M56.3872 50.5347H51.5732C51.008 50.5347 50.5498 50.9929 50.5498 51.5581V63.8882C50.5498 64.6441 51.3412 65.1392 52.0209 64.8085L53.4547 64.111C53.7307 63.9767 54.0525 63.9734 54.3312 64.1021L55.96 64.8538C56.6382 65.1668 57.4124 64.6714 57.4123 63.9244L57.4106 51.558C57.4105 50.9928 56.9523 50.5347 56.3872 50.5347Z" fill="#FBC157"/>
<circle cx="53.9787" cy="46.9238" r="7.22386" fill="#FFA600"/>
<circle cx="53.9765" cy="46.9231" r="2.70895" fill="#FBC157"/>
</g>
<defs>
<clipPath id="clip0_4467_20239">
<rect width="85" height="85" rx="15.4545" fill="white"/>
</clipPath>
</defs>
</svg>
