<svg width="104" height="104" viewBox="0 0 104 104" fill="none" xmlns="http://www.w3.org/2000/svg">
<rect width="104" height="104" rx="18.0556" fill="#E0E4E8"/>
<g clip-path="url(#clip0_3935_10283)">
<path d="M71.9469 76.8386C59.1696 76.8386 46.3828 76.8386 33.6055 76.8386C33.596 76.7337 33.5292 76.686 33.4338 76.6382C32.2696 76.0657 31.6875 75.1496 31.6875 73.8328C31.697 64.3285 31.6875 54.8243 31.6875 45.3201C31.6875 44.5281 31.8974 44.3086 32.699 44.3086C46.4496 44.3086 60.2002 44.3086 73.9412 44.3086C73.9412 44.3754 73.9508 44.4326 73.9508 44.4994C73.9508 54.2804 73.9508 64.0518 73.9508 73.8328C73.9508 75.1401 73.321 76.0562 72.1473 76.6096C72.0709 76.6573 71.8419 76.6001 71.9469 76.8386ZM48.1481 55.3587C49.0642 55.3587 49.9898 55.3492 50.9059 55.3587C51.1731 55.3587 51.2685 55.2728 51.259 55.0056C51.2494 53.2307 51.2494 51.4463 51.259 49.6714C51.259 49.3852 51.1826 49.2802 50.8868 49.2897C49.0928 49.2993 47.2989 49.2993 45.5049 49.2897C45.2091 49.2897 45.1232 49.3756 45.1232 49.6714C45.1327 51.4368 45.1327 53.1926 45.1232 54.9579C45.1232 55.2633 45.1995 55.3778 45.524 55.3682C46.3923 55.3491 47.2702 55.3587 48.1481 55.3587ZM55.7725 55.3587C56.679 55.3587 57.5856 55.3491 58.4826 55.3682C58.7975 55.3778 58.8833 55.2728 58.8833 54.9579C58.8738 53.1926 58.8738 51.4368 58.8833 49.6714C58.8833 49.3852 58.7975 49.2897 58.5016 49.2897C56.7077 49.2993 54.9137 49.2993 53.1197 49.2897C52.8239 49.2897 52.738 49.3852 52.7476 49.6714C52.7571 51.4368 52.7571 53.1926 52.7476 54.9579C52.7476 55.2728 52.843 55.3682 53.1484 55.3682C54.0263 55.3491 54.9042 55.3587 55.7725 55.3587ZM37.6038 52.3242C37.6038 53.1926 37.6229 54.0705 37.5942 54.9388C37.5847 55.2824 37.6992 55.3587 38.0332 55.3587C39.7604 55.3492 41.4971 55.3492 43.2243 55.3587C43.5201 55.3587 43.6441 55.2919 43.6441 54.9675C43.6346 53.2021 43.625 51.4463 43.6441 49.681C43.6441 49.347 43.5201 49.2802 43.2243 49.2802C41.4971 49.2897 39.7604 49.2993 38.0332 49.2802C37.6515 49.2802 37.5847 49.4138 37.5942 49.7478C37.6229 50.6066 37.6038 51.4654 37.6038 52.3242ZM66.4123 52.3242C66.4123 51.4559 66.4027 50.578 66.4218 49.7096C66.4314 49.4138 66.355 49.2897 66.0306 49.2897C64.2843 49.3088 62.5381 49.2993 60.7918 49.2897C60.496 49.2897 60.372 49.3661 60.3815 49.6905C60.4006 51.4559 60.391 53.2117 60.3815 54.977C60.3815 55.2537 60.4483 55.3682 60.7536 55.3682C62.519 55.3587 64.2748 55.3587 66.0401 55.3682C66.3264 55.3682 66.4314 55.2919 66.4218 54.9961C66.4027 54.0991 66.4123 53.2117 66.4123 52.3242ZM48.1959 56.8091C47.3084 56.8091 46.4114 56.8187 45.524 56.7996C45.2091 56.7901 45.1232 56.895 45.1232 57.2099C45.1327 58.9562 45.1327 60.712 45.1232 62.4582C45.1232 62.735 45.19 62.8495 45.4954 62.8495C47.2893 62.8399 49.0928 62.8399 50.8868 62.8495C51.1826 62.8495 51.2685 62.7541 51.259 62.4678C51.2494 60.7215 51.2399 58.9657 51.259 57.2195C51.259 56.8568 51.1254 56.8091 50.8105 56.8091C49.9421 56.8282 49.0738 56.8091 48.1959 56.8091ZM55.8679 56.8091C54.9614 56.8091 54.0549 56.8187 53.1484 56.8091C52.8812 56.8091 52.7476 56.8568 52.7571 57.1717C52.7667 58.9371 52.7667 60.7024 52.7571 62.4678C52.7571 62.7541 52.843 62.8495 53.1388 62.8495C54.9328 62.8399 56.7363 62.8399 58.5303 62.8495C58.7879 62.8495 58.9024 62.7922 58.9024 62.5059C58.8929 60.7215 58.8929 58.9466 58.9024 57.1622C58.9024 56.8378 58.7688 56.8091 58.5016 56.8091C57.6142 56.8187 56.7363 56.8091 55.8679 56.8091ZM48.2149 64.3476C47.3275 64.3476 46.44 64.3572 45.5526 64.3381C45.2472 64.3285 45.1327 64.424 45.1327 64.7389C45.1423 66.4851 45.1423 68.2314 45.1327 69.9776C45.1327 70.2735 45.2377 70.3593 45.524 70.3593C47.2989 70.3498 49.0833 70.3498 50.8582 70.3593C51.1445 70.3593 51.2494 70.283 51.2494 69.9776C51.2399 68.2314 51.2399 66.4851 51.2494 64.7389C51.2494 64.424 51.1349 64.3285 50.8296 64.3381C49.9612 64.3572 49.0928 64.3476 48.2149 64.3476ZM55.8107 64.3476C54.9423 64.3476 54.0644 64.3572 53.1961 64.3476C52.9098 64.3476 52.7667 64.4049 52.7667 64.7389C52.7762 66.4851 52.7762 68.2314 52.7667 69.9776C52.7667 70.3116 52.9003 70.3689 53.1961 70.3689C54.9614 70.3593 56.7172 70.3593 58.4826 70.3689C58.7975 70.3689 58.8929 70.2639 58.8833 69.9586C58.8738 68.2314 58.8738 66.4947 58.8833 64.7675C58.8833 64.4144 58.7497 64.3476 58.4348 64.3476C57.5569 64.3572 56.6886 64.3476 55.8107 64.3476ZM40.6096 62.8399C41.4875 62.8399 42.3559 62.8304 43.2338 62.8495C43.5392 62.859 43.6441 62.7636 43.6441 62.4487C43.6346 60.7024 43.6346 58.9562 43.6441 57.2004C43.6441 56.8759 43.5201 56.8091 43.2243 56.8091C41.478 56.8187 39.7317 56.8187 37.9759 56.8091C37.6897 56.8091 37.5942 56.8855 37.5942 57.1813C37.6038 58.9466 37.6038 60.712 37.5942 62.4773C37.5942 62.7731 37.6992 62.859 37.9759 62.8495C38.8634 62.8304 39.7317 62.8399 40.6096 62.8399ZM63.3587 62.8208C64.2462 62.8208 65.1336 62.8113 66.021 62.8208C66.3073 62.8208 66.4123 62.735 66.4123 62.4392C66.4027 60.6929 66.4027 58.9466 66.4123 57.2004C66.4123 56.8855 66.2978 56.7996 65.9924 56.7996C64.2653 56.8091 62.5285 56.8091 60.8014 56.7996C60.496 56.7996 60.3815 56.8855 60.3815 57.2004C60.391 58.9466 60.391 60.6929 60.3815 62.4392C60.3815 62.735 60.4865 62.8208 60.7727 62.8208C61.6411 62.8113 62.4999 62.8208 63.3587 62.8208ZM37.6038 67.3535C37.6038 68.2218 37.6133 69.0997 37.6038 69.9681C37.6038 70.2544 37.6897 70.3593 37.9855 70.3593C39.7317 70.3498 41.478 70.3498 43.2243 70.3593C43.4914 70.3593 43.625 70.3021 43.625 69.9872C43.6155 68.2218 43.6155 66.466 43.625 64.7007C43.625 64.4335 43.5392 64.3381 43.272 64.3381C41.5066 64.3476 39.7508 64.3476 37.9855 64.3381C37.6897 64.3381 37.6038 64.4526 37.6133 64.7293C37.6133 65.6072 37.6038 66.4756 37.6038 67.3535ZM60.4006 67.3535C60.4006 68.2218 60.4101 69.0997 60.4006 69.9681C60.4006 70.2544 60.4865 70.3593 60.7823 70.3593C62.5285 70.3498 64.2748 70.3498 66.021 70.3593C66.2882 70.3593 66.4218 70.3021 66.4218 69.9872C66.4123 68.2218 66.4123 66.466 66.4218 64.7007C66.4218 64.4335 66.3359 64.3381 66.0688 64.3381C64.3034 64.3476 62.5476 64.3476 60.7823 64.3381C60.4865 64.3381 60.4006 64.4526 60.4101 64.7293C60.4101 65.6072 60.4006 66.4756 60.4006 67.3535Z" fill="#665E66"/>
<path d="M32.0702 76.8378C32.1274 76.6374 31.9557 76.6756 31.8602 76.6374C30.7152 76.0935 30.0758 75.2156 30.0376 73.9274C30.0281 73.7556 30.0281 73.5743 30.0281 73.4025C30.0281 63.5834 30.0281 53.7643 30.0281 43.9451C30.0281 43.5348 29.9136 43.1245 30.0472 42.7142C30.5625 42.7046 31.0682 42.6951 31.5835 42.6855C31.7553 42.6951 31.9366 42.7046 32.1083 42.7046C36.5456 42.7046 40.9828 42.7046 45.4104 42.7046C54.9147 42.7046 64.4284 42.7046 73.9327 42.7142C74.0281 43.2485 73.9708 43.7829 73.9327 44.3173C60.1821 44.3173 46.4315 44.3173 32.6904 44.3173C31.8984 44.3173 31.6789 44.5272 31.6789 45.3288C31.6789 54.833 31.6789 64.3372 31.6789 73.8415C31.6789 75.1583 32.261 76.0744 33.4252 76.6469C33.5206 76.6947 33.5874 76.7424 33.597 76.8473C33.2153 76.8473 32.8336 76.8473 32.4519 76.8473C32.4232 76.8855 32.3851 76.7615 32.3564 76.8473C32.261 76.8378 32.1656 76.8378 32.0702 76.8378Z" fill="#454045"/>
<path d="M41.3256 28C41.9268 28.5725 41.8123 29.3169 41.8123 30.0421C41.8123 31.0059 41.8218 31.9696 41.8314 32.9334C41.8218 34.3648 41.8027 35.7961 41.7932 37.218C41.526 37.6664 41.1348 37.8668 40.6099 37.8287C40.1233 37.8 39.6271 37.8096 39.1404 37.8096C38.6537 37.5042 38.4629 37.0748 38.4629 36.4927C38.482 33.6586 38.4724 30.8246 38.4629 28C39.4171 28 40.3714 28 41.3256 28Z" fill="#F4DD45"/>
<path d="M66.6047 28C66.5951 28.0095 66.5761 28.0382 66.5856 28.0382C67.1772 28.5439 67.0913 29.231 67.0913 29.8989C67.0818 30.9104 67.1009 31.9219 67.1009 32.9334C67.1009 34.0022 67.1009 35.0614 67.0818 36.1301C67.0818 36.5118 67.1391 36.8935 67.0055 37.2657C66.7574 37.676 66.3948 37.8668 65.9081 37.8382C65.4119 37.8096 64.9061 37.8287 64.4099 37.8191C63.9137 37.5233 63.7324 37.0939 63.7324 36.5118C63.7515 33.6777 63.742 30.8436 63.742 28.0095C64.6962 28 65.6504 28 66.6047 28Z" fill="#F4DD45"/>
<path d="M63.7413 28C63.7413 30.8341 63.7509 33.6682 63.7318 36.5023C63.7318 37.0844 63.9131 37.5138 64.4093 37.8096C64.104 37.8191 63.8081 37.8191 63.5028 37.8287C62.4627 37.8287 62.1478 37.5042 62.1382 36.4641C62.1287 35.2713 62.1287 34.0785 62.1191 32.8857C62.1287 31.8933 62.1573 30.8913 62.1287 29.8989C62.1096 29.2119 62.1955 28.5725 62.5867 28C62.978 28 63.3597 28 63.7413 28Z" fill="#EAB14D"/>
<path d="M38.4638 28C38.4638 30.8341 38.4734 33.6682 38.4638 36.4927C38.4638 37.0748 38.6547 37.5042 39.1413 37.8096C38.8074 37.8191 38.4734 37.8191 38.1489 37.8191C37.2615 37.8191 36.9466 37.5138 36.9371 36.6359C36.9275 35.3858 36.918 34.1358 36.918 32.8857C36.9275 31.7979 36.9657 30.71 36.9371 29.6222C36.9084 29.0115 36.9657 28.458 37.4142 28C37.7672 28 38.1108 28 38.4638 28Z" fill="#EAB14D"/>
<path d="M32.3555 76.8376C32.3841 76.7517 32.4223 76.8758 32.4509 76.8376C32.4223 76.8376 32.3936 76.8376 32.3555 76.8376Z" fill="#090707"/>
<path d="M48.1499 55.358C47.272 55.358 46.4037 55.3485 45.5258 55.3676C45.2109 55.3771 45.125 55.2626 45.125 54.9572C45.1345 53.1919 45.1345 51.4361 45.125 49.6708C45.125 49.3845 45.2109 49.2891 45.5067 49.2891C47.3007 49.2986 49.0946 49.2986 50.8886 49.2891C51.1844 49.2891 51.2703 49.394 51.2608 49.6708C51.2512 51.4456 51.2512 53.2301 51.2608 55.005C51.2608 55.2721 51.1749 55.3676 50.9077 55.358C49.9916 55.3485 49.066 55.358 48.1499 55.358Z" fill="#EAB14D"/>
<path d="M55.7736 55.358C54.8957 55.358 54.0274 55.3485 53.1495 55.3676C52.8346 55.3771 52.7391 55.2817 52.7487 54.9572C52.7582 53.1919 52.7582 51.4361 52.7487 49.6708C52.7487 49.3845 52.8346 49.2891 53.1208 49.2891C54.9148 49.2986 56.7088 49.2986 58.5028 49.2891C58.7986 49.2891 58.8845 49.3845 58.8845 49.6708C58.8749 51.4361 58.8749 53.1919 58.8845 54.9572C58.8845 55.2626 58.7986 55.3676 58.4837 55.3676C57.5867 55.3485 56.6802 55.358 55.7736 55.358Z" fill="#EAB14D"/>
<path d="M37.6041 52.324C37.6041 51.4652 37.6137 50.6064 37.5946 49.7571C37.5851 49.4231 37.6518 49.28 38.0335 49.2895C39.7607 49.3086 41.4974 49.2991 43.2246 49.2895C43.5204 49.2895 43.6445 49.3563 43.6445 49.6903C43.6254 51.4556 43.6254 53.2114 43.6445 54.9768C43.6445 55.3012 43.5204 55.368 43.2246 55.368C41.4974 55.3585 39.7607 55.3585 38.0335 55.368C37.7091 55.368 37.5946 55.2917 37.5946 54.9481C37.6232 54.0702 37.6041 53.2019 37.6041 52.324Z" fill="#EAB14D"/>
<path d="M66.4136 52.3233C66.4136 53.2108 66.4041 54.0982 66.4232 54.9856C66.4327 55.2815 66.3277 55.3673 66.0415 55.3578C64.2761 55.3483 62.5203 55.3483 60.755 55.3578C60.4496 55.3578 60.3828 55.2433 60.3828 54.9666C60.3924 53.2012 60.3924 51.4454 60.3828 49.6801C60.3828 49.3556 60.4973 49.2793 60.7931 49.2793C62.5394 49.2888 64.2857 49.2888 66.0319 49.2793C66.3564 49.2793 66.4232 49.3938 66.4232 49.6992C66.4041 50.5771 66.4136 51.4454 66.4136 52.3233Z" fill="#EAB14D"/>
<path d="M48.1979 56.8081C49.0758 56.8081 49.9441 56.8177 50.822 56.7986C51.1369 56.7891 51.2705 56.8463 51.2705 57.2089C51.2514 58.9552 51.261 60.711 51.2705 62.4572C51.2705 62.7435 51.1942 62.8485 50.8984 62.8389C49.1044 62.8294 47.3009 62.8294 45.5069 62.8389C45.2016 62.8389 45.1348 62.734 45.1348 62.4477C45.1443 60.7014 45.1443 58.9456 45.1348 57.1994C45.1348 56.894 45.2206 56.7891 45.5355 56.7891C46.4134 56.8272 47.3104 56.8081 48.1979 56.8081Z" fill="#EAB14D"/>
<path d="M55.8684 56.8086C56.7463 56.8086 57.6147 56.8181 58.4926 56.8086C58.7598 56.8086 58.8934 56.8468 58.8934 57.1617C58.8838 58.9461 58.8838 60.721 58.8934 62.5054C58.8934 62.7917 58.7788 62.8489 58.5212 62.8489C56.7272 62.8394 54.9237 62.8394 53.1297 62.8489C52.8339 62.8489 52.748 62.7535 52.748 62.4672C52.7576 60.7019 52.7576 58.9366 52.748 57.1712C52.748 56.8563 52.8721 56.8086 53.1393 56.8086C54.0554 56.8181 54.9619 56.8086 55.8684 56.8086Z" fill="#EAB14D"/>
<path d="M48.217 64.3461C49.0853 64.3461 49.9632 64.3557 50.8316 64.3366C51.1369 64.327 51.2514 64.4225 51.2514 64.7374C51.2419 66.4836 51.2419 68.2299 51.2514 69.9761C51.2514 70.272 51.1369 70.3578 50.8602 70.3578C49.0853 70.3483 47.3009 70.3483 45.526 70.3578C45.2397 70.3578 45.1348 70.272 45.1348 69.9761C45.1443 68.2299 45.1443 66.4836 45.1348 64.7374C45.1348 64.4225 45.2493 64.327 45.5546 64.3366C46.4421 64.3557 47.3295 64.3461 48.217 64.3461Z" fill="#454045"/>
<path d="M55.8114 64.3462C56.6797 64.3462 57.5576 64.3558 58.426 64.3367C58.7409 64.3272 58.884 64.4035 58.8745 64.7566C58.8554 66.4837 58.8649 68.2205 58.8745 69.9476C58.8745 70.253 58.7886 70.3675 58.4737 70.358C56.7084 70.3484 54.9526 70.3484 53.1872 70.358C52.8914 70.358 52.7578 70.2912 52.7578 69.9667C52.7674 68.2205 52.7674 66.4742 52.7578 64.7279C52.7578 64.394 52.9009 64.3367 53.1872 64.3367C54.0651 64.3462 54.943 64.3462 55.8114 64.3462Z" fill="#454045"/>
<path d="M40.61 62.8381C39.7321 62.8381 38.8637 62.8286 37.9858 62.8477C37.6995 62.8477 37.5946 62.7713 37.6041 62.4755C37.6136 60.7102 37.6136 58.9448 37.6041 57.1795C37.6041 56.8837 37.6995 56.7978 37.9858 56.8073C39.7321 56.8169 41.4783 56.8169 43.2341 56.8073C43.5299 56.8073 43.654 56.8741 43.654 57.1986C43.6349 58.9448 43.6444 60.6911 43.654 62.4469C43.654 62.7618 43.5586 62.8572 43.2437 62.8477C42.3562 62.8286 41.4783 62.8381 40.61 62.8381Z" fill="#EAB14D"/>
<path d="M63.3585 62.8201C62.4997 62.8201 61.6409 62.8105 60.7916 62.8201C60.5054 62.8201 60.4004 62.7342 60.4004 62.4384C60.4099 60.6921 60.4099 58.9459 60.4004 57.1996C60.4004 56.8847 60.5149 56.7988 60.8203 56.7988C62.5474 56.8084 64.2841 56.8084 66.0113 56.7988C66.3167 56.7988 66.4312 56.8847 66.4312 57.1996C66.4216 58.9459 66.4216 60.6921 66.4312 62.4384C66.4312 62.7342 66.3262 62.8201 66.0399 62.8201C65.1334 62.8105 64.246 62.8201 63.3585 62.8201Z" fill="#454045"/>
<path d="M37.6052 67.3535C37.6052 66.4852 37.6148 65.6073 37.6052 64.7389C37.6052 64.4622 37.6816 64.3477 37.9774 64.3477C39.7427 64.3572 41.4985 64.3572 43.2639 64.3477C43.5311 64.3477 43.617 64.4526 43.617 64.7103C43.6074 66.4756 43.6074 68.2314 43.617 69.9968C43.617 70.3021 43.4834 70.3689 43.2162 70.3689C41.4699 70.3594 39.7237 70.3594 37.9774 70.3689C37.6816 70.3689 37.5957 70.2639 37.5957 69.9777C37.6148 69.0998 37.6052 68.2219 37.6052 67.3535Z" fill="#454045"/>
<path d="M60.4021 67.3535C60.4021 66.4852 60.4117 65.6073 60.4021 64.7389C60.4021 64.4622 60.4785 64.3477 60.7743 64.3477C62.5396 64.3572 64.2954 64.3572 66.0608 64.3477C66.3279 64.3477 66.4138 64.4526 66.4138 64.7103C66.4043 66.4756 66.4043 68.2314 66.4138 69.9968C66.4138 70.3021 66.2802 70.3689 66.0131 70.3689C64.2668 70.3594 62.5205 70.3594 60.7743 70.3689C60.4785 70.3689 60.3926 70.2639 60.3926 69.9777C60.4117 69.0998 60.4021 68.2219 60.4021 67.3535Z" fill="#454045"/>
<path d="M67.0058 37.2561C67.1394 36.8839 67.0726 36.5022 67.0822 36.1205C67.0917 35.0613 67.0917 33.9926 67.1012 32.9238C68.3704 32.9238 69.6395 32.9238 70.9182 32.9334C72.7313 32.9429 73.9622 34.1643 73.9622 35.9869C73.9622 38.2294 73.9527 40.4719 73.9527 42.7048C64.4485 42.7048 54.9347 42.7048 45.4305 42.7048C40.9932 42.7048 36.556 42.7048 32.1283 42.7048C31.9566 42.7048 31.7753 42.6952 31.6035 42.6857C31.6035 39.5463 31.6131 36.4068 31.6131 33.2769C32.1093 33.0002 32.6436 32.9238 33.2066 32.9334C33.9128 32.9429 34.6189 32.9429 35.3251 32.9525C35.3251 34.6701 35.3251 36.3877 35.3346 38.1054C35.3346 38.926 35.7258 39.4222 36.4892 39.4413C37.8729 39.4795 39.2565 39.489 40.6402 39.4413C41.3845 39.4127 41.8998 39.1264 41.8234 38.1817C41.7948 37.8668 41.8139 37.5423 41.8139 37.2274C41.8234 35.7961 41.8425 34.3647 41.8521 32.9429C47.8924 32.9429 53.9423 32.9525 59.9826 32.9525C60.1925 32.9525 60.3929 32.962 60.6029 32.962C60.6029 34.7369 60.6029 36.5118 60.6124 38.2867C60.6124 38.9451 60.8796 39.2886 61.4903 39.3649C62.9598 39.5653 64.4294 39.4413 65.8989 39.4317C66.3856 39.4317 66.939 39.3077 67.0535 38.7161C67.1299 38.2389 67.1585 37.7332 67.0058 37.2561Z" fill="#665E66"/>
<path d="M41.7935 37.2177C41.7935 37.5326 41.784 37.857 41.8031 38.1719C41.8794 39.1166 41.3641 39.4029 40.6198 39.4315C39.2362 39.4793 37.8525 39.4697 36.4689 39.4315C35.7055 39.4125 35.3142 38.9163 35.3142 38.0956C35.3047 36.378 35.3047 34.6603 35.3047 32.9427C35.8295 32.8091 36.3639 32.9141 36.8983 32.8855C36.9078 34.1355 36.9078 35.3856 36.9174 36.6356C36.9364 37.5135 37.2513 37.8284 38.1388 37.8284C38.4728 37.8284 38.8067 37.8189 39.1312 37.8189C39.6179 37.8284 40.1141 37.8093 40.6007 37.838C41.1351 37.857 41.5263 37.6662 41.7935 37.2177Z" fill="#454045"/>
<path d="M31.6032 33.2773C31.6032 36.4168 31.5936 39.5562 31.5936 42.6861C31.0783 42.6957 30.5726 42.7052 30.0573 42.7148C30.0573 40.3769 30.0382 38.0485 30.0573 35.7107C30.0764 34.6133 30.6394 33.8022 31.6032 33.2773Z" fill="#454045"/>
<path d="M67.006 37.2561C67.1492 37.7332 67.1301 38.239 67.0346 38.7065C66.9201 39.2982 66.3667 39.4222 65.88 39.4222C64.4105 39.4318 62.9314 39.5558 61.4714 39.3554C60.8512 39.2695 60.5935 38.926 60.5935 38.2771C60.584 36.5023 60.584 34.7274 60.584 32.9525C61.0897 32.8189 61.605 32.9239 62.1203 32.8952C62.1299 34.088 62.1394 35.2808 62.1394 36.4736C62.1394 37.5137 62.4638 37.8382 63.504 37.8382C63.8093 37.8382 64.1051 37.8286 64.4105 37.8191C64.9067 37.8286 65.4124 37.8096 65.9086 37.8382C66.3953 37.8573 66.7579 37.6664 67.006 37.2561Z" fill="#454045"/>
</g>
<defs>
<clipPath id="clip0_3935_10283">
<rect width="44" height="48.8475" fill="white" transform="translate(30 28)"/>
</clipPath>
</defs>
</svg>
