<svg width="104" height="104" viewBox="0 0 104 104" fill="none" xmlns="http://www.w3.org/2000/svg">
<rect width="103.763" height="103.763" rx="18.0144" fill="#E0E4E8"/>
<g clip-path="url(#clip0_3935_10324)">
<path d="M27.5075 27C34.1002 27 40.693 27 47.2858 27C47.2858 29.0082 47.2858 31.0262 47.2858 33.0344C47.1584 33.0442 47.0311 33.0638 46.8939 33.0736C44.8074 33.1911 42.809 35.023 42.6914 37.09C42.5934 38.8239 42.6424 40.5774 42.6522 42.3211C42.662 43.0264 43.2204 43.5848 43.9061 43.6631C44.6702 43.7513 45.2972 43.3399 45.5127 42.615C45.6302 42.2427 45.5812 41.8705 45.5812 41.4982C45.5812 41.3023 45.6302 41.1945 45.8555 41.2043C46.3257 41.2239 46.796 41.2337 47.2662 41.2435C47.2662 42.3309 47.2662 43.4182 47.2662 44.5056C47.2564 46.3277 47.2466 48.1399 47.2368 49.962C47.0213 49.9718 46.8155 49.9816 46.6 49.9816C43.8767 49.9816 41.1632 49.9914 38.4399 49.9914C37.9501 49.7857 37.4701 49.9718 37.0097 50.0698C35.3052 50.4126 34.1492 51.882 34.1492 53.6551C34.1394 58.2005 34.1492 62.7459 34.1492 67.2913C34.1492 68.2121 33.8064 68.986 33.1696 69.6619C32.621 70.2399 31.9451 70.5436 31.2006 70.7689C30.8088 70.7983 30.4169 70.8081 30.0349 70.7297C28.1834 70.3672 26.9883 68.937 26.9883 67.0366C26.9883 54.4682 26.9883 41.8998 26.9883 29.3315C27.0275 28.5184 26.8315 27.6661 27.5075 27ZM36.7158 33.054C35.6578 33.054 34.5998 33.0442 33.5419 33.0638C32.6994 33.0736 32.092 33.7005 32.0822 34.5136C32.0822 35.3267 32.6896 35.9634 33.5223 35.9928C33.9435 36.0124 34.3745 36.0222 34.7958 35.9928C35.168 35.9634 35.2562 36.081 35.2562 36.4532C35.2366 38.3145 35.2464 40.1659 35.2464 42.0272C35.2464 42.2329 35.2366 42.4484 35.3052 42.6541C35.5501 43.3595 36.1966 43.7611 36.9509 43.6533C37.666 43.5554 38.1852 42.948 38.1852 42.1839C38.195 40.2737 38.2048 38.3732 38.1754 36.463C38.1656 36.0614 38.3028 35.9634 38.6652 35.9928C39.0375 36.0222 39.4097 36.0026 39.7918 36.0026C40.693 35.9928 41.3395 35.3756 41.3395 34.5332C41.3395 33.6711 40.7224 33.0736 39.8016 33.0638C38.773 33.054 37.7444 33.054 36.7158 33.054Z" fill="#665E66"/>
<path d="M75.3895 77.1159C69.649 77.1159 63.8987 77.1159 58.1582 77.1159C58.1582 74.3827 58.1582 71.6496 58.1484 68.9067C58.4717 68.848 58.795 68.9459 59.1182 68.8382C59.8138 68.6129 60.2546 67.9957 60.2154 67.3002C60.1762 66.5459 59.6472 66.0561 58.7362 65.8993L58.7068 65.8798L58.6676 65.8993C58.5011 65.8993 58.3346 65.8993 58.1582 65.8993C58.1582 64.3907 58.1582 62.8821 58.1582 61.3736C58.3542 61.3638 58.5501 61.354 58.7362 61.354C59.5787 61.3344 60.2154 60.7074 60.2154 59.8846C60.2154 59.0519 59.5885 58.4347 58.7362 58.4151C58.5403 58.4151 58.3444 58.4053 58.1582 58.3955C58.1582 55.5939 58.1582 52.7922 58.1582 49.9807C58.3248 49.9023 58.5109 49.9317 58.6872 49.9317C60.7346 49.9317 62.7918 49.9317 64.8392 49.9317C66.0637 49.9317 67.2784 49.9121 68.5029 49.9023C68.6988 49.9219 68.8947 49.9513 69.0809 49.9513C70.3152 49.9709 71.5593 49.9317 72.7936 50.0003C74.5275 50.0885 75.9773 51.6069 75.9773 53.3408C75.9871 60.825 75.9773 68.3092 75.9969 75.7934C75.9969 76.3616 75.8598 76.7926 75.3895 77.1159ZM67.7976 65.9483C66.9649 65.9483 66.1322 65.9483 65.2996 65.9483C65.2702 65.9483 65.231 65.9483 65.2016 65.9483C64.3396 65.9679 63.7224 66.5459 63.7126 67.3688C63.693 68.1916 64.2808 68.8676 65.1135 68.8774C66.9061 68.9067 68.6988 68.9067 70.4915 68.8774C71.3046 68.8676 71.9609 68.1426 71.9315 67.3786C71.9021 66.5851 71.2556 65.9581 70.4327 65.9483C69.5609 65.9385 68.6792 65.9483 67.7976 65.9483ZM67.7584 61.354C68.64 61.354 69.5217 61.3638 70.4033 61.354C71.2654 61.3442 71.9315 60.7074 71.9413 59.9041C71.9609 59.0911 71.2654 58.4151 70.3935 58.4151C68.6792 58.4053 66.9747 58.4053 65.2604 58.4151C64.3494 58.4151 63.7126 59.0323 63.7126 59.8846C63.7126 60.7368 64.3494 61.3442 65.2604 61.354C66.0931 61.3638 66.9257 61.354 67.7584 61.354Z" fill="#454045"/>
<path d="M58.1588 61.3831C58.1588 62.8917 58.1588 64.4003 58.1588 65.9089C58.149 65.9285 58.1588 65.9481 58.1588 65.9775C54.7792 65.9677 51.4093 65.9579 48.0297 65.9579C47.099 65.9579 46.4819 66.5554 46.4819 67.4175C46.4819 68.2698 47.1088 68.8869 48.0297 68.8967C49.4305 68.9065 50.8313 68.9065 52.242 68.8967C54.2208 68.8967 56.1898 68.8869 58.1686 68.8771L58.1588 68.9261C58.1588 71.6592 58.1588 74.3923 58.1686 77.1352C52.7808 77.1352 47.3929 77.1352 42.0149 77.1352C41.4761 76.8021 41.3291 76.3221 41.3389 75.705C41.3585 74.069 41.3389 72.4331 41.3291 70.7971C41.3291 65.037 41.3389 59.2867 41.3389 53.5266C41.3389 52.2727 40.7708 51.3225 39.7618 50.5976C39.3699 50.3135 38.9095 50.2156 38.4883 50.0099C41.2116 50.0099 43.9251 50.0001 46.6484 50.0001C46.8639 50.0001 47.0696 49.9903 47.2852 49.9805C47.5007 49.9903 47.7064 50.0099 47.9219 50.0099C51.3407 50.0099 54.7596 50.0099 58.1784 50.0099C58.1784 52.8115 58.1784 55.6132 58.1784 58.4247V58.4737C58.0511 58.4639 57.9139 58.4541 57.7866 58.4541C54.5539 58.4541 51.3211 58.4541 48.0982 58.4541C47.148 58.4541 46.5015 59.0516 46.5015 59.9235C46.5015 60.7953 47.148 61.3929 48.0982 61.3929C49.8909 61.3929 51.6836 61.3929 53.4861 61.3929C55.0535 61.3929 56.6208 61.3733 58.1882 61.3733L58.1588 61.3831Z" fill="#665E66"/>
<path d="M58.1491 49.9914C54.7303 49.9914 51.3114 49.9914 47.8926 49.9914C47.6771 49.9914 47.4714 49.9718 47.2559 49.962C47.2657 48.1399 47.2755 46.3276 47.2852 44.5056C47.2852 43.4182 47.2852 42.3308 47.2852 41.2435C47.2755 41.2239 47.2755 41.2043 47.2755 41.1847C47.5693 41.1945 47.8534 41.2239 48.1473 41.2239C48.9408 41.2337 48.9408 41.2239 48.9408 42.0272C48.9408 43.0068 49.5775 43.7219 50.4298 43.7317C51.2625 43.7317 51.9384 43.0362 51.9384 42.0859C51.9286 40.4304 52.0363 38.7651 51.8698 37.1095C51.6053 34.5332 49.1269 32.8874 47.2657 33.0931C47.2657 33.0735 47.2657 33.0539 47.2755 33.0442C47.2755 31.036 47.2755 29.018 47.2755 27.0098C54.1915 27.0098 61.1173 27.0098 68.0333 27.0098C67.9942 27.0392 67.9452 27.0783 68.004 27.1175C68.484 27.48 68.484 27.9992 68.484 28.5282C68.484 35.6597 68.484 42.7913 68.484 49.9228C67.2595 49.9326 66.0447 49.9424 64.8202 49.9522C62.7729 49.9522 60.7157 49.9522 58.6683 49.9522C58.5018 49.9424 58.3254 49.9032 58.1491 49.9914ZM54.1425 42.1937C54.1425 42.3896 54.1523 42.5464 54.2111 42.7031C54.6029 43.7513 55.9058 44.0549 56.6699 43.2223C57.3066 42.5268 57.8944 41.7823 58.4822 41.0378C58.6781 40.7929 58.7858 40.6949 59.0307 41.0182C59.5597 41.7235 60.1377 42.3798 60.7059 43.0655C61.2936 43.7807 62.1949 43.908 62.8708 43.3692C63.5369 42.8402 63.5957 41.9194 63.0178 41.1945C62.3222 40.3324 61.6169 39.4704 60.9018 38.6279C60.7255 38.4222 60.7451 38.3046 60.9116 38.0989C61.6071 37.2761 62.2928 36.4434 62.9688 35.6107C63.6055 34.8172 63.5663 33.965 62.9002 33.3968C62.2243 32.8286 61.3328 32.9658 60.6765 33.7397C60.1181 34.396 59.5695 35.0621 59.0405 35.7479C58.8446 36.0026 58.7369 35.9928 58.5507 35.7479C58.0022 35.0523 57.4438 34.3862 56.8756 33.7005C56.2585 32.956 55.3474 32.8286 54.6813 33.387C54.0152 33.9356 53.9858 34.8662 54.5931 35.6009C55.2495 36.3944 55.8862 37.1977 56.5621 37.9716C56.807 38.2557 56.8462 38.4418 56.5719 38.7455C55.8862 39.5292 55.2299 40.3422 54.5735 41.1455C54.2992 41.4688 54.1131 41.8018 54.1425 42.1937Z" fill="#454045"/>
<path d="M40.9356 71.0144C37.7519 71.0144 34.5682 71.0144 31.3943 71.0144C31.2179 71.0144 31.0416 71.0046 30.8555 70.9948C31.5902 70.7793 32.2759 70.4756 32.8245 69.8878C33.4612 69.2119 33.8041 68.438 33.8041 67.5172C33.8041 62.9718 33.8041 58.4264 33.8041 53.881C33.8041 52.108 34.96 50.6385 36.6645 50.2957C37.125 50.2075 37.605 50.0214 38.0948 50.2173C38.516 50.4328 38.9764 50.5308 39.3683 50.8051C40.3773 51.53 40.9454 52.49 40.9454 53.7341C40.9454 59.4942 40.9454 65.2543 40.9356 71.0144Z" fill="#454045"/>
<path d="M36.7156 33.0551C37.7442 33.0551 38.7728 33.0453 39.7916 33.0551C40.7124 33.0649 41.3296 33.6625 41.3296 34.5245C41.3296 35.3768 40.6928 35.9842 39.7818 35.994C39.4095 35.994 39.0275 36.0136 38.6552 35.9842C38.283 35.9548 38.1556 36.0527 38.1654 36.4544C38.185 38.3646 38.185 40.265 38.1752 42.1753C38.1752 42.9394 37.6462 43.5467 36.9409 43.6447C36.1866 43.7525 35.5401 43.3508 35.2952 42.6455C35.2266 42.4398 35.2364 42.2243 35.2364 42.0185C35.2364 40.1573 35.2266 38.3058 35.2462 36.4446C35.2462 36.0821 35.158 35.9548 34.7858 35.9842C34.3645 36.0136 33.9335 36.0038 33.5123 35.9842C32.6894 35.9548 32.0723 35.3082 32.0723 34.505C32.0723 33.6919 32.6894 33.0649 33.5319 33.0551C34.5997 33.0453 35.6576 33.0649 36.7156 33.0551C36.7156 33.0649 36.7156 33.0551 36.7156 33.0551Z" fill="#EAB14D"/>
<path d="M47.2966 41.2443C46.8264 41.2345 46.3562 41.2247 45.886 41.2051C45.6607 41.1953 45.6215 41.303 45.6117 41.499C45.6117 41.8712 45.6509 42.2435 45.5431 42.6157C45.3276 43.3308 44.6909 43.7521 43.9366 43.6639C43.2607 43.5855 42.6925 43.0272 42.6827 42.3218C42.6631 40.5781 42.6239 38.8344 42.7219 37.0907C42.8394 35.0238 44.828 33.1821 46.9244 33.0743C47.0517 33.0645 47.1791 33.0547 47.3162 33.0352C47.3064 33.0547 47.3064 33.0645 47.3064 33.0841C47.3064 34.0539 47.3162 35.0238 47.3162 35.9936C46.1799 36.1013 45.5627 36.836 45.6313 37.9626C45.6411 38.2075 45.7293 38.2663 45.9546 38.2565C46.415 38.2467 46.8656 38.2565 47.326 38.2663C47.326 39.2361 47.326 40.2157 47.3162 41.1855C47.2868 41.2051 47.2869 41.2247 47.2966 41.2443Z" fill="#EAB14D"/>
<path d="M67.7983 65.9497C68.6799 65.9497 69.5616 65.9399 70.4432 65.9497C71.2661 65.9595 71.9127 66.5864 71.942 67.3799C71.9714 68.144 71.3151 68.8689 70.502 68.8787C68.7093 68.9081 66.9167 68.9081 65.124 68.8787C64.2913 68.8689 63.7035 68.193 63.7231 67.3701C63.7427 66.557 64.3501 65.9693 65.2121 65.9497C65.2415 65.9497 65.2807 65.9497 65.3101 65.9497C66.133 65.9497 66.9656 65.9497 67.7983 65.9497Z" fill="#F4DD45"/>
<path d="M67.7587 61.3544C66.926 61.3544 66.0933 61.3544 65.2607 61.3544C64.3496 61.3446 63.7129 60.747 63.7129 59.885C63.7129 59.0327 64.3398 58.4156 65.2607 58.4156C66.975 58.4058 68.6795 58.4058 70.3938 58.4156C71.2657 58.4156 71.9612 59.0915 71.9416 59.9046C71.922 60.7078 71.2559 61.3446 70.4036 61.3544C69.5122 61.3642 68.6403 61.3544 67.7587 61.3544Z" fill="#F4DD45"/>
<path d="M58.1582 58.3965C58.3541 58.4063 58.55 58.4161 58.7362 58.4161C59.5884 58.4357 60.2154 59.0528 60.2154 59.8855C60.2154 60.7084 59.5786 61.3451 58.7362 61.3549C58.5402 61.3549 58.3443 61.3647 58.1582 61.3745V61.3255C58.1582 60.3655 58.1582 59.3957 58.1582 58.4357V58.3965Z" fill="#EAB14D"/>
<path d="M58.7362 65.9121C59.657 66.0689 60.1762 66.5587 60.2154 67.313C60.2546 68.0085 59.8138 68.6257 59.1182 68.851C58.8048 68.9489 58.4717 68.8608 58.1484 68.9195L58.1582 68.8706C58.1582 67.9007 58.1582 66.9407 58.1582 65.9709C58.1484 65.9513 58.1484 65.9317 58.1582 65.9023C58.3248 65.9023 58.4913 65.9023 58.6676 65.9023L58.697 65.9219L58.7362 65.9121Z" fill="#EAB14D"/>
<path d="M58.7365 65.9102L58.6974 65.92L58.668 65.9004L58.6974 65.8906L58.7365 65.9102Z" fill="#F7911F"/>
<path d="M58.1594 58.4474C58.1594 59.4074 58.1594 60.3772 58.1594 61.3372C56.592 61.347 55.0246 61.3568 53.4573 61.3568C51.6646 61.3568 49.8719 61.3568 48.0694 61.3568C47.1192 61.3568 46.4727 60.7592 46.4727 59.8874C46.4727 59.0155 47.1192 58.418 48.0694 58.418C51.3021 58.418 54.5348 58.418 57.7577 58.418C57.9047 58.4278 58.032 58.4376 58.1594 58.4474Z" fill="#EAB14D"/>
<path d="M58.1594 65.9688C58.1594 66.9386 58.1594 67.8986 58.1594 68.8684C56.1806 68.8782 54.2116 68.888 52.2328 68.888C50.8319 68.888 49.4311 68.8978 48.0204 68.888C47.0996 68.8782 46.4727 68.2611 46.4727 67.4088C46.4727 66.5468 47.0996 65.9492 48.0204 65.9492C51.4099 65.9492 54.7895 65.959 58.1594 65.9688Z" fill="#EAB14D"/>
<path d="M54.144 42.1954C54.1146 41.8036 54.3008 41.4705 54.5555 41.157C55.2216 40.3537 55.8681 39.5309 56.5539 38.757C56.8282 38.4533 56.789 38.2672 56.5441 37.9831C55.8779 37.2092 55.2314 36.4059 54.5751 35.6124C53.9579 34.8679 53.9971 33.9471 54.6632 33.3985C55.3294 32.8401 56.2502 32.9675 56.8575 33.712C57.4159 34.3879 57.9841 35.0639 58.5327 35.7594C58.7286 36.0043 58.8266 36.0141 59.0225 35.7594C59.5515 35.0736 60.1098 34.4173 60.6584 33.7512C61.3148 32.9773 62.216 32.8401 62.8821 33.4083C63.5581 33.9765 63.5874 34.8287 62.9507 35.6222C62.2748 36.4647 61.589 37.2876 60.8935 38.1104C60.727 38.3064 60.7074 38.4239 60.8837 38.6394C61.5988 39.4819 62.2944 40.3439 62.9997 41.206C63.5874 41.9211 63.5189 42.8517 62.8527 43.3807C62.1768 43.9195 61.2854 43.7922 60.6878 43.077C60.1294 42.4011 59.5515 41.735 59.0127 41.0297C58.7678 40.7064 58.66 40.8044 58.4641 41.0493C57.8763 41.784 57.2886 42.5383 56.6518 43.2338C55.8877 44.0664 54.5849 43.7726 54.193 42.7146C54.1636 42.5383 54.144 42.3815 54.144 42.1954Z" fill="#EAB14D"/>
<path d="M47.295 35.9931C47.295 35.0233 47.2852 34.0535 47.2852 33.0837C49.1464 32.878 51.6248 34.5237 51.8893 37.1001C52.0558 38.7556 51.9481 40.421 51.9579 42.0765C51.9579 43.0267 51.282 43.7321 50.4493 43.7223C49.5872 43.7223 48.9603 42.9973 48.9603 42.0177C48.9603 41.2145 48.9603 41.2243 48.1668 41.2145C47.8729 41.2145 47.579 41.1949 47.295 41.1753C47.295 40.2055 47.295 39.2259 47.3047 38.256L47.295 38.2364C47.7456 38.2364 48.1962 38.2364 48.6566 38.2462C48.8721 38.256 48.9603 38.1973 48.9799 37.9524C49.0484 36.8552 48.4117 36.1107 47.3047 36.0029L47.295 35.9931Z" fill="#EAB14D"/>
<path d="M47.2962 38.2649C46.8358 38.2649 46.3852 38.2453 45.9248 38.2551C45.6995 38.2551 45.6211 38.2061 45.6015 37.9612C45.5427 36.8347 46.1599 36.0999 47.2864 35.9922L47.2766 36.0118C47.2766 36.7563 47.2766 37.5008 47.2766 38.2355L47.2962 38.2649Z" fill="#665E66"/>
<path d="M47.2852 38.2452C47.2852 37.5007 47.2852 36.7562 47.2852 36.0215C48.4019 36.1292 49.0289 36.8835 48.9603 37.9709C48.9407 38.2158 48.8525 38.2648 48.637 38.2648C48.1864 38.2452 47.7358 38.2452 47.2852 38.2452Z" fill="#454045"/>
</g>
<defs>
<clipPath id="clip0_3935_10324">
<rect width="49" height="50.1167" fill="white" transform="translate(27 27)"/>
</clipPath>
</defs>
</svg>
