<svg width="104" height="104" viewBox="0 0 104 104" fill="none" xmlns="http://www.w3.org/2000/svg">
<rect width="103.763" height="103.763" rx="18.0144" fill="#E0E4E8"/>
<g clip-path="url(#clip0_3935_10265)">
<path d="M70.0519 64.1716C71.1273 63.7026 72.1929 63.2239 73.2683 62.7745C74.9653 62.0614 76.4649 62.7159 76.9188 64.3474C77.1753 65.2853 76.7708 66.399 75.9519 66.9168C71.2457 69.8671 66.5395 72.8077 61.8433 75.7581C61.0342 76.2661 60.166 76.6081 59.2386 76.8132C59.1399 76.8328 58.9426 76.7741 59.0314 76.9988C54.2956 76.9988 49.5599 76.9988 44.834 76.9988C44.8143 76.9695 44.7847 76.9109 44.7649 76.9109C44.7156 76.9109 44.7057 76.95 44.7353 76.9988C44.6367 76.9988 44.538 76.9988 44.4393 76.9988C44.5479 76.8425 44.39 76.8425 44.3209 76.823C42.2392 76.2857 40.2857 75.3966 38.273 74.6932C37.0002 74.2438 35.7472 73.7651 34.4844 73.2962C34.4844 72.3779 34.4844 71.4596 34.4844 70.551C34.6718 70.6194 34.8494 70.6878 35.0369 70.7562C37.7106 71.7429 40.3843 72.7394 43.0581 73.7261C43.9263 74.0387 44.8241 74.2536 45.7417 74.2634C49.7375 74.2829 53.7333 74.2927 57.7192 74.2536C59.061 74.2438 60.3337 73.8824 61.4881 73.1399C63.777 71.6843 66.0758 70.2384 68.3845 68.812C68.789 68.558 69.1935 68.304 69.4994 67.9426C70.3084 66.9949 70.1703 65.3732 69.1738 64.5916C69.4402 64.3767 69.7757 64.3279 70.0519 64.1716Z" fill="#454045"/>
<path d="M58.0458 27C58.322 27.1368 58.618 27.2442 58.8745 27.4103C59.5553 27.8597 60.2459 27.8695 60.9662 27.5275C61.7357 27.1661 62.16 27.4396 62.1896 28.3091C62.2192 29.3154 61.7949 30.2044 61.3805 31.0836C60.8083 32.2853 60.0683 33.399 59.3185 34.5127C58.9436 34.4052 58.5786 34.4834 58.2135 34.5713C57.3058 34.7765 56.3784 34.8937 55.4411 34.923C54.0894 34.9523 52.7575 34.8156 51.4453 34.5127C51.4453 34.3759 51.544 34.2782 51.613 34.1708C52.4122 32.9887 53.2212 31.8066 53.9119 30.5561C54.3953 29.6768 54.8886 28.7976 55.0859 27.7913C55.8654 27.8304 56.4771 27.4494 57.0592 27C57.3847 27 57.7202 27 58.0458 27Z" fill="#E8AE4C"/>
<path d="M55.0854 27.7913C54.888 28.7878 54.3947 29.6671 53.9113 30.5561C53.2206 31.8066 52.4116 32.9887 51.6125 34.1708C51.5434 34.2782 51.4447 34.3759 51.4447 34.5127C51.3263 34.5127 51.208 34.5127 51.129 34.3955C50.0043 32.7444 48.9289 31.0641 48.4356 29.0907C48.327 28.6608 48.3073 28.2212 48.475 27.8011C48.6625 27.3224 48.9486 27.1856 49.3926 27.4396C50.5075 28.0844 51.4349 27.6936 52.3228 27C52.7471 27 53.1812 27 53.6054 27C53.8126 27.3029 54.4243 27.635 55.0854 27.7913Z" fill="#F4DD45"/>
<path d="M44.7256 77C44.696 76.961 44.7059 76.9121 44.7552 76.9121C44.775 76.9121 44.8046 76.9707 44.8243 77C44.7947 77 44.7651 77 44.7256 77Z" fill="#030202"/>
<path d="M38.3135 58.5258C37.6919 54.0611 38.9351 50.0361 41.2635 46.2847C43.4044 42.8458 46.2558 40.0615 49.482 37.6289C49.5313 37.5899 49.6004 37.5703 49.6497 37.541C51.1 38.4593 52.7674 38.4398 54.3855 38.6157C54.5433 38.7817 54.6815 38.9674 54.8591 39.1139C56.6152 40.5402 58.1938 42.1424 59.5849 43.9107C62.0219 47.0271 63.7879 50.4367 64.2812 54.4128C64.4983 56.1225 64.4391 57.8028 64.0839 59.4734C63.6202 61.6227 62.6632 63.5473 61.1931 65.2081C60.6406 65.8333 60.0782 66.4879 59.289 66.8493C59.2791 66.8005 59.2594 66.7516 59.2495 66.7126C58.9831 64.7098 57.7301 63.43 55.6977 63.1174C54.7801 62.9806 53.8527 62.8927 52.9253 62.7852C51.3467 62.6094 49.778 62.414 48.1994 62.2479C46.8477 62.1112 45.5454 61.8376 44.3615 61.1537C42.4474 60.04 40.5137 58.9849 38.3135 58.5258ZM54.4151 53.9537C54.4151 54.8036 54.3855 55.6438 54.4249 56.4937C54.4447 56.9822 54.2375 57.031 53.8428 56.9627C53.2015 56.8454 52.6392 56.5523 52.0867 56.2202C51.6723 55.9759 51.2283 56.0834 51.0014 56.4351C50.7646 56.7966 50.8633 57.2167 51.2678 57.4902C51.8696 57.8908 52.5109 58.2229 53.2311 58.3792C53.5962 58.4574 54.0796 58.3988 54.3164 58.6039C54.5927 58.8482 54.3756 59.3464 54.4249 59.7274C54.4743 60.1573 54.7999 60.4797 55.1846 60.4894C55.599 60.4992 55.9345 60.167 55.9641 59.7079C55.9838 59.4636 55.9838 59.2194 55.9641 58.9752C55.9345 58.643 56.0233 58.4574 56.3982 58.3792C57.296 58.1838 58.0162 57.6758 58.6082 56.992C60.4137 54.8915 59.9105 51.8826 57.5328 50.6614C57.1381 50.4562 56.7139 50.3194 56.2995 50.1631C56.1022 50.085 55.9641 50.0166 55.9641 49.7626C55.9739 48.3656 55.9739 46.9685 55.9641 45.5617C55.9641 45.2589 56.1022 45.2589 56.339 45.3273C56.7336 45.4445 57.0987 45.6399 57.4341 45.8743C57.8584 46.1674 58.3023 46.1186 58.5687 45.7669C58.8351 45.4054 58.7661 45.0049 58.3418 44.6629C57.9274 44.3308 57.4538 44.1061 56.9605 43.9302C56.6547 43.8228 56.2403 43.8423 56.043 43.6371C55.8358 43.4222 55.9937 43.0119 55.9739 42.6895C55.9739 42.6407 55.9739 42.5918 55.9641 42.543C55.8753 42.1522 55.6286 41.8884 55.2241 41.8786C54.8097 41.8689 54.5433 42.1131 54.4545 42.5039C54.4151 42.6797 54.4052 42.8654 54.4249 43.0412C54.494 43.5492 54.3361 43.7739 53.7935 43.9498C52.2445 44.448 51.4454 45.6203 51.2974 47.1932C51.1691 48.5707 51.7512 49.6258 52.9746 50.3097C53.3199 50.5051 53.6554 50.7102 54.0204 50.8568C54.3164 50.9838 54.4447 51.1401 54.4348 51.4722C54.3953 52.2929 54.4151 53.1233 54.4151 53.9537Z" fill="#F4DD45"/>
<path d="M38.3146 58.5275C40.5148 58.9866 42.4485 60.0417 44.3626 61.1555C45.5465 61.8491 46.8488 62.1129 48.2005 62.2496C49.7791 62.4157 51.3577 62.6013 52.9264 62.7869C53.8538 62.8944 54.7812 62.9823 55.6988 63.1191C57.7312 63.4317 58.9842 64.7115 59.2506 66.7143C59.2605 66.7631 59.2802 66.812 59.2901 66.851C59.2703 67.0464 59.2506 67.232 59.221 67.4274C56.3993 67.4274 53.5677 67.4274 50.746 67.4274C50.2033 67.4274 49.8481 67.7401 49.858 68.1797C49.8679 68.6095 50.2132 68.8929 50.7361 68.8929C53.4 68.8929 56.0638 68.8929 58.7178 68.8929C58.8954 68.8929 59.0829 68.9417 59.2309 68.7854C59.3986 68.844 59.5466 68.7659 59.7044 68.6975C60.9476 68.1504 62.1809 67.6033 63.424 67.066C65.338 66.2356 67.2619 65.4149 69.176 64.5845C70.1724 65.3661 70.3106 66.9878 69.5015 67.9354C69.1957 68.2969 68.7912 68.5509 68.3867 68.8049C66.078 70.2313 63.7792 71.6771 61.4902 73.1328C60.3359 73.8655 59.0631 74.227 57.7213 74.2465C53.7255 74.2856 49.7396 74.2661 45.7438 74.2563C44.8263 74.2563 43.9186 74.0414 43.0602 73.719C40.3865 72.742 37.7128 71.7455 35.039 70.749C34.8516 70.6807 34.674 70.6123 34.4865 70.5439C34.4767 69.2934 34.4668 68.0429 34.4668 66.7924C34.4668 63.93 34.4767 61.0675 34.4865 58.2051C35.7691 58.2051 37.0517 58.2832 38.3146 58.5275Z" fill="#665E66"/>
<path d="M34.4854 58.2212C34.4755 61.0837 34.4656 63.9461 34.4656 66.8086C34.4656 68.0591 34.4755 69.3096 34.4854 70.56C34.4854 71.4784 34.4854 72.3967 34.4854 73.3053C34.4755 73.7156 34.4755 74.1161 34.4656 74.5264C34.4262 75.4252 33.8243 76.0114 32.9265 76.0212C31.8215 76.0309 30.7264 76.0309 29.6214 76.0212C28.6841 76.0114 28.0625 75.4057 28.0625 74.4874C28.0625 68.6941 28.0625 62.9008 28.0625 57.1075C28.0625 56.199 28.6643 55.6128 29.572 55.603C30.6869 55.5933 31.8116 55.5933 32.9265 55.603C33.8243 55.6128 34.4064 56.1599 34.4558 57.0489C34.4755 57.4397 34.4755 57.8305 34.4854 58.2212Z" fill="#454045"/>
<path d="M54.3966 38.6247C52.7786 38.4391 51.1013 38.4684 49.6609 37.5501C49.6905 37.3742 49.6313 37.2374 49.4734 37.1495C49.2268 35.8209 49.4438 35.2152 50.3515 34.6388C50.608 34.5606 50.8744 34.4727 51.1309 34.3945C51.2 34.5215 51.3184 34.5215 51.4466 34.5118C52.7588 34.8146 54.0908 34.9612 55.4424 34.9221C56.3797 34.9025 57.2973 34.7755 58.2148 34.5704C58.5799 34.4922 58.9449 34.4043 59.3198 34.5118C60.5433 35.01 60.8984 36.1042 60.4446 37.2277C60.0795 37.7455 59.5764 37.9995 58.9548 38.146C57.4453 38.5075 55.9357 38.6442 54.3966 38.6247Z" fill="#665E66"/>
<path d="M50.3494 34.6296C49.4319 35.206 49.2148 35.8117 49.4714 37.1404C48.0408 37.1892 46.6299 37.3162 45.2782 37.834C44.2324 38.2346 43.3247 38.811 42.6834 39.7586C42.3677 40.2178 41.9336 40.3252 41.5587 40.0517C41.1936 39.7879 41.1443 39.3483 41.46 38.8891C42.5157 37.3553 44.0548 36.5542 45.811 36.0853C46.8766 35.802 47.9618 35.6554 49.0964 35.675C49.0767 35.4405 48.8893 35.3428 48.761 35.2158C47.8533 34.3366 46.768 33.9556 45.4953 34.0826C43.7786 34.2584 42.1704 33.936 40.6806 33.0665C40.1774 32.7637 40.0196 32.3436 40.2564 31.943C40.503 31.5327 40.9174 31.4741 41.4502 31.777C42.6538 32.4608 43.9364 32.7246 45.3177 32.5878C47.0344 32.412 48.5143 32.9298 49.7772 34.0923C49.9647 34.2779 50.162 34.4538 50.3494 34.6296Z" fill="#F4DD45"/>
<path d="M54.3945 38.6275C55.9337 38.647 57.4432 38.52 58.9428 38.1586C59.5644 38.012 60.0676 37.7482 60.4326 37.2402C62.7512 38.8522 64.8329 40.7279 66.6878 42.8479C68.8682 45.3391 70.5948 48.0843 71.5913 51.2594C72.7456 54.9425 72.7752 58.5962 71.1769 62.1816C70.8612 62.885 70.4369 63.52 70.062 64.1746C69.7759 64.3309 69.4404 64.3797 69.1839 64.5947C67.2699 65.4153 65.346 66.2457 63.4319 67.0761C62.1888 67.6134 60.9457 68.1605 59.7124 68.7076C59.5644 68.776 59.4164 68.8541 59.2388 68.7955C59.2388 68.3461 59.229 67.8967 59.229 67.4376C59.2487 67.2422 59.2684 67.0566 59.298 66.8612C60.0972 66.4997 60.6497 65.8452 61.2022 65.2199C62.6624 63.5689 63.6293 61.6443 64.093 59.4852C64.4482 57.8147 64.5073 56.1246 64.2903 54.4247C63.7871 50.4485 62.0309 47.039 59.594 43.9225C58.2029 42.1445 56.6243 40.5521 54.8681 39.1257C54.6905 38.9792 54.5524 38.7936 54.3945 38.6275Z" fill="#EAB14D"/>
<path d="M54.4135 53.9542C54.4135 53.1238 54.3938 52.2934 54.4234 51.463C54.4333 51.1309 54.3149 50.9745 54.009 50.8475C53.644 50.701 53.3085 50.4958 52.9632 50.3005C51.7398 49.6166 51.1577 48.5517 51.286 47.184C51.4339 45.6111 52.2331 44.4388 53.7821 43.9405C54.3247 43.7647 54.4826 43.54 54.4135 43.032C54.3938 42.8561 54.4037 42.6705 54.4431 42.4947C54.5319 42.1039 54.7983 41.8597 55.2127 41.8694C55.6172 41.8792 55.8639 42.1332 55.9527 42.5337C55.9625 42.5826 55.9625 42.6314 55.9625 42.6803C55.9921 43.0027 55.8244 43.413 56.0316 43.6279C56.2289 43.8233 56.6334 43.8135 56.9491 43.921C57.4523 44.0871 57.9259 44.3118 58.3304 44.6537C58.7448 44.9956 58.8237 45.3962 58.5573 45.7577C58.2909 46.1094 57.8568 46.1582 57.4227 45.8651C57.0873 45.6307 56.7222 45.445 56.3276 45.318C56.0908 45.2497 55.9527 45.2496 55.9527 45.5525C55.9625 46.9495 55.9625 48.3466 55.9527 49.7534C55.9527 50.0074 56.0908 50.0855 56.2881 50.1539C56.7025 50.3102 57.1267 50.447 57.5214 50.6522C59.8991 51.8733 60.4122 54.8823 58.5968 56.9827C58.0048 57.6666 57.2846 58.1746 56.3868 58.37C56.0118 58.4482 55.9231 58.6338 55.9527 58.9659C55.9724 59.2102 55.9724 59.4544 55.9527 59.6987C55.9231 60.1578 55.5777 60.49 55.1732 60.4802C54.7884 60.4704 54.4629 60.148 54.4135 59.7182C54.3642 59.3372 54.5813 58.8389 54.305 58.5947C54.0682 58.3798 53.5848 58.4482 53.2197 58.37C52.4995 58.2235 51.8681 57.8815 51.2564 57.481C50.8518 57.2074 50.7532 56.7874 50.99 56.4259C51.2169 56.0742 51.6609 55.9667 52.0752 56.211C52.6278 56.5431 53.1803 56.8362 53.8314 56.9534C54.2261 57.0218 54.4333 56.973 54.4135 56.4845C54.3839 55.6443 54.4135 54.8042 54.4135 53.9542ZM55.9625 54.2962C55.9625 55.0582 55.9625 55.8202 55.9625 56.5822C55.9625 56.8167 56.0118 56.8948 56.2782 56.8069C57.2846 56.4747 58.1429 55.2633 58.1429 54.1203C58.1429 52.9773 57.4622 52.1176 56.3078 51.7561C56.0316 51.6682 55.9625 51.7366 55.9625 52.0003C55.9724 52.7721 55.9625 53.5341 55.9625 54.2962ZM54.4135 47.3208C54.4135 46.803 54.3938 46.2754 54.4234 45.7577C54.4431 45.3669 54.305 45.2887 53.9794 45.4841C53.1605 45.953 52.8053 46.676 52.8251 47.5943C52.8349 48.4638 53.4565 48.8546 54.1274 49.216C54.4037 49.3626 54.4234 49.1867 54.4234 48.9816C54.4135 48.4247 54.4135 47.8679 54.4135 47.3208Z" fill="#FEFDF9"/>
<path d="M59.2304 67.4258C59.2304 67.8752 59.2402 68.3246 59.2402 68.7837C59.0923 68.94 58.9048 68.8912 58.7272 68.8912C56.0633 68.8912 53.3995 68.8912 50.7455 68.8912C50.2324 68.8912 49.8871 68.6079 49.8674 68.178C49.8575 67.7384 50.2127 67.4258 50.7553 67.4258C53.5771 67.4258 56.3988 67.4258 59.2304 67.4258Z" fill="#454045"/>
<path d="M55.9629 54.297C55.9629 53.535 55.9728 52.773 55.9629 52.011C55.9629 51.7472 56.032 51.6788 56.3082 51.7667C57.4625 52.1184 58.1433 52.9879 58.1433 54.1309C58.1433 55.274 57.285 56.4854 56.2786 56.8175C56.0122 56.9055 55.9629 56.8273 55.9629 56.5928C55.9728 55.8308 55.9629 55.059 55.9629 54.297Z" fill="#F4DD45"/>
<path d="M54.4149 47.32C54.4149 47.8769 54.4149 48.424 54.4149 48.9809C54.4149 49.186 54.3952 49.3619 54.1189 49.2153C53.448 48.8636 52.8363 48.4631 52.8166 47.5936C52.8067 46.6753 53.1619 45.9523 53.971 45.4834C54.2965 45.2978 54.4347 45.3662 54.4149 45.7569C54.3952 46.2747 54.4149 46.7925 54.4149 47.32Z" fill="#F4DD45"/>
</g>
<defs>
<clipPath id="clip0_3935_10265">
<rect width="48.9362" height="50" fill="white" transform="translate(28.0645 27)"/>
</clipPath>
</defs>
</svg>
