<svg width="104" height="104" viewBox="0 0 104 104" fill="none" xmlns="http://www.w3.org/2000/svg">
<rect width="103.763" height="103.763" rx="18.0144" fill="#E0E4E8"/>
<g clip-path="url(#clip0_3935_10247)">
<path d="M51.9717 77C51.5073 76.7787 51.0031 76.8828 50.5254 76.8308C48.2167 76.5444 46.0008 75.9716 43.8646 75.0734C41.9672 74.2794 40.1892 73.277 38.5704 72.0404C36.7128 70.6084 35.0675 68.9813 33.6743 67.1067C32.1219 64.9979 30.9277 62.7068 30.1449 60.2205C29.6672 58.7105 29.3089 57.1614 29.1763 55.5733C29.0967 54.6881 28.9772 53.8029 29.0038 52.9177C29.0967 49.5332 29.7468 46.2658 31.2462 43.1937C32.2944 41.0328 33.5947 39.0411 35.2267 37.2447C37.0445 35.214 39.1808 33.5738 41.5558 32.22C43.9309 30.8792 46.4652 29.994 49.1455 29.4863C50.1141 29.3041 51.096 29.1869 52.0911 29.1479C56.7351 28.9526 61.3658 29.1088 66.0098 29.0698C66.4875 29.0698 66.6733 28.9396 66.6069 28.471C66.5804 28.2627 66.6202 28.0414 66.5937 27.8331C66.5538 27.4686 66.6998 27.2083 66.9917 27C67.1509 27 67.3234 27 67.4959 27C68.1328 27.4296 68.7697 27.8592 69.4199 28.2757C70.8396 29.1869 72.2726 30.0982 73.6923 31.0224C74.1435 31.3218 74.0904 31.8295 73.5862 32.1679C72.6707 32.7667 71.7286 33.3655 70.8131 33.9513C69.8445 34.5762 68.8758 35.201 67.9072 35.8128C67.6153 35.9951 67.2969 36.2033 66.9386 36.0081C66.5804 35.8128 66.6069 35.4483 66.6069 35.0968C66.6069 34.0164 66.6069 34.0164 65.5189 34.0164C61.4056 34.0164 57.2924 33.9904 53.1791 34.0294C50.9898 34.0424 48.8536 34.485 46.7969 35.24C44.7668 35.9951 42.896 37.0234 41.2241 38.3772C39.4196 39.8612 37.8937 41.5926 36.6995 43.5842C35.6646 45.3025 34.9348 47.151 34.5102 49.0906C34.1652 50.6267 33.9795 52.1888 34.0724 53.7639C34.2847 57.6431 35.4921 61.2098 37.8805 64.334C40.1096 67.2499 42.9623 69.4238 46.4387 70.7516C48.1371 71.4025 49.8885 71.8191 51.7196 71.9362C52.0115 71.9492 52.3034 72.0143 52.6086 72.0404C53.0597 72.0794 53.4578 72.5741 53.471 73.0948C53.4843 74.032 53.4843 74.9823 53.471 75.9196C53.471 76.4663 53.0995 76.7527 52.6749 77C52.4361 77 52.1972 77 51.9717 77Z" fill="#454045"/>
<path d="M52.2043 78.6577C51.7153 78.4202 51.1842 78.532 50.6812 78.4761C48.2498 78.1687 45.9161 77.5538 43.6663 76.5896C41.6681 75.7372 39.7956 74.6612 38.0908 73.3337C36.1345 71.7966 34.4017 70.0499 32.9345 68.0377C31.2995 65.7739 30.0419 63.3145 29.2174 60.6455C28.7144 59.0246 28.3371 57.3617 28.1974 55.6569C28.1135 54.7066 27.9877 53.7564 28.0157 52.8062C28.1135 49.173 28.7982 45.6656 30.3773 42.3678C31.4812 40.0481 32.8506 37.9101 34.5694 35.9818C36.4838 33.8018 38.7336 32.0411 41.2349 30.5879C43.7362 29.1486 46.4052 28.1983 49.2279 27.6534C50.248 27.4577 51.2821 27.332 52.3301 27.2901C57.2209 27.0804 62.0978 27.2481 66.9886 27.2062C67.4917 27.2062 67.6873 27.0665 67.6174 26.5634C67.5895 26.3398 67.6314 26.1023 67.6035 25.8787C67.5615 25.4874 67.7153 25.208 68.0227 24.9844C68.1904 24.9844 68.372 24.9844 68.5537 24.9844C69.2244 25.4455 69.8952 25.9066 70.5799 26.3538C72.0751 27.332 73.5843 28.3101 75.0794 29.3023C75.5546 29.6237 75.4987 30.1687 74.9677 30.532C74.0035 31.1748 73.0113 31.8176 72.0471 32.4464C71.027 33.1171 70.007 33.7879 68.9869 34.4446C68.6794 34.6403 68.3441 34.8639 67.9668 34.6542C67.5895 34.4446 67.6174 34.0534 67.6174 33.6761C67.6174 32.5163 67.6174 32.5163 66.4716 32.5163C62.1397 32.5163 57.8078 32.4883 53.476 32.5302C51.1703 32.5442 48.9205 33.0193 46.7546 33.8298C44.6166 34.6403 42.6463 35.7442 40.8856 37.1975C38.9851 38.7905 37.3781 40.649 36.1205 42.787C35.0305 44.6315 34.262 46.6158 33.8148 48.6979C33.4515 50.3468 33.2559 52.0237 33.3537 53.7145C33.5773 57.8787 34.8489 61.7075 37.3642 65.0612C39.7118 68.1914 42.7161 70.525 46.3773 71.9503C48.1659 72.649 50.0105 73.0962 51.9388 73.2219C52.2463 73.2359 52.5537 73.3058 52.8751 73.3337C53.3502 73.3756 53.7694 73.9066 53.7834 74.4656C53.7973 75.4717 53.7973 76.4918 53.7834 77.4979C53.7834 78.0848 53.3921 78.3922 52.9449 78.6577C52.6934 78.6577 52.4419 78.6577 52.2043 78.6577Z" fill="#665E66"/>
<path d="M72.7486 78.6548C72.1896 78.2914 71.9521 77.8023 72.008 77.1176C72.0639 76.2652 72.0219 75.4128 72.0219 74.5604C72.0359 73.7639 72.4691 73.3307 73.2516 73.3168C73.7407 73.3028 74.2298 73.3168 74.7189 73.3168C75.5014 73.3307 75.9765 73.7499 75.9905 74.5185C76.0184 75.5106 76.0045 76.5028 75.9905 77.4949C75.9765 78.0539 75.6551 78.4172 75.166 78.6548C74.3556 78.6548 73.5451 78.6548 72.7486 78.6548Z" fill="#F4DD45"/>
<path d="M58.0732 78.6564C57.4444 78.3629 57.2907 77.8738 57.3326 77.2031C57.3885 76.2948 57.3466 75.3865 57.3466 74.4922C57.3466 73.7795 57.8077 73.3184 58.5204 73.3184C59.0234 73.3184 59.5265 73.3184 60.0295 73.3184C60.7702 73.3184 61.2173 73.7795 61.2173 74.5341C61.2173 75.4284 61.1894 76.3088 61.2313 77.2031C61.2592 77.8598 61.0916 78.3629 60.4907 78.6703C59.6802 78.6564 58.8697 78.6564 58.0732 78.6564Z" fill="#F4DD45"/>
<path d="M65.4116 78.659C64.8527 78.2957 64.6151 77.8066 64.657 77.1219C64.7129 76.2695 64.671 75.4171 64.671 74.5647C64.671 73.7822 65.1042 73.335 65.8867 73.321C66.4038 73.3071 66.9348 73.3071 67.4518 73.321C68.1365 73.335 68.5418 73.7682 68.5418 74.4389C68.5418 75.3612 68.5138 76.2835 68.5557 77.2057C68.5837 77.8625 68.43 78.3656 67.8011 78.659C67.0186 78.659 66.2081 78.659 65.4116 78.659Z" fill="#F4DD45"/>
<path d="M41.3854 64.0008C39.7644 62.1842 38.6186 60.1021 37.9758 57.7685C36.4247 52.0672 37.3889 46.827 41.1199 42.2017C43.9147 38.7222 47.5898 36.6821 52.0334 36.0952C57.0361 35.4384 61.4518 36.7939 65.3365 39.9799C65.4483 40.0637 65.5321 40.1755 65.6299 40.2733C65.616 40.427 65.7138 40.5249 65.7976 40.6366C66.5941 41.7546 67.3208 42.9144 67.8518 44.2C69.2072 47.5257 69.5426 50.9493 68.774 54.4567C68.0614 57.7406 66.4684 60.5633 64.0928 62.9249C62.5837 64.434 60.809 65.5799 58.8387 66.4463C56.1417 67.634 53.3051 67.9694 50.4125 67.7179C47.8273 67.4943 45.3959 66.6559 43.1741 65.2445C42.7269 64.965 42.3356 64.5877 41.8046 64.434L41.8186 64.4201C41.7767 64.3781 41.7487 64.3502 41.7068 64.3083C41.6649 64.2663 41.6369 64.2384 41.595 64.1965H41.609C41.5671 64.1546 41.5391 64.1266 41.4972 64.0847H41.5112C41.4553 64.0707 41.4273 64.0288 41.3854 64.0008ZM66.9854 52.9476C67.1112 45.9607 61.326 40.2594 54.4789 40.2035C47.2125 40.1476 41.581 45.8489 41.5531 52.8917C41.5251 60.172 47.3662 65.6358 54.2692 65.6917C61.2701 65.7336 67.1391 59.8366 66.9854 52.9476Z" fill="#665E66"/>
<path d="M41.8086 64.4341C42.3396 64.5879 42.7309 64.9651 43.178 65.2446C45.3999 66.656 47.8173 67.4944 50.4165 67.718C53.309 67.9695 56.1457 67.6202 58.8427 66.4464C60.813 65.58 62.5876 64.4341 64.0968 62.925C66.4723 60.5634 68.0514 57.7407 68.778 54.4568C69.5466 50.9494 69.2112 47.5258 67.8558 44.2001C67.3248 42.9145 66.6121 41.7547 65.8016 40.6368C65.7178 40.525 65.6199 40.4271 65.6339 40.2734C66.9754 41.3634 68.0234 42.7189 68.9038 44.1861C70.385 46.6455 71.1675 49.3145 71.3073 52.1931C71.7265 60.6892 65.6758 68.1651 57.5571 69.6603C51.5903 70.7503 46.4339 69.1014 42.102 64.8534C41.9903 64.7276 41.8226 64.6298 41.8086 64.4341Z" fill="#454045"/>
<path d="M41.3906 64C41.4325 64.0419 41.4745 64.0699 41.5164 64.1118C41.4605 64.0699 41.4325 64.0279 41.3906 64Z" fill="#EBBE6B"/>
<path d="M41.498 64.0996C41.54 64.1415 41.5679 64.1695 41.6098 64.2114C41.5679 64.1835 41.526 64.1415 41.498 64.0996Z" fill="#EBBE6B"/>
<path d="M41.5996 64.209C41.6415 64.2509 41.6695 64.2789 41.7114 64.3208C41.6415 64.3208 41.6136 64.2789 41.5996 64.209Z" fill="#EBBE6B"/>
<path d="M41.709 64.3184C41.7509 64.3603 41.7789 64.3882 41.8208 64.4302C41.7369 64.4302 41.709 64.3882 41.709 64.3184Z" fill="#EBBE6B"/>
<path d="M66.9874 52.946C67.1411 59.8351 61.2721 65.732 54.2573 65.6761C47.3542 65.6202 41.5132 60.1565 41.5411 52.8761C41.5691 45.8333 47.2005 40.132 54.4669 40.1879C61.328 40.2578 67.1132 45.9591 66.9874 52.946ZM53.363 55.3076C53.363 55.9643 53.363 56.6351 53.363 57.2918C53.363 57.8508 53.2931 57.9067 52.7481 57.7111C52.3429 57.5573 51.9656 57.3477 51.5603 57.1661C51.1132 56.9704 50.652 57.0962 50.4564 57.4455C50.2468 57.8228 50.3446 58.298 50.7219 58.5495C51.2529 58.8849 51.7979 59.2482 52.4127 59.332C53.0416 59.4298 53.4747 59.5137 53.3909 60.3381C53.335 60.8691 53.7682 61.1626 54.2712 61.1486C54.7184 61.1346 55.0119 60.7993 55.0258 60.2683C55.0258 60.1145 55.0398 59.9469 55.0258 59.7931C54.9979 59.5276 55.0817 59.3879 55.3752 59.332C55.8922 59.2202 56.3394 58.9407 56.7586 58.6054C58.114 57.5154 58.7289 55.3355 57.7787 53.7145C57.2477 52.8202 56.4372 52.3311 55.5009 51.9958C55.2774 51.9119 55.0258 51.884 55.0398 51.5346C55.0538 50.4726 55.0538 49.4106 55.0398 48.3346C55.0398 48.0552 55.1935 47.9853 55.4031 48.0831C55.6686 48.2089 55.9202 48.3766 56.1857 48.5163C56.6188 48.7538 56.9822 48.67 57.2756 48.2648C57.5551 47.8735 57.4433 47.5521 57.1219 47.2447C56.7446 46.8953 56.3114 46.5879 55.8223 46.5041C55.2215 46.3923 54.956 46.1827 55.0119 45.5259C55.0678 44.925 54.383 44.4779 53.9079 44.7573C53.5167 44.9809 53.3071 45.3442 53.363 45.8054C53.4188 46.1966 53.2791 46.3783 52.8739 46.518C50.666 47.2866 50.163 50.0534 51.2389 51.4787C51.6861 52.0796 52.3149 52.401 52.9577 52.7084C53.2512 52.8482 53.3769 53.0159 53.363 53.3512C53.349 54.008 53.363 54.6508 53.363 55.3076Z" fill="#454045"/>
<path d="M53.3636 55.309C53.3636 54.6662 53.3496 54.0094 53.3776 53.3666C53.3916 53.0313 53.2658 52.8636 52.9723 52.7238C52.3296 52.4164 51.7007 52.095 51.2536 51.4941C50.1776 50.0688 50.6806 47.302 52.8885 46.5334C53.2798 46.3937 53.4195 46.212 53.3776 45.8208C53.3217 45.3457 53.5313 44.9963 53.9226 44.7727C54.3977 44.4933 55.0824 44.9404 55.0265 45.5413C54.9706 46.1981 55.2361 46.4077 55.837 46.5195C56.3261 46.6173 56.7592 46.9107 57.1365 47.2601C57.444 47.5535 57.5697 47.8889 57.2903 48.2802C56.9968 48.6854 56.6335 48.7692 56.2003 48.5317C55.9348 48.392 55.6972 48.2243 55.4178 48.0985C55.1942 48.0007 55.0405 48.0706 55.0544 48.35C55.0544 49.412 55.0684 50.4741 55.0544 51.55C55.0544 51.8994 55.292 51.9273 55.5156 52.0112C56.4658 52.3465 57.2623 52.8356 57.7933 53.7299C58.7435 55.3369 58.1287 57.5308 56.7732 58.6208C56.368 58.9561 55.9068 59.2217 55.3898 59.3474C55.0964 59.4173 55.0125 59.543 55.0405 59.8085C55.0544 59.9623 55.0405 60.116 55.0405 60.2837C55.0265 60.8147 54.733 61.15 54.2859 61.164C53.7689 61.178 53.3496 60.8845 53.4055 60.3535C53.4894 59.5291 53.0702 59.4452 52.4274 59.3474C51.8125 59.2496 51.2536 58.9003 50.7365 58.5649C50.3453 58.3134 50.2614 57.8382 50.471 57.461C50.6667 57.0976 51.1278 56.9858 51.575 57.1815C51.9662 57.3631 52.3575 57.5727 52.7627 57.7265C53.3077 57.9221 53.3776 57.8662 53.3776 57.3072C53.3636 56.6365 53.3636 55.9658 53.3636 55.309ZM55.0405 55.6024C55.0405 56.1893 55.0544 56.7902 55.0405 57.3771C55.0405 57.6706 55.1383 57.7125 55.3758 57.5867C55.7392 57.3911 55.9907 57.0976 56.2282 56.7623C56.9968 55.6723 56.5776 54.2051 55.3758 53.716C55.1243 53.6182 55.0265 53.6461 55.0405 53.9256C55.0405 54.4845 55.0405 55.0435 55.0405 55.6024ZM53.3636 49.5797C53.3636 49.3561 53.3916 49.1326 53.3636 48.909C53.3357 48.6714 53.5173 48.2941 53.2239 48.2243C52.9444 48.1544 52.7767 48.4898 52.623 48.7273C52.5811 48.7832 52.5392 48.8391 52.5112 48.909C52.106 49.7055 52.3156 50.5299 53.0143 50.8793C53.2658 51.0051 53.3636 50.9631 53.3496 50.6697C53.3496 50.3064 53.3636 49.943 53.3636 49.5797Z" fill="#EAB14D"/>
<path d="M55.0422 55.5999C55.0422 55.0409 55.0562 54.482 55.0422 53.937C55.0422 53.6575 55.126 53.6156 55.3776 53.7274C56.5793 54.2165 56.9985 55.6697 56.23 56.7737C56.0064 57.0951 55.7409 57.4025 55.3776 57.5981C55.14 57.7239 55.0282 57.682 55.0422 57.3885C55.0422 56.7876 55.0422 56.1868 55.0422 55.5999Z" fill="#454045"/>
<path d="M53.3638 49.5797C53.3638 49.943 53.3638 50.3063 53.3638 50.6696C53.3638 50.9491 53.266 51.005 53.0284 50.8793C52.3297 50.5299 52.1201 49.7055 52.5254 48.9089C52.5533 48.8531 52.5952 48.7972 52.6372 48.7273C52.7909 48.4897 52.9586 48.1544 53.238 48.2242C53.5315 48.2941 53.3498 48.6714 53.3778 48.9089C53.3778 49.1325 53.3638 49.3561 53.3638 49.5797Z" fill="#454045"/>
</g>
<defs>
<clipPath id="clip0_3935_10247">
<rect width="48" height="53.6594" fill="white" transform="translate(28 25)"/>
</clipPath>
</defs>
</svg>
