<svg width="104" height="104" viewBox="0 0 104 104" fill="none" xmlns="http://www.w3.org/2000/svg">
<rect width="103.763" height="103.763" rx="18.0144" fill="#E0E4E8"/>
<path d="M54.9609 69.9218C54.9609 66.9715 54.9609 64.0212 54.9609 61.0709C54.9609 58.1647 56.2049 55.985 58.7259 54.5318C61.3459 53.0127 63.9659 51.4825 66.586 49.9523C66.652 49.9193 66.6961 49.8532 66.7401 49.7982C67.5657 49.7761 68.4244 49.6991 69.0959 50.2935C69.5253 50.6678 69.6353 50.5467 69.7785 50.0844C70.6261 47.3983 71.5068 44.7232 72.3765 42.0371C72.5196 41.5858 72.7067 41.1454 73.037 40.7822C73.7635 39.9895 74.6773 39.8134 75.69 39.9015C76.6038 40.3198 77.3303 40.9032 77.5615 41.9491C77.6716 42.4555 77.6055 42.9288 77.4734 43.4132C76.2405 48.0368 74.9965 52.6714 73.7525 57.295C73.5324 58.1096 73.103 58.7811 72.4645 59.3536C70.5711 61.0159 68.6886 62.7112 66.7951 64.3845C65.9034 65.1771 65.4631 66.1459 65.4961 67.3348C65.5181 68.1935 65.4961 69.0521 65.4961 69.9218C62.0064 69.9218 58.4837 69.9218 54.9609 69.9218ZM70.0206 51.7136C69.5473 52.3852 69.0299 52.8916 68.3363 53.2438C66.5529 54.1796 64.8136 55.1813 63.0522 56.1501C62.8541 56.2602 62.6889 56.3923 62.6669 56.6455C62.6449 56.9647 62.6339 57.273 62.9421 57.4821C63.2394 57.6913 63.5366 57.6142 63.8228 57.4601C65.4961 56.5574 67.1804 55.6657 68.8317 54.719C69.9326 54.1025 70.3949 52.8806 70.0206 51.7136Z" fill="#665E66"/>
<path d="M37.9405 49.8971C40.8467 51.5154 43.731 53.1666 46.5492 54.95C48.6298 56.26 49.6426 58.2856 49.6756 60.7405C49.7196 63.8009 49.6866 66.8613 49.6866 69.9327C46.1639 69.9327 42.6411 69.9327 39.1184 69.9327C39.1074 68.8208 39.1514 67.6979 39.0634 66.5861C38.9973 65.7274 38.5239 65.0119 37.8634 64.4394C35.9479 62.7441 34.0435 61.0268 32.117 59.3314C31.5335 58.825 31.1262 58.2196 30.917 57.471C29.651 52.7593 28.3741 48.0477 27.1191 43.325C26.7228 41.8388 27.3282 40.6719 28.7483 40.0334C28.8144 40.0004 28.8694 39.9564 28.9245 39.9234C30.6969 39.8903 31.6436 40.4077 32.128 41.7398C32.5133 42.7856 32.8215 43.8644 33.1738 44.9212C33.7572 46.7156 34.3407 48.51 34.9131 50.3044C35.0232 50.6567 35.1223 50.6237 35.3865 50.4145C36.1461 49.798 37.0048 49.6439 37.9405 49.8971ZM34.6159 51.7686C34.4067 52.6052 34.4728 53.3538 35.0342 54.0363C35.5186 54.6198 36.1791 54.928 36.8286 55.2803C38.1717 56.0179 39.5147 56.7664 40.8688 57.493C41.3311 57.7462 41.7274 57.6251 41.9146 57.2508C42.1017 56.8765 41.9586 56.3701 41.5843 56.161C40.0761 55.3243 38.568 54.4987 37.0708 53.673C36.1571 53.1777 35.1994 52.7373 34.6159 51.7686Z" fill="#665E66"/>
<path d="M39.1088 69.9209C42.6316 69.9209 46.1543 69.9209 49.6771 69.9209C50.5577 69.9649 50.5577 69.9649 50.5577 70.8896C50.5577 72.7611 50.5467 74.6325 50.5687 76.504C50.5687 76.8783 50.4917 76.9994 50.0954 76.9994C46.2974 76.9883 42.4995 76.9883 38.7125 76.9994C38.3162 76.9994 38.2282 76.8783 38.2392 76.504C38.2612 74.5444 38.2722 72.5849 38.2392 70.6144C38.2282 70.075 38.3493 69.8328 38.9107 69.9319C38.9657 69.9429 39.0428 69.9209 39.1088 69.9209Z" fill="#454045"/>
<path d="M54.9604 69.9209C58.4831 69.9209 62.0059 69.9209 65.5286 69.9209C66.4093 69.9649 66.4093 69.9649 66.4093 70.8896C66.4093 72.7611 66.3983 74.6325 66.4203 76.504C66.4203 76.8783 66.3433 76.9994 65.9469 76.9994C62.149 76.9883 58.351 76.9883 54.5641 76.9994C54.1678 76.9994 54.0797 76.8783 54.0907 76.504C54.1127 74.5444 54.1238 72.5849 54.0907 70.6144C54.0797 70.075 54.2008 69.8328 54.7623 69.9319C54.8063 69.9429 54.8833 69.9209 54.9604 69.9209Z" fill="#454045"/>
<path d="M37.9409 49.8965C37.0162 49.6433 36.1576 49.7974 35.409 50.3919C35.1448 50.601 35.0457 50.6341 34.9356 50.2818C34.3632 48.4874 33.7797 46.693 33.1963 44.8986C32.855 43.8418 32.5357 42.7629 32.1504 41.7171C31.6661 40.3741 30.7193 39.8567 28.947 39.9007C28.2644 38.2164 29.6405 36.2018 31.545 36.378C32.6568 36.4771 33.4935 37.0495 33.8678 38.1173C35.2439 42.0033 36.5759 45.9004 37.9189 49.7974C37.9299 49.8194 37.9299 49.8635 37.9409 49.8965Z" fill="#454045"/>
<path d="M75.7 39.8994C74.6872 39.8114 73.7735 39.9875 73.0469 40.7801C72.7166 41.1434 72.5295 41.5727 72.3864 42.0351C71.5167 44.7102 70.636 47.3963 69.7884 50.0824C69.6342 50.5557 69.5352 50.6768 69.1058 50.2915C68.4343 49.7081 67.5756 49.7741 66.75 49.7961C67.4986 47.6054 68.2472 45.4147 68.9957 43.224C69.5572 41.6058 70.1296 39.9875 70.6801 38.3582C71.1864 36.8721 72.5955 36.0575 73.9716 36.4428C75.4358 36.8611 76.2614 38.5454 75.7 39.8994Z" fill="#454045"/>
<path d="M70.0197 51.7129C70.405 52.8798 69.9316 54.1017 68.8307 54.7292C67.1795 55.665 65.4951 56.5567 63.8218 57.4704C63.5356 57.6245 63.2384 57.7015 62.9412 57.4924C62.6329 57.2832 62.6439 56.975 62.6659 56.6557C62.677 56.4025 62.8421 56.2704 63.0512 56.1603C64.8126 55.1916 66.563 54.1898 68.3354 53.2541C69.0179 52.8908 69.5353 52.3844 70.0197 51.7129Z" fill="#454045"/>
<path d="M34.6151 51.7676C35.1986 52.7363 36.1563 53.1657 37.07 53.6721C38.5782 54.4977 40.0864 55.3233 41.5835 56.16C41.9578 56.3692 42.1009 56.8755 41.9138 57.2498C41.7267 57.6241 41.3304 57.7452 40.868 57.492C39.5139 56.7655 38.1709 56.0169 36.8279 55.2793C36.1894 54.927 35.5178 54.6298 35.0335 54.0353C34.472 53.3528 34.406 52.6042 34.6151 51.7676Z" fill="#454045"/>
<circle cx="52" cy="36" r="12" fill="#665E66"/>
<path d="M56.3344 37.6699C55.939 37.6699 55.5333 37.7011 55.1379 37.6595C54.7218 37.6178 54.6593 37.7947 54.6697 38.1484C54.6906 38.9808 54.6697 39.8131 54.6801 40.6454C54.6801 40.9055 54.6281 41.0096 54.3368 40.9992C53.4733 40.9783 52.6097 40.9783 51.7358 40.9992C51.4237 41.0096 51.3196 40.9263 51.33 40.6038C51.3508 39.7403 51.33 38.8767 51.3404 38.0028C51.3508 37.7323 51.2676 37.649 50.9971 37.6595C50.1335 37.6803 49.27 37.6595 48.3961 37.6699C48.1256 37.6699 47.9903 37.649 48.0007 37.3161C48.0215 36.4318 48.0215 35.5474 48.0007 34.6631C47.9903 34.3718 48.0943 34.3197 48.3544 34.3301C49.166 34.3406 49.9879 34.2989 50.7994 34.351C51.2884 34.3822 51.3612 34.2053 51.3404 33.7787C51.3092 32.988 51.3404 32.1869 51.33 31.3858C51.3196 31.1049 51.3924 30.9904 51.6942 31.0008C52.5577 31.0217 53.4212 31.0217 54.2952 31.0008C54.5865 30.9904 54.6801 31.0737 54.6697 31.3754C54.6489 32.2389 54.6697 33.1025 54.6593 33.9764C54.6489 34.2677 54.7426 34.3614 55.0339 34.351C55.8974 34.3301 56.761 34.3614 57.6349 34.3406C57.9366 34.3301 58.0095 34.4342 57.9991 34.7151C57.9782 35.5786 57.9782 36.4422 57.9991 37.3161C58.0095 37.6282 57.895 37.6907 57.6141 37.6803C57.1979 37.6595 56.761 37.6699 56.3344 37.6699Z" fill="#F4DD45"/>
<path d="M55.3344 37.6699C54.939 37.6699 54.5333 37.7011 54.1379 37.6595C53.7218 37.6178 53.6593 37.7947 53.6697 38.1484C53.6906 38.9808 53.6697 39.8131 53.6801 40.6454C53.6801 40.9055 53.6281 41.0096 53.3368 40.9992C52.4733 40.9783 51.6097 40.9783 50.7358 40.9992C50.4237 41.0096 50.3196 40.9263 50.33 40.6038C50.3508 39.7403 50.33 38.8767 50.3404 38.0028C50.3508 37.7323 50.2676 37.649 49.9971 37.6595C49.1335 37.6803 48.27 37.6595 47.3961 37.6699C47.1256 37.6699 46.9903 37.649 47.0007 37.3161C47.0215 36.4318 47.0215 35.5474 47.0007 34.6631C46.9903 34.3718 47.0943 34.3197 47.3544 34.3301C48.166 34.3406 48.9879 34.2989 49.7994 34.351C50.2884 34.3822 50.3612 34.2053 50.3404 33.7787C50.3092 32.988 50.3404 32.1869 50.33 31.3858C50.3196 31.1049 50.3924 30.9904 50.6942 31.0008C51.5577 31.0217 52.4212 31.0217 53.2952 31.0008C53.5865 30.9904 53.6801 31.0737 53.6697 31.3754C53.6489 32.2389 53.6697 33.1025 53.6593 33.9764C53.6489 34.2677 53.7426 34.3614 54.0339 34.351C54.8974 34.3301 55.761 34.3614 56.6349 34.3406C56.9366 34.3301 57.0095 34.4342 56.9991 34.7151C56.9782 35.5786 56.9782 36.4422 56.9991 37.3161C57.0095 37.6282 56.895 37.6907 56.6141 37.6803C56.1979 37.6595 55.761 37.6699 55.3344 37.6699Z" fill="#EAB14D"/>
</svg>
