<svg width="254" height="228" viewBox="0 0 254 228" fill="none" xmlns="http://www.w3.org/2000/svg">
<g filter="url(#filter0_d_4325_10053)">
<rect x="6" y="5.27148" width="223" height="197.272" rx="16" fill="#FFCF54"/>
<rect x="75.8633" y="37.2715" width="83.2722" height="83.2722" rx="14.457" fill="#E8ECEF"/>
<g clip-path="url(#clip0_4325_10053)">
<path d="M134.065 99.9934C123.079 99.9934 112.084 99.9934 101.098 99.9934C101.09 99.9031 101.033 99.8621 100.951 99.8211C99.9497 99.3288 99.4492 98.5411 99.4492 97.4089C99.4574 89.237 99.4492 81.065 99.4492 72.8931C99.4492 72.2121 99.6297 72.0234 100.319 72.0234C112.142 72.0234 123.965 72.0234 135.78 72.0234C135.78 72.0809 135.788 72.1301 135.788 72.1875C135.788 80.5974 135.788 88.999 135.788 97.4089C135.788 98.5329 135.246 99.3206 134.237 99.7964C134.172 99.8375 133.975 99.7882 134.065 99.9934ZM113.602 81.5245C114.39 81.5245 115.186 81.5163 115.974 81.5245C116.203 81.5245 116.285 81.4507 116.277 81.2209C116.269 79.6949 116.269 78.1606 116.277 76.6345C116.277 76.3884 116.211 76.2981 115.957 76.3063C114.415 76.3145 112.872 76.3145 111.33 76.3063C111.075 76.3063 111.001 76.3801 111.001 76.6345C111.01 78.1524 111.01 79.662 111.001 81.1799C111.001 81.4425 111.067 81.5409 111.346 81.5327C112.093 81.5163 112.848 81.5245 113.602 81.5245ZM120.158 81.5245C120.937 81.5245 121.717 81.5163 122.488 81.5327C122.759 81.5409 122.833 81.4507 122.833 81.1799C122.824 79.662 122.824 78.1524 122.833 76.6345C122.833 76.3884 122.759 76.3063 122.505 76.3063C120.962 76.3145 119.42 76.3145 117.877 76.3063C117.623 76.3063 117.549 76.3884 117.557 76.6345C117.565 78.1524 117.565 79.662 117.557 81.1799C117.557 81.4507 117.639 81.5327 117.902 81.5327C118.656 81.5163 119.411 81.5245 120.158 81.5245ZM104.536 78.9154C104.536 79.662 104.553 80.4169 104.528 81.1635C104.52 81.4589 104.618 81.5245 104.905 81.5245C106.39 81.5163 107.884 81.5163 109.369 81.5245C109.623 81.5245 109.73 81.4671 109.73 81.1881C109.722 79.6702 109.713 78.1606 109.73 76.6427C109.73 76.3555 109.623 76.2981 109.369 76.2981C107.884 76.3063 106.39 76.3145 104.905 76.2981C104.577 76.2981 104.52 76.413 104.528 76.7001C104.553 77.4386 104.536 78.177 104.536 78.9154ZM129.306 78.9154C129.306 78.1688 129.298 77.4139 129.314 76.6673C129.323 76.413 129.257 76.3063 128.978 76.3063C127.477 76.3227 125.975 76.3145 124.474 76.3063C124.219 76.3063 124.113 76.3719 124.121 76.6509C124.137 78.1688 124.129 79.6785 124.121 81.1963C124.121 81.4343 124.178 81.5327 124.441 81.5327C125.959 81.5245 127.468 81.5245 128.986 81.5327C129.232 81.5327 129.323 81.4671 129.314 81.2127C129.298 80.4415 129.306 79.6784 129.306 78.9154ZM113.643 82.7716C112.88 82.7716 112.109 82.7798 111.346 82.7634C111.075 82.7552 111.001 82.8455 111.001 83.1162C111.01 84.6177 111.01 86.1274 111.001 87.6288C111.001 87.8668 111.059 87.9652 111.321 87.9652C112.864 87.957 114.415 87.957 115.957 87.9652C116.211 87.9652 116.285 87.8832 116.277 87.637C116.269 86.1356 116.261 84.6259 116.277 83.1244C116.277 82.8127 116.162 82.7716 115.891 82.7716C115.145 82.788 114.398 82.7716 113.643 82.7716ZM120.24 82.7716C119.461 82.7716 118.681 82.7798 117.902 82.7716C117.672 82.7716 117.557 82.8127 117.565 83.0834C117.573 84.6013 117.573 86.1192 117.565 87.637C117.565 87.8832 117.639 87.9652 117.893 87.9652C119.436 87.957 120.987 87.957 122.529 87.9652C122.751 87.9652 122.849 87.916 122.849 87.6699C122.841 86.1356 122.841 84.6095 122.849 83.0752C122.849 82.7962 122.734 82.7716 122.505 82.7716C121.741 82.7798 120.987 82.7716 120.24 82.7716ZM113.66 89.2534C112.897 89.2534 112.134 89.2616 111.371 89.2452C111.108 89.237 111.01 89.319 111.01 89.5898C111.018 91.0912 111.018 92.5927 111.01 94.0942C111.01 94.3485 111.1 94.4223 111.346 94.4223C112.872 94.4141 114.406 94.4141 115.933 94.4223C116.179 94.4223 116.269 94.3567 116.269 94.0942C116.261 92.5927 116.261 91.0912 116.269 89.5898C116.269 89.319 116.17 89.237 115.908 89.2452C115.161 89.2616 114.415 89.2534 113.66 89.2534ZM120.191 89.2534C119.444 89.2534 118.689 89.2616 117.943 89.2534C117.697 89.2534 117.573 89.3026 117.573 89.5898C117.582 91.0912 117.582 92.5927 117.573 94.0942C117.573 94.3813 117.688 94.4306 117.943 94.4306C119.461 94.4223 120.97 94.4223 122.488 94.4306C122.759 94.4306 122.841 94.3403 122.833 94.0777C122.824 92.5927 122.824 91.0994 122.833 89.6144C122.833 89.3108 122.718 89.2534 122.447 89.2534C121.692 89.2616 120.946 89.2534 120.191 89.2534ZM107.121 87.957C107.875 87.957 108.622 87.9488 109.377 87.9652C109.639 87.9734 109.73 87.8914 109.73 87.6206C109.722 86.1192 109.722 84.6177 109.73 83.108C109.73 82.8291 109.623 82.7716 109.369 82.7716C107.867 82.7798 106.366 82.7798 104.856 82.7716C104.61 82.7716 104.528 82.8373 104.528 83.0916C104.536 84.6095 104.536 86.1274 104.528 87.6452C104.528 87.8996 104.618 87.9734 104.856 87.9652C105.619 87.9488 106.366 87.957 107.121 87.957ZM126.681 87.9406C127.444 87.9406 128.207 87.9324 128.97 87.9406C129.216 87.9406 129.306 87.8668 129.306 87.6124C129.298 86.111 129.298 84.6095 129.306 83.108C129.306 82.8373 129.208 82.7634 128.945 82.7634C127.46 82.7716 125.967 82.7716 124.482 82.7634C124.219 82.7634 124.121 82.8373 124.121 83.108C124.129 84.6095 124.129 86.111 124.121 87.6124C124.121 87.8668 124.211 87.9406 124.457 87.9406C125.204 87.9324 125.942 87.9406 126.681 87.9406ZM104.536 91.8379C104.536 92.5845 104.544 93.3393 104.536 94.086C104.536 94.3321 104.61 94.4223 104.864 94.4223C106.366 94.4141 107.867 94.4141 109.369 94.4223C109.598 94.4223 109.713 94.3731 109.713 94.1024C109.705 92.5845 109.705 91.0748 109.713 89.5569C109.713 89.3272 109.639 89.2452 109.41 89.2452C107.892 89.2534 106.382 89.2534 104.864 89.2452C104.61 89.2452 104.536 89.3436 104.544 89.5816C104.544 90.3364 104.536 91.083 104.536 91.8379ZM124.137 91.8379C124.137 92.5845 124.145 93.3393 124.137 94.086C124.137 94.3321 124.211 94.4223 124.465 94.4223C125.967 94.4141 127.468 94.4141 128.97 94.4223C129.2 94.4223 129.314 94.3731 129.314 94.1024C129.306 92.5845 129.306 91.0748 129.314 89.5569C129.314 89.3272 129.241 89.2452 129.011 89.2452C127.493 89.2534 125.983 89.2534 124.465 89.2452C124.211 89.2452 124.137 89.3436 124.145 89.5816C124.145 90.3364 124.137 91.083 124.137 91.8379Z" fill="#665E66"/>
<path d="M99.7775 99.9936C99.8267 99.8213 99.6791 99.8541 99.597 99.8213C98.6124 99.3537 98.0627 98.5988 98.0299 97.4912C98.0217 97.3435 98.0217 97.1876 98.0217 97.0399C98.0217 88.5973 98.0217 80.1546 98.0217 71.7119C98.0217 71.3591 97.9232 71.0063 98.0381 70.6535C98.4812 70.6453 98.916 70.6371 99.3591 70.6289C99.5068 70.6371 99.6626 70.6453 99.8103 70.6453C103.626 70.6453 107.441 70.6453 111.248 70.6453C119.42 70.6453 127.6 70.6453 135.772 70.6535C135.854 71.113 135.804 71.5725 135.772 72.0319C123.949 72.0319 112.126 72.0319 100.311 72.0319C99.6298 72.0319 99.4411 72.2124 99.4411 72.9016C99.4411 81.0735 99.4411 89.2454 99.4411 97.4173C99.4411 98.5496 99.9416 99.3372 100.943 99.8295C101.025 99.8706 101.082 99.9116 101.09 100.002C100.762 100.002 100.434 100.002 100.106 100.002C100.081 100.035 100.048 99.928 100.024 100.002C99.9416 99.9936 99.8596 99.9936 99.7775 99.9936Z" fill="#454045"/>
<path d="M107.735 58C108.252 58.4923 108.153 59.1323 108.153 59.7558C108.153 60.5845 108.162 61.4132 108.17 62.2418C108.162 63.4726 108.145 64.7033 108.137 65.9258C107.907 66.3114 107.571 66.4837 107.12 66.4509C106.701 66.4263 106.274 66.4345 105.856 66.4345C105.438 66.1719 105.273 65.8027 105.273 65.3022C105.29 62.8654 105.282 60.4286 105.273 58C106.094 58 106.914 58 107.735 58Z" fill="#F4DD45"/>
<path d="M129.472 58C129.463 58.0082 129.447 58.0328 129.455 58.0328C129.964 58.4677 129.89 59.0584 129.89 59.6327C129.882 60.5024 129.898 61.3721 129.898 62.2418C129.898 63.1608 129.898 64.0715 129.882 64.9904C129.882 65.3186 129.931 65.6468 129.816 65.9668C129.603 66.3196 129.291 66.4837 128.873 66.4591C128.446 66.4345 128.011 66.4509 127.584 66.4427C127.158 66.1883 127.002 65.8191 127.002 65.3186C127.018 62.8818 127.01 60.445 127.01 58.0082C127.831 58 128.651 58 129.472 58Z" fill="#F4DD45"/>
<path d="M127.01 58C127.01 60.4368 127.018 62.8736 127.002 65.3104C127.002 65.8109 127.158 66.1801 127.584 66.4345C127.322 66.4427 127.067 66.4427 126.805 66.4509C125.911 66.4509 125.64 66.1719 125.632 65.2776C125.623 64.252 125.623 63.2264 125.615 62.2008C125.623 61.3475 125.648 60.486 125.623 59.6327C125.607 59.042 125.681 58.4923 126.017 58C126.354 58 126.682 58 127.01 58Z" fill="#EAB14D"/>
<path d="M105.274 58C105.274 60.4368 105.283 62.8736 105.274 65.3022C105.274 65.8027 105.439 66.1719 105.857 66.4345C105.57 66.4427 105.283 66.4427 105.004 66.4427C104.241 66.4427 103.97 66.1801 103.962 65.4253C103.954 64.3505 103.945 63.2756 103.945 62.2008C103.954 61.2655 103.986 60.3301 103.962 59.3948C103.937 58.8697 103.986 58.3938 104.372 58C104.676 58 104.971 58 105.274 58Z" fill="#EAB14D"/>
<path d="M100.023 99.9915C100.048 99.9176 100.081 100.024 100.105 99.9915C100.081 99.9915 100.056 99.9915 100.023 99.9915Z" fill="#090707"/>
<path d="M113.603 81.5229C112.848 81.5229 112.101 81.5147 111.347 81.5311C111.076 81.5393 111.002 81.4408 111.002 81.1783C111.01 79.6604 111.01 78.1508 111.002 76.6329C111.002 76.3867 111.076 76.3047 111.33 76.3047C112.873 76.3129 114.415 76.3129 115.958 76.3047C116.212 76.3047 116.286 76.3949 116.278 76.6329C116.269 78.159 116.269 79.6932 116.278 81.2193C116.278 81.4491 116.204 81.5311 115.974 81.5229C115.186 81.5147 114.391 81.5229 113.603 81.5229Z" fill="#EAB14D"/>
<path d="M120.158 81.5229C119.403 81.5229 118.657 81.5147 117.902 81.5311C117.631 81.5393 117.549 81.4573 117.557 81.1783C117.565 79.6604 117.565 78.1508 117.557 76.6329C117.557 76.3867 117.631 76.3047 117.877 76.3047C119.42 76.3129 120.962 76.3129 122.505 76.3047C122.759 76.3047 122.833 76.3867 122.833 76.6329C122.825 78.1508 122.825 79.6604 122.833 81.1783C122.833 81.4408 122.759 81.5311 122.488 81.5311C121.717 81.5147 120.938 81.5229 120.158 81.5229Z" fill="#EAB14D"/>
<path d="M104.536 78.9142C104.536 78.1757 104.544 77.4373 104.528 76.7071C104.52 76.4199 104.577 76.2969 104.905 76.3051C106.391 76.3215 107.884 76.3133 109.369 76.3051C109.623 76.3051 109.73 76.3625 109.73 76.6497C109.713 78.1675 109.713 79.6772 109.73 81.1951C109.73 81.4741 109.623 81.5315 109.369 81.5315C107.884 81.5233 106.391 81.5233 104.905 81.5315C104.627 81.5315 104.528 81.4658 104.528 81.1705C104.553 80.4156 104.536 79.669 104.536 78.9142Z" fill="#EAB14D"/>
<path d="M129.306 78.9142C129.306 79.6772 129.298 80.4403 129.315 81.2033C129.323 81.4576 129.233 81.5315 128.986 81.5233C127.469 81.5151 125.959 81.5151 124.441 81.5233C124.179 81.5233 124.121 81.4248 124.121 81.1869C124.129 79.669 124.129 78.1593 124.121 76.6415C124.121 76.3625 124.22 76.2969 124.474 76.2969C125.975 76.3051 127.477 76.3051 128.978 76.2969C129.257 76.2969 129.315 76.3953 129.315 76.6579C129.298 77.4127 129.306 78.1593 129.306 78.9142Z" fill="#EAB14D"/>
<path d="M113.645 82.7703C114.4 82.7703 115.147 82.7785 115.902 82.7621C116.172 82.7539 116.287 82.8031 116.287 83.1149C116.271 84.6164 116.279 86.126 116.287 87.6275C116.287 87.8737 116.222 87.9639 115.967 87.9557C114.425 87.9475 112.874 87.9475 111.332 87.9557C111.069 87.9557 111.012 87.8654 111.012 87.6193C111.02 86.1178 111.02 84.6082 111.012 83.1067C111.012 82.8442 111.086 82.7539 111.356 82.7539C112.111 82.7867 112.882 82.7703 113.645 82.7703Z" fill="#EAB14D"/>
<path d="M120.24 82.7695C120.994 82.7695 121.741 82.7777 122.496 82.7695C122.726 82.7695 122.84 82.8024 122.84 83.0731C122.832 84.6074 122.832 86.1335 122.84 87.6678C122.84 87.9139 122.742 87.9631 122.521 87.9631C120.978 87.9549 119.427 87.9549 117.885 87.9631C117.63 87.9631 117.557 87.8811 117.557 87.6349C117.565 86.1171 117.565 84.5992 117.557 83.0813C117.557 82.8106 117.663 82.7695 117.893 82.7695C118.681 82.7777 119.46 82.7695 120.24 82.7695Z" fill="#EAB14D"/>
<path d="M113.662 89.2509C114.408 89.2509 115.163 89.2591 115.91 89.2427C116.172 89.2345 116.271 89.3166 116.271 89.5873C116.263 91.0888 116.263 92.5903 116.271 94.0917C116.271 94.3461 116.172 94.4199 115.935 94.4199C114.408 94.4117 112.874 94.4117 111.348 94.4199C111.102 94.4199 111.012 94.3461 111.012 94.0917C111.02 92.5903 111.02 91.0888 111.012 89.5873C111.012 89.3166 111.11 89.2345 111.373 89.2427C112.136 89.2591 112.899 89.2509 113.662 89.2509Z" fill="#454045"/>
<path d="M120.19 89.2511C120.937 89.2511 121.691 89.2593 122.438 89.2428C122.709 89.2346 122.832 89.3003 122.824 89.6039C122.807 91.0889 122.815 92.5822 122.824 94.0672C122.824 94.3298 122.75 94.4282 122.479 94.42C120.961 94.4118 119.452 94.4118 117.934 94.42C117.679 94.42 117.564 94.3626 117.564 94.0836C117.573 92.5822 117.573 91.0807 117.564 89.5792C117.564 89.2921 117.688 89.2428 117.934 89.2428C118.689 89.2511 119.443 89.2511 120.19 89.2511Z" fill="#454045"/>
<path d="M107.12 87.9555C106.365 87.9555 105.619 87.9473 104.864 87.9637C104.618 87.9637 104.527 87.8981 104.536 87.6437C104.544 86.1259 104.544 84.608 104.536 83.0901C104.536 82.8358 104.618 82.7619 104.864 82.7701C106.365 82.7783 107.867 82.7783 109.376 82.7701C109.631 82.7701 109.737 82.8276 109.737 83.1065C109.721 84.608 109.729 86.1095 109.737 87.6191C109.737 87.8899 109.655 87.9719 109.385 87.9637C108.622 87.9473 107.867 87.9555 107.12 87.9555Z" fill="#EAB14D"/>
<path d="M126.68 87.9389C125.942 87.9389 125.203 87.9307 124.473 87.9389C124.227 87.9389 124.137 87.8651 124.137 87.6107C124.145 86.1092 124.145 84.6078 124.137 83.1063C124.137 82.8356 124.235 82.7617 124.498 82.7617C125.983 82.7699 127.476 82.7699 128.961 82.7617C129.224 82.7617 129.322 82.8356 129.322 83.1063C129.314 84.6078 129.314 86.1092 129.322 87.6107C129.322 87.8651 129.232 87.9389 128.986 87.9389C128.206 87.9307 127.443 87.9389 126.68 87.9389Z" fill="#454045"/>
<path d="M104.538 91.8364C104.538 91.0898 104.546 90.335 104.538 89.5883C104.538 89.3504 104.603 89.252 104.857 89.252C106.375 89.2602 107.885 89.2602 109.403 89.252C109.633 89.252 109.706 89.3422 109.706 89.5637C109.698 91.0816 109.698 92.5913 109.706 94.1092C109.706 94.3717 109.592 94.4291 109.362 94.4291C107.86 94.4209 106.359 94.4209 104.857 94.4291C104.603 94.4291 104.529 94.3389 104.529 94.0927C104.546 93.3379 104.538 92.5831 104.538 91.8364Z" fill="#454045"/>
<path d="M124.137 91.8364C124.137 91.0898 124.145 90.335 124.137 89.5883C124.137 89.3504 124.203 89.252 124.457 89.252C125.975 89.2602 127.485 89.2602 129.003 89.252C129.232 89.252 129.306 89.3422 129.306 89.5637C129.298 91.0816 129.298 92.5913 129.306 94.1092C129.306 94.3717 129.191 94.4291 128.961 94.4291C127.46 94.4209 125.959 94.4209 124.457 94.4291C124.203 94.4291 124.129 94.3389 124.129 94.0927C124.145 93.3379 124.137 92.5831 124.137 91.8364Z" fill="#454045"/>
<path d="M129.816 65.9593C129.931 65.6393 129.874 65.3111 129.882 64.983C129.89 64.0722 129.89 63.1533 129.899 62.2344C130.99 62.2344 132.081 62.2344 133.18 62.2426C134.739 62.2508 135.798 63.301 135.798 64.8681C135.798 66.7962 135.79 68.7243 135.79 70.6442C127.618 70.6442 119.438 70.6442 111.266 70.6442C107.45 70.6442 103.635 70.6442 99.8282 70.6442C99.6805 70.6442 99.5246 70.636 99.377 70.6278C99.377 67.9285 99.3852 65.2291 99.3852 62.5379C99.8118 62.3 100.271 62.2344 100.755 62.2426C101.362 62.2508 101.97 62.2508 102.577 62.259C102.577 63.7358 102.577 65.2127 102.585 66.6895C102.585 67.3951 102.921 67.8218 103.578 67.8382C104.767 67.871 105.957 67.8792 107.147 67.8382C107.787 67.8136 108.23 67.5674 108.164 66.7552C108.14 66.4844 108.156 66.2055 108.156 65.9347C108.164 64.704 108.181 63.4733 108.189 62.2508C113.382 62.2508 118.584 62.259 123.778 62.259C123.958 62.259 124.131 62.2672 124.311 62.2672C124.311 63.7933 124.311 65.3194 124.319 66.8454C124.319 67.4116 124.549 67.7069 125.074 67.7726C126.338 67.9449 127.601 67.8382 128.865 67.83C129.283 67.83 129.759 67.7233 129.858 67.2146C129.923 66.8044 129.948 66.3696 129.816 65.9593Z" fill="#665E66"/>
<path d="M108.138 65.927C108.138 66.1978 108.13 66.4767 108.146 66.7475C108.212 67.5598 107.769 67.8059 107.129 67.8305C105.939 67.8715 104.749 67.8633 103.56 67.8305C102.903 67.8141 102.567 67.3875 102.567 66.6819C102.559 65.205 102.559 63.7282 102.559 62.2513C103.01 62.1364 103.469 62.2267 103.929 62.2021C103.937 63.2769 103.937 64.3517 103.945 65.4265C103.962 66.1814 104.232 66.4521 104.995 66.4521C105.283 66.4521 105.57 66.4439 105.849 66.4439C106.267 66.4521 106.694 66.4357 107.112 66.4603C107.572 66.4767 107.908 66.3126 108.138 65.927Z" fill="#454045"/>
<path d="M99.3755 62.5371C99.3755 65.2365 99.3673 67.9358 99.3673 70.627C98.9243 70.6352 98.4894 70.6434 98.0464 70.6516C98.0464 68.6414 98.0299 66.6395 98.0464 64.6293C98.0628 63.6858 98.5468 62.9884 99.3755 62.5371Z" fill="#454045"/>
<path d="M129.817 65.9595C129.94 66.3697 129.923 66.8045 129.841 67.2066C129.743 67.7153 129.267 67.8219 128.849 67.8219C127.585 67.8301 126.313 67.9368 125.058 67.7645C124.525 67.6906 124.303 67.3953 124.303 66.8374C124.295 65.3113 124.295 63.7852 124.295 62.2591C124.73 62.1443 125.173 62.2345 125.616 62.2099C125.624 63.2355 125.632 64.2611 125.632 65.2867C125.632 66.181 125.911 66.4599 126.806 66.4599C127.068 66.4599 127.322 66.4517 127.585 66.4435C128.012 66.4517 128.447 66.4353 128.873 66.4599C129.292 66.4763 129.603 66.3123 129.817 65.9595Z" fill="#454045"/>
</g>
<path d="M40.6023 163.543H34.6364L41.358 143.179H48.9148L55.6364 163.543H49.6705L45.2159 148.787H45.0568L40.6023 163.543ZM39.4886 155.509H50.7045V159.645H39.4886V155.509ZM65.8281 148.27V152.248H55.7656V148.27H65.8281ZM57.7145 144.611H63.2031V158.631C63.2031 158.843 63.2396 159.022 63.3125 159.168C63.3854 159.307 63.4981 159.413 63.6506 159.486C63.803 159.552 63.9986 159.586 64.2372 159.586C64.4029 159.586 64.5952 159.566 64.8139 159.526C65.0393 159.486 65.205 159.453 65.3111 159.426L66.1065 163.284C65.8613 163.357 65.5099 163.447 65.0526 163.553C64.6018 163.659 64.0649 163.729 63.4418 163.762C62.1823 163.828 61.125 163.699 60.2699 163.374C59.4148 163.042 58.7718 162.522 58.3409 161.813C57.91 161.104 57.7012 160.215 57.7145 159.148V144.611ZM77.1758 148.27V152.248H67.1133V148.27H77.1758ZM69.0621 144.611H74.5508V158.631C74.5508 158.843 74.5872 159.022 74.6602 159.168C74.7331 159.307 74.8458 159.413 74.9982 159.486C75.1507 159.552 75.3462 159.586 75.5849 159.586C75.7506 159.586 75.9428 159.566 76.1616 159.526C76.387 159.486 76.5527 159.453 76.6587 159.426L77.4542 163.284C77.2089 163.357 76.8576 163.447 76.4002 163.553C75.9495 163.659 75.4125 163.729 74.7894 163.762C73.5299 163.828 72.4727 163.699 71.6175 163.374C70.7624 163.042 70.1194 162.522 69.6886 161.813C69.2577 161.104 69.0489 160.215 69.0621 159.148V144.611ZM86.5696 163.821C84.9389 163.821 83.5336 163.51 82.3537 162.887C81.1804 162.257 80.2756 161.355 79.6392 160.182C79.0095 159.002 78.6946 157.59 78.6946 155.946C78.6946 154.369 79.0128 152.99 79.6491 151.81C80.2855 150.63 81.1837 149.712 82.3438 149.056C83.5038 148.4 84.8726 148.071 86.4503 148.071C87.6037 148.071 88.6477 148.25 89.5824 148.608C90.517 148.966 91.3158 149.487 91.9787 150.169C92.6416 150.846 93.152 151.667 93.5099 152.635C93.8679 153.603 94.0469 154.694 94.0469 155.907V157.179H80.4048V154.157H88.9957C88.9891 153.719 88.8764 153.335 88.6577 153.003C88.4455 152.665 88.1572 152.403 87.7926 152.218C87.4347 152.025 87.027 151.929 86.5696 151.929C86.1255 151.929 85.7178 152.025 85.3466 152.218C84.9754 152.403 84.6771 152.662 84.4517 152.993C84.233 153.325 84.117 153.712 84.1037 154.157V157.418C84.1037 157.908 84.2064 158.346 84.4119 158.73C84.6174 159.115 84.9124 159.417 85.2969 159.635C85.6813 159.854 86.1454 159.963 86.6889 159.963C87.0668 159.963 87.4115 159.91 87.723 159.804C88.0412 159.698 88.313 159.546 88.5384 159.347C88.7637 159.141 88.9295 158.896 89.0355 158.611H94.0469C93.8745 159.672 93.4669 160.593 92.8239 161.375C92.1809 162.151 91.3291 162.754 90.2685 163.185C89.2145 163.609 87.9815 163.821 86.5696 163.821ZM101.775 154.952V163.543H96.2866V148.27H101.497V151.174H101.656C101.987 150.206 102.571 149.447 103.406 148.897C104.248 148.346 105.229 148.071 106.349 148.071C107.43 148.071 108.368 148.32 109.163 148.817C109.965 149.308 110.585 149.984 111.022 150.846C111.467 151.707 111.685 152.692 111.679 153.799V163.543H106.19V154.952C106.197 154.196 106.004 153.603 105.613 153.172C105.229 152.741 104.692 152.526 104.002 152.526C103.552 152.526 103.157 152.625 102.819 152.824C102.488 153.016 102.233 153.295 102.054 153.659C101.875 154.017 101.782 154.448 101.775 154.952ZM119.917 163.742C118.829 163.742 117.828 163.457 116.914 162.887C116.006 162.317 115.276 161.452 114.726 160.292C114.183 159.132 113.911 157.67 113.911 155.907C113.911 154.064 114.196 152.566 114.766 151.412C115.343 150.259 116.085 149.414 116.993 148.877C117.908 148.34 118.869 148.071 119.877 148.071C120.632 148.071 121.295 148.204 121.865 148.469C122.435 148.728 122.913 149.076 123.297 149.513C123.682 149.944 123.973 150.418 124.172 150.935H124.252V143.179H129.74V163.543H124.292V161.037H124.172C123.96 161.554 123.655 162.018 123.257 162.429C122.866 162.834 122.389 163.155 121.826 163.394C121.269 163.626 120.632 163.742 119.917 163.742ZM121.945 159.526C122.449 159.526 122.88 159.38 123.238 159.088C123.602 158.79 123.881 158.373 124.073 157.836C124.272 157.292 124.371 156.649 124.371 155.907C124.371 155.151 124.272 154.505 124.073 153.968C123.881 153.424 123.602 153.01 123.238 152.725C122.88 152.433 122.449 152.287 121.945 152.287C121.441 152.287 121.01 152.433 120.652 152.725C120.301 153.01 120.029 153.424 119.837 153.968C119.651 154.505 119.559 155.151 119.559 155.907C119.559 156.662 119.651 157.312 119.837 157.855C120.029 158.392 120.301 158.807 120.652 159.098C121.01 159.383 121.441 159.526 121.945 159.526ZM136.691 163.782C135.716 163.782 134.855 163.623 134.105 163.304C133.363 162.98 132.78 162.489 132.355 161.833C131.931 161.176 131.719 160.341 131.719 159.327C131.719 158.492 131.862 157.779 132.147 157.189C132.432 156.593 132.829 156.105 133.34 155.728C133.85 155.35 134.444 155.061 135.12 154.863C135.802 154.664 136.538 154.534 137.327 154.475C138.182 154.408 138.868 154.329 139.385 154.236C139.909 154.137 140.287 154.001 140.519 153.828C140.751 153.65 140.867 153.414 140.867 153.123V153.083C140.867 152.685 140.714 152.38 140.409 152.168C140.105 151.956 139.713 151.85 139.236 151.85C138.712 151.85 138.285 151.966 137.953 152.198C137.629 152.423 137.433 152.771 137.367 153.242H132.316C132.382 152.314 132.677 151.459 133.201 150.676C133.731 149.888 134.503 149.258 135.517 148.787C136.532 148.31 137.798 148.071 139.316 148.071C140.409 148.071 141.391 148.201 142.259 148.459C143.127 148.711 143.866 149.066 144.476 149.523C145.086 149.974 145.55 150.504 145.868 151.114C146.193 151.717 146.355 152.373 146.355 153.083V163.543H141.225V161.395H141.105C140.801 161.965 140.429 162.426 139.992 162.777C139.561 163.129 139.067 163.384 138.51 163.543C137.96 163.702 137.354 163.782 136.691 163.782ZM138.48 160.321C138.898 160.321 139.289 160.235 139.654 160.063C140.025 159.891 140.327 159.642 140.559 159.317C140.791 158.992 140.907 158.598 140.907 158.134V156.861C140.761 156.921 140.605 156.977 140.439 157.03C140.28 157.083 140.108 157.133 139.922 157.179C139.743 157.226 139.551 157.269 139.346 157.309C139.147 157.348 138.938 157.385 138.719 157.418C138.295 157.484 137.947 157.594 137.675 157.746C137.41 157.892 137.211 158.074 137.078 158.293C136.953 158.505 136.89 158.744 136.89 159.009C136.89 159.433 137.039 159.758 137.337 159.983C137.635 160.209 138.016 160.321 138.48 160.321ZM154.467 154.952V163.543H148.978V148.27H154.188V151.174H154.347C154.679 150.206 155.262 149.447 156.097 148.897C156.939 148.346 157.92 148.071 159.04 148.071C160.121 148.071 161.059 148.32 161.854 148.817C162.656 149.308 163.276 149.984 163.714 150.846C164.158 151.707 164.377 152.692 164.37 153.799V163.543H158.881V154.952C158.888 154.196 158.696 153.603 158.305 153.172C157.92 152.741 157.383 152.526 156.694 152.526C156.243 152.526 155.849 152.625 155.511 152.824C155.179 153.016 154.924 153.295 154.745 153.659C154.566 154.017 154.473 154.448 154.467 154.952ZM174.438 163.821C172.78 163.821 171.362 163.493 170.182 162.837C169.002 162.174 168.097 161.253 167.467 160.073C166.838 158.886 166.523 157.511 166.523 155.946C166.523 154.382 166.838 153.01 167.467 151.83C168.097 150.643 169.002 149.722 170.182 149.066C171.362 148.403 172.78 148.071 174.438 148.071C175.936 148.071 177.232 148.343 178.325 148.887C179.426 149.424 180.277 150.186 180.881 151.174C181.484 152.155 181.789 153.308 181.795 154.634H176.705C176.632 153.832 176.4 153.222 176.009 152.804C175.624 152.38 175.127 152.168 174.517 152.168C174.04 152.168 173.622 152.307 173.264 152.586C172.906 152.857 172.628 153.272 172.429 153.828C172.23 154.379 172.131 155.071 172.131 155.907C172.131 156.742 172.23 157.438 172.429 157.995C172.628 158.545 172.906 158.959 173.264 159.238C173.622 159.509 174.04 159.645 174.517 159.645C174.921 159.645 175.279 159.552 175.591 159.367C175.902 159.175 176.154 158.896 176.347 158.532C176.545 158.16 176.665 157.71 176.705 157.179H181.795C181.776 158.525 181.467 159.698 180.871 160.699C180.274 161.694 179.429 162.462 178.335 163.006C177.248 163.55 175.949 163.821 174.438 163.821ZM191.378 163.821C189.748 163.821 188.342 163.51 187.162 162.887C185.989 162.257 185.084 161.355 184.448 160.182C183.818 159.002 183.503 157.59 183.503 155.946C183.503 154.369 183.821 152.99 184.458 151.81C185.094 150.63 185.992 149.712 187.152 149.056C188.312 148.4 189.681 148.071 191.259 148.071C192.412 148.071 193.456 148.25 194.391 148.608C195.326 148.966 196.124 149.487 196.787 150.169C197.45 150.846 197.961 151.667 198.319 152.635C198.676 153.603 198.855 154.694 198.855 155.907V157.179H185.213V154.157H193.804C193.798 153.719 193.685 153.335 193.466 153.003C193.254 152.665 192.966 152.403 192.601 152.218C192.243 152.025 191.836 151.929 191.378 151.929C190.934 151.929 190.526 152.025 190.155 152.218C189.784 152.403 189.486 152.662 189.26 152.993C189.042 153.325 188.926 153.712 188.912 154.157V157.418C188.912 157.908 189.015 158.346 189.221 158.73C189.426 159.115 189.721 159.417 190.105 159.635C190.49 159.854 190.954 159.963 191.498 159.963C191.875 159.963 192.22 159.91 192.532 159.804C192.85 159.698 193.122 159.546 193.347 159.347C193.572 159.141 193.738 158.896 193.844 158.611H198.855C198.683 159.672 198.275 160.593 197.632 161.375C196.989 162.151 196.138 162.754 195.077 163.185C194.023 163.609 192.79 163.821 191.378 163.821Z" fill="#4A5568"/>
</g>
<defs>
<filter id="filter0_d_4325_10053" x="0.217206" y="0.211538" width="253.36" height="227.631" filterUnits="userSpaceOnUse" color-interpolation-filters="sRGB">
<feFlood flood-opacity="0" result="BackgroundImageFix"/>
<feColorMatrix in="SourceAlpha" type="matrix" values="0 0 0 0 0 0 0 0 0 0 0 0 0 0 0 0 0 0 127 0" result="hardAlpha"/>
<feOffset dx="9.39704" dy="10.1199"/>
<feGaussianBlur stdDeviation="7.58992"/>
<feComposite in2="hardAlpha" operator="out"/>
<feColorMatrix type="matrix" values="0 0 0 0 0.0375 0 0 0 0 0.18975 0 0 0 0 0.3 0 0 0 0.06 0"/>
<feBlend mode="normal" in2="BackgroundImageFix" result="effect1_dropShadow_4325_10053"/>
<feBlend mode="normal" in="SourceGraphic" in2="effect1_dropShadow_4325_10053" result="shape"/>
</filter>
<clipPath id="clip0_4325_10053">
<rect width="37.832" height="42" fill="white" transform="translate(98 58)"/>
</clipPath>
</defs>
</svg>
