<svg width="238" height="228" viewBox="0 0 238 228" fill="none" xmlns="http://www.w3.org/2000/svg">
<g filter="url(#filter0_d_4325_10094)">
<rect x="6" y="5.27148" width="207" height="197.272" rx="16" fill="#FFCF54"/>
<rect x="67.8633" y="37.2715" width="83.2722" height="83.2722" rx="14.457" fill="#E8ECEF"/>
<path d="M111.961 99.9218C111.961 96.9715 111.961 94.0212 111.961 91.0709C111.961 88.1647 113.205 85.985 115.726 84.5318C118.346 83.0127 120.966 81.4825 123.586 79.9523C123.652 79.9193 123.696 79.8532 123.74 79.7982C124.566 79.7761 125.424 79.6991 126.096 80.2935C126.525 80.6678 126.635 80.5467 126.778 80.0844C127.626 77.3983 128.507 74.7232 129.376 72.0371C129.52 71.5858 129.707 71.1454 130.037 70.7822C130.764 69.9895 131.677 69.8134 132.69 69.9015C133.604 70.3198 134.33 70.9032 134.562 71.9491C134.672 72.4555 134.606 72.9288 134.473 73.4132C133.24 78.0368 131.997 82.6714 130.753 87.295C130.532 88.1096 130.103 88.7811 129.465 89.3536C127.571 91.0159 125.689 92.7112 123.795 94.3845C122.903 95.1771 122.463 96.1459 122.496 97.3348C122.518 98.1935 122.496 99.0521 122.496 99.9218C119.006 99.9218 115.484 99.9218 111.961 99.9218ZM127.021 81.7136C126.547 82.3852 126.03 82.8916 125.336 83.2438C123.553 84.1796 121.814 85.1813 120.052 86.1501C119.854 86.2602 119.689 86.3923 119.667 86.6455C119.645 86.9647 119.634 87.273 119.942 87.4821C120.239 87.6913 120.537 87.6142 120.823 87.4601C122.496 86.5574 124.18 85.6657 125.832 84.719C126.933 84.1025 127.395 82.8806 127.021 81.7136Z" fill="#665E66"/>
<path d="M94.9405 79.8952C97.8467 81.5134 100.731 83.1647 103.549 84.9481C105.63 86.2581 106.643 88.2837 106.676 90.7386C106.72 93.799 106.687 96.8593 106.687 99.9307C103.164 99.9307 99.6411 99.9307 96.1184 99.9307C96.1074 98.8189 96.1514 97.696 96.0634 96.5841C95.9973 95.7255 95.5239 95.0099 94.8634 94.4375C92.9479 92.7421 91.0435 91.0248 89.117 89.3295C88.5335 88.8231 88.1262 88.2176 87.917 87.469C86.651 82.7574 85.3741 78.0457 84.1191 73.323C83.7228 71.8369 84.3282 70.67 85.7483 70.0315C85.8144 69.9985 85.8694 69.9544 85.9245 69.9214C87.6969 69.8884 88.6436 70.4058 89.128 71.7378C89.5133 72.7836 89.8215 73.8625 90.1738 74.9193C90.7572 76.7137 91.3407 78.5081 91.9131 80.3025C92.0232 80.6547 92.1223 80.6217 92.3865 80.4126C93.1461 79.7961 94.0048 79.642 94.9405 79.8952ZM91.6159 81.7666C91.4067 82.6033 91.4728 83.3518 92.0342 84.0344C92.5186 84.6178 93.1791 84.9261 93.8286 85.2783C95.1717 86.0159 96.5147 86.7645 97.8688 87.4911C98.3311 87.7443 98.7274 87.6232 98.9146 87.2489C99.1017 86.8746 98.9586 86.3682 98.5843 86.159C97.0761 85.3224 95.568 84.4967 94.0708 83.6711C93.1571 83.1757 92.1994 82.7354 91.6159 81.7666Z" fill="#665E66"/>
<path d="M96.1088 99.9209C99.6316 99.9209 103.154 99.9209 106.677 99.9209C107.558 99.9649 107.558 99.9649 107.558 100.89C107.558 102.761 107.547 104.633 107.569 106.504C107.569 106.878 107.492 106.999 107.095 106.999C103.297 106.988 99.4995 106.988 95.7125 106.999C95.3162 106.999 95.2282 106.878 95.2392 106.504C95.2612 104.544 95.2722 102.585 95.2392 100.614C95.2282 100.075 95.3493 99.8328 95.9107 99.9319C95.9657 99.9429 96.0428 99.9209 96.1088 99.9209Z" fill="#454045"/>
<path d="M111.96 99.9209C115.483 99.9209 119.006 99.9209 122.529 99.9209C123.409 99.9649 123.409 99.9649 123.409 100.89C123.409 102.761 123.398 104.633 123.42 106.504C123.42 106.878 123.343 106.999 122.947 106.999C119.149 106.988 115.351 106.988 111.564 106.999C111.168 106.999 111.08 106.878 111.091 106.504C111.113 104.544 111.124 102.585 111.091 100.614C111.08 100.075 111.201 99.8328 111.762 99.9319C111.806 99.9429 111.883 99.9209 111.96 99.9209Z" fill="#454045"/>
<path d="M94.9409 79.8965C94.0162 79.6433 93.1576 79.7974 92.409 80.3919C92.1448 80.601 92.0457 80.6341 91.9356 80.2818C91.3632 78.4874 90.7797 76.693 90.1963 74.8986C89.855 73.8418 89.5357 72.7629 89.1504 71.7171C88.6661 70.3741 87.7193 69.8567 85.947 69.9007C85.2644 68.2164 86.6405 66.2018 88.545 66.378C89.6568 66.4771 90.4935 67.0495 90.8678 68.1173C92.2439 72.0033 93.5759 75.9004 94.9189 79.7974C94.9299 79.8194 94.9299 79.8635 94.9409 79.8965Z" fill="#454045"/>
<path d="M132.7 69.9014C131.687 69.8133 130.773 69.9895 130.047 70.7821C129.717 71.1454 129.529 71.5747 129.386 72.0371C128.517 74.7121 127.636 77.3982 126.788 80.0843C126.634 80.5577 126.535 80.6788 126.106 80.2935C125.434 79.71 124.576 79.7761 123.75 79.7981C124.499 77.6074 125.247 75.4167 125.996 73.226C126.557 71.6077 127.13 69.9895 127.68 68.3602C128.186 66.874 129.596 66.0594 130.972 66.4447C132.436 66.863 133.261 68.5473 132.7 69.9014Z" fill="#454045"/>
<path d="M127.02 81.7129C127.405 82.8798 126.932 84.1017 125.831 84.7292C124.179 85.665 122.495 86.5567 120.822 87.4704C120.536 87.6245 120.238 87.7015 119.941 87.4924C119.633 87.2832 119.644 86.975 119.666 86.6557C119.677 86.4025 119.842 86.2704 120.051 86.1603C121.813 85.1916 123.563 84.1898 125.335 83.2541C126.018 82.8908 126.535 82.3844 127.02 81.7129Z" fill="#454045"/>
<path d="M91.6151 81.7676C92.1986 82.7363 93.1563 83.1657 94.07 83.6721C95.5782 84.4977 97.0864 85.3233 98.5835 86.16C98.9578 86.3692 99.1009 86.8755 98.9138 87.2498C98.7267 87.6241 98.3304 87.7452 97.868 87.492C96.5139 86.7655 95.1709 86.0169 93.8279 85.2793C93.1894 84.927 92.5178 84.6298 92.0335 84.0353C91.472 83.3528 91.406 82.6042 91.6151 81.7676Z" fill="#454045"/>
<circle cx="109" cy="66" r="12" fill="#665E66"/>
<path d="M113.334 67.6699C112.939 67.6699 112.533 67.7011 112.138 67.6595C111.722 67.6178 111.659 67.7947 111.67 68.1484C111.691 68.9808 111.67 69.8131 111.68 70.6454C111.68 70.9055 111.628 71.0096 111.337 70.9992C110.473 70.9783 109.61 70.9783 108.736 70.9992C108.424 71.0096 108.32 70.9263 108.33 70.6038C108.351 69.7403 108.33 68.8767 108.34 68.0028C108.351 67.7323 108.268 67.649 107.997 67.6595C107.134 67.6803 106.27 67.6595 105.396 67.6699C105.126 67.6699 104.99 67.649 105.001 67.3161C105.022 66.4318 105.022 65.5474 105.001 64.6631C104.99 64.3718 105.094 64.3197 105.354 64.3301C106.166 64.3406 106.988 64.2989 107.799 64.351C108.288 64.3822 108.361 64.2053 108.34 63.7787C108.309 62.988 108.34 62.1869 108.33 61.3858C108.32 61.1049 108.392 60.9904 108.694 61.0008C109.558 61.0217 110.421 61.0217 111.295 61.0008C111.587 60.9904 111.68 61.0737 111.67 61.3754C111.649 62.2389 111.67 63.1025 111.659 63.9764C111.649 64.2677 111.743 64.3614 112.034 64.351C112.897 64.3301 113.761 64.3614 114.635 64.3406C114.937 64.3301 115.009 64.4342 114.999 64.7151C114.978 65.5786 114.978 66.4422 114.999 67.3161C115.009 67.6282 114.895 67.6907 114.614 67.6803C114.198 67.6595 113.761 67.6699 113.334 67.6699Z" fill="#F4DD45"/>
<path d="M112.334 67.6699C111.939 67.6699 111.533 67.7011 111.138 67.6595C110.722 67.6178 110.659 67.7947 110.67 68.1484C110.691 68.9808 110.67 69.8131 110.68 70.6454C110.68 70.9055 110.628 71.0096 110.337 70.9992C109.473 70.9783 108.61 70.9783 107.736 70.9992C107.424 71.0096 107.32 70.9263 107.33 70.6038C107.351 69.7403 107.33 68.8767 107.34 68.0028C107.351 67.7323 107.268 67.649 106.997 67.6595C106.134 67.6803 105.27 67.6595 104.396 67.6699C104.126 67.6699 103.99 67.649 104.001 67.3161C104.022 66.4318 104.022 65.5474 104.001 64.6631C103.99 64.3718 104.094 64.3197 104.354 64.3301C105.166 64.3406 105.988 64.2989 106.799 64.351C107.288 64.3822 107.361 64.2053 107.34 63.7787C107.309 62.988 107.34 62.1869 107.33 61.3858C107.32 61.1049 107.392 60.9904 107.694 61.0008C108.558 61.0217 109.421 61.0217 110.295 61.0008C110.587 60.9904 110.68 61.0737 110.67 61.3754C110.649 62.2389 110.67 63.1025 110.659 63.9764C110.649 64.2677 110.743 64.3614 111.034 64.351C111.897 64.3301 112.761 64.3614 113.635 64.3406C113.937 64.3301 114.009 64.4342 113.999 64.7151C113.978 65.5786 113.978 66.4422 113.999 67.3161C114.009 67.6282 113.895 67.6907 113.614 67.6803C113.198 67.6595 112.761 67.6699 112.334 67.6699Z" fill="#EAB14D"/>
<path d="M45.8409 143.636V164H40.3125V143.636H45.8409ZM54.0291 155.409V164H48.5405V148.727H53.7507V151.631H53.9098C54.2412 150.663 54.8246 149.904 55.6598 149.354C56.5017 148.804 57.4827 148.528 58.603 148.528C59.6835 148.528 60.6214 148.777 61.4169 149.274C62.219 149.765 62.8388 150.441 63.2763 151.303C63.7204 152.164 63.9392 153.149 63.9325 154.256V164H58.4439V155.409C58.4505 154.653 58.2583 154.06 57.8672 153.629C57.4827 153.198 56.9458 152.983 56.2564 152.983C55.8056 152.983 55.4112 153.082 55.0732 153.281C54.7417 153.473 54.4865 153.752 54.3075 154.116C54.1286 154.474 54.0357 154.905 54.0291 155.409ZM80.6023 153.699H75.5511C75.5246 153.387 75.4152 153.119 75.223 152.893C75.0308 152.668 74.7822 152.496 74.4773 152.376C74.179 152.25 73.8475 152.188 73.483 152.188C73.0123 152.188 72.608 152.274 72.2699 152.446C71.9318 152.618 71.7661 152.864 71.7727 153.182C71.7661 153.407 71.8622 153.616 72.0611 153.808C72.2666 154 72.661 154.15 73.2443 154.256L76.3466 154.812C77.911 155.098 79.0743 155.578 79.8366 156.254C80.6056 156.924 80.9934 157.822 81 158.949C80.9934 160.036 80.6686 160.981 80.0256 161.783C79.3892 162.578 78.5175 163.195 77.4105 163.632C76.3101 164.063 75.054 164.278 73.642 164.278C71.3087 164.278 69.4825 163.801 68.1634 162.847C66.8509 161.892 66.1184 160.633 65.9659 159.068H71.4148C71.4877 159.552 71.7263 159.927 72.1307 160.192C72.5417 160.45 73.0587 160.58 73.6818 160.58C74.1856 160.58 74.5999 160.493 74.9247 160.321C75.2562 160.149 75.4252 159.903 75.4318 159.585C75.4252 159.294 75.2794 159.062 74.9943 158.889C74.7159 158.717 74.2784 158.578 73.6818 158.472L70.9773 157.994C69.4195 157.723 68.2528 157.205 67.4773 156.443C66.7017 155.681 66.3172 154.7 66.3239 153.5C66.3172 152.439 66.5956 151.541 67.1591 150.805C67.7292 150.063 68.5412 149.5 69.5952 149.115C70.6558 148.724 71.9119 148.528 73.3636 148.528C75.571 148.528 77.3111 148.986 78.5838 149.901C79.8632 150.815 80.536 152.081 80.6023 153.699ZM93.0064 157.318V148.727H98.495V164H93.2848V161.097H93.1257C92.7943 162.071 92.2143 162.833 91.3857 163.384C90.5571 163.927 89.5727 164.199 88.4325 164.199C87.3653 164.199 86.4306 163.954 85.6286 163.463C84.8331 162.973 84.2133 162.296 83.7692 161.435C83.3317 160.573 83.1096 159.585 83.103 158.472V148.727H88.5916V157.318C88.5982 158.074 88.7905 158.667 89.1683 159.098C89.5528 159.529 90.0897 159.744 90.7791 159.744C91.2365 159.744 91.6309 159.648 91.9624 159.456C92.3004 159.257 92.5589 158.979 92.7379 158.621C92.9235 158.256 93.013 157.822 93.0064 157.318ZM101.287 164V148.727H106.616V151.631H106.775C107.054 150.557 107.494 149.771 108.098 149.274C108.708 148.777 109.42 148.528 110.235 148.528C110.474 148.528 110.709 148.548 110.941 148.588C111.18 148.621 111.409 148.671 111.627 148.737V153.42C111.356 153.328 111.021 153.258 110.623 153.212C110.225 153.165 109.884 153.142 109.599 153.142C109.062 153.142 108.578 153.265 108.147 153.51C107.723 153.749 107.388 154.087 107.143 154.524C106.898 154.955 106.775 155.462 106.775 156.045V164H101.287ZM116.972 164.239C115.998 164.239 115.136 164.08 114.387 163.761C113.644 163.437 113.061 162.946 112.637 162.29C112.212 161.634 112 160.798 112 159.784C112 158.949 112.143 158.236 112.428 157.646C112.713 157.05 113.111 156.562 113.621 156.185C114.132 155.807 114.725 155.518 115.401 155.32C116.084 155.121 116.819 154.991 117.608 154.932C118.463 154.866 119.15 154.786 119.667 154.693C120.19 154.594 120.568 154.458 120.8 154.286C121.032 154.107 121.148 153.871 121.148 153.58V153.54C121.148 153.142 120.996 152.837 120.691 152.625C120.386 152.413 119.995 152.307 119.517 152.307C118.994 152.307 118.566 152.423 118.235 152.655C117.91 152.88 117.714 153.228 117.648 153.699H112.597C112.663 152.771 112.958 151.916 113.482 151.134C114.012 150.345 114.784 149.715 115.799 149.244C116.813 148.767 118.079 148.528 119.597 148.528C120.691 148.528 121.672 148.658 122.54 148.916C123.408 149.168 124.148 149.523 124.757 149.98C125.367 150.431 125.831 150.961 126.15 151.571C126.474 152.174 126.637 152.83 126.637 153.54V164H121.506V161.852H121.387C121.082 162.422 120.711 162.883 120.273 163.234C119.842 163.586 119.348 163.841 118.792 164C118.241 164.159 117.635 164.239 116.972 164.239ZM118.762 160.778C119.179 160.778 119.57 160.692 119.935 160.52C120.306 160.348 120.608 160.099 120.84 159.774C121.072 159.449 121.188 159.055 121.188 158.591V157.318C121.042 157.378 120.886 157.434 120.721 157.487C120.561 157.54 120.389 157.59 120.203 157.636C120.025 157.683 119.832 157.726 119.627 157.766C119.428 157.805 119.219 157.842 119 157.875C118.576 157.941 118.228 158.051 117.956 158.203C117.691 158.349 117.492 158.531 117.36 158.75C117.234 158.962 117.171 159.201 117.171 159.466C117.171 159.89 117.32 160.215 117.618 160.44C117.917 160.666 118.298 160.778 118.762 160.778ZM134.748 155.409V164H129.259V148.727H134.469V151.631H134.629C134.96 150.663 135.543 149.904 136.379 149.354C137.22 148.804 138.201 148.528 139.322 148.528C140.402 148.528 141.34 148.777 142.136 149.274C142.938 149.765 143.558 150.441 143.995 151.303C144.439 152.164 144.658 153.149 144.651 154.256V164H139.163V155.409C139.169 154.653 138.977 154.06 138.586 153.629C138.201 153.198 137.665 152.983 136.975 152.983C136.524 152.983 136.13 153.082 135.792 153.281C135.46 153.473 135.205 153.752 135.026 154.116C134.847 154.474 134.754 154.905 134.748 155.409ZM154.719 164.278C153.062 164.278 151.643 163.95 150.463 163.294C149.283 162.631 148.378 161.71 147.749 160.53C147.119 159.343 146.804 157.968 146.804 156.403C146.804 154.839 147.119 153.467 147.749 152.287C148.378 151.1 149.283 150.179 150.463 149.523C151.643 148.86 153.062 148.528 154.719 148.528C156.217 148.528 157.513 148.8 158.607 149.344C159.707 149.881 160.559 150.643 161.162 151.631C161.765 152.612 162.07 153.765 162.077 155.091H156.986C156.913 154.289 156.681 153.679 156.29 153.261C155.905 152.837 155.408 152.625 154.798 152.625C154.321 152.625 153.903 152.764 153.545 153.043C153.188 153.314 152.909 153.729 152.71 154.286C152.511 154.836 152.412 155.528 152.412 156.364C152.412 157.199 152.511 157.895 152.71 158.452C152.909 159.002 153.188 159.416 153.545 159.695C153.903 159.966 154.321 160.102 154.798 160.102C155.203 160.102 155.561 160.009 155.872 159.824C156.184 159.632 156.436 159.353 156.628 158.989C156.827 158.617 156.946 158.167 156.986 157.636H162.077C162.057 158.982 161.749 160.155 161.152 161.156C160.555 162.151 159.71 162.92 158.616 163.463C157.529 164.007 156.23 164.278 154.719 164.278ZM171.659 164.278C170.029 164.278 168.623 163.967 167.444 163.344C166.27 162.714 165.365 161.812 164.729 160.639C164.099 159.459 163.784 158.047 163.784 156.403C163.784 154.826 164.103 153.447 164.739 152.267C165.375 151.087 166.274 150.169 167.434 149.513C168.594 148.857 169.962 148.528 171.54 148.528C172.694 148.528 173.738 148.707 174.672 149.065C175.607 149.423 176.406 149.944 177.069 150.626C177.731 151.303 178.242 152.125 178.6 153.092C178.958 154.06 179.137 155.151 179.137 156.364V157.636H165.495V154.614H174.086C174.079 154.176 173.966 153.792 173.748 153.46C173.535 153.122 173.247 152.86 172.882 152.675C172.525 152.482 172.117 152.386 171.659 152.386C171.215 152.386 170.808 152.482 170.436 152.675C170.065 152.86 169.767 153.119 169.542 153.45C169.323 153.782 169.207 154.17 169.194 154.614V157.875C169.194 158.366 169.296 158.803 169.502 159.188C169.707 159.572 170.002 159.874 170.387 160.092C170.771 160.311 171.235 160.42 171.779 160.42C172.157 160.42 172.501 160.367 172.813 160.261C173.131 160.155 173.403 160.003 173.628 159.804C173.854 159.598 174.019 159.353 174.125 159.068H179.137C178.964 160.129 178.557 161.05 177.914 161.832C177.271 162.608 176.419 163.211 175.358 163.642C174.304 164.066 173.071 164.278 171.659 164.278Z" fill="#4A5568"/>
</g>
<defs>
<filter id="filter0_d_4325_10094" x="0.217206" y="0.211538" width="237.36" height="227.631" filterUnits="userSpaceOnUse" color-interpolation-filters="sRGB">
<feFlood flood-opacity="0" result="BackgroundImageFix"/>
<feColorMatrix in="SourceAlpha" type="matrix" values="0 0 0 0 0 0 0 0 0 0 0 0 0 0 0 0 0 0 127 0" result="hardAlpha"/>
<feOffset dx="9.39704" dy="10.1199"/>
<feGaussianBlur stdDeviation="7.58992"/>
<feComposite in2="hardAlpha" operator="out"/>
<feColorMatrix type="matrix" values="0 0 0 0 0.0375 0 0 0 0 0.18975 0 0 0 0 0.3 0 0 0 0.06 0"/>
<feBlend mode="normal" in2="BackgroundImageFix" result="effect1_dropShadow_4325_10094"/>
<feBlend mode="normal" in="SourceGraphic" in2="effect1_dropShadow_4325_10094" result="shape"/>
</filter>
</defs>
</svg>
