<svg width="370" height="165" viewBox="0 0 370 165" fill="none" xmlns="http://www.w3.org/2000/svg">
<g filter="url(#filter0_d_4325_10115)">
<rect x="6" y="6" width="339" height="133" rx="20" fill="#FFCF54"/>
<path d="M27.3125 54V33.6364H36.1023C37.6136 33.6364 38.9361 33.9347 40.0696 34.5312C41.2031 35.1278 42.0848 35.9664 42.7145 37.0469C43.3442 38.1274 43.6591 39.3902 43.6591 40.8352C43.6591 42.2936 43.3343 43.5563 42.6847 44.6236C42.0417 45.6908 41.1368 46.5128 39.9702 47.0895C38.8101 47.6662 37.4545 47.9545 35.9034 47.9545H30.6534V43.6591H34.7898C35.4394 43.6591 35.9929 43.5464 36.4503 43.321C36.9143 43.089 37.2689 42.7609 37.5142 42.3366C37.7661 41.9124 37.892 41.4119 37.892 40.8352C37.892 40.2519 37.7661 39.7547 37.5142 39.3438C37.2689 38.9261 36.9143 38.608 36.4503 38.3892C35.9929 38.1638 35.4394 38.0511 34.7898 38.0511H32.8409V54H27.3125ZM52.7571 54.2784C51.1264 54.2784 49.7211 53.9669 48.5412 53.3438C47.3679 52.714 46.4631 51.8125 45.8267 50.6392C45.197 49.4593 44.8821 48.0473 44.8821 46.4034C44.8821 44.8258 45.2003 43.447 45.8366 42.267C46.473 41.0871 47.3712 40.169 48.5312 39.5128C49.6913 38.8565 51.0601 38.5284 52.6378 38.5284C53.7912 38.5284 54.8352 38.7074 55.7699 39.0653C56.7045 39.4233 57.5033 39.9437 58.1662 40.6264C58.8291 41.3026 59.3395 42.1245 59.6974 43.0923C60.0554 44.0601 60.2344 45.1506 60.2344 46.3636V47.6364H46.5923V44.6136H55.1832C55.1766 44.1761 55.0639 43.7917 54.8452 43.4602C54.633 43.1222 54.3447 42.8603 53.9801 42.6747C53.6222 42.4825 53.2145 42.3864 52.7571 42.3864C52.313 42.3864 51.9053 42.4825 51.5341 42.6747C51.1629 42.8603 50.8646 43.1188 50.6392 43.4503C50.4205 43.7817 50.3045 44.1695 50.2912 44.6136V47.875C50.2912 48.3655 50.3939 48.803 50.5994 49.1875C50.8049 49.572 51.0999 49.8736 51.4844 50.0923C51.8688 50.3111 52.3329 50.4205 52.8764 50.4205C53.2543 50.4205 53.599 50.3674 53.9105 50.2614C54.2287 50.1553 54.5005 50.0028 54.7259 49.804C54.9512 49.5985 55.117 49.3532 55.223 49.0682H60.2344C60.062 50.1288 59.6544 51.0502 59.0114 51.8324C58.3684 52.608 57.5166 53.2112 56.456 53.642C55.402 54.0663 54.169 54.2784 52.7571 54.2784ZM62.4741 54V38.7273H67.8036V41.6307H67.9627C68.2411 40.5568 68.6819 39.7713 69.2852 39.2741C69.895 38.777 70.6076 38.5284 71.4229 38.5284C71.6616 38.5284 71.8969 38.5483 72.1289 38.5881C72.3675 38.6212 72.5962 38.6709 72.815 38.7372V43.4205C72.5432 43.3277 72.2085 43.258 71.8107 43.2116C71.413 43.1652 71.0716 43.142 70.7866 43.142C70.2496 43.142 69.7657 43.2647 69.3349 43.5099C68.9106 43.7486 68.5759 44.0866 68.3306 44.5241C68.0853 44.955 67.9627 45.4621 67.9627 46.0455V54H62.4741ZM79.5465 50.3807L79.5863 43.858H80.3022L84.0011 38.7273H90.1658L83.9613 46.7216H82.4102L79.5465 50.3807ZM74.6147 54V33.6364H80.1033V54H74.6147ZM84.0408 54L80.5408 47.9545L84.1204 44.0568L90.3249 54H84.0408ZM98.2844 54.2784C96.6538 54.2784 95.2485 53.9669 94.0685 53.3438C92.8952 52.714 91.9904 51.8125 91.354 50.6392C90.7243 49.4593 90.4094 48.0473 90.4094 46.4034C90.4094 44.8258 90.7276 43.447 91.364 42.267C92.0004 41.0871 92.8986 40.169 94.0586 39.5128C95.2186 38.8565 96.5875 38.5284 98.1651 38.5284C99.3185 38.5284 100.363 38.7074 101.297 39.0653C102.232 39.4233 103.031 39.9437 103.694 40.6264C104.356 41.3026 104.867 42.1245 105.225 43.0923C105.583 44.0601 105.762 45.1506 105.762 46.3636V47.6364H92.1197V44.6136H100.711C100.704 44.1761 100.591 43.7917 100.373 43.4602C100.16 43.1222 99.872 42.8603 99.5075 42.6747C99.1495 42.4825 98.7418 42.3864 98.2844 42.3864C97.8403 42.3864 97.4326 42.4825 97.0614 42.6747C96.6902 42.8603 96.3919 43.1188 96.1665 43.4503C95.9478 43.7817 95.8318 44.1695 95.8185 44.6136V47.875C95.8185 48.3655 95.9213 48.803 96.1268 49.1875C96.3323 49.572 96.6272 49.8736 97.0117 50.0923C97.3962 50.3111 97.8602 50.4205 98.4038 50.4205C98.7816 50.4205 99.1263 50.3674 99.4379 50.2614C99.756 50.1553 100.028 50.0028 100.253 49.804C100.479 49.5985 100.644 49.3532 100.75 49.0682H105.762C105.589 50.1288 105.182 51.0502 104.539 51.8324C103.896 52.608 103.044 53.2112 101.983 53.642C100.929 54.0663 99.6964 54.2784 98.2844 54.2784ZM113.49 45.4091V54H108.001V38.7273H113.212V41.6307H113.371C113.702 40.6629 114.286 39.9039 115.121 39.3537C115.963 38.8035 116.944 38.5284 118.064 38.5284C119.144 38.5284 120.082 38.777 120.878 39.2741C121.68 39.7647 122.3 40.4408 122.737 41.3026C123.181 42.1643 123.4 43.1487 123.393 44.2557V54H117.905V45.4091C117.911 44.6534 117.719 44.0601 117.328 43.6293C116.944 43.1984 116.407 42.983 115.717 42.983C115.267 42.983 114.872 43.0824 114.534 43.2812C114.203 43.4735 113.947 43.7519 113.768 44.1165C113.589 44.4744 113.497 44.9053 113.49 45.4091ZM130.359 54.2386C129.384 54.2386 128.522 54.0795 127.773 53.7614C127.031 53.4366 126.448 52.946 126.023 52.2898C125.599 51.6335 125.387 50.7983 125.387 49.7841C125.387 48.9489 125.53 48.2363 125.815 47.6463C126.1 47.0497 126.497 46.5625 127.008 46.1847C127.518 45.8068 128.112 45.5185 128.788 45.3196C129.47 45.1207 130.206 44.9915 130.995 44.9318C131.85 44.8655 132.536 44.786 133.053 44.6932C133.577 44.5937 133.955 44.4579 134.187 44.2855C134.419 44.1065 134.535 43.8712 134.535 43.5795V43.5398C134.535 43.142 134.382 42.8371 134.077 42.625C133.772 42.4129 133.381 42.3068 132.904 42.3068C132.38 42.3068 131.953 42.4228 131.621 42.6548C131.297 42.8802 131.101 43.2282 131.035 43.6989H125.984C126.05 42.7708 126.345 41.9157 126.869 41.1335C127.399 40.3447 128.171 39.715 129.185 39.2443C130.2 38.767 131.466 38.5284 132.984 38.5284C134.077 38.5284 135.058 38.6577 135.927 38.9162C136.795 39.1681 137.534 39.5227 138.144 39.9801C138.754 40.4309 139.218 40.9612 139.536 41.571C139.861 42.1742 140.023 42.8305 140.023 43.5398V54H134.893V51.8523H134.773C134.469 52.4223 134.097 52.883 133.66 53.2344C133.229 53.5857 132.735 53.8409 132.178 54C131.628 54.1591 131.022 54.2386 130.359 54.2386ZM132.148 50.7784C132.566 50.7784 132.957 50.6922 133.322 50.5199C133.693 50.3475 133.995 50.099 134.227 49.7741C134.459 49.4493 134.575 49.0549 134.575 48.5909V47.3182C134.429 47.3778 134.273 47.4342 134.107 47.4872C133.948 47.5402 133.776 47.59 133.59 47.6364C133.411 47.6828 133.219 47.7259 133.013 47.7656C132.815 47.8054 132.606 47.8419 132.387 47.875C131.963 47.9413 131.615 48.0507 131.343 48.2031C131.078 48.349 130.879 48.5312 130.746 48.75C130.621 48.9621 130.558 49.2008 130.558 49.4659C130.558 49.8902 130.707 50.215 131.005 50.4403C131.303 50.6657 131.684 50.7784 132.148 50.7784ZM148.135 33.6364V54H142.646V33.6364H148.135ZM155.863 50.3807L155.903 43.858H156.619L160.317 38.7273H166.482L160.278 46.7216H158.727L155.863 50.3807ZM150.931 54V33.6364H156.42V54H150.931ZM160.357 54L156.857 47.9545L160.437 44.0568L166.641 54H160.357ZM172.167 54.2386C171.193 54.2386 170.331 54.0795 169.582 53.7614C168.84 53.4366 168.256 52.946 167.832 52.2898C167.408 51.6335 167.196 50.7983 167.196 49.7841C167.196 48.9489 167.338 48.2363 167.623 47.6463C167.908 47.0497 168.306 46.5625 168.816 46.1847C169.327 45.8068 169.92 45.5185 170.596 45.3196C171.279 45.1207 172.015 44.9915 172.804 44.9318C173.659 44.8655 174.345 44.786 174.862 44.6932C175.386 44.5937 175.763 44.4579 175.995 44.2855C176.227 44.1065 176.343 43.8712 176.343 43.5795V43.5398C176.343 43.142 176.191 42.8371 175.886 42.625C175.581 42.4129 175.19 42.3068 174.713 42.3068C174.189 42.3068 173.761 42.4228 173.43 42.6548C173.105 42.8802 172.91 43.2282 172.843 43.6989H167.792C167.859 42.7708 168.154 41.9157 168.677 41.1335C169.208 40.3447 169.98 39.715 170.994 39.2443C172.008 38.767 173.274 38.5284 174.792 38.5284C175.886 38.5284 176.867 38.6577 177.735 38.9162C178.604 39.1681 179.343 39.5227 179.953 39.9801C180.563 40.4309 181.027 40.9612 181.345 41.571C181.67 42.1742 181.832 42.8305 181.832 43.5398V54H176.701V51.8523H176.582C176.277 52.4223 175.906 52.883 175.468 53.2344C175.038 53.5857 174.544 53.8409 173.987 54C173.437 54.1591 172.83 54.2386 172.167 54.2386ZM173.957 50.7784C174.375 50.7784 174.766 50.6922 175.13 50.5199C175.502 50.3475 175.803 50.099 176.035 49.7741C176.267 49.4493 176.383 49.0549 176.383 48.5909V47.3182C176.237 47.3778 176.082 47.4342 175.916 47.4872C175.757 47.5402 175.584 47.59 175.399 47.6364C175.22 47.6828 175.028 47.7259 174.822 47.7656C174.623 47.8054 174.414 47.8419 174.196 47.875C173.771 47.9413 173.423 48.0507 173.152 48.2031C172.886 48.349 172.688 48.5312 172.555 48.75C172.429 48.9621 172.366 49.2008 172.366 49.4659C172.366 49.8902 172.515 50.215 172.814 50.4403C173.112 50.6657 173.493 50.7784 173.957 50.7784ZM189.943 45.4091V54H184.455V38.7273H189.665V41.6307H189.824C190.155 40.6629 190.739 39.9039 191.574 39.3537C192.416 38.8035 193.397 38.5284 194.517 38.5284C195.598 38.5284 196.536 38.777 197.331 39.2741C198.133 39.7647 198.753 40.4408 199.19 41.3026C199.634 42.1643 199.853 43.1487 199.847 44.2557V54H194.358V45.4091C194.365 44.6534 194.172 44.0601 193.781 43.6293C193.397 43.1984 192.86 42.983 192.17 42.983C191.72 42.983 191.325 43.0824 190.987 43.2812C190.656 43.4735 190.401 43.7519 190.222 44.1165C190.043 44.4744 189.95 44.9053 189.943 45.4091ZM213.344 54H207.379L214.1 33.6364H221.657L228.379 54H222.413L217.958 39.2443H217.799L213.344 54ZM212.231 45.9659H223.447V50.1023H212.231V45.9659ZM235.908 45.4091V54H230.419V38.7273H235.63V41.6307H235.789C236.12 40.6629 236.703 39.9039 237.539 39.3537C238.381 38.8035 239.362 38.5284 240.482 38.5284C241.562 38.5284 242.5 38.777 243.296 39.2741C244.098 39.7647 244.718 40.4408 245.155 41.3026C245.599 42.1643 245.818 43.1487 245.811 44.2557V54H240.323V45.4091C240.329 44.6534 240.137 44.0601 239.746 43.6293C239.362 43.1984 238.825 42.983 238.135 42.983C237.685 42.983 237.29 43.0824 236.952 43.2812C236.621 43.4735 236.365 43.7519 236.186 44.1165C236.007 44.4744 235.915 44.9053 235.908 45.4091ZM255.879 60.0455C254.348 60.0455 253.035 59.8267 251.941 59.3892C250.854 58.9583 250.009 58.3617 249.406 57.5994C248.809 56.8438 248.475 55.9754 248.402 54.9943H253.691C253.744 55.3191 253.877 55.581 254.089 55.7798C254.301 55.9787 254.573 56.1212 254.904 56.2074C255.243 56.3002 255.62 56.3466 256.038 56.3466C256.747 56.3466 257.334 56.1742 257.798 55.8295C258.269 55.4848 258.504 54.8617 258.504 53.9602V51.375H258.345C258.146 51.892 257.841 52.3329 257.43 52.6974C257.019 53.0554 256.525 53.3305 255.949 53.5227C255.372 53.7083 254.739 53.8011 254.049 53.8011C252.962 53.8011 251.961 53.5492 251.047 53.0455C250.138 52.5417 249.409 51.7429 248.859 50.6491C248.315 49.5554 248.044 48.1269 248.044 46.3636C248.044 44.5208 248.329 43.0227 248.899 41.8693C249.475 40.7159 250.218 39.8707 251.126 39.3338C252.041 38.7969 253.002 38.5284 254.01 38.5284C254.765 38.5284 255.428 38.661 255.998 38.9261C256.568 39.1847 257.046 39.5327 257.43 39.9702C257.815 40.401 258.106 40.875 258.305 41.392H258.424V38.7273H263.913V53.9602C263.913 55.2528 263.578 56.3499 262.909 57.2514C262.246 58.1596 261.311 58.8523 260.105 59.3295C258.898 59.8068 257.49 60.0455 255.879 60.0455ZM256.078 49.9034C256.582 49.9034 257.012 49.7642 257.37 49.4858C257.735 49.2008 258.013 48.7964 258.206 48.2727C258.404 47.7424 258.504 47.1061 258.504 46.3636C258.504 45.608 258.404 44.9616 258.206 44.4247C258.013 43.8812 257.735 43.4669 257.37 43.1818C257.012 42.8902 256.582 42.7443 256.078 42.7443C255.574 42.7443 255.143 42.8902 254.785 43.1818C254.434 43.4669 254.162 43.8812 253.97 44.4247C253.784 44.9616 253.691 45.608 253.691 46.3636C253.691 47.1193 253.784 47.7623 253.97 48.2926C254.162 48.8163 254.434 49.2173 254.785 49.4957C255.143 49.7675 255.574 49.9034 256.078 49.9034ZM274.023 54.2784C272.392 54.2784 270.987 53.9669 269.807 53.3438C268.634 52.714 267.729 51.8125 267.092 50.6392C266.463 49.4593 266.148 48.0473 266.148 46.4034C266.148 44.8258 266.466 43.447 267.102 42.267C267.739 41.0871 268.637 40.169 269.797 39.5128C270.957 38.8565 272.326 38.5284 273.903 38.5284C275.057 38.5284 276.101 38.7074 277.036 39.0653C277.97 39.4233 278.769 39.9437 279.432 40.6264C280.095 41.3026 280.605 42.1245 280.963 43.0923C281.321 44.0601 281.5 45.1506 281.5 46.3636V47.6364H267.858V44.6136H276.449C276.442 44.1761 276.33 43.7917 276.111 43.4602C275.899 43.1222 275.61 42.8603 275.246 42.6747C274.888 42.4825 274.48 42.3864 274.023 42.3864C273.579 42.3864 273.171 42.4825 272.8 42.6747C272.429 42.8603 272.13 43.1188 271.905 43.4503C271.686 43.7817 271.57 44.1695 271.557 44.6136V47.875C271.557 48.3655 271.66 48.803 271.865 49.1875C272.071 49.572 272.366 49.8736 272.75 50.0923C273.134 50.3111 273.598 50.4205 274.142 50.4205C274.52 50.4205 274.865 50.3674 275.176 50.2614C275.494 50.1553 275.766 50.0028 275.991 49.804C276.217 49.5985 276.383 49.3532 276.489 49.0682H281.5C281.328 50.1288 280.92 51.0502 280.277 51.8324C279.634 52.608 278.782 53.2112 277.722 53.642C276.668 54.0663 275.435 54.2784 274.023 54.2784ZM289.228 33.6364V54H283.74V33.6364H289.228ZM292.025 54V38.7273H297.513V54H292.025ZM294.769 37.1364C294.027 37.1364 293.39 36.8911 292.86 36.4006C292.33 35.91 292.065 35.3201 292.065 34.6307C292.065 33.9413 292.33 33.3513 292.86 32.8608C293.39 32.3703 294.027 32.125 294.769 32.125C295.518 32.125 296.155 32.3703 296.678 32.8608C297.209 33.3513 297.474 33.9413 297.474 34.6307C297.474 35.3201 297.209 35.91 296.678 36.4006C296.155 36.8911 295.518 37.1364 294.769 37.1364ZM304.566 54.2386C303.591 54.2386 302.73 54.0795 301.98 53.7614C301.238 53.4366 300.655 52.946 300.23 52.2898C299.806 51.6335 299.594 50.7983 299.594 49.7841C299.594 48.9489 299.737 48.2363 300.022 47.6463C300.307 47.0497 300.704 46.5625 301.215 46.1847C301.725 45.8068 302.319 45.5185 302.995 45.3196C303.677 45.1207 304.413 44.9915 305.202 44.9318C306.057 44.8655 306.743 44.786 307.26 44.6932C307.784 44.5937 308.162 44.4579 308.394 44.2855C308.626 44.1065 308.742 43.8712 308.742 43.5795V43.5398C308.742 43.142 308.589 42.8371 308.284 42.625C307.98 42.4129 307.588 42.3068 307.111 42.3068C306.587 42.3068 306.16 42.4228 305.828 42.6548C305.504 42.8802 305.308 43.2282 305.242 43.6989H300.191C300.257 42.7708 300.552 41.9157 301.076 41.1335C301.606 40.3447 302.378 39.715 303.392 39.2443C304.407 38.767 305.673 38.5284 307.191 38.5284C308.284 38.5284 309.266 38.6577 310.134 38.9162C311.002 39.1681 311.741 39.5227 312.351 39.9801C312.961 40.4309 313.425 40.9612 313.743 41.571C314.068 42.1742 314.23 42.8305 314.23 43.5398V54H309.1V51.8523H308.98C308.676 52.4223 308.304 52.883 307.867 53.2344C307.436 53.5857 306.942 53.8409 306.385 54C305.835 54.1591 305.229 54.2386 304.566 54.2386ZM306.355 50.7784C306.773 50.7784 307.164 50.6922 307.529 50.5199C307.9 50.3475 308.202 50.099 308.434 49.7741C308.666 49.4493 308.782 49.0549 308.782 48.5909V47.3182C308.636 47.3778 308.48 47.4342 308.314 47.4872C308.155 47.5402 307.983 47.59 307.797 47.6364C307.618 47.6828 307.426 47.7259 307.221 47.7656C307.022 47.8054 306.813 47.8419 306.594 47.875C306.17 47.9413 305.822 48.0507 305.55 48.2031C305.285 48.349 305.086 48.5312 304.953 48.75C304.828 48.9621 304.765 49.2008 304.765 49.4659C304.765 49.8902 304.914 50.215 305.212 50.4403C305.51 50.6657 305.891 50.7784 306.355 50.7784ZM322.183 51.2159L322.103 52.3295C322.037 53.2841 321.878 54.1989 321.626 55.0739C321.38 55.9489 321.119 56.7244 320.84 57.4006C320.568 58.0767 320.353 58.6004 320.194 58.9716H316.813C316.919 58.6004 317.068 58.0634 317.261 57.3608C317.46 56.6648 317.638 55.8759 317.798 54.9943C317.963 54.1193 318.046 53.2311 318.046 52.3295V51.2159H322.183Z" fill="#2B2B29"/>
<path d="M27.9787 88H26.348L30.0121 77.8182H31.7869L35.451 88H33.8203L30.9418 79.6676H30.8622L27.9787 88ZM28.2521 84.0128H33.5419V85.3054H28.2521V84.0128ZM38.2885 83.4659V88H36.802V80.3636H38.2289V81.6065H38.3233C38.499 81.2022 38.7741 80.8774 39.1486 80.6321C39.5265 80.3868 40.0021 80.2642 40.5755 80.2642C41.0958 80.2642 41.5516 80.3736 41.9426 80.5923C42.3337 80.8078 42.637 81.1293 42.8525 81.5568C43.0679 81.9844 43.1756 82.513 43.1756 83.1428V88H41.6891V83.3217C41.6891 82.7682 41.5449 82.3357 41.2566 82.0241C40.9682 81.7093 40.5721 81.5518 40.0684 81.5518C39.7237 81.5518 39.4171 81.6264 39.1486 81.7756C38.8835 81.9247 38.673 82.1435 38.5172 82.4318C38.3648 82.7169 38.2885 83.0616 38.2885 83.4659ZM48.3709 91.0227C47.7644 91.0227 47.2424 90.9432 46.8049 90.7841C46.3707 90.625 46.016 90.4145 45.7409 90.1527C45.4658 89.8909 45.2604 89.6042 45.1245 89.2926L46.4022 88.7656C46.4917 88.9115 46.611 89.0656 46.7601 89.228C46.9126 89.3937 47.1181 89.5346 47.3766 89.6506C47.6384 89.7666 47.9748 89.8246 48.3858 89.8246C48.9493 89.8246 49.415 89.687 49.7828 89.4119C50.1507 89.1402 50.3347 88.706 50.3347 88.1094V86.608H50.2402C50.1507 86.7704 50.0215 86.951 49.8525 87.1499C49.6867 87.3487 49.458 87.5211 49.1664 87.6669C48.8747 87.8127 48.4952 87.8857 48.0279 87.8857C47.4247 87.8857 46.8811 87.7448 46.3972 87.4631C45.9166 87.178 45.5355 86.7588 45.2537 86.2053C44.9753 85.6484 44.8361 84.964 44.8361 84.152C44.8361 83.34 44.9737 82.6439 45.2488 82.0639C45.5272 81.4839 45.9083 81.0398 46.3922 80.7315C46.8761 80.42 47.4247 80.2642 48.0378 80.2642C48.5118 80.2642 48.8946 80.3438 49.1863 80.5028C49.4779 80.6586 49.705 80.8409 49.8674 81.0497C50.0331 81.2585 50.1607 81.4425 50.2502 81.6016H50.3596V80.3636H51.8162V88.169C51.8162 88.8253 51.6638 89.3639 51.3588 89.7848C51.0539 90.2057 50.6413 90.5173 50.1209 90.7195C49.6039 90.9216 49.0205 91.0227 48.3709 91.0227ZM48.356 86.6527C48.7836 86.6527 49.1448 86.5533 49.4398 86.3544C49.7381 86.1522 49.9635 85.8639 50.1159 85.4893C50.2717 85.1115 50.3496 84.6591 50.3496 84.1321C50.3496 83.6184 50.2734 83.166 50.1209 82.7749C49.9685 82.3838 49.7447 82.0788 49.4498 81.8601C49.1548 81.638 48.7902 81.527 48.356 81.527C47.9086 81.527 47.5357 81.643 47.2374 81.875C46.9391 82.1037 46.7137 82.4152 46.5613 82.8097C46.4121 83.2041 46.3375 83.6449 46.3375 84.1321C46.3375 84.6326 46.4138 85.0717 46.5662 85.4496C46.7187 85.8274 46.9441 86.1224 47.2424 86.3345C47.544 86.5466 47.9152 86.6527 48.356 86.6527ZM57.101 88.1541C56.3487 88.1541 55.7007 87.9934 55.1571 87.6719C54.6169 87.3471 54.1993 86.8913 53.9043 86.3047C53.6126 85.7147 53.4668 85.0237 53.4668 84.2315C53.4668 83.4493 53.6126 82.7599 53.9043 82.1634C54.1993 81.5668 54.6103 81.1011 55.1373 80.7663C55.6676 80.4316 56.2873 80.2642 56.9966 80.2642C57.4275 80.2642 57.8451 80.3355 58.2495 80.478C58.6538 80.6205 59.0167 80.8442 59.3382 81.1491C59.6597 81.4541 59.9133 81.8501 60.0989 82.3374C60.2845 82.8213 60.3773 83.4096 60.3773 84.1023V84.6293H54.307V83.5156H58.9206C58.9206 83.1245 58.8411 82.7782 58.682 82.4766C58.5229 82.1716 58.2992 81.9313 58.0108 81.7557C57.7258 81.58 57.391 81.4922 57.0066 81.4922C56.589 81.4922 56.2244 81.5949 55.9128 81.8004C55.6046 82.0026 55.3659 82.2678 55.1969 82.5959C55.0312 82.9207 54.9483 83.2737 54.9483 83.6548V84.5249C54.9483 85.0353 55.0378 85.4695 55.2168 85.8274C55.3991 86.1854 55.6526 86.4588 55.9775 86.6477C56.3023 86.8333 56.6818 86.9261 57.1159 86.9261C57.3977 86.9261 57.6545 86.8864 57.8865 86.8068C58.1185 86.724 58.3191 86.6013 58.4881 86.4389C58.6571 86.2765 58.7864 86.076 58.8759 85.8374L60.2828 86.0909C60.1702 86.5052 59.968 86.8681 59.6763 87.1797C59.388 87.4879 59.025 87.7282 58.5875 87.9006C58.1533 88.0696 57.6578 88.1541 57.101 88.1541ZM63.5131 77.8182V88H62.0266V77.8182H63.5131ZM65.513 88V80.3636H66.9995V88H65.513ZM66.2637 79.1854C66.0051 79.1854 65.7831 79.0992 65.5975 78.9268C65.4152 78.7512 65.324 78.5424 65.324 78.3004C65.324 78.0552 65.4152 77.8464 65.5975 77.674C65.7831 77.4983 66.0051 77.4105 66.2637 77.4105C66.5222 77.4105 66.7426 77.4983 66.9249 77.674C67.1105 77.8464 67.2033 78.0552 67.2033 78.3004C67.2033 78.5424 67.1105 78.7512 66.9249 78.9268C66.7426 79.0992 66.5222 79.1854 66.2637 79.1854ZM71.2216 88.169C70.7377 88.169 70.3002 88.0795 69.9091 87.9006C69.518 87.7183 69.2081 87.4548 68.9794 87.1101C68.754 86.7654 68.6413 86.3428 68.6413 85.8423C68.6413 85.4115 68.7242 85.0568 68.8899 84.7784C69.0556 84.5 69.2794 84.2796 69.5611 84.1172C69.8428 83.9548 70.1577 83.8321 70.5057 83.7493C70.8537 83.6664 71.2083 83.6035 71.5696 83.5604C72.027 83.5073 72.3982 83.4643 72.6832 83.4311C72.9683 83.3946 73.1754 83.3366 73.3047 83.2571C73.4339 83.1776 73.4986 83.0483 73.4986 82.8693V82.8345C73.4986 82.4003 73.3759 82.0639 73.1307 81.8253C72.8887 81.5866 72.5275 81.4673 72.0469 81.4673C71.5464 81.4673 71.152 81.5784 70.8636 81.8004C70.5786 82.0192 70.3814 82.2628 70.272 82.5312L68.875 82.2131C69.0407 81.7491 69.2827 81.3745 69.6009 81.0895C69.9223 80.8011 70.2919 80.5923 70.7095 80.4631C71.1271 80.3305 71.5663 80.2642 72.027 80.2642C72.3319 80.2642 72.6551 80.3007 72.9964 80.3736C73.3411 80.4432 73.6626 80.5724 73.9609 80.7614C74.2625 80.9503 74.5095 81.2204 74.7017 81.5717C74.8939 81.9197 74.9901 82.3722 74.9901 82.929V88H73.5384V86.956H73.4787C73.3826 87.1482 73.2384 87.3371 73.0462 87.5227C72.8539 87.7083 72.607 87.8625 72.3054 87.9851C72.0038 88.1077 71.6425 88.169 71.2216 88.169ZM71.5447 86.9759C71.9557 86.9759 72.3071 86.8946 72.5987 86.7322C72.8937 86.5698 73.1174 86.3577 73.2699 86.0959C73.4257 85.8307 73.5036 85.5473 73.5036 85.2457V84.2614C73.4505 84.3144 73.3478 84.3641 73.1953 84.4105C73.0462 84.4536 72.8755 84.4917 72.6832 84.5249C72.491 84.5547 72.3037 84.5829 72.1214 84.6094C71.9392 84.6326 71.7867 84.6525 71.6641 84.669C71.3757 84.7055 71.1122 84.7668 70.8736 84.853C70.6383 84.9392 70.4493 85.0634 70.3068 85.2259C70.1676 85.3849 70.098 85.5971 70.098 85.8622C70.098 86.2301 70.2339 86.5085 70.5057 86.6974C70.7775 86.883 71.1238 86.9759 71.5447 86.9759ZM80.7944 88V77.8182H82.2809V81.6016H82.3704C82.4566 81.4425 82.5808 81.2585 82.7433 81.0497C82.9057 80.8409 83.131 80.6586 83.4194 80.5028C83.7077 80.3438 84.0889 80.2642 84.5629 80.2642C85.1793 80.2642 85.7295 80.42 86.2134 80.7315C86.6973 81.0431 87.0768 81.4922 87.3519 82.0788C87.6303 82.6655 87.7695 83.3714 87.7695 84.1967C87.7695 85.022 87.632 85.7296 87.3569 86.3196C87.0818 86.9062 86.704 87.3587 86.2234 87.6768C85.7428 87.9917 85.1942 88.1491 84.5778 88.1491C84.1138 88.1491 83.7343 88.0713 83.4393 87.9155C83.1476 87.7597 82.9189 87.5774 82.7532 87.3686C82.5875 87.1598 82.4599 86.9742 82.3704 86.8118H82.2461V88H80.7944ZM82.2511 84.1818C82.2511 84.7187 82.329 85.1894 82.4847 85.5938C82.6405 85.9981 82.8659 86.3146 83.1609 86.5433C83.4558 86.7687 83.8171 86.8814 84.2447 86.8814C84.6888 86.8814 85.06 86.7637 85.3583 86.5284C85.6566 86.2898 85.882 85.9666 86.0344 85.5589C86.1902 85.1513 86.2681 84.6922 86.2681 84.1818C86.2681 83.678 86.1919 83.2256 86.0394 82.8246C85.8903 82.4235 85.6649 82.107 85.3633 81.875C85.065 81.643 84.6921 81.527 84.2447 81.527C83.8138 81.527 83.4492 81.638 83.1509 81.8601C82.8559 82.0821 82.6322 82.392 82.4798 82.7898C82.3273 83.1875 82.2511 83.6515 82.2511 84.1818ZM92.7299 88.1541C91.9776 88.1541 91.3296 87.9934 90.786 87.6719C90.2458 87.3471 89.8282 86.8913 89.5332 86.3047C89.2415 85.7147 89.0957 85.0237 89.0957 84.2315C89.0957 83.4493 89.2415 82.7599 89.5332 82.1634C89.8282 81.5668 90.2392 81.1011 90.7662 80.7663C91.2965 80.4316 91.9163 80.2642 92.6255 80.2642C93.0564 80.2642 93.474 80.3355 93.8784 80.478C94.2827 80.6205 94.6457 80.8442 94.9672 81.1491C95.2886 81.4541 95.5422 81.8501 95.7278 82.3374C95.9134 82.8213 96.0062 83.4096 96.0062 84.1023V84.6293H89.9359V83.5156H94.5495C94.5495 83.1245 94.47 82.7782 94.3109 82.4766C94.1518 82.1716 93.9281 81.9313 93.6397 81.7557C93.3547 81.58 93.0199 81.4922 92.6355 81.4922C92.2179 81.4922 91.8533 81.5949 91.5417 81.8004C91.2335 82.0026 90.9949 82.2678 90.8258 82.5959C90.6601 82.9207 90.5772 83.2737 90.5772 83.6548V84.5249C90.5772 85.0353 90.6667 85.4695 90.8457 85.8274C91.028 86.1854 91.2815 86.4588 91.6064 86.6477C91.9312 86.8333 92.3107 86.9261 92.7449 86.9261C93.0266 86.9261 93.2834 86.8864 93.5154 86.8068C93.7475 86.724 93.948 86.6013 94.117 86.4389C94.286 86.2765 94.4153 86.076 94.5048 85.8374L95.9118 86.0909C95.7991 86.5052 95.5969 86.8681 95.3052 87.1797C95.0169 87.4879 94.6539 87.7282 94.2164 87.9006C93.7823 88.0696 93.2868 88.1541 92.7299 88.1541ZM97.6555 88V80.3636H99.0923V81.5767H99.1719C99.3111 81.1657 99.5563 80.8426 99.9077 80.6072C100.262 80.3686 100.663 80.2493 101.111 80.2493C101.204 80.2493 101.313 80.2526 101.439 80.2592C101.568 80.2659 101.669 80.2741 101.742 80.2841V81.706C101.683 81.6894 101.576 81.6712 101.424 81.6513C101.272 81.6281 101.119 81.6165 100.967 81.6165C100.615 81.6165 100.302 81.6911 100.027 81.8402C99.7552 81.986 99.5398 82.1899 99.3807 82.4517C99.2216 82.7102 99.142 83.0052 99.142 83.3366V88H97.6555ZM107.044 80.3636V81.5568H102.873V80.3636H107.044ZM103.992 78.5341H105.478V85.7578C105.478 86.0462 105.521 86.2633 105.608 86.4091C105.694 86.5516 105.805 86.6494 105.941 86.7024C106.08 86.7521 106.231 86.777 106.393 86.777C106.512 86.777 106.617 86.7687 106.706 86.7521C106.796 86.7356 106.865 86.7223 106.915 86.7124L107.184 87.9403C107.097 87.9735 106.975 88.0066 106.816 88.0398C106.657 88.0762 106.458 88.0961 106.219 88.0994C105.828 88.1061 105.463 88.0365 105.125 87.8906C104.787 87.7448 104.514 87.5194 104.305 87.2145C104.096 86.9096 103.992 86.5268 103.992 86.0661V78.5341ZM110.911 88.169C110.427 88.169 109.99 88.0795 109.599 87.9006C109.207 87.7183 108.898 87.4548 108.669 87.1101C108.443 86.7654 108.331 86.3428 108.331 85.8423C108.331 85.4115 108.414 85.0568 108.579 84.7784C108.745 84.5 108.969 84.2796 109.251 84.1172C109.532 83.9548 109.847 83.8321 110.195 83.7493C110.543 83.6664 110.898 83.6035 111.259 83.5604C111.716 83.5073 112.088 83.4643 112.373 83.4311C112.658 83.3946 112.865 83.3366 112.994 83.2571C113.123 83.1776 113.188 83.0483 113.188 82.8693V82.8345C113.188 82.4003 113.065 82.0639 112.82 81.8253C112.578 81.5866 112.217 81.4673 111.736 81.4673C111.236 81.4673 110.841 81.5784 110.553 81.8004C110.268 82.0192 110.071 82.2628 109.961 82.5312L108.564 82.2131C108.73 81.7491 108.972 81.3745 109.29 81.0895C109.612 80.8011 109.981 80.5923 110.399 80.4631C110.817 80.3305 111.256 80.2642 111.716 80.2642C112.021 80.2642 112.345 80.3007 112.686 80.3736C113.031 80.4432 113.352 80.5724 113.65 80.7614C113.952 80.9503 114.199 81.2204 114.391 81.5717C114.583 81.9197 114.68 82.3722 114.68 82.929V88H113.228V86.956H113.168C113.072 87.1482 112.928 87.3371 112.736 87.5227C112.543 87.7083 112.296 87.8625 111.995 87.9851C111.693 88.1077 111.332 88.169 110.911 88.169ZM111.234 86.9759C111.645 86.9759 111.997 86.8946 112.288 86.7322C112.583 86.5698 112.807 86.3577 112.959 86.0959C113.115 85.8307 113.193 85.5473 113.193 85.2457V84.2614C113.14 84.3144 113.037 84.3641 112.885 84.4105C112.736 84.4536 112.565 84.4917 112.373 84.5249C112.18 84.5547 111.993 84.5829 111.811 84.6094C111.629 84.6326 111.476 84.6525 111.354 84.669C111.065 84.7055 110.802 84.7668 110.563 84.853C110.328 84.9392 110.139 85.0634 109.996 85.2259C109.857 85.3849 109.787 85.5971 109.787 85.8622C109.787 86.2301 109.923 86.5085 110.195 86.6974C110.467 86.883 110.813 86.9759 111.234 86.9759ZM118.146 83.4659V88H116.659V80.3636H118.086V81.6065H118.181C118.356 81.2022 118.632 80.8774 119.006 80.6321C119.384 80.3868 119.859 80.2642 120.433 80.2642C120.953 80.2642 121.409 80.3736 121.8 80.5923C122.191 80.8078 122.494 81.1293 122.71 81.5568C122.925 81.9844 123.033 82.513 123.033 83.1428V88H121.547V83.3217C121.547 82.7682 121.402 82.3357 121.114 82.0241C120.826 81.7093 120.43 81.5518 119.926 81.5518C119.581 81.5518 119.275 81.6264 119.006 81.7756C118.741 81.9247 118.53 82.1435 118.375 82.4318C118.222 82.7169 118.146 83.0616 118.146 83.4659ZM128.228 91.0227C127.622 91.0227 127.1 90.9432 126.662 90.7841C126.228 90.625 125.873 90.4145 125.598 90.1527C125.323 89.8909 125.118 89.6042 124.982 89.2926L126.26 88.7656C126.349 88.9115 126.468 89.0656 126.618 89.228C126.77 89.3937 126.975 89.5346 127.234 89.6506C127.496 89.7666 127.832 89.8246 128.243 89.8246C128.807 89.8246 129.272 89.687 129.64 89.4119C130.008 89.1402 130.192 88.706 130.192 88.1094V86.608H130.098C130.008 86.7704 129.879 86.951 129.71 87.1499C129.544 87.3487 129.315 87.5211 129.024 87.6669C128.732 87.8127 128.353 87.8857 127.885 87.8857C127.282 87.8857 126.739 87.7448 126.255 87.4631C125.774 87.178 125.393 86.7588 125.111 86.2053C124.833 85.6484 124.694 84.964 124.694 84.152C124.694 83.34 124.831 82.6439 125.106 82.0639C125.385 81.4839 125.766 81.0398 126.25 80.7315C126.734 80.42 127.282 80.2642 127.895 80.2642C128.369 80.2642 128.752 80.3438 129.044 80.5028C129.335 80.6586 129.562 80.8409 129.725 81.0497C129.891 81.2585 130.018 81.4425 130.108 81.6016H130.217V80.3636H131.674V88.169C131.674 88.8253 131.521 89.3639 131.216 89.7848C130.911 90.2057 130.499 90.5173 129.978 90.7195C129.461 90.9216 128.878 91.0227 128.228 91.0227ZM128.213 86.6527C128.641 86.6527 129.002 86.5533 129.297 86.3544C129.596 86.1522 129.821 85.8639 129.973 85.4893C130.129 85.1115 130.207 84.6591 130.207 84.1321C130.207 83.6184 130.131 83.166 129.978 82.7749C129.826 82.3838 129.602 82.0788 129.307 81.8601C129.012 81.638 128.648 81.527 128.213 81.527C127.766 81.527 127.393 81.643 127.095 81.875C126.797 82.1037 126.571 82.4152 126.419 82.8097C126.27 83.2041 126.195 83.6449 126.195 84.1321C126.195 84.6326 126.271 85.0717 126.424 85.4496C126.576 85.8274 126.801 86.1224 127.1 86.3345C127.401 86.5466 127.773 86.6527 128.213 86.6527ZM136.869 91.0227C136.262 91.0227 135.74 90.9432 135.303 90.7841C134.869 90.625 134.514 90.4145 134.239 90.1527C133.964 89.8909 133.758 89.6042 133.623 89.2926L134.9 88.7656C134.99 88.9115 135.109 89.0656 135.258 89.228C135.411 89.3937 135.616 89.5346 135.875 89.6506C136.136 89.7666 136.473 89.8246 136.884 89.8246C137.447 89.8246 137.913 89.687 138.281 89.4119C138.649 89.1402 138.833 88.706 138.833 88.1094V86.608H138.738C138.649 86.7704 138.52 86.951 138.35 87.1499C138.185 87.3487 137.956 87.5211 137.664 87.6669C137.373 87.8127 136.993 87.8857 136.526 87.8857C135.923 87.8857 135.379 87.7448 134.895 87.4631C134.415 87.178 134.033 86.7588 133.752 86.2053C133.473 85.6484 133.334 84.964 133.334 84.152C133.334 83.34 133.472 82.6439 133.747 82.0639C134.025 81.4839 134.406 81.0398 134.89 80.7315C135.374 80.42 135.923 80.2642 136.536 80.2642C137.01 80.2642 137.393 80.3438 137.684 80.5028C137.976 80.6586 138.203 80.8409 138.365 81.0497C138.531 81.2585 138.659 81.4425 138.748 81.6016H138.858V80.3636H140.314V88.169C140.314 88.8253 140.162 89.3639 139.857 89.7848C139.552 90.2057 139.139 90.5173 138.619 90.7195C138.102 90.9216 137.519 91.0227 136.869 91.0227ZM136.854 86.6527C137.282 86.6527 137.643 86.5533 137.938 86.3544C138.236 86.1522 138.462 85.8639 138.614 85.4893C138.77 85.1115 138.848 84.6591 138.848 84.1321C138.848 83.6184 138.771 83.166 138.619 82.7749C138.467 82.3838 138.243 82.0788 137.948 81.8601C137.653 81.638 137.288 81.527 136.854 81.527C136.407 81.527 136.034 81.643 135.735 81.875C135.437 82.1037 135.212 82.4152 135.059 82.8097C134.91 83.2041 134.836 83.6449 134.836 84.1321C134.836 84.6326 134.912 85.0717 135.064 85.4496C135.217 85.8274 135.442 86.1224 135.74 86.3345C136.042 86.5466 136.413 86.6527 136.854 86.6527ZM147.145 84.8331V80.3636H148.637V88H147.175V86.6776H147.096C146.92 87.0852 146.638 87.425 146.25 87.6967C145.866 87.9652 145.387 88.0994 144.814 88.0994C144.323 88.0994 143.889 87.9917 143.511 87.7763C143.136 87.5575 142.842 87.2344 142.626 86.8068C142.414 86.3793 142.308 85.8506 142.308 85.2209V80.3636H143.794V85.0419C143.794 85.5623 143.939 85.9766 144.227 86.2848C144.515 86.593 144.89 86.7472 145.35 86.7472C145.629 86.7472 145.906 86.6776 146.181 86.5384C146.459 86.3991 146.69 86.1887 146.872 85.907C147.057 85.6252 147.149 85.2673 147.145 84.8331ZM152.121 83.4659V88H150.634V80.3636H152.061V81.6065H152.155C152.331 81.2022 152.606 80.8774 152.981 80.6321C153.358 80.3868 153.834 80.2642 154.407 80.2642C154.928 80.2642 155.384 80.3736 155.775 80.5923C156.166 80.8078 156.469 81.1293 156.684 81.5568C156.9 81.9844 157.008 82.513 157.008 83.1428V88H155.521V83.3217C155.521 82.7682 155.377 82.3357 155.089 82.0241C154.8 81.7093 154.404 81.5518 153.9 81.5518C153.556 81.5518 153.249 81.6264 152.981 81.7756C152.715 81.9247 152.505 82.1435 152.349 82.4318C152.197 82.7169 152.121 83.0616 152.121 83.4659ZM162.203 91.0227C161.596 91.0227 161.074 90.9432 160.637 90.7841C160.203 90.625 159.848 90.4145 159.573 90.1527C159.298 89.8909 159.092 89.6042 158.956 89.2926L160.234 88.7656C160.324 88.9115 160.443 89.0656 160.592 89.228C160.745 89.3937 160.95 89.5346 161.209 89.6506C161.47 89.7666 161.807 89.8246 162.218 89.8246C162.781 89.8246 163.247 89.687 163.615 89.4119C163.983 89.1402 164.167 88.706 164.167 88.1094V86.608H164.072C163.983 86.7704 163.854 86.951 163.684 87.1499C163.519 87.3487 163.29 87.5211 162.998 87.6669C162.707 87.8127 162.327 87.8857 161.86 87.8857C161.257 87.8857 160.713 87.7448 160.229 87.4631C159.749 87.178 159.367 86.7588 159.086 86.2053C158.807 85.6484 158.668 84.964 158.668 84.152C158.668 83.34 158.806 82.6439 159.081 82.0639C159.359 81.4839 159.74 81.0398 160.224 80.7315C160.708 80.42 161.257 80.2642 161.87 80.2642C162.344 80.2642 162.727 80.3438 163.018 80.5028C163.31 80.6586 163.537 80.8409 163.699 81.0497C163.865 81.2585 163.993 81.4425 164.082 81.6016H164.192V80.3636H165.648V88.169C165.648 88.8253 165.496 89.3639 165.191 89.7848C164.886 90.2057 164.473 90.5173 163.953 90.7195C163.436 90.9216 162.853 91.0227 162.203 91.0227ZM162.188 86.6527C162.616 86.6527 162.977 86.5533 163.272 86.3544C163.57 86.1522 163.796 85.8639 163.948 85.4893C164.104 85.1115 164.182 84.6591 164.182 84.1321C164.182 83.6184 164.105 83.166 163.953 82.7749C163.8 82.3838 163.577 82.0788 163.282 81.8601C162.987 81.638 162.622 81.527 162.188 81.527C161.741 81.527 161.368 81.643 161.069 81.875C160.771 82.1037 160.546 82.4152 160.393 82.8097C160.244 83.2041 160.17 83.6449 160.17 84.1321C160.17 84.6326 160.246 85.0717 160.398 85.4496C160.551 85.8274 160.776 86.1224 161.074 86.3345C161.376 86.5466 161.747 86.6527 162.188 86.6527ZM171.347 80.3636H172.833V88.4972C172.833 89.0076 172.741 89.4384 172.555 89.7898C172.373 90.1411 172.101 90.4079 171.74 90.5902C171.382 90.7725 170.939 90.8636 170.412 90.8636C170.359 90.8636 170.31 90.8636 170.263 90.8636C170.213 90.8636 170.162 90.862 170.109 90.8587V89.581C170.155 89.581 170.197 89.581 170.233 89.581C170.266 89.581 170.305 89.581 170.348 89.581C170.699 89.581 170.953 89.4865 171.108 89.2976C171.267 89.112 171.347 88.8419 171.347 88.4872V80.3636ZM172.083 79.1854C171.824 79.1854 171.602 79.0992 171.417 78.9268C171.234 78.7512 171.143 78.5424 171.143 78.3004C171.143 78.0552 171.234 77.8464 171.417 77.674C171.602 77.4983 171.824 77.4105 172.083 77.4105C172.341 77.4105 172.562 77.4983 172.744 77.674C172.93 77.8464 173.022 78.0552 173.022 78.3004C173.022 78.5424 172.93 78.7512 172.744 78.9268C172.562 79.0992 172.341 79.1854 172.083 79.1854ZM177.056 88.169C176.572 88.169 176.134 88.0795 175.743 87.9006C175.352 87.7183 175.042 87.4548 174.813 87.1101C174.588 86.7654 174.475 86.3428 174.475 85.8423C174.475 85.4115 174.558 85.0568 174.724 84.7784C174.89 84.5 175.113 84.2796 175.395 84.1172C175.677 83.9548 175.992 83.8321 176.34 83.7493C176.688 83.6664 177.042 83.6035 177.404 83.5604C177.861 83.5073 178.232 83.4643 178.517 83.4311C178.802 83.3946 179.009 83.3366 179.139 83.2571C179.268 83.1776 179.333 83.0483 179.333 82.8693V82.8345C179.333 82.4003 179.21 82.0639 178.965 81.8253C178.723 81.5866 178.361 81.4673 177.881 81.4673C177.38 81.4673 176.986 81.5784 176.698 81.8004C176.413 82.0192 176.215 82.2628 176.106 82.5312L174.709 82.2131C174.875 81.7491 175.117 81.3745 175.435 81.0895C175.756 80.8011 176.126 80.5923 176.544 80.4631C176.961 80.3305 177.4 80.2642 177.861 80.2642C178.166 80.2642 178.489 80.3007 178.83 80.3736C179.175 80.4432 179.497 80.5724 179.795 80.7614C180.097 80.9503 180.343 81.2204 180.536 81.5717C180.728 81.9197 180.824 82.3722 180.824 82.929V88H179.372V86.956H179.313C179.217 87.1482 179.072 87.3371 178.88 87.5227C178.688 87.7083 178.441 87.8625 178.139 87.9851C177.838 88.1077 177.477 88.169 177.056 88.169ZM177.379 86.9759C177.79 86.9759 178.141 86.8946 178.433 86.7322C178.728 86.5698 178.951 86.3577 179.104 86.0959C179.26 85.8307 179.338 85.5473 179.338 85.2457V84.2614C179.285 84.3144 179.182 84.3641 179.029 84.4105C178.88 84.4536 178.709 84.4917 178.517 84.5249C178.325 84.5547 178.138 84.5829 177.955 84.6094C177.773 84.6326 177.621 84.6525 177.498 84.669C177.21 84.7055 176.946 84.7668 176.708 84.853C176.472 84.9392 176.283 85.0634 176.141 85.2259C176.002 85.3849 175.932 85.5971 175.932 85.8622C175.932 86.2301 176.068 86.5085 176.34 86.6974C176.611 86.883 176.958 86.9759 177.379 86.9759ZM184.46 88L182.212 80.3636H183.749L185.245 85.9716H185.32L186.821 80.3636H188.357L189.849 85.9467H189.923L191.41 80.3636H192.946L190.704 88H189.188L187.636 82.4865H187.522L185.971 88H184.46ZM196.579 88.169C196.095 88.169 195.658 88.0795 195.267 87.9006C194.875 87.7183 194.566 87.4548 194.337 87.1101C194.111 86.7654 193.999 86.3428 193.999 85.8423C193.999 85.4115 194.082 85.0568 194.247 84.7784C194.413 84.5 194.637 84.2796 194.919 84.1172C195.2 83.9548 195.515 83.8321 195.863 83.7493C196.211 83.6664 196.566 83.6035 196.927 83.5604C197.384 83.5073 197.756 83.4643 198.041 83.4311C198.326 83.3946 198.533 83.3366 198.662 83.2571C198.791 83.1776 198.856 83.0483 198.856 82.8693V82.8345C198.856 82.4003 198.733 82.0639 198.488 81.8253C198.246 81.5866 197.885 81.4673 197.404 81.4673C196.904 81.4673 196.509 81.5784 196.221 81.8004C195.936 82.0192 195.739 82.2628 195.629 82.5312L194.232 82.2131C194.398 81.7491 194.64 81.3745 194.958 81.0895C195.28 80.8011 195.649 80.5923 196.067 80.4631C196.485 80.3305 196.924 80.2642 197.384 80.2642C197.689 80.2642 198.012 80.3007 198.354 80.3736C198.699 80.4432 199.02 80.5724 199.318 80.7614C199.62 80.9503 199.867 81.2204 200.059 81.5717C200.251 81.9197 200.347 82.3722 200.347 82.929V88H198.896V86.956H198.836C198.74 87.1482 198.596 87.3371 198.404 87.5227C198.211 87.7083 197.964 87.8625 197.663 87.9851C197.361 88.1077 197 88.169 196.579 88.169ZM196.902 86.9759C197.313 86.9759 197.664 86.8946 197.956 86.7322C198.251 86.5698 198.475 86.3577 198.627 86.0959C198.783 85.8307 198.861 85.5473 198.861 85.2457V84.2614C198.808 84.3144 198.705 84.3641 198.553 84.4105C198.404 84.4536 198.233 84.4917 198.041 84.5249C197.848 84.5547 197.661 84.5829 197.479 84.6094C197.297 84.6326 197.144 84.6525 197.021 84.669C196.733 84.7055 196.47 84.7668 196.231 84.853C195.996 84.9392 195.807 85.0634 195.664 85.2259C195.525 85.3849 195.455 85.5971 195.455 85.8622C195.455 86.2301 195.591 86.5085 195.863 86.6974C196.135 86.883 196.481 86.9759 196.902 86.9759ZM202.447 88V77.8182H203.933V81.6016H204.023C204.109 81.4425 204.233 81.2585 204.396 81.0497C204.558 80.8409 204.783 80.6586 205.072 80.5028C205.36 80.3438 205.741 80.2642 206.215 80.2642C206.832 80.2642 207.382 80.42 207.866 80.7315C208.35 81.0431 208.729 81.4922 209.004 82.0788C209.283 82.6655 209.422 83.3714 209.422 84.1967C209.422 85.022 209.284 85.7296 209.009 86.3196C208.734 86.9062 208.356 87.3587 207.876 87.6768C207.395 87.9917 206.847 88.1491 206.23 88.1491C205.766 88.1491 205.387 88.0713 205.092 87.9155C204.8 87.7597 204.571 87.5774 204.406 87.3686C204.24 87.1598 204.112 86.9742 204.023 86.8118H203.898V88H202.447ZM203.903 84.1818C203.903 84.7187 203.981 85.1894 204.137 85.5938C204.293 85.9981 204.518 86.3146 204.813 86.5433C205.108 86.7687 205.469 86.8814 205.897 86.8814C206.341 86.8814 206.712 86.7637 207.011 86.5284C207.309 86.2898 207.534 85.9666 207.687 85.5589C207.843 85.1513 207.92 84.6922 207.92 84.1818C207.92 83.678 207.844 83.2256 207.692 82.8246C207.543 82.4235 207.317 82.107 207.016 81.875C206.717 81.643 206.344 81.527 205.897 81.527C205.466 81.527 205.102 81.638 204.803 81.8601C204.508 82.0821 204.285 82.392 204.132 82.7898C203.98 83.1875 203.903 83.6515 203.903 84.1818ZM219.634 84.8331V80.3636H221.125V88H219.663V86.6776H219.584C219.408 87.0852 219.126 87.425 218.739 87.6967C218.354 87.9652 217.875 88.0994 217.302 88.0994C216.811 88.0994 216.377 87.9917 215.999 87.7763C215.625 87.5575 215.33 87.2344 215.114 86.8068C214.902 86.3793 214.796 85.8506 214.796 85.2209V80.3636H216.283V85.0419C216.283 85.5623 216.427 85.9766 216.715 86.2848C217.004 86.593 217.378 86.7472 217.839 86.7472C218.117 86.7472 218.394 86.6776 218.669 86.5384C218.947 86.3991 219.178 86.1887 219.36 85.907C219.546 85.6252 219.637 85.2673 219.634 84.8331ZM224.609 83.4659V88H223.122V80.3636H224.549V81.6065H224.644C224.819 81.2022 225.094 80.8774 225.469 80.6321C225.847 80.3868 226.322 80.2642 226.896 80.2642C227.416 80.2642 227.872 80.3736 228.263 80.5923C228.654 80.8078 228.957 81.1293 229.173 81.5568C229.388 81.9844 229.496 82.513 229.496 83.1428V88H228.009V83.3217C228.009 82.7682 227.865 82.3357 227.577 82.0241C227.289 81.7093 226.892 81.5518 226.389 81.5518C226.044 81.5518 225.737 81.6264 225.469 81.7756C225.204 81.9247 224.993 82.1435 224.838 82.4318C224.685 82.7169 224.609 83.0616 224.609 83.4659ZM235.054 80.3636V81.5568H230.883V80.3636H235.054ZM232.002 78.5341H233.488V85.7578C233.488 86.0462 233.531 86.2633 233.617 86.4091C233.704 86.5516 233.815 86.6494 233.95 86.7024C234.09 86.7521 234.24 86.777 234.403 86.777C234.522 86.777 234.627 86.7687 234.716 86.7521C234.806 86.7356 234.875 86.7223 234.925 86.7124L235.193 87.9403C235.107 87.9735 234.985 88.0066 234.825 88.0398C234.666 88.0762 234.468 88.0961 234.229 88.0994C233.838 88.1061 233.473 88.0365 233.135 87.8906C232.797 87.7448 232.524 87.5194 232.315 87.2145C232.106 86.9096 232.002 86.5268 232.002 86.0661V78.5341ZM241.536 84.8331V80.3636H243.027V88H241.566V86.6776H241.486C241.31 87.0852 241.029 87.425 240.641 87.6967C240.257 87.9652 239.778 88.0994 239.204 88.0994C238.714 88.0994 238.279 87.9917 237.902 87.7763C237.527 87.5575 237.232 87.2344 237.017 86.8068C236.805 86.3793 236.699 85.8506 236.699 85.2209V80.3636H238.185V85.0419C238.185 85.5623 238.329 85.9766 238.618 86.2848C238.906 86.593 239.28 86.7472 239.741 86.7472C240.02 86.7472 240.296 86.6776 240.571 86.5384C240.85 86.3991 241.08 86.1887 241.262 85.907C241.448 85.6252 241.539 85.2673 241.536 84.8331ZM246.392 85.4098L246.382 83.5952H246.64L249.683 80.3636H251.463L247.993 84.0426H247.759L246.392 85.4098ZM245.025 88V77.8182H246.511V88H245.025ZM249.847 88L247.113 84.3707L248.137 83.3317L251.672 88H249.847ZM26.9993 112V104.364H28.4261V105.607H28.5206C28.6797 105.186 28.9399 104.857 29.3011 104.622C29.6624 104.384 30.0949 104.264 30.5987 104.264C31.1091 104.264 31.5367 104.384 31.8814 104.622C32.2294 104.861 32.4863 105.189 32.652 105.607H32.7315C32.9138 105.199 33.2038 104.874 33.6016 104.632C33.9993 104.387 34.4732 104.264 35.0234 104.264C35.7161 104.264 36.2812 104.481 36.7188 104.915C37.1596 105.35 37.38 106.004 37.38 106.879V112H35.8935V107.018C35.8935 106.501 35.7526 106.127 35.4709 105.895C35.1892 105.663 34.8527 105.547 34.4616 105.547C33.9777 105.547 33.6016 105.696 33.3331 105.994C33.0646 106.289 32.9304 106.669 32.9304 107.133V112H31.4489V106.924C31.4489 106.51 31.3196 106.177 31.0611 105.925C30.8026 105.673 30.4661 105.547 30.0518 105.547C29.7701 105.547 29.5099 105.621 29.2713 105.771C29.036 105.916 28.8454 106.12 28.6996 106.382C28.5571 106.644 28.4858 106.947 28.4858 107.292V112H26.9993ZM42.6635 112.154C41.9112 112.154 41.2632 111.993 40.7196 111.672C40.1794 111.347 39.7618 110.891 39.4668 110.305C39.1751 109.715 39.0293 109.024 39.0293 108.232C39.0293 107.449 39.1751 106.76 39.4668 106.163C39.7618 105.567 40.1728 105.101 40.6998 104.766C41.2301 104.432 41.8498 104.264 42.5591 104.264C42.99 104.264 43.4076 104.335 43.812 104.478C44.2163 104.621 44.5792 104.844 44.9007 105.149C45.2222 105.454 45.4758 105.85 45.6614 106.337C45.847 106.821 45.9398 107.41 45.9398 108.102V108.629H39.8695V107.516H44.4831C44.4831 107.125 44.4036 106.778 44.2445 106.477C44.0854 106.172 43.8617 105.931 43.5733 105.756C43.2883 105.58 42.9535 105.492 42.5691 105.492C42.1515 105.492 41.7869 105.595 41.4753 105.8C41.1671 106.003 40.9284 106.268 40.7594 106.596C40.5937 106.921 40.5108 107.274 40.5108 107.655V108.525C40.5108 109.035 40.6003 109.469 40.7793 109.827C40.9616 110.185 41.2151 110.459 41.54 110.648C41.8648 110.833 42.2443 110.926 42.6784 110.926C42.9602 110.926 43.217 110.886 43.449 110.807C43.681 110.724 43.8816 110.601 44.0506 110.439C44.2196 110.277 44.3489 110.076 44.4384 109.837L45.8453 110.091C45.7327 110.505 45.5305 110.868 45.2388 111.18C44.9505 111.488 44.5875 111.728 44.15 111.901C43.7158 112.07 43.2203 112.154 42.6635 112.154ZM49.0756 107.466V112H47.5891V104.364H49.016V105.607H49.1104C49.2861 105.202 49.5612 104.877 49.9357 104.632C50.3136 104.387 50.7892 104.264 51.3626 104.264C51.8829 104.264 52.3387 104.374 52.7298 104.592C53.1209 104.808 53.4241 105.129 53.6396 105.557C53.855 105.984 53.9627 106.513 53.9627 107.143V112H52.4762V107.322C52.4762 106.768 52.332 106.336 52.0437 106.024C51.7553 105.709 51.3593 105.552 50.8555 105.552C50.5108 105.552 50.2042 105.626 49.9357 105.776C49.6706 105.925 49.4601 106.143 49.3043 106.432C49.1519 106.717 49.0756 107.062 49.0756 107.466ZM59.158 115.023C58.5515 115.023 58.0295 114.943 57.592 114.784C57.1578 114.625 56.8031 114.415 56.5281 114.153C56.253 113.891 56.0475 113.604 55.9116 113.293L57.1893 112.766C57.2788 112.911 57.3981 113.066 57.5472 113.228C57.6997 113.394 57.9052 113.535 58.1637 113.651C58.4255 113.767 58.762 113.825 59.1729 113.825C59.7364 113.825 60.2021 113.687 60.57 113.412C60.9379 113.14 61.1218 112.706 61.1218 112.109V110.608H61.0273C60.9379 110.77 60.8086 110.951 60.6396 111.15C60.4738 111.349 60.2451 111.521 59.9535 111.667C59.6618 111.813 59.2823 111.886 58.815 111.886C58.2118 111.886 57.6682 111.745 57.1843 111.463C56.7037 111.178 56.3226 110.759 56.0408 110.205C55.7624 109.648 55.6232 108.964 55.6232 108.152C55.6232 107.34 55.7608 106.644 56.0359 106.064C56.3143 105.484 56.6954 105.04 57.1793 104.732C57.6632 104.42 58.2118 104.264 58.8249 104.264C59.2989 104.264 59.6817 104.344 59.9734 104.503C60.265 104.659 60.4921 104.841 60.6545 105.05C60.8202 105.259 60.9478 105.442 61.0373 105.602H61.1467V104.364H62.6033V112.169C62.6033 112.825 62.4509 113.364 62.146 113.785C61.841 114.206 61.4284 114.517 60.908 114.719C60.391 114.922 59.8076 115.023 59.158 115.023ZM59.1431 110.653C59.5707 110.653 59.9319 110.553 60.2269 110.354C60.5252 110.152 60.7506 109.864 60.9031 109.489C61.0588 109.112 61.1367 108.659 61.1367 108.132C61.1367 107.618 61.0605 107.166 60.908 106.775C60.7556 106.384 60.5318 106.079 60.2369 105.86C59.9419 105.638 59.5773 105.527 59.1431 105.527C58.6957 105.527 58.3228 105.643 58.0245 105.875C57.7262 106.104 57.5008 106.415 57.3484 106.81C57.1992 107.204 57.1246 107.645 57.1246 108.132C57.1246 108.633 57.2009 109.072 57.3533 109.45C57.5058 109.827 57.7312 110.122 58.0295 110.335C58.3311 110.547 58.7023 110.653 59.1431 110.653ZM67.8881 112.154C67.1358 112.154 66.4878 111.993 65.9442 111.672C65.404 111.347 64.9864 110.891 64.6914 110.305C64.3997 109.715 64.2539 109.024 64.2539 108.232C64.2539 107.449 64.3997 106.76 64.6914 106.163C64.9864 105.567 65.3974 105.101 65.9244 104.766C66.4547 104.432 67.0745 104.264 67.7837 104.264C68.2146 104.264 68.6322 104.335 69.0366 104.478C69.4409 104.621 69.8039 104.844 70.1254 105.149C70.4469 105.454 70.7004 105.85 70.886 106.337C71.0716 106.821 71.1644 107.41 71.1644 108.102V108.629H65.0941V107.516H69.7077C69.7077 107.125 69.6282 106.778 69.4691 106.477C69.31 106.172 69.0863 105.931 68.7979 105.756C68.5129 105.58 68.1781 105.492 67.7937 105.492C67.3761 105.492 67.0115 105.595 66.6999 105.8C66.3917 106.003 66.1531 106.268 65.984 106.596C65.8183 106.921 65.7354 107.274 65.7354 107.655V108.525C65.7354 109.035 65.8249 109.469 66.0039 109.827C66.1862 110.185 66.4397 110.459 66.7646 110.648C67.0894 110.833 67.4689 110.926 67.9031 110.926C68.1848 110.926 68.4416 110.886 68.6737 110.807C68.9057 110.724 69.1062 110.601 69.2752 110.439C69.4442 110.277 69.5735 110.076 69.663 109.837L71.07 110.091C70.9573 110.505 70.7551 110.868 70.4634 111.18C70.1751 111.488 69.8121 111.728 69.3746 111.901C68.9405 112.07 68.445 112.154 67.8881 112.154ZM74.3002 101.818V112H72.8137V101.818H74.3002ZM79.5167 112.154C78.8008 112.154 78.176 111.99 77.6424 111.662C77.1088 111.334 76.6945 110.875 76.3995 110.285C76.1045 109.695 75.957 109.005 75.957 108.217C75.957 107.424 76.1045 106.732 76.3995 106.138C76.6945 105.545 77.1088 105.085 77.6424 104.756C78.176 104.428 78.8008 104.264 79.5167 104.264C80.2326 104.264 80.8574 104.428 81.391 104.756C81.9246 105.085 82.3389 105.545 82.6339 106.138C82.9289 106.732 83.0763 107.424 83.0763 108.217C83.0763 109.005 82.9289 109.695 82.6339 110.285C82.3389 110.875 81.9246 111.334 81.391 111.662C80.8574 111.99 80.2326 112.154 79.5167 112.154ZM79.5217 110.906C79.9857 110.906 80.3701 110.784 80.6751 110.538C80.98 110.293 81.2054 109.967 81.3512 109.559C81.5004 109.151 81.5749 108.702 81.5749 108.212C81.5749 107.724 81.5004 107.277 81.3512 106.869C81.2054 106.458 80.98 106.129 80.6751 105.88C80.3701 105.631 79.9857 105.507 79.5217 105.507C79.0543 105.507 78.6665 105.631 78.3583 105.88C78.0534 106.129 77.8263 106.458 77.6772 106.869C77.5314 107.277 77.4585 107.724 77.4585 108.212C77.4585 108.702 77.5314 109.151 77.6772 109.559C77.8263 109.967 78.0534 110.293 78.3583 110.538C78.6665 110.784 79.0543 110.906 79.5217 110.906ZM86.2221 101.818V112H84.7356V101.818H86.2221ZM90.4442 112.169C89.9603 112.169 89.5228 112.08 89.1317 111.901C88.7406 111.718 88.4308 111.455 88.2021 111.11C87.9767 110.765 87.864 110.343 87.864 109.842C87.864 109.411 87.9469 109.057 88.1126 108.778C88.2783 108.5 88.502 108.28 88.7837 108.117C89.0655 107.955 89.3803 107.832 89.7283 107.749C90.0763 107.666 90.431 107.603 90.7923 107.56C91.2496 107.507 91.6209 107.464 91.9059 107.431C92.1909 107.395 92.3981 107.337 92.5273 107.257C92.6566 107.178 92.7212 107.048 92.7212 106.869V106.835C92.7212 106.4 92.5986 106.064 92.3533 105.825C92.1114 105.587 91.7501 105.467 91.2695 105.467C90.7691 105.467 90.3746 105.578 90.0863 105.8C89.8013 106.019 89.604 106.263 89.4947 106.531L88.0977 106.213C88.2634 105.749 88.5053 105.375 88.8235 105.089C89.145 104.801 89.5146 104.592 89.9322 104.463C90.3498 104.33 90.7889 104.264 91.2496 104.264C91.5546 104.264 91.8777 104.301 92.2191 104.374C92.5638 104.443 92.8853 104.572 93.1836 104.761C93.4852 104.95 93.7321 105.22 93.9244 105.572C94.1166 105.92 94.2127 106.372 94.2127 106.929V112H92.761V110.956H92.7013C92.6052 111.148 92.4611 111.337 92.2688 111.523C92.0766 111.708 91.8297 111.862 91.5281 111.985C91.2264 112.108 90.8652 112.169 90.4442 112.169ZM90.7674 110.976C91.1784 110.976 91.5297 110.895 91.8214 110.732C92.1164 110.57 92.3401 110.358 92.4925 110.096C92.6483 109.831 92.7262 109.547 92.7262 109.246V108.261C92.6732 108.314 92.5704 108.364 92.418 108.411C92.2688 108.454 92.0981 108.492 91.9059 108.525C91.7137 108.555 91.5264 108.583 91.3441 108.609C91.1618 108.633 91.0094 108.652 90.8867 108.669C90.5984 108.705 90.3349 108.767 90.0962 108.853C89.8609 108.939 89.672 109.063 89.5295 109.226C89.3903 109.385 89.3207 109.597 89.3207 109.862C89.3207 110.23 89.4566 110.509 89.7283 110.697C90.0001 110.883 90.3465 110.976 90.7674 110.976ZM102.12 112.169C101.636 112.169 101.199 112.08 100.808 111.901C100.416 111.718 100.107 111.455 99.8778 111.11C99.6525 110.765 99.5398 110.343 99.5398 109.842C99.5398 109.411 99.6226 109.057 99.7884 108.778C99.9541 108.5 100.178 108.28 100.46 108.117C100.741 107.955 101.056 107.832 101.404 107.749C101.752 107.666 102.107 107.603 102.468 107.56C102.925 107.507 103.297 107.464 103.582 107.431C103.867 107.395 104.074 107.337 104.203 107.257C104.332 107.178 104.397 107.048 104.397 106.869V106.835C104.397 106.4 104.274 106.064 104.029 105.825C103.787 105.587 103.426 105.467 102.945 105.467C102.445 105.467 102.05 105.578 101.762 105.8C101.477 106.019 101.28 106.263 101.17 106.531L99.7734 106.213C99.9392 105.749 100.181 105.375 100.499 105.089C100.821 104.801 101.19 104.592 101.608 104.463C102.026 104.33 102.465 104.264 102.925 104.264C103.23 104.264 103.554 104.301 103.895 104.374C104.24 104.443 104.561 104.572 104.859 104.761C105.161 104.95 105.408 105.22 105.6 105.572C105.792 105.92 105.888 106.372 105.888 106.929V112H104.437V110.956H104.377C104.281 111.148 104.137 111.337 103.945 111.523C103.752 111.708 103.505 111.862 103.204 111.985C102.902 112.108 102.541 112.169 102.12 112.169ZM102.443 110.976C102.854 110.976 103.205 110.895 103.497 110.732C103.792 110.57 104.016 110.358 104.168 110.096C104.324 109.831 104.402 109.547 104.402 109.246V108.261C104.349 108.314 104.246 108.364 104.094 108.411C103.945 108.454 103.774 108.492 103.582 108.525C103.389 108.555 103.202 108.583 103.02 108.609C102.838 108.633 102.685 108.652 102.562 108.669C102.274 108.705 102.011 108.767 101.772 108.853C101.537 108.939 101.348 109.063 101.205 109.226C101.066 109.385 100.996 109.597 100.996 109.862C100.996 110.23 101.132 110.509 101.404 110.697C101.676 110.883 102.022 110.976 102.443 110.976ZM110.727 112.149C110.111 112.149 109.56 111.992 109.077 111.677C108.596 111.359 108.218 110.906 107.943 110.32C107.671 109.73 107.535 109.022 107.535 108.197C107.535 107.371 107.673 106.665 107.948 106.079C108.226 105.492 108.608 105.043 109.091 104.732C109.575 104.42 110.124 104.264 110.737 104.264C111.211 104.264 111.592 104.344 111.881 104.503C112.172 104.659 112.398 104.841 112.557 105.05C112.719 105.259 112.845 105.442 112.934 105.602H113.024V101.818H114.51V112H113.059V110.812H112.934C112.845 110.974 112.716 111.16 112.547 111.369C112.381 111.577 112.152 111.76 111.861 111.915C111.569 112.071 111.191 112.149 110.727 112.149ZM111.055 110.881C111.483 110.881 111.844 110.769 112.139 110.543C112.437 110.315 112.663 109.998 112.815 109.594C112.971 109.189 113.049 108.719 113.049 108.182C113.049 107.652 112.973 107.187 112.82 106.79C112.668 106.392 112.444 106.082 112.149 105.86C111.854 105.638 111.489 105.527 111.055 105.527C110.608 105.527 110.235 105.643 109.937 105.875C109.638 106.107 109.413 106.424 109.26 106.825C109.111 107.226 109.037 107.678 109.037 108.182C109.037 108.692 109.113 109.151 109.265 109.559C109.418 109.967 109.643 110.29 109.942 110.528C110.243 110.764 110.614 110.881 111.055 110.881ZM116.632 112V104.364H118.059V105.607H118.153C118.313 105.186 118.573 104.857 118.934 104.622C119.295 104.384 119.728 104.264 120.232 104.264C120.742 104.264 121.17 104.384 121.514 104.622C121.862 104.861 122.119 105.189 122.285 105.607H122.364C122.547 105.199 122.837 104.874 123.234 104.632C123.632 104.387 124.106 104.264 124.656 104.264C125.349 104.264 125.914 104.481 126.352 104.915C126.792 105.35 127.013 106.004 127.013 106.879V112H125.526V107.018C125.526 106.501 125.385 106.127 125.104 105.895C124.822 105.663 124.486 105.547 124.094 105.547C123.611 105.547 123.234 105.696 122.966 105.994C122.697 106.289 122.563 106.669 122.563 107.133V112H121.082V106.924C121.082 106.51 120.952 106.177 120.694 105.925C120.435 105.673 120.099 105.547 119.685 105.547C119.403 105.547 119.143 105.621 118.904 105.771C118.669 105.916 118.478 106.12 118.332 106.382C118.19 106.644 118.119 106.947 118.119 107.292V112H116.632ZM129.005 112V104.364H130.492V112H129.005ZM129.756 103.185C129.497 103.185 129.275 103.099 129.09 102.927C128.907 102.751 128.816 102.542 128.816 102.3C128.816 102.055 128.907 101.846 129.09 101.674C129.275 101.498 129.497 101.411 129.756 101.411C130.014 101.411 130.235 101.498 130.417 101.674C130.603 101.846 130.695 102.055 130.695 102.3C130.695 102.542 130.603 102.751 130.417 102.927C130.235 103.099 130.014 103.185 129.756 103.185ZM133.978 107.466V112H132.491V104.364H133.918V105.607H134.013C134.188 105.202 134.464 104.877 134.838 104.632C135.216 104.387 135.692 104.264 136.265 104.264C136.785 104.264 137.241 104.374 137.632 104.592C138.023 104.808 138.326 105.129 138.542 105.557C138.757 105.984 138.865 106.513 138.865 107.143V112H137.379V107.322C137.379 106.768 137.234 106.336 136.946 106.024C136.658 105.709 136.262 105.552 135.758 105.552C135.413 105.552 135.107 105.626 134.838 105.776C134.573 105.925 134.362 106.143 134.207 106.432C134.054 106.717 133.978 107.062 133.978 107.466ZM140.859 112V104.364H142.345V112H140.859ZM141.609 103.185C141.351 103.185 141.129 103.099 140.943 102.927C140.761 102.751 140.67 102.542 140.67 102.3C140.67 102.055 140.761 101.846 140.943 101.674C141.129 101.498 141.351 101.411 141.609 101.411C141.868 101.411 142.088 101.498 142.271 101.674C142.456 101.846 142.549 102.055 142.549 102.3C142.549 102.542 142.456 102.751 142.271 102.927C142.088 103.099 141.868 103.185 141.609 103.185ZM150.067 106.228L148.72 106.467C148.664 106.294 148.574 106.13 148.452 105.974C148.332 105.819 148.17 105.691 147.964 105.592C147.759 105.492 147.502 105.442 147.194 105.442C146.773 105.442 146.421 105.537 146.14 105.726C145.858 105.911 145.717 106.152 145.717 106.447C145.717 106.702 145.812 106.907 146.001 107.063C146.189 107.219 146.494 107.347 146.915 107.446L148.128 107.724C148.831 107.887 149.355 108.137 149.699 108.475C150.044 108.813 150.216 109.252 150.216 109.793C150.216 110.25 150.084 110.658 149.819 111.016C149.557 111.37 149.191 111.649 148.72 111.851C148.253 112.053 147.711 112.154 147.094 112.154C146.239 112.154 145.541 111.972 145.001 111.607C144.461 111.239 144.13 110.717 144.007 110.041L145.444 109.822C145.533 110.197 145.717 110.48 145.996 110.673C146.274 110.862 146.637 110.956 147.084 110.956C147.572 110.956 147.961 110.855 148.253 110.653C148.544 110.447 148.69 110.197 148.69 109.902C148.69 109.663 148.601 109.463 148.422 109.3C148.246 109.138 147.976 109.015 147.611 108.933L146.319 108.649C145.606 108.487 145.079 108.228 144.738 107.874C144.4 107.519 144.231 107.07 144.231 106.526C144.231 106.076 144.357 105.681 144.608 105.343C144.86 105.005 145.208 104.741 145.653 104.553C146.097 104.36 146.605 104.264 147.179 104.264C148.004 104.264 148.654 104.443 149.128 104.801C149.602 105.156 149.915 105.631 150.067 106.228ZM155.415 104.364V105.557H151.244V104.364H155.415ZM152.363 102.534H153.849V109.758C153.849 110.046 153.893 110.263 153.979 110.409C154.065 110.552 154.176 110.649 154.312 110.702C154.451 110.752 154.602 110.777 154.764 110.777C154.884 110.777 154.988 110.769 155.077 110.752C155.167 110.736 155.237 110.722 155.286 110.712L155.555 111.94C155.469 111.973 155.346 112.007 155.187 112.04C155.028 112.076 154.829 112.096 154.59 112.099C154.199 112.106 153.835 112.036 153.496 111.891C153.158 111.745 152.885 111.519 152.676 111.214C152.467 110.91 152.363 110.527 152.363 110.066V102.534ZM157.06 112V104.364H158.497V105.577H158.576C158.715 105.166 158.961 104.843 159.312 104.607C159.667 104.369 160.068 104.249 160.515 104.249C160.608 104.249 160.717 104.253 160.843 104.259C160.972 104.266 161.074 104.274 161.146 104.284V105.706C161.087 105.689 160.981 105.671 160.828 105.651C160.676 105.628 160.523 105.616 160.371 105.616C160.02 105.616 159.706 105.691 159.431 105.84C159.16 105.986 158.944 106.19 158.785 106.452C158.626 106.71 158.546 107.005 158.546 107.337V112H157.06ZM164.587 112.169C164.103 112.169 163.665 112.08 163.274 111.901C162.883 111.718 162.573 111.455 162.345 111.11C162.119 110.765 162.007 110.343 162.007 109.842C162.007 109.411 162.089 109.057 162.255 108.778C162.421 108.5 162.645 108.28 162.926 108.117C163.208 107.955 163.523 107.832 163.871 107.749C164.219 107.666 164.574 107.603 164.935 107.56C165.392 107.507 165.763 107.464 166.048 107.431C166.334 107.395 166.541 107.337 166.67 107.257C166.799 107.178 166.864 107.048 166.864 106.869V106.835C166.864 106.4 166.741 106.064 166.496 105.825C166.254 105.587 165.893 105.467 165.412 105.467C164.912 105.467 164.517 105.578 164.229 105.8C163.944 106.019 163.747 106.263 163.637 106.531L162.24 106.213C162.406 105.749 162.648 105.375 162.966 105.089C163.288 104.801 163.657 104.592 164.075 104.463C164.492 104.33 164.932 104.264 165.392 104.264C165.697 104.264 166.02 104.301 166.362 104.374C166.706 104.443 167.028 104.572 167.326 104.761C167.628 104.95 167.875 105.22 168.067 105.572C168.259 105.92 168.355 106.372 168.355 106.929V112H166.904V110.956H166.844C166.748 111.148 166.604 111.337 166.411 111.523C166.219 111.708 165.972 111.862 165.671 111.985C165.369 112.108 165.008 112.169 164.587 112.169ZM164.91 110.976C165.321 110.976 165.672 110.895 165.964 110.732C166.259 110.57 166.483 110.358 166.635 110.096C166.791 109.831 166.869 109.547 166.869 109.246V108.261C166.816 108.314 166.713 108.364 166.561 108.411C166.411 108.454 166.241 108.492 166.048 108.525C165.856 108.555 165.669 108.583 165.487 108.609C165.304 108.633 165.152 108.652 165.029 108.669C164.741 108.705 164.477 108.767 164.239 108.853C164.003 108.939 163.815 109.063 163.672 109.226C163.533 109.385 163.463 109.597 163.463 109.862C163.463 110.23 163.599 110.509 163.871 110.697C164.143 110.883 164.489 110.976 164.91 110.976ZM176.058 106.228L174.71 106.467C174.654 106.294 174.564 106.13 174.442 105.974C174.322 105.819 174.16 105.691 173.955 105.592C173.749 105.492 173.492 105.442 173.184 105.442C172.763 105.442 172.412 105.537 172.13 105.726C171.848 105.911 171.707 106.152 171.707 106.447C171.707 106.702 171.802 106.907 171.991 107.063C172.18 107.219 172.485 107.347 172.906 107.446L174.119 107.724C174.821 107.887 175.345 108.137 175.69 108.475C176.034 108.813 176.207 109.252 176.207 109.793C176.207 110.25 176.074 110.658 175.809 111.016C175.547 111.37 175.181 111.649 174.71 111.851C174.243 112.053 173.701 112.154 173.085 112.154C172.229 112.154 171.532 111.972 170.991 111.607C170.451 111.239 170.12 110.717 169.997 110.041L171.434 109.822C171.523 110.197 171.707 110.48 171.986 110.673C172.264 110.862 172.627 110.956 173.075 110.956C173.562 110.956 173.951 110.855 174.243 110.653C174.535 110.447 174.68 110.197 174.68 109.902C174.68 109.663 174.591 109.463 174.412 109.3C174.236 109.138 173.966 109.015 173.602 108.933L172.309 108.649C171.596 108.487 171.069 108.228 170.728 107.874C170.39 107.519 170.221 107.07 170.221 106.526C170.221 106.076 170.347 105.681 170.599 105.343C170.851 105.005 171.199 104.741 171.643 104.553C172.087 104.36 172.596 104.264 173.169 104.264C173.994 104.264 174.644 104.443 175.118 104.801C175.592 105.156 175.905 105.631 176.058 106.228ZM177.841 112V104.364H179.328V112H177.841ZM178.592 103.185C178.333 103.185 178.111 103.099 177.926 102.927C177.743 102.751 177.652 102.542 177.652 102.3C177.652 102.055 177.743 101.846 177.926 101.674C178.111 101.498 178.333 101.411 178.592 101.411C178.85 101.411 179.071 101.498 179.253 101.674C179.439 101.846 179.531 102.055 179.531 102.3C179.531 102.542 179.439 102.751 179.253 102.927C179.071 103.099 178.85 103.185 178.592 103.185Z" fill="#4A5568"/>
</g>
<defs>
<filter id="filter0_d_4325_10115" x="0.217206" y="0.940054" width="369.36" height="163.36" filterUnits="userSpaceOnUse" color-interpolation-filters="sRGB">
<feFlood flood-opacity="0" result="BackgroundImageFix"/>
<feColorMatrix in="SourceAlpha" type="matrix" values="0 0 0 0 0 0 0 0 0 0 0 0 0 0 0 0 0 0 127 0" result="hardAlpha"/>
<feOffset dx="9.39704" dy="10.1199"/>
<feGaussianBlur stdDeviation="7.58992"/>
<feComposite in2="hardAlpha" operator="out"/>
<feColorMatrix type="matrix" values="0 0 0 0 0.0375 0 0 0 0 0.18975 0 0 0 0 0.3 0 0 0 0.06 0"/>
<feBlend mode="normal" in2="BackgroundImageFix" result="effect1_dropShadow_4325_10115"/>
<feBlend mode="normal" in="SourceGraphic" in2="effect1_dropShadow_4325_10115" result="shape"/>
</filter>
</defs>
</svg>
