<svg width="275" height="229" viewBox="0 0 275 229" fill="none" xmlns="http://www.w3.org/2000/svg">
<g filter="url(#filter0_d_4325_10039)">
<rect x="6" y="6" width="244" height="197.272" rx="16" fill="#FFCF54"/>
<rect x="86.3633" y="38" width="83.2722" height="83.2722" rx="14.457" fill="#E8ECEF"/>
<g clip-path="url(#clip0_4325_10039)">
<path d="M142.946 90.7117C143.892 90.2991 144.83 89.8778 145.776 89.4824C147.27 88.8548 148.589 89.4308 148.989 90.8665C149.214 91.6918 148.859 92.6719 148.138 93.1275C143.996 95.7239 139.855 98.3116 135.722 100.908C135.01 101.355 134.246 101.656 133.43 101.836C133.343 101.854 133.17 101.802 133.248 102C129.08 102 124.913 102 120.754 102C120.737 101.974 120.711 101.922 120.693 101.922C120.65 101.922 120.641 101.957 120.667 102C120.58 102 120.494 102 120.407 102C120.502 101.862 120.363 101.862 120.303 101.845C118.471 101.372 116.752 100.59 114.98 99.9708C113.86 99.5754 112.758 99.1541 111.646 98.7414C111.646 97.9333 111.646 97.1252 111.646 96.3257C111.811 96.3858 111.968 96.446 112.133 96.5062C114.486 97.3745 116.838 98.2514 119.191 99.1197C119.955 99.3948 120.745 99.584 121.553 99.5926C125.069 99.6098 128.586 99.6184 132.093 99.584C133.274 99.5754 134.394 99.2573 135.41 98.6039C137.424 97.3229 139.447 96.0506 141.479 94.7954C141.835 94.5719 142.191 94.3483 142.46 94.0302C143.172 93.1963 143.05 91.7692 142.173 91.0814C142.408 90.8923 142.703 90.8493 142.946 90.7117Z" fill="#454045"/>
<path d="M132.381 58C132.624 58.1204 132.884 58.2149 133.11 58.3611C133.709 58.7565 134.317 58.7651 134.951 58.4642C135.628 58.1462 136.001 58.3869 136.027 59.152C136.053 60.0375 135.68 60.8199 135.315 61.5936C134.812 62.651 134.161 63.6311 133.501 64.6112C133.171 64.5166 132.85 64.5854 132.528 64.6628C131.73 64.8433 130.913 64.9465 130.089 64.9723C128.899 64.998 127.727 64.8777 126.572 64.6112C126.572 64.4908 126.659 64.4048 126.72 64.3103C127.423 63.27 128.135 62.2298 128.743 61.1293C129.168 60.3556 129.602 59.5819 129.776 58.6964C130.462 58.7308 131 58.3955 131.512 58C131.799 58 132.094 58 132.381 58Z" fill="#E8AE4C"/>
<path d="M129.775 58.6964C129.602 59.5733 129.168 60.347 128.742 61.1293C128.134 62.2298 127.422 63.27 126.719 64.3103C126.658 64.4048 126.572 64.4908 126.572 64.6112C126.467 64.6112 126.363 64.6112 126.294 64.508C125.304 63.0551 124.358 61.5764 123.924 59.8398C123.828 59.4615 123.811 59.0746 123.958 58.705C124.123 58.2837 124.375 58.1633 124.766 58.3869C125.747 58.9543 126.563 58.6104 127.344 58C127.718 58 128.1 58 128.473 58C128.655 58.2665 129.194 58.5588 129.775 58.6964Z" fill="#F4DD45"/>
<path d="M120.659 101.999C120.633 101.965 120.642 101.922 120.685 101.922C120.703 101.922 120.729 101.973 120.746 101.999C120.72 101.999 120.694 101.999 120.659 101.999Z" fill="#030202"/>
<path d="M115.017 85.7439C114.47 81.8151 115.564 78.273 117.613 74.9718C119.497 71.9456 122.006 69.4954 124.845 67.3547C124.889 67.3203 124.95 67.3031 124.993 67.2773C126.269 68.0855 127.737 68.0683 129.16 68.223C129.299 68.3692 129.421 68.5325 129.577 68.6615C131.123 69.9167 132.512 71.3266 133.736 72.8827C135.88 75.6251 137.435 78.6255 137.869 82.1245C138.06 83.629 138.008 85.1077 137.695 86.5778C137.287 88.4692 136.445 90.1628 135.151 91.6243C134.665 92.1746 134.17 92.7506 133.475 93.0687C133.467 93.0257 133.449 92.9827 133.441 92.9483C133.206 91.1859 132.104 90.0597 130.315 89.7846C129.508 89.6642 128.692 89.5868 127.875 89.4923C126.486 89.3375 125.106 89.1656 123.717 89.0194C122.527 88.8991 121.381 88.6583 120.339 88.0565C118.655 87.0765 116.953 86.148 115.017 85.7439ZM129.186 81.7205C129.186 82.4684 129.16 83.2078 129.195 83.9557C129.212 84.3856 129.03 84.4286 128.683 84.3684C128.119 84.2652 127.624 84.0073 127.137 83.715C126.773 83.5001 126.382 83.5947 126.182 83.9041C125.974 84.2222 126.061 84.5919 126.417 84.8326C126.946 85.1851 127.511 85.4774 128.145 85.615C128.466 85.6837 128.891 85.6322 129.1 85.8127C129.343 86.0276 129.152 86.4661 129.195 86.8014C129.239 87.1796 129.525 87.4633 129.864 87.4719C130.228 87.4805 130.523 87.1882 130.55 86.7842C130.567 86.5692 130.567 86.3543 130.55 86.1394C130.523 85.8471 130.602 85.6837 130.932 85.615C131.722 85.443 132.355 84.996 132.876 84.3942C134.465 82.5458 134.022 79.8979 131.93 78.8233C131.583 78.6427 131.209 78.5224 130.845 78.3848C130.671 78.316 130.55 78.2558 130.55 78.0323C130.558 76.8029 130.558 75.5736 130.55 74.3356C130.55 74.0691 130.671 74.0691 130.879 74.1292C131.227 74.2324 131.548 74.4043 131.843 74.6107C132.217 74.8686 132.607 74.8256 132.842 74.5161C133.076 74.198 133.015 73.8455 132.642 73.5446C132.277 73.2523 131.861 73.0546 131.426 72.8999C131.157 72.8053 130.793 72.8225 130.619 72.6419C130.437 72.4528 130.576 72.0917 130.558 71.808C130.558 71.765 130.558 71.722 130.55 71.6791C130.471 71.3352 130.254 71.1031 129.898 71.0945C129.534 71.0859 129.299 71.3008 129.221 71.6447C129.186 71.7994 129.178 71.9628 129.195 72.1175C129.256 72.5646 129.117 72.7623 128.639 72.917C127.276 73.3555 126.573 74.3871 126.443 75.7713C126.33 76.9835 126.842 77.912 127.919 78.5138C128.223 78.6857 128.518 78.8662 128.839 78.9952C129.1 79.107 129.212 79.2445 129.204 79.5368C129.169 80.259 129.186 80.9897 129.186 81.7205Z" fill="#F4DD45"/>
<path d="M115.019 85.7446C116.955 86.1487 118.657 87.0772 120.341 88.0573C121.383 88.6677 122.529 88.8998 123.718 89.0201C125.108 89.1663 126.497 89.3296 127.877 89.493C128.693 89.5876 129.51 89.6649 130.317 89.7853C132.105 90.0604 133.208 91.1866 133.443 92.949C133.451 92.992 133.469 93.035 133.477 93.0694C133.46 93.2413 133.443 93.4047 133.417 93.5766C130.933 93.5766 128.442 93.5766 125.958 93.5766C125.481 93.5766 125.168 93.8517 125.177 94.2386C125.186 94.6169 125.49 94.8662 125.95 94.8662C128.294 94.8662 130.638 94.8662 132.974 94.8662C133.13 94.8662 133.295 94.9092 133.425 94.7716C133.573 94.8232 133.703 94.7544 133.842 94.6942C134.936 94.2128 136.021 93.7314 137.115 93.2585C138.799 92.5278 140.493 91.8056 142.177 91.0749C143.054 91.7626 143.175 93.1897 142.463 94.0237C142.194 94.3418 141.838 94.5653 141.482 94.7888C139.451 96.044 137.428 97.3164 135.413 98.5973C134.398 99.2421 133.278 99.5602 132.097 99.5774C128.581 99.6118 125.073 99.5946 121.557 99.586C120.749 99.586 119.95 99.3969 119.195 99.1132C116.842 98.2534 114.489 97.3765 112.136 96.4996C111.971 96.4395 111.815 96.3793 111.65 96.3191C111.641 95.2187 111.633 94.1182 111.633 93.0178C111.633 90.4988 111.641 87.9799 111.65 85.4609C112.779 85.4609 113.908 85.5297 115.019 85.7446Z" fill="#665E66"/>
<path d="M111.648 85.4745C111.64 87.9935 111.631 90.5124 111.631 93.0314C111.631 94.1318 111.64 95.2323 111.648 96.3327C111.648 97.1408 111.648 97.9489 111.648 98.7485C111.64 99.1095 111.64 99.462 111.631 99.8231C111.596 100.614 111.067 101.13 110.276 101.138C109.304 101.147 108.34 101.147 107.368 101.138C106.543 101.13 105.996 100.597 105.996 99.7887C105.996 94.6906 105.996 89.5926 105.996 84.4945C105.996 83.6949 106.526 83.1791 107.324 83.1705C108.306 83.1619 109.295 83.1619 110.276 83.1705C111.067 83.1791 111.579 83.6605 111.622 84.4429C111.64 84.7868 111.64 85.1307 111.648 85.4745Z" fill="#454045"/>
<path d="M129.169 68.2304C127.746 68.067 126.27 68.0928 125.002 67.2847C125.028 67.1299 124.976 67.0096 124.837 66.9322C124.62 65.763 124.811 65.23 125.61 64.7227C125.836 64.654 126.07 64.5766 126.296 64.5078C126.356 64.6196 126.461 64.6196 126.574 64.611C127.728 64.8775 128.9 65.0064 130.09 64.9721C130.915 64.9549 131.722 64.8431 132.53 64.6626C132.851 64.5938 133.172 64.5164 133.502 64.611C134.579 65.0494 134.891 66.0123 134.492 67.001C134.17 67.4566 133.728 67.6801 133.181 67.8091C131.852 68.1272 130.524 68.2476 129.169 68.2304Z" fill="#665E66"/>
<path d="M125.608 64.7136C124.8 65.2208 124.609 65.7539 124.835 66.9231C123.576 66.9661 122.335 67.0778 121.145 67.5335C120.225 67.886 119.426 68.3932 118.862 69.2271C118.584 69.6312 118.202 69.7257 117.872 69.485C117.551 69.2529 117.507 68.866 117.785 68.462C118.714 67.1122 120.068 66.4073 121.614 65.9946C122.552 65.7453 123.507 65.6163 124.505 65.6335C124.488 65.4272 124.323 65.3412 124.21 65.2294C123.411 64.4557 122.456 64.1204 121.336 64.2322C119.825 64.3869 118.41 64.1032 117.099 63.3381C116.656 63.0716 116.517 62.7019 116.726 62.3494C116.943 61.9883 117.308 61.9368 117.776 62.2033C118.836 62.8051 119.964 63.0372 121.18 62.9168C122.691 62.7621 123.993 63.2177 125.104 64.2408C125.269 64.4041 125.443 64.5589 125.608 64.7136Z" fill="#F4DD45"/>
<path d="M129.168 68.2325C130.522 68.2497 131.851 68.1379 133.17 67.8198C133.717 67.6909 134.16 67.4588 134.481 67.0117C136.522 68.4302 138.354 70.0809 139.986 71.9465C141.905 74.1387 143.424 76.5545 144.301 79.3486C145.317 82.5897 145.343 85.805 143.936 88.9601C143.659 89.5791 143.285 90.1379 142.955 90.7139C142.704 90.8515 142.408 90.8945 142.183 91.0836C140.498 91.8058 138.805 92.5365 137.121 93.2673C136.027 93.7401 134.933 94.2216 133.848 94.703C133.717 94.7632 133.587 94.832 133.431 94.7804C133.431 94.3849 133.422 93.9894 133.422 93.5854C133.44 93.4134 133.457 93.2501 133.483 93.0781C134.186 92.7601 134.672 92.184 135.159 91.6338C136.444 90.1809 137.295 88.4873 137.703 86.5873C138.015 85.1172 138.067 83.6299 137.876 82.134C137.433 78.635 135.888 75.6346 133.744 72.8921C132.519 71.3275 131.13 69.9261 129.585 68.671C129.428 68.542 129.307 68.3787 129.168 68.2325Z" fill="#EAB14D"/>
<path d="M129.185 81.7208C129.185 80.9901 129.167 80.2593 129.193 79.5285C129.202 79.2362 129.098 79.0987 128.829 78.9869C128.508 78.858 128.212 78.6774 127.908 78.5055C126.832 77.9037 126.32 76.9666 126.433 75.763C126.563 74.3789 127.266 73.3472 128.629 72.9088C129.107 72.754 129.246 72.5563 129.185 72.1092C129.167 71.9545 129.176 71.7911 129.211 71.6364C129.289 71.2925 129.523 71.0776 129.888 71.0862C130.244 71.0948 130.461 71.3183 130.539 71.6708C130.548 71.7138 130.548 71.7568 130.548 71.7997C130.574 72.0835 130.426 72.4445 130.609 72.6337C130.782 72.8056 131.138 72.797 131.416 72.8916C131.859 73.0377 132.276 73.2355 132.632 73.5364C132.996 73.8373 133.066 74.1897 132.831 74.5078C132.597 74.8173 132.215 74.8603 131.833 74.6024C131.538 74.3961 131.216 74.2327 130.869 74.121C130.661 74.0608 130.539 74.0608 130.539 74.3273C130.548 75.5567 130.548 76.7861 130.539 78.0241C130.539 78.2476 130.661 78.3164 130.834 78.3765C131.199 78.5141 131.572 78.6344 131.92 78.815C134.012 79.8896 134.464 82.5375 132.866 84.3859C132.345 84.9877 131.711 85.4348 130.921 85.6067C130.591 85.6755 130.513 85.8388 130.539 86.1311C130.557 86.3461 130.557 86.561 130.539 86.7759C130.513 87.18 130.209 87.4723 129.853 87.4637C129.515 87.4551 129.228 87.1714 129.185 86.7931C129.141 86.4578 129.332 86.0194 129.089 85.8044C128.881 85.6153 128.455 85.6755 128.134 85.6067C127.5 85.4777 126.945 85.1768 126.406 84.8244C126.05 84.5836 125.964 84.214 126.172 83.8959C126.372 83.5864 126.762 83.4918 127.127 83.7067C127.613 83.999 128.099 84.257 128.673 84.3601C129.02 84.4203 129.202 84.3773 129.185 83.9475C129.159 83.2081 129.185 82.4688 129.185 81.7208ZM130.548 82.0217C130.548 82.6923 130.548 83.3629 130.548 84.0334C130.548 84.2398 130.591 84.3085 130.826 84.2312C131.711 83.9389 132.467 82.8728 132.467 81.867C132.467 80.8611 131.868 80.1046 130.852 79.7865C130.609 79.7091 130.548 79.7693 130.548 80.0014C130.557 80.6806 130.548 81.3511 130.548 82.0217ZM129.185 75.8834C129.185 75.4277 129.167 74.9635 129.193 74.5078C129.211 74.164 129.089 74.0952 128.803 74.2671C128.082 74.6798 127.77 75.316 127.787 76.1241C127.796 76.8892 128.343 77.2331 128.933 77.5512C129.176 77.6802 129.193 77.5254 129.193 77.3449C129.185 76.8548 129.185 76.3648 129.185 75.8834Z" fill="#FEFDF9"/>
<path d="M133.423 93.5742C133.423 93.9697 133.432 94.3652 133.432 94.7692C133.302 94.9068 133.137 94.8638 132.98 94.8638C130.636 94.8638 128.292 94.8638 125.956 94.8638C125.505 94.8638 125.201 94.6145 125.184 94.2362C125.175 93.8493 125.488 93.5742 125.965 93.5742C128.448 93.5742 130.931 93.5742 133.423 93.5742Z" fill="#454045"/>
<path d="M130.549 82.0203C130.549 81.3497 130.558 80.6791 130.549 80.0086C130.549 79.7764 130.61 79.7163 130.853 79.7936C131.869 80.1031 132.468 80.8683 132.468 81.8741C132.468 82.88 131.712 83.946 130.827 84.2383C130.592 84.3157 130.549 84.2469 130.549 84.0406C130.558 83.37 130.549 82.6909 130.549 82.0203Z" fill="#F4DD45"/>
<path d="M129.186 75.8827C129.186 76.3728 129.186 76.8542 129.186 77.3442C129.186 77.5248 129.169 77.6795 128.926 77.5506C128.335 77.2411 127.797 76.8886 127.779 76.1235C127.771 75.3153 128.083 74.6791 128.795 74.2665C129.082 74.1031 129.203 74.1633 129.186 74.5072C129.169 74.9628 129.186 75.4185 129.186 75.8827Z" fill="#F4DD45"/>
</g>
<path d="M81.3125 164V143.636H90.1023C91.6136 143.636 92.9361 143.935 94.0696 144.531C95.2031 145.128 96.0848 145.966 96.7145 147.047C97.3442 148.127 97.6591 149.39 97.6591 150.835C97.6591 152.294 97.3343 153.556 96.6847 154.624C96.0417 155.691 95.1368 156.513 93.9702 157.089C92.8101 157.666 91.4545 157.955 89.9034 157.955H84.6534V153.659H88.7898C89.4394 153.659 89.9929 153.546 90.4503 153.321C90.9143 153.089 91.2689 152.761 91.5142 152.337C91.7661 151.912 91.892 151.412 91.892 150.835C91.892 150.252 91.7661 149.755 91.5142 149.344C91.2689 148.926 90.9143 148.608 90.4503 148.389C89.9929 148.164 89.4394 148.051 88.7898 148.051H86.8409V164H81.3125ZM103.339 164.239C102.365 164.239 101.503 164.08 100.754 163.761C100.011 163.437 99.4281 162.946 99.0039 162.29C98.5797 161.634 98.3675 160.798 98.3675 159.784C98.3675 158.949 98.5101 158.236 98.7951 157.646C99.0801 157.05 99.4779 156.562 99.9883 156.185C100.499 155.807 101.092 155.518 101.768 155.32C102.451 155.121 103.187 154.991 103.975 154.932C104.831 154.866 105.517 154.786 106.034 154.693C106.557 154.594 106.935 154.458 107.167 154.286C107.399 154.107 107.515 153.871 107.515 153.58V153.54C107.515 153.142 107.363 152.837 107.058 152.625C106.753 152.413 106.362 152.307 105.885 152.307C105.361 152.307 104.933 152.423 104.602 152.655C104.277 152.88 104.082 153.228 104.015 153.699H98.9641C99.0304 152.771 99.3254 151.916 99.8491 151.134C100.379 150.345 101.152 149.715 102.166 149.244C103.18 148.767 104.446 148.528 105.964 148.528C107.058 148.528 108.039 148.658 108.907 148.916C109.776 149.168 110.515 149.523 111.125 149.98C111.734 150.431 112.199 150.961 112.517 151.571C112.842 152.174 113.004 152.83 113.004 153.54V164H107.873V161.852H107.754C107.449 162.422 107.078 162.883 106.64 163.234C106.209 163.586 105.716 163.841 105.159 164C104.609 164.159 104.002 164.239 103.339 164.239ZM105.129 160.778C105.547 160.778 105.938 160.692 106.302 160.52C106.673 160.348 106.975 160.099 107.207 159.774C107.439 159.449 107.555 159.055 107.555 158.591V157.318C107.409 157.378 107.253 157.434 107.088 157.487C106.929 157.54 106.756 157.59 106.571 157.636C106.392 157.683 106.199 157.726 105.994 157.766C105.795 157.805 105.586 157.842 105.368 157.875C104.943 157.941 104.595 158.051 104.324 158.203C104.058 158.349 103.859 158.531 103.727 158.75C103.601 158.962 103.538 159.201 103.538 159.466C103.538 159.89 103.687 160.215 103.985 160.44C104.284 160.666 104.665 160.778 105.129 160.778ZM118.42 169.727C117.791 169.727 117.191 169.678 116.621 169.578C116.051 169.485 115.55 169.356 115.119 169.19L116.312 165.293C116.763 165.452 117.174 165.554 117.545 165.601C117.923 165.647 118.245 165.621 118.51 165.521C118.782 165.422 118.977 165.233 119.097 164.955L119.216 164.676L113.847 148.727H119.574L122.04 159.307H122.199L124.705 148.727H130.472L124.903 165.273C124.625 166.115 124.221 166.87 123.69 167.54C123.167 168.216 122.477 168.75 121.622 169.141C120.767 169.532 119.7 169.727 118.42 169.727ZM132.033 164V148.727H137.362V151.631H137.521C137.8 150.557 138.241 149.771 138.844 149.274C139.454 148.777 140.166 148.528 140.982 148.528C141.22 148.528 141.455 148.548 141.688 148.588C141.926 148.621 142.155 148.671 142.374 148.737V153.42C142.102 153.328 141.767 153.258 141.369 153.212C140.972 153.165 140.63 153.142 140.345 153.142C139.808 153.142 139.324 153.265 138.893 153.51C138.469 153.749 138.134 154.087 137.889 154.524C137.644 154.955 137.521 155.462 137.521 156.045V164H132.033ZM150.656 164.278C148.999 164.278 147.58 163.95 146.401 163.294C145.221 162.631 144.316 161.71 143.686 160.53C143.056 159.343 142.741 157.968 142.741 156.403C142.741 154.839 143.056 153.467 143.686 152.287C144.316 151.1 145.221 150.179 146.401 149.523C147.58 148.86 148.999 148.528 150.656 148.528C152.313 148.528 153.732 148.86 154.912 149.523C156.092 150.179 156.997 151.1 157.626 152.287C158.256 153.467 158.571 154.839 158.571 156.403C158.571 157.968 158.256 159.343 157.626 160.53C156.997 161.71 156.092 162.631 154.912 163.294C153.732 163.95 152.313 164.278 150.656 164.278ZM150.696 160.222C151.16 160.222 151.561 160.066 151.899 159.754C152.237 159.443 152.499 158.999 152.685 158.422C152.87 157.845 152.963 157.159 152.963 156.364C152.963 155.562 152.87 154.875 152.685 154.305C152.499 153.729 152.237 153.285 151.899 152.973C151.561 152.661 151.16 152.506 150.696 152.506C150.205 152.506 149.785 152.661 149.433 152.973C149.082 153.285 148.813 153.729 148.628 154.305C148.442 154.875 148.349 155.562 148.349 156.364C148.349 157.159 148.442 157.845 148.628 158.422C148.813 158.999 149.082 159.443 149.433 159.754C149.785 160.066 150.205 160.222 150.696 160.222ZM166.287 143.636V164H160.798V143.636H166.287ZM174.572 143.636V164H169.083V143.636H174.572Z" fill="#4A5568"/>
</g>
<defs>
<filter id="filter0_d_4325_10039" x="0.217206" y="0.940054" width="274.36" height="227.631" filterUnits="userSpaceOnUse" color-interpolation-filters="sRGB">
<feFlood flood-opacity="0" result="BackgroundImageFix"/>
<feColorMatrix in="SourceAlpha" type="matrix" values="0 0 0 0 0 0 0 0 0 0 0 0 0 0 0 0 0 0 127 0" result="hardAlpha"/>
<feOffset dx="9.39704" dy="10.1199"/>
<feGaussianBlur stdDeviation="7.58992"/>
<feComposite in2="hardAlpha" operator="out"/>
<feColorMatrix type="matrix" values="0 0 0 0 0.0375 0 0 0 0 0.18975 0 0 0 0 0.3 0 0 0 0.06 0"/>
<feBlend mode="normal" in2="BackgroundImageFix" result="effect1_dropShadow_4325_10039"/>
<feBlend mode="normal" in="SourceGraphic" in2="effect1_dropShadow_4325_10039" result="shape"/>
</filter>
<clipPath id="clip0_4325_10039">
<rect width="43.0638" height="44" fill="white" transform="translate(106 58)"/>
</clipPath>
</defs>
</svg>
