<svg width="238" height="229" viewBox="0 0 238 229" fill="none" xmlns="http://www.w3.org/2000/svg">
<g filter="url(#filter0_d_4325_10080)">
<rect x="6" y="6" width="207" height="197.272" rx="16" fill="#FFCF54"/>
<rect x="67.8633" y="38" width="83.2722" height="83.2722" rx="14.457" fill="#E8ECEF"/>
<path d="M85.1266 58.6191C91.7194 58.6191 98.3121 58.6191 104.905 58.6191C104.905 60.6273 104.905 62.6453 104.905 64.6535C104.778 64.6633 104.65 64.6829 104.513 64.6927C102.426 64.8103 100.428 66.6421 100.311 68.7091C100.213 70.443 100.262 72.1965 100.271 73.9402C100.281 74.6455 100.84 75.2039 101.525 75.2823C102.289 75.3704 102.916 74.959 103.132 74.2341C103.249 73.8618 103.2 73.4896 103.2 73.1173C103.2 72.9214 103.249 72.8137 103.475 72.8235C103.945 72.8431 104.415 72.8528 104.885 72.8626C104.885 73.95 104.885 75.0374 104.885 76.1247C104.876 77.9468 104.866 79.7591 104.856 81.5812C104.64 81.591 104.435 81.6007 104.219 81.6007C101.496 81.6007 98.7823 81.6105 96.059 81.6105C95.5692 81.4048 95.0892 81.591 94.6288 81.6889C92.9243 82.0318 91.7684 83.5012 91.7684 85.2743C91.7586 89.8197 91.7684 94.365 91.7684 98.9104C91.7684 99.8313 91.4255 100.605 90.7887 101.281C90.2402 101.859 89.5642 102.163 88.8197 102.388C88.4279 102.417 88.036 102.427 87.654 102.349C85.8025 101.986 84.6074 100.556 84.6074 98.6557C84.6074 86.0874 84.6074 73.519 84.6074 60.9506C84.6466 60.1375 84.4507 59.2853 85.1266 58.6191ZM94.3349 64.6731C93.277 64.6731 92.219 64.6633 91.161 64.6829C90.3185 64.6927 89.7112 65.3197 89.7014 66.1327C89.7014 66.9458 90.3087 67.5826 91.1414 67.6119C91.5626 67.6315 91.9937 67.6413 92.4149 67.6119C92.7871 67.5826 92.8753 67.7001 92.8753 68.0724C92.8557 69.9336 92.8655 71.7851 92.8655 73.6463C92.8655 73.852 92.8557 74.0676 92.9243 74.2733C93.1692 74.9786 93.8157 75.3802 94.57 75.2725C95.2851 75.1745 95.8043 74.5672 95.8043 73.8031C95.8141 71.8928 95.8239 69.9924 95.7945 68.0822C95.7847 67.6805 95.9219 67.5826 96.2843 67.6119C96.6566 67.6413 97.0289 67.6217 97.4109 67.6217C98.3121 67.6119 98.9587 66.9948 98.9587 66.1523C98.9587 65.2903 98.3415 64.6927 97.4207 64.6829C96.3921 64.6731 95.3635 64.6731 94.3349 64.6731Z" fill="#665E66"/>
<path d="M133.009 108.737C127.268 108.737 121.518 108.737 115.777 108.737C115.777 106.004 115.777 103.271 115.768 100.528C116.091 100.469 116.414 100.567 116.737 100.459C117.433 100.234 117.874 99.6168 117.835 98.9213C117.795 98.167 117.266 97.6772 116.355 97.5204L116.326 97.5008L116.287 97.5204C116.12 97.5204 115.954 97.5204 115.777 97.5204C115.777 96.0118 115.777 94.5032 115.777 92.9946C115.973 92.9849 116.169 92.9751 116.355 92.9751C117.198 92.9555 117.835 92.3285 117.835 91.5056C117.835 90.673 117.208 90.0558 116.355 90.0362C116.159 90.0362 115.964 90.0264 115.777 90.0166C115.777 87.215 115.777 84.4133 115.777 81.6018C115.944 81.5234 116.13 81.5528 116.306 81.5528C118.354 81.5528 120.411 81.5528 122.458 81.5528C123.683 81.5528 124.898 81.5332 126.122 81.5234C126.318 81.543 126.514 81.5724 126.7 81.5724C127.934 81.592 129.178 81.5528 130.413 81.6214C132.147 81.7096 133.596 83.228 133.596 84.9619C133.606 92.4461 133.596 99.9303 133.616 107.414C133.616 107.983 133.479 108.414 133.009 108.737ZM125.417 97.5694C124.584 97.5694 123.751 97.5694 122.919 97.5694C122.889 97.5694 122.85 97.5694 122.821 97.5694C121.959 97.589 121.342 98.167 121.332 98.9898C121.312 99.8127 121.9 100.489 122.733 100.498C124.525 100.528 126.318 100.528 128.111 100.498C128.924 100.489 129.58 99.7637 129.551 98.9996C129.521 98.2062 128.875 97.5792 128.052 97.5694C127.18 97.5596 126.298 97.5694 125.417 97.5694ZM125.378 92.9751C126.259 92.9751 127.141 92.9849 128.022 92.9751C128.885 92.9653 129.551 92.3285 129.56 91.5252C129.58 90.7122 128.885 90.0362 128.013 90.0362C126.298 90.0264 124.594 90.0264 122.88 90.0362C121.968 90.0362 121.332 90.6534 121.332 91.5056C121.332 92.3579 121.968 92.9653 122.88 92.9751C123.712 92.9849 124.545 92.9751 125.378 92.9751Z" fill="#454045"/>
<path d="M115.778 93.0022C115.778 94.5108 115.778 96.0194 115.778 97.528C115.768 97.5476 115.778 97.5672 115.778 97.5966C112.398 97.5868 109.028 97.577 105.649 97.577C104.718 97.577 104.101 98.1746 104.101 99.0366C104.101 99.8889 104.728 100.506 105.649 100.516C107.05 100.526 108.45 100.526 109.861 100.516C111.84 100.516 113.809 100.506 115.788 100.496L115.778 100.545C115.778 103.278 115.778 106.011 115.788 108.754C110.4 108.754 105.012 108.754 99.634 108.754C99.0952 108.421 98.9483 107.941 98.9581 107.324C98.9777 105.688 98.9581 104.052 98.9483 102.416C98.9483 96.6562 98.9581 90.9059 98.9581 85.1458C98.9581 83.8919 98.3899 82.9417 97.3809 82.2168C96.9891 81.9327 96.5287 81.8347 96.1074 81.629C98.8307 81.629 101.544 81.6192 104.268 81.6192C104.483 81.6192 104.689 81.6094 104.904 81.5996C105.12 81.6094 105.326 81.629 105.541 81.629C108.96 81.629 112.379 81.629 115.798 81.629C115.798 84.4307 115.798 87.2324 115.798 90.0438V90.0928C115.67 90.083 115.533 90.0732 115.406 90.0732C112.173 90.0732 108.94 90.0732 105.717 90.0732C104.767 90.0732 104.121 90.6708 104.121 91.5426C104.121 92.4145 104.767 93.012 105.717 93.012C107.51 93.012 109.303 93.012 111.105 93.012C112.673 93.012 114.24 92.9924 115.807 92.9924L115.778 93.0022Z" fill="#665E66"/>
<path d="M115.768 81.6105C112.349 81.6105 108.931 81.6105 105.512 81.6105C105.296 81.6105 105.091 81.5909 104.875 81.5811C104.885 79.7591 104.895 77.9468 104.904 76.1247C104.904 75.0373 104.904 73.95 104.904 72.8626C104.895 72.843 104.895 72.8234 104.895 72.8038C105.188 72.8136 105.473 72.843 105.766 72.843C106.56 72.8528 106.56 72.843 106.56 73.6463C106.56 74.6259 107.197 75.341 108.049 75.3508C108.882 75.3508 109.558 74.6553 109.558 73.7051C109.548 72.0495 109.655 70.3842 109.489 68.7287C109.224 66.1523 106.746 64.5066 104.885 64.7123C104.885 64.6927 104.885 64.6731 104.895 64.6633C104.895 62.6551 104.895 60.6371 104.895 58.6289C111.811 58.6289 118.736 58.6289 125.652 58.6289C125.613 58.6583 125.564 58.6975 125.623 58.7367C126.103 59.0991 126.103 59.6183 126.103 60.1473C126.103 67.2788 126.103 74.4104 126.103 81.5419C124.879 81.5517 123.664 81.5615 122.439 81.5713C120.392 81.5713 118.335 81.5713 116.287 81.5713C116.121 81.5615 115.945 81.5223 115.768 81.6105ZM111.762 73.8128C111.762 74.0088 111.771 74.1655 111.83 74.3222C112.222 75.3704 113.525 75.6741 114.289 74.8414C114.926 74.1459 115.514 73.4014 116.101 72.6569C116.297 72.412 116.405 72.314 116.65 72.6373C117.179 73.3426 117.757 73.999 118.325 74.6847C118.913 75.3998 119.814 75.5271 120.49 74.9884C121.156 74.4594 121.215 73.5385 120.637 72.8136C119.941 71.9516 119.236 71.0895 118.521 70.2471C118.345 70.0413 118.364 69.9238 118.531 69.7181C119.226 68.8952 119.912 68.0625 120.588 67.2299C121.225 66.4364 121.185 65.5841 120.519 65.016C119.843 64.4478 118.952 64.5849 118.296 65.3588C117.737 66.0152 117.189 66.6813 116.66 67.367C116.464 67.6217 116.356 67.6119 116.17 67.367C115.621 66.6715 115.063 66.0054 114.495 65.3196C113.878 64.5751 112.967 64.4478 112.3 65.0062C111.634 65.5547 111.605 66.4854 112.212 67.2201C112.869 68.0136 113.505 68.8168 114.181 69.5907C114.426 69.8748 114.465 70.0609 114.191 70.3646C113.505 71.1483 112.849 71.9614 112.193 72.7647C111.918 73.0879 111.732 73.421 111.762 73.8128Z" fill="#454045"/>
<path d="M98.5548 102.634C95.3711 102.634 92.1873 102.634 89.0134 102.634C88.8371 102.634 88.6607 102.624 88.4746 102.614C89.2093 102.398 89.895 102.095 90.4436 101.507C91.0804 100.831 91.4232 100.057 91.4232 99.1363C91.4232 94.5909 91.4232 90.0456 91.4232 85.5002C91.4232 83.7271 92.5792 82.2577 94.2837 81.9148C94.7441 81.8267 95.2241 81.6405 95.7139 81.8365C96.1351 82.052 96.5956 82.1499 96.9874 82.4242C97.9964 83.1491 98.5646 84.1091 98.5646 85.3532C98.5646 91.1133 98.5646 96.8734 98.5548 102.634Z" fill="#454045"/>
<path d="M94.3347 64.6723C95.3633 64.6723 96.3919 64.6625 97.4107 64.6723C98.3315 64.6821 98.9487 65.2797 98.9487 66.1417C98.9487 66.994 98.312 67.6014 97.4009 67.6111C97.0287 67.6111 96.6466 67.6307 96.2744 67.6014C95.9021 67.572 95.7748 67.6699 95.7846 68.0716C95.8042 69.9818 95.8042 71.8822 95.7944 73.7925C95.7944 74.5566 95.2654 75.1639 94.5601 75.2619C93.8058 75.3696 93.1592 74.968 92.9143 74.2627C92.8457 74.057 92.8555 73.8415 92.8555 73.6357C92.8555 71.7745 92.8457 69.923 92.8653 68.0618C92.8653 67.6993 92.7772 67.572 92.4049 67.6014C91.9837 67.6307 91.5527 67.6209 91.1314 67.6014C90.3086 67.572 89.6914 66.9254 89.6914 66.1221C89.6914 65.3091 90.3086 64.6821 91.151 64.6723C92.2188 64.6625 93.2768 64.6821 94.3347 64.6723C94.3347 64.6821 94.3347 64.6723 94.3347 64.6723Z" fill="#EAB14D"/>
<path d="M104.916 72.8634C104.446 72.8536 103.975 72.8438 103.505 72.8242C103.28 72.8144 103.241 72.9222 103.231 73.1181C103.231 73.4904 103.27 73.8626 103.162 74.2349C102.947 74.95 102.31 75.3712 101.556 75.283C100.88 75.2047 100.312 74.6463 100.302 73.941C100.282 72.1973 100.243 70.4536 100.341 68.7099C100.459 66.6429 102.447 64.8012 104.544 64.6935C104.671 64.6837 104.798 64.6739 104.935 64.6543C104.926 64.6739 104.926 64.6837 104.926 64.7033C104.926 65.6731 104.935 66.6429 104.935 67.6127C103.799 67.7205 103.182 68.4552 103.25 69.5817C103.26 69.8266 103.348 69.8854 103.574 69.8756C104.034 69.8658 104.485 69.8756 104.945 69.8854C104.945 70.8552 104.945 71.8348 104.935 72.8046C104.906 72.8242 104.906 72.8438 104.916 72.8634Z" fill="#EAB14D"/>
<path d="M125.417 97.5669C126.299 97.5669 127.181 97.5571 128.062 97.5669C128.885 97.5766 129.532 98.2036 129.561 98.9971C129.591 99.7612 128.934 100.486 128.121 100.496C126.328 100.525 124.536 100.525 122.743 100.496C121.91 100.486 121.323 99.8102 121.342 98.9873C121.362 98.1742 121.969 97.5864 122.831 97.5669C122.861 97.5669 122.9 97.5669 122.929 97.5669C123.752 97.5669 124.585 97.5669 125.417 97.5669Z" fill="#F4DD45"/>
<path d="M125.378 92.9735C124.545 92.9735 123.712 92.9735 122.88 92.9735C121.969 92.9637 121.332 92.3662 121.332 91.5041C121.332 90.6518 121.959 90.0347 122.88 90.0347C124.594 90.0249 126.299 90.0249 128.013 90.0347C128.885 90.0347 129.58 90.7106 129.561 91.5237C129.541 92.327 128.875 92.9637 128.023 92.9735C127.131 92.9833 126.259 92.9735 125.378 92.9735Z" fill="#F4DD45"/>
<path d="M115.777 90.0156C115.973 90.0254 116.169 90.0352 116.355 90.0352C117.208 90.0548 117.835 90.672 117.835 91.5046C117.835 92.3275 117.198 92.9642 116.355 92.974C116.159 92.974 115.963 92.9838 115.777 92.9936V92.9447C115.777 91.9846 115.777 91.0148 115.777 90.0548V90.0156Z" fill="#EAB14D"/>
<path d="M116.355 97.5293C117.276 97.6861 117.795 98.1759 117.835 98.9302C117.874 99.6257 117.433 100.243 116.737 100.468C116.424 100.566 116.091 100.478 115.768 100.537L115.777 100.488C115.777 99.5179 115.777 98.5579 115.777 97.5881C115.768 97.5685 115.768 97.5489 115.777 97.5195C115.944 97.5195 116.11 97.5195 116.287 97.5195L116.316 97.5391L116.355 97.5293Z" fill="#EAB14D"/>
<path d="M116.356 97.5294L116.316 97.5392L116.287 97.5196L116.316 97.5098L116.356 97.5294Z" fill="#F7911F"/>
<path d="M115.779 90.0645C115.779 91.0246 115.779 91.9944 115.779 92.9544C114.211 92.9642 112.644 92.974 111.076 92.974C109.284 92.974 107.491 92.974 105.689 92.974C104.738 92.974 104.092 92.3764 104.092 91.5046C104.092 90.6327 104.738 90.0352 105.689 90.0352C108.921 90.0352 112.154 90.0352 115.377 90.0352C115.524 90.045 115.651 90.0547 115.779 90.0645Z" fill="#EAB14D"/>
<path d="M115.779 97.586C115.779 98.5558 115.779 99.5158 115.779 100.486C113.8 100.495 111.831 100.505 109.852 100.505C108.451 100.505 107.05 100.515 105.64 100.505C104.719 100.495 104.092 99.8783 104.092 99.026C104.092 98.164 104.719 97.5664 105.64 97.5664C109.029 97.5664 112.409 97.5762 115.779 97.586Z" fill="#EAB14D"/>
<path d="M111.763 73.8145C111.734 73.4227 111.92 73.0896 112.175 72.7762C112.841 71.9729 113.487 71.15 114.173 70.3761C114.447 70.0724 114.408 69.8863 114.163 69.6022C113.497 68.8283 112.851 68.0251 112.194 67.2316C111.577 66.4871 111.616 65.5662 112.282 65.0177C112.948 64.4593 113.869 64.5866 114.477 65.3311C115.035 66.0071 115.603 66.683 116.152 67.3785C116.348 67.6234 116.446 67.6332 116.642 67.3785C117.171 66.6928 117.729 66.0365 118.278 65.3703C118.934 64.5964 119.835 64.4593 120.501 65.0275C121.177 65.5956 121.207 66.4479 120.57 67.2414C119.894 68.0838 119.208 68.9067 118.513 69.7296C118.346 69.9255 118.327 70.043 118.503 70.2586C119.218 71.101 119.914 71.9631 120.619 72.8251C121.207 73.5402 121.138 74.4709 120.472 74.9999C119.796 75.5386 118.905 75.4113 118.307 74.6962C117.749 74.0203 117.171 73.3541 116.632 72.6488C116.387 72.3255 116.279 72.4235 116.083 72.6684C115.495 73.4031 114.908 74.1574 114.271 74.8529C113.507 75.6856 112.204 75.3917 111.812 74.3337C111.783 74.1574 111.763 74.0007 111.763 73.8145Z" fill="#EAB14D"/>
<path d="M104.914 67.6142C104.914 66.6444 104.904 65.6746 104.904 64.7048C106.766 64.4991 109.244 66.1448 109.508 68.7212C109.675 70.3767 109.567 72.0421 109.577 73.6976C109.577 74.6478 108.901 75.3531 108.068 75.3433C107.206 75.3433 106.579 74.6184 106.579 73.6388C106.579 72.8356 106.579 72.8453 105.786 72.8356C105.492 72.8356 105.198 72.816 104.914 72.7964C104.914 71.8266 104.914 70.8469 104.924 69.8771L104.914 69.8575C105.365 69.8575 105.815 69.8575 106.276 69.8673C106.491 69.8771 106.579 69.8184 106.599 69.5735C106.668 68.4763 106.031 67.7318 104.924 67.624L104.914 67.6142Z" fill="#EAB14D"/>
<path d="M104.915 69.884C104.455 69.884 104.004 69.8644 103.544 69.8742C103.319 69.8742 103.24 69.8252 103.221 69.5803C103.162 68.4538 103.779 67.7191 104.906 67.6113L104.896 67.6309C104.896 68.3754 104.896 69.1199 104.896 69.8546L104.915 69.884Z" fill="#665E66"/>
<path d="M104.904 69.8643C104.904 69.1198 104.904 68.3753 104.904 67.6406C106.021 67.7484 106.648 68.5027 106.579 69.59C106.56 69.8349 106.472 69.8839 106.256 69.8839C105.806 69.8643 105.355 69.8643 104.904 69.8643Z" fill="#454045"/>
<path d="M84.7557 148.362V143.908H102.455V148.362H96.3295V164.271H90.8807V148.362H84.7557ZM106.792 164.51C105.818 164.51 104.956 164.351 104.207 164.033C103.465 163.708 102.881 163.218 102.457 162.561C102.033 161.905 101.821 161.07 101.821 160.056C101.821 159.22 101.963 158.508 102.248 157.918C102.533 157.321 102.931 156.834 103.441 156.456C103.952 156.078 104.545 155.79 105.221 155.591C105.904 155.392 106.64 155.263 107.429 155.203C108.284 155.137 108.97 155.057 109.487 154.965C110.011 154.865 110.388 154.729 110.62 154.557C110.852 154.378 110.968 154.143 110.968 153.851V153.811C110.968 153.414 110.816 153.109 110.511 152.896C110.206 152.684 109.815 152.578 109.338 152.578C108.814 152.578 108.386 152.694 108.055 152.926C107.73 153.152 107.535 153.5 107.468 153.97H102.417C102.484 153.042 102.779 152.187 103.302 151.405C103.833 150.616 104.605 149.986 105.619 149.516C106.633 149.039 107.899 148.8 109.417 148.8C110.511 148.8 111.492 148.929 112.36 149.188C113.229 149.44 113.968 149.794 114.578 150.252C115.188 150.702 115.652 151.233 115.97 151.843C116.295 152.446 116.457 153.102 116.457 153.811V164.271H111.326V162.124H111.207C110.902 162.694 110.531 163.155 110.093 163.506C109.663 163.857 109.169 164.112 108.612 164.271C108.062 164.431 107.455 164.51 106.792 164.51ZM108.582 161.05C109 161.05 109.391 160.964 109.755 160.791C110.127 160.619 110.428 160.37 110.66 160.046C110.892 159.721 111.008 159.326 111.008 158.862V157.59C110.862 157.649 110.707 157.706 110.541 157.759C110.382 157.812 110.209 157.861 110.024 157.908C109.845 157.954 109.653 157.997 109.447 158.037C109.248 158.077 109.039 158.113 108.821 158.146C108.396 158.213 108.048 158.322 107.777 158.475C107.511 158.62 107.313 158.803 107.18 159.021C107.054 159.234 106.991 159.472 106.991 159.737C106.991 160.162 107.14 160.486 107.439 160.712C107.737 160.937 108.118 161.05 108.582 161.05ZM123.812 148.999L126.04 153.732L128.386 148.999H133.835L129.739 156.635L134.034 164.271H128.625L126.04 159.419L123.534 164.271H118.045L122.381 156.635L118.324 148.999H123.812Z" fill="#4A5568"/>
</g>
<defs>
<filter id="filter0_d_4325_10080" x="0.217206" y="0.940054" width="237.36" height="227.631" filterUnits="userSpaceOnUse" color-interpolation-filters="sRGB">
<feFlood flood-opacity="0" result="BackgroundImageFix"/>
<feColorMatrix in="SourceAlpha" type="matrix" values="0 0 0 0 0 0 0 0 0 0 0 0 0 0 0 0 0 0 127 0" result="hardAlpha"/>
<feOffset dx="9.39704" dy="10.1199"/>
<feGaussianBlur stdDeviation="7.58992"/>
<feComposite in2="hardAlpha" operator="out"/>
<feColorMatrix type="matrix" values="0 0 0 0 0.0375 0 0 0 0 0.18975 0 0 0 0 0.3 0 0 0 0.06 0"/>
<feBlend mode="normal" in2="BackgroundImageFix" result="effect1_dropShadow_4325_10080"/>
<feBlend mode="normal" in="SourceGraphic" in2="effect1_dropShadow_4325_10080" result="shape"/>
</filter>
</defs>
</svg>
