<svg width="90" height="90" viewBox="0 0 90 90" fill="none" xmlns="http://www.w3.org/2000/svg">
<rect width="90" height="90" rx="20" fill="white"/>
<g clip-path="url(#clip0_542_9616)">
<path d="M72.959 31.7381C73.1339 30.2079 72.704 29.1332 72.4672 28.7871L52.9033 47.8045L72.4672 62.614C72.8607 62.002 72.9772 60.3006 72.959 59.5538C72.8862 50.9194 72.7842 33.2682 72.959 31.7381Z" fill="#FFA600"/>
<path d="M23.4488 65.4007C20.1262 66.0127 18.1298 63.7613 17.5469 62.559L35.6899 44.3613H53.8876L72.5771 62.559C71.7465 64.4826 69.8994 65.255 69.0796 65.4007H23.4488Z" fill="#DC9002"/>
<path d="M21.5908 26C19.0552 26.3497 17.8748 27.9309 17.6016 28.6777L41.3733 52.6681C44.3024 55.3786 47.3299 53.7975 48.4775 52.6681L72.4132 28.6777C71.1017 26.7979 69.3894 26.1093 68.6972 26H21.5908Z" fill="#4C6C8D" stroke="#4C6C8D"/>
<path d="M17 30.5904C17 30.0221 17.4007 29.0785 17.6011 28.6777L34.4873 45.7278L17.5465 62.5593C17.1093 62.0784 17 61.266 17 60.9199V30.5904Z" fill="#FFA600"/>
</g>
<defs>
<clipPath id="clip0_542_9616">
<rect width="56" height="56" fill="white" transform="translate(17 17)"/>
</clipPath>
</defs>
</svg>
