<svg width="90" height="90" viewBox="0 0 90 90" fill="none" xmlns="http://www.w3.org/2000/svg">
<rect width="90" height="90" rx="20" fill="white"/>
<mask id="mask0_542_9556" style="mask-type:alpha" maskUnits="userSpaceOnUse" x="21" y="31" width="37" height="37">
<path fill-rule="evenodd" clip-rule="evenodd" d="M38.0283 51.3562L45.8767 51.3562C51.2379 51.3562 55.5841 47.0101 55.5841 41.6488C55.5841 36.2876 51.2379 31.9414 45.8767 31.9414H38.0283V35.5566H44.9472C48.3123 35.5566 51.0402 38.2845 51.0402 41.6496C51.0402 45.0146 48.3123 47.7425 44.9472 47.7425H38.0283V51.3562Z" fill="#FFA600"/>
<path fill-rule="evenodd" clip-rule="evenodd" d="M38.8545 67.157H31.0061C25.6449 67.157 21.2987 62.8108 21.2987 57.4496C21.2987 52.0883 25.6449 47.7422 31.0061 47.7422H38.8545V51.3574H31.9356C28.5705 51.3574 25.8426 54.0853 25.8426 57.4504C25.8426 60.8154 28.5705 63.5433 31.9356 63.5433H38.8545V67.157Z" fill="#FFA600"/>
<rect x="38.8545" y="63.543" width="18.7952" height="3.61446" fill="#FFA600"/>
</mask>
<g mask="url(#mask0_542_9556)">
<path fill-rule="evenodd" clip-rule="evenodd" d="M38.0283 51.3562L45.8767 51.3562C51.2379 51.3562 55.5841 47.0101 55.5841 41.6488C55.5841 36.2876 51.2379 31.9414 45.8767 31.9414H38.0283V35.5566H44.9472C48.3123 35.5566 51.0402 38.2845 51.0402 41.6496C51.0402 45.0146 48.3123 47.7425 44.9472 47.7425H38.0283V51.3562Z" fill="#FFA600"/>
<path fill-rule="evenodd" clip-rule="evenodd" d="M38.8545 67.157H31.0061C25.6449 67.157 21.2987 62.8108 21.2987 57.4496C21.2987 52.0883 25.6449 47.7422 31.0061 47.7422H38.8545V51.3574H31.9356C28.5705 51.3574 25.8426 54.0853 25.8426 57.4504C25.8426 60.8154 28.5705 63.5433 31.9356 63.5433H38.8545V67.157Z" fill="#FFA600"/>
<rect x="38.8545" y="63.543" width="18.7952" height="3.61446" fill="#FFA600"/>
</g>
<path fill-rule="evenodd" clip-rule="evenodd" d="M25.4351 44.9556C27.752 43.0524 32.8408 38.1373 34.6612 33.7022C35.4749 31.9094 36.6636 27.4715 34.9094 24.0624C34.3992 22.9729 32.816 20.496 30.5653 19.3045C29.3517 18.5598 25.9812 17.3434 22.208 18.4357C18.4348 19.5279 16.2779 23.028 15.6711 24.6416C15.1057 25.8828 14.372 29.3415 15.9608 33.2471C17.5495 37.1527 22.9389 42.6801 25.4351 44.9556ZM25.3933 32.2129C27.5183 32.2129 29.241 30.4902 29.241 28.3652C29.241 26.2402 27.5183 24.5176 25.3933 24.5176C23.2683 24.5176 21.5457 26.2402 21.5457 28.3652C21.5457 30.4902 23.2683 32.2129 25.3933 32.2129Z" fill="#5B81A9"/>
<path d="M32.9646 25.303C31.1442 20.0073 26.4967 18.2697 24.4005 18.0628C31.2849 17.6325 34.6333 22.7103 35.447 25.303C36.5061 28.2157 35.2815 32.3364 34.5368 34.0327C32.253 38.7326 27.5448 43.2726 25.4762 44.955L24.2764 43.8794C24.7066 43.6146 27.4069 40.7902 28.7032 39.4111C30.8822 36.915 34.785 30.5987 32.9646 25.303Z" fill="#435E7A"/>
<path fill-rule="evenodd" clip-rule="evenodd" d="M66.3302 71.606C68.2571 70.0232 72.4893 65.9354 74.0033 62.2467C74.68 60.7557 75.6687 57.0648 74.2098 54.2295C73.7854 53.3234 72.4687 51.2634 70.5969 50.2724C69.5875 49.6531 66.7843 48.6415 63.6463 49.5498C60.5082 50.4582 58.7143 53.3692 58.2096 54.7112C57.7394 55.7435 57.1292 58.62 58.4505 61.8682C59.7718 65.1164 64.2541 69.7135 66.3302 71.606ZM66.2957 61.0075C68.0631 61.0075 69.4958 59.5748 69.4958 57.8075C69.4958 56.0401 68.0631 54.6074 66.2957 54.6074C64.5284 54.6074 63.0957 56.0401 63.0957 57.8075C63.0957 59.5748 64.5284 61.0075 66.2957 61.0075Z" fill="#5B81A9"/>
<path d="M72.5921 55.2617C71.0781 50.8573 67.2128 49.4122 65.4694 49.2401C71.1951 48.8823 73.9799 53.1054 74.6566 55.2617C75.5375 57.6841 74.519 61.1112 73.8996 62.522C72.0002 66.4308 68.0845 70.2066 66.3641 71.6059L65.3662 70.7113C65.7241 70.4911 67.9698 68.1421 69.048 66.9951C70.8602 64.9191 74.1061 59.666 72.5921 55.2617Z" fill="#435E7A"/>
</svg>
