<svg width="90" height="90" viewBox="0 0 90 90" fill="none" xmlns="http://www.w3.org/2000/svg">
<rect width="90" height="90" rx="20" fill="white"/>
<path d="M52.6349 42.7204H37.5535C36.165 42.7204 35.0616 41.5283 35.3119 40.1626C36.3439 34.5301 38.8948 31.6042 40.1909 30.793H49.8142C52.8882 33.1862 54.286 37.3013 54.8084 40.3062C55.0367 41.6192 53.9676 42.7204 52.6349 42.7204Z" fill="#4C6C8D"/>
<path d="M40.2588 30.7924C41.6255 33.153 45.7346 36.729 51.2374 32.1478C49.8256 30.2728 45.6532 27.3768 40.2588 30.7924Z" fill="#435E7A"/>
<circle cx="45.0029" cy="25.8447" r="6.84471" fill="#4C6C8D"/>
<path d="M41 31.8239C37.1988 34.6648 35.9942 39.0966 35.8671 41C35.4035 41 35.0408 40.5964 35.1098 40.1381C35.9413 34.6162 38.8888 31.7841 40.341 31L41 31.8239Z" fill="#5B81A9"/>
<path d="M49.2384 28.4207C45.1993 32.9206 40.7559 30.77 39.0391 29.1322C39.7168 30.4605 40.722 31.2218 41.1399 31.4364C46.0193 34.6554 49.4078 30.962 49.8144 30.7587C53.4197 26.6112 51.407 22.5925 49.9499 21.1016C51.5493 24.4358 50.142 27.3702 49.2384 28.4207Z" fill="#435E7A"/>
<path d="M41.053 21.3041C38.0441 23.8251 38.4439 27.5953 39.0199 29.1653C36.9326 25.4787 38.9372 22.106 40.2926 20.8297C43.0034 18.2002 46.7759 18.9773 48.2216 19.7793C43.8505 18.4578 41.5613 21.0669 41.053 21.3041Z" fill="#5B81A9"/>
<path d="M29.4731 68.9548V71.8014H40.5246L42.2549 63.2616C43.5052 59.1089 42.3293 55.9126 41.5851 54.8335L31.1476 43.782C29.6294 42.6657 28.4312 43.3168 28.0219 43.782C26.7716 44.5857 27.2405 45.9774 27.6312 46.5728L33.7709 53.3823C34.3514 54.4539 33.7895 55.466 33.436 55.8381C32.8555 56.7312 31.6685 56.5824 31.1476 56.3963L24.952 49.8659C22.9873 48.1691 22.7566 46.2937 22.8869 45.5681L22.1613 34.9073C21.7594 33.1658 20.2821 32.7305 19.5937 32.7305C17.763 32.9537 17.1565 34.2747 17.082 34.9073V49.2519C17.1713 52.5115 18.1611 53.959 18.6449 54.2753L28.4684 65.4943C29.5401 66.4766 29.5847 68.2106 29.4731 68.9548Z" fill="#FFA600"/>
<path d="M33.2688 71.8572H29.4733V69.3455C29.6519 66.9789 28.9896 65.9779 28.636 65.7733L19.3707 55.2241C17.1827 53.2594 16.8962 49.9775 17.0264 48.5821V35.1305C17.339 33.1211 18.8683 32.7304 19.5939 32.7862L20.6544 47.5774C20.6544 52.3552 22.1801 54.666 22.9429 55.2241L30.9803 64.2104C32.7664 65.3714 33.2502 67.485 33.2688 68.3966V71.8572Z" fill="#E49A15"/>
<path d="M60.4966 69.0662V71.9128H49.4451L47.7148 63.373C46.4646 59.2203 47.6404 56.0239 48.3846 54.9448L58.8222 43.8933C60.3403 42.777 61.5385 43.4282 61.9478 43.8933C63.1981 44.697 62.7292 46.0887 62.3385 46.6841L56.1988 53.4936C55.6183 54.5652 56.1802 55.5774 56.5337 55.9495C57.1142 56.8425 58.3012 56.6937 58.8222 56.5076L65.0177 49.9772C66.9824 48.2804 67.2131 46.405 67.0829 45.6794L67.8085 35.0186C68.2103 33.2772 69.6876 32.8418 70.376 32.8418C72.2067 33.0651 72.8133 34.386 72.8877 35.0186V49.3632C72.7984 52.6229 71.8086 54.0704 71.3249 54.3866L61.5013 65.6056C60.4296 66.5879 60.385 68.3219 60.4966 69.0662Z" fill="#FFA600"/>
<path d="M50.8512 61.1973L52.8605 71.8581H49.6232L47.7255 63.095C46.3859 58.1832 47.8743 55.5041 48.786 54.7785L59.0002 43.8944C60.5631 42.8674 61.7724 43.5409 62.1817 44.0061L54.2559 52.0435C50.4605 55.6157 50.4047 59.6344 50.8512 61.1973Z" fill="#E49A15"/>
</svg>
