<svg width="76" height="76" viewBox="0 0 76 76" fill="none" xmlns="http://www.w3.org/2000/svg">
<rect width="76" height="76" rx="16.8889" fill="#EAEEF2"/>
<path d="M26.4361 13.1749C25.2698 13.5963 24.4074 14.3804 23.8488 15.5172L23.5352 16.164V19.2021V22.2403L23.8488 22.8871C24.427 24.0533 25.2992 24.8276 26.4949 25.2294C27.0535 25.4254 27.2985 25.4254 37.6967 25.4058L48.3301 25.3764L49.0161 25.0432C49.9177 24.6021 50.692 23.8279 51.133 22.9263L51.4662 22.2403V19.2021V16.164L51.133 15.478C50.692 14.5764 49.9177 13.8021 49.0161 13.3611L48.3301 13.0279L37.6477 13.0083C27.2985 12.9887 26.9457 12.9887 26.4361 13.1749Z" fill="#FFA600"/>
<path d="M19.8369 20.2204C19.3861 20.7104 19.0529 21.2004 18.7393 21.8276C17.9259 23.5035 17.9847 22.0138 18.0141 40.7619L18.0435 57.4225L18.3081 58.1478C18.7687 59.3924 19.2293 60.098 20.1898 61.0487C21.209 62.0679 22.1988 62.6265 23.5219 62.9598C24.2765 63.146 24.6587 63.1558 37.4972 63.1558C50.3357 63.1558 50.7179 63.146 51.4725 62.9598C51.8939 62.852 52.6192 62.5775 53.0798 62.3521C53.756 62.0189 54.0892 61.7641 54.8438 60.9997C55.6083 60.2451 55.8631 59.9118 56.1963 59.2356C56.4217 58.775 56.6961 58.0498 56.8039 57.6284C56.9999 56.8737 56.9999 56.4915 56.9999 40.4679C56.9999 24.4443 56.9999 24.0621 56.8039 23.3075C56.5197 22.1608 55.9023 21.024 55.1379 20.2008L54.4812 19.5049L54.4126 20.7692C54.3244 22.3274 54.1676 23.0625 53.6776 24.0915C52.972 25.6008 51.7861 26.8062 50.2867 27.5314C48.5912 28.3645 49.385 28.3155 37.4972 28.3155C25.6094 28.3155 26.4032 28.3645 24.7077 27.5314C23.2181 26.8062 22.1008 25.6988 21.3756 24.1993C20.8464 23.1311 20.67 22.3372 20.572 20.73L20.4936 19.5147L19.8369 20.2204ZM31.9796 33.7547C32.156 33.8527 32.3618 34.0781 32.45 34.2349C32.6264 34.5779 32.646 35.2443 32.4892 35.5383C32.2736 35.9401 28.3633 40.5659 28.0595 40.7815C27.6576 41.0755 27.0108 41.0853 26.56 40.8011C26.0896 40.5169 24.3647 37.1162 24.3647 36.4792C24.3647 35.6853 24.9625 35.0973 25.7564 35.1071C26.3836 35.1169 26.7168 35.3815 27.1578 36.2342C27.3734 36.6458 27.5792 36.9888 27.6184 36.9888C27.6478 36.9888 28.2849 36.2636 29.0199 35.3815C29.7451 34.4995 30.4507 33.7351 30.5683 33.6763C30.931 33.4999 31.6366 33.5391 31.9796 33.7547ZM49.9241 36.0381C50.8453 36.538 50.8747 37.8806 49.9829 38.4686C49.7183 38.645 49.434 38.6548 44.9455 38.6548C40.4569 38.6548 40.1727 38.645 39.9081 38.4686C39.7611 38.3706 39.5455 38.155 39.4475 38.008C39.1241 37.5082 39.2515 36.5772 39.6925 36.2146C40.1433 35.8421 40.4569 35.8127 45.0925 35.8421C49.2184 35.8617 49.6301 35.8813 49.9241 36.0381ZM26.4424 44.6919C26.5894 44.7703 26.9128 45.1329 27.1774 45.5151C27.4322 45.8875 27.6674 46.1913 27.6968 46.1913C27.7262 46.1913 27.9614 45.8875 28.2163 45.5151C28.7259 44.7703 29.1081 44.5057 29.6569 44.5057C30.4409 44.5057 31.029 45.1035 31.029 45.9169C31.029 46.3285 30.9506 46.4755 30.2449 47.485C29.8137 48.0926 29.4609 48.6218 29.4609 48.6512C29.4609 48.6806 29.6471 48.9746 29.8823 49.2882C30.9506 50.7583 31.029 50.9053 31.029 51.3855C31.029 52.1794 30.4507 52.7674 29.6667 52.7674C29.0885 52.7674 28.7161 52.5126 28.1869 51.7383C27.9418 51.3953 27.7262 51.1013 27.6968 51.1013C27.6674 51.1013 27.4518 51.3953 27.2068 51.7383C26.6776 52.5126 26.3052 52.7674 25.727 52.7674C24.9429 52.7674 24.3647 52.1794 24.3647 51.3855C24.3647 50.9053 24.4431 50.7583 25.5114 49.2882C25.7466 48.9746 25.9328 48.6806 25.9328 48.6512C25.9328 48.6218 25.58 48.0926 25.1487 47.485C24.4529 46.4951 24.3647 46.3187 24.3647 45.9365C24.3647 45.2211 24.6489 44.8095 25.3154 44.5841C25.7074 44.4469 26.0014 44.4763 26.4424 44.6919ZM49.9045 47.534C50.9139 48.0142 50.8649 49.5529 49.8163 50.0233C49.434 50.1997 49.1302 50.2193 44.9455 50.2193C40.7607 50.2193 40.4569 50.1997 40.0747 50.0233C39.0359 49.5529 38.9771 48.0338 39.9767 47.534C40.2511 47.3968 40.8783 47.3772 44.9259 47.3772C48.993 47.3772 49.6104 47.3968 49.9045 47.534Z" fill="#5B81A9"/>
<path d="M41.5938 63.1147C52.8257 59.6827 56.5437 47.2547 56.9987 41.4697V57.2647C56.2187 60.6967 52.6437 62.5947 50.9537 63.1147H41.5938Z" fill="#435E7A"/>
<path d="M23.5938 22.7561C24.403 17.2638 30.8996 13.9636 34.0467 13H26.6285C24.7402 13 23.8185 15.168 23.5938 16.252V22.7561Z" fill="white" fill-opacity="0.24"/>
</svg>
