<svg width="120" height="120" viewBox="0 0 120 120" fill="none" xmlns="http://www.w3.org/2000/svg">
<rect width="120" height="120" rx="26.6667" fill="#EDF2F7"/>
<mask id="mask0_4589_19647" style="mask-type:alpha" maskUnits="userSpaceOnUse" x="27" y="42" width="50" height="49">
<path fill-rule="evenodd" clip-rule="evenodd" d="M37.3105 42.7211C37.3933 42.7201 37.4763 42.7199 37.5595 42.7204L61.1815 42.8816C68.3952 42.9308 74.2032 48.8186 74.154 56.0323C74.1048 63.246 68.217 69.054 61.0033 69.0048L50.445 68.9328L50.4781 64.0732L59.79 64.1367C64.3178 64.1676 68.0133 60.5221 68.0442 55.9944C68.0751 51.4666 64.4296 47.7711 59.9019 47.7402L50.59 47.6767L50.6232 42.8119L37.3105 42.7211Z" fill="#FFA600"/>
<path fill-rule="evenodd" clip-rule="evenodd" d="M64.6685 90.3015C64.6043 90.302 64.54 90.302 64.4755 90.3016L40.8535 90.1404C33.6398 90.0912 27.8318 84.2035 27.881 76.9897C27.9302 69.776 33.8179 63.968 41.0317 64.0172L51.5958 64.0893L51.5627 68.9502L42.2455 68.8866C37.7177 68.8557 34.0222 72.5012 33.9913 77.0289C33.9604 81.5567 37.6058 85.2522 42.1336 85.2831L51.4508 85.3467L51.4176 90.2111L64.6685 90.3015Z" fill="#FFA600"/>
<rect x="51.4424" y="85.3403" width="25.2901" height="4.86348" transform="rotate(0.390845 51.4424 85.3403)" fill="#FFA600"/>
</mask>
<g mask="url(#mask0_4589_19647)">
<path fill-rule="evenodd" clip-rule="evenodd" d="M37.3105 42.7211C37.3933 42.7201 37.4763 42.7199 37.5595 42.7204L61.1815 42.8816C68.3952 42.9308 74.2032 48.8186 74.154 56.0323C74.1048 63.246 68.217 69.054 61.0033 69.0048L50.445 68.9328L50.4781 64.0732L59.79 64.1367C64.3178 64.1676 68.0133 60.5221 68.0442 55.9944C68.0751 51.4666 64.4296 47.7711 59.9019 47.7402L50.59 47.6767L50.6232 42.8119L37.3105 42.7211Z" fill="#FFA600"/>
<path fill-rule="evenodd" clip-rule="evenodd" d="M64.6685 90.3015C64.6043 90.302 64.54 90.302 64.4755 90.3016L40.8535 90.1404C33.6398 90.0912 27.8318 84.2035 27.881 76.9897C27.9302 69.776 33.8179 63.968 41.0317 64.0172L51.5958 64.0893L51.5627 68.9502L42.2455 68.8866C37.7177 68.8557 34.0222 72.5012 33.9913 77.0289C33.9604 81.5567 37.6058 85.2522 42.1336 85.2831L51.4508 85.3467L51.4176 90.2111L64.6685 90.3015Z" fill="#FFA600"/>
<rect x="51.4424" y="85.3403" width="25.2901" height="4.86348" transform="rotate(0.390845 51.4424 85.3403)" fill="#FFA600"/>
</g>
<circle cx="33.2817" cy="37.3067" r="7" transform="rotate(15.4043 33.2817 37.3067)" fill="#FFCF54"/>
<path fill-rule="evenodd" clip-rule="evenodd" d="M33.5435 60.2051C36.6784 57.6657 43.5707 51.099 46.0608 45.1481C47.172 42.7433 48.8123 36.7828 46.4833 32.1797C45.8067 30.7091 43.6992 27.3619 40.6818 25.738C39.0557 24.7248 34.5317 23.0572 29.4448 24.4922C24.3578 25.9272 21.4235 30.617 20.5922 32.7825C19.8201 34.4473 18.8011 39.0944 20.9029 44.3641C23.0047 49.6337 30.2057 57.1205 33.5435 60.2051ZM33.602 43.0597C36.4612 43.0792 38.7949 40.7771 38.8144 37.9178C38.8339 35.0586 36.5319 32.7249 33.6726 32.7054C30.8134 32.6859 28.4797 34.988 28.4602 37.8472C28.4407 40.7065 30.7427 43.0402 33.602 43.0597Z" fill="#5B81A9"/>
<path d="M43.8619 33.8338C41.4611 26.6916 35.2237 24.3108 32.405 24.0133C41.6722 23.4975 46.131 30.3606 47.202 33.8566C48.6004 37.7853 46.9148 43.3187 45.8972 45.5942C42.7811 51.8972 36.4044 57.9626 33.6056 60.2074L32.0011 58.7491C32.5825 58.3967 36.2417 54.6212 37.9986 52.7775C40.9534 49.4389 46.2627 40.976 43.8619 33.8338Z" fill="#435E7A"/>
<circle cx="88.3481" cy="78.4097" r="7" transform="rotate(15.4043 88.3481 78.4097)" fill="#FFCF54"/>
<path fill-rule="evenodd" clip-rule="evenodd" d="M88.3292 96.4377C90.9364 94.3257 96.6686 88.8643 98.7396 83.915C99.6638 81.915 101.028 76.9578 99.091 73.1295C98.5283 71.9064 96.7755 69.1226 94.266 67.772C92.9136 66.9294 89.1511 65.5425 84.9204 66.7359C80.6897 67.9294 78.2493 71.8298 77.5579 73.6308C76.9157 75.0154 76.0683 78.8803 77.8163 83.263C79.5643 87.6457 85.5533 93.8723 88.3292 96.4377ZM88.3758 82.1759C90.7538 82.1921 92.6947 80.2775 92.711 77.8995C92.7272 75.5215 90.8126 73.5806 88.4346 73.5644C86.0566 73.5482 84.1157 75.4628 84.0995 77.8407C84.0833 80.2187 85.9979 82.1596 88.3758 82.1759Z" fill="#5B81A9"/>
<path d="M96.9054 74.5039C94.9087 68.5639 89.7212 66.5838 87.377 66.3364C95.0843 65.9074 98.7926 71.6153 99.6833 74.5229C100.846 77.7904 99.4445 82.3923 98.5981 84.2849C96.0066 89.5269 90.7032 94.5714 88.3754 96.4384L87.041 95.2255C87.5245 94.9325 90.5678 91.7925 92.029 90.2591C94.4865 87.4824 98.9021 80.444 96.9054 74.5039Z" fill="#435E7A"/>
</svg>
