<svg width="120" height="120" viewBox="0 0 120 120" fill="none" xmlns="http://www.w3.org/2000/svg">
<rect width="120" height="120" rx="26.6667" fill="#EDF2F7"/>
<path d="M80.8126 93.7376L34.5405 94.1836C33.0245 94.1982 31.7835 92.9814 31.7683 91.4653L31.1323 28.0301C31.1171 26.5148 32.3323 25.2736 33.8475 25.2567L69.1368 24.8643L82.9512 38.7421L83.5319 90.9612C83.5488 92.4792 82.3306 93.7229 80.8126 93.7376Z" fill="#FFA600"/>
<path d="M72.0224 38.8008L82.9511 38.7406L69.1367 24.8628L69.2615 36.0854C69.2783 37.5959 70.5119 38.8091 72.0224 38.8008Z" fill="#4C6C8D"/>
<rect x="40.4268" y="49.4131" width="33.6574" height="2.76012" rx="1.37298" transform="rotate(-0.637161 40.4268 49.4131)" fill="#4C6C8D"/>
<rect x="40.5312" y="58.3057" width="33.6574" height="2.76012" rx="1.37298" transform="rotate(-0.637161 40.5312 58.3057)" fill="#4C6C8D"/>
<rect x="40.623" y="66.5815" width="33.6574" height="2.76012" rx="1.37298" transform="rotate(-0.637161 40.623 66.5815)" fill="#4C6C8D"/>
<path d="M49.1398 25.0867C39.408 27.4955 32.4064 48.7481 31.3405 53.2709L31.0598 28.0339C31.043 26.5174 32.2586 25.2744 33.7751 25.2576L49.1398 25.0867Z" fill="#FBC157"/>
<path d="M64.3896 94.0021C79.8528 83.7704 80.738 52.9783 79.2477 38.8612L83.0207 38.8192L83.5298 91.0469C83.5446 92.5619 82.3295 93.8026 80.8146 93.8195L64.3896 94.0021Z" fill="#DC9002"/>
<path d="M96.1426 45.3985C96.6291 43.9571 95.8656 42.387 94.4373 41.8916L93.0132 41.3976C91.5849 40.9022 90.0327 41.6691 89.5462 43.1105L75.7205 84.0753L82.3169 86.3633L96.1426 45.3985Z" fill="#4C6C8D"/>
<path d="M82.3032 86.3239L75.7291 84.0638L75.813 91.0523C75.8172 91.4021 76.2253 91.5845 76.4903 91.3551L82.3032 86.3239Z" fill="#FFA600"/>
</svg>
