<svg width="120" height="120" viewBox="0 0 120 120" fill="none" xmlns="http://www.w3.org/2000/svg">
<path d="M0 26.6667C0 11.9391 11.9391 0 26.6667 0H93.3333C108.061 0 120 11.9391 120 26.6667V93.3333C120 108.061 108.061 120 93.3333 120H26.6667C11.9391 120 0 108.061 0 93.3333V26.6667Z" fill="#EDF2F7"/>
<path d="M58.1474 93.4403H26.0246C25.4739 93.4403 25.0404 92.9672 25.0988 92.4196C26.3509 80.6719 31.4174 74.721 33.8594 73.1924H50.1958C56.6032 78.1807 58.7209 87.576 59.0647 92.4784C59.1017 93.0057 58.676 93.4403 58.1474 93.4403Z" fill="#4C6C8D"/>
<path d="M33.9717 73.1924C36.2918 77.1997 43.2673 83.2703 52.6089 75.4932C50.2122 72.3103 43.1293 67.3941 33.9717 73.1924Z" fill="#435E7A"/>
<circle cx="42.0209" cy="64.7948" r="11.6195" fill="#4C6C8D"/>
<path d="M35.009 74.8044C28.7045 80.5566 26.7066 89.5301 26.4957 93.3841H26.0819C25.531 93.3841 25.0974 92.9108 25.1562 92.363C26.4088 80.7053 31.4559 74.7577 33.9161 73.1362L35.009 74.8044Z" fill="#5B81A9"/>
<path d="M49.2205 69.169C42.3638 76.808 34.8207 73.1572 31.9062 70.377C33.0567 72.6318 34.7632 73.9242 35.4726 74.2885C43.7559 79.7531 49.5081 73.4832 50.1984 73.138C56.3188 66.0973 52.9019 59.2751 50.4285 56.7441C53.1435 62.4043 50.7544 67.3858 49.2205 69.169Z" fill="#435E7A"/>
<path d="M35.3237 57.0875C30.2157 61.3672 30.8945 67.7675 31.8723 70.4327C28.329 64.1742 31.732 58.4488 34.0329 56.2822C38.6346 51.8184 45.0388 53.1376 47.4931 54.499C40.0727 52.2556 36.1865 56.6848 35.3237 57.0875Z" fill="#5B81A9"/>
<path d="M94.2465 93.4862H68.47C67.9192 93.4862 67.4854 93.0137 67.5465 92.4663C68.5995 83.0295 72.6821 78.2414 74.6567 77.0054H87.9537C93.093 81.0064 94.8417 88.4906 95.1594 92.5264C95.2009 93.0533 94.7751 93.4862 94.2465 93.4862Z" fill="#4C6C8D"/>
<path d="M74.7539 77.0057C76.6423 80.2676 82.3201 85.2087 89.9238 78.8786C87.9729 76.2878 82.2077 72.2862 74.7539 77.0057Z" fill="#435E7A"/>
<circle cx="81.2976" cy="70.1706" r="9.45776" fill="#4C6C8D"/>
<path d="M75.5941 78.3163C70.4626 82.9984 68.8363 90.3024 68.6647 93.4393H68.5185C67.9675 93.4393 67.5336 92.9663 67.5952 92.4188C68.6487 83.0549 72.7154 78.2695 74.7045 76.9585L75.5941 78.3163Z" fill="#5B81A9"/>
<path d="M87.1506 73.7304C81.5696 79.9482 75.4299 76.9767 73.0576 74.7137C73.994 76.549 75.383 77.6009 75.9605 77.8975C82.7027 82.3454 87.3847 77.242 87.9466 76.9611C92.9283 71.2302 90.1471 65.6773 88.1338 63.6172C90.3438 68.2243 88.3992 72.279 87.1506 73.7304Z" fill="#435E7A"/>
<path d="M75.8447 63.8965C71.687 67.3799 72.2395 72.5895 73.0355 74.7588C70.1513 69.6648 72.9212 65.0045 74.794 63.241C78.5397 59.6077 83.7524 60.6814 85.75 61.7895C79.7102 59.9635 76.547 63.5687 75.8447 63.8965Z" fill="#5B81A9"/>
<path d="M63.5061 50.4203L58.4757 55.4506C57.976 55.9504 57.1215 55.5964 57.1215 54.8897V50.1364C57.1215 49.9724 56.9886 49.8395 56.8246 49.8395C55.0204 49.8395 53.5579 48.3769 53.5579 46.5728V31.3625C53.5579 28.9529 55.5113 26.9995 57.9209 26.9995H91.635C94.0447 26.9995 95.998 28.9529 95.998 31.3625V45.4764C95.998 47.8861 94.0447 49.8395 91.635 49.8395H64.9084C64.3824 49.8395 63.878 50.0484 63.5061 50.4203Z" fill="#FFA600"/>
<path d="M84.2959 49.8081C94.2116 49.2132 94.2118 44.0569 95.9967 30.7695V45.4451C95.9967 47.8547 94.0446 49.8081 91.6349 49.8081H84.2959Z" fill="#DC9002"/>
<path d="M69.0294 26.9995C51.974 27.9911 55.1471 37.907 53.5605 46.8314V30.5692C53.5605 28.5977 55.1588 26.9995 57.1303 26.9995H69.0294Z" fill="#FBC157"/>
<circle cx="66.6424" cy="38.8958" r="1.98319" fill="#EDF2F7"/>
<circle cx="74.9715" cy="38.8958" r="1.98319" fill="#EDF2F7"/>
<circle cx="83.3015" cy="38.8958" r="1.98319" fill="#EDF2F7"/>
</svg>
