<svg width="120" height="120" viewBox="0 0 120 120" fill="none" xmlns="http://www.w3.org/2000/svg">
<rect width="120" height="120" rx="26.6667" fill="#EDF2F7"/>
<path d="M70.0833 56.2105L50.1287 55.8042C48.2915 55.7668 46.8637 54.1598 47.2316 52.3595C48.7488 44.9348 52.2029 41.1322 53.9396 40.0937L66.6724 40.353C70.6753 43.6023 72.414 49.0848 73.0242 53.0748C73.2908 54.8182 71.8466 56.2464 70.0833 56.2105Z" fill="#4C6C8D"/>
<path d="M54.0355 40.0936C55.7802 43.2538 61.1207 48.096 68.5252 42.1827C66.7076 39.6639 61.2651 35.7196 54.0355 40.0936Z" fill="#435E7A"/>
<circle cx="60.4453" cy="33.6784" r="9.05834" transform="rotate(1.16644 60.4453 33.6784)" fill="#4C6C8D"/>
<path d="M54.9879 41.4788C49.8819 45.1353 48.1686 50.9667 47.9491 53.4817C47.3358 53.4692 46.8667 52.9255 46.9704 52.3209C48.2193 45.0372 52.1955 41.3692 54.1382 40.3709L54.9879 41.4788Z" fill="#5B81A9"/>
<path d="M65.9805 37.1972C60.515 43.0423 54.6937 40.0772 52.4663 37.8639C53.3272 39.6397 54.6367 40.674 55.1839 40.9692C61.5533 45.3599 66.1362 40.5643 66.6797 40.3062C71.5617 34.9157 69.0068 29.5442 67.1192 27.5322C69.1455 31.987 67.2043 35.8317 65.9805 37.1972Z" fill="#435E7A"/>
<path d="M55.3365 27.5636C51.2873 30.8181 51.7148 35.8174 52.4347 37.9103C49.7722 32.9761 52.5155 28.5676 54.3432 26.9154C58.0008 23.5093 62.9713 24.6391 64.8626 25.7391C59.1147 23.8729 56.0154 27.2634 55.3365 27.5636Z" fill="#5B81A9"/>
<path d="M38.7268 90.3005L38.6501 94.067L53.2727 94.3647L55.7921 83.112C57.5583 77.6512 56.0886 73.3903 55.133 71.9424L41.6205 57.0386C39.6418 55.5207 38.0389 56.35 37.4848 56.9544C35.8089 57.9842 36.3917 59.8382 36.8926 60.6365L44.8329 69.8118C45.572 71.2454 44.8013 72.5694 44.3236 73.0522C43.5315 74.2182 41.9649 73.9893 41.2806 73.7291L33.259 64.9215C30.7052 62.6235 30.4505 60.1359 30.6423 59.1793L29.9695 45.0542C29.4846 42.7392 27.5418 42.1233 26.6309 42.1048C24.2026 42.3509 23.3645 44.0823 23.249 44.9173L22.8625 63.8972C22.8929 68.2125 24.1635 70.1544 24.795 70.5859L37.4907 85.6947C38.8821 87.0233 38.8945 89.3189 38.7268 90.3005Z" fill="#FFA600"/>
<path d="M43.6742 94.2415L38.6523 94.1393L38.72 90.816C39.0201 87.6895 38.1706 86.3472 37.7084 86.0669L25.7333 71.8593C22.8912 69.2008 22.6005 64.8506 22.8104 63.0079L23.1728 45.2096C23.6405 42.5594 25.6746 42.0837 26.6332 42.1771L27.6379 61.7763C27.5091 68.098 29.4655 71.1965 30.4598 71.9556L40.8523 84.0622C43.1843 85.6464 43.7674 88.456 43.7674 89.6627L43.6742 94.2415Z" fill="#E49A15"/>
<path d="M79.7834 91.2818L79.7067 95.0483L65.0841 94.7505L63.0248 83.4046C61.4824 77.8764 63.1243 73.6789 64.138 72.2711L78.246 57.9297C80.2848 56.4936 81.8526 57.3875 82.3817 58.0139C84.0143 59.1111 83.3564 60.9398 82.8234 61.717L74.5163 70.5615C73.7194 71.9638 74.4356 73.3181 74.8933 73.82C75.6373 75.0172 77.2119 74.8523 77.9062 74.6201L86.2796 66.1464C88.9249 63.9543 89.2807 61.4791 89.1279 60.5155L90.3752 46.4294C90.9538 44.1361 92.9201 43.5998 93.831 43.6184C96.2473 43.9631 97.0142 45.7273 97.0957 46.5662L96.7092 65.5461C96.5032 69.8566 95.1546 71.7452 94.506 72.1506L81.2059 86.7301C79.7615 88.001 79.6557 90.2941 79.7834 91.2818Z" fill="#FFA600"/>
<path d="M67.2321 80.6075L69.6036 94.7673L65.3202 94.6801L63.0453 83.0343C61.4052 76.4993 63.4467 72.9945 64.6725 72.059L78.4806 57.9331C80.5761 56.6164 82.158 57.5401 82.6871 58.1665L71.9837 68.5876C66.8655 73.2119 66.6834 78.5277 67.2321 80.6075Z" fill="#E49A15"/>
</svg>
