<svg width="120" height="120" viewBox="0 0 120 120" fill="none" xmlns="http://www.w3.org/2000/svg">
<rect width="120" height="120" rx="26.67" fill="#EDF2F7"/>
<path d="M97.8378 41.9382C98.0789 39.9894 97.5436 38.6141 97.2458 38.17L72.0768 62.1838L96.8438 81.2978C97.3528 80.5221 97.5216 78.3544 97.5073 77.4019C97.517 66.3927 97.5967 43.887 97.8378 41.9382Z" fill="#FFA600"/>
<path d="M34.3167 84.2679C30.0733 85.0088 27.5546 82.1145 26.8258 80.5748L50.1736 57.5891L73.3748 57.8054L96.9869 81.2287C95.905 83.6713 93.5408 84.6341 92.494 84.8102L34.3167 84.2679Z" fill="#DC9002"/>
<path d="M32.4084 34.0157C29.1714 34.4314 27.6477 36.4333 27.2904 37.3823L57.3133 68.2514C61.0156 71.742 64.8943 69.7621 66.3708 68.3358L97.1729 38.0336C95.523 35.6212 93.3481 34.723 92.4669 34.5754L32.4084 34.0157Z" fill="#4C6C8D"/>
<path d="M26.5085 39.8102C26.5153 39.0855 27.0374 37.8873 27.2977 37.3787L48.6241 59.3175L26.8254 80.5756C26.2737 79.9573 26.144 78.9202 26.1481 78.4789L26.5085 39.8102Z" fill="#FFA600"/>
</svg>
