<svg width="120" height="120" viewBox="0 0 120 120" fill="none" xmlns="http://www.w3.org/2000/svg">
<rect width="120" height="120" rx="26.6667" fill="#EDF2F7"/>
<rect x="36.7344" y="50.2842" width="48.4849" height="40.86" transform="rotate(1.3353 36.7344 50.2842)" fill="#EDF2F7"/>
<path d="M42.494 20.5141C40.6325 21.1576 39.2456 22.3838 38.3333 24.1769L37.821 25.1973L37.7541 30.0223L37.6871 34.8472L38.1709 35.8814C39.0635 37.7463 40.4317 38.9951 42.3217 39.6596C43.2046 39.9832 43.5937 39.9886 60.108 40.1866L76.996 40.3742L78.0928 39.8601C79.5345 39.1796 80.7811 37.9671 81.5014 36.5449L82.0457 35.4627L82.1127 30.6377L82.1796 25.8128L81.6655 24.7159C80.985 23.2743 79.7725 22.0276 78.3503 21.3074L77.2681 20.7631L60.3033 20.4965C43.8677 20.2373 43.3074 20.2296 42.494 20.5141Z" fill="#FFA600"/>
<path d="M31.8625 31.5559C31.1357 32.3242 30.5957 33.0951 30.0839 34.0843C28.7551 36.7279 28.8813 34.3634 28.5149 64.1387L28.1944 90.5989L28.5987 91.7565C29.3028 93.7433 30.0188 94.8741 31.5231 96.405C33.1194 98.0462 34.6791 98.9552 36.7729 99.5135C37.9673 99.8259 38.5741 99.8499 58.9634 100.133C79.3528 100.416 79.96 100.409 81.1626 100.129C81.8342 99.9675 82.9921 99.5477 83.7286 99.1999C84.8098 98.6856 85.3446 98.2882 86.5599 97.0908C87.7906 95.9092 88.2026 95.3856 88.7467 94.319C89.1148 93.5925 89.5666 92.4468 89.7471 91.7799C90.075 90.5857 90.0835 89.9787 90.4366 64.5309C90.7896 39.0831 90.7981 38.4761 90.5034 37.2733C90.0773 35.446 89.1218 33.6269 87.9259 32.3027L86.8984 31.1831L86.7616 33.1894C86.5872 35.6622 86.322 36.8261 85.5211 38.4496C84.3672 40.8309 82.4573 42.7192 80.06 43.8379C77.349 45.1236 78.6108 45.0632 59.7312 44.8013C40.8515 44.5393 42.1112 44.6346 39.4369 43.2743C37.0871 42.0897 35.3371 40.3063 34.2184 37.909C33.4015 36.2008 33.1388 34.9362 33.0186 32.3815L32.9208 30.4497L31.8625 31.5559ZM50.8485 53.3179C51.1265 53.4775 51.4484 53.84 51.5851 54.091C51.8577 54.6396 51.8741 55.6984 51.6186 56.1619C51.2673 56.7953 44.9552 64.0555 44.4679 64.3912C43.8233 64.8493 42.7959 64.8506 42.0862 64.3893C41.3453 63.9276 38.6809 58.4887 38.695 57.477C38.7125 56.2163 39.6748 55.2956 40.9353 55.3287C41.9313 55.3581 42.4546 55.7857 43.1362 57.1495C43.4696 57.8079 43.7889 58.3572 43.8511 58.3581C43.8978 58.3587 44.9255 57.221 46.1122 55.8364C47.2834 54.4516 48.4209 53.2531 48.609 53.1623C49.1888 52.8902 50.3085 52.968 50.8485 53.3179ZM79.2967 57.3399C80.7487 58.154 80.7658 60.2869 79.3365 61.2011C78.9124 61.4755 78.4608 61.4848 71.3323 61.3859C64.2038 61.2869 63.7526 61.2651 63.3363 60.9791C63.105 60.8202 62.7673 60.4731 62.6149 60.2375C62.1123 59.4365 62.3351 57.9607 63.0435 57.3946C63.7677 56.813 64.2664 56.7733 71.6277 56.9221C78.1799 57.0442 78.8332 57.0844 79.2967 57.3399ZM41.8136 70.5658C42.0454 70.6936 42.551 71.2766 42.9628 71.8894C43.3593 72.4865 43.7262 72.9742 43.7728 72.9748C43.8195 72.9755 44.1998 72.4981 44.6127 71.9123C45.4384 70.7406 46.0513 70.3288 46.9229 70.3409C48.168 70.3582 49.0887 71.3206 49.0708 72.6124C49.0617 73.2661 48.934 73.4979 47.7911 75.0855C47.0929 76.0409 46.5209 76.8736 46.5202 76.9203C46.5196 76.967 46.8088 77.4381 47.1755 77.9413C48.8396 80.2995 48.9609 80.5347 48.9503 81.2974C48.9328 82.5581 48.0015 83.4792 46.7564 83.4619C45.8381 83.4492 45.2523 83.0363 44.4288 81.7951C44.0473 81.2449 43.7113 80.7732 43.6647 80.7726C43.618 80.7719 43.2691 81.2341 42.8724 81.7735C42.0149 82.9914 41.4178 83.3879 40.4995 83.3751C39.2543 83.3578 38.349 82.4112 38.3665 81.1505C38.3771 80.3879 38.5048 80.1561 40.2337 77.845C40.6142 77.3521 40.9164 76.8893 40.917 76.8426C40.9177 76.7959 40.369 75.9477 39.6976 74.9732C38.6143 73.3858 38.4781 73.1037 38.4866 72.4967C38.5023 71.3605 38.9628 70.7131 40.0261 70.3698C40.6517 70.1605 41.118 70.2137 41.8136 70.5658ZM79.0122 75.5965C80.6048 76.3814 80.493 78.8239 78.8173 79.5479C78.2064 79.8196 77.7235 79.8441 71.0774 79.7519C64.4314 79.6597 63.9494 79.6218 63.3463 79.3332C61.7068 78.5633 61.6469 76.1495 63.2455 75.3777C63.6843 75.1659 64.6808 75.1486 71.1089 75.2378C77.5682 75.3274 78.5483 75.3721 79.0122 75.5965Z" fill="#5B81A9"/>
<path d="M65.4742 100.16C83.3879 94.957 89.5664 75.3015 90.4165 66.1241L90.0685 91.2089C88.7541 96.6422 83.0346 99.5777 80.3392 100.366L65.4742 100.16Z" fill="#435E7A"/>
<path d="M37.5836 35.6305C39.08 26.3681 50.519 21.9257 55.8599 20.3712L43.08 20.3321C39.956 21.1371 38.1769 23.7599 37.7716 25.5865L37.5836 35.6305Z" fill="white" fill-opacity="0.24"/>
</svg>
