<svg width="120" height="120" viewBox="0 0 120 120" fill="none" xmlns="http://www.w3.org/2000/svg">
<rect width="120" height="120" rx="26.6667" fill="#EDF2F7"/>
<rect x="32.9873" y="35.0977" width="59.4473" height="52.1802" rx="3.57398" transform="rotate(0.353065 32.9873 35.0977)" fill="#FFA600"/>
<rect x="32.9561" y="38.9111" width="59.4473" height="10.0072" transform="rotate(0.353065 32.9561 38.9111)" fill="#4C6C8D"/>
<path fill-rule="evenodd" clip-rule="evenodd" d="M43.1154 32.1851C43.1267 30.3429 44.6294 28.8587 46.4716 28.87C48.3138 28.8814 49.798 30.384 49.7867 32.2262L49.7684 35.2031L75.5013 35.3617L75.5197 32.3852C75.531 30.543 77.0336 29.0587 78.8759 29.0701C80.7181 29.0814 82.2023 30.5841 82.191 32.4263L82.1726 35.4028L88.848 35.4439C90.8218 35.4561 92.412 37.066 92.3999 39.0398L92.3822 41.899C92.3701 43.8728 90.7601 45.463 88.7863 45.4509L36.488 45.1286C34.5142 45.1164 32.9239 43.5065 32.9361 41.5326L32.9537 38.6735C32.9659 36.6997 34.5758 35.1095 36.5497 35.1216L43.097 35.162L43.1154 32.1851Z" fill="#4C6C8D"/>
<circle cx="37.612" cy="76.1091" r="17.8699" transform="rotate(0.353065 37.612 76.1091)" fill="#F09C01"/>
<circle cx="37.6111" cy="76.11" r="14.8916" transform="rotate(0.353065 37.6111 76.11)" fill="#EDF2F7"/>
<path d="M36.5957 67.1084L36.5428 75.6858C36.5388 76.3437 37.0689 76.8804 37.7268 76.8844L44.5173 76.9263" stroke="#FFA600" stroke-width="2.14439" stroke-linecap="round"/>
<rect x="78.2393" y="56.5854" width="7.38623" height="7.38623" rx="1.19133" transform="rotate(0.353065 78.2393 56.5854)" fill="#4C6C8D"/>
<rect x="78.165" y="68.6167" width="7.38623" height="7.38623" rx="1.19133" transform="rotate(0.353065 78.165 68.6167)" fill="#4C6C8D"/>
<rect x="67.3174" y="68.5513" width="7.38623" height="7.38623" rx="1.19133" transform="rotate(0.353065 67.3174 68.5513)" fill="#4C6C8D"/>
<rect x="56.4834" y="68.4819" width="7.38623" height="7.38623" rx="1.19133" transform="rotate(0.353065 56.4834 68.4819)" fill="#4C6C8D"/>
<rect x="67.3916" y="56.5181" width="7.38623" height="7.38623" rx="1.19133" transform="rotate(0.353065 67.3916 56.5181)" fill="#4C6C8D"/>
<rect x="56.5674" y="56.4487" width="7.38623" height="7.38623" rx="1.19133" transform="rotate(0.353065 56.5674 56.4487)" fill="#4C6C8D"/>
<path d="M32.9525 48.9175C34.4609 41.6556 40.2845 36.9777 43.0846 35.499C43.1334 35.4732 43.1621 35.424 43.1624 35.3688C43.1629 35.2868 43.0969 35.2199 43.0148 35.2194L36.5516 35.1796C33.3107 35.2549 32.8419 37.8571 33.0127 39.1488L32.9525 48.9175Z" fill="#8A9FB5" fill-opacity="0.45"/>
<path d="M76.9736 87.5519C89.2629 80.6081 90.3604 59.1353 89.373 49.2668L92.3395 49.2851L92.0622 85.2659C92.052 86.5803 90.9793 87.6382 89.6649 87.6301L76.9736 87.5519Z" fill="#DC9002" fill-opacity="0.44"/>
</svg>
