<svg width="120" height="120" viewBox="0 0 120 120" fill="none" xmlns="http://www.w3.org/2000/svg">
<rect width="120" height="120" rx="26.67" fill="#EDF2F7"/>
<path d="M57.423 90.6411H26.7578C26.5324 90.6411 26.3555 90.4446 26.3767 90.2202C27.4354 79.0336 32.2243 73.3887 34.5138 71.9556H49.5896C55.7257 76.7326 57.5987 85.8891 57.8033 90.2472C57.8134 90.4633 57.6393 90.6411 57.423 90.6411Z" fill="#4C6C8D"/>
<path d="M34.6211 71.9532C36.7621 75.6514 43.1995 81.2535 51.8203 74.0766C49.6085 71.1393 43.0721 66.6023 34.6211 71.9532Z" fill="#435E7A"/>
<circle cx="42.0501" cy="64.2039" r="10.723" fill="#4C6C8D"/>
<path d="M35.5702 73.4413C29.7522 78.7497 27.9085 87.0308 27.7138 90.5874H26.8059C26.5804 90.5874 26.4035 90.3907 26.4249 90.1663C27.4838 79.0638 32.2549 73.4222 34.5617 71.9019L35.5702 73.4413Z" fill="#5B81A9"/>
<path d="M48.6882 68.2371C42.3606 75.2867 35.3995 71.9176 32.71 69.3519C33.7716 71.4328 35.3465 72.6254 36.0012 72.9616C43.6453 78.0046 48.9537 72.2184 49.5907 71.8999C55.2388 65.4024 52.0856 59.1067 49.803 56.771C52.3086 61.9945 50.1038 66.5915 48.6882 68.2371Z" fill="#435E7A"/>
<path d="M35.8659 57.0934C31.152 61.0428 31.7784 66.9493 32.6808 69.4089C29.4109 63.6333 32.5513 58.3497 34.6747 56.3502C38.9214 52.2309 44.8314 53.4483 47.0963 54.7046C40.2485 52.6343 36.6622 56.7218 35.8659 57.0934Z" fill="#5B81A9"/>
<path d="M93.547 90.6602H62.8818C62.6564 90.6602 62.4795 90.4636 62.5007 90.2392C63.5594 79.0526 68.3484 73.4077 70.6378 71.9746H85.7137C91.8497 76.7516 93.7227 85.9081 93.9273 90.2662C93.9375 90.4823 93.7634 90.6602 93.547 90.6602Z" fill="#4C6C8D"/>
<path d="M70.7451 71.9723C72.8862 75.6704 79.3235 81.2726 87.9443 74.0956C85.7325 71.1583 79.1961 66.6214 70.7451 71.9723Z" fill="#435E7A"/>
<circle cx="78.1741" cy="64.223" r="10.723" fill="#4C6C8D"/>
<path d="M71.6943 73.4594C65.8763 78.7678 64.0325 87.0488 63.8378 90.6055H62.9299C62.7044 90.6055 62.5275 90.4088 62.5489 90.1844C63.6078 79.0818 68.379 73.4403 70.6857 71.9199L71.6943 73.4594Z" fill="#5B81A9"/>
<path d="M84.8123 68.2562C78.4846 75.3057 71.5236 71.9367 68.834 69.3709C69.8957 71.4518 71.4705 72.6445 72.1252 72.9806C79.7693 78.0236 85.0777 72.2375 85.7147 71.919C91.3628 65.4215 88.2096 59.1257 85.927 56.79C88.4326 62.0135 86.2278 66.6106 84.8123 68.2562Z" fill="#435E7A"/>
<path d="M71.9899 57.1124C67.2761 61.0619 67.9024 66.9684 68.8049 69.4279C65.5349 63.6524 68.6753 58.3687 70.7987 56.3692C75.0454 52.2499 80.9554 53.4673 83.2203 54.7237C76.3725 52.6534 72.7862 56.7409 71.9899 57.1124Z" fill="#5B81A9"/>
<ellipse cx="58.5022" cy="41.1472" rx="9.91525" ry="8.42797" fill="#EDF2F7"/>
<path fill-rule="evenodd" clip-rule="evenodd" d="M59.8961 55.0954C67.8398 55.0954 74.2795 48.6557 74.2795 40.712C74.2795 32.7683 67.8398 26.3286 59.8961 26.3286C51.9524 26.3286 45.5127 32.7683 45.5127 40.712C45.5127 48.6557 51.9524 55.0954 59.8961 55.0954ZM58.2863 41.9898L63.9536 36.4543C64.638 35.7858 65.7172 35.7432 66.4522 36.3557C67.2999 37.0621 67.3528 38.3458 66.5661 39.1196L59.608 45.9637C58.8709 46.6887 57.6918 46.6989 56.9423 45.9868L53.3351 42.56C52.5524 41.8165 52.5553 40.568 53.3415 39.8281C54.0574 39.1543 55.1715 39.1458 55.8976 39.8087L58.2863 41.9898Z" fill="#FFA600"/>
<path d="M68.8183 46.275C60.3477 55.7842 51.0292 51.2396 47.4287 47.7787C48.8499 50.5856 50.9581 52.1944 51.8345 52.6479C62.0674 59.4504 69.1736 51.6454 70.0264 51.2158C77.5873 42.4512 73.3663 33.9588 70.3106 30.8081C73.6647 37.8541 70.7133 44.0552 68.8183 46.275Z" fill="#DC9002"/>
<path d="M51.642 31.085C45.36 36.3249 46.1948 44.1611 47.3974 47.4242C43.0396 39.7617 47.2248 32.7518 50.0545 30.099C55.7139 24.6338 63.59 26.249 66.6083 27.9158C57.4825 25.1691 52.7031 30.592 51.642 31.085Z" fill="#FBC157"/>
</svg>
