<svg width="110" height="110" viewBox="0 0 110 110" fill="none" xmlns="http://www.w3.org/2000/svg">
<rect width="110" height="110" rx="20" fill="#E0E4E8"/>
<path d="M78.1723 35.7505C72.0025 29.6175 63.6907 26.1224 54.9921 26.0032C46.2935 25.8839 37.889 29.1499 31.5534 35.1114C25.2178 41.0729 21.447 49.2633 21.0372 57.9531C20.6275 66.6428 23.6109 75.1517 29.3575 81.6829L29.3826 81.7109C29.4288 81.7598 29.4721 81.8101 29.5224 81.8576C29.6258 81.9749 29.7431 82.1077 29.8814 82.246C30.4239 82.8226 31.0795 83.281 31.8073 83.5925C32.5351 83.904 33.3193 84.062 34.1109 84.0565C34.9026 84.0509 35.6845 83.8821 36.4079 83.5605C37.1313 83.2388 37.7805 82.7714 38.3148 82.1873C40.371 79.9526 42.8684 78.1688 45.6493 76.9486C48.4301 75.7285 51.4338 75.0984 54.4705 75.0984C57.5072 75.0984 60.5109 75.7285 63.2917 76.9486C66.0725 78.1688 68.5699 79.9526 70.6261 82.1873C71.1645 82.7744 71.8189 83.2434 72.5479 83.5645C73.2769 83.8855 74.0646 84.0517 74.8612 84.0525C75.6578 84.0533 76.4459 83.8887 77.1755 83.569C77.9052 83.2494 78.5605 82.7818 79.1 82.1957L79.5485 81.7067L79.5737 81.6787C85.2358 75.285 88.2441 66.9713 87.9845 58.4347C87.7248 49.8982 84.2168 41.7827 78.1765 35.7449L78.1723 35.7505Z" fill="#665E66"/>
<path d="M63.8546 55.3229C65.4016 56.9122 60.9742 64.8114 59.063 66.6718C57.1517 68.5323 54.3482 68.7521 52.8012 67.1628C51.2541 65.5735 51.5494 62.777 53.4606 60.9165C55.3718 59.0561 62.3075 53.7337 63.8546 55.3229Z" fill="#FEBD2F"/>
<rect x="71.1094" y="60.1978" width="9.54355" height="4.77177" rx="2.38589" fill="#8D858D"/>
<rect x="52.8125" y="42.7012" width="9.54355" height="4.77177" rx="2.38589" transform="rotate(-90 52.8125 42.7012)" fill="#8D858D"/>
<path d="M63.6188 52.4701C65.3576 54.2563 60.3814 63.1346 58.2332 65.2257C56.0851 67.3168 52.9341 67.5638 51.1953 65.7776C49.4565 63.9913 49.7883 60.8481 51.9364 58.757C54.0846 56.666 61.88 50.6838 63.6188 52.4701Z" fill="#FFCC5B"/>
<g clip-path="url(#clip0_3610_11349)">
<path d="M78.1723 35.7505C72.0025 29.6175 63.6907 26.1224 54.9921 26.0032C46.2935 25.8839 37.889 29.1499 31.5534 35.1114C25.2178 41.0729 21.447 49.2633 21.0372 57.9531C20.6275 66.6428 23.6109 75.1517 29.3575 81.6829L29.3826 81.7109C29.4288 81.7598 29.4721 81.8101 29.5224 81.8576C29.6258 81.9749 29.7431 82.1077 29.8814 82.246C30.4239 82.8226 31.0795 83.281 31.8073 83.5925C32.5351 83.904 33.3193 84.062 34.1109 84.0565C34.9026 84.0509 35.6845 83.8821 36.4079 83.5605C37.1313 83.2388 37.7805 82.7714 38.3148 82.1873C40.371 79.9526 42.8684 78.1688 45.6493 76.9486C48.4301 75.7285 51.4338 75.0984 54.4705 75.0984C57.5072 75.0984 60.5109 75.7285 63.2917 76.9486C66.0725 78.1688 68.5699 79.9526 70.6261 82.1873C71.1645 82.7744 71.8189 83.2434 72.5479 83.5645C73.2769 83.8855 74.0646 84.0517 74.8612 84.0525C75.6578 84.0533 76.4459 83.8887 77.1755 83.569C77.9052 83.2494 78.5605 82.7818 79.1 82.1957L79.5485 81.7067L79.5737 81.6787C85.2358 75.285 88.2441 66.9713 87.9845 58.4347C87.7248 49.8982 84.2168 41.7827 78.1765 35.7449L78.1723 35.7505Z" fill="#454045"/>
</g>
<rect x="27.3672" y="60.1978" width="9.54355" height="4.77177" rx="2.38589" fill="#8D858D"/>
<defs>
<clipPath id="clip0_3610_11349">
<rect width="18" height="58" fill="white" transform="translate(21 26)"/>
</clipPath>
</defs>
</svg>
