<svg width="110" height="110" viewBox="0 0 110 110" fill="none" xmlns="http://www.w3.org/2000/svg">
<rect width="110" height="110" rx="20" fill="#E0E4E8"/>
<path fill-rule="evenodd" clip-rule="evenodd" d="M77.7521 19.8966C79.2754 19.9042 80.7709 20.6366 81.7132 21.8446C82.4003 22.7296 82.7843 23.8511 82.7894 24.9675C82.8222 45.3224 82.8222 65.6773 82.7894 86.0323C82.7818 87.4589 82.1553 88.8627 81.1044 89.8088C80.1949 90.6276 78.9798 91.0981 77.7521 91.1032C62.5845 91.1261 47.417 91.1261 32.2494 91.1032C30.8272 91.0956 29.4302 90.4623 28.4879 89.3942C27.682 88.4813 27.2172 87.2708 27.2121 86.0323C27.1793 65.6773 27.1793 45.3224 27.2121 24.9675C27.2197 23.5713 27.8235 22.1803 28.8491 21.2342C29.7662 20.3874 30.999 19.9016 32.2494 19.8966C47.417 19.8737 62.5845 19.8737 77.7521 19.8966Z" fill="#665E66"/>
<path d="M66.2188 19.8794H77.8091C80.5705 19.8794 82.8091 22.118 82.8091 24.8794V86.1204C82.8091 88.8818 80.5705 91.1204 77.8091 91.1204H66.2188V19.8794Z" fill="#454045"/>
<path d="M43.3897 36.2979L48.761 30.9292C48.923 30.7798 48.9585 30.7368 49.1433 30.6153C49.4192 30.4305 49.7305 30.3014 50.057 30.2356C50.2722 30.1926 50.3304 30.1976 50.5506 30.1875C50.6316 30.1926 50.7152 30.1951 50.7987 30.2002C50.8797 30.2128 50.9632 30.2204 51.0442 30.2356C52.0162 30.4305 52.8364 31.2329 53.0313 32.2252C53.1781 32.9567 52.9832 33.7439 52.5073 34.3236C52.4541 34.3894 52.3959 34.4476 52.3402 34.5083L45.1793 41.6693C45.1186 41.7249 45.0604 41.7832 44.9971 41.8338C44.8199 41.9806 44.6224 42.0996 44.4149 42.1907C44.2731 42.254 44.1238 42.3071 43.9669 42.3426C43.8529 42.3704 43.7365 42.3881 43.6201 42.3983C43.4606 42.4134 43.3011 42.4134 43.1417 42.3983C42.9164 42.3755 42.6962 42.3198 42.4861 42.2363C42.1924 42.1249 41.9191 41.9629 41.6862 41.7503C41.6482 41.7148 41.6381 41.7047 41.6001 41.6693L38.0209 38.0875C37.983 38.0496 37.9729 38.042 37.9374 38.0015C37.3907 37.399 37.1578 36.5232 37.3451 35.7208C37.5274 34.9463 38.0944 34.2729 38.836 33.9616C39.1119 33.8477 39.4081 33.7819 39.7068 33.7692C39.7599 33.7667 39.7726 33.7667 39.8257 33.7667C39.846 33.7667 39.8662 33.7692 39.8865 33.7692C39.9371 33.7718 39.9523 33.7717 40.0054 33.7743C40.6003 33.8198 41.1673 34.0856 41.6001 34.5083L43.3897 36.2979V36.2979Z" fill="#FFA600"/>
<path d="M70.4307 35.2627C70.5117 35.2753 70.5953 35.2829 70.6763 35.2981C71.4913 35.4601 72.2052 36.0473 72.5216 36.8118C72.8051 37.5003 72.7696 38.3128 72.4152 38.9735C72.0634 39.6316 71.4078 40.1176 70.6763 40.2644C70.4586 40.3074 70.4029 40.3024 70.1827 40.3125H57.5264C57.4429 40.3074 57.3619 40.3074 57.2784 40.2998C56.2912 40.2037 55.3977 39.4822 55.104 38.5153C54.8408 37.6446 55.0863 36.6422 55.7368 35.9917C56.0887 35.6398 56.5443 35.3968 57.0328 35.2981C57.2505 35.2551 57.3062 35.2601 57.5264 35.25H70.1827C70.2662 35.2551 70.3472 35.2576 70.4307 35.2627V35.2627Z" fill="black"/>
<path d="M70.4307 35.2627C70.5117 35.2753 70.5953 35.2829 70.6763 35.2981C71.4913 35.4601 72.2052 36.0473 72.5216 36.8118C72.8051 37.5003 72.7696 38.3128 72.4152 38.9735C72.0634 39.6316 71.4078 40.1176 70.6763 40.2644C70.4586 40.3074 70.4029 40.3024 70.1827 40.3125H57.5264C57.4429 40.3074 57.3619 40.3074 57.2784 40.2998C56.2912 40.2037 55.3977 39.4822 55.104 38.5153C54.8408 37.6446 55.0863 36.6422 55.7368 35.9917C56.0887 35.6398 56.5443 35.3968 57.0328 35.2981C57.2505 35.2551 57.3062 35.2601 57.5264 35.25H70.1827C70.2662 35.2551 70.3472 35.2576 70.4307 35.2627V35.2627Z" fill="#8D858D"/>
<path d="M70.1835 80.8125H39.8085C39.5883 80.8024 39.5326 80.8074 39.3149 80.7644C38.5834 80.6176 37.9278 80.1316 37.5759 79.4735C37.2266 78.8179 37.1836 78.0053 37.4696 77.3118C37.8164 76.4765 38.6391 75.8538 39.5604 75.7627C39.644 75.7551 39.725 75.7551 39.8085 75.75H70.1835C70.267 75.7551 70.348 75.7576 70.4316 75.7627C70.6493 75.7956 70.7075 75.7956 70.9176 75.8588C71.6314 76.0765 72.2363 76.6233 72.5224 77.3118C72.8059 78.0003 72.7704 78.8128 72.4161 79.4735C72.0263 80.205 71.2618 80.7188 70.4316 80.7998C70.348 80.8074 70.267 80.8074 70.1835 80.8125ZM70.1835 70.6875H39.8085C39.5883 70.6774 39.5326 70.6824 39.3149 70.6394C38.5024 70.4774 37.7886 69.8952 37.4696 69.1257C37.1229 68.2853 37.2671 67.2627 37.8519 66.5514C38.272 66.0376 38.8998 65.7009 39.5604 65.6377C39.644 65.6301 39.725 65.6301 39.8085 65.625H70.1835C70.267 65.6301 70.348 65.6326 70.4316 65.6377C70.5126 65.6503 70.5961 65.6579 70.6771 65.6731C71.6516 65.868 72.4692 66.6704 72.6667 67.6627C72.8287 68.4752 72.5604 69.3611 71.9731 69.9458C71.6213 70.2977 71.1656 70.5407 70.6771 70.6394C70.4594 70.6824 70.4037 70.6774 70.1835 70.6875ZM70.1835 60.5625H39.8085C39.5883 60.5524 39.5326 60.5574 39.3149 60.5144C38.4239 60.3372 37.6544 59.6487 37.3861 58.7653C37.1001 57.8186 37.4215 56.715 38.2037 56.0746C38.5859 55.7582 39.0643 55.5607 39.5604 55.5127C39.644 55.5051 39.725 55.5051 39.8085 55.5H70.1835C70.267 55.5051 70.348 55.5076 70.4316 55.5127C70.6493 55.5456 70.7075 55.5456 70.9176 55.6088C71.6314 55.8265 72.2363 56.3733 72.5224 57.0618C72.8059 57.7503 72.7704 58.5628 72.4161 59.2235C72.0263 59.955 71.2618 60.4688 70.4316 60.5498C70.348 60.5574 70.267 60.5574 70.1835 60.5625ZM70.1835 50.4375H39.8085C39.5883 50.4274 39.5326 50.4324 39.3149 50.3894C38.5024 50.2274 37.7886 49.6452 37.4696 48.8757C37.0899 47.9594 37.3026 46.8305 38.0189 46.1167C38.429 45.7066 38.9808 45.4433 39.5604 45.3877C39.644 45.3801 39.725 45.3801 39.8085 45.375H70.1835C70.267 45.3801 70.348 45.3826 70.4316 45.3877C70.6493 45.4206 70.7075 45.4206 70.9176 45.4838C71.6314 45.7015 72.2363 46.2483 72.5224 46.9368C72.8059 47.6253 72.7704 48.4378 72.4161 49.0985C72.0263 49.83 71.2618 50.3438 70.4316 50.4248C70.348 50.4324 70.267 50.4324 70.1835 50.4375Z" fill="#8D858D"/>
</svg>
