<svg width="110" height="110" viewBox="0 0 110 110" fill="none" xmlns="http://www.w3.org/2000/svg">
<rect width="110" height="110" rx="20" fill="#E0E4E8"/>
<path fill-rule="evenodd" clip-rule="evenodd" d="M48.8103 51.7606C47.7567 51.739 46.733 51.4066 45.8675 50.8053C45.0021 50.204 44.3336 49.3605 43.9458 48.3806C43.5579 47.4007 43.4682 46.3281 43.6877 45.2974C43.9072 44.2667 44.4262 43.3238 45.1796 42.5869C45.933 41.8501 46.8872 41.3522 47.9225 41.1556C48.9579 40.9591 50.0282 41.0727 50.9992 41.4822C51.9702 41.8917 52.7986 42.5788 53.3806 43.4574C53.9625 44.3359 54.2721 45.3668 54.2703 46.4206C54.2518 47.852 53.6669 49.2177 52.6435 50.2186C51.6201 51.2195 50.2417 51.774 48.8103 51.7606V51.7606Z" fill="#FFA600"/>
<path fill-rule="evenodd" clip-rule="evenodd" d="M82.2961 60.7006L75.0261 49.9006V49.0006C75.0262 42.6579 72.5155 36.573 68.0427 32.0758C63.5699 27.5787 57.4988 25.035 51.1561 25.0006C49.2437 24.9865 47.3377 25.2218 45.4861 25.7006C40.2756 26.976 35.646 29.9678 32.3427 34.1944C29.0395 38.421 27.2548 43.6363 27.2761 49.0006C27.1368 53.5011 28.3867 57.9354 30.8561 61.7006C35.0361 67.7006 37.8561 72.5006 36.1261 79.0006C35.9214 79.7209 35.8963 80.4804 36.0532 81.2127C36.2101 81.9449 36.5442 82.6274 37.0261 83.2006C37.4493 83.7747 38.0049 84.2382 38.6456 84.5515C39.2863 84.8649 39.9931 85.019 40.7061 85.0006H60.3061C61.4035 85.0077 62.4691 84.6322 63.3195 83.9387C64.17 83.2451 64.7523 82.277 64.9661 81.2006C65.0814 80.8102 65.1486 80.4072 65.1661 80.0006C65.2555 79.4347 65.5468 78.9202 65.9862 78.5525C66.4256 78.1848 66.9833 77.9888 67.5561 78.0006H68.9661C70.0129 78.0334 71.0408 77.7171 71.888 77.1016C72.7353 76.486 73.3538 75.6062 73.6461 74.6006C74.5153 71.4699 75.012 68.2477 75.1261 65.0006H80.2961C80.7674 64.9431 81.2161 64.7659 81.5995 64.4858C81.9829 64.2057 82.2881 63.8321 82.4861 63.4006C82.6799 62.9699 82.7639 62.4978 82.7308 62.0267C82.6976 61.5556 82.5483 61.1 82.2961 60.7006ZM62.4561 52.3306L61.4561 53.9006C61.2565 54.1838 60.9933 54.4162 60.6877 54.5795C60.3821 54.7427 60.0425 54.8321 59.6961 54.8406C59.4493 54.825 59.2064 54.771 58.9761 54.6806L56.3261 53.6806C55.1956 54.6539 53.8886 55.4007 52.4761 55.8806L51.9961 58.7906C51.9131 59.2584 51.6662 59.6813 51.2997 59.9836C50.9333 60.2859 50.4711 60.4479 49.9961 60.4406H47.9961C47.5211 60.4479 47.059 60.2859 46.6925 59.9836C46.3261 59.6813 46.0792 59.2584 45.9961 58.7906L45.5161 55.8806C44.1585 55.4825 42.9008 54.8008 41.8261 53.8806L39.0161 54.8806C38.7859 54.971 38.543 55.025 38.2961 55.0406C37.9423 55.0357 37.5954 54.9415 37.2877 54.7667C36.98 54.5918 36.7215 54.3421 36.5361 54.0406L35.5361 52.3906C35.2985 51.9851 35.2162 51.5071 35.3045 51.0454C35.3928 50.5837 35.6456 50.1698 36.0161 49.8806L38.3461 47.9906C38.1916 47.2944 38.1111 46.5838 38.1061 45.8706C38.1143 45.1973 38.1948 44.5268 38.3461 43.8706L36.0661 41.8806C35.692 41.594 35.4364 41.1799 35.3479 40.7171C35.2594 40.2542 35.3442 39.775 35.5861 39.3706L36.5861 37.7206C36.764 37.4124 37.0209 37.1573 37.3303 36.9815C37.6397 36.8057 37.9903 36.7156 38.3461 36.7206C38.593 36.7362 38.8359 36.7902 39.0661 36.8806L41.8761 37.8806C42.9638 36.9509 44.2151 36.232 45.5661 35.7606L45.9661 33.0006C46.0487 32.539 46.2981 32.124 46.6669 31.8344C47.0357 31.5449 47.4982 31.4012 47.9661 31.4306H49.9661C50.4223 31.4002 50.8744 31.5335 51.241 31.8067C51.6076 32.0798 51.8648 32.4748 51.9661 32.9206L52.4461 35.7506C53.7901 36.1812 55.0417 36.8595 56.1361 37.7506L58.9461 36.7506C59.1764 36.6602 59.4193 36.6062 59.6661 36.5906C60.02 36.5955 60.3669 36.6897 60.6746 36.8645C60.9823 37.0394 61.2408 37.2891 61.4261 37.5906L62.4261 39.2406C62.6673 39.6521 62.7535 40.1362 62.6691 40.6056C62.5848 41.075 62.3355 41.4988 61.9661 41.8006L59.6361 43.6906C59.795 44.3861 59.8755 45.0972 59.8761 45.8106C59.8679 46.4839 59.7875 47.1544 59.6361 47.8106L61.9661 49.7406C62.3479 50.0396 62.608 50.467 62.6982 50.9435C62.7883 51.4199 62.7023 51.9128 62.4561 52.3306Z" fill="#665E66"/>
<mask id="mask0_3610_11332" style="mask-type:alpha" maskUnits="userSpaceOnUse" x="27" y="25" width="56" height="61">
<path fill-rule="evenodd" clip-rule="evenodd" d="M82.0305 60.7006L74.7605 49.9006V49.0006C74.7606 42.6579 72.2499 36.573 67.7771 32.0758C63.3043 27.5787 57.2331 25.035 50.8905 25.0006C48.9781 24.9865 47.072 25.2218 45.2205 25.7006C40.01 26.976 35.3804 29.9678 32.0771 34.1944C28.7738 38.421 26.9892 43.6363 27.0105 49.0006C26.8711 53.5011 28.1211 57.9354 30.5905 61.7006C34.7705 67.7006 37.5905 72.5006 35.8605 79.0006C35.6557 79.7209 35.6307 80.4804 35.7876 81.2127C35.9445 81.9449 36.2786 82.6274 36.7605 83.2006C37.1837 83.7747 37.7393 84.2382 38.3799 84.5515C39.0206 84.8649 39.7275 85.019 40.4405 85.0006H60.0405C61.1379 85.0077 62.2034 84.6322 63.0539 83.9387C63.9044 83.2451 64.4866 82.277 64.7005 81.2006C64.8158 80.8102 64.8829 80.4072 64.9005 80.0006C64.9898 79.4347 65.2812 78.9202 65.7206 78.5525C66.16 78.1848 66.7177 77.9888 67.2905 78.0006H68.7005C69.7472 78.0334 70.7751 77.7171 71.6224 77.1016C72.4697 76.486 73.0881 75.6062 73.3805 74.6006C74.2496 71.4699 74.7464 68.2477 74.8605 65.0006H80.0305C80.5018 64.9431 80.9505 64.7659 81.3339 64.4858C81.7172 64.2057 82.0225 63.8321 82.2205 63.4006C82.4142 62.9699 82.4983 62.4978 82.4651 62.0267C82.432 61.5556 82.2827 61.1 82.0305 60.7006ZM62.1905 52.3306L61.1905 53.9006C60.9908 54.1838 60.7277 54.4162 60.4221 54.5795C60.1165 54.7427 59.7769 54.8321 59.4305 54.8406C59.1837 54.825 58.9407 54.771 58.7105 54.6806L56.0605 53.6806C54.93 54.6539 53.623 55.4007 52.2105 55.8806L51.7305 58.7906C51.6474 59.2584 51.4006 59.6813 51.0341 59.9836C50.6676 60.2859 50.2055 60.4479 49.7305 60.4406H47.7305C47.2555 60.4479 46.7934 60.2859 46.4269 59.9836C46.0605 59.6813 45.8136 59.2584 45.7305 58.7906L45.2505 55.8806C43.8929 55.4825 42.6352 54.8008 41.5605 53.8806L38.7505 54.8806C38.5203 54.971 38.2774 55.025 38.0305 55.0406C37.6767 55.0357 37.3298 54.9415 37.0221 54.7667C36.7144 54.5918 36.4558 54.3421 36.2705 54.0406L35.2705 52.3906C35.0329 51.9851 34.9506 51.5071 35.0388 51.0454C35.1271 50.5837 35.38 50.1698 35.7505 49.8806L38.0805 47.9906C37.926 47.2944 37.8455 46.5838 37.8405 45.8706C37.8487 45.1973 37.9292 44.5268 38.0805 43.8706L35.8005 41.8806C35.4264 41.594 35.1708 41.1799 35.0823 40.7171C34.9938 40.2542 35.0786 39.775 35.3205 39.3706L36.3205 37.7206C36.4984 37.4124 36.7553 37.1573 37.0647 36.9815C37.374 36.8057 37.7247 36.7156 38.0805 36.7206C38.3274 36.7362 38.5703 36.7902 38.8005 36.8806L41.6105 37.8806C42.6982 36.9509 43.9495 36.232 45.3005 35.7606L45.7005 33.0006C45.7831 32.539 46.0325 32.124 46.4013 31.8344C46.7701 31.5449 47.2326 31.4012 47.7005 31.4306H49.7005C50.1567 31.4002 50.6087 31.5335 50.9754 31.8067C51.342 32.0798 51.5991 32.4748 51.7005 32.9206L52.1805 35.7506C53.5245 36.1812 54.7761 36.8595 55.8705 37.7506L58.6805 36.7506C58.9107 36.6602 59.1537 36.6062 59.4005 36.5906C59.7544 36.5955 60.1013 36.6897 60.409 36.8645C60.7166 37.0394 60.9752 37.2891 61.1605 37.5906L62.1605 39.2406C62.4017 39.6521 62.4878 40.1362 62.4035 40.6056C62.3191 41.075 62.0698 41.4988 61.7005 41.8006L59.3705 43.6906C59.5294 44.3861 59.6099 45.0972 59.6105 45.8106C59.6023 46.4839 59.5218 47.1544 59.3705 47.8106L61.7005 49.7406C62.0823 50.0396 62.3424 50.467 62.4326 50.9435C62.5227 51.4199 62.4367 51.9128 62.1905 52.3306Z" fill="#454045"/>
</mask>
<g mask="url(#mask0_3610_11332)">
<rect x="70" y="32" width="13" height="49" fill="#454045"/>
</g>
</svg>
