<svg width="121" height="121" viewBox="0 0 121 121" fill="none" xmlns="http://www.w3.org/2000/svg">
<rect x="0.5" y="0.367676" width="120" height="120" rx="16" fill="#EAEEF2"/>
<g clip-path="url(#clip0_5062_19858)">
<path d="M101.765 40.9021C102.021 38.6664 101.393 37.096 101.047 36.5903L72.4609 64.3775L101.047 86.0164C101.622 85.1221 101.792 82.6362 101.765 81.5449C101.659 68.9289 101.51 43.1379 101.765 40.9021Z" fill="#FFA600"/>
<path d="M29.4244 90.0882C24.5696 90.9825 21.6525 87.6927 20.8008 85.936L47.3104 59.3466H73.8999L101.208 85.936C99.9943 88.7467 97.2954 89.8752 96.0977 90.0882H29.4244Z" fill="#DC9002"/>
<path d="M26.7039 32.518C22.999 33.029 21.2742 35.3393 20.875 36.4306L55.609 71.484C59.8889 75.4445 64.3125 73.1342 65.9893 71.484L100.963 36.4306C99.0465 33.6838 96.5446 32.6777 95.5332 32.518H26.7039Z" fill="#4C6C8D" stroke="#4C6C8D" stroke-width="1.46115"/>
<path d="M20 39.2252C20 38.3948 20.1205 36.4834 20.4133 35.8979L45.2085 61.9328L20.7985 85.9364C20.1597 85.2338 20 84.0467 20 83.541V39.2252Z" fill="#FFA600"/>
<path d="M67.9375 89.6208C83.4758 82.3476 96.1765 65.3766 100.585 57.8003V81.3557C100.585 85.9204 96.8841 89.6208 92.3195 89.6208H67.9375Z" fill="#DC9002" fill-opacity="0.6"/>
</g>
<defs>
<clipPath id="clip0_5062_19858">
<rect width="81.8242" height="81.8242" fill="white" transform="translate(20 19.3677)"/>
</clipPath>
</defs>
</svg>
