<svg width="121" height="121" viewBox="0 0 121 121" fill="none" xmlns="http://www.w3.org/2000/svg">
<rect x="0.5" y="0.367676" width="120" height="120" rx="16" fill="#EAEEF2"/>
<path d="M61.8966 28.1C63.0617 28.3533 64.2269 28.5897 65.3751 28.8599C72.9738 30.7511 79.3229 34.7193 84.4394 40.6294C88.7622 45.6108 91.5146 51.3858 92.7641 57.87C92.781 57.9882 92.7641 58.1233 92.8992 58.2077C92.8992 58.2921 92.8992 58.3766 92.8992 58.461C91.3457 58.7312 89.7922 59.0014 88.2387 59.3053C87.8672 59.3728 87.8672 59.1533 87.8334 58.9169C87.4282 56.7724 86.8203 54.6617 85.9929 52.6353C83.9328 47.654 80.8089 43.4663 76.6549 40.0384C72.8218 36.8807 68.4821 34.7531 63.6527 33.6386C62.8929 33.4698 62.133 33.284 61.3562 33.1996C60.8497 33.1489 60.8497 32.9125 60.9003 32.541C61.103 31.2071 61.2887 29.8731 61.4913 28.5391C61.5082 28.3871 61.5082 28.252 61.5251 28.1C61.6433 28.1 61.7784 28.1 61.8966 28.1Z" fill="#4C6C8D"/>
<path d="M73.9347 92.8746C70.49 92.7901 67.1803 91.9289 64.0226 90.5612C51.4257 85.0732 41.6656 76.3263 34.4046 64.7257C31.7704 60.5042 29.6766 55.9956 28.579 51.1156C28.0049 48.5658 27.8191 45.9991 28.731 43.4662C29.0687 42.5375 29.5921 41.727 30.2845 41.0346C31.9731 39.3292 33.6617 37.6237 35.384 35.952C36.8193 34.5673 38.4573 33.9088 40.4329 34.6686C41.2097 34.9726 41.8682 35.4792 42.4424 36.0533C44.8908 38.5017 47.3393 40.9333 49.7709 43.3987C50.936 44.5807 51.7634 45.9147 51.5101 47.6708C51.3244 48.9373 50.5983 49.8998 49.7202 50.7778C48.3018 52.1963 46.8834 53.5978 45.4649 55.0162C44.7051 55.7761 44.6882 55.9449 45.1441 56.9581C46.7652 60.6055 49.2812 63.645 51.9492 66.5493C54.6003 69.42 57.5384 71.9866 60.8312 74.0974C61.9794 74.8404 63.229 75.4145 64.4279 76.0393C64.9851 76.3263 65.3904 76.0899 65.7619 75.7015C67.2647 74.1987 68.7676 72.6789 70.2704 71.1761C71.1316 70.3149 72.0941 69.6395 73.3606 69.4706C74.627 69.3017 75.7246 69.6901 76.704 70.45C77.0586 70.7202 77.3794 71.0241 77.7003 71.3281C80.0812 73.6921 82.4452 76.0561 84.8261 78.4371C85.6198 79.2307 86.3121 80.1088 86.5485 81.257C86.8525 82.6417 86.4978 83.9419 85.586 84.9719C83.7285 87.0658 81.736 89.0414 79.6928 90.9496C78.1224 92.4018 76.113 92.8746 73.9347 92.8746Z" fill="#FFA600"/>
<path d="M61.1667 41.1023C64.1893 41.5582 66.9924 42.5714 69.5422 44.1924C74.456 47.3163 77.715 51.6729 79.3023 57.2959C79.4543 57.8701 79.5556 58.4442 79.7075 59.0183C79.7751 59.3054 79.6907 59.3898 79.4205 59.4405C77.9852 59.6769 76.5499 59.8964 75.1314 60.1665C74.7093 60.251 74.7431 59.9639 74.6924 59.7444C74.2196 57.3635 73.2909 55.1683 71.8725 53.1926C69.1538 49.4271 65.5233 47.063 60.9303 46.2187C60.3393 46.1005 60.1367 45.9317 60.2549 45.3069C60.4913 44.0404 60.6264 42.774 60.8121 41.4907C60.8459 41.288 60.7953 40.9503 61.1667 41.1023Z" fill="#4C6C8D"/>
<path d="M65 42C63.8 44.8 62.8333 46.1667 62.5 46.5L60 46L61 41L65 42Z" fill="white" fill-opacity="0.25"/>
<path d="M68.5 29.5L68 35L60.5 33L61.5 28L68.5 29.5Z" fill="white" fill-opacity="0.25"/>
<path d="M76.5797 70.2875L67.8047 91.8875C72.3947 94.0475 77.1422 92.5625 78.9422 91.55L85.0172 85.475C87.7172 82.505 86.3672 79.9625 85.3547 79.0625L76.5797 70.2875Z" fill="black" fill-opacity="0.08"/>
<path d="M44.0018 37.5C43.2018 44.3 36.0018 56.3334 32.5018 61.5C26.5018 52.3001 28.0018 44.6667 29.5018 42L36.0018 35.5C37.6018 33.1 40.6685 34.5 42.0018 35.5L44.0018 37.5Z" fill="white" fill-opacity="0.25"/>
</svg>
