<svg width="121" height="121" viewBox="0 0 121 121" fill="none" xmlns="http://www.w3.org/2000/svg">
<rect x="0.5" y="0.367676" width="120" height="120" rx="16" fill="#EAEEF2"/>
<g filter="url(#filter0_b_5062_19878)">
<path fill-rule="evenodd" clip-rule="evenodd" d="M63.2116 20.0209C63.2038 20.0145 63.1961 20.0076 63.1886 20H62.4069C62.3872 20.0087 62.3674 20.0168 62.3476 20.0243C62.0809 20.2104 61.8142 20.1886 61.5475 20.0315C61.5213 20.0219 61.4952 20.0115 61.469 20H60.531C60.5035 20.012 60.476 20.023 60.4485 20.0329C60.182 20.1891 59.9155 20.21 59.649 20.023C59.6304 20.0158 59.6117 20.0082 59.5931 20H58.8114C58.8059 20.0055 58.8003 20.0107 58.7947 20.0156C58.7065 20.17 58.6052 20.1972 58.5173 20.0171C58.511 20.0118 58.5049 20.0061 58.4988 20H57.8735C57.8148 20.0586 57.7367 20.0782 57.6585 20.0782C55.1768 20.0977 52.7538 20.5667 50.3698 21.2311C42.4558 23.4392 35.8119 27.6795 30.4577 33.913C25.6116 39.5603 22.6219 46.0674 21.3517 53.3952C21.2497 53.9766 21.2063 54.5579 21.1631 55.1365C21.1235 55.6664 21.0841 56.194 21 56.7171V57.4987C21.1482 57.5152 21.1438 57.615 21.1387 57.7278C21.1378 57.7488 21.1368 57.7703 21.1368 57.7918V57.7919C21.1368 57.8401 21.1417 57.8903 21.1467 57.9411C21.1639 58.1168 21.1819 58.3002 21.0001 58.4366L21 58.4367V61.2311C21.1874 61.3333 21.1669 61.48 21.1456 61.6325C21.1424 61.6549 21.1393 61.6775 21.1368 61.7001C21.1318 61.7076 21.1264 61.7142 21.1208 61.7198C21.1372 61.8283 21.1361 61.9205 21.1177 62.0126V62.0127C21.1177 62.0509 21.1259 62.0926 21.1342 62.1353C21.1587 62.2602 21.1847 62.3932 21.0115 62.4696C21.0078 62.4736 21.004 62.4777 21 62.4817V63.2633C21.0839 63.3472 21.0813 63.46 21.0789 63.5645C21.0786 63.5816 21.0782 63.5985 21.0782 63.615C21.1954 67.0933 22.0552 70.4152 23.2081 73.659C24.3806 76.8832 25.9438 79.9121 27.8979 82.7259C28.191 83.1363 28.3864 83.5466 28.191 84.0938C27.8523 85.0676 27.5283 86.0451 27.2046 87.0214L27.2045 87.0217C26.7813 88.2984 26.3587 89.5731 25.9047 90.8354C25.3222 92.4408 24.7914 94.0566 24.2596 95.6752L24.2595 95.6754C24.0599 96.2829 23.8602 96.8908 23.6575 97.4988C23.6465 97.532 23.6338 97.5665 23.6209 97.6017C23.5425 97.8148 23.4535 98.0569 23.638 98.2413C23.8525 98.4737 24.1324 98.3627 24.373 98.2673C24.3954 98.2584 24.4175 98.2496 24.4392 98.2413C25.2265 97.9611 26.0229 97.7173 26.8221 97.4727L26.8243 97.472C27.1948 97.3586 27.5659 97.245 27.937 97.1275L38.1959 93.8446C38.7821 93.6688 39.2316 93.7665 39.7396 94.0791C43.257 96.2677 47.0088 97.9091 51.0342 98.9252C53.2423 99.4919 55.4504 99.8241 57.7171 99.9805H58.6536C58.7276 99.7883 58.8575 99.8088 58.9926 99.8301C59.0359 99.8369 59.0798 99.8439 59.1225 99.8439L59.1232 99.8441V99.8438H59.4358L59.4363 99.8439V99.8438H59.7456V99.8437C59.8793 99.8246 59.9944 99.8428 60.0542 99.9715L60.062 99.9805H61.4678C61.7211 99.7662 61.9938 99.7462 62.2472 99.9786L62.2506 99.9805H63.1886L63.1911 99.978C63.2885 99.7848 63.4051 99.7471 63.5024 99.9805H63.9702C64.496 99.9126 65.0254 99.8816 65.5537 99.8506H65.5539H65.554C66.243 99.8102 66.9302 99.7699 67.6048 99.6483C77.2189 97.9482 85.2306 93.4147 91.6009 86.0283C96.4665 80.3615 99.4367 73.8153 100.687 66.4485C100.775 65.9209 100.809 65.3934 100.844 64.8659L100.844 64.8656C100.878 64.338 100.912 63.8104 101 63.2828V62.5012C100.99 62.4913 100.981 62.4809 100.974 62.4702C100.839 62.4274 100.856 62.3294 100.875 62.2233L100.881 62.1915C100.875 62.1851 100.869 62.1777 100.862 62.1691V61.8564L100.868 61.8565L100.863 61.8147C100.844 61.6545 100.825 61.4981 101 61.3903V58.4367C100.996 58.4314 100.992 58.4261 100.988 58.4208C100.982 58.4115 100.976 58.4023 100.97 58.393C100.822 58.2618 100.837 58.1013 100.853 57.9337V57.9336C100.858 57.8803 100.863 57.8263 100.863 57.7723L100.867 57.7686L100.863 57.7384C100.844 57.6148 100.826 57.4992 101 57.4797V56.8735C100.941 56.8148 100.922 56.7367 100.922 56.6585C100.824 52.0469 99.554 47.7284 97.6781 43.5662C94.6102 36.7855 89.9985 31.236 83.8627 26.9761C79.0557 23.6346 73.7406 21.446 67.9761 20.4104C67.2016 20.2623 66.4205 20.2072 65.6405 20.1521C65.0822 20.1127 64.5245 20.0734 63.9702 20H63.5012C63.497 20.0043 63.4926 20.0083 63.4883 20.0122C63.4009 20.1956 63.2998 20.172 63.2116 20.0209ZM68.1897 81.2212C70.1047 81.8465 72.0783 82.3741 74.306 82.3546C75.244 82.3937 76.3187 82.2178 77.3348 81.8661C83.0016 79.8924 84.9557 77.1567 85.0925 71.9003C85.1316 71.0991 84.8189 70.5715 84.0959 70.2198C83.2864 69.8256 82.4813 69.4272 81.6769 69.0291C79.5299 67.9666 77.3887 66.9069 75.1853 65.9403C73.6025 65.2564 72.7232 65.53 71.6875 66.9174C71.5128 67.1533 71.339 67.3892 71.1656 67.6246C70.5632 68.4424 69.9647 69.2549 69.3426 70.0439C68.1506 71.5681 67.2713 71.783 65.4736 71.0405C58.7711 68.2852 53.8077 63.5759 50.1145 57.4205C49.5674 56.5217 49.626 55.9745 50.3294 55.1343C51.0525 54.2745 51.795 53.4342 52.5571 52.6135C53.7491 51.3434 54.0227 50.0341 53.2215 48.3732C52.5306 46.9223 51.9245 45.4317 51.3175 43.9389C50.7227 42.476 50.1271 41.0112 49.4501 39.5798C49.2352 39.1108 48.9616 38.6418 48.3949 38.5246C46.2454 38.0752 44.1155 37.997 42.2786 39.4039C40.5786 40.6936 39.3866 42.4523 38.6441 44.465C37.198 48.4122 37.6866 52.2227 39.3084 55.9941C40.5004 58.7493 42.22 61.1528 43.9787 63.5368C47.0075 67.6404 50.4662 71.314 54.5112 74.4601C58.6147 77.6453 63.285 79.658 68.1897 81.2212Z" fill="#52B250"/>
</g>
<defs>
<filter id="filter0_b_5062_19878" x="11.2365" y="10.2365" width="99.527" height="99.5075" filterUnits="userSpaceOnUse" color-interpolation-filters="sRGB">
<feFlood flood-opacity="0" result="BackgroundImageFix"/>
<feGaussianBlur in="BackgroundImage" stdDeviation="4.88176"/>
<feComposite in2="SourceAlpha" operator="in" result="effect1_backgroundBlur_5062_19878"/>
<feBlend mode="normal" in="SourceGraphic" in2="effect1_backgroundBlur_5062_19878" result="shape"/>
</filter>
</defs>
</svg>
