<svg width="325" height="325" viewBox="0 0 325 325" fill="none" xmlns="http://www.w3.org/2000/svg">
<g clip-path="url(#clip0_5727_28372)">
<g filter="url(#filter0_d_5727_28372)">
<circle cx="162.54" cy="159.201" r="72.0325" fill="#FFCF54"/>
</g>
<path d="M155.878 124.193H169.217C171.059 124.193 172.552 125.686 172.552 127.528C172.552 129.369 171.059 130.863 169.217 130.863H155.878C154.036 130.863 152.543 129.369 152.543 127.528C152.543 125.686 154.036 124.193 155.878 124.193Z" fill="#2B2B29"/>
<path d="M139.107 145.499L136.739 143.132C135.4 141.793 135.3 139.629 136.636 138.287V138.287C137.961 136.956 140.087 137.075 141.414 138.402L143.809 140.797C148.978 136.662 155.481 134.194 162.551 134.194C179.125 134.194 192.564 147.634 192.564 164.208C192.564 180.782 179.158 194.221 162.551 194.221C145.943 194.221 132.537 180.782 132.537 164.208C132.537 157.138 135.005 150.635 139.107 145.499ZM159.216 164.208C159.216 166.05 160.709 167.543 162.551 167.543V167.543C164.393 167.543 165.886 166.05 165.886 164.208V150.869C165.886 149.027 164.393 147.534 162.551 147.534V147.534C160.709 147.534 159.216 149.027 159.216 150.869V164.208Z" fill="#2B2B29"/>
<path d="M73.1517 189.867L61.9604 194.013L59.0695 186.21L61.2663 185.396L63.155 190.494L65.4501 189.644L63.7091 184.945L65.9113 184.129L67.6523 188.828L69.9529 187.976L68.0641 182.878L70.2608 182.064L73.1517 189.867Z" fill="#F7FAFC"/>
<path d="M57.64 180.514L65.4789 175.815L65.455 175.719L56.3281 175.238L55.5492 172.105L68.1027 173.133L69.0293 176.86L58.4189 183.647L57.64 180.514Z" fill="#F7FAFC"/>
<path d="M67.1932 167.003L67.5903 170.078L55.2382 167.613L54.7462 163.805L66.0665 158.282L66.4637 161.357L57.9688 165.28L57.9807 165.373L67.1932 167.003ZM62.588 168.015L61.7577 161.589L63.9308 161.308L64.761 167.735L62.588 168.015Z" fill="#F7FAFC"/>
<path d="M65.7404 147.931L53.8345 147.104L54.1448 142.639C54.2084 141.724 54.4322 140.969 54.8164 140.372C55.2008 139.772 55.7024 139.334 56.3214 139.057C56.9367 138.777 57.6222 138.663 58.378 138.716C59.1415 138.769 59.8085 138.977 60.3791 139.339C60.9497 139.702 61.3838 140.21 61.6812 140.861C61.9747 141.512 62.0896 142.297 62.0258 143.216L61.8201 146.175L60.047 146.052L60.2325 143.383C60.2696 142.848 60.2071 142.404 60.0447 142.05C59.8824 141.696 59.6441 141.426 59.3299 141.241C59.0159 141.052 58.6477 140.942 58.2253 140.913C57.8028 140.884 57.425 140.941 57.0917 141.085C56.7587 141.226 56.4911 141.462 56.2889 141.795C56.083 142.123 55.9614 142.557 55.9239 143.096L55.7866 145.072L65.8903 145.774L65.7404 147.931Z" fill="#F7FAFC"/>
<path d="M67.3732 133.995C67.2759 134.553 67.0889 135.039 66.8119 135.453C66.5318 135.861 66.172 136.161 65.7325 136.353C65.2937 136.541 64.7853 136.585 64.2073 136.484C63.7097 136.398 63.3143 136.234 63.0209 135.994C62.7275 135.753 62.5109 135.457 62.371 135.106C62.231 134.754 62.1459 134.371 62.1157 133.955C62.0822 133.535 62.0799 133.107 62.1085 132.671C62.1448 132.145 62.1699 131.717 62.1837 131.388C62.1937 131.059 62.1655 130.813 62.0989 130.652C62.0292 130.486 61.8948 130.386 61.6958 130.351L61.6613 130.345C61.2288 130.27 60.8716 130.34 60.5897 130.555C60.3078 130.77 60.1249 131.119 60.041 131.601C59.9524 132.11 59.9932 132.533 60.1632 132.87C60.3339 133.204 60.5615 133.448 60.8459 133.604L60.2327 135.497C59.7235 135.251 59.3196 134.92 59.0211 134.505C58.7187 134.09 58.5219 133.612 58.4306 133.072C58.3354 132.531 58.3415 131.952 58.4487 131.336C58.5226 130.911 58.6459 130.497 58.8187 130.093C58.9914 129.689 59.2229 129.333 59.5132 129.025C59.7996 128.716 60.1563 128.49 60.5834 128.348C61.011 128.201 61.5177 128.179 62.1033 128.281L68.0052 129.308L67.6576 131.305L66.4462 131.095L66.4343 131.164C66.6572 131.333 66.8559 131.55 67.0303 131.817C67.2015 132.08 67.3222 132.395 67.3925 132.762C67.4595 133.124 67.4531 133.535 67.3732 133.995ZM65.9399 133.189C66.0125 132.772 65.9931 132.396 65.8818 132.061C65.7667 131.726 65.5856 131.452 65.3387 131.239C65.0924 131.023 64.8066 130.886 64.4813 130.83L63.4421 130.649C63.4844 130.723 63.5148 130.843 63.5334 131.008C63.5527 131.169 63.563 131.348 63.5641 131.546C63.5653 131.743 63.5629 131.938 63.5571 132.13C63.5512 132.322 63.5459 132.489 63.5411 132.63C63.5292 132.947 63.5499 133.237 63.6029 133.498C63.656 133.76 63.7563 133.977 63.9039 134.148C64.0477 134.319 64.2535 134.428 64.5215 134.474C64.9042 134.541 65.2175 134.452 65.4613 134.206C65.7051 133.961 65.8646 133.622 65.9399 133.189Z" fill="#F7FAFC"/>
<path d="M72.1387 127.084C72.057 127.36 71.9592 127.608 71.845 127.83C71.7356 128.048 71.6326 128.218 71.5359 128.34L70.0991 127.404C70.2719 127.135 70.3907 126.884 70.4553 126.652C70.52 126.42 70.5074 126.196 70.4177 125.979C70.3328 125.759 70.1465 125.54 69.8588 125.321L69.4463 125.011L59.7634 125.529L60.3986 123.383L67.466 123.324L67.4924 123.235L61.5979 119.332L62.2348 117.181L70.8395 123.466C71.2465 123.761 71.573 124.088 71.8187 124.449C72.0683 124.81 72.2219 125.208 72.2797 125.643C72.3423 126.075 72.2953 126.555 72.1387 127.084Z" fill="#F7FAFC"/>
<path d="M71.6225 117.231L63.2502 114.065L63.9737 112.152L65.3691 112.679L65.4021 112.592C64.9765 112.257 64.7029 111.854 64.5815 111.385C64.4577 110.91 64.4866 110.433 64.668 109.953C64.7092 109.844 64.7607 109.725 64.8224 109.594C64.8819 109.459 64.9379 109.349 64.9904 109.265L66.8055 109.952C66.7448 110.024 66.6692 110.147 66.5787 110.321C66.486 110.489 66.408 110.657 66.3448 110.824C66.2087 111.184 66.1646 111.537 66.2122 111.883C66.2577 112.224 66.3858 112.528 66.5965 112.795C66.8072 113.061 67.0906 113.262 67.4467 113.397L72.3687 115.258L71.6225 117.231Z" fill="#F7FAFC"/>
<path d="M76.2603 107.695C75.8752 108.48 75.3688 109.075 74.7412 109.481C74.1135 109.887 73.4114 110.097 72.6349 110.109C71.86 110.119 71.0576 109.92 70.2275 109.512C69.3974 109.105 68.7473 108.591 68.277 107.971C67.8084 107.347 67.5427 106.663 67.4798 105.918C67.4169 105.173 67.578 104.408 67.963 103.624C68.3481 102.839 68.8545 102.243 69.4821 101.837C70.1098 101.431 70.8128 101.225 71.5911 101.217C72.3711 101.206 73.1762 101.404 74.0063 101.811C74.8363 102.219 75.4839 102.733 75.949 103.355C76.4158 103.974 76.6806 104.656 76.7435 105.401C76.8064 106.145 76.6453 106.91 76.2603 107.695ZM74.7483 106.94C74.957 106.515 75.0148 106.101 74.9214 105.701C74.8246 105.298 74.6116 104.93 74.2825 104.595C73.955 104.257 73.5472 103.968 73.0589 103.729C72.5671 103.488 72.0874 103.341 71.6196 103.289C71.1501 103.231 70.7266 103.288 70.3491 103.457C69.9716 103.627 69.6784 103.924 69.4696 104.35C69.2557 104.786 69.1963 105.207 69.2914 105.613C69.3882 106.015 69.6021 106.386 69.933 106.726C70.2622 107.06 70.6726 107.348 71.1644 107.59C71.6527 107.829 72.1298 107.977 72.5959 108.032C73.0637 108.085 73.4863 108.026 73.8638 107.856C74.2395 107.681 74.5343 107.376 74.7483 106.94Z" fill="#F7FAFC"/>
<path d="M70.1155 94.0306L80.3105 100.235L79.2138 102.037L69.0188 95.8326L70.1155 94.0306Z" fill="#F7FAFC"/>
<path d="M73.7142 88.6543L83.4222 95.5961L82.1952 97.3121L72.4872 90.3702L73.7142 88.6543Z" fill="#F7FAFC"/>
<path d="M94.0318 85.413C93.4546 85.9896 92.8542 86.3809 92.2306 86.5866C91.6069 86.7924 91.0053 86.8306 90.4257 86.7013C89.8461 86.5664 89.3325 86.275 88.8849 85.827C88.5472 85.489 88.3166 85.1208 88.1931 84.7224C88.0724 84.3213 88.0232 83.8872 88.0453 83.4203C88.0703 82.9505 88.135 82.4437 88.2396 81.8998L88.7187 79.3865C88.7957 79.0239 88.811 78.7066 88.7644 78.4346C88.7206 78.1599 88.5915 77.9153 88.3774 77.701C88.1961 77.5196 87.9476 77.4247 87.6316 77.4163C87.3185 77.4052 87.0286 77.5328 86.762 77.7992C86.5834 77.9777 86.4679 78.1782 86.4157 78.4007C86.3634 78.6177 86.366 78.8319 86.4236 79.0435C86.484 79.2523 86.5897 79.4323 86.7407 79.5834C86.9247 79.7676 87.1622 79.9036 87.4534 79.9917C87.7473 80.0769 88.0783 80.1389 88.4464 80.1775C88.8172 80.2134 89.2114 80.2506 89.629 80.2892L98.2284 80.9727L96.6124 82.5873L89.5581 82.1064C89.028 82.065 88.5102 82.0194 88.0047 81.9698C87.502 81.9174 87.0282 81.8142 86.5832 81.6601C86.1383 81.5006 85.7401 81.245 85.3886 80.8932C84.9904 80.4947 84.7269 80.0468 84.598 79.5496C84.4663 79.0495 84.4748 78.5441 84.6233 78.0332C84.7746 77.5195 85.0729 77.0403 85.5181 76.5955C85.9633 76.1506 86.4332 75.8569 86.9277 75.7142C87.4223 75.5716 87.9016 75.5594 88.3658 75.6777C88.83 75.7961 89.2338 76.027 89.577 76.3705C89.9752 76.769 90.2332 77.2251 90.3511 77.7389C90.4663 78.2499 90.4757 78.8089 90.3793 79.416L89.9207 82.3703C89.8435 82.8537 89.8489 83.2603 89.9366 83.59C90.0217 83.9169 90.1369 84.1532 90.2825 84.2989C90.5049 84.5215 90.7631 84.6672 91.057 84.736C91.3509 84.8048 91.6544 84.7925 91.9676 84.6993C92.2808 84.6005 92.5749 84.4138 92.8497 84.1392C93.152 83.8372 93.3829 83.4719 93.5424 83.0434C93.6992 82.6122 93.7721 82.1494 93.7614 81.6549C93.7506 81.1604 93.6409 80.6659 93.4323 80.1713C93.221 79.674 92.8998 79.2096 92.4687 78.7782L93.7507 77.4972C94.2834 78.0303 94.6884 78.5538 94.9657 79.0676C95.2402 79.5787 95.4199 80.0636 95.5049 80.5224C95.5871 80.9785 95.6048 81.3919 95.5579 81.7628C95.5386 81.8754 95.5221 81.9853 95.5083 82.0924C95.4945 82.1995 95.478 82.3094 95.4587 82.422C95.431 82.9879 95.2811 83.5331 95.0089 84.0577C94.7395 84.5796 94.4138 85.0313 94.0318 85.413Z" fill="#F7FAFC"/>
<path d="M109.106 75.1222L107.166 76.371L104.24 64.0612L106.485 62.6169L116.481 70.3761L114.541 71.6249L106.726 65.372L106.648 65.4224L109.106 75.1222ZM106.638 71.1461L111.93 67.7403L112.87 69.2006L107.577 72.6065L106.638 71.1461Z" fill="#F7FAFC"/>
<path d="M120.839 68.8852C120.21 69.1978 119.566 69.3158 118.907 69.2392C118.249 69.1625 117.623 68.8879 117.028 68.4153C116.434 67.9427 115.918 67.2662 115.481 66.3858C115.039 65.495 114.812 64.6708 114.8 63.9132C114.79 63.1505 114.958 62.4881 115.304 61.9262C115.648 61.3609 116.128 60.9253 116.743 60.6196C117.213 60.3864 117.639 60.2747 118.021 60.2845C118.402 60.2909 118.736 60.3614 119.024 60.496C119.31 60.6271 119.551 60.766 119.745 60.9125L119.823 60.8736L117.839 56.8752L119.733 55.9348L125.039 66.625L123.181 67.5473L122.554 66.2841L122.439 66.3411C122.439 66.5844 122.4 66.8614 122.325 67.1721C122.247 67.4794 122.095 67.7848 121.869 68.0881C121.642 68.3915 121.299 68.6572 120.839 68.8852ZM120.597 67.0732C120.997 66.8746 121.285 66.5975 121.46 66.2418C121.633 65.8827 121.696 65.472 121.648 65.0097C121.601 64.5474 121.449 64.057 121.191 63.5385C120.934 63.02 120.637 62.6056 120.301 62.2954C119.968 61.9834 119.608 61.7912 119.221 61.7188C118.838 61.6447 118.442 61.7087 118.035 61.9108C117.614 62.1198 117.317 62.4039 117.144 62.763C116.971 63.1221 116.909 63.5302 116.958 63.9873C117.007 64.4444 117.155 64.9218 117.402 65.4194C117.65 65.9205 117.944 66.3323 118.282 66.6547C118.621 66.9719 118.988 67.1736 119.382 67.2599C119.778 67.341 120.183 67.2788 120.597 67.0732Z" fill="#F7FAFC"/>
<path d="M126.711 65.5901L124.084 57.0333L126.012 56.4416L126.458 57.8955L126.559 57.8648C126.586 57.3198 126.764 56.8466 127.092 56.4452C127.419 56.0401 127.868 55.7498 128.44 55.5742C129.019 55.3963 129.551 55.3875 130.035 55.5478C130.522 55.7032 130.921 55.9972 131.233 56.4298L131.322 56.4025C131.365 55.8689 131.568 55.3921 131.931 54.9718C132.296 54.5468 132.789 54.239 133.409 54.0486C134.197 53.8069 134.915 53.8585 135.566 54.2033C136.216 54.5482 136.688 55.1979 136.981 56.1523L138.744 61.8958L136.722 62.5167L135.055 57.0851C134.892 56.5541 134.631 56.2093 134.274 56.0508C133.915 55.8887 133.532 55.8703 133.123 55.9957C132.637 56.1451 132.303 56.4142 132.121 56.8031C131.943 57.1872 131.927 57.6206 132.076 58.1034L133.714 63.4402L131.736 64.0474L130.043 58.5323C129.907 58.0903 129.665 57.7786 129.317 57.597C128.972 57.4143 128.587 57.3884 128.16 57.5196C127.87 57.6085 127.629 57.7637 127.437 57.9853C127.244 58.2031 127.118 58.4673 127.059 58.7781C126.998 59.0851 127.022 59.415 127.131 59.7678L128.728 64.9709L126.711 65.5901Z" fill="#F7FAFC"/>
<path d="M141.507 61.1905L139.546 52.4571L141.604 51.9949L143.565 60.7283L141.507 61.1905ZM140.302 50.9852C139.976 51.0584 139.671 51.0134 139.388 50.8501C139.103 50.683 138.927 50.446 138.858 50.139C138.788 49.8281 138.846 49.5383 139.033 49.2695C139.218 48.9968 139.474 48.8239 139.8 48.7507C140.13 48.6766 140.435 48.7236 140.716 48.8915C140.999 49.0548 141.176 49.2918 141.246 49.6026C141.315 49.9097 141.256 50.1995 141.071 50.4721C140.888 50.7401 140.632 50.9112 140.302 50.9852Z" fill="#F7FAFC"/>
<path d="M148.385 54.8215L148.99 60.0311L146.895 60.2746L145.861 51.3836L147.864 51.1508L148.04 52.6615L148.144 52.6494C148.291 52.1279 148.571 51.6944 148.984 51.3491C149.402 51.0033 149.942 50.7919 150.606 50.7147C151.22 50.6434 151.769 50.7124 152.255 50.9219C152.745 51.1309 153.144 51.4698 153.453 51.9384C153.765 52.4066 153.961 52.996 154.04 53.7065L154.698 59.3676L152.602 59.6112L151.982 54.2742C151.913 53.6799 151.704 53.2329 151.357 52.933C151.013 52.6327 150.571 52.514 150.03 52.5768C149.664 52.6194 149.347 52.7384 149.08 52.9336C148.817 53.1246 148.622 53.38 148.495 53.6998C148.372 54.0192 148.335 54.3931 148.385 54.8215Z" fill="#F7FAFC"/>
<path d="M157.792 59.3525L157.634 50.403L159.744 50.3659L159.901 59.3154L157.792 59.3525ZM158.672 49.1141C158.338 49.12 158.049 49.0144 157.804 48.7972C157.56 48.5761 157.434 48.3083 157.429 47.9936C157.423 47.6751 157.539 47.403 157.776 47.1774C158.013 46.9479 158.298 46.8302 158.632 46.8243C158.97 46.8184 159.26 46.926 159.5 47.1471C159.745 47.3643 159.87 47.6321 159.876 47.9506C159.881 48.2653 159.766 48.5373 159.529 48.7669C159.296 48.9924 159.01 49.1082 158.672 49.1141Z" fill="#F7FAFC"/>
<path d="M169.634 53.0178L167.706 53.1719C167.657 52.9761 167.567 52.7909 167.436 52.6161C167.309 52.4414 167.135 52.2983 166.913 52.187C166.69 52.0756 166.416 52.0152 166.09 52.0057C165.651 51.993 165.279 52.0775 164.975 52.2591C164.674 52.4408 164.522 52.6832 164.517 52.9862C164.505 53.2463 164.594 53.4607 164.784 53.6294C164.977 53.7983 165.299 53.9417 165.751 54.0597L167.267 54.4301C168.109 54.6371 168.729 54.9446 169.13 55.3527C169.534 55.7608 169.728 56.2853 169.714 56.9262C169.693 57.4891 169.514 57.9814 169.175 58.403C168.841 58.8208 168.382 59.1418 167.801 59.3659C167.219 59.5901 166.555 59.6913 165.81 59.6697C164.715 59.638 163.84 59.3834 163.185 58.9058C162.531 58.4243 162.151 57.7701 162.047 56.9431L164.109 56.8046C164.19 57.2112 164.379 57.5218 164.676 57.7364C164.973 57.951 165.365 58.0653 165.85 58.0793C166.351 58.0938 166.756 58.0026 167.065 57.8055C167.377 57.6086 167.538 57.3587 167.547 57.0558C167.554 56.7995 167.461 56.585 167.268 56.4123C167.079 56.2397 166.78 56.1027 166.371 56.0015L164.854 55.6369C164.001 55.4334 163.375 55.1141 162.975 54.6789C162.576 54.2398 162.388 53.6941 162.41 53.0418C162.423 52.4903 162.586 52.017 162.9 51.6219C163.219 51.223 163.653 50.9208 164.203 50.7152C164.758 50.5058 165.392 50.4114 166.106 50.4321C167.155 50.4625 167.974 50.7097 168.563 51.1737C169.155 51.6378 169.513 52.2526 169.634 53.0178Z" fill="#F7FAFC"/>
<path d="M177.309 51.6115L177.115 53.2315L172.006 52.6182L172.201 50.9981L177.309 51.6115ZM173.717 49.0203L175.812 49.2718L174.81 57.615C174.777 57.8966 174.793 58.1177 174.86 58.2783C174.931 58.4356 175.035 58.5497 175.171 58.6209C175.307 58.692 175.462 58.738 175.636 58.7588C175.767 58.7746 175.887 58.7793 175.998 58.773C176.112 58.7671 176.199 58.7599 176.259 58.7515L176.415 60.4312C176.298 60.4564 176.133 60.4796 175.919 60.5009C175.709 60.5226 175.456 60.5195 175.158 60.4916C174.631 60.444 174.168 60.3082 173.769 60.0842C173.369 59.8563 173.069 59.5423 172.866 59.1424C172.668 58.7429 172.604 58.2657 172.674 57.7107L173.717 49.0203Z" fill="#F7FAFC"/>
<path d="M179.538 61.1343L181.332 52.365L183.336 52.7749L183.037 54.2365L183.128 54.2551C183.392 53.7816 183.745 53.4476 184.19 53.2529C184.639 53.0553 185.114 53.0078 185.617 53.1106C185.731 53.134 185.857 53.1658 185.996 53.206C186.139 53.2432 186.256 53.281 186.347 53.3195L185.958 55.2207C185.877 55.1723 185.743 55.1173 185.558 55.0555C185.377 54.9907 185.199 54.9404 185.024 54.9046C184.647 54.8275 184.291 54.8401 183.957 54.9422C183.628 55.0413 183.348 55.2161 183.118 55.4665C182.889 55.717 182.736 56.0287 182.659 56.4017L181.605 61.5571L179.538 61.1343Z" fill="#F7FAFC"/>
<path d="M189.518 63.8223C188.974 63.6589 188.514 63.4149 188.137 63.0905C187.765 62.7635 187.51 62.3703 187.373 61.911C187.239 61.4528 187.256 60.9429 187.425 60.3811C187.571 59.8975 187.78 59.5244 188.054 59.262C188.328 58.9995 188.648 58.8198 189.013 58.723C189.379 58.6262 189.77 58.5877 190.186 58.6074C190.607 58.6245 191.033 58.6734 191.463 58.7541C191.981 58.8532 192.402 58.9292 192.727 58.9824C193.053 59.0318 193.3 59.0331 193.468 58.9863C193.641 58.937 193.757 58.8156 193.815 58.6221L193.825 58.5887C193.951 58.1683 193.925 57.8053 193.745 57.4996C193.565 57.194 193.241 56.9706 192.772 56.8295C192.277 56.6807 191.852 56.6704 191.497 56.7989C191.146 56.9285 190.876 57.1251 190.687 57.3887L188.881 56.5533C189.187 56.0773 189.563 55.7159 190.011 55.4692C190.459 55.2188 190.957 55.0806 191.505 55.0546C192.053 55.0249 192.627 55.1002 193.226 55.2805C193.639 55.4047 194.035 55.5768 194.416 55.7967C194.796 56.0165 195.121 56.289 195.393 56.6141C195.665 56.9354 195.847 57.3166 195.937 57.7577C196.031 58.1998 195.993 58.7055 195.821 59.2747L194.095 65.0112L192.153 64.4268L192.508 63.2494L192.441 63.2292C192.246 63.4304 192.006 63.6015 191.72 63.7427C191.439 63.8812 191.112 63.9634 190.739 63.9891C190.371 64.0122 189.964 63.9566 189.518 63.8223ZM190.489 62.4958C190.894 62.6178 191.27 62.6436 191.616 62.5732C191.963 62.4991 192.256 62.3522 192.497 62.1325C192.741 61.9139 192.911 61.6465 193.006 61.3302L193.31 60.3202C193.231 60.3533 193.109 60.3692 192.943 60.3679C192.78 60.3678 192.601 60.3565 192.405 60.334C192.209 60.3115 192.016 60.2858 191.826 60.257C191.636 60.2282 191.471 60.2029 191.331 60.1812C191.018 60.1315 190.728 60.1173 190.462 60.1386C190.196 60.16 189.969 60.2337 189.781 60.3597C189.594 60.4819 189.461 60.6733 189.383 60.9337C189.271 61.3057 189.322 61.6274 189.537 61.8989C189.751 62.1703 190.068 62.3693 190.489 62.4958Z" fill="#F7FAFC"/>
<path d="M203.551 59.2803L202.941 60.7939L198.168 58.8717L198.777 57.3582L203.551 59.2803ZM200.757 55.8435L202.714 56.6315L199.575 64.4263C199.469 64.6894 199.427 64.9072 199.45 65.0796C199.478 65.25 199.548 65.3872 199.661 65.4913C199.774 65.5955 199.912 65.6802 200.074 65.7455C200.196 65.7949 200.312 65.8308 200.42 65.8535C200.532 65.8775 200.617 65.8932 200.677 65.9006L200.391 67.5631C200.272 67.5571 200.107 67.5365 199.894 67.5014C199.686 67.4677 199.442 67.3986 199.161 67.2941C198.665 67.1111 198.254 66.8595 197.926 66.5391C197.6 66.2152 197.391 65.8338 197.3 65.395C197.212 64.9576 197.275 64.4801 197.487 63.9627L200.757 55.8435Z" fill="#F7FAFC"/>
<path d="M204.16 69.0526L208.142 61.0361L210.031 61.9745L206.049 69.991L204.16 69.0526ZM209.657 60.3701C209.357 60.2215 209.149 59.9944 209.032 59.689C208.916 59.38 208.929 59.0846 209.069 58.8028C209.21 58.5175 209.438 58.3292 209.753 58.2381C210.069 58.1434 210.376 58.1704 210.675 58.319C210.978 58.4694 211.185 58.6982 211.297 59.0054C211.415 59.3109 211.402 59.6063 211.261 59.8916C211.121 60.1734 210.893 60.3616 210.577 60.4563C210.266 60.5492 209.959 60.5205 209.657 60.3701Z" fill="#F7FAFC"/>
<path d="M212.606 74.5109C211.862 74.0528 211.317 73.4921 210.973 72.8286C210.628 72.1652 210.487 71.4463 210.548 70.6721C210.612 69.8999 210.887 69.12 211.371 68.3325C211.856 67.545 212.429 66.9467 213.092 66.5376C213.757 66.1306 214.464 65.9312 215.211 65.9395C215.959 65.9478 216.705 66.181 217.449 66.639C218.194 67.097 218.738 67.6578 219.082 68.3213C219.427 68.9847 219.566 69.7042 219.499 70.4797C219.436 71.2573 219.162 72.0398 218.678 72.8273C218.193 73.6148 217.619 74.2105 216.956 74.6142C216.295 75.02 215.592 75.2187 214.844 75.2104C214.097 75.2021 213.351 74.9689 212.606 74.5109ZM213.502 73.0776C213.905 73.326 214.311 73.4228 214.719 73.368C215.128 73.3099 215.516 73.133 215.88 72.8372C216.248 72.5434 216.574 72.165 216.859 71.7017C217.146 71.2352 217.338 70.7715 217.434 70.3109C217.536 69.8489 217.52 69.422 217.387 69.03C217.255 68.6381 216.986 68.318 216.583 68.0696C216.169 67.8151 215.756 67.7159 215.343 67.772C214.933 67.83 214.543 68.0076 214.173 68.3047C213.809 68.6005 213.483 68.9816 213.196 69.4482C212.911 69.9114 212.719 70.3724 212.619 70.831C212.523 71.2917 212.541 71.718 212.674 72.1099C212.812 72.5006 213.088 72.8232 213.502 73.0776Z" fill="#F7FAFC"/>
<path d="M222.751 75.0431L219.541 79.1911L217.873 77.9002L223.35 70.8209L224.945 72.0548L224.014 73.2577L224.097 73.3219C224.567 73.0515 225.07 72.9375 225.607 72.9797C226.147 73.0244 226.682 73.2511 227.21 73.66C227.699 74.0381 228.043 74.4718 228.244 74.9613C228.448 75.4531 228.497 75.9745 228.39 76.5254C228.286 77.0786 228.014 77.6368 227.573 78.1998L224.086 82.7073L222.417 81.4163L225.705 77.1669C226.071 76.6938 226.235 76.2284 226.196 75.7709C226.16 75.3158 225.927 74.9218 225.497 74.589C225.205 74.3631 224.895 74.2267 224.568 74.1799C224.246 74.1323 223.928 74.1784 223.614 74.3182C223.302 74.4604 223.015 74.702 222.751 75.0431Z" fill="#F7FAFC"/>
</g>
<defs>
<filter id="filter0_d_5727_28372" x="0.467209" y="1.12966" width="324.147" height="324.146" filterUnits="userSpaceOnUse" color-interpolation-filters="sRGB">
<feFlood flood-opacity="0" result="BackgroundImageFix"/>
<feColorMatrix in="SourceAlpha" type="matrix" values="0 0 0 0 0 0 0 0 0 0 0 0 0 0 0 0 0 0 127 0" result="hardAlpha"/>
<feOffset dy="4.0018"/>
<feGaussianBlur stdDeviation="45.0203"/>
<feColorMatrix type="matrix" values="0 0 0 0 0 0 0 0 0 0 0 0 0 0 0 0 0 0 0.5 0"/>
<feBlend mode="overlay" in2="BackgroundImageFix" result="effect1_dropShadow_5727_28372"/>
<feBlend mode="normal" in="SourceGraphic" in2="effect1_dropShadow_5727_28372" result="shape"/>
</filter>
<clipPath id="clip0_5727_28372">
<rect width="325" height="325" fill="white"/>
</clipPath>
</defs>
</svg>
