<svg width="86" height="88" viewBox="0 0 86 88" fill="none" xmlns="http://www.w3.org/2000/svg">
<rect width="86" height="88" rx="20" fill="#EDF2F7"/>
<path d="M52.2877 18.0102C55.9044 18.0102 59.5212 18.0102 63.1379 18.0102C66.6225 18.0102 68.9998 20.3874 68.9998 23.8721C68.9998 27.4075 68.9998 30.9531 68.9998 34.4885C68.9998 37.902 66.6022 40.2895 63.209 40.2996C61.1771 40.2996 59.1453 40.3098 57.1134 40.2895C56.768 40.2895 56.4937 40.3809 56.2194 40.5841C54.1266 42.1689 52.0134 43.7334 49.9206 45.3183C49.2501 45.8263 48.5593 46.0498 47.7669 45.6536C46.9541 45.2573 46.69 44.5563 46.7103 43.6928C46.7306 42.748 46.6798 41.793 46.7306 40.8482C46.7611 40.3301 46.5782 40.259 46.1211 40.2691C44.5362 40.2996 42.9514 40.2793 41.3665 40.2793C37.9936 40.2691 35.5859 37.8715 35.5757 34.519C35.5656 30.9226 35.5656 27.3262 35.5757 23.7298C35.5859 20.4077 37.9936 18 41.3259 18C44.9731 18 48.6304 18.0102 52.2877 18.0102ZM44.902 27.2957C43.8962 27.2653 43.0428 28.0678 43.0022 29.0736C42.9615 30.0997 43.7743 30.9836 44.8105 31.0039C45.8163 31.0344 46.6798 30.2216 46.7103 29.226C46.7509 28.1898 45.9382 27.3262 44.902 27.2957ZM54.1367 29.1549C54.1367 28.1186 53.2834 27.2856 52.2573 27.2957C51.2515 27.3059 50.4286 28.139 50.4286 29.1549C50.4286 30.181 51.282 31.0242 52.3081 31.014C53.3138 30.9937 54.1469 30.1505 54.1367 29.1549ZM61.5733 29.1752C61.5835 28.139 60.7504 27.2957 59.7142 27.2856C58.7084 27.2856 57.8753 28.1085 57.855 29.1142C57.8347 30.1403 58.6779 30.9937 59.7142 31.0039C60.7199 31.014 61.5632 30.181 61.5733 29.1752Z" fill="#FFA600"/>
<path d="M29.9678 70.0054C26.351 70.0054 22.7343 70.0054 19.1176 70.0054C17.736 70.0054 17.0045 69.2739 17.0045 67.9024C17.0045 66.1449 16.9944 64.3873 17.0045 62.6196C17.0248 58.434 20.286 55.1627 24.4716 55.1424C28.1696 55.1322 31.8574 55.1322 35.5554 55.1424C39.7308 55.1525 42.9919 58.434 43.0123 62.6298C43.0224 64.3873 43.0123 66.1449 43.0123 67.9126C43.0123 69.2638 42.2808 70.0054 40.9398 70.0054C37.2723 70.0156 33.6149 70.0054 29.9678 70.0054Z" fill="#4C6C8D"/>
<path d="M59.655 70.0051C57.2777 70.0051 54.9005 70.0051 52.5232 70.0051C51.1822 70.0051 50.4202 69.2635 50.4406 67.9326C50.4609 66.4494 50.2983 64.956 50.532 63.4727C50.9587 60.8618 53.214 58.901 55.8554 58.8706C58.4257 58.8401 60.996 58.8299 63.5663 58.8706C66.5227 58.9112 68.9203 61.3291 68.9812 64.2854C69.0117 65.5655 69.0015 66.8354 68.9812 68.1155C68.9711 69.2229 68.1786 70.0051 67.0611 70.0051C64.6026 70.0153 62.1339 70.0051 59.655 70.0051Z" fill="#4C6C8D"/>
<path d="M30.031 38.4395C34.1048 38.4497 37.4269 41.7819 37.4269 45.866C37.4269 49.9703 34.0744 53.3026 29.97 53.2924C25.8758 53.2822 22.5537 49.9195 22.5741 45.805C22.5944 41.7312 25.9368 38.4192 30.031 38.4395Z" fill="#4C6C8D"/>
<path d="M65.2829 51.4224C65.2829 54.4905 62.7939 56.9897 59.736 56.9998C56.6476 57.01 54.1281 54.4905 54.1382 51.4122C54.1484 48.3543 56.6577 45.8551 59.7157 45.8653C62.7838 45.8653 65.2829 48.3644 65.2829 51.4224Z" fill="#4C6C8D"/>
</svg>
