<svg width="87" height="88" viewBox="0 0 87 88" fill="none" xmlns="http://www.w3.org/2000/svg">
<rect x="0.5" width="86" height="88" rx="20" fill="#EDF2F7"/>
<path d="M70.5 52.0664C70.1309 52.6147 69.6037 52.7413 68.9604 52.7413C66.9253 52.7096 64.8902 52.7307 62.855 52.7307C62.1801 52.7307 61.6318 52.33 61.4525 51.6868C60.2188 47.0998 58.5316 42.671 56.8128 38.2527C56.2434 36.787 55.6635 35.3213 54.8937 33.9399C54.5563 33.3494 54.8937 32.7167 55.6424 32.4426C58.0044 31.5779 60.4508 31.0296 62.9394 30.6816C64.9745 30.3969 67.0202 30.2809 69.0764 30.2387C69.7197 30.2281 70.1942 30.418 70.5 30.9874C70.5 38.0102 70.5 45.033 70.5 52.0664Z" fill="#4C6C8D"/>
<path d="M16.5105 28.8694C16.8374 28.1207 17.4069 27.9415 18.1977 28.0153C21.1819 28.3211 24.1766 28.5109 27.087 29.2912C27.8989 29.5126 28.6792 29.8079 29.3857 30.293C29.9235 30.662 30.0606 31.126 29.9762 31.7376C29.7443 33.5302 29.4068 35.3017 28.9956 37.0627C28.0465 41.1435 26.7917 45.14 25.6529 49.1576C25.3365 50.2859 25.1151 50.4651 23.9341 50.4651C21.9306 50.4651 19.9271 50.4441 17.9235 50.4757C17.2803 50.4862 16.8058 50.2964 16.5 49.727C16.5105 42.7885 16.5105 35.829 16.5105 28.8694Z" fill="#4C6C8D"/>
<path d="M36.2819 34.7539C35.2485 35.8611 34.426 36.9894 33.8355 38.2653C33.3505 39.3093 32.9498 40.3743 33.1501 41.5553C33.3294 42.6309 33.9621 43.3374 35.006 43.7064C37.5473 44.6027 39.6141 43.8435 41.3434 41.9138C41.5754 41.6502 41.8074 41.492 42.1659 41.4499C42.7037 41.3971 43.1993 41.1968 43.6633 40.891C43.8531 40.7644 44.064 40.5008 44.4014 40.775C47.9339 43.6959 51.5824 46.4692 54.9884 49.5483C55.853 50.3286 56.6544 51.1721 57.1817 52.2161C57.3926 52.6379 57.498 53.0597 57.3293 53.5342C57.013 54.441 56.0007 54.6836 55.3258 54.0087C53.3117 51.9946 51.2977 49.9806 49.2836 47.9665C48.9357 47.6186 48.5666 47.3444 48.0288 47.5236C47.1536 47.7978 46.9427 48.7574 47.6281 49.4533C48.9462 50.7925 50.2854 52.1106 51.614 53.4498C52.2678 54.1036 52.9216 54.7785 53.5965 55.4217C53.8284 55.6431 53.8284 55.7802 53.6175 56.0228C53.0376 56.6976 52.2995 56.8347 51.477 56.7293C51.2133 56.6976 51.0552 56.4973 50.8759 56.3286C49.136 54.5887 47.3961 52.8488 45.6562 51.1089C45.3293 50.782 44.9708 50.55 44.4858 50.666C43.6105 50.8874 43.3258 51.8892 43.9796 52.5641C44.7494 53.3655 45.5402 54.1352 46.3206 54.9156C47.1536 55.7486 47.9761 56.5922 48.8302 57.4041C49.0833 57.6467 49.0938 57.8365 48.9673 58.1317C48.4928 59.2178 47.2696 59.4604 46.4365 58.6273C45.0341 57.2249 43.6316 55.8119 42.2186 54.4199C41.5859 53.7978 40.8056 53.8822 40.3944 54.5781C40.1097 55.0632 40.1835 55.5272 40.658 56.0017C41.7863 57.13 42.9251 58.2583 44.0956 59.4182C43.7371 59.5764 43.3996 59.5236 43.0938 59.4709C42.2081 59.3127 41.3645 59.028 40.6264 58.4902C37.1466 55.9279 33.7195 53.3022 30.4085 50.5289C29.6598 49.8962 29.0376 49.1265 28.3417 48.4305C28.173 48.2618 28.2573 48.1142 28.31 47.956C29.5754 44.2126 30.5561 40.3954 31.4208 36.5465C31.5157 36.1142 31.6211 35.6924 31.6844 35.2601C31.7371 34.9226 31.8426 34.7539 32.2433 34.7645C33.5614 34.775 34.8795 34.7539 36.2819 34.7539Z" fill="#FFA600"/>
<path d="M59.0061 50.0321C58.8163 50.0532 58.753 49.9689 58.6792 49.8845C56.5386 47.3432 53.9446 45.2975 51.3927 43.1991C49.5896 41.7123 47.8391 40.1622 46.0676 38.6438C45.4876 38.1482 44.8339 37.99 44.1168 38.2325C43.5369 38.4329 42.9885 38.6965 42.4191 38.9496C42.05 39.1077 41.6704 39.2343 41.2592 39.2448C40.8268 39.2554 40.5 39.4874 40.2574 39.8353C39.9938 40.2255 39.6985 40.6051 39.3506 40.932C38.4226 41.8072 37.3787 41.9759 36.1871 41.5541C35.6599 41.3643 35.5334 41.0374 35.6177 40.5418C35.7126 40.004 35.9024 39.4874 36.166 39.0128C37.4947 36.577 39.456 34.7422 41.8181 33.3292C43.2627 32.4645 44.8233 32.6016 46.3418 33.1605C48.7038 34.0251 51.0131 35.0585 53.4279 35.8072C53.702 35.8916 53.7548 36.1025 53.8497 36.3028C54.8092 38.338 55.579 40.4364 56.3488 42.5453C57.2134 44.8968 58.0465 47.2589 58.8795 49.6209C58.9217 49.7263 58.9533 49.8634 59.0061 50.0321Z" fill="#FFA600"/>
</svg>
