<svg width="87" height="88" viewBox="0 0 87 88" fill="none" xmlns="http://www.w3.org/2000/svg">
<rect x="0.5" width="86" height="88" rx="20" fill="#EDF2F7"/>
<path d="M44.8183 16C45.2778 16.2078 45.7919 16.1969 46.2733 16.3062C52.0603 17.6078 56.1518 22.7812 56.0861 28.7422C56.0205 34.6375 51.7978 39.7344 46.0107 40.9156C37.9373 42.5562 30.4436 36.0375 30.9468 27.8125C31.3188 21.8078 35.8806 16.9187 41.8755 16.1094C41.9631 16.0984 42.0615 16.1203 42.0943 16C42.9914 16 43.9103 16 44.8183 16ZM38.5936 27.1453C37.9154 27.1453 37.3356 27.5062 37.084 28.1187C36.8105 28.7969 36.9308 29.4094 37.434 29.9234C38.4405 30.9516 39.4579 31.9687 40.4862 32.975C41.2082 33.6859 42.16 33.6859 42.871 32.9859C44.9277 30.9516 46.9734 28.8953 49.0191 26.85C49.4129 26.4562 49.588 25.9641 49.4895 25.4062C49.3692 24.7609 48.9863 24.3125 48.3627 24.1266C47.7173 23.9406 47.1484 24.1047 46.6671 24.5859C45.1137 26.15 43.5493 27.6922 41.9959 29.2672C41.7661 29.4969 41.6349 29.5297 41.4051 29.2781C40.9019 28.7312 40.3549 28.2172 39.8298 27.6922C39.4688 27.3312 39.075 27.1344 38.5936 27.1453Z" fill="#FFA600"/>
<path d="M55.1015 72.0008C55.1015 69.9773 55.1125 67.9539 55.0906 65.9304C55.0906 65.5258 55.1781 65.4054 55.5938 65.4273C58.1427 65.5367 60.3197 64.6945 62.0044 62.7476C63.1969 61.3804 63.7985 59.7726 63.8423 57.957C63.8751 56.907 63.1859 56.1523 62.2342 56.1414C61.2934 56.1304 60.6151 56.8414 60.5713 57.8586C60.4729 60.3086 58.6132 62.1351 56.1627 62.1461C53.6247 62.157 51.0976 62.157 48.5596 62.1461C46.6999 62.1351 45.2559 60.6804 45.2559 58.8539C45.2559 57.0273 46.7108 55.5945 48.5815 55.5836C50.5725 55.5726 52.5526 55.5617 54.5436 55.5945C54.9812 55.5945 55.1234 55.5179 55.1125 55.0476C55.0906 53.3851 55.5719 51.8648 56.4909 50.4648C56.6768 50.1804 56.8081 50.1476 57.1254 50.2898C60.7026 51.9633 64.7503 51.307 67.5837 48.5508C67.89 48.2445 68.0541 48.3211 68.3275 48.5398C69.9904 49.8742 71.0187 51.5695 71.3907 53.6695C71.4125 53.7679 71.3578 53.8992 71.5 53.9429C71.5 59.5539 71.5 65.1758 71.5 70.7867C71.2156 71.3555 70.8109 71.793 70.1873 71.9898C65.166 72.0008 60.1338 72.0008 55.1015 72.0008Z" fill="#4C6C8D"/>
<path d="M15.5 53.8434C15.6969 53.6684 15.6532 53.4168 15.7079 53.1981C16.1673 51.284 17.1847 49.7418 18.7272 48.5168C18.9569 48.3309 19.1101 48.2653 19.3836 48.5278C22.3592 51.3496 26.2208 51.984 29.9294 50.2778C30.2029 50.1465 30.3232 50.1903 30.4873 50.4309C31.4172 51.8309 31.9095 53.3731 31.8985 55.0575C31.8876 55.5278 32.0298 55.6153 32.4674 55.6043C34.4146 55.5825 36.3728 55.5934 38.3201 55.5934C40.2783 55.5934 41.7551 57.0043 41.7551 58.8637C41.7551 60.734 40.3002 62.1559 38.342 62.1559C35.8805 62.1668 33.4191 62.1668 30.9577 62.1559C28.3978 62.145 26.56 60.3731 26.4396 57.8028C26.3959 56.8293 25.6957 56.1293 24.7768 56.1403C23.836 56.1512 23.1577 56.895 23.1577 57.9012C23.1687 61.8715 26.5162 65.3059 30.4873 65.4262C30.5201 65.4262 30.5639 65.4262 30.5967 65.4262C31.0233 65.47 31.5922 65.2403 31.8438 65.5246C32.0517 65.7762 31.9095 66.3231 31.9095 66.7387C31.9095 68.4887 31.9095 70.2387 31.9095 71.9887C26.8772 71.9887 21.845 71.9887 16.8128 71.9887C16.1564 71.77 15.7079 71.3434 15.5 70.6762C15.5 65.0762 15.5 59.4543 15.5 53.8434Z" fill="#4C6C8D"/>
<path d="M35.1906 71.9992C35.1906 69.9539 35.2016 67.9195 35.1797 65.8742C35.1797 65.5133 35.2672 65.4258 35.6282 65.4258C40.8792 65.4367 46.1303 65.4367 51.3813 65.4258C51.7423 65.4258 51.8298 65.5133 51.8298 65.8742C51.8079 67.9195 51.8189 69.9539 51.8189 71.9992C46.2725 71.9992 40.737 71.9992 35.1906 71.9992Z" fill="#4A5568"/>
<path d="M31.9097 41.9321C31.8988 45.2352 29.1967 47.9368 25.8929 47.9258C22.5673 47.9258 19.8542 45.2024 19.8761 41.8664C19.898 38.5633 22.611 35.8836 25.9257 35.8946C29.2295 35.9164 31.9206 38.6289 31.9097 41.9321Z" fill="#4C6C8D"/>
<path d="M61.0965 35.9063C64.4112 35.8953 67.1133 38.575 67.1352 41.8782C67.157 45.2141 64.444 47.9375 61.1184 47.9375C57.8146 47.9375 55.1125 45.236 55.1016 41.9328C55.1016 38.6297 57.7818 35.9172 61.0965 35.9063Z" fill="#4C6C8D"/>
</svg>
