<svg width="87" height="88" viewBox="0 0 87 88" fill="none" xmlns="http://www.w3.org/2000/svg">
<rect x="0.5" width="86" height="88" rx="20" fill="#EDF2F7"/>
<path d="M57.0111 71.6634C45.0654 71.6634 33.1197 71.6634 21.1739 71.6634C21.1522 71.5438 21.0544 71.5438 20.9674 71.5112C19.25 70.8373 18.5 69.7612 18.5 67.9243C18.5 51.8481 18.5 35.7719 18.5 19.6957C18.5 17.4457 19.9565 16.0109 22.2065 16.0109C30.4675 16.0109 38.7284 16.0109 46.9785 16C47.4132 16 47.5219 16.1087 47.5111 16.5435C47.4893 20.0979 47.5002 23.6631 47.5002 27.2175C47.5002 28.2718 47.8698 28.6305 48.935 28.6305C52.4567 28.6305 55.9785 28.6305 59.5003 28.6305C59.8155 28.6305 60.0003 28.6523 59.9894 29.0653C59.9677 31.3697 59.9785 33.674 59.9785 35.9784C59.9785 36.2175 59.9133 36.3806 59.7285 36.5436C58.5872 37.5328 57.4568 38.5328 56.3263 39.5328C51.3589 43.9024 46.3915 48.272 41.4132 52.6198C41.0001 52.9785 40.761 53.3807 40.6523 53.9133C40.1523 56.3698 39.6306 58.8155 39.1088 61.272C38.8697 62.4025 39.3154 62.946 40.4567 62.8808C43.0328 62.7394 45.6089 62.5764 48.185 62.446C48.6959 62.4242 49.098 62.2394 49.4785 61.9134C52.8589 58.9242 56.2503 55.9459 59.6416 52.9676C59.7285 52.8916 59.8046 52.7502 59.9785 52.8481C59.9785 57.9894 60.0003 63.1308 59.9677 68.2721C59.9568 69.6525 59.2394 70.6852 58.0003 71.3156C57.6959 71.4569 57.3481 71.5438 57.0111 71.6634ZM35.7719 42.1741C32.7284 42.1741 29.6957 42.1741 26.6522 42.1741C26.4348 42.1741 26.2066 42.1741 25.9892 42.2176C25.4892 42.3045 25.1413 42.7284 25.1413 43.2284C25.1413 43.7284 25.4674 44.1741 25.9566 44.2719C26.1522 44.3154 26.3587 44.3154 26.5653 44.3154C32.7392 44.3154 38.9132 44.3154 45.0871 44.3154C45.2176 44.3154 45.348 44.3154 45.4784 44.3045C46.0654 44.2502 46.4893 43.8154 46.5002 43.2611C46.5111 42.7067 46.1198 42.2719 45.5219 42.1958C45.3263 42.1741 45.1197 42.1741 44.9132 42.1741C41.848 42.1741 38.8154 42.1741 35.7719 42.1741ZM32.2718 34.4023C34.261 34.4023 36.2501 34.4023 38.2393 34.4023C38.9784 34.4023 39.4132 34.011 39.4241 33.3806C39.4349 32.7284 38.9784 32.2936 38.2393 32.2936C34.261 32.2827 30.2827 32.2936 26.3044 32.2936C26.0435 32.2936 25.7827 32.3371 25.5761 32.5001C25.1957 32.8045 25.0435 33.2175 25.1957 33.6849C25.3587 34.174 25.7283 34.4132 26.2501 34.4132C28.2501 34.4023 30.2609 34.4023 32.2718 34.4023Z" fill="#4C6C8D"/>
<path d="M44.7065 60.5006C43.75 60.5549 42.7934 60.6093 41.8369 60.6745C41.5325 60.6962 41.413 60.6745 41.4891 60.294C41.9021 58.4245 42.2934 56.5549 42.6739 54.6744C42.7282 54.381 42.8804 54.1853 43.0869 53.9896C47.7935 49.8592 52.5 45.7287 57.1957 41.5765C57.4457 41.3591 57.5653 41.4026 57.7609 41.62C59.337 43.4244 60.9131 45.2287 62.5001 47.0222C62.7392 47.2939 62.7175 47.4353 62.4457 47.6744C57.7283 51.794 53.0218 55.9353 48.3152 60.0658C48.1087 60.2506 47.8913 60.3266 47.6195 60.3375C46.6521 60.4027 45.6739 60.4571 44.7065 60.5006C44.7065 60.5114 44.7065 60.5006 44.7065 60.5006Z" fill="#FFA600"/>
<path d="M67.5002 41.3258C67.4785 42.5214 67.1524 43.391 66.4676 44.0867C65.8915 44.6736 65.2393 45.1954 64.6306 45.7497C64.435 45.9345 64.3154 45.891 64.1415 45.6954C62.5545 43.8584 60.9458 42.0432 59.3371 40.2171C59.1306 39.9888 59.1197 39.8693 59.3806 39.6627C59.8697 39.2714 60.3262 38.8366 60.7936 38.4345C62.0328 37.3584 63.4349 37.0105 64.935 37.7279C66.5002 38.4779 67.4132 39.7606 67.5002 41.3258Z" fill="#FFA600"/>
<path d="M58.3693 26.5112C57.7498 26.5112 57.1302 26.5112 56.5106 26.5112C54.3802 26.5112 52.2389 26.5112 50.1084 26.522C49.8041 26.522 49.641 26.4894 49.6519 26.109C49.6627 23.3481 49.6627 20.5872 49.6627 17.8263C49.6627 17.772 49.6845 17.7285 49.6627 17.8046C52.5758 20.6198 55.5215 23.4785 58.4672 26.3373C58.4345 26.3916 58.4019 26.4568 58.3693 26.5112Z" fill="#4C6C8D"/>
</svg>
