<svg width="87" height="88" viewBox="0 0 87 88" fill="none" xmlns="http://www.w3.org/2000/svg">
<rect x="0.5" width="86" height="88" rx="20" fill="#EDF2F7"/>
<path d="M66.1924 71.755C53.4189 71.755 40.6344 71.755 27.8609 71.755C27.7956 71.5698 27.9698 71.5154 28.0569 71.4392C32.4019 67.0833 36.7577 62.7383 41.0918 58.3825C41.3314 58.132 41.5383 58.1102 41.8541 58.2082C44.228 58.927 46.6346 59.0467 49.0521 58.5458C56.6858 56.945 61.6732 49.8559 60.6496 42.0916C59.5715 33.9679 51.7201 28.2182 43.6727 29.6338C34.8847 31.1802 29.5052 39.8701 32.0534 48.4185C32.1514 48.756 32.0643 48.9412 31.8356 49.1698C29.6686 51.3151 27.5233 53.4821 25.3672 55.6274C25.2801 55.7145 25.2256 55.8888 25.0187 55.8452C25.0187 55.6383 25.0187 55.4423 25.0187 55.2463C25.0187 42.8865 25.0296 30.5377 25.0078 18.1779C25.0078 17.1652 25.2801 16.4247 26.2166 16C35.255 16 44.2934 16 53.3318 16C53.3318 20.0836 53.3318 24.1672 53.3318 28.2508C53.3318 29.5249 53.9634 30.1565 55.2266 30.1565C59.1142 30.1565 62.9909 30.1674 66.8785 30.1456C67.3467 30.1456 67.4992 30.2328 67.4992 30.7446C67.4774 43.7359 67.4774 56.7273 67.4992 69.7186C67.521 70.7313 67.1507 71.4174 66.1924 71.755ZM52.1992 65.7657C54.5187 65.7657 56.8382 65.7657 59.1577 65.7657C60.214 65.7657 60.9545 65.1014 60.9654 64.1431C60.9763 63.1739 60.2358 62.4988 59.136 62.4988C54.5514 62.4988 49.956 62.4988 45.3714 62.4988C44.2825 62.4988 43.5311 63.1739 43.542 64.1431C43.5529 65.1123 44.2934 65.7657 45.3932 65.7657C47.6692 65.7657 49.9342 65.7657 52.1992 65.7657ZM38.707 21.9893C36.9102 21.9893 35.1134 21.9893 33.3166 21.9893C32.3039 21.9893 31.5743 22.6753 31.5634 23.601C31.5525 24.5484 32.293 25.2453 33.3275 25.2562C36.8666 25.2562 40.3949 25.2562 43.934 25.2562C44.9794 25.2562 45.7199 24.5701 45.709 23.6119C45.709 22.6645 44.9685 21.9893 43.9122 21.9893C42.1808 21.9893 40.4493 21.9893 38.707 21.9893Z" fill="#4C6C8D"/>
<path d="M20.9996 71.7556C20.9234 71.5705 20.7383 71.5923 20.5967 71.5378C18.4405 70.6885 17.8089 68.0096 19.3553 66.2782C19.4533 66.1693 19.5513 66.0712 19.6602 65.9624C24.2012 61.4214 28.7421 56.8804 33.2722 52.3285C33.6098 51.9909 33.7296 52.0127 33.9909 52.4047C35.0255 53.962 36.3322 55.2578 37.9003 56.2924C38.227 56.5101 38.2488 56.6299 37.9657 56.9131C33.3594 61.4976 28.7748 66.0821 24.1903 70.6885C23.6567 71.2221 23.0033 71.5052 22.3064 71.7448C21.8708 71.7556 21.4352 71.7556 20.9996 71.7556Z" fill="#4C6C8D"/>
<path d="M37.3459 51.3806C34.2097 48.0157 33.3058 41.2968 37.6181 36.4835C41.8107 31.8119 49.0958 31.4199 53.7457 35.6124C58.5807 39.9791 58.6134 47.0792 54.9218 51.3806C54.7475 51.337 54.7584 51.1519 54.7149 51.0321C53.9199 49.1155 52.635 47.6019 50.8599 46.5347C50.5659 46.3604 50.5224 46.2733 50.7075 45.9466C51.9162 43.9212 51.8945 41.8739 50.5659 39.9138C49.3463 38.117 47.103 37.224 45.0449 37.7141C42.7254 38.2586 41.2662 39.7287 40.787 42.059C40.5039 43.442 40.7653 44.7706 41.5493 45.9575C41.7344 46.2298 41.7235 46.3387 41.4186 46.5129C39.5783 47.6019 38.2715 49.1591 37.4875 51.141C37.4657 51.2063 37.433 51.2717 37.4112 51.3479C37.3895 51.3806 37.3677 51.3806 37.3459 51.3806Z" fill="#4C6C8D"/>
<path d="M46.176 55.5636C44.1288 55.5745 42.2667 55.0736 40.5134 54.1153C40.2194 53.952 40.1432 53.7886 40.2085 53.4728C40.7312 50.598 43.2032 48.5072 46.0998 48.4963C48.9529 48.4745 51.4357 50.5435 52.0129 53.3857C52.0891 53.756 52.0129 53.9629 51.6535 54.1589C49.9221 55.0845 48.0926 55.5636 46.176 55.5636Z" fill="#FFA600"/>
<path d="M46.0789 45.2169C44.8702 45.1951 43.9337 44.2259 43.9555 43.0063C43.9772 41.7975 44.9682 40.8392 46.166 40.8719C47.3639 40.9046 48.3331 41.9064 48.3004 43.0934C48.2677 44.3021 47.2877 45.2387 46.0789 45.2169Z" fill="#FFA600"/>
<path d="M56.6107 17.0664C59.8994 20.3551 63.1554 23.6111 66.4114 26.8671C66.2807 26.9433 66.0956 26.8889 65.9214 26.8889C62.9812 26.8889 60.0519 26.8889 57.1117 26.8998C56.7196 26.8998 56.5999 26.8344 56.5999 26.4097C56.6216 23.4151 56.6107 20.4313 56.6107 17.4367C56.6107 17.3169 56.6107 17.1862 56.6107 17.0664Z" fill="#4C6C8D"/>
</svg>
