<svg width="86" height="88" viewBox="0 0 86 88" fill="none" xmlns="http://www.w3.org/2000/svg">
<rect width="86" height="88" rx="20" fill="#EDF2F7"/>
<path d="M41.1439 70.407H15.8074C15.373 70.407 15.0311 70.0339 15.0771 69.602C16.0647 60.3361 20.0609 55.6423 21.987 54.4366H34.8722C39.926 58.3711 41.5963 65.7816 41.8675 69.6483C41.8967 70.0643 41.5609 70.407 41.1439 70.407Z" fill="#4C6C8D"/>
<path d="M22.0776 54.4359C23.9076 57.5967 29.4095 62.3848 36.7776 56.2507C34.8872 53.7402 29.3006 49.8626 22.0776 54.4359Z" fill="#435E7A"/>
<circle cx="28.429" cy="47.8126" r="9.1648" fill="#4C6C8D"/>
<path d="M22.895 55.7072C17.9224 60.2442 16.3465 67.322 16.1802 70.3618H15.8538C15.4193 70.3618 15.0772 69.9885 15.1237 69.5564C16.1116 60.3615 20.0925 55.6704 22.0329 54.3915L22.895 55.7072Z" fill="#5B81A9"/>
<path d="M34.1013 51.2621C28.6931 57.2873 22.7436 54.4078 20.4448 52.2149C21.3522 53.9934 22.6982 55.0128 23.2578 55.3001C29.7911 59.6103 34.3281 54.6649 34.8726 54.3927C39.7 48.8394 37.005 43.4585 35.0541 41.4622C37.1955 45.9266 35.3112 49.8557 34.1013 51.2621Z" fill="#435E7A"/>
<path d="M23.1414 41.7339C19.1125 45.1095 19.6479 50.1577 20.4192 52.2599C17.6244 47.3236 20.3085 42.8077 22.1233 41.0987C25.7529 37.578 30.8041 38.6185 32.7399 39.6923C26.8872 37.9228 23.822 41.4164 23.1414 41.7339Z" fill="#5B81A9"/>
<path d="M69.6126 70.4427H49.2815C48.8472 70.4427 48.505 70.07 48.5532 69.6383C49.3837 62.1951 52.6038 58.4185 54.1612 57.4436H64.6492C68.7027 60.5994 70.082 66.5025 70.3326 69.6856C70.3653 70.1013 70.0295 70.4427 69.6126 70.4427Z" fill="#4C6C8D"/>
<path d="M54.2349 57.4425C55.7243 60.0152 60.2026 63.9125 66.2 58.9196C64.6612 56.8762 60.114 53.72 54.2349 57.4425Z" fill="#435E7A"/>
<circle cx="59.405" cy="52.0522" r="7.45972" fill="#4C6C8D"/>
<path d="M54.9 58.4778C50.8525 62.1707 49.5699 67.9317 49.4345 70.406H49.3192C48.8846 70.406 48.5424 70.0329 48.591 69.601C49.4219 62.2153 52.6295 58.4409 54.1983 57.4069L54.9 58.4778Z" fill="#5B81A9"/>
<path d="M64.0215 54.8606C59.6195 59.7649 54.7768 57.4211 52.9058 55.6362C53.6443 57.0838 54.7399 57.9135 55.1954 58.1474C60.5132 61.6556 64.2061 57.6303 64.6493 57.4088C68.5786 52.8886 66.385 48.5088 64.797 46.8839C66.5401 50.5178 65.0063 53.7158 64.0215 54.8606Z" fill="#435E7A"/>
<path d="M55.101 47.1043C51.8217 49.8518 52.2574 53.9608 52.8852 55.6719C50.6104 51.654 52.7951 47.9783 54.2723 46.5873C57.2266 43.7216 61.3381 44.5685 62.9137 45.4425C58.1499 44.0022 55.6549 46.8458 55.101 47.1043Z" fill="#5B81A9"/>
<path d="M45.3727 36.4738L41.4051 40.4414C41.0109 40.8356 40.337 40.5564 40.337 39.999V36.2499C40.337 36.1205 40.2321 36.0157 40.1028 36.0157C38.6798 36.0157 37.5262 34.8621 37.5262 33.4391V21.4421C37.5262 19.5416 39.0669 18.0009 40.9675 18.0009H67.5592C69.4598 18.0009 71.0005 19.5416 71.0005 21.4421V32.5744C71.0005 34.4749 69.4598 36.0157 67.5592 36.0157H46.4788C46.0639 36.0157 45.6661 36.1805 45.3727 36.4738Z" fill="#FFA600"/>
<path d="M61.771 35.9894C69.5919 35.5201 69.5921 31.4532 70.9999 20.9729V32.5481C70.9999 34.4487 69.4602 35.9894 67.5596 35.9894H61.771Z" fill="#DC9002"/>
<path d="M49.7258 18.0009C36.2735 18.783 38.7763 26.6041 37.5249 33.6431V20.8165C37.5249 19.2614 38.7855 18.0009 40.3405 18.0009H49.7258Z" fill="#FBC157"/>
<circle cx="47.8489" cy="27.3861" r="1.56422" fill="#EDF2F7"/>
<circle cx="54.4187" cy="27.3861" r="1.56422" fill="#EDF2F7"/>
<circle cx="60.9885" cy="27.3861" r="1.56422" fill="#EDF2F7"/>
</svg>
