<svg width="87" height="88" viewBox="0 0 87 88" fill="none" xmlns="http://www.w3.org/2000/svg">
<rect x="0.5" width="86" height="88" rx="20" fill="#EDF2F7"/>
<path d="M30.6182 34.2605L27.3612 32.9194L21.7095 46.522L27.5528 50.4494L29.2771 48.4378C30.6565 47.0584 32.0231 47.6715 32.534 48.1504C33.7602 49.2233 33.3004 50.5133 32.9172 51.0242C34.1433 50.028 35.4078 50.5452 35.8868 50.9284C36.9596 51.6948 36.6531 53.2274 36.3657 53.898C37.362 52.9017 38.6967 53.419 39.2395 53.8022C40.4656 54.7218 40.0697 56.1651 39.7185 56.7717C40.9446 55.6989 42.3368 56.3886 42.8796 56.8675C43.6459 57.5572 43.5182 58.7515 43.3586 59.2624L42.1133 60.8908L44.1249 62.4235C45.8109 63.2665 47.0625 62.3277 47.4776 61.753C48.3206 60.5268 47.8927 59.2624 47.5734 58.7834C47.797 58.975 48.2631 59.3773 48.3398 59.4539C49.9491 60.4502 51.3093 59.7413 51.7883 59.2624C52.9378 57.9596 52.395 56.4844 51.9799 55.9096L52.9378 56.5802C54.3172 57.04 55.4284 56.3886 55.8116 56.0054C56.9611 54.5494 56.3544 53.1636 55.9074 52.6527L56.9611 53.419C58.4938 54.0321 59.5794 53.3552 59.9307 52.9401C61.0802 51.7905 60.6012 50.2259 60.218 49.5873L45.0828 37.9964C42.1707 36.004 39.0798 34.9311 37.8984 34.6437C37.5919 34.4904 32.9172 34.3244 30.6182 34.2605Z" fill="#FFAD13"/>
<path d="M49.0897 51.4886L55.8291 55.85C55.4128 56.2074 55.0177 56.5067 54.5838 56.6163C53.8997 56.7892 53.219 56.6356 52.9505 56.575L52.9397 56.5726L47.782 53.2225C47.0413 51.5886 48.3452 51.3858 49.0897 51.4886Z" fill="#FFA601"/>
<path d="M49.0897 51.4886L55.8291 55.85C55.4128 56.2074 55.0177 56.5067 54.5838 56.6163C53.8997 56.7892 53.219 56.6356 52.9505 56.575L52.9397 56.5726L47.782 53.2225C47.0413 51.5886 48.3452 51.3858 49.0897 51.4886Z" fill="#696969" fill-opacity="0.05"/>
<path d="M45.0657 54.7468L51.8051 59.1082C51.3889 59.4656 50.9937 59.7649 50.5598 59.8745C49.8757 60.0474 49.1951 59.8938 48.9266 59.8332L48.9158 59.8308L43.758 56.4807C43.0174 54.8468 44.3212 54.644 45.0657 54.7468Z" fill="#FFA601"/>
<path d="M45.0657 54.7468L51.8051 59.1082C51.3889 59.4656 50.9937 59.7649 50.5598 59.8745C49.8757 60.0474 49.1951 59.8938 48.9266 59.8332L48.9158 59.8308L43.758 56.4807C43.0174 54.8468 44.3212 54.644 45.0657 54.7468Z" fill="#696969" fill-opacity="0.05"/>
<path d="M40.66 57.2375L47.4952 61.771C47.0789 62.1284 46.4922 62.5234 46.0583 62.6331C45.3648 62.8083 44.4988 62.5002 44.2382 62.4415L39.3523 58.9714C38.6117 57.3375 39.9155 57.1347 40.66 57.2375Z" fill="#FFA601"/>
<path d="M40.66 57.2375L47.4952 61.771C47.0789 62.1284 46.4922 62.5234 46.0583 62.6331C45.3648 62.8083 44.4988 62.5002 44.2382 62.4415L39.3523 58.9714C38.6117 57.3375 39.9155 57.1347 40.66 57.2375Z" fill="#696969" fill-opacity="0.05"/>
<path d="M30.6168 34.2608L27.743 33.1113L26.8809 35.2188L30.6168 36.5599H36.7475L58.5882 50.9287C59.2012 51.4652 58.652 52.9404 58.3008 53.6109C61.2129 53.0745 60.7914 50.7052 60.2166 49.5876L40.196 35.6977C39.5829 35.0847 38.344 34.7398 37.8012 34.644C37.4947 34.4907 32.8839 34.3247 30.6168 34.2608Z" fill="#FFA601"/>
<path d="M30.6168 34.2608L27.743 33.1113L26.8809 35.2188L30.6168 36.5599H36.7475L58.5882 50.9287C59.2012 51.4652 58.652 52.9404 58.3008 53.6109C61.2129 53.0745 60.7914 50.7052 60.2166 49.5876L40.196 35.6977C39.5829 35.0847 38.344 34.7398 37.8012 34.644C37.4947 34.4907 32.8839 34.3247 30.6168 34.2608Z" fill="#696969" fill-opacity="0.05"/>
<path d="M54.8584 34.3557L58.6901 32.9188L59.3607 32.4398L65.2998 45.755L60.2181 49.5867L51.8888 44.0307C47.1375 44.8737 43.523 42.2745 42.3096 40.8696C41.7732 40.2565 41.192 40.3587 40.9685 40.4864L39.34 41.8275C36.6578 43.8966 34.4546 43.7753 33.6883 43.4559C30.393 42.2298 31.6766 40.7099 32.7303 40.1032C33.3434 39.9499 37.3922 36.4631 39.34 34.7388C40.6428 33.1295 42.118 32.8549 42.6927 32.9188C45.5985 33.3977 51.4673 34.3557 51.6972 34.3557C52.8467 34.6622 54.2836 34.4834 54.8584 34.3557Z" fill="#F29E01"/>
<path d="M58.3193 48.3611L63.8753 44.1463L64.3543 43.8589L65.2164 45.7747L60.1394 49.6064L58.3193 48.3611Z" fill="#696969" fill-opacity="0.1"/>
<rect x="22.0527" y="29.1259" width="6.7417" height="17.2686" rx="1.17133" transform="rotate(22.2975 22.0527 29.1259)" fill="#4C6C8D"/>
<path d="M22.1887 33.0024C21.1222 32.6864 20.385 33.3828 20.1497 33.7705L21.6422 30.1709C21.8901 29.573 22.5758 29.2895 23.1735 29.5378L27.2307 31.2231C27.8302 31.4721 28.1128 32.1611 27.8609 32.7593L26.785 35.3147L26.6041 34.767C25.1728 34.2117 22.2859 33.0813 22.1887 33.0024Z" fill="white" fill-opacity="0.2"/>
<rect width="6.7417" height="17.2686" rx="1.17133" transform="matrix(-0.928879 0.370382 0.370382 0.928879 65.2349 29.1835)" fill="#4C6C8D"/>
<path d="M68.7542 42.5314C69.7348 42.0063 69.7693 40.9927 69.664 40.5516L71.1337 44.1606C71.3778 44.7601 71.0895 45.4438 70.4899 45.6875L66.42 47.3418C65.8186 47.5862 65.1332 47.295 64.8917 46.6925L63.8601 44.1189L64.3738 44.3811C65.782 43.7697 68.6296 42.5437 68.7542 42.5314Z" fill="black" fill-opacity="0.25"/>
<rect x="25.6719" y="52.7029" width="8.04657" height="4.60858" rx="2.30429" transform="rotate(-50.5553 25.6719 52.7029)" fill="#F29E01"/>
<path d="M31.976 47.5935C28.834 49.2794 29.3257 52.8301 29.9644 54.3947C28.8915 55.0844 27.7931 54.4905 27.378 54.1074C26.2285 53.0345 26.6436 51.6806 26.9948 51.1378L28.7191 49.0304C29.7919 47.2678 31.3374 47.338 31.976 47.5935Z" fill="white" fill-opacity="0.1"/>
<rect x="29.0854" y="55.7059" width="8.04657" height="4.60858" rx="2.30429" transform="rotate(-50.5553 29.0854 55.7059)" fill="#F29E01"/>
<path d="M35.413 50.5638C32.271 52.2498 32.7627 55.8005 33.4014 57.3651C32.3285 58.0548 31.2301 57.4609 30.815 57.0777C29.6655 56.0048 30.0806 54.651 30.4318 54.1081L32.1561 52.0007C33.2289 50.2381 34.7744 50.3084 35.413 50.5638Z" fill="white" fill-opacity="0.1"/>
<rect x="32.5337" y="58.3885" width="8.04657" height="4.60858" rx="2.30429" transform="rotate(-50.5553 32.5337 58.3885)" fill="#F29E01"/>
<path d="M38.8612 53.2445C35.7193 54.9304 36.211 58.4811 36.8496 60.0457C35.7768 60.7354 34.6783 60.1415 34.2632 59.7584C33.1137 58.6855 33.5288 57.3316 33.88 56.7888L35.6043 54.6814C36.6772 52.9188 38.2226 52.989 38.8612 53.2445Z" fill="white" fill-opacity="0.1"/>
<rect x="35.9819" y="61.0692" width="8.04657" height="4.60858" rx="2.30429" transform="rotate(-50.5553 35.9819 61.0692)" fill="#F29E01"/>
<path d="M42.1191 56.119C38.9771 57.8049 39.4688 61.3556 40.1074 62.9203C39.0346 63.61 37.9361 63.016 37.521 62.6329C36.3715 61.56 36.7866 60.2061 37.1379 59.6633L38.8621 57.5559C39.935 55.7933 41.4804 55.8635 42.1191 56.119Z" fill="white" fill-opacity="0.1"/>
<path d="M40.5032 38.9723C39.9668 38.9723 35.5539 42.1015 33.4146 43.6661C34.1043 44.0493 35.043 44.0174 35.4262 43.9535C37.0355 44.0301 39.7369 41.9419 40.8864 40.8881C41.4994 40.5816 42.0359 40.952 42.2275 41.1755C45.3694 44.6241 49.9866 44.7837 51.9025 44.4325L51.8067 43.4745C49.2011 43.0147 45.676 40.5369 44.2391 39.3555C42.7831 37.8994 41.1418 38.4933 40.5032 38.9723Z" fill="#8A8A8A" fill-opacity="0.1"/>
</svg>
