<svg width="87" height="88" viewBox="0 0 87 88" fill="none" xmlns="http://www.w3.org/2000/svg">
<rect x="0.5" width="86" height="88" rx="20" fill="#EDF2F7"/>
<path d="M65.0474 71.0985L27.9481 71.0444C26.5959 71.0424 25.5012 69.9449 25.5027 68.5927L25.5585 18.4463C25.56 17.0948 26.656 16 28.0075 16H56.4184L67.5 27.2041V68.6495C67.5 70.0034 66.4014 71.1004 65.0474 71.0985Z" fill="#FFA600"/>
<path d="M58.8529 27.1563L67.4991 27.2041L56.4175 16L56.4175 24.7074C56.4175 26.0546 57.5057 27.1489 58.8529 27.1563Z" fill="#4C6C8D"/>
<rect x="32.9077" y="35.3459" width="27.3061" height="2.20408" rx="1.10204" fill="#4C6C8D"/>
<rect x="32.9077" y="42.4492" width="27.3061" height="2.20408" rx="1.10204" fill="#4C6C8D"/>
<rect x="32.9077" y="49.0619" width="27.3061" height="2.20408" rx="1.10204" fill="#4C6C8D"/>
<path d="M40.1939 16C32.2773 17.837 26.4055 34.745 25.5 38.3469V18.449C25.5 17.0964 26.5964 16 27.949 16H40.1939Z" fill="#FBC157"/>
<path d="M29.6715 57.0558L22.1953 64.564L26.174 68.3823L33.6823 61.0024L29.6715 57.0558Z" fill="#FFA600"/>
<path d="M31.6619 59.0447L24.2178 66.5529L26.2392 68.3177L33.6512 60.9699L31.6619 59.0447Z" fill="#E49A15"/>
<circle cx="38.5917" cy="51.4415" r="12.5458" fill="#61729B"/>
<circle cx="38.5588" cy="51.4741" r="10.9094" fill="white"/>
<path d="M44.2241 58.8585H32.943C32.5126 58.8585 32.1729 58.4893 32.2287 58.0625C32.7703 53.9146 34.5863 51.797 35.4762 51.24H41.6229C43.8736 52.9921 44.7175 56.1894 44.9251 58.1073C44.9695 58.518 44.6371 58.8585 44.2241 58.8585Z" fill="#4C6C8D"/>
<path d="M35.5195 51.2401C36.3925 52.748 39.0171 55.0321 42.532 52.1059C41.6302 50.9083 38.9652 49.0585 35.5195 51.2401Z" fill="#435E7A"/>
<circle cx="38.5492" cy="48.0801" r="4.37199" fill="#FFA600"/>
<path d="M35.9094 51.8458C33.5372 54.0102 32.7855 57.3865 32.7061 58.8367C32.4151 58.8367 32.1859 58.5862 32.2195 58.2971C32.7184 54.0132 34.5835 51.821 35.4981 51.2181L35.9094 51.8458Z" fill="#5B81A9"/>
<path d="M41.2559 49.7258C38.676 52.6 35.8378 51.2264 34.7412 50.1803C35.1741 51.0287 35.8162 51.515 36.0831 51.6521C39.1998 53.7082 41.3641 51.3491 41.6239 51.2192C43.9267 48.57 42.6411 46.0031 41.7104 45.0508C42.732 47.1805 41.8331 49.0548 41.2559 49.7258Z" fill="#DC9002"/>
<path d="M36.0271 45.1799C34.1051 46.7901 34.3605 49.1983 34.7285 50.2012C33.3952 47.8463 34.6757 45.6921 35.5414 44.8768C37.2729 43.1973 39.6825 43.6937 40.606 44.2059C37.814 43.3618 36.3517 45.0284 36.0271 45.1799Z" fill="#FBC157"/>
<path d="M22.4199 64.3069L20.5785 66.0876C19.9865 66.66 19.9805 67.6071 20.5651 68.1871L22.4397 70.0465C23.0142 70.6164 23.9414 70.6145 24.5135 70.0423L26.3023 68.2535L22.4199 64.3069Z" fill="#61729B"/>
<path d="M24.4099 66.3292L21.5542 69.1528L22.4404 70.039C23.0142 70.6129 23.9446 70.6128 24.5184 70.039L26.303 68.2544L24.4099 66.3292Z" fill="#47568C"/>
<path d="M51.7046 71.1024C64.5072 62.9643 65.5351 38.6383 64.4393 27.2045H67.5005V68.6534C67.5005 70.006 66.4041 71.1024 65.0515 71.1024H51.7046Z" fill="#DC9002"/>
</svg>
