<svg width="87" height="88" viewBox="0 0 87 88" fill="none" xmlns="http://www.w3.org/2000/svg">
<rect x="0.5" width="86" height="88" rx="20" fill="#EDF2F7"/>
<path d="M41.2513 70.2704H15.847C15.6603 70.2704 15.5138 70.1075 15.5313 69.9216C16.4084 60.6542 20.3757 55.9778 22.2724 54.7905H34.7618C39.8451 58.748 41.3968 66.3336 41.5663 69.944C41.5747 70.123 41.4305 70.2704 41.2513 70.2704Z" fill="#4C6C8D"/>
<path d="M22.3604 54.7885C24.1341 57.8522 29.467 62.4932 36.6088 56.5476C34.7765 54.1142 29.3615 50.3556 22.3604 54.7885Z" fill="#435E7A"/>
<circle cx="28.5171" cy="48.369" r="8.88331" fill="#4C6C8D"/>
<path d="M23.1514 56.0218C18.3316 60.4195 16.8041 67.2798 16.6429 70.2263H15.8907C15.7039 70.2263 15.5573 70.0634 15.5751 69.8774C16.4523 60.6797 20.4049 56.006 22.3159 54.7465L23.1514 56.0218Z" fill="#5B81A9"/>
<path d="M34.0144 51.7114C28.7723 57.5515 23.0055 54.7604 20.7773 52.6349C21.6569 54.3588 22.9615 55.3468 23.5039 55.6253C29.8366 59.8031 34.2342 55.0096 34.762 54.7458C39.4411 49.363 36.8289 44.1474 34.9379 42.2124C37.0136 46.5397 35.1871 50.3481 34.0144 51.7114Z" fill="#435E7A"/>
<path d="M23.3918 42.4769C19.4866 45.7487 20.0056 50.6419 20.7532 52.6795C18.0442 47.8948 20.6458 43.5176 22.4049 41.8612C25.9231 38.4486 30.8191 39.4571 32.6955 40.4979C27.0225 38.7828 24.0514 42.169 23.3918 42.4769Z" fill="#5B81A9"/>
<path d="M71.1727 70.2873H45.7684C45.5817 70.2873 45.4351 70.1245 45.4527 69.9386C46.3298 60.6712 50.2971 55.9947 52.1938 54.8075H64.6832C69.7665 58.765 71.3182 66.3506 71.4877 69.961C71.4961 70.14 71.3519 70.2873 71.1727 70.2873Z" fill="#4C6C8D"/>
<path d="M52.2817 54.8055C54.0555 57.8692 59.3884 62.5102 66.5302 56.5645C64.6979 54.1312 59.2828 50.3726 52.2817 54.8055Z" fill="#435E7A"/>
<circle cx="58.4385" cy="48.386" r="8.88331" fill="#4C6C8D"/>
<path d="M53.0728 56.0388C48.253 60.4364 46.7255 67.2968 46.5643 70.2433H45.8121C45.6253 70.2433 45.4787 70.0803 45.4964 69.8944C46.3737 60.6966 50.3263 56.0229 52.2373 54.7634L53.0728 56.0388Z" fill="#5B81A9"/>
<path d="M63.9357 51.7284C58.6937 57.5685 52.9269 54.7774 50.6987 52.6519C51.5783 54.3758 52.8829 55.3638 53.4253 55.6423C59.7579 59.8201 64.1556 55.0266 64.6833 54.7628C69.3625 49.38 66.7503 44.1643 64.8593 42.2294C66.935 46.5567 65.1085 50.3651 63.9357 51.7284Z" fill="#435E7A"/>
<path d="M53.3132 42.4938C49.408 45.7657 49.9269 50.6589 50.6745 52.6965C47.9656 47.9118 50.5672 43.5346 52.3263 41.8781C55.8444 38.4655 60.7405 39.4741 62.6169 40.5149C56.9439 38.7998 53.9728 42.186 53.3132 42.4938Z" fill="#5B81A9"/>
<path fill-rule="evenodd" clip-rule="evenodd" d="M43.3034 40.8249C49.8843 40.8249 55.2192 35.49 55.2192 28.9092C55.2192 22.3283 49.8843 16.9934 43.3034 16.9934C36.7226 16.9934 31.3877 22.3283 31.3877 28.9092C31.3877 35.49 36.7226 40.8249 43.3034 40.8249ZM41.9792 29.9686L46.6741 25.3828C47.2412 24.8289 48.1352 24.7937 48.7441 25.3011C49.4463 25.8863 49.4902 26.9498 48.8384 27.5908L43.0741 33.2607C42.4635 33.8613 41.4867 33.8698 40.8657 33.2799L37.8774 30.441C37.229 29.825 37.2314 28.7907 37.8827 28.1777C38.4758 27.6195 39.3988 27.6125 40.0002 28.1617L41.9792 29.9686Z" fill="#FFA600"/>
<path d="M50.6965 33.5166C43.6792 41.3944 35.9593 37.6295 32.9766 34.7623C34.154 37.0877 35.9005 38.4204 36.6265 38.7961C45.1038 44.4316 50.9909 37.9656 51.6973 37.6097C57.9611 30.3488 54.4642 23.3134 51.9328 20.7032C54.7115 26.5404 52.2664 31.6776 50.6965 33.5166Z" fill="#DC9002"/>
<path d="M36.4654 20.9345C31.2612 25.2754 31.9528 31.7673 32.9491 34.4706C29.3389 28.1226 32.806 22.3153 35.1503 20.1177C39.8388 15.5901 46.3636 16.9282 48.8641 18.309C41.3039 16.0336 37.3445 20.5261 36.4654 20.9345Z" fill="#FBC157"/>
</svg>
